G75*
G70*
%OFA0B0*%
%FSLAX24Y24*%
%IPPOS*%
%LPD*%
%AMOC8*
5,1,8,0,0,1.08239X$1,22.5*
%
%ADD10C,0.0000*%
%ADD11C,0.0600*%
%ADD12OC8,0.0600*%
%ADD13C,0.0520*%
%ADD14OC8,0.0520*%
D10*
X000100Y000100D02*
X000100Y007187D01*
X009155Y007187D01*
X009155Y000100D01*
X000100Y000100D01*
X004037Y002069D02*
X004039Y002117D01*
X004045Y002165D01*
X004055Y002212D01*
X004068Y002258D01*
X004086Y002303D01*
X004106Y002347D01*
X004131Y002389D01*
X004159Y002428D01*
X004189Y002465D01*
X004223Y002499D01*
X004260Y002531D01*
X004298Y002560D01*
X004339Y002585D01*
X004382Y002607D01*
X004427Y002625D01*
X004473Y002639D01*
X004520Y002650D01*
X004568Y002657D01*
X004616Y002660D01*
X004664Y002659D01*
X004712Y002654D01*
X004760Y002645D01*
X004806Y002633D01*
X004851Y002616D01*
X004895Y002596D01*
X004937Y002573D01*
X004977Y002546D01*
X005015Y002516D01*
X005050Y002483D01*
X005082Y002447D01*
X005112Y002409D01*
X005138Y002368D01*
X005160Y002325D01*
X005180Y002281D01*
X005195Y002236D01*
X005207Y002189D01*
X005215Y002141D01*
X005219Y002093D01*
X005219Y002045D01*
X005215Y001997D01*
X005207Y001949D01*
X005195Y001902D01*
X005180Y001857D01*
X005160Y001813D01*
X005138Y001770D01*
X005112Y001729D01*
X005082Y001691D01*
X005050Y001655D01*
X005015Y001622D01*
X004977Y001592D01*
X004937Y001565D01*
X004895Y001542D01*
X004851Y001522D01*
X004806Y001505D01*
X004760Y001493D01*
X004712Y001484D01*
X004664Y001479D01*
X004616Y001478D01*
X004568Y001481D01*
X004520Y001488D01*
X004473Y001499D01*
X004427Y001513D01*
X004382Y001531D01*
X004339Y001553D01*
X004298Y001578D01*
X004260Y001607D01*
X004223Y001639D01*
X004189Y001673D01*
X004159Y001710D01*
X004131Y001749D01*
X004106Y001791D01*
X004086Y001835D01*
X004068Y001880D01*
X004055Y001926D01*
X004045Y001973D01*
X004039Y002021D01*
X004037Y002069D01*
D11*
X003234Y005521D03*
D12*
X004234Y005521D03*
X005234Y005521D03*
X005234Y004521D03*
X004234Y004521D03*
X003234Y004521D03*
D13*
X006383Y002329D02*
X006383Y001809D01*
X007383Y001809D02*
X007383Y002329D01*
X008383Y002329D02*
X008383Y001809D01*
D14*
X002569Y002069D03*
X001569Y002069D03*
M02*
