G75*
G70*
%OFA0B0*%
%FSLAX24Y24*%
%IPPOS*%
%LPD*%
%AMOC8*
5,1,8,0,0,1.08239X$1,22.5*
%
%ADD10C,0.0039*%
%ADD11C,0.0100*%
%ADD12C,0.0060*%
%ADD13C,0.0030*%
%ADD14C,0.0080*%
D10*
X003447Y002069D02*
X003449Y002138D01*
X003455Y002206D01*
X003465Y002274D01*
X003479Y002341D01*
X003497Y002408D01*
X003518Y002473D01*
X003544Y002537D01*
X003573Y002599D01*
X003605Y002659D01*
X003641Y002718D01*
X003681Y002774D01*
X003723Y002828D01*
X003769Y002879D01*
X003818Y002928D01*
X003869Y002974D01*
X003923Y003016D01*
X003979Y003056D01*
X004037Y003092D01*
X004098Y003124D01*
X004160Y003153D01*
X004224Y003179D01*
X004289Y003200D01*
X004356Y003218D01*
X004423Y003232D01*
X004491Y003242D01*
X004559Y003248D01*
X004628Y003250D01*
X004697Y003248D01*
X004765Y003242D01*
X004833Y003232D01*
X004900Y003218D01*
X004967Y003200D01*
X005032Y003179D01*
X005096Y003153D01*
X005158Y003124D01*
X005218Y003092D01*
X005277Y003056D01*
X005333Y003016D01*
X005387Y002974D01*
X005438Y002928D01*
X005487Y002879D01*
X005533Y002828D01*
X005575Y002774D01*
X005615Y002718D01*
X005651Y002659D01*
X005683Y002599D01*
X005712Y002537D01*
X005738Y002473D01*
X005759Y002408D01*
X005777Y002341D01*
X005791Y002274D01*
X005801Y002206D01*
X005807Y002138D01*
X005809Y002069D01*
X005807Y002000D01*
X005801Y001932D01*
X005791Y001864D01*
X005777Y001797D01*
X005759Y001730D01*
X005738Y001665D01*
X005712Y001601D01*
X005683Y001539D01*
X005651Y001478D01*
X005615Y001420D01*
X005575Y001364D01*
X005533Y001310D01*
X005487Y001259D01*
X005438Y001210D01*
X005387Y001164D01*
X005333Y001122D01*
X005277Y001082D01*
X005219Y001046D01*
X005158Y001014D01*
X005096Y000985D01*
X005032Y000959D01*
X004967Y000938D01*
X004900Y000920D01*
X004833Y000906D01*
X004765Y000896D01*
X004697Y000890D01*
X004628Y000888D01*
X004559Y000890D01*
X004491Y000896D01*
X004423Y000906D01*
X004356Y000920D01*
X004289Y000938D01*
X004224Y000959D01*
X004160Y000985D01*
X004098Y001014D01*
X004037Y001046D01*
X003979Y001082D01*
X003923Y001122D01*
X003869Y001164D01*
X003818Y001210D01*
X003769Y001259D01*
X003723Y001310D01*
X003681Y001364D01*
X003641Y001420D01*
X003605Y001478D01*
X003573Y001539D01*
X003544Y001601D01*
X003518Y001665D01*
X003497Y001730D01*
X003479Y001797D01*
X003465Y001864D01*
X003455Y001932D01*
X003449Y002000D01*
X003447Y002069D01*
D11*
X003069Y002819D02*
X003026Y002873D01*
X002980Y002925D01*
X002931Y002974D01*
X002879Y003021D01*
X002825Y003064D01*
X002769Y003105D01*
X002710Y003142D01*
X002650Y003176D01*
X002587Y003206D01*
X002524Y003233D01*
X002458Y003257D01*
X002392Y003277D01*
X002324Y003293D01*
X002256Y003305D01*
X002187Y003313D01*
X002118Y003318D01*
X002048Y003319D01*
X001979Y003316D01*
X001910Y003309D01*
X001842Y003298D01*
X001774Y003284D01*
X001707Y003265D01*
X001641Y003243D01*
X001576Y003218D01*
X001513Y003189D01*
X001452Y003156D01*
X001393Y003120D01*
X001336Y003081D01*
X001280Y003039D01*
X001228Y002994D01*
X001178Y002946D01*
X001131Y002895D01*
X001086Y002841D01*
X001045Y002786D01*
X001007Y002728D01*
X000972Y002668D01*
X000940Y002606D01*
X000912Y002543D01*
X000888Y002478D01*
X000867Y002412D01*
X000850Y002344D01*
X000836Y002276D01*
X000827Y002207D01*
X000821Y002138D01*
X000819Y002069D01*
X000821Y002000D01*
X000827Y001931D01*
X000836Y001862D01*
X000850Y001794D01*
X000867Y001726D01*
X000888Y001660D01*
X000912Y001595D01*
X000940Y001532D01*
X000972Y001470D01*
X001007Y001410D01*
X001045Y001352D01*
X001086Y001297D01*
X001131Y001243D01*
X001178Y001192D01*
X001228Y001144D01*
X001280Y001099D01*
X001336Y001057D01*
X001393Y001018D01*
X001452Y000982D01*
X001513Y000949D01*
X001576Y000920D01*
X001641Y000895D01*
X001707Y000873D01*
X001774Y000854D01*
X001842Y000840D01*
X001910Y000829D01*
X001979Y000822D01*
X002048Y000819D01*
X002118Y000820D01*
X002187Y000825D01*
X002256Y000833D01*
X002324Y000845D01*
X002392Y000861D01*
X002458Y000881D01*
X002524Y000905D01*
X002587Y000932D01*
X002650Y000962D01*
X002710Y000996D01*
X002769Y001033D01*
X002825Y001074D01*
X002879Y001117D01*
X002931Y001164D01*
X002980Y001213D01*
X003026Y001265D01*
X003069Y001319D01*
X006383Y001499D02*
X006383Y001719D01*
X006383Y002419D02*
X006383Y002639D01*
X006383Y002638D02*
X006418Y002695D01*
X006456Y002750D01*
X006497Y002803D01*
X006541Y002853D01*
X006588Y002901D01*
X006638Y002945D01*
X006690Y002987D01*
X006745Y003026D01*
X006801Y003061D01*
X006860Y003093D01*
X006920Y003122D01*
X006982Y003147D01*
X007046Y003168D01*
X007110Y003186D01*
X007175Y003200D01*
X007242Y003210D01*
X007308Y003217D01*
X007375Y003219D01*
X007442Y003218D01*
X007508Y003212D01*
X007575Y003203D01*
X007640Y003190D01*
X007705Y003173D01*
X007768Y003153D01*
X007831Y003128D01*
X007892Y003101D01*
X007951Y003069D01*
X008008Y003035D01*
X008063Y002997D01*
X008116Y002956D01*
X008166Y002912D01*
X008214Y002865D01*
X008259Y002815D01*
X008300Y002763D01*
X008339Y002709D01*
X008375Y002652D01*
X008407Y002593D01*
X008436Y002533D01*
X008461Y002471D01*
X008483Y002408D01*
X008483Y001728D02*
X008461Y001665D01*
X008436Y001603D01*
X008407Y001543D01*
X008375Y001484D01*
X008339Y001427D01*
X008300Y001373D01*
X008259Y001321D01*
X008214Y001271D01*
X008166Y001224D01*
X008116Y001180D01*
X008063Y001139D01*
X008008Y001101D01*
X007951Y001067D01*
X007892Y001035D01*
X007831Y001008D01*
X007769Y000983D01*
X007705Y000963D01*
X007640Y000946D01*
X007575Y000933D01*
X007508Y000924D01*
X007442Y000918D01*
X007375Y000917D01*
X007308Y000919D01*
X007241Y000926D01*
X007175Y000936D01*
X007110Y000950D01*
X007046Y000968D01*
X006982Y000989D01*
X006920Y001014D01*
X006860Y001043D01*
X006801Y001075D01*
X006745Y001110D01*
X006690Y001149D01*
X006638Y001191D01*
X006588Y001236D01*
X006541Y001283D01*
X006497Y001333D01*
X006456Y001386D01*
X006418Y001441D01*
X006383Y001498D01*
D12*
X006443Y001729D02*
X006466Y001671D01*
X006493Y001614D01*
X006523Y001559D01*
X006557Y001506D01*
X006594Y001455D01*
X006634Y001407D01*
X006677Y001361D01*
X006722Y001318D01*
X006771Y001278D01*
X006822Y001242D01*
X006875Y001208D01*
X006930Y001178D01*
X006986Y001151D01*
X007045Y001128D01*
X007104Y001109D01*
X007165Y001093D01*
X007227Y001081D01*
X007289Y001073D01*
X007352Y001069D01*
X007414Y001069D01*
X007477Y001073D01*
X007539Y001081D01*
X007601Y001093D01*
X007662Y001109D01*
X007721Y001128D01*
X007780Y001151D01*
X007836Y001178D01*
X007891Y001208D01*
X007944Y001242D01*
X007995Y001278D01*
X008044Y001318D01*
X008089Y001361D01*
X008132Y001407D01*
X008172Y001455D01*
X008209Y001506D01*
X008243Y001559D01*
X008273Y001614D01*
X008300Y001671D01*
X008323Y001729D01*
X008323Y002409D02*
X008300Y002467D01*
X008273Y002524D01*
X008243Y002579D01*
X008209Y002632D01*
X008172Y002683D01*
X008132Y002731D01*
X008089Y002777D01*
X008044Y002820D01*
X007995Y002860D01*
X007944Y002896D01*
X007891Y002930D01*
X007836Y002960D01*
X007780Y002987D01*
X007721Y003010D01*
X007662Y003029D01*
X007601Y003045D01*
X007539Y003057D01*
X007477Y003065D01*
X007414Y003069D01*
X007352Y003069D01*
X007289Y003065D01*
X007227Y003057D01*
X007165Y003045D01*
X007104Y003029D01*
X007045Y003010D01*
X006986Y002987D01*
X006930Y002960D01*
X006875Y002930D01*
X006822Y002896D01*
X006771Y002860D01*
X006722Y002820D01*
X006677Y002777D01*
X006634Y002731D01*
X006594Y002683D01*
X006557Y002632D01*
X006523Y002579D01*
X006493Y002524D01*
X006466Y002467D01*
X006443Y002409D01*
X001069Y002069D02*
X001071Y002132D01*
X001077Y002194D01*
X001087Y002256D01*
X001100Y002318D01*
X001118Y002378D01*
X001139Y002437D01*
X001164Y002495D01*
X001193Y002551D01*
X001225Y002605D01*
X001260Y002657D01*
X001298Y002706D01*
X001340Y002754D01*
X001384Y002798D01*
X001432Y002840D01*
X001481Y002878D01*
X001533Y002913D01*
X001587Y002945D01*
X001643Y002974D01*
X001701Y002999D01*
X001760Y003020D01*
X001820Y003038D01*
X001882Y003051D01*
X001944Y003061D01*
X002006Y003067D01*
X002069Y003069D01*
X002132Y003067D01*
X002194Y003061D01*
X002256Y003051D01*
X002318Y003038D01*
X002378Y003020D01*
X002437Y002999D01*
X002495Y002974D01*
X002551Y002945D01*
X002605Y002913D01*
X002657Y002878D01*
X002706Y002840D01*
X002754Y002798D01*
X002798Y002754D01*
X002840Y002706D01*
X002878Y002657D01*
X002913Y002605D01*
X002945Y002551D01*
X002974Y002495D01*
X002999Y002437D01*
X003020Y002378D01*
X003038Y002318D01*
X003051Y002256D01*
X003061Y002194D01*
X003067Y002132D01*
X003069Y002069D01*
X003067Y002006D01*
X003061Y001944D01*
X003051Y001882D01*
X003038Y001820D01*
X003020Y001760D01*
X002999Y001701D01*
X002974Y001643D01*
X002945Y001587D01*
X002913Y001533D01*
X002878Y001481D01*
X002840Y001432D01*
X002798Y001384D01*
X002754Y001340D01*
X002706Y001298D01*
X002657Y001260D01*
X002605Y001225D01*
X002551Y001193D01*
X002495Y001164D01*
X002437Y001139D01*
X002378Y001118D01*
X002318Y001100D01*
X002256Y001087D01*
X002194Y001077D01*
X002132Y001071D01*
X002069Y001069D01*
X002006Y001071D01*
X001944Y001077D01*
X001882Y001087D01*
X001820Y001100D01*
X001760Y001118D01*
X001701Y001139D01*
X001643Y001164D01*
X001587Y001193D01*
X001533Y001225D01*
X001481Y001260D01*
X001432Y001298D01*
X001384Y001340D01*
X001340Y001384D01*
X001298Y001432D01*
X001260Y001481D01*
X001225Y001533D01*
X001193Y001587D01*
X001164Y001643D01*
X001139Y001701D01*
X001118Y001760D01*
X001100Y001820D01*
X001087Y001882D01*
X001077Y001944D01*
X001071Y002006D01*
X001069Y002069D01*
D13*
X001562Y000325D02*
X001755Y000325D01*
X001857Y000325D02*
X002050Y000325D01*
X002151Y000325D02*
X002296Y000325D01*
X002345Y000373D01*
X002345Y000567D01*
X002296Y000615D01*
X002151Y000615D01*
X002151Y000325D01*
X001953Y000470D02*
X001857Y000470D01*
X001857Y000615D02*
X001857Y000325D01*
X001857Y000615D02*
X002050Y000615D01*
X002446Y000518D02*
X002543Y000615D01*
X002543Y000325D01*
X002639Y000325D02*
X002446Y000325D01*
X001562Y000325D02*
X001562Y000615D01*
X006983Y000660D02*
X006983Y000370D01*
X007177Y000370D01*
X007278Y000370D02*
X007423Y000370D01*
X007471Y000418D01*
X007471Y000612D01*
X007423Y000660D01*
X007278Y000660D01*
X007278Y000370D01*
X007572Y000370D02*
X007766Y000370D01*
X007669Y000370D02*
X007669Y000660D01*
X007572Y000563D01*
D14*
X003069Y001319D02*
X003069Y002819D01*
M02*
