G75*
G70*
%OFA0B0*%
%FSLAX24Y24*%
%IPPOS*%
%LPD*%
%AMOC8*
5,1,8,0,0,1.08239X$1,22.5*
%
%ADD10C,0.1261*%
%ADD11OC8,0.0740*%
%ADD12OC8,0.0680*%
%ADD13C,0.0476*%
D10*
X001008Y001178D03*
X001008Y006690D03*
X016756Y006690D03*
X016756Y001178D03*
D11*
X016567Y009299D03*
X015567Y009299D03*
X014304Y009299D03*
X013304Y009299D03*
X012040Y009299D03*
X011040Y009299D03*
X009382Y009299D03*
X008382Y009299D03*
X007119Y009299D03*
X006119Y009299D03*
X004855Y009299D03*
X003855Y009299D03*
X002591Y009299D03*
X001591Y009299D03*
X001591Y011070D03*
X002591Y011070D03*
X003855Y011070D03*
X004855Y011070D03*
X006119Y011070D03*
X007119Y011070D03*
X008382Y011070D03*
X009382Y011070D03*
X011040Y011070D03*
X012040Y011070D03*
X013304Y011070D03*
X014304Y011070D03*
X015567Y011070D03*
X016567Y011070D03*
D12*
X012382Y002417D03*
X011382Y002417D03*
X010382Y002417D03*
X009382Y002417D03*
X008382Y002417D03*
X007382Y002417D03*
X006382Y002417D03*
X005382Y002417D03*
X005382Y001417D03*
X006382Y001417D03*
X007382Y001417D03*
X008382Y001417D03*
X009382Y001417D03*
X010382Y001417D03*
X011382Y001417D03*
X012382Y001417D03*
D13*
X008371Y005736D03*
X009363Y006186D03*
X010753Y006149D03*
X011737Y006001D03*
M02*
