G75*
G70*
%OFA0B0*%
%FSLAX24Y24*%
%IPPOS*%
%LPD*%
%AMOC8*
5,1,8,0,0,1.08239X$1,22.5*
%
%ADD10C,0.0000*%
%ADD11OC8,0.0660*%
%ADD12OC8,0.0600*%
%ADD13C,0.0240*%
%ADD14C,0.0396*%
%ADD15C,0.0160*%
D10*
X000221Y000391D02*
X000221Y012202D01*
X017544Y012202D01*
X017544Y000391D01*
X000221Y000391D01*
X000417Y001178D02*
X000419Y001226D01*
X000425Y001274D01*
X000435Y001321D01*
X000448Y001367D01*
X000466Y001412D01*
X000486Y001456D01*
X000511Y001498D01*
X000539Y001537D01*
X000569Y001574D01*
X000603Y001608D01*
X000640Y001640D01*
X000678Y001669D01*
X000719Y001694D01*
X000762Y001716D01*
X000807Y001734D01*
X000853Y001748D01*
X000900Y001759D01*
X000948Y001766D01*
X000996Y001769D01*
X001044Y001768D01*
X001092Y001763D01*
X001140Y001754D01*
X001186Y001742D01*
X001231Y001725D01*
X001275Y001705D01*
X001317Y001682D01*
X001357Y001655D01*
X001395Y001625D01*
X001430Y001592D01*
X001462Y001556D01*
X001492Y001518D01*
X001518Y001477D01*
X001540Y001434D01*
X001560Y001390D01*
X001575Y001345D01*
X001587Y001298D01*
X001595Y001250D01*
X001599Y001202D01*
X001599Y001154D01*
X001595Y001106D01*
X001587Y001058D01*
X001575Y001011D01*
X001560Y000966D01*
X001540Y000922D01*
X001518Y000879D01*
X001492Y000838D01*
X001462Y000800D01*
X001430Y000764D01*
X001395Y000731D01*
X001357Y000701D01*
X001317Y000674D01*
X001275Y000651D01*
X001231Y000631D01*
X001186Y000614D01*
X001140Y000602D01*
X001092Y000593D01*
X001044Y000588D01*
X000996Y000587D01*
X000948Y000590D01*
X000900Y000597D01*
X000853Y000608D01*
X000807Y000622D01*
X000762Y000640D01*
X000719Y000662D01*
X000678Y000687D01*
X000640Y000716D01*
X000603Y000748D01*
X000569Y000782D01*
X000539Y000819D01*
X000511Y000858D01*
X000486Y000900D01*
X000466Y000944D01*
X000448Y000989D01*
X000435Y001035D01*
X000425Y001082D01*
X000419Y001130D01*
X000417Y001178D01*
X000417Y006690D02*
X000419Y006738D01*
X000425Y006786D01*
X000435Y006833D01*
X000448Y006879D01*
X000466Y006924D01*
X000486Y006968D01*
X000511Y007010D01*
X000539Y007049D01*
X000569Y007086D01*
X000603Y007120D01*
X000640Y007152D01*
X000678Y007181D01*
X000719Y007206D01*
X000762Y007228D01*
X000807Y007246D01*
X000853Y007260D01*
X000900Y007271D01*
X000948Y007278D01*
X000996Y007281D01*
X001044Y007280D01*
X001092Y007275D01*
X001140Y007266D01*
X001186Y007254D01*
X001231Y007237D01*
X001275Y007217D01*
X001317Y007194D01*
X001357Y007167D01*
X001395Y007137D01*
X001430Y007104D01*
X001462Y007068D01*
X001492Y007030D01*
X001518Y006989D01*
X001540Y006946D01*
X001560Y006902D01*
X001575Y006857D01*
X001587Y006810D01*
X001595Y006762D01*
X001599Y006714D01*
X001599Y006666D01*
X001595Y006618D01*
X001587Y006570D01*
X001575Y006523D01*
X001560Y006478D01*
X001540Y006434D01*
X001518Y006391D01*
X001492Y006350D01*
X001462Y006312D01*
X001430Y006276D01*
X001395Y006243D01*
X001357Y006213D01*
X001317Y006186D01*
X001275Y006163D01*
X001231Y006143D01*
X001186Y006126D01*
X001140Y006114D01*
X001092Y006105D01*
X001044Y006100D01*
X000996Y006099D01*
X000948Y006102D01*
X000900Y006109D01*
X000853Y006120D01*
X000807Y006134D01*
X000762Y006152D01*
X000719Y006174D01*
X000678Y006199D01*
X000640Y006228D01*
X000603Y006260D01*
X000569Y006294D01*
X000539Y006331D01*
X000511Y006370D01*
X000486Y006412D01*
X000466Y006456D01*
X000448Y006501D01*
X000435Y006547D01*
X000425Y006594D01*
X000419Y006642D01*
X000417Y006690D01*
X016165Y006690D02*
X016167Y006738D01*
X016173Y006786D01*
X016183Y006833D01*
X016196Y006879D01*
X016214Y006924D01*
X016234Y006968D01*
X016259Y007010D01*
X016287Y007049D01*
X016317Y007086D01*
X016351Y007120D01*
X016388Y007152D01*
X016426Y007181D01*
X016467Y007206D01*
X016510Y007228D01*
X016555Y007246D01*
X016601Y007260D01*
X016648Y007271D01*
X016696Y007278D01*
X016744Y007281D01*
X016792Y007280D01*
X016840Y007275D01*
X016888Y007266D01*
X016934Y007254D01*
X016979Y007237D01*
X017023Y007217D01*
X017065Y007194D01*
X017105Y007167D01*
X017143Y007137D01*
X017178Y007104D01*
X017210Y007068D01*
X017240Y007030D01*
X017266Y006989D01*
X017288Y006946D01*
X017308Y006902D01*
X017323Y006857D01*
X017335Y006810D01*
X017343Y006762D01*
X017347Y006714D01*
X017347Y006666D01*
X017343Y006618D01*
X017335Y006570D01*
X017323Y006523D01*
X017308Y006478D01*
X017288Y006434D01*
X017266Y006391D01*
X017240Y006350D01*
X017210Y006312D01*
X017178Y006276D01*
X017143Y006243D01*
X017105Y006213D01*
X017065Y006186D01*
X017023Y006163D01*
X016979Y006143D01*
X016934Y006126D01*
X016888Y006114D01*
X016840Y006105D01*
X016792Y006100D01*
X016744Y006099D01*
X016696Y006102D01*
X016648Y006109D01*
X016601Y006120D01*
X016555Y006134D01*
X016510Y006152D01*
X016467Y006174D01*
X016426Y006199D01*
X016388Y006228D01*
X016351Y006260D01*
X016317Y006294D01*
X016287Y006331D01*
X016259Y006370D01*
X016234Y006412D01*
X016214Y006456D01*
X016196Y006501D01*
X016183Y006547D01*
X016173Y006594D01*
X016167Y006642D01*
X016165Y006690D01*
X016165Y001178D02*
X016167Y001226D01*
X016173Y001274D01*
X016183Y001321D01*
X016196Y001367D01*
X016214Y001412D01*
X016234Y001456D01*
X016259Y001498D01*
X016287Y001537D01*
X016317Y001574D01*
X016351Y001608D01*
X016388Y001640D01*
X016426Y001669D01*
X016467Y001694D01*
X016510Y001716D01*
X016555Y001734D01*
X016601Y001748D01*
X016648Y001759D01*
X016696Y001766D01*
X016744Y001769D01*
X016792Y001768D01*
X016840Y001763D01*
X016888Y001754D01*
X016934Y001742D01*
X016979Y001725D01*
X017023Y001705D01*
X017065Y001682D01*
X017105Y001655D01*
X017143Y001625D01*
X017178Y001592D01*
X017210Y001556D01*
X017240Y001518D01*
X017266Y001477D01*
X017288Y001434D01*
X017308Y001390D01*
X017323Y001345D01*
X017335Y001298D01*
X017343Y001250D01*
X017347Y001202D01*
X017347Y001154D01*
X017343Y001106D01*
X017335Y001058D01*
X017323Y001011D01*
X017308Y000966D01*
X017288Y000922D01*
X017266Y000879D01*
X017240Y000838D01*
X017210Y000800D01*
X017178Y000764D01*
X017143Y000731D01*
X017105Y000701D01*
X017065Y000674D01*
X017023Y000651D01*
X016979Y000631D01*
X016934Y000614D01*
X016888Y000602D01*
X016840Y000593D01*
X016792Y000588D01*
X016744Y000587D01*
X016696Y000590D01*
X016648Y000597D01*
X016601Y000608D01*
X016555Y000622D01*
X016510Y000640D01*
X016467Y000662D01*
X016426Y000687D01*
X016388Y000716D01*
X016351Y000748D01*
X016317Y000782D01*
X016287Y000819D01*
X016259Y000858D01*
X016234Y000900D01*
X016214Y000944D01*
X016196Y000989D01*
X016183Y001035D01*
X016173Y001082D01*
X016167Y001130D01*
X016165Y001178D01*
D11*
X016567Y009299D03*
X015567Y009299D03*
X014304Y009299D03*
X013304Y009299D03*
X012040Y009299D03*
X011040Y009299D03*
X009382Y009299D03*
X008382Y009299D03*
X007119Y009299D03*
X006119Y009299D03*
X004855Y009299D03*
X003855Y009299D03*
X002591Y009299D03*
X001591Y009299D03*
X001591Y011070D03*
X002591Y011070D03*
X003855Y011070D03*
X004855Y011070D03*
X006119Y011070D03*
X007119Y011070D03*
X008382Y011070D03*
X009382Y011070D03*
X011040Y011070D03*
X012040Y011070D03*
X013304Y011070D03*
X014304Y011070D03*
X015567Y011070D03*
X016567Y011070D03*
D12*
X012382Y002417D03*
X011382Y002417D03*
X010382Y002417D03*
X009382Y002417D03*
X008382Y002417D03*
X007382Y002417D03*
X006382Y002417D03*
X005382Y002417D03*
X005382Y001417D03*
X006382Y001417D03*
X007382Y001417D03*
X008382Y001417D03*
X009382Y001417D03*
X010382Y001417D03*
X011382Y001417D03*
X012382Y001417D03*
D13*
X012382Y002417D02*
X012382Y003793D01*
X016314Y007724D01*
X016461Y007871D01*
X016567Y007978D01*
X016567Y009299D01*
X016567Y011070D01*
X015829Y011808D01*
X014345Y011808D01*
X014304Y011767D01*
X014304Y011070D01*
X014304Y009299D01*
X012040Y009299D02*
X012040Y011070D01*
X012040Y011801D01*
X012032Y011808D01*
X014345Y011808D01*
X012032Y011808D02*
X009473Y011808D01*
X009382Y011718D01*
X009382Y011070D01*
X009382Y009299D01*
X007119Y009299D02*
X007119Y011070D01*
X007119Y011767D01*
X007160Y011808D01*
X009473Y011808D01*
X007160Y011808D02*
X004798Y011808D01*
X004855Y011751D01*
X004855Y011070D01*
X004855Y009299D01*
X002591Y009299D02*
X002591Y011070D01*
X003329Y011808D01*
X004798Y011808D01*
X009178Y006740D02*
X010162Y006740D01*
X010753Y006149D01*
X011737Y006001D02*
X010382Y004647D01*
X010382Y002417D01*
X009382Y002417D02*
X009375Y002425D01*
X009375Y006175D01*
X009363Y006186D01*
X008882Y006444D02*
X009178Y006740D01*
X008882Y006444D02*
X008882Y002753D01*
X008382Y002417D02*
X008382Y005724D01*
X008371Y005736D01*
D14*
X008371Y005736D03*
X009363Y006186D03*
X010753Y006149D03*
X011737Y006001D03*
D15*
X008882Y002753D02*
X008882Y001917D01*
X009382Y001417D01*
M02*
