%
M48
M72
T01C0.0236
T02C0.0320
T03C0.0400
T04C0.1181
%
T01
X8371Y5736
X9363Y6186
X10753Y6149
X11737Y6001
T02
X12040Y9299
X11040Y9299
X9382Y9299
X8382Y9299
X7119Y9299
X6119Y9299
X4855Y9299
X3855Y9299
X2591Y9299
X1591Y9299
X1591Y11070
X2591Y11070
X3855Y11070
X4855Y11070
X6119Y11070
X7119Y11070
X8382Y11070
X9382Y11070
X11040Y11070
X12040Y11070
X13304Y11070
X14304Y11070
X15567Y11070
X16567Y11070
X16567Y9299
X15567Y9299
X14304Y9299
X13304Y9299
T03
X12382Y2417
X11382Y2417
X10382Y2417
X9382Y2417
X8382Y2417
X7382Y2417
X6382Y2417
X5382Y2417
X5382Y1417
X6382Y1417
X7382Y1417
X8382Y1417
X9382Y1417
X10382Y1417
X11382Y1417
X12382Y1417
T04
X1008Y1178
X1008Y6690
X16756Y6690
X16756Y1178
M30
