G75*
G70*
%OFA0B0*%
%FSLAX24Y24*%
%IPPOS*%
%LPD*%
%AMOC8*
5,1,8,0,0,1.08239X$1,22.5*
%
%ADD10C,0.0060*%
%ADD11C,0.0020*%
%ADD12C,0.0030*%
%ADD13C,0.0050*%
D10*
X004882Y001167D02*
X004882Y002667D01*
X005132Y002917D01*
X005632Y002917D01*
X005882Y002667D01*
X006132Y002917D01*
X006632Y002917D01*
X006882Y002667D01*
X007132Y002917D01*
X007632Y002917D01*
X007882Y002667D01*
X008132Y002917D01*
X008632Y002917D01*
X008882Y002667D01*
X009132Y002917D01*
X009632Y002917D01*
X009882Y002667D01*
X010132Y002917D01*
X010632Y002917D01*
X010882Y002667D01*
X011132Y002917D01*
X011632Y002917D01*
X011882Y002667D01*
X012132Y002917D01*
X012632Y002917D01*
X012882Y002667D01*
X012882Y001167D01*
X012632Y000917D01*
X012132Y000917D01*
X011882Y001167D01*
X011632Y000917D01*
X011132Y000917D01*
X010882Y001167D01*
X010632Y000917D01*
X010132Y000917D01*
X009882Y001167D01*
X009632Y000917D01*
X009132Y000917D01*
X008882Y001167D01*
X008632Y000917D01*
X008132Y000917D01*
X007882Y001167D01*
X007632Y000917D01*
X007132Y000917D01*
X006882Y001167D01*
X006632Y000917D01*
X006132Y000917D01*
X005882Y001167D01*
X005632Y000917D01*
X005132Y000917D01*
X004882Y001167D01*
X003883Y004936D02*
X007583Y004936D01*
X007606Y004938D01*
X007629Y004943D01*
X007651Y004952D01*
X007671Y004965D01*
X007689Y004980D01*
X007704Y004998D01*
X007717Y005018D01*
X007726Y005040D01*
X007731Y005063D01*
X007733Y005086D01*
X007733Y006326D01*
X007731Y006349D01*
X007726Y006372D01*
X007717Y006394D01*
X007704Y006414D01*
X007689Y006432D01*
X007671Y006447D01*
X007651Y006460D01*
X007629Y006469D01*
X007606Y006474D01*
X007583Y006476D01*
X003883Y006476D01*
X003860Y006474D01*
X003837Y006469D01*
X003815Y006460D01*
X003795Y006447D01*
X003777Y006432D01*
X003762Y006414D01*
X003749Y006394D01*
X003740Y006372D01*
X003735Y006349D01*
X003733Y006326D01*
X003733Y005086D01*
X003735Y005063D01*
X003740Y005040D01*
X003749Y005018D01*
X003762Y004998D01*
X003777Y004980D01*
X003795Y004965D01*
X003815Y004952D01*
X003837Y004943D01*
X003860Y004938D01*
X003883Y004936D01*
X007733Y005506D02*
X007706Y005508D01*
X007679Y005513D01*
X007653Y005523D01*
X007629Y005535D01*
X007607Y005551D01*
X007587Y005569D01*
X007570Y005591D01*
X007555Y005614D01*
X007545Y005639D01*
X007537Y005665D01*
X007533Y005692D01*
X007533Y005720D01*
X007537Y005747D01*
X007545Y005773D01*
X007555Y005798D01*
X007570Y005821D01*
X007587Y005843D01*
X007607Y005861D01*
X007629Y005877D01*
X007653Y005889D01*
X007679Y005899D01*
X007706Y005904D01*
X007733Y005906D01*
X010032Y006326D02*
X010032Y005086D01*
X010034Y005063D01*
X010039Y005040D01*
X010048Y005018D01*
X010061Y004998D01*
X010076Y004980D01*
X010094Y004965D01*
X010114Y004952D01*
X010136Y004943D01*
X010159Y004938D01*
X010182Y004936D01*
X013882Y004936D01*
X013905Y004938D01*
X013928Y004943D01*
X013950Y004952D01*
X013970Y004965D01*
X013988Y004980D01*
X014003Y004998D01*
X014016Y005018D01*
X014025Y005040D01*
X014030Y005063D01*
X014032Y005086D01*
X014032Y006326D01*
X014030Y006349D01*
X014025Y006372D01*
X014016Y006394D01*
X014003Y006414D01*
X013988Y006432D01*
X013970Y006447D01*
X013950Y006460D01*
X013928Y006469D01*
X013905Y006474D01*
X013882Y006476D01*
X010182Y006476D01*
X010159Y006474D01*
X010136Y006469D01*
X010114Y006460D01*
X010094Y006447D01*
X010076Y006432D01*
X010061Y006414D01*
X010048Y006394D01*
X010039Y006372D01*
X010034Y006349D01*
X010032Y006326D01*
X014032Y005906D02*
X014005Y005904D01*
X013978Y005899D01*
X013952Y005889D01*
X013928Y005877D01*
X013906Y005861D01*
X013886Y005843D01*
X013869Y005821D01*
X013854Y005798D01*
X013844Y005773D01*
X013836Y005747D01*
X013832Y005720D01*
X013832Y005692D01*
X013836Y005665D01*
X013844Y005639D01*
X013854Y005614D01*
X013869Y005591D01*
X013886Y005569D01*
X013906Y005551D01*
X013928Y005535D01*
X013952Y005523D01*
X013978Y005513D01*
X014005Y005508D01*
X014032Y005506D01*
D11*
X014032Y005076D02*
X010032Y005076D01*
X007733Y005076D02*
X003733Y005076D01*
D12*
X003568Y005242D02*
X003568Y005338D01*
X003568Y005290D02*
X003278Y005290D01*
X003278Y005242D02*
X003278Y005338D01*
X003326Y005438D02*
X003278Y005486D01*
X003278Y005583D01*
X003326Y005632D01*
X003278Y005733D02*
X003278Y005926D01*
X003278Y005829D02*
X003568Y005829D01*
X003471Y005733D01*
X003520Y005632D02*
X003568Y005583D01*
X003568Y005486D01*
X003520Y005438D01*
X003326Y005438D01*
X004919Y003311D02*
X004919Y003021D01*
X005113Y003311D01*
X005113Y003021D01*
X005214Y003021D02*
X005214Y003311D01*
X005408Y003311D02*
X005214Y003021D01*
X005408Y003021D02*
X005408Y003311D01*
X005509Y003263D02*
X005557Y003311D01*
X005654Y003311D01*
X005702Y003263D01*
X005702Y003069D01*
X005654Y003021D01*
X005557Y003021D01*
X005509Y003069D01*
X005509Y003263D01*
X005803Y003263D02*
X005852Y003311D01*
X005948Y003311D01*
X005997Y003263D01*
X005997Y003069D01*
X005948Y003021D01*
X005852Y003021D01*
X005803Y003069D01*
X006098Y002972D02*
X006291Y002972D01*
X006393Y003021D02*
X006586Y003021D01*
X006586Y003311D01*
X006687Y003263D02*
X006687Y003166D01*
X006736Y003117D01*
X006881Y003117D01*
X006881Y003021D02*
X006881Y003311D01*
X006736Y003311D01*
X006687Y003263D01*
X006784Y003117D02*
X006687Y003021D01*
X007079Y003021D02*
X007079Y003311D01*
X007175Y003311D02*
X006982Y003311D01*
X007277Y003263D02*
X007325Y003311D01*
X007422Y003311D01*
X007470Y003263D01*
X007470Y003069D01*
X007422Y003021D01*
X007325Y003021D01*
X007277Y003069D01*
X014203Y005291D02*
X014203Y005388D01*
X014203Y005339D02*
X014493Y005339D01*
X014493Y005291D02*
X014493Y005388D01*
X014445Y005487D02*
X014251Y005487D01*
X014203Y005536D01*
X014203Y005632D01*
X014251Y005681D01*
X014203Y005782D02*
X014397Y005975D01*
X014445Y005975D01*
X014493Y005927D01*
X014493Y005830D01*
X014445Y005782D01*
X014445Y005681D02*
X014493Y005632D01*
X014493Y005536D01*
X014445Y005487D01*
X014203Y005782D02*
X014203Y005975D01*
X012934Y008028D02*
X012644Y008028D01*
X012741Y008028D02*
X012741Y008173D01*
X012789Y008221D01*
X012886Y008221D01*
X012934Y008173D01*
X012934Y008028D01*
X012741Y008124D02*
X012644Y008221D01*
X012644Y008322D02*
X012644Y008516D01*
X012644Y008419D02*
X012934Y008419D01*
X012837Y008322D01*
X012886Y008617D02*
X012692Y008617D01*
X012886Y008811D01*
X012692Y008811D01*
X012644Y008762D01*
X012644Y008665D01*
X012692Y008617D01*
X012886Y008617D02*
X012934Y008665D01*
X012934Y008762D01*
X012886Y008811D01*
X012934Y009849D02*
X012644Y009849D01*
X012741Y009849D02*
X012741Y009994D01*
X012789Y010042D01*
X012886Y010042D01*
X012934Y009994D01*
X012934Y009849D01*
X012741Y009945D02*
X012644Y010042D01*
X012644Y010143D02*
X012644Y010337D01*
X012644Y010240D02*
X012934Y010240D01*
X012837Y010143D01*
X012837Y010438D02*
X012934Y010535D01*
X012644Y010535D01*
X012644Y010631D02*
X012644Y010438D01*
X010670Y010437D02*
X010670Y010534D01*
X010622Y010582D01*
X010574Y010582D01*
X010525Y010534D01*
X010477Y010582D01*
X010428Y010582D01*
X010380Y010534D01*
X010380Y010437D01*
X010428Y010389D01*
X010380Y010288D02*
X010380Y010094D01*
X010380Y010191D02*
X010670Y010191D01*
X010574Y010094D01*
X010622Y009993D02*
X010525Y009993D01*
X010477Y009945D01*
X010477Y009799D01*
X010380Y009799D02*
X010670Y009799D01*
X010670Y009945D01*
X010622Y009993D01*
X010477Y009896D02*
X010380Y009993D01*
X010622Y010389D02*
X010670Y010437D01*
X010525Y010485D02*
X010525Y010534D01*
X008025Y010450D02*
X007880Y010305D01*
X007880Y010498D01*
X007735Y010450D02*
X008025Y010450D01*
X007735Y010204D02*
X007735Y010010D01*
X007735Y010107D02*
X008025Y010107D01*
X007928Y010010D01*
X007880Y009909D02*
X007831Y009861D01*
X007831Y009715D01*
X007735Y009715D02*
X008025Y009715D01*
X008025Y009861D01*
X007976Y009909D01*
X007880Y009909D01*
X007831Y009812D02*
X007735Y009909D01*
X007735Y008628D02*
X007735Y008435D01*
X007735Y008531D02*
X008025Y008531D01*
X007928Y008435D01*
X007880Y008333D02*
X007831Y008285D01*
X007831Y008140D01*
X007735Y008140D02*
X008025Y008140D01*
X008025Y008285D01*
X007976Y008333D01*
X007880Y008333D01*
X007831Y008237D02*
X007735Y008333D01*
X005761Y008285D02*
X005761Y008140D01*
X005471Y008140D01*
X005568Y008140D02*
X005568Y008285D01*
X005616Y008333D01*
X005713Y008333D01*
X005761Y008285D01*
X005713Y008435D02*
X005761Y008483D01*
X005761Y008580D01*
X005713Y008628D01*
X005664Y008628D01*
X005616Y008580D01*
X005568Y008628D01*
X005519Y008628D01*
X005471Y008580D01*
X005471Y008483D01*
X005519Y008435D01*
X005471Y008333D02*
X005568Y008237D01*
X005616Y008531D02*
X005616Y008580D01*
X005568Y009912D02*
X005568Y010057D01*
X005616Y010105D01*
X005713Y010105D01*
X005761Y010057D01*
X005761Y009912D01*
X005471Y009912D01*
X005568Y010008D02*
X005471Y010105D01*
X005471Y010206D02*
X005664Y010400D01*
X005713Y010400D01*
X005761Y010351D01*
X005761Y010255D01*
X005713Y010206D01*
X005471Y010206D02*
X005471Y010400D01*
X003497Y010351D02*
X003352Y010206D01*
X003352Y010400D01*
X003207Y010351D02*
X003497Y010351D01*
X003449Y010105D02*
X003352Y010105D01*
X003304Y010057D01*
X003304Y009912D01*
X003304Y010008D02*
X003207Y010105D01*
X003207Y009912D02*
X003497Y009912D01*
X003497Y010057D01*
X003449Y010105D01*
X003448Y008628D02*
X003448Y008435D01*
X003303Y008435D01*
X003351Y008531D01*
X003351Y008580D01*
X003303Y008628D01*
X003206Y008628D01*
X003158Y008580D01*
X003158Y008483D01*
X003206Y008435D01*
X003158Y008333D02*
X003255Y008237D01*
X003255Y008285D02*
X003255Y008140D01*
X003158Y008140D02*
X003448Y008140D01*
X003448Y008285D01*
X003400Y008333D01*
X003303Y008333D01*
X003255Y008285D01*
X001233Y008236D02*
X001233Y008091D01*
X000943Y008091D01*
X001040Y008091D02*
X001040Y008236D01*
X001088Y008284D01*
X001185Y008284D01*
X001233Y008236D01*
X001233Y008385D02*
X001233Y008579D01*
X001185Y008579D01*
X000992Y008385D01*
X000943Y008385D01*
X000943Y008284D02*
X001040Y008188D01*
X001040Y009862D02*
X001040Y010008D01*
X001088Y010056D01*
X001185Y010056D01*
X001233Y010008D01*
X001233Y009862D01*
X000943Y009862D01*
X001040Y009959D02*
X000943Y010056D01*
X000992Y010157D02*
X000943Y010205D01*
X000943Y010302D01*
X000992Y010351D01*
X001040Y010351D01*
X001088Y010302D01*
X001088Y010157D01*
X000992Y010157D01*
X001088Y010157D02*
X001185Y010254D01*
X001233Y010351D01*
X010392Y008727D02*
X010392Y008533D01*
X010586Y008727D01*
X010634Y008727D01*
X010682Y008678D01*
X010682Y008581D01*
X010634Y008533D01*
X010392Y008432D02*
X010392Y008238D01*
X010392Y008335D02*
X010682Y008335D01*
X010586Y008238D01*
X010634Y008137D02*
X010537Y008137D01*
X010489Y008089D01*
X010489Y007944D01*
X010489Y008041D02*
X010392Y008137D01*
X010392Y007944D02*
X010682Y007944D01*
X010682Y008089D01*
X010634Y008137D01*
X014920Y008091D02*
X015210Y008091D01*
X015210Y008236D01*
X015161Y008284D01*
X015065Y008284D01*
X015016Y008236D01*
X015016Y008091D01*
X015016Y008188D02*
X014920Y008284D01*
X014968Y008385D02*
X015016Y008385D01*
X015065Y008434D01*
X015065Y008531D01*
X015016Y008579D01*
X014968Y008579D01*
X014920Y008531D01*
X014920Y008434D01*
X014968Y008385D01*
X015065Y008434D02*
X015113Y008385D01*
X015161Y008385D01*
X015210Y008434D01*
X015210Y008531D01*
X015161Y008579D01*
X015113Y008579D01*
X015065Y008531D01*
X015004Y009898D02*
X015004Y010043D01*
X015053Y010091D01*
X015150Y010091D01*
X015198Y010043D01*
X015198Y009898D01*
X014908Y009898D01*
X015004Y009995D02*
X014908Y010091D01*
X014956Y010192D02*
X014908Y010241D01*
X014908Y010338D01*
X014956Y010386D01*
X015150Y010386D01*
X015198Y010338D01*
X015198Y010241D01*
X015150Y010192D01*
X015101Y010192D01*
X015053Y010241D01*
X015053Y010386D01*
D13*
X005618Y003392D02*
X005468Y003542D01*
X005468Y003092D01*
X005618Y003092D02*
X005318Y003092D01*
X012018Y000742D02*
X012168Y000667D01*
X012318Y000517D01*
X012093Y000517D01*
X012018Y000442D01*
X012018Y000367D01*
X012093Y000292D01*
X012243Y000292D01*
X012318Y000367D01*
X012318Y000517D01*
X012478Y000292D02*
X012778Y000292D01*
X012628Y000292D02*
X012628Y000742D01*
X012778Y000592D01*
M02*
