%
M48
M72
T01C0.0236
T02C0.0315
T03C0.0320
T04C0.0394
T05C0.0400
T06C0.0440
T07C0.0500
T08C0.0512
T09C0.0520
T10C0.0630
T11C0.1000
T12C0.1181
T13C0.1488
%
T01
X9304Y10288
X9697Y10288
X9697Y10681
X9304Y10681
X9304Y11075
X9697Y11075
X10091Y11075
X10091Y10681
X10091Y10288
X17670Y2807
X17670Y2414
X18063Y2414
X18063Y2807
X18457Y2807
X18457Y2414
X18457Y2020
X18063Y2020
X17670Y2020
X10583Y20524
X10189Y20524
X9796Y20524
X9796Y20918
X10189Y20918
X10189Y21311
X9796Y21311
X10583Y21311
X10583Y20918
X32138Y31449
X32532Y31449
X32532Y31056
X32926Y31449
X32532Y31843
X37847Y30367
X31843Y37552
X31843Y37945
X31843Y38339
X31351Y51922
X18556Y49363
X16931Y50642
X15111Y49363
X17670Y46213
X18457Y46213
X18654Y45081
X44737Y37650
X44737Y37256
X44737Y36863
T02
X41981Y50815
X41981Y51815
X41981Y52815
X41981Y53815
T03
X29481Y56340
X29481Y57740
X22886Y56481
X22886Y52481
X16882Y51989
X16882Y55989
X40890Y21016
X41890Y21016
X41496Y11764
X40496Y11764
T04
X48477Y12237
X48477Y10859
X21933Y51981
X17933Y51981
X17933Y56981
X21933Y56981
T05
X2902Y8713
X4682Y8713
X4682Y11273
X2902Y11273
X33469Y42674
X33469Y43674
X33469Y44674
X33469Y45674
X33469Y46674
X33469Y47674
X33469Y48674
X33469Y49674
X33469Y50674
X33469Y51674
X33469Y52674
X33469Y53674
X27745Y54481
X26331Y55895
X24917Y54481
X26331Y53066
X34969Y42674
X35969Y42674
X36969Y42674
X37969Y42674
X39469Y42674
X39469Y43674
X39469Y44674
X39469Y45674
X39469Y46674
X39469Y47674
X39469Y48674
X39469Y49674
X39469Y50674
X39469Y51674
X39469Y52674
X39469Y53674
X47485Y53217
X48485Y53217
X48485Y52217
X48485Y51217
X47485Y51217
X47485Y52217
X47792Y35693
X47792Y34693
X47792Y33693
X47792Y32693
X47792Y31693
X47792Y30693
X47792Y29693
X47792Y28693
X47792Y27693
X47792Y26693
X47792Y25693
X47792Y24693
X47792Y23693
X47792Y22693
X47792Y21693
X47792Y20693
X47792Y19693
X47792Y18693
X47792Y17693
X47792Y16693
X48792Y16693
X48792Y17693
X48792Y18693
X48792Y19693
X48792Y20693
X48792Y21693
X48792Y22693
X48792Y23693
X48792Y24693
X48792Y25693
X48792Y26693
X48792Y27693
X48792Y28693
X48792Y29693
X48792Y30693
X48792Y31693
X48792Y32693
X48792Y33693
X48792Y34693
X48792Y35693
X44630Y13156
X44630Y12256
X44630Y11356
T06
X46115Y10355
X46115Y14355
X16587Y5989
X16587Y1989
X31615Y57729
X35615Y57729
T07
X29473Y46926
X28111Y43926
X26126Y46926
X24764Y43926
X22780Y46926
X21418Y43926
T08
X34894Y25583
X34894Y17709
T09
X35087Y7237
X33117Y7237
X31150Y7237
X29180Y7237
X39022Y7237
X40992Y7237
X42959Y7237
X44929Y7237
X46896Y7237
X48866Y7237
X12158Y4683
X12158Y2713
X3792Y14121
X3792Y16101
X3792Y18058
X3792Y20038
X3792Y21995
X3792Y23975
X3792Y25932
X3792Y27912
X3792Y29869
X3792Y31849
X3792Y33806
X3792Y35786
X3792Y37743
X3792Y39723
X11272Y45627
X11272Y47597
X11272Y50351
X11272Y52321
X11272Y55076
X11272Y57046
T10
X14697Y40111
X14697Y33103
X10760Y31449
X10760Y24441
X10760Y22788
X10760Y15780
X10760Y14126
X10760Y7119
X26587Y7119
X26587Y14126
X26587Y15780
X26587Y22788
X26587Y24441
X26587Y31449
X30524Y33103
X30524Y40111
T11
X24363Y39619
X19933Y39619
X14619Y43654
X10485Y41981
X7335Y38044
X10091Y35189
X19343Y47788
X29874Y50150
T12
X15012Y56646
X47493Y56449
X43556Y15898
X8516Y15898
T13
X22099Y45426
X25445Y45426
X28792Y45426
M30
