G75*
G70*
%OFA0B0*%
%FSLAX24Y24*%
%IPPOS*%
%LPD*%
%AMOC8*
5,1,8,0,0,1.08239X$1,22.5*
%
%ADD10C,0.0040*%
%ADD11C,0.0060*%
%ADD12C,0.0050*%
D10*
X013749Y045255D02*
X013749Y045332D01*
X013442Y045639D01*
X013442Y045715D01*
X013749Y045715D01*
X013903Y045639D02*
X013979Y045715D01*
X014210Y045715D01*
X014210Y045255D01*
X014210Y045409D02*
X013979Y045409D01*
X013903Y045485D01*
X013903Y045639D01*
X014056Y045409D02*
X013903Y045255D01*
X013903Y047420D02*
X014056Y047574D01*
X013979Y047574D02*
X014210Y047574D01*
X014210Y047420D02*
X014210Y047881D01*
X013979Y047881D01*
X013903Y047804D01*
X013903Y047651D01*
X013979Y047574D01*
X013749Y047574D02*
X013672Y047651D01*
X013519Y047651D01*
X013442Y047574D01*
X013442Y047497D01*
X013519Y047420D01*
X013672Y047420D01*
X013749Y047497D01*
X013749Y047574D01*
X013672Y047651D02*
X013749Y047727D01*
X013749Y047804D01*
X013672Y047881D01*
X013519Y047881D01*
X013442Y047804D01*
X013442Y047727D01*
X013519Y047651D01*
X043287Y051543D02*
X043747Y051543D01*
X043747Y051773D01*
X043670Y051850D01*
X043517Y051850D01*
X043440Y051773D01*
X043440Y051543D01*
X043440Y051697D02*
X043287Y051850D01*
X043287Y052004D02*
X043287Y052311D01*
X043287Y052157D02*
X043747Y052157D01*
X043593Y052004D01*
X045456Y053099D02*
X045763Y052792D01*
X045763Y052715D01*
X045916Y052715D02*
X046223Y052715D01*
X045916Y053022D01*
X045916Y053099D01*
X045993Y053175D01*
X046146Y053175D01*
X046223Y053099D01*
X046377Y053099D02*
X046377Y052945D01*
X046453Y052868D01*
X046684Y052868D01*
X046684Y052715D02*
X046684Y053175D01*
X046453Y053175D01*
X046377Y053099D01*
X046530Y052868D02*
X046377Y052715D01*
X045763Y053175D02*
X045456Y053175D01*
X045456Y053099D01*
X045456Y050616D02*
X045763Y050616D01*
X045763Y050386D01*
X045609Y050463D01*
X045533Y050463D01*
X045456Y050386D01*
X045456Y050233D01*
X045533Y050156D01*
X045686Y050156D01*
X045763Y050233D01*
X045916Y050156D02*
X046223Y050156D01*
X045916Y050463D01*
X045916Y050539D01*
X045993Y050616D01*
X046146Y050616D01*
X046223Y050539D01*
X046377Y050539D02*
X046377Y050386D01*
X046453Y050309D01*
X046684Y050309D01*
X046684Y050156D02*
X046684Y050616D01*
X046453Y050616D01*
X046377Y050539D01*
X046530Y050309D02*
X046377Y050156D01*
X049399Y050505D02*
X049706Y050505D01*
X049476Y050735D01*
X049476Y050275D01*
X049860Y050275D02*
X050166Y050275D01*
X049860Y050582D01*
X049860Y050658D01*
X049936Y050735D01*
X050090Y050735D01*
X050166Y050658D01*
X050320Y050658D02*
X050320Y050505D01*
X050397Y050428D01*
X050627Y050428D01*
X050627Y050275D02*
X050627Y050735D01*
X050397Y050735D01*
X050320Y050658D01*
X050473Y050428D02*
X050320Y050275D01*
X050320Y052735D02*
X050473Y052889D01*
X050397Y052889D02*
X050627Y052889D01*
X050627Y052735D02*
X050627Y053196D01*
X050397Y053196D01*
X050320Y053119D01*
X050320Y052966D01*
X050397Y052889D01*
X050166Y052735D02*
X049860Y052735D01*
X049706Y052812D02*
X049629Y052735D01*
X049476Y052735D01*
X049399Y052812D01*
X049399Y052889D01*
X049476Y052966D01*
X049706Y052966D01*
X049706Y052812D01*
X049706Y052966D02*
X049553Y053119D01*
X049399Y053196D01*
X049860Y053119D02*
X049936Y053196D01*
X050090Y053196D01*
X050166Y053119D01*
X049860Y053119D02*
X049860Y053042D01*
X050166Y052735D01*
D11*
X023486Y052881D02*
X023486Y053131D01*
X023436Y053181D01*
X023436Y055781D01*
X023486Y055831D01*
X023486Y056081D01*
X023484Y056098D01*
X023480Y056115D01*
X023473Y056131D01*
X023463Y056145D01*
X023450Y056158D01*
X023436Y056168D01*
X023420Y056175D01*
X023403Y056179D01*
X023386Y056181D01*
X022386Y056181D02*
X022369Y056179D01*
X022352Y056175D01*
X022336Y056168D01*
X022322Y056158D01*
X022309Y056145D01*
X022299Y056131D01*
X022292Y056115D01*
X022288Y056098D01*
X022286Y056081D01*
X022286Y055831D01*
X022336Y055781D01*
X022336Y053181D01*
X022286Y053131D01*
X022286Y052881D01*
X022288Y052864D01*
X022292Y052847D01*
X022299Y052831D01*
X022309Y052817D01*
X022322Y052804D01*
X022336Y052794D01*
X022352Y052787D01*
X022369Y052783D01*
X022386Y052781D01*
X023386Y052781D02*
X023403Y052783D01*
X023420Y052787D01*
X023436Y052794D01*
X023450Y052804D01*
X023463Y052817D01*
X023473Y052831D01*
X023480Y052847D01*
X023484Y052864D01*
X023486Y052881D01*
X017482Y052639D02*
X017482Y052389D01*
X017480Y052372D01*
X017476Y052355D01*
X017469Y052339D01*
X017459Y052325D01*
X017446Y052312D01*
X017432Y052302D01*
X017416Y052295D01*
X017399Y052291D01*
X017382Y052289D01*
X017482Y052639D02*
X017432Y052689D01*
X017432Y055289D01*
X017482Y055339D01*
X017482Y055589D01*
X017480Y055606D01*
X017476Y055623D01*
X017469Y055639D01*
X017459Y055653D01*
X017446Y055666D01*
X017432Y055676D01*
X017416Y055683D01*
X017399Y055687D01*
X017382Y055689D01*
X016382Y055689D02*
X016365Y055687D01*
X016348Y055683D01*
X016332Y055676D01*
X016318Y055666D01*
X016305Y055653D01*
X016295Y055639D01*
X016288Y055623D01*
X016284Y055606D01*
X016282Y055589D01*
X016282Y055339D01*
X016332Y055289D01*
X016332Y052689D01*
X016282Y052639D01*
X016282Y052389D01*
X016284Y052372D01*
X016288Y052355D01*
X016295Y052339D01*
X016305Y052325D01*
X016318Y052312D01*
X016332Y052302D01*
X016348Y052295D01*
X016365Y052291D01*
X016382Y052289D01*
D12*
X016108Y054282D02*
X015657Y054282D01*
X015807Y054282D02*
X015807Y054508D01*
X015882Y054583D01*
X016033Y054583D01*
X016108Y054508D01*
X016108Y054282D01*
X015807Y054433D02*
X015657Y054583D01*
X015732Y054743D02*
X015657Y054818D01*
X015657Y054968D01*
X015732Y055043D01*
X015807Y055043D01*
X015882Y054968D01*
X015882Y054893D01*
X015882Y054968D02*
X015958Y055043D01*
X016033Y055043D01*
X016108Y054968D01*
X016108Y054818D01*
X016033Y054743D01*
X016033Y055203D02*
X016108Y055278D01*
X016108Y055428D01*
X016033Y055503D01*
X015958Y055503D01*
X015657Y055203D01*
X015657Y055503D01*
X023661Y054002D02*
X023661Y053852D01*
X023736Y053776D01*
X023736Y053616D02*
X023661Y053541D01*
X023661Y053391D01*
X023736Y053316D01*
X023661Y053156D02*
X023811Y053006D01*
X023811Y053081D02*
X023811Y052856D01*
X023661Y052856D02*
X024112Y052856D01*
X024112Y053081D01*
X024037Y053156D01*
X023886Y053156D01*
X023811Y053081D01*
X024037Y053316D02*
X024112Y053391D01*
X024112Y053541D01*
X024037Y053616D01*
X023961Y053616D01*
X023886Y053541D01*
X023811Y053616D01*
X023736Y053616D01*
X023886Y053541D02*
X023886Y053466D01*
X024037Y053776D02*
X024112Y053852D01*
X024112Y054002D01*
X024037Y054077D01*
X023961Y054077D01*
X023886Y054002D01*
X023811Y054077D01*
X023736Y054077D01*
X023661Y054002D01*
X023886Y054002D02*
X023886Y053927D01*
M02*
