G75*
G70*
%OFA0B0*%
%FSLAX24Y24*%
%IPPOS*%
%LPD*%
%AMOC8*
5,1,8,0,0,1.08239X$1,22.5*
%
%ADD10C,0.1221*%
%ADD11C,0.0560*%
%ADD12C,0.0808*%
%ADD13C,0.0780*%
%ADD14R,0.0631X0.0552*%
%ADD15OC8,0.0555*%
%ADD16C,0.0555*%
%ADD17C,0.0820*%
%ADD18R,0.0552X0.0631*%
%ADD19C,0.0800*%
%ADD20OC8,0.0560*%
%ADD21OC8,0.0640*%
%ADD22C,0.0900*%
%ADD23R,0.0985X0.0985*%
%ADD24OC8,0.0985*%
%ADD25C,0.0985*%
%ADD26OC8,0.2040*%
%ADD27C,0.0640*%
%ADD28C,0.0560*%
%ADD29C,0.0700*%
%ADD30OC8,0.1040*%
%ADD31C,0.1528*%
%ADD32C,0.0640*%
%ADD33OC8,0.0670*%
%ADD34C,0.0670*%
%ADD35C,0.0128*%
D10*
X008516Y015898D03*
X043556Y015898D03*
X047493Y056449D03*
X015012Y056646D03*
D11*
X040890Y021016D03*
X041890Y021016D03*
D12*
X034894Y017709D03*
X034894Y025583D03*
D13*
X002902Y008713D03*
X004682Y008713D03*
X004682Y011273D03*
X002902Y011273D03*
X033469Y042674D03*
X033469Y043674D03*
X033469Y044674D03*
X033469Y045674D03*
X033469Y046674D03*
X033469Y047674D03*
X033469Y048674D03*
X033469Y049674D03*
X033469Y050674D03*
X033469Y051674D03*
X033469Y052674D03*
X033469Y053674D03*
X039469Y053674D03*
X039469Y052674D03*
X039469Y051674D03*
X039469Y050674D03*
X039469Y049674D03*
X039469Y048674D03*
X039469Y047674D03*
X039469Y046674D03*
X039469Y045674D03*
X039469Y044674D03*
X039469Y043674D03*
X039469Y042674D03*
X037969Y042674D03*
X036969Y042674D03*
X035969Y042674D03*
X034969Y042674D03*
D14*
X042867Y051489D03*
X042867Y052158D03*
D15*
X041981Y050815D03*
D16*
X041981Y051815D03*
X041981Y052815D03*
X041981Y053815D03*
D17*
X011662Y055076D02*
X010882Y055076D01*
X010882Y057046D02*
X011662Y057046D01*
X011662Y052321D02*
X010882Y052321D01*
X010882Y050351D02*
X011662Y050351D01*
X011662Y047597D02*
X010882Y047597D01*
X010882Y045627D02*
X011662Y045627D01*
X004182Y039723D02*
X003402Y039723D01*
X003402Y037743D02*
X004182Y037743D01*
X004182Y035786D02*
X003402Y035786D01*
X003402Y033806D02*
X004182Y033806D01*
X004182Y031849D02*
X003402Y031849D01*
X003402Y029869D02*
X004182Y029869D01*
X004182Y027912D02*
X003402Y027912D01*
X003402Y025932D02*
X004182Y025932D01*
X004182Y023975D02*
X003402Y023975D01*
X003402Y021995D02*
X004182Y021995D01*
X004182Y020038D02*
X003402Y020038D01*
X003402Y018058D02*
X004182Y018058D01*
X004182Y016101D02*
X003402Y016101D01*
X003402Y014121D02*
X004182Y014121D01*
X011768Y004683D02*
X012548Y004683D01*
X012548Y002713D02*
X011768Y002713D01*
X029180Y006847D02*
X029180Y007627D01*
X031150Y007627D02*
X031150Y006847D01*
X033117Y006847D02*
X033117Y007627D01*
X035087Y007627D02*
X035087Y006847D01*
X039022Y006847D02*
X039022Y007627D01*
X040992Y007627D02*
X040992Y006847D01*
X042959Y006847D02*
X042959Y007627D01*
X044929Y007627D02*
X044929Y006847D01*
X046896Y006847D02*
X046896Y007627D01*
X048866Y007627D02*
X048866Y006847D01*
D18*
X013969Y046213D03*
X013300Y046213D03*
X013300Y047000D03*
X013969Y047000D03*
X045681Y051233D03*
X046351Y051233D03*
X046351Y052217D03*
X045681Y052217D03*
X049619Y052217D03*
X050288Y052217D03*
X050288Y051233D03*
X049619Y051233D03*
D19*
X021933Y051981D03*
X017933Y051981D03*
X017933Y056981D03*
X021933Y056981D03*
D20*
X022886Y056481D03*
X022886Y052481D03*
X016882Y051989D03*
X016882Y055989D03*
D21*
X047485Y053217D03*
X048485Y053217D03*
X048485Y052217D03*
X047485Y052217D03*
X047485Y051217D03*
X047792Y035693D03*
X047792Y034693D03*
X047792Y033693D03*
X047792Y032693D03*
X047792Y031693D03*
X047792Y030693D03*
X047792Y029693D03*
X047792Y028693D03*
X047792Y027693D03*
X047792Y026693D03*
X047792Y025693D03*
X047792Y024693D03*
X047792Y023693D03*
X047792Y022693D03*
X047792Y021693D03*
X047792Y020693D03*
X047792Y019693D03*
X047792Y018693D03*
X047792Y017693D03*
X047792Y016693D03*
X048792Y016693D03*
X048792Y017693D03*
X048792Y018693D03*
X048792Y019693D03*
X048792Y020693D03*
X048792Y021693D03*
X048792Y022693D03*
X048792Y023693D03*
X048792Y024693D03*
X048792Y025693D03*
X048792Y026693D03*
X048792Y027693D03*
X048792Y028693D03*
X048792Y029693D03*
X048792Y030693D03*
X048792Y031693D03*
X048792Y032693D03*
X048792Y033693D03*
X048792Y034693D03*
X048792Y035693D03*
D22*
X048477Y012237D03*
X048477Y010859D03*
D23*
X030524Y033103D03*
X026587Y024441D03*
X026587Y015780D03*
X026587Y007119D03*
X010760Y007119D03*
X010760Y015780D03*
X010760Y024441D03*
X014697Y033103D03*
D24*
X010760Y031449D03*
X010760Y022788D03*
X010760Y014126D03*
X014697Y040111D03*
D25*
X026587Y031449D03*
X026587Y022788D03*
X026587Y014126D03*
X030524Y040111D03*
D26*
X024363Y039619D03*
X019933Y039619D03*
X014619Y043654D03*
X010485Y041981D03*
X007335Y038044D03*
X010091Y035189D03*
X019343Y047788D03*
X029874Y050150D03*
D27*
X044330Y013156D02*
X044930Y013156D01*
X044930Y012256D02*
X044330Y012256D01*
X044330Y011356D02*
X044930Y011356D01*
D28*
X041496Y011504D02*
X041496Y012024D01*
X040496Y012024D02*
X040496Y011504D01*
D29*
X046115Y010355D03*
X046115Y014355D03*
X016587Y005989D03*
X016587Y001989D03*
X031615Y057729D03*
X035615Y057729D03*
D30*
X029473Y046926D03*
X028111Y043926D03*
X026126Y046926D03*
X024764Y043926D03*
X022780Y046926D03*
X021418Y043926D03*
D31*
X022099Y045426D03*
X025445Y045426D03*
X028792Y045426D03*
D32*
X026331Y055895D03*
X048485Y051217D03*
D33*
X029481Y056340D03*
D34*
X029481Y057740D03*
D35*
X027787Y054290D02*
X027851Y054226D01*
X027639Y054226D01*
X027490Y054375D01*
X027490Y054587D01*
X027639Y054736D01*
X027851Y054736D01*
X028000Y054587D01*
X028000Y054375D01*
X027851Y054226D01*
X027811Y054322D01*
X027679Y054322D01*
X027586Y054415D01*
X027586Y054547D01*
X027679Y054640D01*
X027811Y054640D01*
X027904Y054547D01*
X027904Y054415D01*
X027811Y054322D01*
X027771Y054418D01*
X027719Y054418D01*
X027682Y054455D01*
X027682Y054507D01*
X027719Y054544D01*
X027771Y054544D01*
X027808Y054507D01*
X027808Y054455D01*
X027771Y054418D01*
X026373Y052875D02*
X026437Y052811D01*
X026225Y052811D01*
X026076Y052960D01*
X026076Y053172D01*
X026225Y053321D01*
X026437Y053321D01*
X026586Y053172D01*
X026586Y052960D01*
X026437Y052811D01*
X026397Y052907D01*
X026265Y052907D01*
X026172Y053000D01*
X026172Y053132D01*
X026265Y053225D01*
X026397Y053225D01*
X026490Y053132D01*
X026490Y053000D01*
X026397Y052907D01*
X026357Y053003D01*
X026305Y053003D01*
X026268Y053040D01*
X026268Y053092D01*
X026305Y053129D01*
X026357Y053129D01*
X026394Y053092D01*
X026394Y053040D01*
X026357Y053003D01*
X024959Y054290D02*
X025023Y054226D01*
X024811Y054226D01*
X024662Y054375D01*
X024662Y054587D01*
X024811Y054736D01*
X025023Y054736D01*
X025172Y054587D01*
X025172Y054375D01*
X025023Y054226D01*
X024983Y054322D01*
X024851Y054322D01*
X024758Y054415D01*
X024758Y054547D01*
X024851Y054640D01*
X024983Y054640D01*
X025076Y054547D01*
X025076Y054415D01*
X024983Y054322D01*
X024943Y054418D01*
X024891Y054418D01*
X024854Y054455D01*
X024854Y054507D01*
X024891Y054544D01*
X024943Y054544D01*
X024980Y054507D01*
X024980Y054455D01*
X024943Y054418D01*
M02*
