G75*
G70*
%OFA0B0*%
%FSLAX24Y24*%
%IPPOS*%
%LPD*%
%AMOC8*
5,1,8,0,0,1.08239X$1,22.5*
%
%ADD10C,0.0030*%
%ADD11C,0.0080*%
%ADD12C,0.0060*%
%ADD13C,0.0040*%
%ADD14C,0.0160*%
%ADD15R,0.0160X0.0230*%
%ADD16C,0.0050*%
%ADD17C,0.0070*%
%ADD18C,0.0010*%
%ADD19C,0.0020*%
%ADD20C,0.0320*%
%ADD21R,0.0150X0.0300*%
%ADD22R,0.0150X0.0200*%
%ADD23R,0.1000X0.0200*%
%ADD24R,0.0300X0.0750*%
%ADD25R,0.1500X0.0300*%
%ADD26R,0.0200X0.1000*%
%ADD27R,0.0750X0.0300*%
D10*
X009151Y002140D02*
X009296Y002140D01*
X009393Y002043D01*
X009441Y002043D01*
X009296Y002140D02*
X009393Y002237D01*
X009441Y002237D01*
X009441Y002531D02*
X009151Y002531D01*
X009151Y002338D01*
X009296Y002632D02*
X009248Y002681D01*
X009248Y002826D01*
X009151Y002826D02*
X009441Y002826D01*
X009441Y002681D01*
X009393Y002632D01*
X009296Y002632D01*
X009248Y002927D02*
X009199Y002927D01*
X009151Y002975D01*
X009151Y003072D01*
X009199Y003120D01*
X009296Y003072D02*
X009296Y002975D01*
X009248Y002927D01*
X009393Y002927D02*
X009441Y002975D01*
X009441Y003072D01*
X009393Y003120D01*
X009345Y003120D01*
X009296Y003072D01*
X009296Y003222D02*
X009248Y003270D01*
X009248Y003415D01*
X009248Y003318D02*
X009151Y003222D01*
X009296Y003222D02*
X009393Y003222D01*
X009441Y003270D01*
X009441Y003415D01*
X009151Y003415D01*
X009151Y003516D02*
X009441Y003516D01*
X009441Y003710D02*
X009151Y003710D01*
X009248Y003613D01*
X009151Y003516D01*
X009296Y003811D02*
X009248Y003859D01*
X009248Y004004D01*
X009151Y004004D02*
X009441Y004004D01*
X009441Y003859D01*
X009393Y003811D01*
X009296Y003811D01*
X009248Y004106D02*
X009441Y004106D01*
X009441Y004299D02*
X009248Y004299D01*
X009151Y004202D01*
X009248Y004106D01*
X009103Y004400D02*
X009103Y004594D01*
X009199Y004743D02*
X009441Y004743D01*
X009441Y004695D02*
X009441Y004792D01*
X009393Y004990D02*
X009441Y005038D01*
X009441Y005183D01*
X009151Y005183D01*
X009151Y005038D01*
X009199Y004990D01*
X009393Y004990D01*
X009199Y004888D02*
X009151Y004840D01*
X009151Y004792D01*
X009199Y004743D01*
X009151Y005284D02*
X009345Y005284D01*
X009441Y005381D01*
X009345Y005478D01*
X009151Y005478D01*
X009296Y005478D02*
X009296Y005284D01*
X004870Y011938D02*
X004870Y012228D01*
X004773Y012228D02*
X004967Y012228D01*
X004672Y012228D02*
X004479Y012228D01*
X004479Y011938D01*
X004672Y011938D01*
X004575Y012083D02*
X004479Y012083D01*
X004377Y012035D02*
X004377Y011986D01*
X004329Y011938D01*
X004232Y011938D01*
X004184Y011986D01*
X004232Y012083D02*
X004184Y012132D01*
X004184Y012180D01*
X004232Y012228D01*
X004329Y012228D01*
X004377Y012180D01*
X004329Y012083D02*
X004377Y012035D01*
X004329Y012083D02*
X004232Y012083D01*
X004083Y011938D02*
X003889Y011938D01*
X003889Y012228D01*
X004083Y012228D01*
X003986Y012083D02*
X003889Y012083D01*
X003788Y012083D02*
X003740Y012035D01*
X003595Y012035D01*
X003691Y012035D02*
X003788Y011938D01*
X003788Y012083D02*
X003788Y012180D01*
X003740Y012228D01*
X003595Y012228D01*
X003595Y011938D01*
X003493Y011890D02*
X003300Y011890D01*
X003200Y011938D02*
X003103Y011938D01*
X003152Y011938D02*
X003152Y012228D01*
X003200Y012228D02*
X003103Y012228D01*
X003002Y012180D02*
X003002Y012083D01*
X002954Y012035D01*
X002809Y012035D01*
X002809Y011938D02*
X002809Y012228D01*
X002954Y012228D01*
X003002Y012180D01*
X002708Y012180D02*
X002708Y012083D01*
X002659Y012035D01*
X002514Y012035D01*
X002611Y012035D02*
X002708Y011938D01*
X002514Y011938D02*
X002514Y012228D01*
X002659Y012228D01*
X002708Y012180D01*
X001652Y014050D02*
X001652Y014243D01*
X001506Y014243D01*
X001555Y014146D01*
X001555Y014098D01*
X001506Y014050D01*
X001410Y014050D01*
X001361Y014098D01*
X001361Y014195D01*
X001410Y014243D01*
X001458Y014344D02*
X001652Y014344D01*
X001652Y014538D02*
X001458Y014538D01*
X001361Y014441D01*
X001458Y014344D01*
X001458Y014639D02*
X001506Y014687D01*
X001506Y014832D01*
X001410Y014832D01*
X001361Y014784D01*
X001361Y014687D01*
X001410Y014639D01*
X001458Y014639D01*
X001603Y014736D02*
X001506Y014832D01*
X001506Y014934D02*
X001506Y015127D01*
X001410Y015030D02*
X001603Y015030D01*
X001603Y014736D02*
X001652Y014639D01*
X001313Y015228D02*
X001313Y015422D01*
X001361Y015620D02*
X001652Y015620D01*
X001652Y015716D02*
X001652Y015523D01*
X001652Y015818D02*
X001410Y015818D01*
X001361Y015866D01*
X001361Y015963D01*
X001410Y016011D01*
X001652Y016011D01*
X001603Y016112D02*
X001410Y016112D01*
X001361Y016161D01*
X001361Y016257D01*
X001410Y016306D01*
X001603Y016306D01*
X001652Y016257D01*
X001652Y016161D01*
X001603Y016112D01*
X001652Y017987D02*
X001458Y017987D01*
X001361Y018083D01*
X001458Y018180D01*
X001652Y018180D01*
X001603Y018281D02*
X001652Y018330D01*
X001652Y018426D01*
X001603Y018475D01*
X001603Y018281D02*
X001555Y018281D01*
X001361Y018475D01*
X001361Y018281D01*
X001361Y018576D02*
X001361Y018769D01*
X001361Y018673D02*
X001652Y018673D01*
X001555Y018769D01*
X001506Y018871D02*
X001506Y019064D01*
X001410Y018967D02*
X001603Y018967D01*
X001313Y019165D02*
X001313Y019359D01*
X001361Y019557D02*
X001652Y019557D01*
X001652Y019653D02*
X001652Y019460D01*
X001652Y019755D02*
X001410Y019755D01*
X001361Y019803D01*
X001361Y019900D01*
X001410Y019948D01*
X001652Y019948D01*
X001603Y020049D02*
X001652Y020098D01*
X001652Y020194D01*
X001603Y020243D01*
X001410Y020243D01*
X001361Y020194D01*
X001361Y020098D01*
X001410Y020049D01*
X001603Y020049D01*
X001652Y021776D02*
X001652Y021970D01*
X001506Y021970D01*
X001555Y021873D01*
X001555Y021825D01*
X001506Y021776D01*
X001410Y021776D01*
X001361Y021825D01*
X001361Y021921D01*
X001410Y021970D01*
X001458Y022071D02*
X001652Y022071D01*
X001652Y022265D02*
X001458Y022265D01*
X001361Y022168D01*
X001458Y022071D01*
X001458Y022366D02*
X001410Y022366D01*
X001361Y022414D01*
X001361Y022511D01*
X001410Y022559D01*
X001361Y022660D02*
X001361Y022854D01*
X001361Y022757D02*
X001652Y022757D01*
X001555Y022854D01*
X001506Y022955D02*
X001506Y023148D01*
X001410Y023052D02*
X001603Y023052D01*
X001313Y023250D02*
X001313Y023443D01*
X001361Y023641D02*
X001652Y023641D01*
X001652Y023738D02*
X001652Y023544D01*
X001652Y023839D02*
X001410Y023839D01*
X001361Y023887D01*
X001361Y023984D01*
X001410Y024032D01*
X001652Y024032D01*
X001603Y024134D02*
X001652Y024182D01*
X001652Y024279D01*
X001603Y024327D01*
X001410Y024327D01*
X001361Y024279D01*
X001361Y024182D01*
X001410Y024134D01*
X001603Y024134D01*
X001603Y022559D02*
X001652Y022511D01*
X001652Y022414D01*
X001603Y022366D01*
X001555Y022366D01*
X001506Y022414D01*
X001458Y022366D01*
X001506Y022414D02*
X001506Y022462D01*
X001506Y025713D02*
X001410Y025713D01*
X001361Y025762D01*
X001361Y025858D01*
X001410Y025907D01*
X001506Y025907D02*
X001555Y025810D01*
X001555Y025762D01*
X001506Y025713D01*
X001652Y025713D02*
X001652Y025907D01*
X001506Y025907D01*
X001458Y026008D02*
X001652Y026008D01*
X001652Y026202D02*
X001458Y026202D01*
X001361Y026105D01*
X001458Y026008D01*
X001410Y026303D02*
X001603Y026303D01*
X001652Y026351D01*
X001652Y026448D01*
X001603Y026496D01*
X001555Y026496D01*
X001506Y026448D01*
X001506Y026303D01*
X001410Y026303D02*
X001361Y026351D01*
X001361Y026448D01*
X001410Y026496D01*
X001361Y026597D02*
X001361Y026791D01*
X001361Y026694D02*
X001652Y026694D01*
X001555Y026791D01*
X001506Y026892D02*
X001506Y027085D01*
X001410Y026989D02*
X001603Y026989D01*
X001313Y027187D02*
X001313Y027380D01*
X001361Y027578D02*
X001652Y027578D01*
X001652Y027675D02*
X001652Y027481D01*
X001652Y027776D02*
X001410Y027776D01*
X001361Y027824D01*
X001361Y027921D01*
X001410Y027969D01*
X001652Y027969D01*
X001603Y028071D02*
X001652Y028119D01*
X001652Y028216D01*
X001603Y028264D01*
X001410Y028264D01*
X001361Y028216D01*
X001361Y028119D01*
X001410Y028071D01*
X001603Y028071D01*
X001652Y029798D02*
X001458Y029798D01*
X001361Y029894D01*
X001458Y029991D01*
X001652Y029991D01*
X001652Y030141D02*
X001506Y030286D01*
X001506Y030092D01*
X001361Y030141D02*
X001652Y030141D01*
X001603Y030387D02*
X001555Y030387D01*
X001361Y030581D01*
X001361Y030387D01*
X001603Y030387D02*
X001652Y030435D01*
X001652Y030532D01*
X001603Y030581D01*
X001506Y030682D02*
X001506Y030875D01*
X001410Y030778D02*
X001603Y030778D01*
X001313Y030976D02*
X001313Y031170D01*
X001361Y031368D02*
X001652Y031368D01*
X001652Y031464D02*
X001652Y031271D01*
X001652Y031566D02*
X001410Y031566D01*
X001361Y031614D01*
X001361Y031711D01*
X001410Y031759D01*
X001652Y031759D01*
X001603Y031860D02*
X001652Y031909D01*
X001652Y032005D01*
X001603Y032054D01*
X001410Y032054D01*
X001361Y032005D01*
X001361Y031909D01*
X001410Y031860D01*
X001603Y031860D01*
X001603Y033440D02*
X001555Y033440D01*
X001506Y033488D01*
X001506Y033634D01*
X001361Y033634D02*
X001361Y033488D01*
X001410Y033440D01*
X001458Y033440D01*
X001506Y033488D01*
X001603Y033440D02*
X001652Y033488D01*
X001652Y033634D01*
X001361Y033634D01*
X001313Y033735D02*
X001313Y033928D01*
X001458Y034029D02*
X001652Y034029D01*
X001652Y034223D02*
X001458Y034223D01*
X001361Y034126D01*
X001458Y034029D01*
X001458Y034324D02*
X001410Y034324D01*
X001361Y034372D01*
X001361Y034469D01*
X001410Y034518D01*
X001458Y034518D01*
X001506Y034469D01*
X001506Y034372D01*
X001458Y034324D01*
X001506Y034372D02*
X001555Y034324D01*
X001603Y034324D01*
X001652Y034372D01*
X001652Y034469D01*
X001603Y034518D01*
X001555Y034518D01*
X001506Y034469D01*
X001506Y034619D02*
X001506Y034812D01*
X001652Y034667D01*
X001361Y034667D01*
X001506Y034913D02*
X001506Y035107D01*
X001410Y035010D02*
X001603Y035010D01*
X001313Y035208D02*
X001313Y035401D01*
X001361Y035599D02*
X001652Y035599D01*
X001652Y035503D02*
X001652Y035696D01*
X001652Y035797D02*
X001410Y035797D01*
X001361Y035846D01*
X001361Y035942D01*
X001410Y035991D01*
X001652Y035991D01*
X001603Y036092D02*
X001652Y036140D01*
X001652Y036237D01*
X001603Y036285D01*
X001410Y036285D01*
X001361Y036237D01*
X001361Y036140D01*
X001410Y036092D01*
X001603Y036092D01*
X001555Y037377D02*
X001361Y037377D01*
X001506Y037377D02*
X001506Y037571D01*
X001555Y037571D02*
X001652Y037474D01*
X001555Y037377D01*
X001555Y037571D02*
X001361Y037571D01*
X001313Y037672D02*
X001313Y037865D01*
X001458Y037966D02*
X001652Y037966D01*
X001652Y038160D02*
X001458Y038160D01*
X001361Y038063D01*
X001458Y037966D01*
X001458Y038261D02*
X001410Y038261D01*
X001361Y038309D01*
X001361Y038406D01*
X001410Y038455D01*
X001458Y038455D01*
X001506Y038406D01*
X001506Y038309D01*
X001458Y038261D01*
X001506Y038309D02*
X001555Y038261D01*
X001603Y038261D01*
X001652Y038309D01*
X001652Y038406D01*
X001603Y038455D01*
X001555Y038455D01*
X001506Y038406D01*
X001506Y038556D02*
X001506Y038749D01*
X001652Y038604D01*
X001361Y038604D01*
X001506Y038850D02*
X001506Y039044D01*
X001410Y038947D02*
X001603Y038947D01*
X001313Y039145D02*
X001313Y039338D01*
X001361Y039536D02*
X001652Y039536D01*
X001652Y039440D02*
X001652Y039633D01*
X001652Y039734D02*
X001410Y039734D01*
X001361Y039783D01*
X001361Y039879D01*
X001410Y039928D01*
X001652Y039928D01*
X001603Y040029D02*
X001652Y040077D01*
X001652Y040174D01*
X001603Y040222D01*
X001410Y040222D01*
X001361Y040174D01*
X001361Y040077D01*
X001410Y040029D01*
X001603Y040029D01*
X007055Y039203D02*
X007116Y039141D01*
X007178Y039141D01*
X007240Y039203D01*
X007240Y039512D01*
X007178Y039512D02*
X007302Y039512D01*
X007423Y039327D02*
X007608Y039327D01*
X007670Y039265D01*
X007670Y039203D01*
X007608Y039141D01*
X007485Y039141D01*
X007423Y039203D01*
X007423Y039327D01*
X007547Y039450D01*
X007670Y039512D01*
X009934Y036657D02*
X010058Y036657D01*
X009996Y036657D02*
X009996Y036349D01*
X009934Y036287D01*
X009872Y036287D01*
X009811Y036349D01*
X010179Y036349D02*
X010179Y036410D01*
X010241Y036472D01*
X010364Y036472D01*
X010426Y036410D01*
X010426Y036349D01*
X010364Y036287D01*
X010241Y036287D01*
X010179Y036349D01*
X010241Y036472D02*
X010179Y036534D01*
X010179Y036596D01*
X010241Y036657D01*
X010364Y036657D01*
X010426Y036596D01*
X010426Y036534D01*
X010364Y036472D01*
X010328Y043078D02*
X010390Y043140D01*
X010390Y043449D01*
X010451Y043449D02*
X010328Y043449D01*
X010573Y043449D02*
X010573Y043264D01*
X010696Y043325D01*
X010758Y043325D01*
X010820Y043264D01*
X010820Y043140D01*
X010758Y043078D01*
X010634Y043078D01*
X010573Y043140D01*
X010328Y043078D02*
X010266Y043078D01*
X010204Y043140D01*
X010573Y043449D02*
X010820Y043449D01*
X014338Y044813D02*
X014400Y044752D01*
X014462Y044752D01*
X014523Y044813D01*
X014523Y045122D01*
X014462Y045122D02*
X014585Y045122D01*
X014707Y044937D02*
X014953Y044937D01*
X014892Y044752D02*
X014892Y045122D01*
X014707Y044937D01*
X016799Y042846D02*
X016799Y042599D01*
X016861Y042537D01*
X016984Y042537D01*
X017046Y042599D01*
X017167Y042599D02*
X017229Y042537D01*
X017352Y042537D01*
X017414Y042599D01*
X017414Y042660D01*
X017352Y042722D01*
X017167Y042722D01*
X017167Y042599D01*
X017167Y042722D02*
X017291Y042846D01*
X017414Y042907D01*
X017046Y042846D02*
X016984Y042907D01*
X016861Y042907D01*
X016799Y042846D01*
X019875Y041382D02*
X019998Y041382D01*
X019937Y041382D02*
X019937Y041073D01*
X019875Y041011D01*
X019813Y041011D01*
X019752Y041073D01*
X020120Y041073D02*
X020120Y041011D01*
X020120Y041073D02*
X020367Y041320D01*
X020367Y041382D01*
X020120Y041382D01*
X024082Y041073D02*
X024144Y041011D01*
X024206Y041011D01*
X024267Y041073D01*
X024267Y041382D01*
X024206Y041382D02*
X024329Y041382D01*
X024451Y041320D02*
X024451Y041258D01*
X024512Y041197D01*
X024698Y041197D01*
X024698Y041320D02*
X024636Y041382D01*
X024512Y041382D01*
X024451Y041320D01*
X024698Y041320D02*
X024698Y041073D01*
X024636Y041011D01*
X024512Y041011D01*
X024451Y041073D01*
X018300Y046733D02*
X018238Y046671D01*
X018115Y046671D01*
X018053Y046733D01*
X017932Y046733D02*
X017870Y046671D01*
X017746Y046671D01*
X017685Y046733D01*
X017685Y046980D01*
X017746Y047041D01*
X017870Y047041D01*
X017932Y046980D01*
X018053Y047041D02*
X018053Y046856D01*
X018176Y046918D01*
X018238Y046918D01*
X018300Y046856D01*
X018300Y046733D01*
X018300Y047041D02*
X018053Y047041D01*
X019124Y048885D02*
X019186Y048885D01*
X019248Y048947D01*
X019248Y049256D01*
X019186Y049256D02*
X019310Y049256D01*
X019431Y049194D02*
X019493Y049256D01*
X019616Y049256D01*
X019678Y049194D01*
X019678Y049132D01*
X019431Y048885D01*
X019678Y048885D01*
X019124Y048885D02*
X019063Y048947D01*
X018730Y050509D02*
X018730Y050880D01*
X018545Y050695D01*
X018792Y050695D01*
X018424Y050818D02*
X018362Y050880D01*
X018239Y050880D01*
X018177Y050818D01*
X018177Y050571D01*
X018239Y050509D01*
X018362Y050509D01*
X018424Y050571D01*
X016036Y050571D02*
X015974Y050509D01*
X015851Y050509D01*
X015789Y050571D01*
X015668Y050571D02*
X015606Y050509D01*
X015483Y050509D01*
X015421Y050571D01*
X015421Y050818D01*
X015483Y050880D01*
X015606Y050880D01*
X015668Y050818D01*
X015789Y050818D02*
X015851Y050880D01*
X015974Y050880D01*
X016036Y050818D01*
X016036Y050756D01*
X015974Y050695D01*
X016036Y050633D01*
X016036Y050571D01*
X015974Y050695D02*
X015913Y050695D01*
X029594Y051309D02*
X029656Y051248D01*
X029718Y051248D01*
X029779Y051309D01*
X029779Y051618D01*
X029718Y051618D02*
X029841Y051618D01*
X029962Y051556D02*
X030024Y051618D01*
X030148Y051618D01*
X030209Y051556D01*
X030209Y051495D01*
X030148Y051433D01*
X030209Y051371D01*
X030209Y051309D01*
X030148Y051248D01*
X030024Y051248D01*
X029962Y051309D01*
X030086Y051433D02*
X030148Y051433D01*
X030149Y004582D02*
X030149Y004291D01*
X030342Y004291D01*
X030246Y004437D02*
X030149Y004437D01*
X030048Y004437D02*
X029999Y004388D01*
X029854Y004388D01*
X029854Y004291D02*
X029854Y004582D01*
X029999Y004582D01*
X030048Y004533D01*
X030048Y004437D01*
X029951Y004388D02*
X030048Y004291D01*
X029753Y004340D02*
X029753Y004437D01*
X029656Y004437D01*
X029560Y004533D02*
X029560Y004340D01*
X029608Y004291D01*
X029705Y004291D01*
X029753Y004340D01*
X029753Y004533D02*
X029705Y004582D01*
X029608Y004582D01*
X029560Y004533D01*
X029458Y004243D02*
X029265Y004243D01*
X029164Y004291D02*
X029164Y004582D01*
X029067Y004485D01*
X028970Y004582D01*
X028970Y004291D01*
X028869Y004340D02*
X028869Y004533D01*
X028821Y004582D01*
X028724Y004582D01*
X028676Y004533D01*
X028676Y004340D01*
X028724Y004291D01*
X028821Y004291D01*
X028869Y004340D01*
X028574Y004291D02*
X028478Y004388D01*
X028526Y004388D02*
X028381Y004388D01*
X028381Y004291D02*
X028381Y004582D01*
X028526Y004582D01*
X028574Y004533D01*
X028574Y004437D01*
X028526Y004388D01*
X028280Y004582D02*
X028086Y004582D01*
X028086Y004291D01*
X028086Y004437D02*
X028183Y004437D01*
X030149Y004582D02*
X030342Y004582D01*
X030443Y004582D02*
X030443Y004533D01*
X030540Y004437D01*
X030540Y004291D01*
X030540Y004437D02*
X030637Y004533D01*
X030637Y004582D01*
X030738Y004243D02*
X030932Y004243D01*
X031033Y004291D02*
X031033Y004582D01*
X031178Y004582D01*
X031226Y004533D01*
X031226Y004437D01*
X031178Y004388D01*
X031033Y004388D01*
X031130Y004388D02*
X031226Y004291D01*
X031327Y004291D02*
X031521Y004291D01*
X031622Y004340D02*
X031670Y004291D01*
X031767Y004291D01*
X031816Y004340D01*
X031816Y004437D01*
X031719Y004437D01*
X031816Y004533D02*
X031767Y004582D01*
X031670Y004582D01*
X031622Y004533D01*
X031622Y004340D01*
X031424Y004437D02*
X031327Y004437D01*
X031327Y004582D02*
X031327Y004291D01*
X031327Y004582D02*
X031521Y004582D01*
X032515Y004582D02*
X032709Y004582D01*
X032612Y004582D02*
X032612Y004291D01*
X032810Y004340D02*
X032858Y004291D01*
X032955Y004291D01*
X033004Y004340D01*
X033004Y004533D01*
X032955Y004582D01*
X032858Y004582D01*
X032810Y004533D01*
X032810Y004340D01*
X033105Y004243D02*
X033298Y004243D01*
X033399Y004340D02*
X033448Y004291D01*
X033544Y004291D01*
X033593Y004340D01*
X033593Y004437D01*
X033496Y004437D01*
X033399Y004533D02*
X033399Y004340D01*
X033399Y004533D02*
X033448Y004582D01*
X033544Y004582D01*
X033593Y004533D01*
X033694Y004582D02*
X033839Y004582D01*
X033887Y004533D01*
X033887Y004437D01*
X033839Y004388D01*
X033694Y004388D01*
X033694Y004291D02*
X033694Y004582D01*
X033791Y004388D02*
X033887Y004291D01*
X033989Y004291D02*
X034182Y004291D01*
X034085Y004437D02*
X033989Y004437D01*
X033989Y004582D02*
X033989Y004291D01*
X033989Y004582D02*
X034182Y004582D01*
X034283Y004582D02*
X034283Y004533D01*
X034380Y004437D01*
X034380Y004291D01*
X034380Y004437D02*
X034477Y004533D01*
X034477Y004582D01*
X034578Y004243D02*
X034771Y004243D01*
X034873Y004291D02*
X034873Y004582D01*
X035018Y004582D01*
X035066Y004533D01*
X035066Y004437D01*
X035018Y004388D01*
X034873Y004388D01*
X034969Y004388D02*
X035066Y004291D01*
X035167Y004291D02*
X035361Y004291D01*
X035462Y004340D02*
X035510Y004291D01*
X035607Y004291D01*
X035655Y004340D01*
X035655Y004437D01*
X035559Y004437D01*
X035655Y004533D02*
X035607Y004582D01*
X035510Y004582D01*
X035462Y004533D01*
X035462Y004340D01*
X035264Y004437D02*
X035167Y004437D01*
X035167Y004582D02*
X035167Y004291D01*
X035167Y004582D02*
X035361Y004582D01*
X038621Y004422D02*
X038814Y004422D01*
X038718Y004422D02*
X038718Y004131D01*
X038916Y004180D02*
X038964Y004131D01*
X039061Y004131D01*
X039109Y004180D01*
X039109Y004373D01*
X039061Y004422D01*
X038964Y004422D01*
X038916Y004373D01*
X038916Y004180D01*
X039210Y004083D02*
X039404Y004083D01*
X039505Y004131D02*
X039698Y004131D01*
X039505Y004131D02*
X039505Y004422D01*
X039799Y004422D02*
X039993Y004422D01*
X039896Y004422D02*
X039896Y004131D01*
X040094Y004180D02*
X040143Y004131D01*
X040239Y004131D01*
X040288Y004180D01*
X040389Y004083D02*
X040582Y004083D01*
X040683Y004131D02*
X040683Y004422D01*
X040829Y004422D01*
X040877Y004373D01*
X040877Y004277D01*
X040829Y004228D01*
X040683Y004228D01*
X040780Y004228D02*
X040877Y004131D01*
X040978Y004131D02*
X041172Y004131D01*
X041273Y004180D02*
X041321Y004131D01*
X041418Y004131D01*
X041466Y004180D01*
X041466Y004277D01*
X041369Y004277D01*
X041273Y004373D02*
X041273Y004180D01*
X041273Y004373D02*
X041321Y004422D01*
X041418Y004422D01*
X041466Y004373D01*
X041172Y004422D02*
X040978Y004422D01*
X040978Y004131D01*
X040978Y004277D02*
X041075Y004277D01*
X040288Y004373D02*
X040239Y004422D01*
X040143Y004422D01*
X040094Y004373D01*
X040094Y004180D01*
D11*
X004185Y008793D02*
X003392Y008793D01*
X002592Y009143D02*
X002592Y010843D01*
X003392Y011193D02*
X004196Y011193D01*
X004992Y010843D02*
X004992Y009143D01*
X003092Y009993D02*
X003094Y010045D01*
X003100Y010097D01*
X003110Y010149D01*
X003123Y010199D01*
X003140Y010249D01*
X003161Y010297D01*
X003186Y010343D01*
X003214Y010387D01*
X003245Y010429D01*
X003279Y010469D01*
X003316Y010506D01*
X003356Y010540D01*
X003398Y010571D01*
X003442Y010599D01*
X003488Y010624D01*
X003536Y010645D01*
X003586Y010662D01*
X003636Y010675D01*
X003688Y010685D01*
X003740Y010691D01*
X003792Y010693D01*
X003844Y010691D01*
X003896Y010685D01*
X003948Y010675D01*
X003998Y010662D01*
X004048Y010645D01*
X004096Y010624D01*
X004142Y010599D01*
X004186Y010571D01*
X004228Y010540D01*
X004268Y010506D01*
X004305Y010469D01*
X004339Y010429D01*
X004370Y010387D01*
X004398Y010343D01*
X004423Y010297D01*
X004444Y010249D01*
X004461Y010199D01*
X004474Y010149D01*
X004484Y010097D01*
X004490Y010045D01*
X004492Y009993D01*
X004490Y009941D01*
X004484Y009889D01*
X004474Y009837D01*
X004461Y009787D01*
X004444Y009737D01*
X004423Y009689D01*
X004398Y009643D01*
X004370Y009599D01*
X004339Y009557D01*
X004305Y009517D01*
X004268Y009480D01*
X004228Y009446D01*
X004186Y009415D01*
X004142Y009387D01*
X004096Y009362D01*
X004048Y009341D01*
X003998Y009324D01*
X003948Y009311D01*
X003896Y009301D01*
X003844Y009295D01*
X003792Y009293D01*
X003740Y009295D01*
X003688Y009301D01*
X003636Y009311D01*
X003586Y009324D01*
X003536Y009341D01*
X003488Y009362D01*
X003442Y009387D01*
X003398Y009415D01*
X003356Y009446D01*
X003316Y009480D01*
X003279Y009517D01*
X003245Y009557D01*
X003214Y009599D01*
X003186Y009643D01*
X003161Y009689D01*
X003140Y009737D01*
X003123Y009787D01*
X003110Y009837D01*
X003100Y009889D01*
X003094Y009941D01*
X003092Y009993D01*
X027506Y013183D02*
X027506Y014283D01*
X027508Y014300D01*
X027512Y014317D01*
X027519Y014333D01*
X027529Y014347D01*
X027542Y014360D01*
X027556Y014370D01*
X027572Y014377D01*
X027589Y014381D01*
X027606Y014383D01*
X028206Y014383D01*
X028223Y014381D01*
X028240Y014377D01*
X028256Y014370D01*
X028270Y014360D01*
X028283Y014347D01*
X028293Y014333D01*
X028300Y014317D01*
X028304Y014300D01*
X028306Y014283D01*
X028306Y013183D01*
X028304Y013166D01*
X028300Y013149D01*
X028293Y013133D01*
X028283Y013119D01*
X028270Y013106D01*
X028256Y013096D01*
X028240Y013089D01*
X028223Y013085D01*
X028206Y013083D01*
X027606Y013083D01*
X027589Y013085D01*
X027572Y013089D01*
X027556Y013096D01*
X027542Y013106D01*
X027529Y013119D01*
X027519Y013133D01*
X027512Y013149D01*
X027508Y013166D01*
X027506Y013183D01*
X033398Y016768D02*
X036390Y016768D01*
X033398Y016768D02*
X033199Y016846D01*
X033005Y016934D01*
X032814Y017031D01*
X032629Y017137D01*
X032449Y017253D01*
X032275Y017376D01*
X032108Y017509D01*
X031947Y017649D01*
X031792Y017797D01*
X031646Y017952D01*
X031507Y018115D01*
X031376Y018283D01*
X031254Y018459D01*
X031140Y018639D01*
X031035Y018826D01*
X030940Y019017D01*
X030854Y019212D01*
X030777Y019412D01*
X030710Y019614D01*
X030654Y019820D01*
X030607Y020029D01*
X030571Y020239D01*
X030545Y020451D01*
X030529Y020664D01*
X030524Y020878D01*
X030529Y021092D01*
X030545Y021305D01*
X030571Y021517D01*
X030607Y021727D01*
X030654Y021936D01*
X030710Y022142D01*
X030777Y022344D01*
X030854Y022544D01*
X030940Y022739D01*
X031035Y022930D01*
X031140Y023117D01*
X031254Y023297D01*
X031376Y023473D01*
X031507Y023641D01*
X031646Y023804D01*
X031792Y023959D01*
X031947Y024107D01*
X032108Y024247D01*
X032275Y024380D01*
X032449Y024503D01*
X032629Y024619D01*
X032814Y024725D01*
X033005Y024822D01*
X033199Y024910D01*
X033398Y024988D01*
X033398Y024989D02*
X033398Y026162D01*
X036390Y026162D01*
X036390Y024989D01*
X036390Y024988D02*
X036589Y024910D01*
X036783Y024822D01*
X036974Y024725D01*
X037159Y024619D01*
X037339Y024503D01*
X037513Y024380D01*
X037680Y024247D01*
X037841Y024107D01*
X037996Y023959D01*
X038142Y023804D01*
X038281Y023641D01*
X038412Y023473D01*
X038534Y023297D01*
X038648Y023117D01*
X038753Y022930D01*
X038848Y022739D01*
X038934Y022544D01*
X039011Y022344D01*
X039078Y022142D01*
X039134Y021936D01*
X039181Y021727D01*
X039217Y021517D01*
X039243Y021305D01*
X039259Y021092D01*
X039264Y020878D01*
X039259Y020664D01*
X039243Y020451D01*
X039217Y020239D01*
X039181Y020029D01*
X039134Y019820D01*
X039078Y019614D01*
X039011Y019412D01*
X038934Y019212D01*
X038848Y019017D01*
X038753Y018826D01*
X038648Y018639D01*
X038534Y018459D01*
X038412Y018283D01*
X038281Y018115D01*
X038142Y017952D01*
X037996Y017797D01*
X037841Y017649D01*
X037680Y017509D01*
X037513Y017376D01*
X037339Y017253D01*
X037159Y017137D01*
X036974Y017031D01*
X036783Y016934D01*
X036589Y016846D01*
X036390Y016768D01*
X040642Y018398D02*
X042138Y018398D01*
X040940Y020103D02*
X040942Y020123D01*
X040948Y020141D01*
X040957Y020159D01*
X040969Y020174D01*
X040984Y020186D01*
X041002Y020195D01*
X041020Y020201D01*
X041040Y020203D01*
X041060Y020201D01*
X041078Y020195D01*
X041096Y020186D01*
X041111Y020174D01*
X041123Y020159D01*
X041132Y020141D01*
X041138Y020123D01*
X041140Y020103D01*
X041138Y020083D01*
X041132Y020065D01*
X041123Y020047D01*
X041111Y020032D01*
X041096Y020020D01*
X041078Y020011D01*
X041060Y020005D01*
X041040Y020003D01*
X041020Y020005D01*
X041002Y020011D01*
X040984Y020020D01*
X040969Y020032D01*
X040957Y020047D01*
X040948Y020065D01*
X040942Y020083D01*
X040940Y020103D01*
X040642Y020288D02*
X042138Y020288D01*
X028306Y021844D02*
X028306Y022944D01*
X028304Y022961D01*
X028300Y022978D01*
X028293Y022994D01*
X028283Y023008D01*
X028270Y023021D01*
X028256Y023031D01*
X028240Y023038D01*
X028223Y023042D01*
X028206Y023044D01*
X027606Y023044D01*
X027589Y023042D01*
X027572Y023038D01*
X027556Y023031D01*
X027542Y023021D01*
X027529Y023008D01*
X027519Y022994D01*
X027512Y022978D01*
X027508Y022961D01*
X027506Y022944D01*
X027506Y021844D01*
X027508Y021827D01*
X027512Y021810D01*
X027519Y021794D01*
X027529Y021780D01*
X027542Y021767D01*
X027556Y021757D01*
X027572Y021750D01*
X027589Y021746D01*
X027606Y021744D01*
X028206Y021744D01*
X028223Y021746D01*
X028240Y021750D01*
X028256Y021757D01*
X028270Y021767D01*
X028283Y021780D01*
X028293Y021794D01*
X028300Y021810D01*
X028304Y021827D01*
X028306Y021844D01*
X028206Y030406D02*
X027606Y030406D01*
X027589Y030408D01*
X027572Y030412D01*
X027556Y030419D01*
X027542Y030429D01*
X027529Y030442D01*
X027519Y030456D01*
X027512Y030472D01*
X027508Y030489D01*
X027506Y030506D01*
X027506Y031606D01*
X027508Y031623D01*
X027512Y031640D01*
X027519Y031656D01*
X027529Y031670D01*
X027542Y031683D01*
X027556Y031693D01*
X027572Y031700D01*
X027589Y031704D01*
X027606Y031706D01*
X028206Y031706D01*
X028223Y031704D01*
X028240Y031700D01*
X028256Y031693D01*
X028270Y031683D01*
X028283Y031670D01*
X028293Y031656D01*
X028300Y031640D01*
X028304Y031623D01*
X028306Y031606D01*
X028306Y030506D01*
X028304Y030489D01*
X028300Y030472D01*
X028293Y030456D01*
X028283Y030442D01*
X028270Y030429D01*
X028256Y030419D01*
X028240Y030412D01*
X028223Y030408D01*
X028206Y030406D01*
X031543Y038083D02*
X032143Y038083D01*
X032160Y038085D01*
X032177Y038089D01*
X032193Y038096D01*
X032207Y038106D01*
X032220Y038119D01*
X032230Y038133D01*
X032237Y038149D01*
X032241Y038166D01*
X032243Y038183D01*
X032243Y039283D01*
X032241Y039300D01*
X032237Y039317D01*
X032230Y039333D01*
X032220Y039347D01*
X032207Y039360D01*
X032193Y039370D01*
X032177Y039377D01*
X032160Y039381D01*
X032143Y039383D01*
X031543Y039383D01*
X031526Y039381D01*
X031509Y039377D01*
X031493Y039370D01*
X031479Y039360D01*
X031466Y039347D01*
X031456Y039333D01*
X031449Y039317D01*
X031445Y039300D01*
X031443Y039283D01*
X031443Y038183D01*
X031445Y038166D01*
X031449Y038149D01*
X031456Y038133D01*
X031466Y038119D01*
X031479Y038106D01*
X031493Y038096D01*
X031509Y038089D01*
X031526Y038085D01*
X031543Y038083D01*
X024564Y050878D02*
X023964Y050878D01*
X023947Y050880D01*
X023930Y050884D01*
X023914Y050891D01*
X023900Y050901D01*
X023887Y050914D01*
X023877Y050928D01*
X023870Y050944D01*
X023866Y050961D01*
X023864Y050978D01*
X023864Y052078D01*
X023866Y052095D01*
X023870Y052112D01*
X023877Y052128D01*
X023887Y052142D01*
X023900Y052155D01*
X023914Y052165D01*
X023930Y052172D01*
X023947Y052176D01*
X023964Y052178D01*
X024564Y052178D01*
X024581Y052176D01*
X024598Y052172D01*
X024614Y052165D01*
X024628Y052155D01*
X024641Y052142D01*
X024651Y052128D01*
X024658Y052112D01*
X024662Y052095D01*
X024664Y052078D01*
X024664Y050978D01*
X024662Y050961D01*
X024658Y050944D01*
X024651Y050928D01*
X024641Y050914D01*
X024628Y050901D01*
X024614Y050891D01*
X024598Y050884D01*
X024581Y050880D01*
X024564Y050878D01*
X031291Y056051D02*
X031291Y056651D01*
X031293Y056668D01*
X031297Y056685D01*
X031304Y056701D01*
X031314Y056715D01*
X031327Y056728D01*
X031341Y056738D01*
X031357Y056745D01*
X031374Y056749D01*
X031391Y056751D01*
X032491Y056751D01*
X032508Y056749D01*
X032525Y056745D01*
X032541Y056738D01*
X032555Y056728D01*
X032568Y056715D01*
X032578Y056701D01*
X032585Y056685D01*
X032589Y056668D01*
X032591Y056651D01*
X032591Y056051D01*
X032589Y056034D01*
X032585Y056017D01*
X032578Y056001D01*
X032568Y055987D01*
X032555Y055974D01*
X032541Y055964D01*
X032525Y055957D01*
X032508Y055953D01*
X032491Y055951D01*
X031391Y055951D01*
X031374Y055953D01*
X031357Y055957D01*
X031341Y055964D01*
X031327Y055974D01*
X031314Y055987D01*
X031304Y056001D01*
X031297Y056017D01*
X031293Y056034D01*
X031291Y056051D01*
X016411Y048480D02*
X016413Y048495D01*
X016419Y048508D01*
X016428Y048520D01*
X016439Y048529D01*
X016453Y048535D01*
X016468Y048537D01*
X016483Y048535D01*
X016496Y048529D01*
X016508Y048520D01*
X016517Y048509D01*
X016523Y048495D01*
X016525Y048480D01*
X016523Y048465D01*
X016517Y048452D01*
X016508Y048440D01*
X016497Y048431D01*
X016483Y048425D01*
X016468Y048423D01*
X016453Y048425D01*
X016440Y048431D01*
X016428Y048440D01*
X016419Y048451D01*
X016413Y048465D01*
X016411Y048480D01*
X016731Y045545D02*
X016733Y045560D01*
X016739Y045573D01*
X016748Y045585D01*
X016759Y045594D01*
X016773Y045600D01*
X016788Y045602D01*
X016803Y045600D01*
X016816Y045594D01*
X016828Y045585D01*
X016837Y045574D01*
X016843Y045560D01*
X016845Y045545D01*
X016843Y045530D01*
X016837Y045517D01*
X016828Y045505D01*
X016817Y045496D01*
X016803Y045490D01*
X016788Y045488D01*
X016773Y045490D01*
X016760Y045496D01*
X016748Y045505D01*
X016739Y045516D01*
X016733Y045530D01*
X016731Y045545D01*
D12*
X016468Y045765D02*
X017887Y045765D01*
X017887Y043905D02*
X016468Y043905D01*
X013722Y044407D02*
X011822Y044407D01*
X011922Y044607D01*
X012522Y044607D01*
X012522Y048607D01*
X013722Y048607D01*
X013722Y044607D01*
X013722Y044407D01*
X013722Y044607D02*
X012522Y044607D01*
X012622Y044827D02*
X012622Y046427D01*
X013622Y046427D01*
X013622Y044827D01*
X012622Y044827D01*
X012880Y045049D02*
X012902Y045027D01*
X012925Y045008D01*
X012951Y044992D01*
X012978Y044979D01*
X013007Y044969D01*
X013036Y044962D01*
X013067Y044958D01*
X013097Y044958D01*
X013127Y044962D01*
X013157Y044969D01*
X013185Y044979D01*
X013213Y044992D01*
X013238Y045008D01*
X013262Y045027D01*
X013272Y045067D02*
X013022Y046267D01*
X012972Y046217D02*
X013222Y045017D01*
X012894Y045031D02*
X012859Y045080D01*
X012828Y045132D01*
X012800Y045185D01*
X012775Y045240D01*
X012754Y045296D01*
X012736Y045354D01*
X012722Y045412D01*
X012712Y045472D01*
X012705Y045532D01*
X012702Y045592D01*
X012703Y045652D01*
X012708Y045712D01*
X012716Y045772D01*
X012728Y045831D01*
X012744Y045889D01*
X012764Y045946D01*
X012787Y046002D01*
X012813Y046056D01*
X012843Y046108D01*
X012876Y046159D01*
X012912Y046207D01*
X012898Y046190D02*
X012915Y046216D01*
X012934Y046239D01*
X012957Y046259D01*
X012981Y046276D01*
X013008Y046290D01*
X013037Y046301D01*
X013066Y046307D01*
X013096Y046310D01*
X013127Y046309D01*
X013156Y046304D01*
X013185Y046295D01*
X013213Y046282D01*
X013238Y046266D01*
X013262Y046247D01*
X013622Y046797D02*
X013622Y048397D01*
X012622Y048397D01*
X012622Y046797D01*
X013622Y046797D01*
X013272Y047037D02*
X013022Y048237D01*
X012972Y048187D02*
X013222Y046987D01*
X013262Y046997D02*
X013238Y046978D01*
X013213Y046962D01*
X013185Y046949D01*
X013157Y046939D01*
X013127Y046932D01*
X013097Y046928D01*
X013067Y046928D01*
X013036Y046932D01*
X013007Y046939D01*
X012978Y046949D01*
X012951Y046962D01*
X012925Y046978D01*
X012902Y046997D01*
X012880Y047019D01*
X013264Y046995D02*
X013304Y047032D01*
X013341Y047072D01*
X013376Y047114D01*
X013407Y047158D01*
X013436Y047204D01*
X013461Y047252D01*
X013484Y047302D01*
X013502Y047353D01*
X013518Y047405D01*
X013529Y047459D01*
X013537Y047512D01*
X013542Y047567D01*
X013543Y047621D01*
X013540Y047676D01*
X013534Y047730D01*
X013524Y047783D01*
X013510Y047836D01*
X013493Y047887D01*
X013472Y047938D01*
X013449Y047987D01*
X013421Y048034D01*
X013391Y048079D01*
X013358Y048123D01*
X013322Y048163D01*
X013283Y048202D01*
X013242Y048237D01*
X013262Y048217D02*
X013238Y048236D01*
X013213Y048252D01*
X013185Y048265D01*
X013156Y048274D01*
X013127Y048279D01*
X013096Y048280D01*
X013066Y048277D01*
X013037Y048271D01*
X013008Y048260D01*
X012981Y048246D01*
X012957Y048229D01*
X012934Y048209D01*
X012915Y048186D01*
X012898Y048160D01*
X012522Y048607D02*
X011522Y048607D01*
X011522Y048247D01*
X011372Y048247D02*
X011372Y048397D01*
X009572Y048397D01*
X008822Y048397D01*
X008822Y046797D01*
X008822Y046427D01*
X008822Y044827D01*
X009572Y044827D01*
X009572Y046427D01*
X011372Y046427D01*
X011372Y046277D01*
X011522Y046277D02*
X011522Y046947D01*
X011372Y046947D02*
X011372Y046797D01*
X009572Y046797D01*
X009572Y048397D01*
X009822Y048247D02*
X011072Y048247D01*
X011522Y048607D02*
X008822Y048607D01*
X008822Y048397D01*
X009122Y049131D02*
X009772Y049131D01*
X009672Y049331D01*
X011522Y049331D01*
X011522Y049701D01*
X011372Y049701D02*
X011372Y049551D01*
X009572Y049551D01*
X008822Y049551D01*
X008822Y049331D01*
X009222Y049331D01*
X009672Y049331D01*
X009572Y049551D02*
X009572Y051151D01*
X011372Y051151D01*
X011372Y051001D01*
X011522Y051001D02*
X011522Y051671D01*
X011372Y051671D02*
X011372Y051521D01*
X009572Y051521D01*
X009572Y053121D01*
X008822Y053121D01*
X008822Y051521D01*
X008822Y051151D01*
X008822Y049551D01*
X009222Y049331D02*
X009122Y049131D01*
X009822Y049701D02*
X009822Y051001D01*
X011072Y051001D01*
X011072Y051671D02*
X009822Y051671D01*
X009822Y052971D01*
X011072Y052971D01*
X011372Y052971D02*
X011372Y053121D01*
X009572Y053121D01*
X009772Y053856D02*
X009122Y053856D01*
X009222Y054056D01*
X009672Y054056D01*
X011522Y054056D01*
X011522Y054426D01*
X011372Y054426D02*
X011372Y054276D01*
X009572Y054276D01*
X008822Y054276D01*
X008822Y054056D01*
X009222Y054056D01*
X009572Y054276D02*
X009572Y055876D01*
X011372Y055876D01*
X011372Y055726D01*
X011522Y055726D02*
X011522Y056396D01*
X011372Y056396D02*
X011372Y056246D01*
X009572Y056246D01*
X009572Y057846D01*
X008822Y057846D01*
X008822Y056246D01*
X008822Y055876D01*
X008822Y054276D01*
X009672Y054056D02*
X009772Y053856D01*
X009822Y054426D02*
X009822Y055726D01*
X011072Y055726D01*
X011072Y056396D02*
X009822Y056396D01*
X009822Y057696D01*
X011072Y057696D01*
X011372Y057696D02*
X011372Y057846D01*
X009572Y057846D01*
X008822Y057846D02*
X008822Y058056D01*
X011522Y058056D01*
X011522Y057696D01*
X011522Y058056D02*
X012522Y058056D01*
X013722Y058056D01*
X013722Y054056D01*
X013722Y053856D01*
X011822Y053856D01*
X011922Y054056D01*
X012522Y054056D01*
X012522Y058056D01*
X012622Y057846D02*
X013622Y057846D01*
X013622Y056246D01*
X012622Y056246D01*
X012622Y057846D01*
X012972Y057636D02*
X013222Y056436D01*
X013272Y056486D02*
X013022Y057686D01*
X012898Y057609D02*
X012915Y057635D01*
X012934Y057658D01*
X012957Y057678D01*
X012981Y057695D01*
X013008Y057709D01*
X013037Y057720D01*
X013066Y057726D01*
X013096Y057729D01*
X013127Y057728D01*
X013156Y057723D01*
X013185Y057714D01*
X013213Y057701D01*
X013238Y057685D01*
X013262Y057666D01*
X012912Y057625D02*
X012876Y057577D01*
X012843Y057526D01*
X012813Y057474D01*
X012787Y057420D01*
X012764Y057364D01*
X012744Y057307D01*
X012728Y057249D01*
X012716Y057190D01*
X012708Y057130D01*
X012703Y057070D01*
X012702Y057010D01*
X012705Y056950D01*
X012712Y056890D01*
X012722Y056830D01*
X012736Y056772D01*
X012754Y056714D01*
X012775Y056658D01*
X012800Y056603D01*
X012828Y056550D01*
X012859Y056498D01*
X012894Y056449D01*
X012880Y056468D02*
X012902Y056446D01*
X012925Y056427D01*
X012951Y056411D01*
X012978Y056398D01*
X013007Y056388D01*
X013036Y056381D01*
X013067Y056377D01*
X013097Y056377D01*
X013127Y056381D01*
X013157Y056388D01*
X013185Y056398D01*
X013213Y056411D01*
X013238Y056427D01*
X013262Y056446D01*
X013622Y055876D02*
X013622Y054276D01*
X012622Y054276D01*
X012622Y055876D01*
X013622Y055876D01*
X013022Y055716D02*
X013272Y054516D01*
X013222Y054466D02*
X012972Y055666D01*
X012898Y055639D02*
X012915Y055665D01*
X012934Y055688D01*
X012957Y055708D01*
X012981Y055725D01*
X013008Y055739D01*
X013037Y055750D01*
X013066Y055756D01*
X013096Y055759D01*
X013127Y055758D01*
X013156Y055753D01*
X013185Y055744D01*
X013213Y055731D01*
X013238Y055715D01*
X013262Y055696D01*
X012912Y055655D02*
X012876Y055607D01*
X012843Y055556D01*
X012813Y055504D01*
X012787Y055450D01*
X012764Y055394D01*
X012744Y055337D01*
X012728Y055279D01*
X012716Y055220D01*
X012708Y055160D01*
X012703Y055100D01*
X012702Y055040D01*
X012705Y054980D01*
X012712Y054920D01*
X012722Y054860D01*
X012736Y054802D01*
X012754Y054744D01*
X012775Y054688D01*
X012800Y054633D01*
X012828Y054580D01*
X012859Y054528D01*
X012894Y054479D01*
X012880Y054498D02*
X012902Y054476D01*
X012925Y054457D01*
X012951Y054441D01*
X012978Y054428D01*
X013007Y054418D01*
X013036Y054411D01*
X013067Y054407D01*
X013097Y054407D01*
X013127Y054411D01*
X013157Y054418D01*
X013185Y054428D01*
X013213Y054441D01*
X013238Y054457D01*
X013262Y054476D01*
X013722Y054056D02*
X012522Y054056D01*
X011922Y054056D02*
X011522Y054056D01*
X011072Y054426D02*
X009822Y054426D01*
X008822Y053331D02*
X011522Y053331D01*
X011522Y052971D01*
X011522Y053331D02*
X012522Y053331D01*
X013722Y053331D01*
X013722Y049331D01*
X013722Y049131D01*
X011822Y049131D01*
X011922Y049331D01*
X012522Y049331D01*
X012522Y053331D01*
X012622Y053121D02*
X013622Y053121D01*
X013622Y051521D01*
X012622Y051521D01*
X012622Y053121D01*
X012972Y052911D02*
X013222Y051711D01*
X013272Y051761D02*
X013022Y052961D01*
X012898Y052884D02*
X012915Y052910D01*
X012934Y052933D01*
X012957Y052953D01*
X012981Y052970D01*
X013008Y052984D01*
X013037Y052995D01*
X013066Y053001D01*
X013096Y053004D01*
X013127Y053003D01*
X013156Y052998D01*
X013185Y052989D01*
X013213Y052976D01*
X013238Y052960D01*
X013262Y052941D01*
X012912Y052901D02*
X012876Y052853D01*
X012843Y052802D01*
X012813Y052750D01*
X012787Y052696D01*
X012764Y052640D01*
X012744Y052583D01*
X012728Y052525D01*
X012716Y052466D01*
X012708Y052406D01*
X012703Y052346D01*
X012702Y052286D01*
X012705Y052226D01*
X012712Y052166D01*
X012722Y052106D01*
X012736Y052048D01*
X012754Y051990D01*
X012775Y051934D01*
X012800Y051879D01*
X012828Y051826D01*
X012859Y051774D01*
X012894Y051725D01*
X012880Y051743D02*
X012902Y051721D01*
X012925Y051702D01*
X012951Y051686D01*
X012978Y051673D01*
X013007Y051663D01*
X013036Y051656D01*
X013067Y051652D01*
X013097Y051652D01*
X013127Y051656D01*
X013157Y051663D01*
X013185Y051673D01*
X013213Y051686D01*
X013238Y051702D01*
X013262Y051721D01*
X013622Y051151D02*
X013622Y049551D01*
X012622Y049551D01*
X012622Y051151D01*
X013622Y051151D01*
X013022Y050991D02*
X013272Y049791D01*
X013222Y049741D02*
X012972Y050941D01*
X012898Y050914D02*
X012915Y050940D01*
X012934Y050963D01*
X012957Y050983D01*
X012981Y051000D01*
X013008Y051014D01*
X013037Y051025D01*
X013066Y051031D01*
X013096Y051034D01*
X013127Y051033D01*
X013156Y051028D01*
X013185Y051019D01*
X013213Y051006D01*
X013238Y050990D01*
X013262Y050971D01*
X012912Y050931D02*
X012876Y050883D01*
X012843Y050832D01*
X012813Y050780D01*
X012787Y050726D01*
X012764Y050670D01*
X012744Y050613D01*
X012728Y050555D01*
X012716Y050496D01*
X012708Y050436D01*
X012703Y050376D01*
X012702Y050316D01*
X012705Y050256D01*
X012712Y050196D01*
X012722Y050136D01*
X012736Y050078D01*
X012754Y050020D01*
X012775Y049964D01*
X012800Y049909D01*
X012828Y049856D01*
X012859Y049804D01*
X012894Y049755D01*
X012880Y049773D02*
X012902Y049751D01*
X012925Y049732D01*
X012951Y049716D01*
X012978Y049703D01*
X013007Y049693D01*
X013036Y049686D01*
X013067Y049682D01*
X013097Y049682D01*
X013127Y049686D01*
X013157Y049693D01*
X013185Y049703D01*
X013213Y049716D01*
X013238Y049732D01*
X013262Y049751D01*
X013722Y049331D02*
X012522Y049331D01*
X011922Y049331D02*
X011522Y049331D01*
X011072Y049701D02*
X009822Y049701D01*
X009822Y048247D02*
X009822Y046947D01*
X011072Y046947D01*
X011072Y046277D02*
X009822Y046277D01*
X009822Y044977D01*
X011072Y044977D01*
X011372Y044977D02*
X011372Y044827D01*
X009572Y044827D01*
X009672Y044607D02*
X011522Y044607D01*
X011522Y044977D01*
X011522Y044607D02*
X011922Y044607D01*
X013264Y045025D02*
X013304Y045062D01*
X013341Y045102D01*
X013376Y045144D01*
X013407Y045188D01*
X013436Y045234D01*
X013461Y045282D01*
X013483Y045332D01*
X013502Y045383D01*
X013518Y045435D01*
X013529Y045489D01*
X013537Y045542D01*
X013542Y045597D01*
X013543Y045651D01*
X013540Y045705D01*
X013534Y045760D01*
X013524Y045813D01*
X013510Y045866D01*
X013493Y045917D01*
X013472Y045968D01*
X013449Y046017D01*
X013421Y046064D01*
X013391Y046109D01*
X013358Y046152D01*
X013322Y046193D01*
X013283Y046232D01*
X013242Y046267D01*
X012894Y047001D02*
X012859Y047050D01*
X012828Y047102D01*
X012800Y047155D01*
X012775Y047210D01*
X012754Y047266D01*
X012736Y047324D01*
X012722Y047382D01*
X012712Y047442D01*
X012705Y047502D01*
X012702Y047562D01*
X012703Y047622D01*
X012708Y047682D01*
X012716Y047742D01*
X012728Y047801D01*
X012744Y047859D01*
X012764Y047916D01*
X012787Y047972D01*
X012813Y048026D01*
X012843Y048078D01*
X012876Y048129D01*
X012912Y048177D01*
X013264Y049749D02*
X013304Y049786D01*
X013341Y049826D01*
X013376Y049868D01*
X013407Y049912D01*
X013436Y049958D01*
X013461Y050006D01*
X013483Y050056D01*
X013502Y050107D01*
X013518Y050159D01*
X013529Y050213D01*
X013537Y050266D01*
X013542Y050321D01*
X013543Y050375D01*
X013540Y050429D01*
X013534Y050484D01*
X013524Y050537D01*
X013510Y050590D01*
X013493Y050641D01*
X013472Y050692D01*
X013449Y050741D01*
X013421Y050788D01*
X013391Y050833D01*
X013358Y050876D01*
X013322Y050917D01*
X013283Y050956D01*
X013242Y050991D01*
X013264Y051719D02*
X013304Y051756D01*
X013341Y051796D01*
X013376Y051838D01*
X013407Y051882D01*
X013436Y051928D01*
X013461Y051976D01*
X013484Y052026D01*
X013502Y052077D01*
X013518Y052129D01*
X013529Y052183D01*
X013537Y052236D01*
X013542Y052291D01*
X013543Y052345D01*
X013540Y052400D01*
X013534Y052454D01*
X013524Y052507D01*
X013510Y052560D01*
X013493Y052611D01*
X013472Y052662D01*
X013449Y052711D01*
X013421Y052758D01*
X013391Y052803D01*
X013358Y052847D01*
X013322Y052887D01*
X013283Y052926D01*
X013242Y052961D01*
X013264Y054474D02*
X013304Y054511D01*
X013341Y054551D01*
X013376Y054593D01*
X013407Y054637D01*
X013436Y054683D01*
X013461Y054731D01*
X013483Y054781D01*
X013502Y054832D01*
X013518Y054884D01*
X013529Y054938D01*
X013537Y054991D01*
X013542Y055046D01*
X013543Y055100D01*
X013540Y055154D01*
X013534Y055209D01*
X013524Y055262D01*
X013510Y055315D01*
X013493Y055366D01*
X013472Y055417D01*
X013449Y055466D01*
X013421Y055513D01*
X013391Y055558D01*
X013358Y055601D01*
X013322Y055642D01*
X013283Y055681D01*
X013242Y055716D01*
X013264Y056443D02*
X013304Y056480D01*
X013341Y056520D01*
X013376Y056562D01*
X013407Y056606D01*
X013436Y056652D01*
X013461Y056700D01*
X013484Y056750D01*
X013502Y056801D01*
X013518Y056853D01*
X013529Y056907D01*
X013537Y056960D01*
X013542Y057015D01*
X013543Y057069D01*
X013540Y057124D01*
X013534Y057178D01*
X013524Y057231D01*
X013510Y057284D01*
X013493Y057335D01*
X013472Y057386D01*
X013449Y057435D01*
X013421Y057482D01*
X013391Y057527D01*
X013358Y057571D01*
X013322Y057611D01*
X013283Y057650D01*
X013242Y057685D01*
X009572Y056246D02*
X008822Y056246D01*
X008822Y055876D02*
X009572Y055876D01*
X008822Y053331D02*
X008822Y053121D01*
X008822Y051521D02*
X009572Y051521D01*
X009572Y051151D02*
X008822Y051151D01*
X008822Y046797D02*
X009572Y046797D01*
X009572Y046427D02*
X008822Y046427D01*
X008822Y044827D02*
X008822Y044607D01*
X009222Y044607D01*
X009672Y044607D01*
X009772Y044407D01*
X009122Y044407D01*
X009222Y044607D01*
X005192Y040733D02*
X004642Y040733D01*
X004642Y036733D01*
X002942Y036733D01*
X002942Y040733D01*
X004642Y040733D01*
X005192Y040733D02*
X005192Y036733D01*
X004642Y036733D01*
X004642Y036796D02*
X005192Y036796D01*
X005192Y032796D01*
X004642Y032796D01*
X002942Y032796D01*
X002942Y036796D01*
X004642Y036796D01*
X004642Y032796D01*
X004642Y032859D02*
X005192Y032859D01*
X005192Y028859D01*
X004642Y028859D01*
X002942Y028859D01*
X002942Y032859D01*
X004642Y032859D01*
X004642Y028859D01*
X004642Y028922D02*
X005192Y028922D01*
X005192Y024922D01*
X004642Y024922D01*
X002942Y024922D01*
X002942Y028922D01*
X004642Y028922D01*
X004642Y024922D01*
X004642Y024985D02*
X005192Y024985D01*
X005192Y020985D01*
X004642Y020985D01*
X002942Y020985D01*
X002942Y024985D01*
X004642Y024985D01*
X004642Y020985D01*
X004642Y021048D02*
X005192Y021048D01*
X005192Y017048D01*
X004642Y017048D01*
X002942Y017048D01*
X002942Y021048D01*
X004642Y021048D01*
X004642Y017048D01*
X004642Y017111D02*
X005192Y017111D01*
X005192Y013111D01*
X004642Y013111D01*
X002942Y013111D01*
X002942Y017111D01*
X004642Y017111D01*
X004642Y013111D01*
X002992Y012911D02*
X002942Y013111D01*
X002592Y013111D01*
X002242Y013111D01*
X002242Y017111D01*
X002942Y017111D01*
X002942Y017048D02*
X002592Y017048D01*
X002242Y017048D01*
X002242Y021048D01*
X002942Y021048D01*
X002942Y020985D02*
X002592Y020985D01*
X002242Y020985D01*
X002242Y024985D01*
X002942Y024985D01*
X002942Y024922D02*
X002592Y024922D01*
X002242Y024922D01*
X002242Y028922D01*
X002942Y028922D01*
X002942Y028859D02*
X002592Y028859D01*
X002242Y028859D01*
X002242Y032859D01*
X002942Y032859D01*
X002942Y032796D02*
X002592Y032796D01*
X002242Y032796D01*
X002242Y036796D01*
X002942Y036796D01*
X002942Y036733D02*
X002592Y036733D01*
X002242Y036733D01*
X002242Y040733D01*
X002942Y040733D01*
X002392Y039723D02*
X002394Y039751D01*
X002400Y039778D01*
X002409Y039804D01*
X002422Y039829D01*
X002439Y039852D01*
X002458Y039872D01*
X002480Y039889D01*
X002504Y039903D01*
X002530Y039913D01*
X002557Y039920D01*
X002585Y039923D01*
X002613Y039922D01*
X002640Y039917D01*
X002667Y039908D01*
X002692Y039896D01*
X002715Y039881D01*
X002736Y039862D01*
X002754Y039841D01*
X002769Y039817D01*
X002780Y039791D01*
X002788Y039765D01*
X002792Y039737D01*
X002792Y039709D01*
X002788Y039681D01*
X002780Y039655D01*
X002769Y039629D01*
X002754Y039605D01*
X002736Y039584D01*
X002715Y039565D01*
X002692Y039550D01*
X002667Y039538D01*
X002640Y039529D01*
X002613Y039524D01*
X002585Y039523D01*
X002557Y039526D01*
X002530Y039533D01*
X002504Y039543D01*
X002480Y039557D01*
X002458Y039574D01*
X002439Y039594D01*
X002422Y039617D01*
X002409Y039642D01*
X002400Y039668D01*
X002394Y039695D01*
X002392Y039723D01*
X002392Y037743D02*
X002394Y037771D01*
X002400Y037798D01*
X002409Y037824D01*
X002422Y037849D01*
X002439Y037872D01*
X002458Y037892D01*
X002480Y037909D01*
X002504Y037923D01*
X002530Y037933D01*
X002557Y037940D01*
X002585Y037943D01*
X002613Y037942D01*
X002640Y037937D01*
X002667Y037928D01*
X002692Y037916D01*
X002715Y037901D01*
X002736Y037882D01*
X002754Y037861D01*
X002769Y037837D01*
X002780Y037811D01*
X002788Y037785D01*
X002792Y037757D01*
X002792Y037729D01*
X002788Y037701D01*
X002780Y037675D01*
X002769Y037649D01*
X002754Y037625D01*
X002736Y037604D01*
X002715Y037585D01*
X002692Y037570D01*
X002667Y037558D01*
X002640Y037549D01*
X002613Y037544D01*
X002585Y037543D01*
X002557Y037546D01*
X002530Y037553D01*
X002504Y037563D01*
X002480Y037577D01*
X002458Y037594D01*
X002439Y037614D01*
X002422Y037637D01*
X002409Y037662D01*
X002400Y037688D01*
X002394Y037715D01*
X002392Y037743D01*
X002592Y036733D02*
X002542Y036533D01*
X002992Y036533D01*
X002942Y036733D01*
X002392Y035786D02*
X002394Y035814D01*
X002400Y035841D01*
X002409Y035867D01*
X002422Y035892D01*
X002439Y035915D01*
X002458Y035935D01*
X002480Y035952D01*
X002504Y035966D01*
X002530Y035976D01*
X002557Y035983D01*
X002585Y035986D01*
X002613Y035985D01*
X002640Y035980D01*
X002667Y035971D01*
X002692Y035959D01*
X002715Y035944D01*
X002736Y035925D01*
X002754Y035904D01*
X002769Y035880D01*
X002780Y035854D01*
X002788Y035828D01*
X002792Y035800D01*
X002792Y035772D01*
X002788Y035744D01*
X002780Y035718D01*
X002769Y035692D01*
X002754Y035668D01*
X002736Y035647D01*
X002715Y035628D01*
X002692Y035613D01*
X002667Y035601D01*
X002640Y035592D01*
X002613Y035587D01*
X002585Y035586D01*
X002557Y035589D01*
X002530Y035596D01*
X002504Y035606D01*
X002480Y035620D01*
X002458Y035637D01*
X002439Y035657D01*
X002422Y035680D01*
X002409Y035705D01*
X002400Y035731D01*
X002394Y035758D01*
X002392Y035786D01*
X002392Y033806D02*
X002394Y033834D01*
X002400Y033861D01*
X002409Y033887D01*
X002422Y033912D01*
X002439Y033935D01*
X002458Y033955D01*
X002480Y033972D01*
X002504Y033986D01*
X002530Y033996D01*
X002557Y034003D01*
X002585Y034006D01*
X002613Y034005D01*
X002640Y034000D01*
X002667Y033991D01*
X002692Y033979D01*
X002715Y033964D01*
X002736Y033945D01*
X002754Y033924D01*
X002769Y033900D01*
X002780Y033874D01*
X002788Y033848D01*
X002792Y033820D01*
X002792Y033792D01*
X002788Y033764D01*
X002780Y033738D01*
X002769Y033712D01*
X002754Y033688D01*
X002736Y033667D01*
X002715Y033648D01*
X002692Y033633D01*
X002667Y033621D01*
X002640Y033612D01*
X002613Y033607D01*
X002585Y033606D01*
X002557Y033609D01*
X002530Y033616D01*
X002504Y033626D01*
X002480Y033640D01*
X002458Y033657D01*
X002439Y033677D01*
X002422Y033700D01*
X002409Y033725D01*
X002400Y033751D01*
X002394Y033778D01*
X002392Y033806D01*
X002592Y032796D02*
X002542Y032596D01*
X002992Y032596D01*
X002942Y032796D01*
X002392Y031849D02*
X002394Y031877D01*
X002400Y031904D01*
X002409Y031930D01*
X002422Y031955D01*
X002439Y031978D01*
X002458Y031998D01*
X002480Y032015D01*
X002504Y032029D01*
X002530Y032039D01*
X002557Y032046D01*
X002585Y032049D01*
X002613Y032048D01*
X002640Y032043D01*
X002667Y032034D01*
X002692Y032022D01*
X002715Y032007D01*
X002736Y031988D01*
X002754Y031967D01*
X002769Y031943D01*
X002780Y031917D01*
X002788Y031891D01*
X002792Y031863D01*
X002792Y031835D01*
X002788Y031807D01*
X002780Y031781D01*
X002769Y031755D01*
X002754Y031731D01*
X002736Y031710D01*
X002715Y031691D01*
X002692Y031676D01*
X002667Y031664D01*
X002640Y031655D01*
X002613Y031650D01*
X002585Y031649D01*
X002557Y031652D01*
X002530Y031659D01*
X002504Y031669D01*
X002480Y031683D01*
X002458Y031700D01*
X002439Y031720D01*
X002422Y031743D01*
X002409Y031768D01*
X002400Y031794D01*
X002394Y031821D01*
X002392Y031849D01*
X002392Y029869D02*
X002394Y029897D01*
X002400Y029924D01*
X002409Y029950D01*
X002422Y029975D01*
X002439Y029998D01*
X002458Y030018D01*
X002480Y030035D01*
X002504Y030049D01*
X002530Y030059D01*
X002557Y030066D01*
X002585Y030069D01*
X002613Y030068D01*
X002640Y030063D01*
X002667Y030054D01*
X002692Y030042D01*
X002715Y030027D01*
X002736Y030008D01*
X002754Y029987D01*
X002769Y029963D01*
X002780Y029937D01*
X002788Y029911D01*
X002792Y029883D01*
X002792Y029855D01*
X002788Y029827D01*
X002780Y029801D01*
X002769Y029775D01*
X002754Y029751D01*
X002736Y029730D01*
X002715Y029711D01*
X002692Y029696D01*
X002667Y029684D01*
X002640Y029675D01*
X002613Y029670D01*
X002585Y029669D01*
X002557Y029672D01*
X002530Y029679D01*
X002504Y029689D01*
X002480Y029703D01*
X002458Y029720D01*
X002439Y029740D01*
X002422Y029763D01*
X002409Y029788D01*
X002400Y029814D01*
X002394Y029841D01*
X002392Y029869D01*
X002592Y028859D02*
X002542Y028659D01*
X002992Y028659D01*
X002942Y028859D01*
X002392Y027912D02*
X002394Y027940D01*
X002400Y027967D01*
X002409Y027993D01*
X002422Y028018D01*
X002439Y028041D01*
X002458Y028061D01*
X002480Y028078D01*
X002504Y028092D01*
X002530Y028102D01*
X002557Y028109D01*
X002585Y028112D01*
X002613Y028111D01*
X002640Y028106D01*
X002667Y028097D01*
X002692Y028085D01*
X002715Y028070D01*
X002736Y028051D01*
X002754Y028030D01*
X002769Y028006D01*
X002780Y027980D01*
X002788Y027954D01*
X002792Y027926D01*
X002792Y027898D01*
X002788Y027870D01*
X002780Y027844D01*
X002769Y027818D01*
X002754Y027794D01*
X002736Y027773D01*
X002715Y027754D01*
X002692Y027739D01*
X002667Y027727D01*
X002640Y027718D01*
X002613Y027713D01*
X002585Y027712D01*
X002557Y027715D01*
X002530Y027722D01*
X002504Y027732D01*
X002480Y027746D01*
X002458Y027763D01*
X002439Y027783D01*
X002422Y027806D01*
X002409Y027831D01*
X002400Y027857D01*
X002394Y027884D01*
X002392Y027912D01*
X002392Y025932D02*
X002394Y025960D01*
X002400Y025987D01*
X002409Y026013D01*
X002422Y026038D01*
X002439Y026061D01*
X002458Y026081D01*
X002480Y026098D01*
X002504Y026112D01*
X002530Y026122D01*
X002557Y026129D01*
X002585Y026132D01*
X002613Y026131D01*
X002640Y026126D01*
X002667Y026117D01*
X002692Y026105D01*
X002715Y026090D01*
X002736Y026071D01*
X002754Y026050D01*
X002769Y026026D01*
X002780Y026000D01*
X002788Y025974D01*
X002792Y025946D01*
X002792Y025918D01*
X002788Y025890D01*
X002780Y025864D01*
X002769Y025838D01*
X002754Y025814D01*
X002736Y025793D01*
X002715Y025774D01*
X002692Y025759D01*
X002667Y025747D01*
X002640Y025738D01*
X002613Y025733D01*
X002585Y025732D01*
X002557Y025735D01*
X002530Y025742D01*
X002504Y025752D01*
X002480Y025766D01*
X002458Y025783D01*
X002439Y025803D01*
X002422Y025826D01*
X002409Y025851D01*
X002400Y025877D01*
X002394Y025904D01*
X002392Y025932D01*
X002592Y024922D02*
X002542Y024722D01*
X002992Y024722D01*
X002942Y024922D01*
X002392Y023975D02*
X002394Y024003D01*
X002400Y024030D01*
X002409Y024056D01*
X002422Y024081D01*
X002439Y024104D01*
X002458Y024124D01*
X002480Y024141D01*
X002504Y024155D01*
X002530Y024165D01*
X002557Y024172D01*
X002585Y024175D01*
X002613Y024174D01*
X002640Y024169D01*
X002667Y024160D01*
X002692Y024148D01*
X002715Y024133D01*
X002736Y024114D01*
X002754Y024093D01*
X002769Y024069D01*
X002780Y024043D01*
X002788Y024017D01*
X002792Y023989D01*
X002792Y023961D01*
X002788Y023933D01*
X002780Y023907D01*
X002769Y023881D01*
X002754Y023857D01*
X002736Y023836D01*
X002715Y023817D01*
X002692Y023802D01*
X002667Y023790D01*
X002640Y023781D01*
X002613Y023776D01*
X002585Y023775D01*
X002557Y023778D01*
X002530Y023785D01*
X002504Y023795D01*
X002480Y023809D01*
X002458Y023826D01*
X002439Y023846D01*
X002422Y023869D01*
X002409Y023894D01*
X002400Y023920D01*
X002394Y023947D01*
X002392Y023975D01*
X002392Y021995D02*
X002394Y022023D01*
X002400Y022050D01*
X002409Y022076D01*
X002422Y022101D01*
X002439Y022124D01*
X002458Y022144D01*
X002480Y022161D01*
X002504Y022175D01*
X002530Y022185D01*
X002557Y022192D01*
X002585Y022195D01*
X002613Y022194D01*
X002640Y022189D01*
X002667Y022180D01*
X002692Y022168D01*
X002715Y022153D01*
X002736Y022134D01*
X002754Y022113D01*
X002769Y022089D01*
X002780Y022063D01*
X002788Y022037D01*
X002792Y022009D01*
X002792Y021981D01*
X002788Y021953D01*
X002780Y021927D01*
X002769Y021901D01*
X002754Y021877D01*
X002736Y021856D01*
X002715Y021837D01*
X002692Y021822D01*
X002667Y021810D01*
X002640Y021801D01*
X002613Y021796D01*
X002585Y021795D01*
X002557Y021798D01*
X002530Y021805D01*
X002504Y021815D01*
X002480Y021829D01*
X002458Y021846D01*
X002439Y021866D01*
X002422Y021889D01*
X002409Y021914D01*
X002400Y021940D01*
X002394Y021967D01*
X002392Y021995D01*
X002592Y020985D02*
X002542Y020785D01*
X002992Y020785D01*
X002942Y020985D01*
X002392Y020038D02*
X002394Y020066D01*
X002400Y020093D01*
X002409Y020119D01*
X002422Y020144D01*
X002439Y020167D01*
X002458Y020187D01*
X002480Y020204D01*
X002504Y020218D01*
X002530Y020228D01*
X002557Y020235D01*
X002585Y020238D01*
X002613Y020237D01*
X002640Y020232D01*
X002667Y020223D01*
X002692Y020211D01*
X002715Y020196D01*
X002736Y020177D01*
X002754Y020156D01*
X002769Y020132D01*
X002780Y020106D01*
X002788Y020080D01*
X002792Y020052D01*
X002792Y020024D01*
X002788Y019996D01*
X002780Y019970D01*
X002769Y019944D01*
X002754Y019920D01*
X002736Y019899D01*
X002715Y019880D01*
X002692Y019865D01*
X002667Y019853D01*
X002640Y019844D01*
X002613Y019839D01*
X002585Y019838D01*
X002557Y019841D01*
X002530Y019848D01*
X002504Y019858D01*
X002480Y019872D01*
X002458Y019889D01*
X002439Y019909D01*
X002422Y019932D01*
X002409Y019957D01*
X002400Y019983D01*
X002394Y020010D01*
X002392Y020038D01*
X002392Y018058D02*
X002394Y018086D01*
X002400Y018113D01*
X002409Y018139D01*
X002422Y018164D01*
X002439Y018187D01*
X002458Y018207D01*
X002480Y018224D01*
X002504Y018238D01*
X002530Y018248D01*
X002557Y018255D01*
X002585Y018258D01*
X002613Y018257D01*
X002640Y018252D01*
X002667Y018243D01*
X002692Y018231D01*
X002715Y018216D01*
X002736Y018197D01*
X002754Y018176D01*
X002769Y018152D01*
X002780Y018126D01*
X002788Y018100D01*
X002792Y018072D01*
X002792Y018044D01*
X002788Y018016D01*
X002780Y017990D01*
X002769Y017964D01*
X002754Y017940D01*
X002736Y017919D01*
X002715Y017900D01*
X002692Y017885D01*
X002667Y017873D01*
X002640Y017864D01*
X002613Y017859D01*
X002585Y017858D01*
X002557Y017861D01*
X002530Y017868D01*
X002504Y017878D01*
X002480Y017892D01*
X002458Y017909D01*
X002439Y017929D01*
X002422Y017952D01*
X002409Y017977D01*
X002400Y018003D01*
X002394Y018030D01*
X002392Y018058D01*
X002592Y017048D02*
X002542Y016848D01*
X002992Y016848D01*
X002942Y017048D01*
X002392Y016101D02*
X002394Y016129D01*
X002400Y016156D01*
X002409Y016182D01*
X002422Y016207D01*
X002439Y016230D01*
X002458Y016250D01*
X002480Y016267D01*
X002504Y016281D01*
X002530Y016291D01*
X002557Y016298D01*
X002585Y016301D01*
X002613Y016300D01*
X002640Y016295D01*
X002667Y016286D01*
X002692Y016274D01*
X002715Y016259D01*
X002736Y016240D01*
X002754Y016219D01*
X002769Y016195D01*
X002780Y016169D01*
X002788Y016143D01*
X002792Y016115D01*
X002792Y016087D01*
X002788Y016059D01*
X002780Y016033D01*
X002769Y016007D01*
X002754Y015983D01*
X002736Y015962D01*
X002715Y015943D01*
X002692Y015928D01*
X002667Y015916D01*
X002640Y015907D01*
X002613Y015902D01*
X002585Y015901D01*
X002557Y015904D01*
X002530Y015911D01*
X002504Y015921D01*
X002480Y015935D01*
X002458Y015952D01*
X002439Y015972D01*
X002422Y015995D01*
X002409Y016020D01*
X002400Y016046D01*
X002394Y016073D01*
X002392Y016101D01*
X002392Y014121D02*
X002394Y014149D01*
X002400Y014176D01*
X002409Y014202D01*
X002422Y014227D01*
X002439Y014250D01*
X002458Y014270D01*
X002480Y014287D01*
X002504Y014301D01*
X002530Y014311D01*
X002557Y014318D01*
X002585Y014321D01*
X002613Y014320D01*
X002640Y014315D01*
X002667Y014306D01*
X002692Y014294D01*
X002715Y014279D01*
X002736Y014260D01*
X002754Y014239D01*
X002769Y014215D01*
X002780Y014189D01*
X002788Y014163D01*
X002792Y014135D01*
X002792Y014107D01*
X002788Y014079D01*
X002780Y014053D01*
X002769Y014027D01*
X002754Y014003D01*
X002736Y013982D01*
X002715Y013963D01*
X002692Y013948D01*
X002667Y013936D01*
X002640Y013927D01*
X002613Y013922D01*
X002585Y013921D01*
X002557Y013924D01*
X002530Y013931D01*
X002504Y013941D01*
X002480Y013955D01*
X002458Y013972D01*
X002439Y013992D01*
X002422Y014015D01*
X002409Y014040D01*
X002400Y014066D01*
X002394Y014093D01*
X002392Y014121D01*
X002592Y013111D02*
X002542Y012911D01*
X002992Y012911D01*
X009708Y005693D02*
X012408Y005693D01*
X012408Y005333D01*
X012258Y005333D02*
X012258Y005483D01*
X010458Y005483D01*
X009708Y005483D01*
X009708Y003883D01*
X009708Y003513D01*
X009708Y001913D01*
X010458Y001913D01*
X010458Y003513D01*
X012258Y003513D01*
X012258Y003363D01*
X012408Y003363D02*
X012408Y004033D01*
X012258Y004033D02*
X012258Y003883D01*
X010458Y003883D01*
X010458Y005483D01*
X010708Y005333D02*
X011958Y005333D01*
X012408Y005693D02*
X013408Y005693D01*
X014608Y005693D01*
X014608Y001693D01*
X014608Y001493D01*
X012708Y001493D01*
X012808Y001693D01*
X013408Y001693D01*
X013408Y005693D01*
X013508Y005483D02*
X014508Y005483D01*
X014508Y003883D01*
X013508Y003883D01*
X013508Y005483D01*
X013858Y005273D02*
X014108Y004073D01*
X014158Y004123D02*
X013908Y005323D01*
X013784Y005246D02*
X013801Y005272D01*
X013820Y005295D01*
X013843Y005315D01*
X013867Y005332D01*
X013894Y005346D01*
X013923Y005357D01*
X013952Y005363D01*
X013982Y005366D01*
X014013Y005365D01*
X014042Y005360D01*
X014071Y005351D01*
X014099Y005338D01*
X014124Y005322D01*
X014148Y005303D01*
X013798Y005263D02*
X013762Y005215D01*
X013729Y005164D01*
X013699Y005112D01*
X013673Y005058D01*
X013650Y005002D01*
X013630Y004945D01*
X013614Y004887D01*
X013602Y004828D01*
X013594Y004768D01*
X013589Y004708D01*
X013588Y004648D01*
X013591Y004588D01*
X013598Y004528D01*
X013608Y004468D01*
X013622Y004410D01*
X013640Y004352D01*
X013661Y004296D01*
X013686Y004241D01*
X013714Y004188D01*
X013745Y004136D01*
X013780Y004087D01*
X013766Y004105D02*
X013788Y004083D01*
X013811Y004064D01*
X013837Y004048D01*
X013864Y004035D01*
X013893Y004025D01*
X013922Y004018D01*
X013953Y004014D01*
X013983Y004014D01*
X014013Y004018D01*
X014043Y004025D01*
X014071Y004035D01*
X014099Y004048D01*
X014124Y004064D01*
X014148Y004083D01*
X014508Y003513D02*
X013508Y003513D01*
X013508Y001913D01*
X014508Y001913D01*
X014508Y003513D01*
X013908Y003353D02*
X014158Y002153D01*
X014108Y002103D02*
X013858Y003303D01*
X013784Y003276D02*
X013801Y003302D01*
X013820Y003325D01*
X013843Y003345D01*
X013867Y003362D01*
X013894Y003376D01*
X013923Y003387D01*
X013952Y003393D01*
X013982Y003396D01*
X014013Y003395D01*
X014042Y003390D01*
X014071Y003381D01*
X014099Y003368D01*
X014124Y003352D01*
X014148Y003333D01*
X013798Y003293D02*
X013762Y003245D01*
X013729Y003194D01*
X013699Y003142D01*
X013673Y003088D01*
X013650Y003032D01*
X013630Y002975D01*
X013614Y002917D01*
X013602Y002858D01*
X013594Y002798D01*
X013589Y002738D01*
X013588Y002678D01*
X013591Y002618D01*
X013598Y002558D01*
X013608Y002498D01*
X013622Y002440D01*
X013640Y002382D01*
X013661Y002326D01*
X013686Y002271D01*
X013714Y002218D01*
X013745Y002166D01*
X013780Y002117D01*
X013766Y002135D02*
X013788Y002113D01*
X013811Y002094D01*
X013837Y002078D01*
X013864Y002065D01*
X013893Y002055D01*
X013922Y002048D01*
X013953Y002044D01*
X013983Y002044D01*
X014013Y002048D01*
X014043Y002055D01*
X014071Y002065D01*
X014099Y002078D01*
X014124Y002094D01*
X014148Y002113D01*
X014608Y001693D02*
X013408Y001693D01*
X012808Y001693D02*
X012408Y001693D01*
X012408Y002063D01*
X012258Y002063D02*
X012258Y001913D01*
X010458Y001913D01*
X010558Y001693D02*
X010108Y001693D01*
X009708Y001693D01*
X009708Y001913D01*
X010108Y001693D02*
X010008Y001493D01*
X010658Y001493D01*
X010558Y001693D01*
X012408Y001693D01*
X011958Y002063D02*
X010708Y002063D01*
X010708Y003363D01*
X011958Y003363D01*
X011958Y004033D02*
X010708Y004033D01*
X010708Y005333D01*
X009708Y005483D02*
X009708Y005693D01*
X009708Y003883D02*
X010458Y003883D01*
X010458Y003513D02*
X009708Y003513D01*
X014128Y003353D02*
X014169Y003318D01*
X014208Y003279D01*
X014244Y003238D01*
X014277Y003195D01*
X014307Y003150D01*
X014335Y003103D01*
X014358Y003054D01*
X014379Y003003D01*
X014396Y002952D01*
X014410Y002899D01*
X014420Y002846D01*
X014426Y002791D01*
X014429Y002737D01*
X014428Y002683D01*
X014423Y002628D01*
X014415Y002575D01*
X014404Y002521D01*
X014388Y002469D01*
X014369Y002418D01*
X014347Y002368D01*
X014322Y002320D01*
X014293Y002274D01*
X014262Y002230D01*
X014227Y002188D01*
X014190Y002148D01*
X014150Y002111D01*
X016087Y003189D02*
X017087Y003189D01*
X017087Y004789D01*
X016087Y004789D01*
X016087Y003189D01*
X016587Y003739D02*
X016587Y003989D01*
X016837Y003989D01*
X016587Y003989D02*
X016337Y003989D01*
X016587Y003989D02*
X016337Y004389D01*
X016837Y004389D01*
X016587Y003989D01*
X016587Y004589D01*
X014150Y004081D02*
X014190Y004118D01*
X014227Y004158D01*
X014262Y004200D01*
X014293Y004244D01*
X014322Y004290D01*
X014347Y004338D01*
X014370Y004388D01*
X014388Y004439D01*
X014404Y004491D01*
X014415Y004545D01*
X014423Y004598D01*
X014428Y004653D01*
X014429Y004707D01*
X014426Y004762D01*
X014420Y004816D01*
X014410Y004869D01*
X014396Y004922D01*
X014379Y004973D01*
X014358Y005024D01*
X014335Y005073D01*
X014307Y005120D01*
X014277Y005165D01*
X014244Y005209D01*
X014208Y005249D01*
X014169Y005288D01*
X014128Y005323D01*
X028170Y004787D02*
X028170Y007487D01*
X028530Y007487D01*
X028530Y007337D02*
X028380Y007337D01*
X028380Y005537D01*
X028380Y004787D01*
X029980Y004787D01*
X030350Y004787D01*
X031950Y004787D01*
X031950Y005537D01*
X030350Y005537D01*
X030350Y007337D01*
X030500Y007337D01*
X030500Y007487D02*
X029830Y007487D01*
X029830Y007337D02*
X029980Y007337D01*
X029980Y005537D01*
X028380Y005537D01*
X028530Y005787D02*
X028530Y007037D01*
X028170Y007487D02*
X028170Y008487D01*
X028170Y009687D01*
X032170Y009687D01*
X032370Y009687D01*
X032370Y007787D01*
X032170Y007887D01*
X032170Y008487D01*
X028170Y008487D01*
X028380Y008587D02*
X028380Y009587D01*
X029980Y009587D01*
X029980Y008587D01*
X028380Y008587D01*
X028590Y008937D02*
X029790Y009187D01*
X029740Y009237D02*
X028540Y008987D01*
X028617Y008863D02*
X028591Y008880D01*
X028568Y008899D01*
X028548Y008922D01*
X028531Y008946D01*
X028517Y008973D01*
X028506Y009002D01*
X028500Y009031D01*
X028497Y009061D01*
X028498Y009092D01*
X028503Y009121D01*
X028512Y009150D01*
X028525Y009178D01*
X028541Y009203D01*
X028560Y009227D01*
X028600Y008877D02*
X028648Y008841D01*
X028699Y008808D01*
X028751Y008778D01*
X028805Y008752D01*
X028861Y008729D01*
X028918Y008709D01*
X028976Y008693D01*
X029035Y008681D01*
X029095Y008673D01*
X029155Y008668D01*
X029215Y008667D01*
X029275Y008670D01*
X029335Y008677D01*
X029395Y008687D01*
X029453Y008701D01*
X029511Y008719D01*
X029567Y008740D01*
X029622Y008765D01*
X029675Y008793D01*
X029727Y008824D01*
X029776Y008859D01*
X029758Y008845D02*
X029780Y008867D01*
X029799Y008890D01*
X029815Y008916D01*
X029828Y008943D01*
X029838Y008972D01*
X029845Y009001D01*
X029849Y009032D01*
X029849Y009062D01*
X029845Y009092D01*
X029838Y009122D01*
X029828Y009150D01*
X029815Y009178D01*
X029799Y009203D01*
X029780Y009227D01*
X030350Y009587D02*
X030350Y008587D01*
X031950Y008587D01*
X031950Y009587D01*
X030350Y009587D01*
X030510Y008987D02*
X031710Y009237D01*
X031760Y009187D02*
X030560Y008937D01*
X030587Y008863D02*
X030561Y008880D01*
X030538Y008899D01*
X030518Y008922D01*
X030501Y008946D01*
X030487Y008973D01*
X030476Y009002D01*
X030470Y009031D01*
X030467Y009061D01*
X030468Y009092D01*
X030473Y009121D01*
X030482Y009150D01*
X030495Y009178D01*
X030511Y009203D01*
X030530Y009227D01*
X030570Y008877D02*
X030618Y008841D01*
X030669Y008808D01*
X030721Y008778D01*
X030775Y008752D01*
X030831Y008729D01*
X030888Y008709D01*
X030946Y008693D01*
X031005Y008681D01*
X031065Y008673D01*
X031125Y008668D01*
X031185Y008667D01*
X031245Y008670D01*
X031305Y008677D01*
X031365Y008687D01*
X031423Y008701D01*
X031481Y008719D01*
X031537Y008740D01*
X031592Y008765D01*
X031645Y008793D01*
X031697Y008824D01*
X031746Y008859D01*
X031728Y008845D02*
X031750Y008867D01*
X031769Y008890D01*
X031785Y008916D01*
X031798Y008943D01*
X031808Y008972D01*
X031815Y009001D01*
X031819Y009032D01*
X031819Y009062D01*
X031815Y009092D01*
X031808Y009122D01*
X031798Y009150D01*
X031785Y009178D01*
X031769Y009203D01*
X031750Y009227D01*
X032107Y009687D02*
X032107Y008487D01*
X036107Y008487D01*
X036107Y007887D01*
X036107Y007487D01*
X035737Y007487D01*
X035737Y007337D02*
X035887Y007337D01*
X035887Y005537D01*
X035887Y004787D01*
X036107Y004787D01*
X036107Y005187D01*
X036107Y005637D01*
X036107Y007487D01*
X036307Y007787D02*
X036107Y007887D01*
X036307Y007787D02*
X036307Y009687D01*
X036107Y009687D01*
X032107Y009687D01*
X032170Y009687D02*
X032170Y008487D01*
X032107Y008487D02*
X032107Y007487D01*
X032467Y007487D01*
X032467Y007337D02*
X032317Y007337D01*
X032317Y005537D01*
X032317Y004787D01*
X033917Y004787D01*
X034287Y004787D01*
X035887Y004787D01*
X036107Y005187D02*
X036307Y005087D01*
X036307Y005737D01*
X036107Y005637D01*
X035887Y005537D02*
X034287Y005537D01*
X034287Y007337D01*
X034437Y007337D01*
X034437Y007487D02*
X033767Y007487D01*
X033767Y007337D02*
X033917Y007337D01*
X033917Y005537D01*
X032317Y005537D01*
X032170Y005637D02*
X032170Y007487D01*
X031800Y007487D01*
X031800Y007337D02*
X031950Y007337D01*
X031950Y005537D01*
X032170Y005637D02*
X032170Y005187D01*
X032170Y004787D01*
X031950Y004787D01*
X032107Y004787D02*
X032107Y007487D01*
X032170Y007487D02*
X032170Y007887D01*
X032317Y008587D02*
X032317Y009587D01*
X033917Y009587D01*
X033917Y008587D01*
X032317Y008587D01*
X032527Y008937D02*
X033727Y009187D01*
X033677Y009237D02*
X032477Y008987D01*
X032554Y008863D02*
X032528Y008880D01*
X032505Y008899D01*
X032485Y008922D01*
X032468Y008946D01*
X032454Y008973D01*
X032443Y009002D01*
X032437Y009031D01*
X032434Y009061D01*
X032435Y009092D01*
X032440Y009121D01*
X032449Y009150D01*
X032462Y009178D01*
X032478Y009203D01*
X032497Y009227D01*
X032537Y008877D02*
X032585Y008841D01*
X032636Y008808D01*
X032688Y008778D01*
X032742Y008752D01*
X032798Y008729D01*
X032855Y008709D01*
X032913Y008693D01*
X032972Y008681D01*
X033032Y008673D01*
X033092Y008668D01*
X033152Y008667D01*
X033212Y008670D01*
X033272Y008677D01*
X033332Y008687D01*
X033390Y008701D01*
X033448Y008719D01*
X033504Y008740D01*
X033559Y008765D01*
X033612Y008793D01*
X033664Y008824D01*
X033713Y008859D01*
X033695Y008845D02*
X033717Y008867D01*
X033736Y008890D01*
X033752Y008916D01*
X033765Y008943D01*
X033775Y008972D01*
X033782Y009001D01*
X033786Y009032D01*
X033786Y009062D01*
X033782Y009092D01*
X033775Y009122D01*
X033765Y009150D01*
X033752Y009178D01*
X033736Y009203D01*
X033717Y009227D01*
X033719Y009229D02*
X033682Y009269D01*
X033642Y009306D01*
X033600Y009341D01*
X033556Y009372D01*
X033510Y009401D01*
X033462Y009426D01*
X033412Y009449D01*
X033361Y009467D01*
X033309Y009483D01*
X033255Y009494D01*
X033202Y009502D01*
X033147Y009507D01*
X033093Y009508D01*
X033038Y009505D01*
X032984Y009499D01*
X032931Y009489D01*
X032878Y009475D01*
X032827Y009458D01*
X032776Y009437D01*
X032727Y009414D01*
X032680Y009386D01*
X032635Y009356D01*
X032591Y009323D01*
X032551Y009287D01*
X032512Y009248D01*
X032477Y009207D01*
X031752Y009229D02*
X031715Y009269D01*
X031675Y009306D01*
X031633Y009341D01*
X031589Y009372D01*
X031543Y009401D01*
X031495Y009426D01*
X031445Y009448D01*
X031394Y009467D01*
X031342Y009483D01*
X031288Y009494D01*
X031235Y009502D01*
X031180Y009507D01*
X031126Y009508D01*
X031072Y009505D01*
X031017Y009499D01*
X030964Y009489D01*
X030911Y009475D01*
X030860Y009458D01*
X030809Y009437D01*
X030760Y009414D01*
X030713Y009386D01*
X030668Y009356D01*
X030625Y009323D01*
X030584Y009287D01*
X030545Y009248D01*
X030510Y009207D01*
X029782Y009229D02*
X029745Y009269D01*
X029705Y009306D01*
X029663Y009341D01*
X029619Y009372D01*
X029573Y009401D01*
X029525Y009426D01*
X029475Y009449D01*
X029424Y009467D01*
X029372Y009483D01*
X029318Y009494D01*
X029265Y009502D01*
X029210Y009507D01*
X029156Y009508D01*
X029101Y009505D01*
X029047Y009499D01*
X028994Y009489D01*
X028941Y009475D01*
X028890Y009458D01*
X028839Y009437D01*
X028790Y009414D01*
X028743Y009386D01*
X028698Y009356D01*
X028654Y009323D01*
X028614Y009287D01*
X028575Y009248D01*
X028540Y009207D01*
X029830Y007037D02*
X029830Y005787D01*
X028530Y005787D01*
X028380Y004787D02*
X028170Y004787D01*
X029980Y004787D02*
X029980Y005537D01*
X030350Y005537D02*
X030350Y004787D01*
X030500Y005787D02*
X030500Y007037D01*
X030500Y005787D02*
X031800Y005787D01*
X031800Y007037D01*
X032467Y007037D02*
X032467Y005787D01*
X033767Y005787D01*
X033767Y007037D01*
X034437Y007037D02*
X034437Y005787D01*
X035737Y005787D01*
X035737Y007037D01*
X034287Y005537D02*
X034287Y004787D01*
X033917Y004787D02*
X033917Y005537D01*
X032370Y005737D02*
X032370Y005087D01*
X032170Y005187D01*
X032107Y004787D02*
X032317Y004787D01*
X032170Y005637D02*
X032370Y005737D01*
X034287Y008587D02*
X035887Y008587D01*
X035887Y009587D01*
X034287Y009587D01*
X034287Y008587D01*
X034497Y008937D02*
X035697Y009187D01*
X035647Y009237D02*
X034447Y008987D01*
X034524Y008863D02*
X034498Y008880D01*
X034475Y008899D01*
X034455Y008922D01*
X034438Y008946D01*
X034424Y008973D01*
X034413Y009002D01*
X034407Y009031D01*
X034404Y009061D01*
X034405Y009092D01*
X034410Y009121D01*
X034419Y009150D01*
X034432Y009178D01*
X034448Y009203D01*
X034467Y009227D01*
X034507Y008877D02*
X034555Y008841D01*
X034606Y008808D01*
X034658Y008778D01*
X034712Y008752D01*
X034768Y008729D01*
X034825Y008709D01*
X034883Y008693D01*
X034942Y008681D01*
X035002Y008673D01*
X035062Y008668D01*
X035122Y008667D01*
X035182Y008670D01*
X035242Y008677D01*
X035302Y008687D01*
X035360Y008701D01*
X035418Y008719D01*
X035474Y008740D01*
X035529Y008765D01*
X035582Y008793D01*
X035634Y008824D01*
X035683Y008859D01*
X035665Y008845D02*
X035687Y008867D01*
X035706Y008890D01*
X035722Y008916D01*
X035735Y008943D01*
X035745Y008972D01*
X035752Y009001D01*
X035756Y009032D01*
X035756Y009062D01*
X035752Y009092D01*
X035745Y009122D01*
X035735Y009150D01*
X035722Y009178D01*
X035706Y009203D01*
X035687Y009227D01*
X036107Y009687D02*
X036107Y008487D01*
X035689Y009229D02*
X035652Y009269D01*
X035612Y009306D01*
X035570Y009341D01*
X035526Y009372D01*
X035480Y009401D01*
X035432Y009426D01*
X035382Y009448D01*
X035331Y009467D01*
X035279Y009483D01*
X035225Y009494D01*
X035172Y009502D01*
X035117Y009507D01*
X035063Y009508D01*
X035009Y009505D01*
X034954Y009499D01*
X034901Y009489D01*
X034848Y009475D01*
X034797Y009458D01*
X034746Y009437D01*
X034697Y009414D01*
X034650Y009386D01*
X034605Y009356D01*
X034562Y009323D01*
X034521Y009287D01*
X034482Y009248D01*
X034447Y009207D01*
X038012Y009687D02*
X038012Y008487D01*
X042012Y008487D01*
X042012Y007887D01*
X042012Y007487D01*
X041642Y007487D01*
X041642Y007337D02*
X041792Y007337D01*
X041792Y005537D01*
X041792Y004787D01*
X042012Y004787D01*
X042012Y005187D01*
X042012Y005637D01*
X042012Y007487D01*
X041949Y007487D02*
X042309Y007487D01*
X042309Y007337D02*
X042159Y007337D01*
X042159Y005537D01*
X042159Y004787D01*
X043759Y004787D01*
X044129Y004787D01*
X045729Y004787D01*
X045729Y005537D01*
X044129Y005537D01*
X044129Y007337D01*
X044279Y007337D01*
X044279Y007487D02*
X043609Y007487D01*
X043609Y007337D02*
X043759Y007337D01*
X043759Y005537D01*
X042159Y005537D01*
X042012Y005637D02*
X042212Y005737D01*
X042212Y005087D01*
X042012Y005187D01*
X041949Y004787D02*
X041949Y007487D01*
X041949Y008487D01*
X041949Y009687D01*
X045949Y009687D01*
X046149Y009687D01*
X046149Y007787D01*
X045949Y007887D01*
X045949Y008487D01*
X041949Y008487D01*
X042012Y008487D02*
X042012Y009687D01*
X042212Y009687D01*
X042212Y007787D01*
X042012Y007887D01*
X042159Y008587D02*
X042159Y009587D01*
X043759Y009587D01*
X043759Y008587D01*
X042159Y008587D01*
X041792Y008587D02*
X040192Y008587D01*
X040192Y009587D01*
X041792Y009587D01*
X041792Y008587D01*
X041570Y008845D02*
X041592Y008867D01*
X041611Y008890D01*
X041627Y008916D01*
X041640Y008943D01*
X041650Y008972D01*
X041657Y009001D01*
X041661Y009032D01*
X041661Y009062D01*
X041657Y009092D01*
X041650Y009122D01*
X041640Y009150D01*
X041627Y009178D01*
X041611Y009203D01*
X041592Y009227D01*
X041552Y009237D02*
X040352Y008987D01*
X040402Y008937D02*
X041602Y009187D01*
X042012Y009687D02*
X038012Y009687D01*
X038222Y009587D02*
X039822Y009587D01*
X039822Y008587D01*
X038222Y008587D01*
X038222Y009587D01*
X038382Y008987D02*
X039582Y009237D01*
X039632Y009187D02*
X038432Y008937D01*
X038459Y008863D02*
X038433Y008880D01*
X038410Y008899D01*
X038390Y008922D01*
X038373Y008946D01*
X038359Y008973D01*
X038348Y009002D01*
X038342Y009031D01*
X038339Y009061D01*
X038340Y009092D01*
X038345Y009121D01*
X038354Y009150D01*
X038367Y009178D01*
X038383Y009203D01*
X038402Y009227D01*
X038382Y009207D02*
X038417Y009248D01*
X038456Y009287D01*
X038496Y009323D01*
X038540Y009356D01*
X038585Y009386D01*
X038632Y009414D01*
X038681Y009437D01*
X038732Y009458D01*
X038783Y009475D01*
X038836Y009489D01*
X038889Y009499D01*
X038943Y009505D01*
X038998Y009508D01*
X039052Y009507D01*
X039107Y009502D01*
X039160Y009494D01*
X039214Y009483D01*
X039266Y009467D01*
X039317Y009449D01*
X039367Y009426D01*
X039415Y009401D01*
X039461Y009372D01*
X039505Y009341D01*
X039547Y009306D01*
X039587Y009269D01*
X039624Y009229D01*
X039622Y009227D02*
X039641Y009203D01*
X039657Y009178D01*
X039670Y009150D01*
X039680Y009122D01*
X039687Y009092D01*
X039691Y009062D01*
X039691Y009032D01*
X039687Y009001D01*
X039680Y008972D01*
X039670Y008943D01*
X039657Y008916D01*
X039641Y008890D01*
X039622Y008867D01*
X039600Y008845D01*
X040429Y008863D02*
X040403Y008880D01*
X040380Y008899D01*
X040360Y008922D01*
X040343Y008946D01*
X040329Y008973D01*
X040318Y009002D01*
X040312Y009031D01*
X040309Y009061D01*
X040310Y009092D01*
X040315Y009121D01*
X040324Y009150D01*
X040337Y009178D01*
X040353Y009203D01*
X040372Y009227D01*
X040412Y008877D02*
X040460Y008841D01*
X040511Y008808D01*
X040563Y008778D01*
X040617Y008752D01*
X040673Y008729D01*
X040730Y008709D01*
X040788Y008693D01*
X040847Y008681D01*
X040907Y008673D01*
X040967Y008668D01*
X041027Y008667D01*
X041087Y008670D01*
X041147Y008677D01*
X041207Y008687D01*
X041265Y008701D01*
X041323Y008719D01*
X041379Y008740D01*
X041434Y008765D01*
X041487Y008793D01*
X041539Y008824D01*
X041588Y008859D01*
X041594Y009229D02*
X041557Y009269D01*
X041517Y009306D01*
X041475Y009341D01*
X041431Y009372D01*
X041385Y009401D01*
X041337Y009426D01*
X041287Y009448D01*
X041236Y009467D01*
X041184Y009483D01*
X041130Y009494D01*
X041077Y009502D01*
X041022Y009507D01*
X040968Y009508D01*
X040914Y009505D01*
X040859Y009499D01*
X040806Y009489D01*
X040753Y009475D01*
X040702Y009458D01*
X040651Y009437D01*
X040602Y009414D01*
X040555Y009386D01*
X040510Y009356D01*
X040467Y009323D01*
X040426Y009287D01*
X040387Y009248D01*
X040352Y009207D01*
X039618Y008859D02*
X039569Y008824D01*
X039517Y008793D01*
X039464Y008765D01*
X039409Y008740D01*
X039353Y008719D01*
X039295Y008701D01*
X039237Y008687D01*
X039177Y008677D01*
X039117Y008670D01*
X039057Y008667D01*
X038997Y008668D01*
X038937Y008673D01*
X038877Y008681D01*
X038818Y008693D01*
X038760Y008709D01*
X038703Y008729D01*
X038647Y008752D01*
X038593Y008778D01*
X038541Y008808D01*
X038490Y008841D01*
X038442Y008877D01*
X038012Y008487D02*
X038012Y007487D01*
X038372Y007487D01*
X038372Y007337D02*
X038222Y007337D01*
X038222Y005537D01*
X038222Y004787D01*
X039822Y004787D01*
X040192Y004787D01*
X041792Y004787D01*
X041949Y004787D02*
X042159Y004787D01*
X041792Y005537D02*
X040192Y005537D01*
X040192Y007337D01*
X040342Y007337D01*
X040342Y007487D02*
X039672Y007487D01*
X039672Y007337D02*
X039822Y007337D01*
X039822Y005537D01*
X038222Y005537D01*
X038372Y005787D02*
X038372Y007037D01*
X038012Y007487D02*
X038012Y004787D01*
X038222Y004787D01*
X038372Y005787D02*
X039672Y005787D01*
X039672Y007037D01*
X040342Y007037D02*
X040342Y005787D01*
X041642Y005787D01*
X041642Y007037D01*
X042309Y007037D02*
X042309Y005787D01*
X043609Y005787D01*
X043609Y007037D01*
X044279Y007037D02*
X044279Y005787D01*
X045579Y005787D01*
X045579Y007037D01*
X045579Y007337D02*
X045729Y007337D01*
X045729Y005537D01*
X045949Y005637D02*
X045949Y005187D01*
X045949Y004787D01*
X045729Y004787D01*
X045886Y004787D02*
X045886Y007487D01*
X046246Y007487D01*
X046246Y007337D02*
X046096Y007337D01*
X046096Y005537D01*
X046096Y004787D01*
X047696Y004787D01*
X048066Y004787D01*
X049666Y004787D01*
X049666Y005537D01*
X048066Y005537D01*
X048066Y007337D01*
X048216Y007337D01*
X048216Y007487D02*
X047546Y007487D01*
X047546Y007337D02*
X047696Y007337D01*
X047696Y005537D01*
X046096Y005537D01*
X045949Y005637D02*
X045949Y007487D01*
X045579Y007487D01*
X045886Y007487D02*
X045886Y008487D01*
X045886Y009687D01*
X049886Y009687D01*
X050086Y009687D01*
X050086Y007787D01*
X049886Y007887D01*
X049886Y008487D01*
X045886Y008487D01*
X045949Y008487D02*
X045949Y009687D01*
X046096Y009587D02*
X047696Y009587D01*
X047696Y008587D01*
X046096Y008587D01*
X046096Y009587D01*
X045729Y009587D02*
X045729Y008587D01*
X044129Y008587D01*
X044129Y009587D01*
X045729Y009587D01*
X045489Y009237D02*
X044289Y008987D01*
X044339Y008937D02*
X045539Y009187D01*
X045529Y009227D02*
X045548Y009203D01*
X045564Y009178D01*
X045577Y009150D01*
X045587Y009122D01*
X045594Y009092D01*
X045598Y009062D01*
X045598Y009032D01*
X045594Y009001D01*
X045587Y008972D01*
X045577Y008943D01*
X045564Y008916D01*
X045548Y008890D01*
X045529Y008867D01*
X045507Y008845D01*
X045531Y009229D02*
X045494Y009269D01*
X045454Y009306D01*
X045412Y009341D01*
X045368Y009372D01*
X045322Y009401D01*
X045274Y009426D01*
X045224Y009448D01*
X045173Y009467D01*
X045121Y009483D01*
X045067Y009494D01*
X045014Y009502D01*
X044959Y009507D01*
X044905Y009508D01*
X044851Y009505D01*
X044796Y009499D01*
X044743Y009489D01*
X044690Y009475D01*
X044639Y009458D01*
X044588Y009437D01*
X044539Y009414D01*
X044492Y009386D01*
X044447Y009356D01*
X044404Y009323D01*
X044363Y009287D01*
X044324Y009248D01*
X044289Y009207D01*
X044309Y009227D02*
X044290Y009203D01*
X044274Y009178D01*
X044261Y009150D01*
X044252Y009121D01*
X044247Y009092D01*
X044246Y009061D01*
X044249Y009031D01*
X044255Y009002D01*
X044266Y008973D01*
X044280Y008946D01*
X044297Y008922D01*
X044317Y008899D01*
X044340Y008880D01*
X044366Y008863D01*
X043569Y009187D02*
X042369Y008937D01*
X042319Y008987D02*
X043519Y009237D01*
X043559Y009227D02*
X043578Y009203D01*
X043594Y009178D01*
X043607Y009150D01*
X043617Y009122D01*
X043624Y009092D01*
X043628Y009062D01*
X043628Y009032D01*
X043624Y009001D01*
X043617Y008972D01*
X043607Y008943D01*
X043594Y008916D01*
X043578Y008890D01*
X043559Y008867D01*
X043537Y008845D01*
X043561Y009229D02*
X043524Y009269D01*
X043484Y009306D01*
X043442Y009341D01*
X043398Y009372D01*
X043352Y009401D01*
X043304Y009426D01*
X043254Y009449D01*
X043203Y009467D01*
X043151Y009483D01*
X043097Y009494D01*
X043044Y009502D01*
X042989Y009507D01*
X042935Y009508D01*
X042880Y009505D01*
X042826Y009499D01*
X042773Y009489D01*
X042720Y009475D01*
X042669Y009458D01*
X042618Y009437D01*
X042569Y009414D01*
X042522Y009386D01*
X042477Y009356D01*
X042433Y009323D01*
X042393Y009287D01*
X042354Y009248D01*
X042319Y009207D01*
X042339Y009227D02*
X042320Y009203D01*
X042304Y009178D01*
X042291Y009150D01*
X042282Y009121D01*
X042277Y009092D01*
X042276Y009061D01*
X042279Y009031D01*
X042285Y009002D01*
X042296Y008973D01*
X042310Y008946D01*
X042327Y008922D01*
X042347Y008899D01*
X042370Y008880D01*
X042396Y008863D01*
X042379Y008877D02*
X042427Y008841D01*
X042478Y008808D01*
X042530Y008778D01*
X042584Y008752D01*
X042640Y008729D01*
X042697Y008709D01*
X042755Y008693D01*
X042814Y008681D01*
X042874Y008673D01*
X042934Y008668D01*
X042994Y008667D01*
X043054Y008670D01*
X043114Y008677D01*
X043174Y008687D01*
X043232Y008701D01*
X043290Y008719D01*
X043346Y008740D01*
X043401Y008765D01*
X043454Y008793D01*
X043506Y008824D01*
X043555Y008859D01*
X044349Y008877D02*
X044397Y008841D01*
X044448Y008808D01*
X044500Y008778D01*
X044554Y008752D01*
X044610Y008729D01*
X044667Y008709D01*
X044725Y008693D01*
X044784Y008681D01*
X044844Y008673D01*
X044904Y008668D01*
X044964Y008667D01*
X045024Y008670D01*
X045084Y008677D01*
X045144Y008687D01*
X045202Y008701D01*
X045260Y008719D01*
X045316Y008740D01*
X045371Y008765D01*
X045424Y008793D01*
X045476Y008824D01*
X045525Y008859D01*
X046256Y008987D02*
X047456Y009237D01*
X047506Y009187D02*
X046306Y008937D01*
X046333Y008863D02*
X046307Y008880D01*
X046284Y008899D01*
X046264Y008922D01*
X046247Y008946D01*
X046233Y008973D01*
X046222Y009002D01*
X046216Y009031D01*
X046213Y009061D01*
X046214Y009092D01*
X046219Y009121D01*
X046228Y009150D01*
X046241Y009178D01*
X046257Y009203D01*
X046276Y009227D01*
X046316Y008877D02*
X046364Y008841D01*
X046415Y008808D01*
X046467Y008778D01*
X046521Y008752D01*
X046577Y008729D01*
X046634Y008709D01*
X046692Y008693D01*
X046751Y008681D01*
X046811Y008673D01*
X046871Y008668D01*
X046931Y008667D01*
X046991Y008670D01*
X047051Y008677D01*
X047111Y008687D01*
X047169Y008701D01*
X047227Y008719D01*
X047283Y008740D01*
X047338Y008765D01*
X047391Y008793D01*
X047443Y008824D01*
X047492Y008859D01*
X047474Y008845D02*
X047496Y008867D01*
X047515Y008890D01*
X047531Y008916D01*
X047544Y008943D01*
X047554Y008972D01*
X047561Y009001D01*
X047565Y009032D01*
X047565Y009062D01*
X047561Y009092D01*
X047554Y009122D01*
X047544Y009150D01*
X047531Y009178D01*
X047515Y009203D01*
X047496Y009227D01*
X048066Y009587D02*
X048066Y008587D01*
X049666Y008587D01*
X049666Y009587D01*
X048066Y009587D01*
X048226Y008987D02*
X049426Y009237D01*
X049476Y009187D02*
X048276Y008937D01*
X048303Y008863D02*
X048277Y008880D01*
X048254Y008899D01*
X048234Y008922D01*
X048217Y008946D01*
X048203Y008973D01*
X048192Y009002D01*
X048186Y009031D01*
X048183Y009061D01*
X048184Y009092D01*
X048189Y009121D01*
X048198Y009150D01*
X048211Y009178D01*
X048227Y009203D01*
X048246Y009227D01*
X048286Y008877D02*
X048334Y008841D01*
X048385Y008808D01*
X048437Y008778D01*
X048491Y008752D01*
X048547Y008729D01*
X048604Y008709D01*
X048662Y008693D01*
X048721Y008681D01*
X048781Y008673D01*
X048841Y008668D01*
X048901Y008667D01*
X048961Y008670D01*
X049021Y008677D01*
X049081Y008687D01*
X049139Y008701D01*
X049197Y008719D01*
X049253Y008740D01*
X049308Y008765D01*
X049361Y008793D01*
X049413Y008824D01*
X049462Y008859D01*
X049444Y008845D02*
X049466Y008867D01*
X049485Y008890D01*
X049501Y008916D01*
X049514Y008943D01*
X049524Y008972D01*
X049531Y009001D01*
X049535Y009032D01*
X049535Y009062D01*
X049531Y009092D01*
X049524Y009122D01*
X049514Y009150D01*
X049501Y009178D01*
X049485Y009203D01*
X049466Y009227D01*
X049886Y009687D02*
X049886Y008487D01*
X049886Y007887D02*
X049886Y007487D01*
X049516Y007487D01*
X049516Y007337D02*
X049666Y007337D01*
X049666Y005537D01*
X049886Y005637D02*
X049886Y007487D01*
X049516Y007037D02*
X049516Y005787D01*
X048216Y005787D01*
X048216Y007037D01*
X047546Y007037D02*
X047546Y005787D01*
X046246Y005787D01*
X046246Y007037D01*
X045949Y007487D02*
X045949Y007887D01*
X046256Y009207D02*
X046291Y009248D01*
X046330Y009287D01*
X046370Y009323D01*
X046414Y009356D01*
X046459Y009386D01*
X046506Y009414D01*
X046555Y009437D01*
X046606Y009458D01*
X046657Y009475D01*
X046710Y009489D01*
X046763Y009499D01*
X046817Y009505D01*
X046872Y009508D01*
X046926Y009507D01*
X046981Y009502D01*
X047034Y009494D01*
X047088Y009483D01*
X047140Y009467D01*
X047191Y009449D01*
X047241Y009426D01*
X047289Y009401D01*
X047335Y009372D01*
X047379Y009341D01*
X047421Y009306D01*
X047461Y009269D01*
X047498Y009229D01*
X048226Y009207D02*
X048261Y009248D01*
X048300Y009287D01*
X048341Y009323D01*
X048384Y009356D01*
X048429Y009386D01*
X048476Y009414D01*
X048525Y009437D01*
X048576Y009458D01*
X048627Y009475D01*
X048680Y009489D01*
X048733Y009499D01*
X048788Y009505D01*
X048842Y009508D01*
X048896Y009507D01*
X048951Y009502D01*
X049004Y009494D01*
X049058Y009483D01*
X049110Y009467D01*
X049161Y009448D01*
X049211Y009426D01*
X049259Y009401D01*
X049305Y009372D01*
X049349Y009341D01*
X049391Y009306D01*
X049431Y009269D01*
X049468Y009229D01*
X046615Y011555D02*
X045615Y011555D01*
X045615Y013155D01*
X046615Y013155D01*
X046615Y011555D01*
X046115Y012105D02*
X046115Y012355D01*
X046365Y012355D01*
X046115Y012355D02*
X045865Y012355D01*
X046115Y012355D02*
X045865Y012755D01*
X046365Y012755D01*
X046115Y012355D01*
X046115Y012955D01*
X045080Y013806D02*
X044630Y013806D01*
X044030Y013706D01*
X044030Y013356D01*
X044030Y012956D02*
X044030Y012456D01*
X044030Y012056D02*
X044030Y011556D01*
X044030Y011156D02*
X044030Y010806D01*
X044630Y010706D01*
X045080Y010706D01*
X041596Y011264D02*
X040396Y011264D01*
X040352Y011266D01*
X040309Y011272D01*
X040267Y011281D01*
X040225Y011294D01*
X040185Y011311D01*
X040146Y011331D01*
X040109Y011354D01*
X040075Y011381D01*
X040042Y011410D01*
X040013Y011443D01*
X039986Y011477D01*
X039963Y011514D01*
X039943Y011553D01*
X039926Y011593D01*
X039913Y011635D01*
X039904Y011677D01*
X039898Y011720D01*
X039896Y011764D01*
X039898Y011808D01*
X039904Y011851D01*
X039913Y011893D01*
X039926Y011935D01*
X039943Y011975D01*
X039963Y012014D01*
X039986Y012051D01*
X040013Y012085D01*
X040042Y012118D01*
X040075Y012147D01*
X040109Y012174D01*
X040146Y012197D01*
X040185Y012217D01*
X040225Y012234D01*
X040267Y012247D01*
X040309Y012256D01*
X040352Y012262D01*
X040396Y012264D01*
X041596Y012264D01*
X041640Y012262D01*
X041683Y012256D01*
X041725Y012247D01*
X041767Y012234D01*
X041807Y012217D01*
X041846Y012197D01*
X041883Y012174D01*
X041917Y012147D01*
X041950Y012118D01*
X041979Y012085D01*
X042006Y012051D01*
X042029Y012014D01*
X042049Y011975D01*
X042066Y011935D01*
X042079Y011893D01*
X042088Y011851D01*
X042094Y011808D01*
X042096Y011764D01*
X042094Y011720D01*
X042088Y011677D01*
X042079Y011635D01*
X042066Y011593D01*
X042049Y011553D01*
X042029Y011514D01*
X042006Y011477D01*
X041979Y011443D01*
X041950Y011410D01*
X041917Y011381D01*
X041883Y011354D01*
X041846Y011331D01*
X041807Y011311D01*
X041767Y011294D01*
X041725Y011281D01*
X041683Y011272D01*
X041640Y011266D01*
X041596Y011264D01*
X041503Y012258D02*
X041457Y012291D01*
X041409Y012321D01*
X041358Y012347D01*
X041306Y012370D01*
X041253Y012390D01*
X041198Y012405D01*
X041142Y012417D01*
X041086Y012425D01*
X041029Y012429D01*
X040972Y012430D01*
X040915Y012426D01*
X040859Y012419D01*
X040803Y012407D01*
X040748Y012392D01*
X040695Y012374D01*
X040642Y012351D01*
X040592Y012326D01*
X040543Y012296D01*
X040496Y012264D01*
X040489Y011270D02*
X040535Y011237D01*
X040583Y011207D01*
X040634Y011181D01*
X040686Y011158D01*
X040739Y011138D01*
X040794Y011123D01*
X040850Y011111D01*
X040906Y011103D01*
X040963Y011099D01*
X041020Y011098D01*
X041077Y011102D01*
X041133Y011109D01*
X041189Y011121D01*
X041244Y011136D01*
X041297Y011154D01*
X041350Y011177D01*
X041400Y011202D01*
X041449Y011232D01*
X041496Y011264D01*
X040192Y005537D02*
X040192Y004787D01*
X039822Y004787D02*
X039822Y005537D01*
X043759Y005537D02*
X043759Y004787D01*
X044129Y004787D02*
X044129Y005537D01*
X045949Y005637D02*
X046149Y005737D01*
X046149Y005087D01*
X045949Y005187D01*
X045886Y004787D02*
X046096Y004787D01*
X047696Y004787D02*
X047696Y005537D01*
X048066Y005537D02*
X048066Y004787D01*
X049666Y004787D02*
X049886Y004787D01*
X049886Y005187D01*
X049886Y005637D01*
X050086Y005737D01*
X050086Y005087D01*
X049886Y005187D01*
X049042Y016193D02*
X047542Y016193D01*
X047292Y016443D01*
X047292Y016943D01*
X047542Y017193D01*
X047292Y017443D01*
X047292Y017943D01*
X047542Y018193D01*
X047292Y018443D01*
X047292Y018943D01*
X047542Y019193D01*
X047292Y019443D01*
X047292Y019943D01*
X047542Y020193D01*
X047292Y020443D01*
X047292Y020943D01*
X047542Y021193D01*
X047292Y021443D01*
X047292Y021943D01*
X047542Y022193D01*
X047292Y022443D01*
X047292Y022943D01*
X047542Y023193D01*
X047292Y023443D01*
X047292Y023943D01*
X047542Y024193D01*
X047292Y024443D01*
X047292Y024943D01*
X047542Y025193D01*
X047292Y025443D01*
X047292Y025943D01*
X047542Y026193D01*
X047292Y026443D01*
X047292Y026943D01*
X047542Y027193D01*
X047292Y027443D01*
X047292Y027943D01*
X047542Y028193D01*
X047292Y028443D01*
X047292Y028943D01*
X047542Y029193D01*
X047292Y029443D01*
X047292Y029943D01*
X047542Y030193D01*
X047292Y030443D01*
X047292Y030943D01*
X047542Y031193D01*
X047292Y031443D01*
X047292Y031943D01*
X047542Y032193D01*
X047292Y032443D01*
X047292Y032943D01*
X047542Y033193D01*
X047292Y033443D01*
X047292Y033943D01*
X047542Y034193D01*
X047292Y034443D01*
X047292Y034943D01*
X047542Y035193D01*
X047292Y035443D01*
X047292Y035943D01*
X047542Y036193D01*
X049042Y036193D01*
X049292Y035943D01*
X049292Y035443D01*
X049042Y035193D01*
X049292Y034943D01*
X049292Y034443D01*
X049042Y034193D01*
X049292Y033943D01*
X049292Y033443D01*
X049042Y033193D01*
X049292Y032943D01*
X049292Y032443D01*
X049042Y032193D01*
X049292Y031943D01*
X049292Y031443D01*
X049042Y031193D01*
X049292Y030943D01*
X049292Y030443D01*
X049042Y030193D01*
X049292Y029943D01*
X049292Y029443D01*
X049042Y029193D01*
X049292Y028943D01*
X049292Y028443D01*
X049042Y028193D01*
X049292Y027943D01*
X049292Y027443D01*
X049042Y027193D01*
X049292Y026943D01*
X049292Y026443D01*
X049042Y026193D01*
X049292Y025943D01*
X049292Y025443D01*
X049042Y025193D01*
X049292Y024943D01*
X049292Y024443D01*
X049042Y024193D01*
X049292Y023943D01*
X049292Y023443D01*
X049042Y023193D01*
X049292Y022943D01*
X049292Y022443D01*
X049042Y022193D01*
X049292Y021943D01*
X049292Y021443D01*
X049042Y021193D01*
X049292Y020943D01*
X049292Y020443D01*
X049042Y020193D01*
X049292Y019943D01*
X049292Y019443D01*
X049042Y019193D01*
X049292Y018943D01*
X049292Y018443D01*
X049042Y018193D01*
X049292Y017943D01*
X049292Y017443D01*
X049042Y017193D01*
X049292Y016943D01*
X049292Y016443D01*
X049042Y016193D01*
X042319Y020507D02*
X042146Y020507D01*
X042233Y020507D02*
X042233Y020767D01*
X042146Y020681D01*
X042025Y020767D02*
X042025Y020551D01*
X041981Y020507D01*
X041895Y020507D01*
X041851Y020551D01*
X041851Y020767D01*
X041940Y021666D02*
X040840Y021666D01*
X040840Y021816D01*
X041940Y021816D01*
X041990Y021816D01*
X041990Y024816D01*
X041988Y024833D01*
X041984Y024850D01*
X041977Y024866D01*
X041967Y024880D01*
X041954Y024893D01*
X041940Y024903D01*
X041924Y024910D01*
X041907Y024914D01*
X041890Y024916D01*
X040890Y024916D01*
X040873Y024914D01*
X040856Y024910D01*
X040840Y024903D01*
X040826Y024893D01*
X040813Y024880D01*
X040803Y024866D01*
X040796Y024850D01*
X040792Y024833D01*
X040790Y024816D01*
X040790Y021816D01*
X040840Y021816D01*
X041390Y022716D02*
X041390Y022916D01*
X041690Y022916D01*
X041690Y023066D02*
X041690Y023216D01*
X041090Y023216D01*
X041090Y023066D01*
X041690Y023066D01*
X041690Y023366D02*
X041390Y023366D01*
X041390Y023566D01*
X041390Y023366D02*
X041090Y023366D01*
X041090Y022916D02*
X041390Y022916D01*
X041940Y021816D02*
X041940Y021666D01*
X038713Y035994D02*
X035013Y035994D01*
X034990Y035996D01*
X034967Y036001D01*
X034945Y036010D01*
X034925Y036023D01*
X034907Y036038D01*
X034892Y036056D01*
X034879Y036076D01*
X034870Y036098D01*
X034865Y036121D01*
X034863Y036144D01*
X034863Y036564D01*
X034863Y036964D01*
X034863Y037384D01*
X034865Y037407D01*
X034870Y037430D01*
X034879Y037452D01*
X034892Y037472D01*
X034907Y037490D01*
X034925Y037505D01*
X034945Y037518D01*
X034967Y037527D01*
X034990Y037532D01*
X035013Y037534D01*
X038713Y037534D01*
X038736Y037532D01*
X038759Y037527D01*
X038781Y037518D01*
X038801Y037505D01*
X038819Y037490D01*
X038834Y037472D01*
X038847Y037452D01*
X038856Y037430D01*
X038861Y037407D01*
X038863Y037384D01*
X038863Y036144D01*
X038861Y036121D01*
X038856Y036098D01*
X038847Y036076D01*
X038834Y036056D01*
X038819Y036038D01*
X038801Y036023D01*
X038781Y036010D01*
X038759Y036001D01*
X038736Y035996D01*
X038713Y035994D01*
X034863Y036564D02*
X034890Y036566D01*
X034917Y036571D01*
X034943Y036581D01*
X034967Y036593D01*
X034989Y036609D01*
X035009Y036627D01*
X035026Y036649D01*
X035041Y036672D01*
X035051Y036697D01*
X035059Y036723D01*
X035063Y036750D01*
X035063Y036778D01*
X035059Y036805D01*
X035051Y036831D01*
X035041Y036856D01*
X035026Y036879D01*
X035009Y036901D01*
X034989Y036919D01*
X034967Y036935D01*
X034943Y036947D01*
X034917Y036957D01*
X034890Y036962D01*
X034863Y036964D01*
X032633Y038622D02*
X032590Y038579D01*
X032633Y038622D02*
X032633Y038709D01*
X032590Y038752D01*
X032546Y038752D01*
X032503Y038709D01*
X032503Y038622D01*
X032459Y038579D01*
X032416Y038579D01*
X032373Y038622D01*
X032373Y038709D01*
X032416Y038752D01*
X032590Y038873D02*
X032633Y038917D01*
X032633Y038960D01*
X032590Y039003D01*
X032373Y039003D01*
X032373Y038960D02*
X032373Y039047D01*
X032459Y039168D02*
X032373Y039255D01*
X032633Y039255D01*
X032633Y039168D02*
X032633Y039342D01*
X030288Y042020D02*
X027296Y042020D01*
X027296Y048831D01*
X030288Y048831D01*
X030288Y042020D01*
X026941Y042020D02*
X023949Y042020D01*
X023949Y048831D01*
X026941Y048831D01*
X026941Y042020D01*
X023595Y042020D02*
X020603Y042020D01*
X020603Y048831D01*
X023595Y048831D01*
X023595Y042020D01*
X018107Y048161D02*
X018107Y049580D01*
X016248Y049580D02*
X016248Y048161D01*
X024493Y054905D02*
X025907Y056319D01*
X026685Y055541D02*
X026967Y055259D01*
X026685Y055259D02*
X026967Y055541D01*
X025906Y056320D02*
X025998Y056340D01*
X026090Y056355D01*
X026183Y056365D01*
X026277Y056371D01*
X026371Y056373D01*
X026464Y056370D01*
X026558Y056362D01*
X026650Y056350D01*
X026742Y056333D01*
X026834Y056312D01*
X026924Y056286D01*
X027012Y056256D01*
X027100Y056222D01*
X027185Y056183D01*
X027268Y056141D01*
X027349Y056094D01*
X027428Y056043D01*
X027504Y055989D01*
X027578Y055931D01*
X027648Y055869D01*
X027716Y055804D01*
X027780Y055736D01*
X027841Y055665D01*
X027898Y055591D01*
X027952Y055514D01*
X028001Y055434D01*
X028047Y055353D01*
X028089Y055269D01*
X028126Y055183D01*
X028160Y055096D01*
X028189Y055007D01*
X028213Y054916D01*
X028234Y054825D01*
X028249Y054732D01*
X028260Y054640D01*
X028267Y054546D01*
X028269Y054452D01*
X028266Y054359D01*
X028259Y054265D01*
X028248Y054173D01*
X028231Y054080D01*
X028211Y053989D01*
X028186Y053899D01*
X028156Y053810D01*
X028122Y053723D01*
X028084Y053637D01*
X028042Y053553D01*
X027996Y053472D01*
X027945Y053393D01*
X027892Y053316D01*
X027834Y053243D01*
X027773Y053172D01*
X027708Y053104D01*
X027640Y053039D01*
X027569Y052978D01*
X027496Y052920D01*
X027419Y052867D01*
X027340Y052816D01*
X027259Y052770D01*
X027175Y052728D01*
X027089Y052690D01*
X027002Y052656D01*
X026913Y052626D01*
X026823Y052601D01*
X026732Y052581D01*
X026639Y052564D01*
X026547Y052553D01*
X026453Y052546D01*
X026360Y052543D01*
X026266Y052545D01*
X026172Y052552D01*
X026080Y052563D01*
X025987Y052578D01*
X025896Y052599D01*
X025805Y052623D01*
X025716Y052652D01*
X025629Y052686D01*
X025543Y052723D01*
X025459Y052765D01*
X025378Y052811D01*
X025298Y052860D01*
X025221Y052914D01*
X025147Y052971D01*
X025076Y053032D01*
X025008Y053096D01*
X024943Y053164D01*
X024881Y053234D01*
X024823Y053308D01*
X024769Y053384D01*
X024718Y053463D01*
X024671Y053544D01*
X024629Y053627D01*
X024590Y053712D01*
X024556Y053800D01*
X024526Y053888D01*
X024500Y053978D01*
X024479Y054070D01*
X024462Y054162D01*
X024450Y054254D01*
X024442Y054348D01*
X024439Y054441D01*
X024441Y054535D01*
X024447Y054629D01*
X024457Y054722D01*
X024472Y054814D01*
X024492Y054906D01*
X025695Y053703D02*
X025978Y053420D01*
X025545Y051334D02*
X025588Y051291D01*
X025588Y051247D01*
X025545Y051204D01*
X025588Y051160D01*
X025588Y051117D01*
X025545Y051074D01*
X025458Y051074D01*
X025415Y051117D01*
X025501Y051204D02*
X025545Y051204D01*
X025545Y051334D02*
X025458Y051334D01*
X025415Y051291D01*
X025293Y051334D02*
X025207Y051334D01*
X025250Y051334D02*
X025250Y051117D01*
X025207Y051074D01*
X025163Y051074D01*
X025120Y051117D01*
X024999Y051117D02*
X024955Y051074D01*
X024869Y051074D01*
X024825Y051117D01*
X024869Y051204D02*
X024955Y051204D01*
X024999Y051160D01*
X024999Y051117D01*
X024869Y051204D02*
X024825Y051247D01*
X024825Y051291D01*
X024869Y051334D01*
X024955Y051334D01*
X024999Y051291D01*
X027881Y057040D02*
X027883Y057120D01*
X027889Y057199D01*
X027899Y057278D01*
X027913Y057357D01*
X027930Y057435D01*
X027952Y057512D01*
X027977Y057587D01*
X028007Y057661D01*
X028039Y057734D01*
X028076Y057805D01*
X028116Y057874D01*
X028159Y057941D01*
X028206Y058006D01*
X028255Y058068D01*
X028308Y058128D01*
X028364Y058185D01*
X028422Y058240D01*
X028483Y058291D01*
X028547Y058339D01*
X028613Y058384D01*
X028681Y058426D01*
X028751Y058464D01*
X028823Y058498D01*
X028896Y058529D01*
X028971Y058557D01*
X029048Y058580D01*
X029125Y058600D01*
X029203Y058616D01*
X029282Y058628D01*
X029361Y058636D01*
X029441Y058640D01*
X029521Y058640D01*
X029601Y058636D01*
X029680Y058628D01*
X029759Y058616D01*
X029837Y058600D01*
X029914Y058580D01*
X029991Y058557D01*
X030066Y058529D01*
X030139Y058498D01*
X030211Y058464D01*
X030281Y058426D01*
X030349Y058384D01*
X030415Y058339D01*
X030479Y058291D01*
X030540Y058240D01*
X030598Y058185D01*
X030654Y058128D01*
X030707Y058068D01*
X030756Y058006D01*
X030803Y057941D01*
X030846Y057874D01*
X030886Y057805D01*
X030923Y057734D01*
X030955Y057661D01*
X030985Y057587D01*
X031010Y057512D01*
X031032Y057435D01*
X031049Y057357D01*
X031063Y057278D01*
X031073Y057199D01*
X031079Y057120D01*
X031081Y057040D01*
X031079Y056960D01*
X031073Y056881D01*
X031063Y056802D01*
X031049Y056723D01*
X031032Y056645D01*
X031010Y056568D01*
X030985Y056493D01*
X030955Y056419D01*
X030923Y056346D01*
X030886Y056275D01*
X030846Y056206D01*
X030803Y056139D01*
X030756Y056074D01*
X030707Y056012D01*
X030654Y055952D01*
X030598Y055895D01*
X030540Y055840D01*
X030479Y055789D01*
X030415Y055741D01*
X030349Y055696D01*
X030281Y055654D01*
X030211Y055616D01*
X030139Y055582D01*
X030066Y055551D01*
X029991Y055523D01*
X029914Y055500D01*
X029837Y055480D01*
X029759Y055464D01*
X029680Y055452D01*
X029601Y055444D01*
X029521Y055440D01*
X029441Y055440D01*
X029361Y055444D01*
X029282Y055452D01*
X029203Y055464D01*
X029125Y055480D01*
X029048Y055500D01*
X028971Y055523D01*
X028896Y055551D01*
X028823Y055582D01*
X028751Y055616D01*
X028681Y055654D01*
X028613Y055696D01*
X028547Y055741D01*
X028483Y055789D01*
X028422Y055840D01*
X028364Y055895D01*
X028308Y055952D01*
X028255Y056012D01*
X028206Y056074D01*
X028159Y056139D01*
X028116Y056206D01*
X028076Y056275D01*
X028039Y056346D01*
X028007Y056419D01*
X027977Y056493D01*
X027952Y056568D01*
X027930Y056645D01*
X027913Y056723D01*
X027899Y056802D01*
X027889Y056881D01*
X027883Y056960D01*
X027881Y057040D01*
X029781Y058240D02*
X030081Y058240D01*
X029931Y058390D02*
X029931Y058090D01*
X031781Y055821D02*
X031737Y055778D01*
X031737Y055734D01*
X031781Y055691D01*
X031867Y055691D01*
X031911Y055648D01*
X031911Y055604D01*
X031867Y055561D01*
X031781Y055561D01*
X031737Y055604D01*
X031781Y055821D02*
X031867Y055821D01*
X031911Y055778D01*
X032032Y055604D02*
X032075Y055561D01*
X032119Y055561D01*
X032162Y055604D01*
X032162Y055821D01*
X032119Y055821D02*
X032206Y055821D01*
X032327Y055691D02*
X032457Y055691D01*
X032500Y055648D01*
X032500Y055604D01*
X032457Y055561D01*
X032370Y055561D01*
X032327Y055604D01*
X032327Y055691D01*
X032413Y055778D01*
X032500Y055821D01*
X032815Y057229D02*
X032815Y058229D01*
X034415Y058229D01*
X034415Y057229D01*
X032815Y057229D01*
X033365Y057729D02*
X033615Y057729D01*
X033615Y057979D01*
X033715Y057979D01*
X033615Y057729D02*
X033615Y057479D01*
X033615Y057729D02*
X034015Y057979D01*
X034015Y057479D01*
X033615Y057729D01*
X034215Y057729D01*
X046985Y053467D02*
X046985Y052967D01*
X047235Y052717D01*
X046985Y052467D01*
X046985Y051967D01*
X047235Y051717D01*
X046985Y051467D01*
X046985Y050967D01*
X047235Y050717D01*
X048735Y050717D01*
X048985Y050967D01*
X048985Y051467D01*
X048735Y051717D01*
X048985Y051967D01*
X048985Y052467D01*
X048735Y052717D01*
X048985Y052967D01*
X048985Y053467D01*
X048735Y053717D01*
X047235Y053717D01*
X046985Y053467D01*
X028696Y031664D02*
X028696Y031491D01*
X028522Y031664D01*
X028479Y031664D01*
X028436Y031621D01*
X028436Y031534D01*
X028479Y031491D01*
X028436Y031370D02*
X028436Y031283D01*
X028436Y031326D02*
X028653Y031326D01*
X028696Y031283D01*
X028696Y031240D01*
X028653Y031196D01*
X028653Y031075D02*
X028696Y031032D01*
X028696Y030945D01*
X028653Y030902D01*
X028566Y030945D02*
X028566Y031032D01*
X028609Y031075D01*
X028653Y031075D01*
X028566Y030945D02*
X028522Y030902D01*
X028479Y030902D01*
X028436Y030945D01*
X028436Y031032D01*
X028479Y031075D01*
X028436Y023003D02*
X028436Y022829D01*
X028566Y022829D01*
X028522Y022916D01*
X028522Y022960D01*
X028566Y023003D01*
X028653Y023003D01*
X028696Y022960D01*
X028696Y022873D01*
X028653Y022829D01*
X028653Y022665D02*
X028436Y022665D01*
X028436Y022622D02*
X028436Y022708D01*
X028653Y022665D02*
X028696Y022622D01*
X028696Y022578D01*
X028653Y022535D01*
X028653Y022414D02*
X028696Y022370D01*
X028696Y022284D01*
X028653Y022240D01*
X028566Y022284D02*
X028566Y022370D01*
X028609Y022414D01*
X028653Y022414D01*
X028566Y022284D02*
X028522Y022240D01*
X028479Y022240D01*
X028436Y022284D01*
X028436Y022370D01*
X028479Y022414D01*
X028566Y014342D02*
X028566Y014168D01*
X028436Y014298D01*
X028696Y014298D01*
X028653Y014003D02*
X028436Y014003D01*
X028436Y013960D02*
X028436Y014047D01*
X028653Y014003D02*
X028696Y013960D01*
X028696Y013917D01*
X028653Y013873D01*
X028653Y013752D02*
X028696Y013709D01*
X028696Y013622D01*
X028653Y013579D01*
X028566Y013622D02*
X028566Y013709D01*
X028609Y013752D01*
X028653Y013752D01*
X028566Y013622D02*
X028522Y013579D01*
X028479Y013579D01*
X028436Y013622D01*
X028436Y013709D01*
X028479Y013752D01*
D13*
X021690Y006247D02*
X021767Y006170D01*
X021460Y005863D01*
X021537Y005787D01*
X021690Y005787D01*
X021767Y005863D01*
X021767Y006170D01*
X021690Y006247D02*
X021537Y006247D01*
X021460Y006170D01*
X021460Y005863D01*
X021307Y005787D02*
X021000Y005787D01*
X021307Y006093D01*
X021307Y006170D01*
X021230Y006247D01*
X021076Y006247D01*
X021000Y006170D01*
X020846Y006170D02*
X020846Y006017D01*
X020769Y005940D01*
X020539Y005940D01*
X020539Y005787D02*
X020539Y006247D01*
X020769Y006247D01*
X020846Y006170D01*
X020693Y005940D02*
X020846Y005787D01*
X020769Y005460D02*
X020846Y005383D01*
X020846Y005229D01*
X020769Y005153D01*
X020539Y005153D01*
X020693Y005153D02*
X020846Y004999D01*
X021000Y004999D02*
X021307Y005306D01*
X021307Y005383D01*
X021230Y005460D01*
X021076Y005460D01*
X021000Y005383D01*
X020769Y005460D02*
X020539Y005460D01*
X020539Y004999D01*
X021000Y004999D02*
X021307Y004999D01*
X021460Y004999D02*
X021767Y004999D01*
X021614Y004999D02*
X021614Y005460D01*
X021460Y005306D01*
X018483Y004333D02*
X018176Y004333D01*
X018330Y004333D02*
X018330Y004794D01*
X018176Y004640D01*
X018023Y004794D02*
X017716Y004794D01*
X017869Y004794D02*
X017869Y004333D01*
X015478Y004299D02*
X015018Y004299D01*
X015018Y004529D01*
X015094Y004606D01*
X015248Y004606D01*
X015325Y004529D01*
X015325Y004299D01*
X015325Y004453D02*
X015478Y004606D01*
X015478Y004760D02*
X015171Y005066D01*
X015094Y005066D01*
X015018Y004990D01*
X015018Y004836D01*
X015094Y004760D01*
X015478Y004760D02*
X015478Y005066D01*
X015478Y005220D02*
X015171Y005527D01*
X015094Y005527D01*
X015018Y005450D01*
X015018Y005297D01*
X015094Y005220D01*
X015478Y005220D02*
X015478Y005527D01*
X009601Y013556D02*
X009217Y013556D01*
X009217Y013863D02*
X009601Y013863D01*
X009677Y013786D01*
X009677Y013633D01*
X009601Y013556D01*
X009601Y014016D02*
X009677Y014093D01*
X009677Y014246D01*
X009601Y014323D01*
X009524Y014323D01*
X009447Y014246D01*
X009447Y014093D01*
X009370Y014016D01*
X009294Y014016D01*
X009217Y014093D01*
X009217Y014246D01*
X009294Y014323D01*
X009217Y014477D02*
X009447Y014477D01*
X009370Y014630D01*
X009370Y014707D01*
X009447Y014784D01*
X009601Y014784D01*
X009677Y014707D01*
X009677Y014553D01*
X009601Y014477D01*
X009754Y014170D02*
X009140Y014170D01*
X009217Y014477D02*
X009217Y014784D01*
X006708Y013989D02*
X006401Y013989D01*
X006631Y014219D01*
X006631Y013759D01*
X006248Y013759D02*
X005941Y013759D01*
X006094Y013759D02*
X006094Y014219D01*
X005941Y014066D01*
X005787Y014143D02*
X005787Y013989D01*
X005710Y013912D01*
X005480Y013912D01*
X005480Y013759D02*
X005480Y014219D01*
X005710Y014219D01*
X005787Y014143D01*
X005634Y013912D02*
X005787Y013759D01*
X005787Y015924D02*
X005634Y016078D01*
X005710Y016078D02*
X005480Y016078D01*
X005480Y015924D02*
X005480Y016385D01*
X005710Y016385D01*
X005787Y016308D01*
X005787Y016155D01*
X005710Y016078D01*
X005941Y016231D02*
X006094Y016385D01*
X006094Y015924D01*
X005941Y015924D02*
X006248Y015924D01*
X006401Y016001D02*
X006478Y015924D01*
X006631Y015924D01*
X006708Y016001D01*
X006708Y016155D01*
X006631Y016231D01*
X006554Y016231D01*
X006401Y016155D01*
X006401Y016385D01*
X006708Y016385D01*
X006858Y018483D02*
X006858Y018944D01*
X007088Y018944D01*
X007165Y018867D01*
X007165Y018714D01*
X007088Y018637D01*
X006858Y018637D01*
X007012Y018637D02*
X007165Y018483D01*
X007319Y018483D02*
X007626Y018483D01*
X007472Y018483D02*
X007472Y018944D01*
X007319Y018790D01*
X007779Y018714D02*
X008009Y018714D01*
X008086Y018637D01*
X008086Y018560D01*
X008009Y018483D01*
X007856Y018483D01*
X007779Y018560D01*
X007779Y018714D01*
X007932Y018867D01*
X008086Y018944D01*
X007779Y019271D02*
X007779Y019348D01*
X008086Y019654D01*
X008086Y019731D01*
X007779Y019731D01*
X007472Y019731D02*
X007472Y019271D01*
X007319Y019271D02*
X007626Y019271D01*
X007319Y019578D02*
X007472Y019731D01*
X007165Y019654D02*
X007165Y019501D01*
X007088Y019424D01*
X006858Y019424D01*
X006858Y019271D02*
X006858Y019731D01*
X007088Y019731D01*
X007165Y019654D01*
X007012Y019424D02*
X007165Y019271D01*
X009217Y021824D02*
X009601Y021824D01*
X009677Y021900D01*
X009677Y022054D01*
X009601Y022130D01*
X009217Y022130D01*
X009294Y022284D02*
X009217Y022361D01*
X009217Y022514D01*
X009294Y022591D01*
X009447Y022514D02*
X009447Y022361D01*
X009370Y022284D01*
X009294Y022284D01*
X009140Y022437D02*
X009754Y022437D01*
X009677Y022361D02*
X009677Y022514D01*
X009601Y022591D01*
X009524Y022591D01*
X009447Y022514D01*
X009370Y022744D02*
X009217Y022898D01*
X009677Y022898D01*
X009677Y023051D02*
X009677Y022744D01*
X009677Y022361D02*
X009601Y022284D01*
X009601Y023205D02*
X009294Y023512D01*
X009601Y023512D01*
X009677Y023435D01*
X009677Y023281D01*
X009601Y023205D01*
X009294Y023205D01*
X009217Y023281D01*
X009217Y023435D01*
X009294Y023512D01*
X008086Y023438D02*
X007856Y023438D01*
X007779Y023515D01*
X007779Y023591D01*
X007856Y023668D01*
X008009Y023668D01*
X008086Y023591D01*
X008086Y023285D01*
X008009Y023208D01*
X007856Y023208D01*
X007779Y023285D01*
X007626Y023208D02*
X007319Y023208D01*
X007626Y023515D01*
X007626Y023591D01*
X007549Y023668D01*
X007395Y023668D01*
X007319Y023591D01*
X007165Y023591D02*
X007165Y023438D01*
X007088Y023361D01*
X006858Y023361D01*
X006858Y023208D02*
X006858Y023668D01*
X007088Y023668D01*
X007165Y023591D01*
X007012Y023361D02*
X007165Y023208D01*
X007088Y022881D02*
X007165Y022804D01*
X007165Y022651D01*
X007088Y022574D01*
X006858Y022574D01*
X006858Y022420D02*
X006858Y022881D01*
X007088Y022881D01*
X007319Y022804D02*
X007395Y022881D01*
X007549Y022881D01*
X007626Y022804D01*
X007626Y022727D01*
X007319Y022420D01*
X007626Y022420D01*
X007779Y022497D02*
X007779Y022574D01*
X007856Y022651D01*
X008009Y022651D01*
X008086Y022574D01*
X008086Y022497D01*
X008009Y022420D01*
X007856Y022420D01*
X007779Y022497D01*
X007856Y022651D02*
X007779Y022727D01*
X007779Y022804D01*
X007856Y022881D01*
X008009Y022881D01*
X008086Y022804D01*
X008086Y022727D01*
X008009Y022651D01*
X007165Y022420D02*
X007012Y022574D01*
X007165Y026357D02*
X007012Y026511D01*
X007088Y026511D02*
X006858Y026511D01*
X006858Y026357D02*
X006858Y026818D01*
X007088Y026818D01*
X007165Y026741D01*
X007165Y026588D01*
X007088Y026511D01*
X007319Y026357D02*
X007626Y026664D01*
X007626Y026741D01*
X007549Y026818D01*
X007395Y026818D01*
X007319Y026741D01*
X007319Y026357D02*
X007626Y026357D01*
X007549Y027145D02*
X007395Y027145D01*
X007319Y027222D01*
X007165Y027145D02*
X007012Y027298D01*
X007088Y027298D02*
X006858Y027298D01*
X006858Y027145D02*
X006858Y027605D01*
X007088Y027605D01*
X007165Y027528D01*
X007165Y027375D01*
X007088Y027298D01*
X007319Y027528D02*
X007395Y027605D01*
X007549Y027605D01*
X007626Y027528D01*
X007626Y027452D01*
X007549Y027375D01*
X007626Y027298D01*
X007626Y027222D01*
X007549Y027145D01*
X007549Y027375D02*
X007472Y027375D01*
X007549Y030294D02*
X007549Y030755D01*
X007319Y030525D01*
X007626Y030525D01*
X007165Y030525D02*
X007088Y030448D01*
X006858Y030448D01*
X006858Y030294D02*
X006858Y030755D01*
X007088Y030755D01*
X007165Y030678D01*
X007165Y030525D01*
X007012Y030448D02*
X007165Y030294D01*
X007165Y031082D02*
X007012Y031235D01*
X007088Y031235D02*
X006858Y031235D01*
X006858Y031082D02*
X006858Y031542D01*
X007088Y031542D01*
X007165Y031465D01*
X007165Y031312D01*
X007088Y031235D01*
X007319Y031159D02*
X007395Y031082D01*
X007549Y031082D01*
X007626Y031159D01*
X007626Y031235D01*
X007549Y031312D01*
X007472Y031312D01*
X007549Y031312D02*
X007626Y031389D01*
X007626Y031465D01*
X007549Y031542D01*
X007395Y031542D01*
X007319Y031465D01*
X007779Y031312D02*
X008086Y031312D01*
X008009Y031082D02*
X008009Y031542D01*
X007779Y031312D01*
X009140Y031493D02*
X009754Y031493D01*
X009677Y031569D02*
X009601Y031646D01*
X009524Y031646D01*
X009447Y031569D01*
X009447Y031416D01*
X009370Y031339D01*
X009294Y031339D01*
X009217Y031416D01*
X009217Y031569D01*
X009294Y031646D01*
X009447Y031799D02*
X009447Y032030D01*
X009524Y032106D01*
X009601Y032106D01*
X009677Y032030D01*
X009677Y031876D01*
X009601Y031799D01*
X009447Y031799D01*
X009294Y031953D01*
X009217Y032106D01*
X009677Y031569D02*
X009677Y031416D01*
X009601Y031339D01*
X009601Y031186D02*
X009217Y031186D01*
X009217Y030879D02*
X009601Y030879D01*
X009677Y030955D01*
X009677Y031109D01*
X009601Y031186D01*
X008086Y034231D02*
X007779Y034231D01*
X008086Y034538D01*
X008086Y034615D01*
X008009Y034692D01*
X007856Y034692D01*
X007779Y034615D01*
X007472Y034692D02*
X007472Y034231D01*
X007319Y034231D02*
X007626Y034231D01*
X007319Y034538D02*
X007472Y034692D01*
X007165Y034615D02*
X007165Y034462D01*
X007088Y034385D01*
X006858Y034385D01*
X006858Y034231D02*
X006858Y034692D01*
X007088Y034692D01*
X007165Y034615D01*
X007012Y034385D02*
X007165Y034231D01*
X007165Y035019D02*
X007012Y035172D01*
X007088Y035172D02*
X006858Y035172D01*
X006858Y035019D02*
X006858Y035479D01*
X007088Y035479D01*
X007165Y035402D01*
X007165Y035249D01*
X007088Y035172D01*
X007319Y035019D02*
X007626Y035019D01*
X007472Y035019D02*
X007472Y035479D01*
X007319Y035326D01*
X007779Y035402D02*
X007856Y035479D01*
X008009Y035479D01*
X008086Y035402D01*
X008086Y035326D01*
X008009Y035249D01*
X008086Y035172D01*
X008086Y035096D01*
X008009Y035019D01*
X007856Y035019D01*
X007779Y035096D01*
X007932Y035249D02*
X008009Y035249D01*
X008009Y040137D02*
X007856Y040137D01*
X007779Y040214D01*
X008086Y040521D01*
X008086Y040214D01*
X008009Y040137D01*
X007779Y040214D02*
X007779Y040521D01*
X007856Y040597D01*
X008009Y040597D01*
X008086Y040521D01*
X008086Y040924D02*
X007779Y040924D01*
X007932Y040924D02*
X007932Y041385D01*
X007779Y041231D01*
X007626Y040924D02*
X007319Y040924D01*
X007472Y040924D02*
X007472Y041385D01*
X007319Y041231D01*
X007165Y041155D02*
X007088Y041078D01*
X006858Y041078D01*
X007012Y041078D02*
X007165Y040924D01*
X007165Y041155D02*
X007165Y041308D01*
X007088Y041385D01*
X006858Y041385D01*
X006858Y040924D01*
X006858Y040597D02*
X007088Y040597D01*
X007165Y040521D01*
X007165Y040367D01*
X007088Y040290D01*
X006858Y040290D01*
X006858Y040137D02*
X006858Y040597D01*
X007012Y040290D02*
X007165Y040137D01*
X007319Y040137D02*
X007626Y040137D01*
X007472Y040137D02*
X007472Y040597D01*
X007319Y040444D01*
X013195Y040134D02*
X013809Y040134D01*
X013732Y040058D02*
X013732Y040211D01*
X013656Y040288D01*
X013579Y040288D01*
X013502Y040211D01*
X013502Y040058D01*
X013425Y039981D01*
X013349Y039981D01*
X013272Y040058D01*
X013272Y040211D01*
X013349Y040288D01*
X013349Y040441D02*
X013272Y040518D01*
X013272Y040671D01*
X013349Y040748D01*
X013425Y040748D01*
X013502Y040671D01*
X013579Y040748D01*
X013656Y040748D01*
X013732Y040671D01*
X013732Y040518D01*
X013656Y040441D01*
X013502Y040595D02*
X013502Y040671D01*
X013732Y040058D02*
X013656Y039981D01*
X013656Y039827D02*
X013272Y039827D01*
X013272Y039520D02*
X013656Y039520D01*
X013732Y039597D01*
X013732Y039751D01*
X013656Y039827D01*
X014239Y049997D02*
X014119Y050118D01*
X013939Y050118D01*
X014119Y050118D02*
X014239Y050238D01*
X014299Y050238D01*
X014299Y049997D02*
X014239Y049997D01*
X013939Y050366D02*
X013939Y050606D01*
X014299Y050606D01*
X014239Y050734D02*
X014119Y050734D01*
X014059Y050794D01*
X014059Y050974D01*
X013939Y050974D02*
X014299Y050974D01*
X014299Y050794D01*
X014239Y050734D01*
X014239Y051102D02*
X014299Y051162D01*
X014299Y051283D01*
X014239Y051343D01*
X014179Y051343D01*
X014119Y051283D01*
X014119Y051162D01*
X014059Y051102D01*
X013999Y051102D01*
X013939Y051162D01*
X013939Y051283D01*
X013999Y051343D01*
X013939Y051471D02*
X014059Y051591D01*
X014059Y051531D02*
X014059Y051711D01*
X013939Y051711D02*
X014299Y051711D01*
X014299Y051531D01*
X014239Y051471D01*
X014119Y051471D01*
X014059Y051531D01*
X013939Y051839D02*
X014299Y051839D01*
X014299Y052079D02*
X013939Y052079D01*
X014059Y051959D01*
X013939Y051839D01*
X014119Y052207D02*
X014059Y052267D01*
X014059Y052448D01*
X013939Y052448D02*
X014299Y052448D01*
X014299Y052267D01*
X014239Y052207D01*
X014119Y052207D01*
X014059Y052576D02*
X014299Y052576D01*
X014299Y052816D02*
X014059Y052816D01*
X013939Y052696D01*
X014059Y052576D01*
X016607Y058501D02*
X016607Y058961D01*
X016760Y058961D02*
X016453Y058961D01*
X016914Y058961D02*
X016914Y058654D01*
X017067Y058501D01*
X017221Y058654D01*
X017221Y058961D01*
X017374Y058808D02*
X017528Y058961D01*
X017528Y058501D01*
X017681Y058501D02*
X017374Y058501D01*
X017835Y058577D02*
X017911Y058501D01*
X018065Y058501D01*
X018142Y058577D01*
X018142Y058654D01*
X018065Y058731D01*
X017835Y058731D01*
X017835Y058577D01*
X017835Y058731D02*
X017988Y058884D01*
X018142Y058961D01*
X031475Y054571D02*
X031552Y054647D01*
X031859Y054340D01*
X031936Y054417D01*
X031936Y054571D01*
X031859Y054647D01*
X031552Y054647D01*
X031475Y054571D02*
X031475Y054417D01*
X031552Y054340D01*
X031859Y054340D01*
X031859Y054187D02*
X031936Y054110D01*
X031936Y053957D01*
X031859Y053880D01*
X031936Y053726D02*
X031782Y053573D01*
X031782Y053650D02*
X031782Y053420D01*
X031936Y053420D02*
X031475Y053420D01*
X031475Y053650D01*
X031552Y053726D01*
X031705Y053726D01*
X031782Y053650D01*
X031552Y053880D02*
X031475Y053957D01*
X031475Y054110D01*
X031552Y054187D01*
X031629Y054187D01*
X031705Y054110D01*
X031782Y054187D01*
X031859Y054187D01*
X031705Y054110D02*
X031705Y054033D01*
X031936Y053171D02*
X031936Y052864D01*
X031936Y053017D02*
X031475Y053017D01*
X031629Y052864D01*
X031629Y052710D02*
X031705Y052634D01*
X031782Y052710D01*
X031859Y052710D01*
X031936Y052634D01*
X031936Y052480D01*
X031859Y052404D01*
X031936Y052250D02*
X031782Y052097D01*
X031782Y052173D02*
X031782Y051943D01*
X031936Y051943D02*
X031475Y051943D01*
X031475Y052173D01*
X031552Y052250D01*
X031705Y052250D01*
X031782Y052173D01*
X031552Y052404D02*
X031475Y052480D01*
X031475Y052634D01*
X031552Y052710D01*
X031629Y052710D01*
X031705Y052634D02*
X031705Y052557D01*
X038827Y055672D02*
X038904Y055595D01*
X039058Y055595D01*
X039134Y055672D01*
X039134Y056056D01*
X039288Y055979D02*
X039365Y056056D01*
X039518Y056056D01*
X039595Y055979D01*
X039748Y055902D02*
X039902Y056056D01*
X039902Y055595D01*
X040055Y055595D02*
X039748Y055595D01*
X039595Y055672D02*
X039595Y055749D01*
X039518Y055825D01*
X039365Y055825D01*
X039288Y055902D01*
X039288Y055979D01*
X039441Y056132D02*
X039441Y055518D01*
X039365Y055595D02*
X039518Y055595D01*
X039595Y055672D01*
X039365Y055595D02*
X039288Y055672D01*
X038827Y055672D02*
X038827Y056056D01*
X043349Y050347D02*
X043425Y050347D01*
X043502Y050270D01*
X043579Y050347D01*
X043656Y050347D01*
X043732Y050270D01*
X043732Y050117D01*
X043656Y050040D01*
X043656Y049886D02*
X043272Y049886D01*
X043349Y050040D02*
X043272Y050117D01*
X043272Y050270D01*
X043349Y050347D01*
X043502Y050270D02*
X043502Y050193D01*
X043656Y049886D02*
X043732Y049810D01*
X043732Y049656D01*
X043656Y049579D01*
X043272Y049579D01*
X039998Y025880D02*
X039998Y025420D01*
X040151Y025420D02*
X039844Y025420D01*
X039538Y025420D02*
X039538Y025880D01*
X039691Y025880D02*
X039384Y025880D01*
X039231Y025727D02*
X039231Y025420D01*
X039231Y025650D02*
X038924Y025650D01*
X038924Y025727D02*
X039077Y025880D01*
X039231Y025727D01*
X038924Y025727D02*
X038924Y025420D01*
X038770Y025497D02*
X038694Y025420D01*
X038463Y025420D01*
X038463Y025880D01*
X038694Y025880D01*
X038770Y025804D01*
X038770Y025727D01*
X038694Y025650D01*
X038463Y025650D01*
X038694Y025650D02*
X038770Y025573D01*
X038770Y025497D01*
X039844Y025727D02*
X039998Y025880D01*
X042121Y018058D02*
X042044Y017981D01*
X042044Y017674D01*
X042121Y017598D01*
X042275Y017598D01*
X042351Y017674D01*
X042505Y017598D02*
X042812Y017598D01*
X042658Y017598D02*
X042658Y018058D01*
X042505Y017904D01*
X042351Y017981D02*
X042275Y018058D01*
X042121Y018058D01*
X041166Y015165D02*
X041012Y015165D01*
X040935Y015088D01*
X040782Y015088D02*
X040705Y015165D01*
X040552Y015165D01*
X040475Y015088D01*
X040475Y014781D01*
X040552Y014704D01*
X040705Y014704D01*
X040782Y014781D01*
X040935Y014781D02*
X041012Y014704D01*
X041166Y014704D01*
X041242Y014781D01*
X041242Y014858D01*
X041166Y014934D01*
X041089Y014934D01*
X041166Y014934D02*
X041242Y015011D01*
X041242Y015088D01*
X041166Y015165D01*
X040321Y015165D02*
X040168Y015165D01*
X040245Y015165D02*
X040245Y014704D01*
X040321Y014704D02*
X040168Y014704D01*
X037226Y014701D02*
X037226Y014778D01*
X037149Y014855D01*
X036919Y014855D01*
X036919Y014701D01*
X036996Y014624D01*
X037149Y014624D01*
X037226Y014701D01*
X037073Y015008D02*
X036919Y014855D01*
X036766Y014855D02*
X036689Y014778D01*
X036459Y014778D01*
X036612Y014778D02*
X036766Y014624D01*
X036766Y014855D02*
X036766Y015008D01*
X036689Y015085D01*
X036459Y015085D01*
X036459Y014624D01*
X036459Y014100D02*
X036689Y014100D01*
X036766Y014024D01*
X036766Y013870D01*
X036689Y013794D01*
X036459Y013794D01*
X036612Y013794D02*
X036766Y013640D01*
X036919Y013717D02*
X036996Y013640D01*
X037149Y013640D01*
X037226Y013717D01*
X037226Y013870D01*
X037149Y013947D01*
X037073Y013947D01*
X036919Y013870D01*
X036919Y014100D01*
X037226Y014100D01*
X036459Y014100D02*
X036459Y013640D01*
X036459Y013116D02*
X036459Y012886D01*
X036612Y012963D01*
X036689Y012963D01*
X036766Y012886D01*
X036766Y012733D01*
X036689Y012656D01*
X036535Y012656D01*
X036459Y012733D01*
X036305Y012656D02*
X036152Y012809D01*
X036228Y012809D02*
X035998Y012809D01*
X035998Y012656D02*
X035998Y013116D01*
X036228Y013116D01*
X036305Y013039D01*
X036305Y012886D01*
X036228Y012809D01*
X036459Y013116D02*
X036766Y013116D01*
X036919Y012886D02*
X037226Y012886D01*
X037149Y012656D02*
X037149Y013116D01*
X036919Y012886D01*
X037073Y015008D02*
X037226Y015085D01*
X043669Y014515D02*
X043669Y014054D01*
X043669Y014208D02*
X043899Y014208D01*
X043976Y014284D01*
X043976Y014438D01*
X043899Y014515D01*
X043669Y014515D01*
X043823Y014208D02*
X043976Y014054D01*
X044130Y014131D02*
X044206Y014054D01*
X044360Y014054D01*
X044437Y014131D01*
X044437Y014284D01*
X044360Y014361D01*
X044283Y014361D01*
X044130Y014284D01*
X044130Y014515D01*
X044437Y014515D01*
X044590Y014515D02*
X044897Y014515D01*
X044897Y014438D01*
X044590Y014131D01*
X044590Y014054D01*
X049965Y012401D02*
X050118Y012555D01*
X050425Y012555D01*
X050195Y012555D02*
X050195Y012248D01*
X050118Y012248D02*
X049965Y012401D01*
X050118Y012248D02*
X050425Y012248D01*
X050502Y012094D02*
X050502Y011787D01*
X050425Y011634D02*
X049965Y011634D01*
X049965Y011327D02*
X050425Y011634D01*
X050425Y011327D02*
X049965Y011327D01*
X050118Y011174D02*
X049965Y011020D01*
X050118Y010867D01*
X050425Y010867D01*
X050195Y010867D02*
X050195Y011174D01*
X050118Y011174D02*
X050425Y011174D01*
X049965Y010713D02*
X049965Y010406D01*
X050425Y010406D01*
X050195Y010406D02*
X050195Y010560D01*
X007495Y011080D02*
X007419Y011003D01*
X007265Y011003D01*
X007188Y011080D01*
X007035Y011080D02*
X006958Y011003D01*
X006805Y011003D01*
X006728Y011080D01*
X006728Y011233D02*
X006881Y011310D01*
X006958Y011310D01*
X007035Y011233D01*
X007035Y011080D01*
X007188Y011387D02*
X007265Y011463D01*
X007419Y011463D01*
X007495Y011387D01*
X007495Y011310D01*
X007419Y011233D01*
X007495Y011157D01*
X007495Y011080D01*
X007419Y011233D02*
X007342Y011233D01*
X007035Y011463D02*
X006728Y011463D01*
X006728Y011233D01*
X006575Y011233D02*
X006498Y011157D01*
X006268Y011157D01*
X006421Y011157D02*
X006575Y011003D01*
X006575Y011233D02*
X006575Y011387D01*
X006498Y011463D01*
X006268Y011463D01*
X006268Y011003D01*
D14*
X041170Y021296D02*
X041190Y021316D01*
X041190Y021416D01*
X041590Y021466D02*
X041590Y021316D01*
X041610Y021296D01*
D15*
X041590Y021531D03*
X041190Y021531D03*
D16*
X040517Y021719D02*
X040442Y021644D01*
X040141Y021644D01*
X040066Y021719D01*
X040066Y021869D01*
X040141Y021945D01*
X040442Y021945D01*
X040517Y021869D01*
X040517Y021719D01*
X040367Y021794D02*
X040517Y021945D01*
X040517Y022105D02*
X040517Y022405D01*
X040517Y022255D02*
X040066Y022255D01*
X040216Y022105D01*
X047701Y026193D02*
X048882Y026193D01*
X049497Y026424D02*
X049573Y026348D01*
X049497Y026424D02*
X049497Y026574D01*
X049573Y026649D01*
X049648Y026649D01*
X049948Y026348D01*
X049948Y026649D01*
X049948Y026809D02*
X049948Y027109D01*
X049948Y026959D02*
X049497Y026959D01*
X049648Y026809D01*
X048292Y026784D02*
X048292Y025603D01*
X049948Y021991D02*
X049948Y021691D01*
X049948Y021841D02*
X049497Y021841D01*
X049648Y021691D01*
X049948Y021531D02*
X049948Y021230D01*
X049948Y021380D02*
X049497Y021380D01*
X049648Y021230D01*
X049948Y016840D02*
X049948Y016539D01*
X049948Y016689D02*
X049497Y016689D01*
X049648Y016539D01*
X049145Y016444D02*
X049145Y016294D01*
X049070Y016219D01*
X048995Y016219D01*
X048919Y016294D01*
X048919Y016444D01*
X048995Y016519D01*
X049070Y016519D01*
X049145Y016444D01*
X048919Y016444D02*
X048844Y016519D01*
X048769Y016519D01*
X048694Y016444D01*
X048694Y016294D01*
X048769Y016219D01*
X048844Y016219D01*
X048919Y016294D01*
X048694Y016058D02*
X048694Y015908D01*
X048694Y015983D02*
X049070Y015983D01*
X049145Y015908D01*
X049145Y015833D01*
X049070Y015758D01*
X047305Y013874D02*
X047155Y013874D01*
X047079Y013799D01*
X046919Y013799D02*
X046919Y013498D01*
X046844Y013423D01*
X046619Y013423D01*
X046619Y013874D01*
X046844Y013874D01*
X046919Y013799D01*
X047305Y013874D02*
X047380Y013799D01*
X047380Y013724D01*
X047079Y013423D01*
X047380Y013423D01*
X047611Y012906D02*
X047059Y012906D01*
X047059Y010150D01*
X047611Y010150D01*
X047611Y012906D01*
X049815Y012906D01*
X049815Y010150D01*
X047611Y010150D01*
X048216Y008212D02*
X048141Y008137D01*
X048216Y008212D02*
X048366Y008212D01*
X048441Y008137D01*
X048441Y008062D01*
X048141Y007762D01*
X048441Y007762D01*
X046441Y007762D02*
X046141Y007762D01*
X046291Y007762D02*
X046291Y008212D01*
X046141Y008062D01*
X044504Y008062D02*
X044504Y008137D01*
X044429Y008212D01*
X044279Y008212D01*
X044204Y008137D01*
X044504Y008062D02*
X044204Y007762D01*
X044504Y007762D01*
X042504Y007762D02*
X042204Y007762D01*
X042354Y007762D02*
X042354Y008212D01*
X042204Y008062D01*
X040567Y008062D02*
X040567Y008137D01*
X040492Y008212D01*
X040342Y008212D01*
X040267Y008137D01*
X040567Y008062D02*
X040267Y007762D01*
X040567Y007762D01*
X038567Y007762D02*
X038267Y007762D01*
X038417Y007762D02*
X038417Y008212D01*
X038267Y008062D01*
X040540Y010489D02*
X040540Y010940D01*
X040765Y010940D01*
X040841Y010864D01*
X040841Y010714D01*
X040765Y010639D01*
X040540Y010639D01*
X040690Y010639D02*
X040841Y010489D01*
X041001Y010564D02*
X041076Y010489D01*
X041226Y010489D01*
X041301Y010564D01*
X041301Y010714D01*
X041226Y010789D01*
X041151Y010789D01*
X041001Y010714D01*
X041001Y010940D01*
X041301Y010940D01*
X041461Y010940D02*
X041461Y010714D01*
X041611Y010789D01*
X041686Y010789D01*
X041761Y010714D01*
X041761Y010564D01*
X041686Y010489D01*
X041536Y010489D01*
X041461Y010564D01*
X041461Y010940D02*
X041761Y010940D01*
X043365Y010980D02*
X043440Y011055D01*
X043740Y011055D01*
X043815Y010980D01*
X043815Y010830D01*
X043740Y010755D01*
X043440Y010755D01*
X043365Y010830D01*
X043365Y010980D01*
X043440Y011216D02*
X043365Y011291D01*
X043365Y011441D01*
X043440Y011516D01*
X043515Y011516D01*
X043815Y011216D01*
X043815Y011516D01*
X043815Y011055D02*
X043665Y010905D01*
X034662Y008137D02*
X034587Y008212D01*
X034437Y008212D01*
X034362Y008137D01*
X034662Y008137D02*
X034662Y008062D01*
X034362Y007762D01*
X034662Y007762D01*
X032662Y007762D02*
X032362Y007762D01*
X032512Y007762D02*
X032512Y008212D01*
X032362Y008062D01*
X030725Y008062D02*
X030725Y008137D01*
X030650Y008212D01*
X030500Y008212D01*
X030425Y008137D01*
X030725Y008062D02*
X030425Y007762D01*
X030725Y007762D01*
X028725Y007762D02*
X028425Y007762D01*
X028575Y007762D02*
X028575Y008212D01*
X028425Y008062D01*
X018049Y003679D02*
X017749Y003679D01*
X017899Y003679D02*
X017899Y004130D01*
X017749Y003980D01*
X017589Y004055D02*
X017514Y004130D01*
X017288Y004130D01*
X017288Y003679D01*
X017514Y003679D01*
X017589Y003754D01*
X017589Y004055D01*
X013133Y003328D02*
X013133Y003028D01*
X012833Y003328D01*
X012758Y003328D01*
X012682Y003253D01*
X012682Y003103D01*
X012758Y003028D01*
X012833Y005028D02*
X012682Y005178D01*
X013133Y005178D01*
X013133Y005028D02*
X013133Y005328D01*
X002767Y013386D02*
X002767Y013612D01*
X002767Y013499D02*
X002426Y013499D01*
X002540Y013386D01*
X002483Y015386D02*
X002426Y015442D01*
X002426Y015556D01*
X002483Y015612D01*
X002540Y015612D01*
X002767Y015386D01*
X002767Y015612D01*
X002767Y017323D02*
X002767Y017549D01*
X002767Y017436D02*
X002426Y017436D01*
X002540Y017323D01*
X002483Y019323D02*
X002426Y019379D01*
X002426Y019493D01*
X002483Y019549D01*
X002540Y019549D01*
X002767Y019323D01*
X002767Y019549D01*
X002767Y021260D02*
X002767Y021487D01*
X002767Y021373D02*
X002426Y021373D01*
X002540Y021260D01*
X002483Y023260D02*
X002426Y023316D01*
X002426Y023430D01*
X002483Y023487D01*
X002540Y023487D01*
X002767Y023260D01*
X002767Y023487D01*
X002767Y025197D02*
X002767Y025424D01*
X002767Y025310D02*
X002426Y025310D01*
X002540Y025197D01*
X002483Y027197D02*
X002426Y027253D01*
X002426Y027367D01*
X002483Y027424D01*
X002540Y027424D01*
X002767Y027197D01*
X002767Y027424D01*
X002767Y029134D02*
X002767Y029361D01*
X002767Y029247D02*
X002426Y029247D01*
X002540Y029134D01*
X002483Y031134D02*
X002426Y031190D01*
X002426Y031304D01*
X002483Y031361D01*
X002540Y031361D01*
X002767Y031134D01*
X002767Y031361D01*
X002767Y033071D02*
X002767Y033298D01*
X002767Y033184D02*
X002426Y033184D01*
X002540Y033071D01*
X002483Y035071D02*
X002426Y035127D01*
X002426Y035241D01*
X002483Y035298D01*
X002540Y035298D01*
X002767Y035071D01*
X002767Y035298D01*
X002767Y037008D02*
X002767Y037235D01*
X002767Y037121D02*
X002426Y037121D01*
X002540Y037008D01*
X002483Y039008D02*
X002426Y039064D01*
X002426Y039178D01*
X002483Y039235D01*
X002540Y039235D01*
X002767Y039008D01*
X002767Y039235D01*
X011797Y046016D02*
X011872Y045941D01*
X011797Y046016D02*
X011797Y046166D01*
X011872Y046242D01*
X011947Y046242D01*
X012247Y045941D01*
X012247Y046242D01*
X012247Y047941D02*
X012247Y048242D01*
X012247Y048091D02*
X011797Y048091D01*
X011947Y047941D01*
X011872Y050666D02*
X011797Y050741D01*
X011797Y050891D01*
X011872Y050966D01*
X011947Y050966D01*
X012247Y050666D01*
X012247Y050966D01*
X012247Y052666D02*
X012247Y052966D01*
X012247Y052816D02*
X011797Y052816D01*
X011947Y052666D01*
X011872Y055390D02*
X011797Y055465D01*
X011797Y055615D01*
X011872Y055690D01*
X011947Y055690D01*
X012247Y055390D01*
X012247Y055690D01*
X012247Y057390D02*
X012247Y057690D01*
X012247Y057540D02*
X011797Y057540D01*
X011947Y057390D01*
X016311Y058103D02*
X016311Y050859D01*
X023556Y050859D01*
X023556Y058103D01*
X016311Y058103D01*
X016506Y057630D02*
X016508Y057663D01*
X016514Y057695D01*
X016523Y057727D01*
X016537Y057757D01*
X016553Y057785D01*
X016573Y057811D01*
X016596Y057835D01*
X016622Y057856D01*
X016650Y057873D01*
X016680Y057888D01*
X016711Y057898D01*
X016743Y057905D01*
X016776Y057908D01*
X016809Y057907D01*
X016841Y057902D01*
X016873Y057893D01*
X016904Y057881D01*
X016932Y057865D01*
X016959Y057846D01*
X016983Y057824D01*
X017005Y057799D01*
X017023Y057771D01*
X017038Y057742D01*
X017050Y057711D01*
X017058Y057679D01*
X017062Y057646D01*
X017062Y057614D01*
X017058Y057581D01*
X017050Y057549D01*
X017038Y057518D01*
X017023Y057489D01*
X017005Y057461D01*
X016983Y057436D01*
X016959Y057414D01*
X016932Y057395D01*
X016904Y057379D01*
X016873Y057367D01*
X016841Y057358D01*
X016809Y057353D01*
X016776Y057352D01*
X016743Y057355D01*
X016711Y057362D01*
X016680Y057372D01*
X016650Y057387D01*
X016622Y057404D01*
X016596Y057425D01*
X016573Y057449D01*
X016553Y057475D01*
X016537Y057503D01*
X016523Y057533D01*
X016514Y057565D01*
X016508Y057597D01*
X016506Y057630D01*
X024012Y055436D02*
X024171Y055595D01*
X024277Y055595D01*
X024330Y055542D01*
X024330Y055436D01*
X024171Y055276D01*
X024330Y055117D02*
X024012Y055436D01*
X024330Y055436D02*
X024436Y055436D01*
X024489Y055382D01*
X024489Y055276D01*
X024330Y055117D01*
X024656Y055443D02*
X024868Y055655D01*
X024762Y055549D02*
X024443Y055867D01*
X024443Y055655D01*
X027656Y058535D02*
X027656Y058835D01*
X027731Y058910D01*
X027881Y058910D01*
X027956Y058835D01*
X028116Y058835D02*
X028192Y058910D01*
X028342Y058910D01*
X028417Y058835D01*
X028417Y058760D01*
X028116Y058460D01*
X028417Y058460D01*
X027956Y058535D02*
X027881Y058460D01*
X027731Y058460D01*
X027656Y058535D01*
X032890Y058404D02*
X032890Y058854D01*
X033115Y058854D01*
X033190Y058779D01*
X033190Y058479D01*
X033115Y058404D01*
X032890Y058404D01*
X033350Y058479D02*
X033425Y058404D01*
X033575Y058404D01*
X033650Y058479D01*
X033650Y058554D01*
X033575Y058629D01*
X033500Y058629D01*
X033575Y058629D02*
X033650Y058704D01*
X033650Y058779D01*
X033575Y058854D01*
X033425Y058854D01*
X033350Y058779D01*
X033369Y054674D02*
X033371Y054694D01*
X033377Y054712D01*
X033386Y054730D01*
X033398Y054745D01*
X033413Y054757D01*
X033431Y054766D01*
X033449Y054772D01*
X033469Y054774D01*
X033489Y054772D01*
X033507Y054766D01*
X033525Y054757D01*
X033540Y054745D01*
X033552Y054730D01*
X033561Y054712D01*
X033567Y054694D01*
X033569Y054674D01*
X033567Y054654D01*
X033561Y054636D01*
X033552Y054618D01*
X033540Y054603D01*
X033525Y054591D01*
X033507Y054582D01*
X033489Y054576D01*
X033469Y054574D01*
X033449Y054576D01*
X033431Y054582D01*
X033413Y054591D01*
X033398Y054603D01*
X033386Y054618D01*
X033377Y054636D01*
X033371Y054654D01*
X033369Y054674D01*
X040996Y055288D02*
X040996Y049343D01*
X041666Y049343D01*
X041666Y055288D01*
X044028Y055288D01*
X044028Y049343D01*
X041666Y049343D01*
X044738Y054475D02*
X044888Y054475D01*
X044813Y054475D02*
X044813Y054925D01*
X044738Y054925D02*
X044888Y054925D01*
X045045Y054925D02*
X045345Y054475D01*
X045345Y054925D01*
X045505Y054925D02*
X045505Y054475D01*
X045731Y054475D01*
X045806Y054550D01*
X045806Y054850D01*
X045731Y054925D01*
X045505Y054925D01*
X045045Y054925D02*
X045045Y054475D01*
X045966Y054475D02*
X046116Y054475D01*
X046041Y054475D02*
X046041Y054925D01*
X045966Y054925D02*
X046116Y054925D01*
X046273Y054850D02*
X046273Y054550D01*
X046348Y054475D01*
X046498Y054475D01*
X046573Y054550D01*
X046733Y054475D02*
X046733Y054775D01*
X046883Y054925D01*
X047033Y054775D01*
X047033Y054475D01*
X047033Y054700D02*
X046733Y054700D01*
X046573Y054850D02*
X046498Y054925D01*
X046348Y054925D01*
X046273Y054850D01*
X047193Y054925D02*
X047494Y054925D01*
X047344Y054925D02*
X047344Y054475D01*
X047654Y054550D02*
X047654Y054850D01*
X047729Y054925D01*
X047879Y054925D01*
X047954Y054850D01*
X047954Y054550D01*
X047879Y054475D01*
X047729Y054475D01*
X047654Y054550D01*
X047635Y054142D02*
X047560Y054142D01*
X047484Y054067D01*
X047484Y053842D01*
X047635Y053842D01*
X047710Y053917D01*
X047710Y054067D01*
X047635Y054142D01*
X047484Y053842D02*
X047334Y053992D01*
X047259Y054142D01*
X048114Y054475D02*
X048114Y054925D01*
X048339Y054925D01*
X048414Y054850D01*
X048414Y054700D01*
X048339Y054625D01*
X048114Y054625D01*
X048264Y054625D02*
X048414Y054475D01*
X048575Y054400D02*
X048875Y054400D01*
X049035Y054550D02*
X049110Y054475D01*
X049260Y054475D01*
X049335Y054550D01*
X049495Y054550D02*
X049570Y054475D01*
X049721Y054475D01*
X049796Y054550D01*
X049796Y054850D01*
X049721Y054925D01*
X049570Y054925D01*
X049495Y054850D01*
X049495Y054550D01*
X049335Y054850D02*
X049260Y054925D01*
X049110Y054925D01*
X049035Y054850D01*
X049035Y054550D01*
X049956Y054475D02*
X049956Y054925D01*
X050256Y054475D01*
X050256Y054925D01*
X050416Y054925D02*
X050716Y054475D01*
X050716Y054925D01*
X050416Y054925D02*
X050416Y054475D01*
X049610Y051292D02*
X049610Y050992D01*
X049610Y051142D02*
X049159Y051142D01*
X049309Y050992D01*
X041666Y055288D02*
X040996Y055288D01*
X034613Y037310D02*
X034688Y037235D01*
X034688Y037085D01*
X034613Y037010D01*
X034537Y037010D01*
X034462Y037085D01*
X034462Y037235D01*
X034537Y037310D01*
X034613Y037310D01*
X034462Y037235D02*
X034387Y037310D01*
X034312Y037310D01*
X034237Y037235D01*
X034237Y037085D01*
X034312Y037010D01*
X034387Y037010D01*
X034462Y037085D01*
X034537Y036850D02*
X034462Y036775D01*
X034462Y036625D01*
X034387Y036550D01*
X034312Y036550D01*
X034237Y036625D01*
X034237Y036775D01*
X034312Y036850D01*
X034162Y036700D02*
X034763Y036700D01*
X034688Y036775D02*
X034613Y036850D01*
X034537Y036850D01*
X034688Y036775D02*
X034688Y036625D01*
X034613Y036550D01*
X034613Y036389D02*
X034237Y036389D01*
X034237Y036089D02*
X034613Y036089D01*
X034688Y036164D01*
X034688Y036314D01*
X034613Y036389D01*
X049497Y036089D02*
X049497Y035939D01*
X049573Y035864D01*
X049648Y035864D01*
X049723Y035939D01*
X049723Y036164D01*
X049873Y036164D02*
X049573Y036164D01*
X049497Y036089D01*
X049873Y036164D02*
X049948Y036089D01*
X049948Y035939D01*
X049873Y035864D01*
X049873Y035704D02*
X049948Y035629D01*
X049948Y035479D01*
X049873Y035404D01*
X049723Y035554D02*
X049723Y035629D01*
X049798Y035704D01*
X049873Y035704D01*
X049723Y035629D02*
X049648Y035704D01*
X049573Y035704D01*
X049497Y035629D01*
X049497Y035479D01*
X049573Y035404D01*
X049948Y032030D02*
X049948Y031730D01*
X049948Y031880D02*
X049497Y031880D01*
X049648Y031730D01*
X049648Y031570D02*
X049723Y031495D01*
X049798Y031570D01*
X049873Y031570D01*
X049948Y031495D01*
X049948Y031345D01*
X049873Y031270D01*
X049723Y031420D02*
X049723Y031495D01*
X049648Y031570D02*
X049573Y031570D01*
X049497Y031495D01*
X049497Y031345D01*
X049573Y031270D01*
D17*
X028482Y048992D02*
X028062Y048992D01*
X028272Y048992D02*
X028272Y049623D01*
X028062Y049412D01*
X027838Y049623D02*
X027417Y049623D01*
X027417Y048992D01*
X027417Y049307D02*
X027627Y049307D01*
X025136Y049202D02*
X025136Y049097D01*
X025031Y048992D01*
X024820Y048992D01*
X024715Y049097D01*
X024926Y049307D02*
X025031Y049307D01*
X025136Y049202D01*
X025031Y049307D02*
X025136Y049412D01*
X025136Y049518D01*
X025031Y049623D01*
X024820Y049623D01*
X024715Y049518D01*
X024491Y049623D02*
X024071Y049623D01*
X024071Y048992D01*
X024071Y049307D02*
X024281Y049307D01*
X021789Y049412D02*
X021789Y049518D01*
X021684Y049623D01*
X021474Y049623D01*
X021369Y049518D01*
X021145Y049623D02*
X020724Y049623D01*
X020724Y048992D01*
X020724Y049307D02*
X020935Y049307D01*
X021369Y048992D02*
X021789Y049412D01*
X021789Y048992D02*
X021369Y048992D01*
X014631Y047892D02*
X014211Y047892D01*
X014001Y047682D01*
X014211Y047472D01*
X014631Y047472D01*
X014631Y047248D02*
X014631Y046932D01*
X014526Y046827D01*
X014421Y046827D01*
X014316Y046932D01*
X014316Y047248D01*
X014001Y047248D02*
X014631Y047248D01*
X014316Y046932D02*
X014211Y046827D01*
X014106Y046827D01*
X014001Y046932D01*
X014001Y047248D01*
X014001Y046603D02*
X014421Y046603D01*
X014631Y046393D01*
X014421Y046183D01*
X014001Y046183D01*
X014316Y046183D02*
X014316Y046603D01*
X014631Y045959D02*
X014631Y045538D01*
X014631Y045748D02*
X014001Y045748D01*
X014007Y053735D02*
X013902Y053840D01*
X013902Y054050D01*
X014007Y054155D01*
X014428Y054155D01*
X014533Y054050D01*
X014533Y053840D01*
X014428Y053735D01*
X014323Y054379D02*
X013902Y054379D01*
X014218Y054379D02*
X014218Y054799D01*
X014323Y054799D02*
X013902Y054799D01*
X014113Y055024D02*
X014533Y055024D01*
X014323Y054799D02*
X014533Y054589D01*
X014323Y054379D01*
X014113Y055024D02*
X013902Y055234D01*
X014113Y055444D01*
X014533Y055444D01*
D18*
X015965Y048573D02*
X015940Y048548D01*
X015940Y048498D01*
X015965Y048473D01*
X015965Y048426D02*
X015940Y048401D01*
X015940Y048351D01*
X015965Y048326D01*
X015990Y048326D01*
X016015Y048351D01*
X016015Y048401D01*
X016040Y048426D01*
X016065Y048426D01*
X016090Y048401D01*
X016090Y048351D01*
X016065Y048326D01*
X016065Y048279D02*
X015940Y048279D01*
X015915Y048376D02*
X016115Y048376D01*
X016090Y048473D02*
X015990Y048573D01*
X015965Y048573D01*
X016090Y048573D02*
X016090Y048473D01*
X016065Y048279D02*
X016090Y048254D01*
X016090Y048204D01*
X016065Y048179D01*
X015940Y048179D01*
X016486Y046073D02*
X016486Y045948D01*
X016511Y045923D01*
X016561Y045923D01*
X016586Y045948D01*
X016586Y046073D01*
X016633Y046048D02*
X016658Y046073D01*
X016708Y046073D01*
X016733Y046048D01*
X016708Y045998D02*
X016658Y045998D01*
X016633Y046023D01*
X016633Y046048D01*
X016683Y046098D02*
X016683Y045898D01*
X016658Y045923D02*
X016708Y045923D01*
X016733Y045948D01*
X016733Y045973D01*
X016708Y045998D01*
X016780Y045998D02*
X016880Y045998D01*
X016855Y046073D02*
X016780Y045998D01*
X016855Y045923D02*
X016855Y046073D01*
X016658Y045923D02*
X016633Y045948D01*
D19*
X034863Y036134D02*
X038863Y036134D01*
X042479Y004387D02*
X042626Y004387D01*
X042700Y004387D02*
X042810Y004387D01*
X042847Y004350D01*
X042847Y004276D01*
X042810Y004240D01*
X042700Y004240D01*
X042774Y004240D02*
X042847Y004166D01*
X042921Y004203D02*
X042958Y004166D01*
X043031Y004166D01*
X043068Y004203D01*
X043068Y004350D01*
X043031Y004387D01*
X042958Y004387D01*
X042921Y004350D01*
X042921Y004203D01*
X042700Y004166D02*
X042700Y004387D01*
X042553Y004276D02*
X042479Y004276D01*
X042479Y004166D02*
X042479Y004387D01*
X043142Y004387D02*
X043216Y004313D01*
X043289Y004387D01*
X043289Y004166D01*
X043363Y004130D02*
X043510Y004130D01*
X043584Y004166D02*
X043731Y004166D01*
X043584Y004166D02*
X043584Y004387D01*
X043805Y004387D02*
X043952Y004387D01*
X043879Y004387D02*
X043879Y004166D01*
X044026Y004203D02*
X044063Y004166D01*
X044136Y004166D01*
X044173Y004203D01*
X044247Y004130D02*
X044394Y004130D01*
X044468Y004166D02*
X044468Y004387D01*
X044578Y004387D01*
X044615Y004350D01*
X044615Y004276D01*
X044578Y004240D01*
X044468Y004240D01*
X044542Y004240D02*
X044615Y004166D01*
X044689Y004166D02*
X044836Y004166D01*
X044910Y004203D02*
X044947Y004166D01*
X045020Y004166D01*
X045057Y004203D01*
X045057Y004276D01*
X044983Y004276D01*
X044910Y004350D02*
X044910Y004203D01*
X044910Y004350D02*
X044947Y004387D01*
X045020Y004387D01*
X045057Y004350D01*
X044836Y004387D02*
X044689Y004387D01*
X044689Y004166D01*
X044689Y004276D02*
X044762Y004276D01*
X045131Y004130D02*
X045278Y004130D01*
X045352Y004166D02*
X045352Y004313D01*
X045425Y004387D01*
X045499Y004313D01*
X045499Y004166D01*
X045499Y004276D02*
X045352Y004276D01*
X044173Y004350D02*
X044136Y004387D01*
X044063Y004387D01*
X044026Y004350D01*
X044026Y004203D01*
X043142Y004166D02*
X043142Y004387D01*
X046416Y004387D02*
X046563Y004387D01*
X046637Y004387D02*
X046747Y004387D01*
X046784Y004350D01*
X046784Y004276D01*
X046747Y004240D01*
X046637Y004240D01*
X046711Y004240D02*
X046784Y004166D01*
X046858Y004203D02*
X046895Y004166D01*
X046968Y004166D01*
X047005Y004203D01*
X047005Y004350D01*
X046968Y004387D01*
X046895Y004387D01*
X046858Y004350D01*
X046858Y004203D01*
X046637Y004166D02*
X046637Y004387D01*
X046490Y004276D02*
X046416Y004276D01*
X046416Y004166D02*
X046416Y004387D01*
X047079Y004387D02*
X047153Y004313D01*
X047226Y004387D01*
X047226Y004166D01*
X047300Y004130D02*
X047447Y004130D01*
X047521Y004166D02*
X047668Y004166D01*
X047521Y004166D02*
X047521Y004387D01*
X047742Y004387D02*
X047889Y004387D01*
X047816Y004387D02*
X047816Y004166D01*
X047963Y004203D02*
X048000Y004166D01*
X048073Y004166D01*
X048110Y004203D01*
X048184Y004130D02*
X048331Y004130D01*
X048405Y004166D02*
X048405Y004387D01*
X048515Y004387D01*
X048552Y004350D01*
X048552Y004276D01*
X048515Y004240D01*
X048405Y004240D01*
X048479Y004240D02*
X048552Y004166D01*
X048626Y004166D02*
X048773Y004166D01*
X048847Y004203D02*
X048884Y004166D01*
X048957Y004166D01*
X048994Y004203D01*
X048994Y004276D01*
X048920Y004276D01*
X048847Y004350D02*
X048847Y004203D01*
X048847Y004350D02*
X048884Y004387D01*
X048957Y004387D01*
X048994Y004350D01*
X048773Y004387D02*
X048626Y004387D01*
X048626Y004166D01*
X048626Y004276D02*
X048700Y004276D01*
X049068Y004130D02*
X049215Y004130D01*
X049289Y004166D02*
X049399Y004166D01*
X049436Y004203D01*
X049436Y004240D01*
X049399Y004276D01*
X049289Y004276D01*
X049289Y004166D02*
X049289Y004387D01*
X049399Y004387D01*
X049436Y004350D01*
X049436Y004313D01*
X049399Y004276D01*
X048110Y004350D02*
X048073Y004387D01*
X048000Y004387D01*
X047963Y004350D01*
X047963Y004203D01*
X047079Y004166D02*
X047079Y004387D01*
D20*
X027099Y006607D02*
X010248Y006607D01*
X010248Y014638D01*
X027099Y014638D01*
X027099Y006607D01*
X027099Y015268D02*
X010248Y015268D01*
X010248Y023300D01*
X027099Y023300D01*
X027099Y015268D01*
X027099Y023930D02*
X010248Y023930D01*
X010248Y031961D01*
X027099Y031961D01*
X027099Y023930D01*
X031036Y032591D02*
X014185Y032591D01*
X014185Y040622D01*
X031036Y040622D01*
X031036Y032591D01*
D21*
X045055Y013656D03*
X045055Y010856D03*
D22*
X045055Y011806D03*
X045055Y012706D03*
D23*
X046115Y011805D03*
X016587Y003439D03*
D24*
X016587Y002814D03*
X016587Y005164D03*
X046115Y011180D03*
X046115Y013530D03*
D25*
X003792Y015111D03*
X003792Y019048D03*
X003792Y022985D03*
X003792Y026922D03*
X003792Y030859D03*
X003792Y034796D03*
X003792Y038733D03*
D26*
X033065Y057729D03*
D27*
X032440Y057729D03*
X034790Y057729D03*
M02*
