G75*
G70*
%OFA0B0*%
%FSLAX24Y24*%
%IPPOS*%
%LPD*%
%AMOC8*
5,1,8,0,0,1.08239X$1,22.5*
%
%ADD10C,0.0520*%
%ADD11C,0.0768*%
%ADD12C,0.0740*%
%ADD13R,0.0591X0.0512*%
%ADD14OC8,0.0515*%
%ADD15C,0.0515*%
%ADD16C,0.0780*%
%ADD17R,0.0512X0.0591*%
%ADD18C,0.0760*%
%ADD19OC8,0.0520*%
%ADD20OC8,0.0600*%
%ADD21C,0.0860*%
%ADD22R,0.0945X0.0945*%
%ADD23OC8,0.0945*%
%ADD24C,0.0945*%
%ADD25OC8,0.2000*%
%ADD26C,0.0600*%
%ADD27C,0.0520*%
%ADD28C,0.0660*%
%ADD29OC8,0.1000*%
%ADD30C,0.0600*%
%ADD31OC8,0.0630*%
%ADD32C,0.0630*%
%ADD33C,0.0120*%
%ADD34C,0.0100*%
%ADD35C,0.0240*%
%ADD36C,0.1000*%
%ADD37C,0.0500*%
%ADD38C,0.0320*%
%ADD39C,0.0660*%
%ADD40C,0.0700*%
%ADD41C,0.0356*%
%ADD42C,0.1500*%
%ADD43C,0.2540*%
%ADD44C,0.3937*%
%ADD45C,0.4724*%
D10*
X040890Y021016D03*
X041890Y021016D03*
D11*
X034894Y017709D03*
X034894Y025583D03*
D12*
X034969Y042674D03*
X035969Y042674D03*
X036969Y042674D03*
X037969Y042674D03*
X039469Y042674D03*
X039469Y043674D03*
X039469Y044674D03*
X039469Y045674D03*
X039469Y046674D03*
X039469Y047674D03*
X039469Y048674D03*
X039469Y049674D03*
X039469Y050674D03*
X039469Y051674D03*
X039469Y052674D03*
X039469Y053674D03*
X033469Y053674D03*
X033469Y052674D03*
X033469Y051674D03*
X033469Y050674D03*
X033469Y049674D03*
X033469Y048674D03*
X033469Y047674D03*
X033469Y046674D03*
X033469Y045674D03*
X033469Y044674D03*
X033469Y043674D03*
X033469Y042674D03*
X004682Y011273D03*
X002902Y011273D03*
X002902Y008713D03*
X004682Y008713D03*
D13*
X042867Y051489D03*
X042867Y052158D03*
D14*
X041981Y050815D03*
D15*
X041981Y051815D03*
X041981Y052815D03*
X041981Y053815D03*
D16*
X011662Y055076D02*
X010882Y055076D01*
X010882Y057046D02*
X011662Y057046D01*
X011662Y052321D02*
X010882Y052321D01*
X010882Y050351D02*
X011662Y050351D01*
X011662Y047597D02*
X010882Y047597D01*
X010882Y045627D02*
X011662Y045627D01*
X004182Y039723D02*
X003402Y039723D01*
X003402Y037743D02*
X004182Y037743D01*
X004182Y035786D02*
X003402Y035786D01*
X003402Y033806D02*
X004182Y033806D01*
X004182Y031849D02*
X003402Y031849D01*
X003402Y029869D02*
X004182Y029869D01*
X004182Y027912D02*
X003402Y027912D01*
X003402Y025932D02*
X004182Y025932D01*
X004182Y023975D02*
X003402Y023975D01*
X003402Y021995D02*
X004182Y021995D01*
X004182Y020038D02*
X003402Y020038D01*
X003402Y018058D02*
X004182Y018058D01*
X004182Y016101D02*
X003402Y016101D01*
X003402Y014121D02*
X004182Y014121D01*
X011768Y004683D02*
X012548Y004683D01*
X012548Y002713D02*
X011768Y002713D01*
X029180Y006847D02*
X029180Y007627D01*
X031150Y007627D02*
X031150Y006847D01*
X033117Y006847D02*
X033117Y007627D01*
X035087Y007627D02*
X035087Y006847D01*
X039022Y006847D02*
X039022Y007627D01*
X040992Y007627D02*
X040992Y006847D01*
X042959Y006847D02*
X042959Y007627D01*
X044929Y007627D02*
X044929Y006847D01*
X046896Y006847D02*
X046896Y007627D01*
X048866Y007627D02*
X048866Y006847D01*
D17*
X013969Y046213D03*
X013300Y046213D03*
X013300Y047000D03*
X013969Y047000D03*
X045681Y051233D03*
X046351Y051233D03*
X046351Y052217D03*
X045681Y052217D03*
X049619Y052217D03*
X050288Y052217D03*
X050288Y051233D03*
X049619Y051233D03*
D18*
X021933Y051981D03*
X017933Y051981D03*
X017933Y056981D03*
X021933Y056981D03*
D19*
X022886Y056481D03*
X022886Y052481D03*
X016882Y051989D03*
X016882Y055989D03*
D20*
X047485Y053217D03*
X048485Y053217D03*
X048485Y052217D03*
X047485Y052217D03*
X047485Y051217D03*
X047792Y035693D03*
X047792Y034693D03*
X047792Y033693D03*
X047792Y032693D03*
X047792Y031693D03*
X047792Y030693D03*
X047792Y029693D03*
X047792Y028693D03*
X047792Y027693D03*
X047792Y026693D03*
X047792Y025693D03*
X047792Y024693D03*
X047792Y023693D03*
X047792Y022693D03*
X047792Y021693D03*
X047792Y020693D03*
X047792Y019693D03*
X047792Y018693D03*
X047792Y017693D03*
X047792Y016693D03*
X048792Y016693D03*
X048792Y017693D03*
X048792Y018693D03*
X048792Y019693D03*
X048792Y020693D03*
X048792Y021693D03*
X048792Y022693D03*
X048792Y023693D03*
X048792Y024693D03*
X048792Y025693D03*
X048792Y026693D03*
X048792Y027693D03*
X048792Y028693D03*
X048792Y029693D03*
X048792Y030693D03*
X048792Y031693D03*
X048792Y032693D03*
X048792Y033693D03*
X048792Y034693D03*
X048792Y035693D03*
D21*
X048477Y012237D03*
X048477Y010859D03*
D22*
X030524Y033103D03*
X026587Y024441D03*
X026587Y015780D03*
X026587Y007119D03*
X010760Y007119D03*
X010760Y015780D03*
X010760Y024441D03*
X014697Y033103D03*
D23*
X010760Y031449D03*
X010760Y022788D03*
X010760Y014126D03*
X014697Y040111D03*
D24*
X026587Y031449D03*
X026587Y022788D03*
X026587Y014126D03*
X030524Y040111D03*
D25*
X024363Y039619D03*
X019933Y039619D03*
X014619Y043654D03*
X010485Y041981D03*
X007335Y038044D03*
X010091Y035189D03*
X019343Y047788D03*
X029874Y050150D03*
D26*
X044330Y013156D02*
X044930Y013156D01*
X044930Y012256D02*
X044330Y012256D01*
X044330Y011356D02*
X044930Y011356D01*
D27*
X041496Y011504D02*
X041496Y012024D01*
X040496Y012024D02*
X040496Y011504D01*
D28*
X046115Y010355D03*
X046115Y014355D03*
X016587Y005989D03*
X016587Y001989D03*
X031615Y057729D03*
X035615Y057729D03*
D29*
X029473Y046926D03*
X028111Y043926D03*
X026126Y046926D03*
X024764Y043926D03*
X022780Y046926D03*
X021418Y043926D03*
D30*
X026331Y055895D03*
X048485Y051217D03*
D31*
X029481Y056340D03*
D32*
X029481Y057740D03*
D33*
X027784Y054302D02*
X027844Y054242D01*
X027646Y054242D01*
X027506Y054382D01*
X027506Y054580D01*
X027646Y054720D01*
X027844Y054720D01*
X027984Y054580D01*
X027984Y054382D01*
X027844Y054242D01*
X027807Y054332D01*
X027683Y054332D01*
X027596Y054419D01*
X027596Y054543D01*
X027683Y054630D01*
X027807Y054630D01*
X027894Y054543D01*
X027894Y054419D01*
X027807Y054332D01*
X027770Y054422D01*
X027720Y054422D01*
X027686Y054456D01*
X027686Y054506D01*
X027720Y054540D01*
X027770Y054540D01*
X027804Y054506D01*
X027804Y054456D01*
X027770Y054422D01*
X026370Y052887D02*
X026430Y052827D01*
X026232Y052827D01*
X026092Y052967D01*
X026092Y053165D01*
X026232Y053305D01*
X026430Y053305D01*
X026570Y053165D01*
X026570Y052967D01*
X026430Y052827D01*
X026393Y052917D01*
X026269Y052917D01*
X026182Y053004D01*
X026182Y053128D01*
X026269Y053215D01*
X026393Y053215D01*
X026480Y053128D01*
X026480Y053004D01*
X026393Y052917D01*
X026356Y053007D01*
X026306Y053007D01*
X026272Y053041D01*
X026272Y053091D01*
X026306Y053125D01*
X026356Y053125D01*
X026390Y053091D01*
X026390Y053041D01*
X026356Y053007D01*
X024956Y054302D02*
X025016Y054242D01*
X024818Y054242D01*
X024678Y054382D01*
X024678Y054580D01*
X024818Y054720D01*
X025016Y054720D01*
X025156Y054580D01*
X025156Y054382D01*
X025016Y054242D01*
X024979Y054332D01*
X024855Y054332D01*
X024768Y054419D01*
X024768Y054543D01*
X024855Y054630D01*
X024979Y054630D01*
X025066Y054543D01*
X025066Y054419D01*
X024979Y054332D01*
X024942Y054422D01*
X024892Y054422D01*
X024858Y054456D01*
X024858Y054506D01*
X024892Y054540D01*
X024942Y054540D01*
X024976Y054506D01*
X024976Y054456D01*
X024942Y054422D01*
D34*
X000817Y006310D02*
X000775Y006324D01*
X000740Y006350D01*
X000714Y006385D01*
X000700Y006427D01*
X000698Y006449D01*
X000698Y042867D01*
X000700Y042889D01*
X000714Y042930D01*
X000740Y042966D01*
X000775Y042992D01*
X000817Y043005D01*
X000839Y043007D01*
X007697Y043007D01*
X008010Y043109D01*
X008277Y043303D01*
X008471Y043569D01*
X008471Y043569D01*
X008572Y043883D01*
X008572Y053595D01*
X013536Y053595D01*
X016193Y050937D01*
X016374Y050937D01*
X016303Y050767D01*
X016303Y050662D01*
X014792Y050662D01*
X014568Y050569D01*
X013452Y049452D01*
X013359Y049228D01*
X013359Y047578D01*
X013331Y047551D01*
X013263Y047385D01*
X013263Y047050D01*
X013250Y047050D01*
X013250Y046958D01*
X012954Y046958D01*
X012935Y046950D01*
X012894Y046950D01*
X012894Y046933D01*
X012789Y046890D01*
X012682Y046783D01*
X011745Y046783D01*
X011535Y046696D01*
X011306Y046467D01*
X010715Y046467D01*
X010406Y046339D01*
X010170Y046103D01*
X010042Y045794D01*
X010042Y045460D01*
X008572Y045460D01*
X008572Y045362D02*
X010083Y045362D01*
X010042Y045460D02*
X010170Y045151D01*
X010406Y044915D01*
X010715Y044787D01*
X011829Y044787D01*
X012138Y044915D01*
X012374Y045151D01*
X012502Y045460D01*
X014502Y045460D01*
X014517Y045423D02*
X014836Y045104D01*
X014018Y045104D01*
X013169Y044255D01*
X013169Y043053D01*
X014018Y042204D01*
X015219Y042204D01*
X016069Y043053D01*
X016069Y044255D01*
X015696Y044627D01*
X017293Y044627D01*
X017372Y044439D01*
X017568Y044242D01*
X018061Y043749D01*
X018318Y043643D01*
X019285Y043643D01*
X019543Y043749D01*
X019739Y043946D01*
X019739Y043946D01*
X019804Y044011D01*
X019690Y043585D01*
X019690Y041807D01*
X019640Y041757D01*
X018877Y040995D01*
X017646Y039764D01*
X015620Y039764D01*
X015620Y040493D01*
X015079Y041033D01*
X014315Y041033D01*
X013775Y040493D01*
X013775Y039764D01*
X005140Y039764D01*
X004717Y039650D01*
X004721Y039673D01*
X003842Y039673D01*
X003842Y039773D01*
X003742Y039773D01*
X003742Y040263D01*
X003359Y040263D01*
X003275Y040249D01*
X003194Y040223D01*
X003119Y040185D01*
X003050Y040135D01*
X002990Y040074D01*
X002940Y040006D01*
X002901Y039930D01*
X002875Y039849D01*
X002863Y039773D01*
X003742Y039773D01*
X003742Y039673D01*
X002863Y039673D01*
X002875Y039596D01*
X002901Y039515D01*
X002940Y039440D01*
X002990Y039371D01*
X003050Y039311D01*
X003119Y039261D01*
X003194Y039222D01*
X003275Y039196D01*
X003359Y039183D01*
X003701Y039183D01*
X003624Y039162D01*
X003350Y039004D01*
X003127Y038781D01*
X003127Y038781D01*
X002831Y038485D01*
X002674Y038212D01*
X002649Y038121D01*
X002562Y037910D01*
X002562Y037576D01*
X002654Y037354D01*
X002674Y037279D01*
X002831Y037006D01*
X003055Y036782D01*
X003329Y036624D01*
X003634Y036543D01*
X003950Y036543D01*
X004255Y036624D01*
X004320Y036662D01*
X004703Y036441D01*
X004916Y036384D01*
X004778Y036245D01*
X004659Y036039D01*
X004644Y036069D01*
X004594Y036137D01*
X004534Y036198D01*
X004465Y036248D01*
X004389Y036286D01*
X004308Y036312D01*
X004224Y036326D01*
X003842Y036326D01*
X003842Y035836D01*
X003742Y035836D01*
X003742Y036326D01*
X003359Y036326D01*
X003275Y036312D01*
X003194Y036286D01*
X003119Y036248D01*
X003050Y036198D01*
X002990Y036137D01*
X002940Y036069D01*
X002901Y035993D01*
X002875Y035912D01*
X002863Y035836D01*
X003742Y035836D01*
X003742Y035736D01*
X002863Y035736D01*
X002875Y035659D01*
X002901Y035578D01*
X002940Y035503D01*
X002990Y035434D01*
X003050Y035374D01*
X003119Y035324D01*
X003194Y035285D01*
X003275Y035259D01*
X003359Y035246D01*
X003742Y035246D01*
X003742Y035736D01*
X003842Y035736D01*
X003842Y035246D01*
X004218Y035246D01*
X003978Y035006D01*
X003634Y035006D01*
X003329Y034924D01*
X003055Y034766D01*
X002831Y034542D01*
X002674Y034269D01*
X002654Y034195D01*
X002562Y033973D01*
X002562Y033639D01*
X002654Y033417D01*
X002674Y033342D01*
X002831Y033069D01*
X003055Y032845D01*
X003329Y032687D01*
X003634Y032606D01*
X004633Y032606D01*
X004938Y032687D01*
X005212Y032845D01*
X005855Y033489D01*
X005927Y033469D01*
X014075Y033469D01*
X014075Y033153D01*
X014647Y033153D01*
X014647Y033053D01*
X014075Y033053D01*
X014075Y032611D01*
X014085Y032572D01*
X014105Y032538D01*
X014133Y032510D01*
X014167Y032491D01*
X014205Y032480D01*
X014647Y032480D01*
X014647Y033053D01*
X014747Y033053D01*
X014747Y033153D01*
X015320Y033153D01*
X015320Y033469D01*
X020455Y033469D01*
X020893Y033587D01*
X021285Y033813D01*
X025820Y038348D01*
X026141Y038669D01*
X026367Y039061D01*
X026391Y039149D01*
X026391Y038862D01*
X020747Y033219D01*
X020663Y033135D01*
X020471Y033056D01*
X020011Y032748D01*
X019619Y032356D01*
X019311Y031895D01*
X019099Y031384D01*
X018991Y030840D01*
X018991Y013751D01*
X019099Y013208D01*
X019311Y012696D01*
X019619Y012235D01*
X019857Y011997D01*
X019925Y011896D01*
X020262Y011559D01*
X023018Y008803D01*
X023414Y008538D01*
X023854Y008356D01*
X024321Y008263D01*
X028557Y008263D01*
X028443Y008197D01*
X028219Y007973D01*
X028061Y007700D01*
X027980Y007395D01*
X027980Y006468D01*
X024761Y006468D01*
X018476Y012753D01*
X018476Y020091D01*
X018394Y020397D01*
X018236Y020670D01*
X015622Y023285D01*
X015622Y027946D01*
X015540Y028251D01*
X015382Y028525D01*
X011720Y032186D01*
X011497Y032409D01*
X011223Y032567D01*
X010918Y032649D01*
X010602Y032649D01*
X010297Y032567D01*
X010023Y032409D01*
X009800Y032186D01*
X009773Y032139D01*
X008708Y031074D01*
X003639Y031074D01*
X003334Y030993D01*
X003061Y030835D01*
X002831Y030605D01*
X002674Y030332D01*
X002654Y030258D01*
X002562Y030036D01*
X002562Y029702D01*
X002654Y029480D01*
X002674Y029405D01*
X000698Y029405D01*
X000698Y029503D02*
X002644Y029503D01*
X002674Y029405D02*
X002831Y029132D01*
X003055Y028908D01*
X003329Y028750D01*
X003634Y028669D01*
X003950Y028669D01*
X003971Y028674D01*
X009363Y028674D01*
X009668Y028756D01*
X009942Y028914D01*
X010165Y029138D01*
X010770Y029742D01*
X013222Y027291D01*
X013222Y026275D01*
X013190Y026307D01*
X012403Y027094D01*
X012129Y027252D01*
X011824Y027334D01*
X003836Y027334D01*
X003531Y027252D01*
X003258Y027094D01*
X003061Y026898D01*
X003061Y026898D01*
X002831Y026668D01*
X002674Y026395D01*
X002654Y026321D01*
X002562Y026099D01*
X002562Y025765D01*
X002654Y025543D01*
X002674Y025468D01*
X002831Y025195D01*
X003055Y024971D01*
X003329Y024813D01*
X003634Y024732D01*
X003950Y024732D01*
X004255Y024813D01*
X004464Y024934D01*
X010138Y024934D01*
X010138Y024934D01*
X010138Y024491D01*
X010710Y024491D01*
X010710Y024391D01*
X010138Y024391D01*
X010138Y023949D01*
X010148Y023911D01*
X010168Y023877D01*
X010196Y023849D01*
X010197Y023848D01*
X010023Y023748D01*
X009800Y023525D01*
X009642Y023251D01*
X009560Y022946D01*
X009560Y022630D01*
X009642Y022325D01*
X009761Y022118D01*
X009505Y022118D01*
X008668Y022955D01*
X008395Y023113D01*
X008089Y023195D01*
X003634Y023195D01*
X003329Y023113D01*
X003055Y022955D01*
X002831Y022731D01*
X002674Y022458D01*
X002654Y022384D01*
X002562Y022162D01*
X002562Y021828D01*
X002654Y021606D01*
X002674Y021531D01*
X002831Y021258D01*
X003055Y021034D01*
X003329Y020876D01*
X003634Y020795D01*
X007434Y020795D01*
X007981Y020248D01*
X006980Y020248D01*
X006675Y020166D01*
X006401Y020008D01*
X005657Y019263D01*
X003639Y019263D01*
X003334Y019182D01*
X003061Y019024D01*
X002831Y018794D01*
X002674Y018521D01*
X002654Y018447D01*
X002562Y018225D01*
X002562Y017891D01*
X002654Y017669D01*
X002674Y017594D01*
X002831Y017321D01*
X003055Y017097D01*
X003329Y016939D01*
X003634Y016858D01*
X003950Y016858D01*
X003971Y016863D01*
X006312Y016863D01*
X006617Y016945D01*
X006891Y017103D01*
X007114Y017327D01*
X007635Y017848D01*
X010480Y017848D01*
X011253Y017074D01*
X011253Y016402D01*
X011252Y016402D01*
X010810Y016402D01*
X010810Y015830D01*
X010710Y015830D01*
X010710Y015730D01*
X010138Y015730D01*
X010138Y015288D01*
X010148Y015250D01*
X010168Y015215D01*
X010196Y015187D01*
X010197Y015187D01*
X010023Y015087D01*
X009800Y014863D01*
X009642Y014590D01*
X009560Y014284D01*
X009560Y013968D01*
X009642Y013663D01*
X009800Y013390D01*
X010023Y013166D01*
X010297Y013008D01*
X010602Y012926D01*
X011503Y012926D01*
X011503Y010219D01*
X010897Y010825D01*
X010897Y010839D01*
X010815Y011145D01*
X010657Y011418D01*
X006995Y015081D01*
X006721Y015239D01*
X006416Y015321D01*
X003634Y015321D01*
X003329Y015239D01*
X003055Y015081D01*
X002831Y014857D01*
X002674Y014584D01*
X002654Y014509D01*
X002562Y014288D01*
X002562Y013954D01*
X002654Y013732D01*
X002674Y013657D01*
X002831Y013384D01*
X003055Y013160D01*
X003329Y013002D01*
X003634Y012921D01*
X005761Y012921D01*
X008960Y009721D01*
X009234Y009563D01*
X009539Y009481D01*
X009554Y009481D01*
X011324Y007712D01*
X011291Y007731D01*
X011252Y007741D01*
X010810Y007741D01*
X010810Y007169D01*
X010710Y007169D01*
X010710Y007741D01*
X010268Y007741D01*
X010230Y007731D01*
X010196Y007711D01*
X010168Y007683D01*
X010148Y007649D01*
X010138Y007611D01*
X010138Y007169D01*
X010710Y007169D01*
X010710Y007069D01*
X010138Y007069D01*
X010138Y006626D01*
X010148Y006588D01*
X010168Y006554D01*
X010196Y006526D01*
X010230Y006506D01*
X010268Y006496D01*
X010710Y006496D01*
X010710Y007068D01*
X010810Y007068D01*
X010810Y006496D01*
X011252Y006496D01*
X011291Y006506D01*
X011325Y006526D01*
X011353Y006554D01*
X011372Y006588D01*
X011383Y006626D01*
X011383Y007069D01*
X010810Y007069D01*
X010810Y007169D01*
X011383Y007169D01*
X011383Y007611D01*
X011372Y007649D01*
X011353Y007682D01*
X012881Y006154D01*
X012881Y005109D01*
X012831Y005145D01*
X012755Y005184D01*
X012674Y005210D01*
X012590Y005223D01*
X012208Y005223D01*
X012208Y004733D01*
X012108Y004733D01*
X012108Y004633D01*
X012208Y004633D01*
X012208Y004143D01*
X012590Y004143D01*
X012674Y004157D01*
X012755Y004183D01*
X012831Y004221D01*
X012881Y004258D01*
X012881Y003484D01*
X012715Y003553D01*
X011601Y003553D01*
X011292Y003425D01*
X011056Y003189D01*
X010928Y002880D01*
X010928Y002546D01*
X011056Y002237D01*
X011292Y002001D01*
X011601Y001873D01*
X012715Y001873D01*
X012881Y001942D01*
X012881Y001634D01*
X013026Y001285D01*
X013711Y000600D01*
X008713Y000600D01*
X008691Y000602D01*
X008649Y000615D01*
X008614Y000641D01*
X008588Y000677D01*
X008574Y000719D01*
X008572Y000741D01*
X013570Y000741D01*
X013668Y000643D02*
X008613Y000643D01*
X008572Y000741D02*
X008572Y005433D01*
X008471Y005746D01*
X008277Y006013D01*
X008277Y006013D01*
X008010Y006207D01*
X007697Y006309D01*
X000839Y006309D01*
X000817Y006310D01*
X000735Y006356D02*
X012680Y006356D01*
X012581Y006454D02*
X000698Y006454D01*
X000698Y006553D02*
X010169Y006553D01*
X010138Y006651D02*
X000698Y006651D01*
X000698Y006750D02*
X010138Y006750D01*
X010138Y006848D02*
X000698Y006848D01*
X000698Y006947D02*
X010138Y006947D01*
X010138Y007045D02*
X000698Y007045D01*
X000698Y007144D02*
X010710Y007144D01*
X010710Y007242D02*
X010810Y007242D01*
X010810Y007144D02*
X011892Y007144D01*
X011793Y007242D02*
X011383Y007242D01*
X011383Y007341D02*
X011695Y007341D01*
X011596Y007439D02*
X011383Y007439D01*
X011383Y007538D02*
X011498Y007538D01*
X011399Y007636D02*
X011376Y007636D01*
X011301Y007735D02*
X011276Y007735D01*
X011202Y007833D02*
X005041Y007833D01*
X004871Y007763D02*
X005220Y007907D01*
X005487Y008174D01*
X005632Y008524D01*
X005632Y011461D01*
X005487Y011811D01*
X005220Y012078D01*
X004871Y012223D01*
X004493Y012223D01*
X004144Y012078D01*
X003876Y011811D01*
X003732Y011461D01*
X003732Y008524D01*
X003876Y008174D01*
X004144Y007907D01*
X004493Y007763D01*
X004871Y007763D01*
X005244Y007932D02*
X011104Y007932D01*
X011005Y008030D02*
X005343Y008030D01*
X005441Y008129D02*
X010907Y008129D01*
X010808Y008227D02*
X005509Y008227D01*
X005550Y008326D02*
X010710Y008326D01*
X010611Y008424D02*
X005591Y008424D01*
X005631Y008523D02*
X010513Y008523D01*
X010414Y008621D02*
X005632Y008621D01*
X005632Y008720D02*
X010316Y008720D01*
X010217Y008818D02*
X005632Y008818D01*
X005632Y008917D02*
X010119Y008917D01*
X010020Y009015D02*
X005632Y009015D01*
X005632Y009114D02*
X009922Y009114D01*
X009823Y009212D02*
X005632Y009212D01*
X005632Y009311D02*
X009725Y009311D01*
X009626Y009409D02*
X005632Y009409D01*
X005632Y009508D02*
X009442Y009508D01*
X009160Y009606D02*
X005632Y009606D01*
X005632Y009705D02*
X008989Y009705D01*
X008879Y009803D02*
X005632Y009803D01*
X005632Y009902D02*
X008780Y009902D01*
X008682Y010000D02*
X005632Y010000D01*
X005632Y010099D02*
X008583Y010099D01*
X008485Y010197D02*
X005632Y010197D01*
X005632Y010296D02*
X008386Y010296D01*
X008288Y010394D02*
X005632Y010394D01*
X005632Y010493D02*
X008189Y010493D01*
X008091Y010591D02*
X005632Y010591D01*
X005632Y010690D02*
X007992Y010690D01*
X007894Y010788D02*
X005632Y010788D01*
X005632Y010887D02*
X007795Y010887D01*
X007697Y010985D02*
X005632Y010985D01*
X005632Y011084D02*
X007598Y011084D01*
X007500Y011182D02*
X005632Y011182D01*
X005632Y011281D02*
X007401Y011281D01*
X007303Y011379D02*
X005632Y011379D01*
X005625Y011478D02*
X007204Y011478D01*
X007106Y011576D02*
X005584Y011576D01*
X005543Y011675D02*
X007007Y011675D01*
X006909Y011773D02*
X005503Y011773D01*
X005426Y011872D02*
X006810Y011872D01*
X006712Y011970D02*
X005328Y011970D01*
X005229Y012069D02*
X006613Y012069D01*
X006515Y012167D02*
X005005Y012167D01*
X004359Y012167D02*
X000698Y012167D01*
X000698Y012069D02*
X004134Y012069D01*
X004036Y011970D02*
X000698Y011970D01*
X000698Y011872D02*
X003937Y011872D01*
X003861Y011773D02*
X003044Y011773D01*
X003023Y011780D02*
X002952Y011791D01*
X002952Y011323D01*
X002852Y011323D01*
X002852Y011791D01*
X002780Y011780D01*
X002702Y011754D01*
X002629Y011717D01*
X002563Y011669D01*
X002505Y011611D01*
X002457Y011545D01*
X002420Y011472D01*
X002395Y011394D01*
X002383Y011323D01*
X002852Y011323D01*
X002852Y011223D01*
X002383Y011223D01*
X002395Y011151D01*
X002420Y011073D01*
X002457Y011000D01*
X002505Y010934D01*
X002563Y010876D01*
X002629Y010828D01*
X002702Y010791D01*
X002780Y010765D01*
X002852Y010754D01*
X002852Y011223D01*
X002952Y011223D01*
X002952Y011323D01*
X003420Y011323D01*
X003409Y011394D01*
X003384Y011472D01*
X003346Y011545D01*
X003298Y011611D01*
X003240Y011669D01*
X003174Y011717D01*
X003101Y011754D01*
X003023Y011780D01*
X002952Y011773D02*
X002852Y011773D01*
X002759Y011773D02*
X000698Y011773D01*
X000698Y011675D02*
X002570Y011675D01*
X002479Y011576D02*
X000698Y011576D01*
X000698Y011478D02*
X002423Y011478D01*
X002392Y011379D02*
X000698Y011379D01*
X000698Y011281D02*
X002852Y011281D01*
X002852Y011379D02*
X002952Y011379D01*
X002952Y011281D02*
X003732Y011281D01*
X003732Y011379D02*
X003411Y011379D01*
X003381Y011478D02*
X003738Y011478D01*
X003779Y011576D02*
X003324Y011576D01*
X003233Y011675D02*
X003820Y011675D01*
X003732Y011182D02*
X003414Y011182D01*
X003409Y011151D02*
X003420Y011223D01*
X002952Y011223D01*
X002952Y010754D01*
X003023Y010765D01*
X003101Y010791D01*
X003174Y010828D01*
X003240Y010876D01*
X003298Y010934D01*
X003346Y011000D01*
X003384Y011073D01*
X003409Y011151D01*
X003387Y011084D02*
X003732Y011084D01*
X003732Y010985D02*
X003336Y010985D01*
X003251Y010887D02*
X003732Y010887D01*
X003732Y010788D02*
X003093Y010788D01*
X002952Y010788D02*
X002852Y010788D01*
X002852Y010887D02*
X002952Y010887D01*
X002952Y010985D02*
X002852Y010985D01*
X002852Y011084D02*
X002952Y011084D01*
X002952Y011182D02*
X002852Y011182D01*
X002852Y011478D02*
X002952Y011478D01*
X002952Y011576D02*
X002852Y011576D01*
X002852Y011675D02*
X002952Y011675D01*
X002390Y011182D02*
X000698Y011182D01*
X000698Y011084D02*
X002416Y011084D01*
X002468Y010985D02*
X000698Y010985D01*
X000698Y010887D02*
X002552Y010887D01*
X002710Y010788D02*
X000698Y010788D01*
X000698Y010690D02*
X003732Y010690D01*
X003732Y010591D02*
X000698Y010591D01*
X000698Y010493D02*
X003732Y010493D01*
X003732Y010394D02*
X000698Y010394D01*
X000698Y010296D02*
X003732Y010296D01*
X003732Y010197D02*
X000698Y010197D01*
X000698Y010099D02*
X003732Y010099D01*
X003732Y010000D02*
X000698Y010000D01*
X000698Y009902D02*
X003732Y009902D01*
X003732Y009803D02*
X000698Y009803D01*
X000698Y009705D02*
X003732Y009705D01*
X003732Y009606D02*
X000698Y009606D01*
X000698Y009508D02*
X003732Y009508D01*
X003732Y009409D02*
X000698Y009409D01*
X000698Y009311D02*
X003732Y009311D01*
X003732Y009212D02*
X003047Y009212D01*
X003023Y009220D02*
X002952Y009231D01*
X002952Y008763D01*
X002852Y008763D01*
X002852Y009231D01*
X002780Y009220D01*
X002702Y009194D01*
X002629Y009157D01*
X002563Y009109D01*
X002505Y009051D01*
X002457Y008985D01*
X002420Y008912D01*
X002395Y008834D01*
X002383Y008763D01*
X002852Y008763D01*
X002852Y008663D01*
X002383Y008663D01*
X002395Y008591D01*
X002420Y008513D01*
X002457Y008440D01*
X002505Y008374D01*
X002563Y008316D01*
X002629Y008268D01*
X002702Y008231D01*
X002780Y008205D01*
X002852Y008194D01*
X002852Y008663D01*
X002952Y008663D01*
X002952Y008763D01*
X003420Y008763D01*
X003409Y008834D01*
X003384Y008912D01*
X003346Y008985D01*
X003298Y009051D01*
X003240Y009109D01*
X003174Y009157D01*
X003101Y009194D01*
X003023Y009220D01*
X002952Y009212D02*
X002852Y009212D01*
X002756Y009212D02*
X000698Y009212D01*
X000698Y009114D02*
X002569Y009114D01*
X002479Y009015D02*
X000698Y009015D01*
X000698Y008917D02*
X002422Y008917D01*
X002392Y008818D02*
X000698Y008818D01*
X000698Y008720D02*
X002852Y008720D01*
X002852Y008818D02*
X002952Y008818D01*
X002952Y008720D02*
X003732Y008720D01*
X003732Y008818D02*
X003412Y008818D01*
X003381Y008917D02*
X003732Y008917D01*
X003732Y009015D02*
X003325Y009015D01*
X003234Y009114D02*
X003732Y009114D01*
X003732Y008621D02*
X003414Y008621D01*
X003409Y008591D02*
X003420Y008663D01*
X002952Y008663D01*
X002952Y008194D01*
X003023Y008205D01*
X003101Y008231D01*
X003174Y008268D01*
X003240Y008316D01*
X003298Y008374D01*
X003346Y008440D01*
X003384Y008513D01*
X003409Y008591D01*
X003387Y008523D02*
X003732Y008523D01*
X003773Y008424D02*
X003335Y008424D01*
X003250Y008326D02*
X003814Y008326D01*
X003855Y008227D02*
X003090Y008227D01*
X002952Y008227D02*
X002852Y008227D01*
X002852Y008326D02*
X002952Y008326D01*
X002952Y008424D02*
X002852Y008424D01*
X002852Y008523D02*
X002952Y008523D01*
X002952Y008621D02*
X002852Y008621D01*
X002852Y008917D02*
X002952Y008917D01*
X002952Y009015D02*
X002852Y009015D01*
X002852Y009114D02*
X002952Y009114D01*
X002390Y008621D02*
X000698Y008621D01*
X000698Y008523D02*
X002417Y008523D01*
X002469Y008424D02*
X000698Y008424D01*
X000698Y008326D02*
X002553Y008326D01*
X002713Y008227D02*
X000698Y008227D01*
X000698Y008129D02*
X003922Y008129D01*
X004021Y008030D02*
X000698Y008030D01*
X000698Y007932D02*
X004119Y007932D01*
X004323Y007833D02*
X000698Y007833D01*
X000698Y007735D02*
X010244Y007735D01*
X010145Y007636D02*
X000698Y007636D01*
X000698Y007538D02*
X010138Y007538D01*
X010138Y007439D02*
X000698Y007439D01*
X000698Y007341D02*
X010138Y007341D01*
X010138Y007242D02*
X000698Y007242D01*
X000698Y012266D02*
X006416Y012266D01*
X006318Y012364D02*
X000698Y012364D01*
X000698Y012463D02*
X006219Y012463D01*
X006121Y012561D02*
X000698Y012561D01*
X000698Y012660D02*
X006022Y012660D01*
X005924Y012758D02*
X000698Y012758D01*
X000698Y012857D02*
X005825Y012857D01*
X007545Y014531D02*
X009626Y014531D01*
X009600Y014433D02*
X007643Y014433D01*
X007742Y014334D02*
X009574Y014334D01*
X009560Y014236D02*
X007840Y014236D01*
X007939Y014137D02*
X009560Y014137D01*
X009560Y014039D02*
X008037Y014039D01*
X008136Y013940D02*
X009568Y013940D01*
X009594Y013842D02*
X008234Y013842D01*
X008333Y013743D02*
X009621Y013743D01*
X009653Y013645D02*
X008431Y013645D01*
X008530Y013546D02*
X009710Y013546D01*
X009767Y013448D02*
X008628Y013448D01*
X008727Y013349D02*
X009841Y013349D01*
X009939Y013251D02*
X008825Y013251D01*
X008924Y013152D02*
X010048Y013152D01*
X010218Y013054D02*
X009022Y013054D01*
X009121Y012955D02*
X010495Y012955D01*
X009810Y012266D02*
X011503Y012266D01*
X011503Y012364D02*
X009712Y012364D01*
X009613Y012463D02*
X011503Y012463D01*
X011503Y012561D02*
X009515Y012561D01*
X009416Y012660D02*
X011503Y012660D01*
X011503Y012758D02*
X009318Y012758D01*
X009219Y012857D02*
X011503Y012857D01*
X011503Y012167D02*
X009909Y012167D01*
X010007Y012069D02*
X011503Y012069D01*
X011503Y011970D02*
X010106Y011970D01*
X010204Y011872D02*
X011503Y011872D01*
X011503Y011773D02*
X010303Y011773D01*
X010401Y011675D02*
X011503Y011675D01*
X011503Y011576D02*
X010500Y011576D01*
X010598Y011478D02*
X011503Y011478D01*
X011503Y011379D02*
X010680Y011379D01*
X010737Y011281D02*
X011503Y011281D01*
X011503Y011182D02*
X010794Y011182D01*
X010832Y011084D02*
X011503Y011084D01*
X011503Y010985D02*
X010858Y010985D01*
X010885Y010887D02*
X011503Y010887D01*
X011503Y010788D02*
X010934Y010788D01*
X011033Y010690D02*
X011503Y010690D01*
X011503Y010591D02*
X011131Y010591D01*
X011230Y010493D02*
X011503Y010493D01*
X011503Y010394D02*
X011328Y010394D01*
X011427Y010296D02*
X011503Y010296D01*
X010810Y007735D02*
X010710Y007735D01*
X010710Y007636D02*
X010810Y007636D01*
X010810Y007538D02*
X010710Y007538D01*
X010710Y007439D02*
X010810Y007439D01*
X010810Y007341D02*
X010710Y007341D01*
X010710Y007045D02*
X010810Y007045D01*
X010810Y006947D02*
X010710Y006947D01*
X010710Y006848D02*
X010810Y006848D01*
X010810Y006750D02*
X010710Y006750D01*
X010710Y006651D02*
X010810Y006651D01*
X010810Y006553D02*
X010710Y006553D01*
X011351Y006553D02*
X012483Y006553D01*
X012384Y006651D02*
X011383Y006651D01*
X011383Y006750D02*
X012286Y006750D01*
X012187Y006848D02*
X011383Y006848D01*
X011383Y006947D02*
X012089Y006947D01*
X011990Y007045D02*
X011383Y007045D01*
X012778Y006257D02*
X007856Y006257D01*
X008010Y006207D02*
X008010Y006207D01*
X008077Y006159D02*
X012877Y006159D01*
X012881Y006060D02*
X008212Y006060D01*
X008314Y005962D02*
X012881Y005962D01*
X012881Y005863D02*
X008386Y005863D01*
X008457Y005765D02*
X012881Y005765D01*
X012881Y005666D02*
X008497Y005666D01*
X008471Y005746D02*
X008471Y005746D01*
X008529Y005568D02*
X012881Y005568D01*
X012881Y005469D02*
X008561Y005469D01*
X008572Y005371D02*
X012881Y005371D01*
X012881Y005272D02*
X008572Y005272D01*
X008572Y005174D02*
X011541Y005174D01*
X011561Y005184D02*
X011485Y005145D01*
X011416Y005095D01*
X011356Y005035D01*
X011306Y004966D01*
X011267Y004891D01*
X011241Y004810D01*
X011229Y004733D01*
X012108Y004733D01*
X012108Y005223D01*
X011725Y005223D01*
X011641Y005210D01*
X011561Y005184D01*
X011396Y005075D02*
X008572Y005075D01*
X008572Y004977D02*
X011313Y004977D01*
X011263Y004878D02*
X008572Y004878D01*
X008572Y004780D02*
X011236Y004780D01*
X011229Y004633D02*
X011241Y004557D01*
X011267Y004476D01*
X011306Y004400D01*
X011356Y004332D01*
X011416Y004271D01*
X011485Y004221D01*
X011561Y004183D01*
X011641Y004157D01*
X011725Y004143D01*
X012108Y004143D01*
X012108Y004633D01*
X011229Y004633D01*
X011237Y004583D02*
X008572Y004583D01*
X008572Y004681D02*
X012108Y004681D01*
X012108Y004583D02*
X012208Y004583D01*
X012208Y004484D02*
X012108Y004484D01*
X012108Y004386D02*
X012208Y004386D01*
X012208Y004287D02*
X012108Y004287D01*
X012108Y004189D02*
X012208Y004189D01*
X012766Y004189D02*
X012881Y004189D01*
X012881Y004090D02*
X008572Y004090D01*
X008572Y003992D02*
X012881Y003992D01*
X012881Y003893D02*
X008572Y003893D01*
X008572Y003795D02*
X012881Y003795D01*
X012881Y003696D02*
X008572Y003696D01*
X008572Y003598D02*
X012881Y003598D01*
X012881Y003499D02*
X012846Y003499D01*
X012835Y001923D02*
X012881Y001923D01*
X012881Y001825D02*
X008572Y001825D01*
X008572Y001923D02*
X011481Y001923D01*
X011272Y002022D02*
X008572Y002022D01*
X008572Y002120D02*
X011173Y002120D01*
X011075Y002219D02*
X008572Y002219D01*
X008572Y002317D02*
X011023Y002317D01*
X010982Y002416D02*
X008572Y002416D01*
X008572Y002514D02*
X010941Y002514D01*
X010928Y002613D02*
X008572Y002613D01*
X008572Y002711D02*
X010928Y002711D01*
X010928Y002810D02*
X008572Y002810D01*
X008572Y002908D02*
X010939Y002908D01*
X010980Y003007D02*
X008572Y003007D01*
X008572Y003105D02*
X011021Y003105D01*
X011070Y003204D02*
X008572Y003204D01*
X008572Y003302D02*
X011169Y003302D01*
X011267Y003401D02*
X008572Y003401D01*
X008572Y003499D02*
X011470Y003499D01*
X011550Y004189D02*
X008572Y004189D01*
X008572Y004287D02*
X011400Y004287D01*
X011317Y004386D02*
X008572Y004386D01*
X008572Y004484D02*
X011265Y004484D01*
X012108Y004780D02*
X012208Y004780D01*
X012208Y004878D02*
X012108Y004878D01*
X012108Y004977D02*
X012208Y004977D01*
X012208Y005075D02*
X012108Y005075D01*
X012108Y005174D02*
X012208Y005174D01*
X012775Y005174D02*
X012881Y005174D01*
X012881Y001726D02*
X008572Y001726D01*
X008572Y001628D02*
X012884Y001628D01*
X012925Y001529D02*
X008572Y001529D01*
X008572Y001431D02*
X012966Y001431D01*
X013006Y001332D02*
X008572Y001332D01*
X008572Y001234D02*
X013077Y001234D01*
X013176Y001135D02*
X008572Y001135D01*
X008572Y001037D02*
X013274Y001037D01*
X013373Y000938D02*
X008572Y000938D01*
X008572Y000840D02*
X013471Y000840D01*
X021525Y009705D02*
X022116Y009705D01*
X022018Y009803D02*
X021426Y009803D01*
X021328Y009902D02*
X021919Y009902D01*
X021821Y010000D02*
X021229Y010000D01*
X021131Y010099D02*
X021722Y010099D01*
X021624Y010197D02*
X021032Y010197D01*
X020934Y010296D02*
X021525Y010296D01*
X021427Y010394D02*
X020835Y010394D01*
X020737Y010493D02*
X021328Y010493D01*
X021230Y010591D02*
X020638Y010591D01*
X020540Y010690D02*
X021131Y010690D01*
X021033Y010788D02*
X020441Y010788D01*
X020343Y010887D02*
X020934Y010887D01*
X020836Y010985D02*
X020244Y010985D01*
X020146Y011084D02*
X020737Y011084D01*
X020639Y011182D02*
X020047Y011182D01*
X019949Y011281D02*
X020540Y011281D01*
X020442Y011379D02*
X019850Y011379D01*
X019752Y011478D02*
X020343Y011478D01*
X020245Y011576D02*
X019653Y011576D01*
X019555Y011675D02*
X020146Y011675D01*
X020048Y011773D02*
X019456Y011773D01*
X019358Y011872D02*
X019949Y011872D01*
X019875Y011970D02*
X019259Y011970D01*
X019161Y012069D02*
X019786Y012069D01*
X019687Y012167D02*
X019062Y012167D01*
X018964Y012266D02*
X019599Y012266D01*
X019533Y012364D02*
X018865Y012364D01*
X018767Y012463D02*
X019467Y012463D01*
X019401Y012561D02*
X018668Y012561D01*
X018570Y012660D02*
X019336Y012660D01*
X019286Y012758D02*
X018476Y012758D01*
X018476Y012857D02*
X019245Y012857D01*
X019204Y012955D02*
X018476Y012955D01*
X018476Y013054D02*
X019163Y013054D01*
X019122Y013152D02*
X018476Y013152D01*
X018476Y013251D02*
X019091Y013251D01*
X019071Y013349D02*
X018476Y013349D01*
X018476Y013448D02*
X019052Y013448D01*
X019032Y013546D02*
X018476Y013546D01*
X018476Y013645D02*
X019013Y013645D01*
X018993Y013743D02*
X018476Y013743D01*
X018476Y013842D02*
X018991Y013842D01*
X018991Y013940D02*
X018476Y013940D01*
X018476Y014039D02*
X018991Y014039D01*
X018991Y014137D02*
X018476Y014137D01*
X018476Y014236D02*
X018991Y014236D01*
X018991Y014334D02*
X018476Y014334D01*
X018476Y014433D02*
X018991Y014433D01*
X018991Y014531D02*
X018476Y014531D01*
X018476Y014630D02*
X018991Y014630D01*
X018991Y014728D02*
X018476Y014728D01*
X018476Y014827D02*
X018991Y014827D01*
X018991Y014925D02*
X018476Y014925D01*
X018476Y015024D02*
X018991Y015024D01*
X018991Y015122D02*
X018476Y015122D01*
X018476Y015221D02*
X018991Y015221D01*
X018991Y015319D02*
X018476Y015319D01*
X018476Y015418D02*
X018991Y015418D01*
X018991Y015516D02*
X018476Y015516D01*
X018476Y015615D02*
X018991Y015615D01*
X018991Y015713D02*
X018476Y015713D01*
X018476Y015812D02*
X018991Y015812D01*
X018991Y015910D02*
X018476Y015910D01*
X018476Y016009D02*
X018991Y016009D01*
X018991Y016107D02*
X018476Y016107D01*
X018476Y016206D02*
X018991Y016206D01*
X018991Y016304D02*
X018476Y016304D01*
X018476Y016403D02*
X018991Y016403D01*
X018991Y016501D02*
X018476Y016501D01*
X018476Y016600D02*
X018991Y016600D01*
X018991Y016698D02*
X018476Y016698D01*
X018476Y016797D02*
X018991Y016797D01*
X018991Y016895D02*
X018476Y016895D01*
X018476Y016994D02*
X018991Y016994D01*
X018991Y017092D02*
X018476Y017092D01*
X018476Y017191D02*
X018991Y017191D01*
X018991Y017289D02*
X018476Y017289D01*
X018476Y017388D02*
X018991Y017388D01*
X018991Y017486D02*
X018476Y017486D01*
X018476Y017585D02*
X018991Y017585D01*
X018991Y017683D02*
X018476Y017683D01*
X018476Y017782D02*
X018991Y017782D01*
X018991Y017880D02*
X018476Y017880D01*
X018476Y017979D02*
X018991Y017979D01*
X018991Y018077D02*
X018476Y018077D01*
X018476Y018176D02*
X018991Y018176D01*
X018991Y018274D02*
X018476Y018274D01*
X018476Y018373D02*
X018991Y018373D01*
X018991Y018471D02*
X018476Y018471D01*
X018476Y018570D02*
X018991Y018570D01*
X018991Y018668D02*
X018476Y018668D01*
X018476Y018767D02*
X018991Y018767D01*
X018991Y018865D02*
X018476Y018865D01*
X018476Y018964D02*
X018991Y018964D01*
X018991Y019062D02*
X018476Y019062D01*
X018476Y019161D02*
X018991Y019161D01*
X018991Y019259D02*
X018476Y019259D01*
X018476Y019358D02*
X018991Y019358D01*
X018991Y019456D02*
X018476Y019456D01*
X018476Y019555D02*
X018991Y019555D01*
X018991Y019653D02*
X018476Y019653D01*
X018476Y019752D02*
X018991Y019752D01*
X018991Y019850D02*
X018476Y019850D01*
X018476Y019949D02*
X018991Y019949D01*
X018991Y020047D02*
X018476Y020047D01*
X018461Y020146D02*
X018991Y020146D01*
X018991Y020244D02*
X018435Y020244D01*
X018409Y020343D02*
X018991Y020343D01*
X018991Y020441D02*
X018369Y020441D01*
X018312Y020540D02*
X018991Y020540D01*
X018991Y020638D02*
X018255Y020638D01*
X018170Y020737D02*
X018991Y020737D01*
X018991Y020835D02*
X018071Y020835D01*
X017973Y020934D02*
X018991Y020934D01*
X018991Y021032D02*
X017874Y021032D01*
X017776Y021131D02*
X018991Y021131D01*
X018991Y021229D02*
X017677Y021229D01*
X017579Y021328D02*
X018991Y021328D01*
X018991Y021426D02*
X017480Y021426D01*
X017382Y021525D02*
X018991Y021525D01*
X018991Y021623D02*
X017283Y021623D01*
X017185Y021722D02*
X018991Y021722D01*
X018991Y021820D02*
X017086Y021820D01*
X016988Y021919D02*
X018991Y021919D01*
X018991Y022017D02*
X016889Y022017D01*
X016791Y022116D02*
X018991Y022116D01*
X018991Y022214D02*
X016692Y022214D01*
X016594Y022313D02*
X018991Y022313D01*
X018991Y022411D02*
X016495Y022411D01*
X016397Y022510D02*
X018991Y022510D01*
X018991Y022608D02*
X016298Y022608D01*
X016200Y022707D02*
X018991Y022707D01*
X018991Y022805D02*
X016101Y022805D01*
X016003Y022904D02*
X018991Y022904D01*
X018991Y023002D02*
X015904Y023002D01*
X015806Y023101D02*
X018991Y023101D01*
X018991Y023199D02*
X015707Y023199D01*
X015622Y023298D02*
X018991Y023298D01*
X018991Y023396D02*
X015622Y023396D01*
X015622Y023495D02*
X018991Y023495D01*
X018991Y023593D02*
X015622Y023593D01*
X015622Y023692D02*
X018991Y023692D01*
X018991Y023790D02*
X015622Y023790D01*
X015622Y023889D02*
X018991Y023889D01*
X018991Y023987D02*
X015622Y023987D01*
X015622Y024086D02*
X018991Y024086D01*
X018991Y024184D02*
X015622Y024184D01*
X015622Y024283D02*
X018991Y024283D01*
X018991Y024381D02*
X015622Y024381D01*
X015622Y024480D02*
X018991Y024480D01*
X018991Y024578D02*
X015622Y024578D01*
X015622Y024677D02*
X018991Y024677D01*
X018991Y024775D02*
X015622Y024775D01*
X015622Y024874D02*
X018991Y024874D01*
X018991Y024972D02*
X015622Y024972D01*
X015622Y025071D02*
X018991Y025071D01*
X018991Y025169D02*
X015622Y025169D01*
X015622Y025268D02*
X018991Y025268D01*
X018991Y025366D02*
X015622Y025366D01*
X015622Y025465D02*
X018991Y025465D01*
X018991Y025563D02*
X015622Y025563D01*
X015622Y025662D02*
X018991Y025662D01*
X018991Y025760D02*
X015622Y025760D01*
X015622Y025859D02*
X018991Y025859D01*
X018991Y025957D02*
X015622Y025957D01*
X015622Y026056D02*
X018991Y026056D01*
X018991Y026154D02*
X015622Y026154D01*
X015622Y026253D02*
X018991Y026253D01*
X018991Y026351D02*
X015622Y026351D01*
X015622Y026450D02*
X018991Y026450D01*
X018991Y026548D02*
X015622Y026548D01*
X015622Y026647D02*
X018991Y026647D01*
X018991Y026745D02*
X015622Y026745D01*
X015622Y026844D02*
X018991Y026844D01*
X018991Y026942D02*
X015622Y026942D01*
X015622Y027041D02*
X018991Y027041D01*
X018991Y027139D02*
X015622Y027139D01*
X015622Y027238D02*
X018991Y027238D01*
X018991Y027336D02*
X015622Y027336D01*
X015622Y027435D02*
X018991Y027435D01*
X018991Y027533D02*
X015622Y027533D01*
X015622Y027632D02*
X018991Y027632D01*
X018991Y027730D02*
X015622Y027730D01*
X015622Y027829D02*
X018991Y027829D01*
X018991Y027927D02*
X015622Y027927D01*
X015600Y028026D02*
X018991Y028026D01*
X018991Y028124D02*
X015574Y028124D01*
X015547Y028223D02*
X018991Y028223D01*
X018991Y028321D02*
X015499Y028321D01*
X015443Y028420D02*
X018991Y028420D01*
X018991Y028518D02*
X015386Y028518D01*
X015290Y028617D02*
X018991Y028617D01*
X018991Y028715D02*
X015191Y028715D01*
X015093Y028814D02*
X018991Y028814D01*
X018991Y028912D02*
X014994Y028912D01*
X014896Y029011D02*
X018991Y029011D01*
X018991Y029109D02*
X014797Y029109D01*
X014699Y029208D02*
X018991Y029208D01*
X018991Y029306D02*
X014600Y029306D01*
X014502Y029405D02*
X018991Y029405D01*
X018991Y029503D02*
X014403Y029503D01*
X014305Y029602D02*
X018991Y029602D01*
X018991Y029700D02*
X014206Y029700D01*
X014108Y029799D02*
X018991Y029799D01*
X018991Y029897D02*
X014009Y029897D01*
X013911Y029996D02*
X018991Y029996D01*
X018991Y030094D02*
X013812Y030094D01*
X013714Y030193D02*
X018991Y030193D01*
X018991Y030291D02*
X013615Y030291D01*
X013517Y030390D02*
X018991Y030390D01*
X018991Y030488D02*
X013418Y030488D01*
X013320Y030587D02*
X018991Y030587D01*
X018991Y030685D02*
X013221Y030685D01*
X013123Y030784D02*
X018991Y030784D01*
X019000Y030882D02*
X013024Y030882D01*
X012926Y030981D02*
X019019Y030981D01*
X019039Y031079D02*
X012827Y031079D01*
X012729Y031178D02*
X019058Y031178D01*
X019078Y031276D02*
X012630Y031276D01*
X012532Y031375D02*
X019098Y031375D01*
X019136Y031473D02*
X012433Y031473D01*
X012335Y031572D02*
X019177Y031572D01*
X019218Y031670D02*
X012236Y031670D01*
X012138Y031769D02*
X019259Y031769D01*
X019300Y031867D02*
X012039Y031867D01*
X011941Y031966D02*
X019358Y031966D01*
X019424Y032064D02*
X011842Y032064D01*
X011744Y032163D02*
X019490Y032163D01*
X019556Y032261D02*
X011645Y032261D01*
X011547Y032360D02*
X019623Y032360D01*
X019721Y032458D02*
X011413Y032458D01*
X011242Y032557D02*
X014094Y032557D01*
X014075Y032655D02*
X004817Y032655D01*
X005053Y032754D02*
X014075Y032754D01*
X014075Y032852D02*
X005218Y032852D01*
X005317Y032951D02*
X014075Y032951D01*
X014075Y033049D02*
X005415Y033049D01*
X005514Y033148D02*
X014647Y033148D01*
X014647Y033049D02*
X014747Y033049D01*
X014747Y033053D02*
X014747Y032480D01*
X015189Y032480D01*
X015228Y032491D01*
X015262Y032510D01*
X015290Y032538D01*
X015309Y032572D01*
X015320Y032611D01*
X015320Y033053D01*
X014747Y033053D01*
X014747Y033148D02*
X020676Y033148D01*
X020747Y033219D02*
X020747Y033219D01*
X020774Y033246D02*
X015320Y033246D01*
X015320Y033345D02*
X020873Y033345D01*
X020971Y033443D02*
X015320Y033443D01*
X015320Y033049D02*
X020462Y033049D01*
X020314Y032951D02*
X015320Y032951D01*
X015320Y032852D02*
X020167Y032852D01*
X020020Y032754D02*
X015320Y032754D01*
X015320Y032655D02*
X019918Y032655D01*
X019820Y032557D02*
X015300Y032557D01*
X014747Y032557D02*
X014647Y032557D01*
X014647Y032655D02*
X014747Y032655D01*
X014747Y032754D02*
X014647Y032754D01*
X014647Y032852D02*
X014747Y032852D01*
X014747Y032951D02*
X014647Y032951D01*
X014075Y033246D02*
X005612Y033246D01*
X005711Y033345D02*
X014075Y033345D01*
X014075Y033443D02*
X005809Y033443D01*
X004594Y032200D02*
X004534Y032261D01*
X004465Y032311D01*
X004389Y032349D01*
X004308Y032375D01*
X004224Y032389D01*
X003842Y032389D01*
X003842Y031899D01*
X003742Y031899D01*
X003742Y032389D01*
X003359Y032389D01*
X003275Y032375D01*
X003194Y032349D01*
X003119Y032311D01*
X003050Y032261D01*
X002990Y032200D01*
X002940Y032132D01*
X002901Y032056D01*
X002875Y031975D01*
X002863Y031899D01*
X003742Y031899D01*
X003742Y031799D01*
X003842Y031799D01*
X003842Y031899D01*
X004721Y031899D01*
X004708Y031975D01*
X004682Y032056D01*
X004644Y032132D01*
X004594Y032200D01*
X004621Y032163D02*
X009786Y032163D01*
X009875Y032261D02*
X004533Y032261D01*
X004357Y032360D02*
X009974Y032360D01*
X010108Y032458D02*
X000698Y032458D01*
X000698Y032360D02*
X003227Y032360D01*
X003051Y032261D02*
X000698Y032261D01*
X000698Y032163D02*
X002962Y032163D01*
X002905Y032064D02*
X000698Y032064D01*
X000698Y031966D02*
X002874Y031966D01*
X002863Y031799D02*
X002875Y031722D01*
X002901Y031641D01*
X002940Y031566D01*
X002990Y031497D01*
X003050Y031437D01*
X003119Y031387D01*
X003194Y031348D01*
X003275Y031322D01*
X003359Y031309D01*
X003742Y031309D01*
X003742Y031799D01*
X002863Y031799D01*
X002868Y031769D02*
X000698Y031769D01*
X000698Y031867D02*
X003742Y031867D01*
X003742Y031769D02*
X003842Y031769D01*
X003842Y031799D02*
X003842Y031309D01*
X004224Y031309D01*
X004308Y031322D01*
X004389Y031348D01*
X004465Y031387D01*
X004534Y031437D01*
X004594Y031497D01*
X004644Y031566D01*
X004682Y031641D01*
X004708Y031722D01*
X004721Y031799D01*
X003842Y031799D01*
X003842Y031867D02*
X009501Y031867D01*
X009599Y031966D02*
X004710Y031966D01*
X004678Y032064D02*
X009698Y032064D01*
X009402Y031769D02*
X004716Y031769D01*
X004691Y031670D02*
X009304Y031670D01*
X009205Y031572D02*
X004647Y031572D01*
X004570Y031473D02*
X009107Y031473D01*
X009008Y031375D02*
X004441Y031375D01*
X003842Y031375D02*
X003742Y031375D01*
X003742Y031473D02*
X003842Y031473D01*
X003842Y031572D02*
X003742Y031572D01*
X003742Y031670D02*
X003842Y031670D01*
X003842Y031966D02*
X003742Y031966D01*
X003742Y032064D02*
X003842Y032064D01*
X003842Y032163D02*
X003742Y032163D01*
X003742Y032261D02*
X003842Y032261D01*
X003842Y032360D02*
X003742Y032360D01*
X003449Y032655D02*
X000698Y032655D01*
X000698Y032557D02*
X010278Y032557D01*
X008910Y031276D02*
X000698Y031276D01*
X000698Y031178D02*
X008811Y031178D01*
X008713Y031079D02*
X000698Y031079D01*
X000698Y030981D02*
X003313Y030981D01*
X003143Y030882D02*
X000698Y030882D01*
X000698Y030784D02*
X003010Y030784D01*
X002911Y030685D02*
X000698Y030685D01*
X000698Y030587D02*
X002821Y030587D01*
X002764Y030488D02*
X000698Y030488D01*
X000698Y030390D02*
X002707Y030390D01*
X002663Y030291D02*
X000698Y030291D01*
X000698Y030193D02*
X002627Y030193D01*
X002586Y030094D02*
X000698Y030094D01*
X000698Y029996D02*
X002562Y029996D01*
X002562Y029897D02*
X000698Y029897D01*
X000698Y029799D02*
X002562Y029799D01*
X002562Y029700D02*
X000698Y029700D01*
X000698Y029602D02*
X002603Y029602D01*
X002731Y029306D02*
X000698Y029306D01*
X000698Y029208D02*
X002788Y029208D01*
X002854Y029109D02*
X000698Y029109D01*
X000698Y029011D02*
X002953Y029011D01*
X003051Y028912D02*
X000698Y028912D01*
X000698Y028814D02*
X003219Y028814D01*
X003461Y028715D02*
X000698Y028715D01*
X000698Y028617D02*
X011896Y028617D01*
X011797Y028715D02*
X009515Y028715D01*
X009768Y028814D02*
X011699Y028814D01*
X011600Y028912D02*
X009938Y028912D01*
X010038Y029011D02*
X011502Y029011D01*
X011403Y029109D02*
X010137Y029109D01*
X010165Y029138D02*
X010165Y029138D01*
X010235Y029208D02*
X011305Y029208D01*
X011206Y029306D02*
X010334Y029306D01*
X010432Y029405D02*
X011108Y029405D01*
X011009Y029503D02*
X010531Y029503D01*
X010629Y029602D02*
X010911Y029602D01*
X010812Y029700D02*
X010728Y029700D01*
X011994Y028518D02*
X000698Y028518D01*
X000698Y028420D02*
X003217Y028420D01*
X003194Y028412D02*
X003119Y028374D01*
X003050Y028324D01*
X002990Y028263D01*
X002940Y028195D01*
X002901Y028119D01*
X002875Y028038D01*
X002863Y027962D01*
X003742Y027962D01*
X003742Y028452D01*
X003359Y028452D01*
X003275Y028438D01*
X003194Y028412D01*
X003047Y028321D02*
X000698Y028321D01*
X000698Y028223D02*
X002960Y028223D01*
X002904Y028124D02*
X000698Y028124D01*
X000698Y028026D02*
X002873Y028026D01*
X002863Y027862D02*
X002875Y027785D01*
X002901Y027704D01*
X002940Y027629D01*
X002990Y027560D01*
X003050Y027500D01*
X003119Y027450D01*
X003194Y027411D01*
X003275Y027385D01*
X003359Y027372D01*
X003742Y027372D01*
X003742Y027862D01*
X002863Y027862D01*
X002868Y027829D02*
X000698Y027829D01*
X000698Y027927D02*
X003742Y027927D01*
X003742Y027962D02*
X003742Y027862D01*
X003842Y027862D01*
X003842Y027962D01*
X003742Y027962D01*
X003742Y028026D02*
X003842Y028026D01*
X003842Y027962D02*
X003842Y028452D01*
X004224Y028452D01*
X004308Y028438D01*
X004389Y028412D01*
X004465Y028374D01*
X004534Y028324D01*
X004594Y028263D01*
X004644Y028195D01*
X004682Y028119D01*
X004708Y028038D01*
X004721Y027962D01*
X003842Y027962D01*
X003842Y027927D02*
X012585Y027927D01*
X012487Y028026D02*
X004710Y028026D01*
X004680Y028124D02*
X012388Y028124D01*
X012290Y028223D02*
X004623Y028223D01*
X004536Y028321D02*
X012191Y028321D01*
X012093Y028420D02*
X004366Y028420D01*
X003842Y028420D02*
X003742Y028420D01*
X003742Y028321D02*
X003842Y028321D01*
X003842Y028223D02*
X003742Y028223D01*
X003742Y028124D02*
X003842Y028124D01*
X003842Y027862D02*
X004721Y027862D01*
X004708Y027785D01*
X004682Y027704D01*
X004644Y027629D01*
X004594Y027560D01*
X004534Y027500D01*
X004465Y027450D01*
X004389Y027411D01*
X004308Y027385D01*
X004224Y027372D01*
X003842Y027372D01*
X003842Y027862D01*
X003842Y027829D02*
X003742Y027829D01*
X003742Y027730D02*
X003842Y027730D01*
X003842Y027632D02*
X003742Y027632D01*
X003742Y027533D02*
X003842Y027533D01*
X003842Y027435D02*
X003742Y027435D01*
X003505Y027238D02*
X000698Y027238D01*
X000698Y027336D02*
X013176Y027336D01*
X013222Y027238D02*
X012155Y027238D01*
X012325Y027139D02*
X013222Y027139D01*
X013222Y027041D02*
X012456Y027041D01*
X012555Y026942D02*
X013222Y026942D01*
X013222Y026844D02*
X012653Y026844D01*
X012752Y026745D02*
X013222Y026745D01*
X013222Y026647D02*
X012850Y026647D01*
X012949Y026548D02*
X013222Y026548D01*
X013222Y026450D02*
X013047Y026450D01*
X013146Y026351D02*
X013222Y026351D01*
X013190Y026307D02*
X013190Y026307D01*
X013078Y027435D02*
X004435Y027435D01*
X004567Y027533D02*
X012979Y027533D01*
X012881Y027632D02*
X004645Y027632D01*
X004691Y027730D02*
X012782Y027730D01*
X012684Y027829D02*
X004715Y027829D01*
X003335Y027139D02*
X000698Y027139D01*
X000698Y027041D02*
X003204Y027041D01*
X003105Y026942D02*
X000698Y026942D01*
X000698Y026844D02*
X003007Y026844D01*
X002908Y026745D02*
X000698Y026745D01*
X000698Y026647D02*
X002819Y026647D01*
X002762Y026548D02*
X000698Y026548D01*
X000698Y026450D02*
X002705Y026450D01*
X002662Y026351D02*
X000698Y026351D01*
X000698Y026253D02*
X002625Y026253D01*
X002585Y026154D02*
X000698Y026154D01*
X000698Y026056D02*
X002562Y026056D01*
X002562Y025957D02*
X000698Y025957D01*
X000698Y025859D02*
X002562Y025859D01*
X002564Y025760D02*
X000698Y025760D01*
X000698Y025662D02*
X002604Y025662D01*
X002645Y025563D02*
X000698Y025563D01*
X000698Y025465D02*
X002676Y025465D01*
X002733Y025366D02*
X000698Y025366D01*
X000698Y025268D02*
X002790Y025268D01*
X002857Y025169D02*
X000698Y025169D01*
X000698Y025071D02*
X002956Y025071D01*
X003054Y024972D02*
X000698Y024972D01*
X000698Y024874D02*
X003224Y024874D01*
X003472Y024775D02*
X000698Y024775D01*
X000698Y024677D02*
X010138Y024677D01*
X010138Y024775D02*
X004112Y024775D01*
X004359Y024874D02*
X010138Y024874D01*
X010138Y024578D02*
X000698Y024578D01*
X000698Y024480D02*
X003208Y024480D01*
X003194Y024475D02*
X003119Y024436D01*
X003050Y024387D01*
X002990Y024326D01*
X002940Y024258D01*
X002901Y024182D01*
X002875Y024101D01*
X002863Y024025D01*
X003742Y024025D01*
X003742Y024515D01*
X003359Y024515D01*
X003275Y024501D01*
X003194Y024475D01*
X003044Y024381D02*
X000698Y024381D01*
X000698Y024283D02*
X002958Y024283D01*
X002902Y024184D02*
X000698Y024184D01*
X000698Y024086D02*
X002873Y024086D01*
X002863Y023925D02*
X002875Y023848D01*
X002901Y023767D01*
X002940Y023692D01*
X002990Y023623D01*
X003050Y023563D01*
X003119Y023513D01*
X003194Y023474D01*
X003275Y023448D01*
X003359Y023435D01*
X003742Y023435D01*
X003742Y023925D01*
X002863Y023925D01*
X002869Y023889D02*
X000698Y023889D01*
X000698Y023987D02*
X003742Y023987D01*
X003742Y024025D02*
X003742Y023925D01*
X003842Y023925D01*
X003842Y024025D01*
X003742Y024025D01*
X003742Y024086D02*
X003842Y024086D01*
X003842Y024025D02*
X003842Y024515D01*
X004224Y024515D01*
X004308Y024501D01*
X004389Y024475D01*
X004465Y024436D01*
X004534Y024387D01*
X004594Y024326D01*
X004644Y024258D01*
X004682Y024182D01*
X004708Y024101D01*
X004721Y024025D01*
X003842Y024025D01*
X003842Y023987D02*
X010138Y023987D01*
X010138Y024086D02*
X004711Y024086D01*
X004681Y024184D02*
X010138Y024184D01*
X010138Y024283D02*
X004625Y024283D01*
X004539Y024381D02*
X010138Y024381D01*
X010161Y023889D02*
X004715Y023889D01*
X004721Y023925D02*
X003842Y023925D01*
X003842Y023435D01*
X004224Y023435D01*
X004308Y023448D01*
X004389Y023474D01*
X004465Y023513D01*
X004534Y023563D01*
X004594Y023623D01*
X004644Y023692D01*
X004682Y023767D01*
X004708Y023848D01*
X004721Y023925D01*
X004690Y023790D02*
X010096Y023790D01*
X009967Y023692D02*
X004644Y023692D01*
X004564Y023593D02*
X009868Y023593D01*
X009783Y023495D02*
X004429Y023495D01*
X003842Y023495D02*
X003742Y023495D01*
X003742Y023593D02*
X003842Y023593D01*
X003842Y023692D02*
X003742Y023692D01*
X003742Y023790D02*
X003842Y023790D01*
X003842Y023889D02*
X003742Y023889D01*
X003742Y024184D02*
X003842Y024184D01*
X003842Y024283D02*
X003742Y024283D01*
X003742Y024381D02*
X003842Y024381D01*
X003842Y024480D02*
X003742Y024480D01*
X004375Y024480D02*
X010710Y024480D01*
X009726Y023396D02*
X000698Y023396D01*
X000698Y023298D02*
X009669Y023298D01*
X009628Y023199D02*
X000698Y023199D01*
X000698Y023101D02*
X003307Y023101D01*
X003137Y023002D02*
X000698Y023002D01*
X000698Y022904D02*
X003004Y022904D01*
X002905Y022805D02*
X000698Y022805D01*
X000698Y022707D02*
X002817Y022707D01*
X002760Y022608D02*
X000698Y022608D01*
X000698Y022510D02*
X002703Y022510D01*
X002661Y022411D02*
X000698Y022411D01*
X000698Y022313D02*
X002624Y022313D01*
X002583Y022214D02*
X000698Y022214D01*
X000698Y022116D02*
X002562Y022116D01*
X002562Y022017D02*
X000698Y022017D01*
X000698Y021919D02*
X002562Y021919D01*
X002565Y021820D02*
X000698Y021820D01*
X000698Y021722D02*
X002606Y021722D01*
X002646Y021623D02*
X000698Y021623D01*
X000698Y021525D02*
X002677Y021525D01*
X002734Y021426D02*
X000698Y021426D01*
X000698Y021328D02*
X002791Y021328D01*
X002860Y021229D02*
X000698Y021229D01*
X000698Y021131D02*
X002959Y021131D01*
X003059Y021032D02*
X000698Y021032D01*
X000698Y020934D02*
X003230Y020934D01*
X003483Y020835D02*
X000698Y020835D01*
X000698Y020737D02*
X007492Y020737D01*
X007591Y020638D02*
X000698Y020638D01*
X000698Y020540D02*
X003199Y020540D01*
X003194Y020538D02*
X003119Y020499D01*
X003050Y020450D01*
X002990Y020389D01*
X002940Y020321D01*
X002901Y020245D01*
X002875Y020164D01*
X002863Y020088D01*
X003742Y020088D01*
X003742Y020578D01*
X003359Y020578D01*
X003275Y020564D01*
X003194Y020538D01*
X003041Y020441D02*
X000698Y020441D01*
X000698Y020343D02*
X002956Y020343D01*
X002901Y020244D02*
X000698Y020244D01*
X000698Y020146D02*
X002872Y020146D01*
X002863Y019988D02*
X002875Y019911D01*
X002901Y019830D01*
X002940Y019755D01*
X002990Y019686D01*
X003050Y019626D01*
X003119Y019576D01*
X003194Y019537D01*
X003275Y019511D01*
X003359Y019498D01*
X003742Y019498D01*
X003742Y019988D01*
X002863Y019988D01*
X002869Y019949D02*
X000698Y019949D01*
X000698Y020047D02*
X003742Y020047D01*
X003742Y020088D02*
X003742Y019988D01*
X003842Y019988D01*
X003842Y020088D01*
X003742Y020088D01*
X003742Y020146D02*
X003842Y020146D01*
X003842Y020088D02*
X003842Y020578D01*
X004224Y020578D01*
X004308Y020564D01*
X004389Y020538D01*
X004465Y020499D01*
X004534Y020450D01*
X004594Y020389D01*
X004644Y020321D01*
X004682Y020245D01*
X004708Y020164D01*
X004721Y020088D01*
X003842Y020088D01*
X003842Y020047D02*
X006469Y020047D01*
X006342Y019949D02*
X004714Y019949D01*
X004708Y019911D02*
X004721Y019988D01*
X003842Y019988D01*
X003842Y019498D01*
X004224Y019498D01*
X004308Y019511D01*
X004389Y019537D01*
X004465Y019576D01*
X004534Y019626D01*
X004594Y019686D01*
X004644Y019755D01*
X004682Y019830D01*
X004708Y019911D01*
X004689Y019850D02*
X006244Y019850D01*
X006145Y019752D02*
X004641Y019752D01*
X004561Y019653D02*
X006047Y019653D01*
X005948Y019555D02*
X004423Y019555D01*
X003842Y019555D02*
X003742Y019555D01*
X003742Y019653D02*
X003842Y019653D01*
X003842Y019752D02*
X003742Y019752D01*
X003742Y019850D02*
X003842Y019850D01*
X003842Y019949D02*
X003742Y019949D01*
X003742Y020244D02*
X003842Y020244D01*
X003842Y020343D02*
X003742Y020343D01*
X003742Y020441D02*
X003842Y020441D01*
X003842Y020540D02*
X003742Y020540D01*
X004384Y020540D02*
X007689Y020540D01*
X007788Y020441D02*
X004542Y020441D01*
X004628Y020343D02*
X007886Y020343D01*
X006967Y020244D02*
X004682Y020244D01*
X004711Y020146D02*
X006640Y020146D01*
X005850Y019456D02*
X000698Y019456D01*
X000698Y019358D02*
X005751Y019358D01*
X007372Y017585D02*
X010743Y017585D01*
X010644Y017683D02*
X007471Y017683D01*
X007569Y017782D02*
X010546Y017782D01*
X010841Y017486D02*
X007274Y017486D01*
X007175Y017388D02*
X010940Y017388D01*
X011038Y017289D02*
X007077Y017289D01*
X006978Y017191D02*
X011137Y017191D01*
X011235Y017092D02*
X006872Y017092D01*
X006701Y016994D02*
X011253Y016994D01*
X011253Y016895D02*
X008816Y016895D01*
X008918Y016868D02*
X008653Y016939D01*
X008379Y016939D01*
X008115Y016868D01*
X007877Y016731D01*
X007683Y016537D01*
X007547Y016300D01*
X007476Y016035D01*
X007476Y015761D01*
X007547Y015496D01*
X007683Y015259D01*
X007877Y015065D01*
X008115Y014928D01*
X008379Y014857D01*
X008653Y014857D01*
X008918Y014928D01*
X009155Y015065D01*
X009349Y015259D01*
X009486Y015496D01*
X009557Y015761D01*
X009557Y016035D01*
X009486Y016300D01*
X009349Y016537D01*
X009155Y016731D01*
X008918Y016868D01*
X009041Y016797D02*
X011253Y016797D01*
X011253Y016698D02*
X009188Y016698D01*
X009286Y016600D02*
X011253Y016600D01*
X011253Y016501D02*
X009370Y016501D01*
X009426Y016403D02*
X011253Y016403D01*
X010810Y016304D02*
X010710Y016304D01*
X010710Y016402D02*
X010268Y016402D01*
X010230Y016392D01*
X010196Y016372D01*
X010168Y016344D01*
X010148Y016310D01*
X010138Y016272D01*
X010138Y015830D01*
X010710Y015830D01*
X010710Y016402D01*
X010710Y016206D02*
X010810Y016206D01*
X010810Y016107D02*
X010710Y016107D01*
X010710Y016009D02*
X010810Y016009D01*
X010810Y015910D02*
X010710Y015910D01*
X010710Y015812D02*
X009557Y015812D01*
X009557Y015910D02*
X010138Y015910D01*
X010138Y016009D02*
X009557Y016009D01*
X009537Y016107D02*
X010138Y016107D01*
X010138Y016206D02*
X009511Y016206D01*
X009483Y016304D02*
X010146Y016304D01*
X010138Y015713D02*
X009544Y015713D01*
X009517Y015615D02*
X010138Y015615D01*
X010138Y015516D02*
X009491Y015516D01*
X009440Y015418D02*
X010138Y015418D01*
X010138Y015319D02*
X009383Y015319D01*
X009310Y015221D02*
X010165Y015221D01*
X010085Y015122D02*
X009212Y015122D01*
X009083Y015024D02*
X009960Y015024D01*
X009862Y014925D02*
X008905Y014925D01*
X008127Y014925D02*
X007151Y014925D01*
X007249Y014827D02*
X009779Y014827D01*
X009722Y014728D02*
X007348Y014728D01*
X007446Y014630D02*
X009665Y014630D01*
X007950Y015024D02*
X007052Y015024D01*
X006924Y015122D02*
X007821Y015122D01*
X007722Y015221D02*
X006753Y015221D01*
X006422Y015319D02*
X007649Y015319D01*
X007592Y015418D02*
X000698Y015418D01*
X000698Y015516D02*
X007541Y015516D01*
X007515Y015615D02*
X004417Y015615D01*
X004389Y015600D02*
X004465Y015639D01*
X004534Y015689D01*
X004594Y015749D01*
X004644Y015818D01*
X004682Y015893D01*
X004708Y015974D01*
X004721Y016051D01*
X003842Y016051D01*
X003842Y016151D01*
X003742Y016151D01*
X003742Y016641D01*
X003359Y016641D01*
X003275Y016627D01*
X003194Y016601D01*
X003119Y016562D01*
X003050Y016513D01*
X002990Y016452D01*
X002940Y016384D01*
X002901Y016308D01*
X002875Y016227D01*
X002863Y016151D01*
X003742Y016151D01*
X003742Y016051D01*
X002863Y016051D01*
X002875Y015974D01*
X002901Y015893D01*
X002940Y015818D01*
X002990Y015749D01*
X003050Y015689D01*
X003119Y015639D01*
X003194Y015600D01*
X003275Y015574D01*
X003359Y015561D01*
X003742Y015561D01*
X003742Y016051D01*
X003842Y016051D01*
X003842Y015561D01*
X004224Y015561D01*
X004308Y015574D01*
X004389Y015600D01*
X004558Y015713D02*
X007488Y015713D01*
X007476Y015812D02*
X004639Y015812D01*
X004688Y015910D02*
X007476Y015910D01*
X007476Y016009D02*
X004714Y016009D01*
X004721Y016151D02*
X003842Y016151D01*
X003842Y016641D01*
X004224Y016641D01*
X004308Y016627D01*
X004389Y016601D01*
X004465Y016562D01*
X004534Y016513D01*
X004594Y016452D01*
X004644Y016384D01*
X004682Y016308D01*
X004708Y016227D01*
X004721Y016151D01*
X004712Y016206D02*
X007521Y016206D01*
X007549Y016304D02*
X004683Y016304D01*
X004630Y016403D02*
X007606Y016403D01*
X007663Y016501D02*
X004545Y016501D01*
X004392Y016600D02*
X007746Y016600D01*
X007845Y016698D02*
X000698Y016698D01*
X000698Y016600D02*
X003191Y016600D01*
X003038Y016501D02*
X000698Y016501D01*
X000698Y016403D02*
X002954Y016403D01*
X002900Y016304D02*
X000698Y016304D01*
X000698Y016206D02*
X002872Y016206D01*
X002870Y016009D02*
X000698Y016009D01*
X000698Y016107D02*
X003742Y016107D01*
X003742Y016009D02*
X003842Y016009D01*
X003842Y016107D02*
X007495Y016107D01*
X007991Y016797D02*
X000698Y016797D01*
X000698Y016895D02*
X003494Y016895D01*
X003235Y016994D02*
X000698Y016994D01*
X000698Y017092D02*
X003064Y017092D01*
X002962Y017191D02*
X000698Y017191D01*
X000698Y017289D02*
X002863Y017289D01*
X002793Y017388D02*
X000698Y017388D01*
X000698Y017486D02*
X002736Y017486D01*
X002679Y017585D02*
X000698Y017585D01*
X000698Y017683D02*
X002648Y017683D01*
X002607Y017782D02*
X000698Y017782D01*
X000698Y017880D02*
X002566Y017880D01*
X002562Y017979D02*
X000698Y017979D01*
X000698Y018077D02*
X002562Y018077D01*
X002562Y018176D02*
X000698Y018176D01*
X000698Y018274D02*
X002582Y018274D01*
X002623Y018373D02*
X000698Y018373D01*
X000698Y018471D02*
X002660Y018471D01*
X002702Y018570D02*
X000698Y018570D01*
X000698Y018668D02*
X002759Y018668D01*
X002815Y018767D02*
X000698Y018767D01*
X000698Y018865D02*
X002902Y018865D01*
X003001Y018964D02*
X000698Y018964D01*
X000698Y019062D02*
X003127Y019062D01*
X003298Y019161D02*
X000698Y019161D01*
X000698Y019259D02*
X003623Y019259D01*
X003160Y019555D02*
X000698Y019555D01*
X000698Y019653D02*
X003023Y019653D01*
X002942Y019752D02*
X000698Y019752D01*
X000698Y019850D02*
X002895Y019850D01*
X003742Y016600D02*
X003842Y016600D01*
X003842Y016501D02*
X003742Y016501D01*
X003742Y016403D02*
X003842Y016403D01*
X003842Y016304D02*
X003742Y016304D01*
X003742Y016206D02*
X003842Y016206D01*
X003842Y015910D02*
X003742Y015910D01*
X003742Y015812D02*
X003842Y015812D01*
X003842Y015713D02*
X003742Y015713D01*
X003742Y015615D02*
X003842Y015615D01*
X003628Y015319D02*
X000698Y015319D01*
X000698Y015221D02*
X003297Y015221D01*
X003126Y015122D02*
X000698Y015122D01*
X000698Y015024D02*
X002998Y015024D01*
X002899Y014925D02*
X000698Y014925D01*
X000698Y014827D02*
X002814Y014827D01*
X002757Y014728D02*
X000698Y014728D01*
X000698Y014630D02*
X002700Y014630D01*
X002659Y014531D02*
X000698Y014531D01*
X000698Y014433D02*
X002622Y014433D01*
X002581Y014334D02*
X000698Y014334D01*
X000698Y014236D02*
X002562Y014236D01*
X002562Y014137D02*
X000698Y014137D01*
X000698Y014039D02*
X002562Y014039D01*
X002567Y013940D02*
X000698Y013940D01*
X000698Y013842D02*
X002608Y013842D01*
X002649Y013743D02*
X000698Y013743D01*
X000698Y013645D02*
X002681Y013645D01*
X002738Y013546D02*
X000698Y013546D01*
X000698Y013448D02*
X002795Y013448D01*
X002866Y013349D02*
X000698Y013349D01*
X000698Y013251D02*
X002965Y013251D01*
X003069Y013152D02*
X000698Y013152D01*
X000698Y013054D02*
X003240Y013054D01*
X003505Y012955D02*
X000698Y012955D01*
X000698Y015615D02*
X003166Y015615D01*
X003026Y015713D02*
X000698Y015713D01*
X000698Y015812D02*
X002944Y015812D01*
X002896Y015910D02*
X000698Y015910D01*
X006430Y016895D02*
X008217Y016895D01*
X009409Y022214D02*
X009706Y022214D01*
X009649Y022313D02*
X009310Y022313D01*
X009212Y022411D02*
X009619Y022411D01*
X009592Y022510D02*
X009113Y022510D01*
X009015Y022608D02*
X009566Y022608D01*
X009560Y022707D02*
X008916Y022707D01*
X008818Y022805D02*
X009560Y022805D01*
X009560Y022904D02*
X008719Y022904D01*
X008586Y023002D02*
X009575Y023002D01*
X009602Y023101D02*
X008416Y023101D01*
X003155Y023495D02*
X000698Y023495D01*
X000698Y023593D02*
X003020Y023593D01*
X002940Y023692D02*
X000698Y023692D01*
X000698Y023790D02*
X002894Y023790D01*
X003149Y027435D02*
X000698Y027435D01*
X000698Y027533D02*
X003017Y027533D01*
X002938Y027632D02*
X000698Y027632D01*
X000698Y027730D02*
X002893Y027730D01*
X003143Y031375D02*
X000698Y031375D01*
X000698Y031473D02*
X003014Y031473D01*
X002937Y031572D02*
X000698Y031572D01*
X000698Y031670D02*
X002892Y031670D01*
X003214Y032754D02*
X000698Y032754D01*
X000698Y032852D02*
X003048Y032852D01*
X002950Y032951D02*
X000698Y032951D01*
X000698Y033049D02*
X002851Y033049D01*
X002786Y033148D02*
X000698Y033148D01*
X000698Y033246D02*
X002729Y033246D01*
X002673Y033345D02*
X000698Y033345D01*
X000698Y033443D02*
X002643Y033443D01*
X002602Y033542D02*
X000698Y033542D01*
X000698Y033640D02*
X002562Y033640D01*
X002562Y033739D02*
X000698Y033739D01*
X000698Y033837D02*
X002562Y033837D01*
X002562Y033936D02*
X000698Y033936D01*
X000698Y034034D02*
X002587Y034034D01*
X002628Y034133D02*
X000698Y034133D01*
X000698Y034231D02*
X002663Y034231D01*
X002709Y034330D02*
X000698Y034330D01*
X000698Y034428D02*
X002765Y034428D01*
X002822Y034527D02*
X000698Y034527D01*
X000698Y034625D02*
X002914Y034625D01*
X003013Y034724D02*
X000698Y034724D01*
X000698Y034822D02*
X003152Y034822D01*
X003323Y034921D02*
X000698Y034921D01*
X000698Y035019D02*
X003991Y035019D01*
X004090Y035118D02*
X000698Y035118D01*
X000698Y035216D02*
X004188Y035216D01*
X003842Y035315D02*
X003742Y035315D01*
X003742Y035413D02*
X003842Y035413D01*
X003842Y035512D02*
X003742Y035512D01*
X003742Y035610D02*
X003842Y035610D01*
X003842Y035709D02*
X003742Y035709D01*
X003742Y035807D02*
X000698Y035807D01*
X000698Y035709D02*
X002867Y035709D01*
X002891Y035610D02*
X000698Y035610D01*
X000698Y035512D02*
X002935Y035512D01*
X003011Y035413D02*
X000698Y035413D01*
X000698Y035315D02*
X003137Y035315D01*
X002874Y035906D02*
X000698Y035906D01*
X000698Y036004D02*
X002907Y036004D01*
X002965Y036103D02*
X000698Y036103D01*
X000698Y036201D02*
X003055Y036201D01*
X003236Y036300D02*
X000698Y036300D01*
X000698Y036398D02*
X004862Y036398D01*
X004832Y036300D02*
X004348Y036300D01*
X004529Y036201D02*
X004752Y036201D01*
X004695Y036103D02*
X004619Y036103D01*
X004606Y036497D02*
X000698Y036497D01*
X000698Y036595D02*
X003438Y036595D01*
X003209Y036694D02*
X000698Y036694D01*
X000698Y036792D02*
X003045Y036792D01*
X002947Y036891D02*
X000698Y036891D01*
X000698Y036989D02*
X002848Y036989D01*
X002784Y037088D02*
X000698Y037088D01*
X000698Y037186D02*
X002727Y037186D01*
X002672Y037285D02*
X000698Y037285D01*
X000698Y037383D02*
X002641Y037383D01*
X002601Y037482D02*
X000698Y037482D01*
X000698Y037580D02*
X002562Y037580D01*
X002562Y037679D02*
X000698Y037679D01*
X000698Y037777D02*
X002562Y037777D01*
X002562Y037876D02*
X000698Y037876D01*
X000698Y037974D02*
X002588Y037974D01*
X002629Y038073D02*
X000698Y038073D01*
X000698Y038171D02*
X002663Y038171D01*
X002707Y038270D02*
X000698Y038270D01*
X000698Y038368D02*
X002764Y038368D01*
X002821Y038467D02*
X000698Y038467D01*
X000698Y038565D02*
X002911Y038565D01*
X003010Y038664D02*
X000698Y038664D01*
X000698Y038762D02*
X003108Y038762D01*
X003207Y038861D02*
X000698Y038861D01*
X000698Y038959D02*
X003305Y038959D01*
X003443Y039058D02*
X000698Y039058D01*
X000698Y039156D02*
X003614Y039156D01*
X003131Y039255D02*
X000698Y039255D01*
X000698Y039353D02*
X003008Y039353D01*
X002934Y039452D02*
X000698Y039452D01*
X000698Y039550D02*
X002890Y039550D01*
X002867Y039649D02*
X000698Y039649D01*
X000698Y039747D02*
X003742Y039747D01*
X003742Y039846D02*
X003842Y039846D01*
X003842Y039773D02*
X003842Y040263D01*
X004224Y040263D01*
X004308Y040249D01*
X004389Y040223D01*
X004465Y040185D01*
X004534Y040135D01*
X004594Y040074D01*
X004644Y040006D01*
X004682Y039930D01*
X004708Y039849D01*
X004721Y039773D01*
X003842Y039773D01*
X003842Y039747D02*
X005078Y039747D01*
X004709Y039846D02*
X013775Y039846D01*
X013775Y039944D02*
X004675Y039944D01*
X004617Y040043D02*
X013775Y040043D01*
X013775Y040141D02*
X004525Y040141D01*
X004338Y040240D02*
X013775Y040240D01*
X013775Y040338D02*
X000698Y040338D01*
X000698Y040240D02*
X003245Y040240D01*
X003059Y040141D02*
X000698Y040141D01*
X000698Y040043D02*
X002967Y040043D01*
X002908Y039944D02*
X000698Y039944D01*
X000698Y039846D02*
X002874Y039846D01*
X003742Y039944D02*
X003842Y039944D01*
X003842Y040043D02*
X003742Y040043D01*
X003742Y040141D02*
X003842Y040141D01*
X003842Y040240D02*
X003742Y040240D01*
X000698Y040437D02*
X013775Y040437D01*
X013817Y040535D02*
X011090Y040535D01*
X011085Y040531D02*
X011935Y041380D01*
X011935Y042581D01*
X011085Y043431D01*
X009884Y043431D01*
X009035Y042581D01*
X009035Y041380D01*
X009884Y040531D01*
X011085Y040531D01*
X011188Y040634D02*
X013916Y040634D01*
X014014Y040732D02*
X011287Y040732D01*
X011385Y040831D02*
X014113Y040831D01*
X014211Y040929D02*
X011484Y040929D01*
X011582Y041028D02*
X014310Y041028D01*
X015085Y041028D02*
X018910Y041028D01*
X019009Y041126D02*
X011681Y041126D01*
X011779Y041225D02*
X019107Y041225D01*
X019206Y041323D02*
X011878Y041323D01*
X011935Y041422D02*
X019304Y041422D01*
X019403Y041520D02*
X011935Y041520D01*
X011935Y041619D02*
X019501Y041619D01*
X019600Y041717D02*
X011935Y041717D01*
X011935Y041816D02*
X019690Y041816D01*
X019640Y041757D02*
X019640Y041757D01*
X019690Y041914D02*
X011935Y041914D01*
X011935Y042013D02*
X019690Y042013D01*
X019690Y042111D02*
X011935Y042111D01*
X011935Y042210D02*
X014012Y042210D01*
X013914Y042308D02*
X011935Y042308D01*
X011935Y042407D02*
X013815Y042407D01*
X013717Y042505D02*
X011935Y042505D01*
X011912Y042604D02*
X013618Y042604D01*
X013520Y042702D02*
X011814Y042702D01*
X011715Y042801D02*
X013421Y042801D01*
X013323Y042899D02*
X011617Y042899D01*
X011518Y042998D02*
X013224Y042998D01*
X013169Y043096D02*
X011420Y043096D01*
X011321Y043195D02*
X013169Y043195D01*
X013169Y043293D02*
X011223Y043293D01*
X011124Y043392D02*
X013169Y043392D01*
X013169Y043490D02*
X008413Y043490D01*
X008477Y043589D02*
X013169Y043589D01*
X013169Y043687D02*
X008509Y043687D01*
X008541Y043786D02*
X013169Y043786D01*
X013169Y043884D02*
X008572Y043884D01*
X008572Y043983D02*
X013169Y043983D01*
X013169Y044081D02*
X008572Y044081D01*
X008572Y044180D02*
X013169Y044180D01*
X013192Y044278D02*
X008572Y044278D01*
X008572Y044377D02*
X013291Y044377D01*
X013389Y044475D02*
X008572Y044475D01*
X008572Y044574D02*
X013488Y044574D01*
X013586Y044672D02*
X008572Y044672D01*
X008572Y044771D02*
X013685Y044771D01*
X013783Y044869D02*
X012028Y044869D01*
X012191Y044968D02*
X013882Y044968D01*
X013980Y045066D02*
X012289Y045066D01*
X012380Y045165D02*
X014775Y045165D01*
X014677Y045263D02*
X012421Y045263D01*
X012461Y045362D02*
X014578Y045362D01*
X014517Y045423D02*
X014472Y045533D01*
X014314Y045468D01*
X012954Y045468D01*
X012789Y045536D01*
X012682Y045643D01*
X012502Y045643D01*
X012502Y045460D01*
X012502Y045559D02*
X012766Y045559D01*
X012738Y046839D02*
X008572Y046839D01*
X008572Y046741D02*
X011643Y046741D01*
X011481Y046642D02*
X008572Y046642D01*
X008572Y046544D02*
X011383Y046544D01*
X011322Y047057D02*
X011705Y047057D01*
X011788Y047070D01*
X011869Y047096D01*
X011945Y047135D01*
X012014Y047185D01*
X012074Y047245D01*
X012124Y047314D01*
X012162Y047389D01*
X012189Y047470D01*
X012201Y047547D01*
X011322Y047547D01*
X011322Y047647D01*
X011222Y047647D01*
X011222Y048137D01*
X010840Y048137D01*
X010756Y048123D01*
X010675Y048097D01*
X010599Y048059D01*
X010530Y048009D01*
X010470Y047948D01*
X010420Y047880D01*
X010382Y047804D01*
X010355Y047723D01*
X010343Y047647D01*
X011222Y047647D01*
X011222Y047547D01*
X010343Y047547D01*
X010355Y047470D01*
X010382Y047389D01*
X010420Y047314D01*
X010470Y047245D01*
X010530Y047185D01*
X010599Y047135D01*
X010675Y047096D01*
X010756Y047070D01*
X010840Y047057D01*
X011222Y047057D01*
X011222Y047547D01*
X011322Y047547D01*
X011322Y047057D01*
X011322Y047135D02*
X011222Y047135D01*
X011222Y047233D02*
X011322Y047233D01*
X011322Y047332D02*
X011222Y047332D01*
X011222Y047430D02*
X011322Y047430D01*
X011322Y047529D02*
X011222Y047529D01*
X011222Y047627D02*
X008572Y047627D01*
X008572Y047529D02*
X010346Y047529D01*
X010368Y047430D02*
X008572Y047430D01*
X008572Y047332D02*
X010411Y047332D01*
X010482Y047233D02*
X008572Y047233D01*
X008572Y047135D02*
X010599Y047135D01*
X010356Y047726D02*
X008572Y047726D01*
X008572Y047824D02*
X010392Y047824D01*
X010451Y047923D02*
X008572Y047923D01*
X008572Y048021D02*
X010548Y048021D01*
X010744Y048120D02*
X008572Y048120D01*
X008572Y048218D02*
X013359Y048218D01*
X013359Y048120D02*
X011800Y048120D01*
X011788Y048123D02*
X011705Y048137D01*
X011322Y048137D01*
X011322Y047647D01*
X012201Y047647D01*
X012189Y047723D01*
X012162Y047804D01*
X012124Y047880D01*
X012074Y047948D01*
X012014Y048009D01*
X011945Y048059D01*
X011869Y048097D01*
X011788Y048123D01*
X011997Y048021D02*
X013359Y048021D01*
X013359Y047923D02*
X012093Y047923D01*
X012152Y047824D02*
X013359Y047824D01*
X013359Y047726D02*
X012188Y047726D01*
X012198Y047529D02*
X013322Y047529D01*
X013359Y047627D02*
X011322Y047627D01*
X011322Y047726D02*
X011222Y047726D01*
X011222Y047824D02*
X011322Y047824D01*
X011322Y047923D02*
X011222Y047923D01*
X011222Y048021D02*
X011322Y048021D01*
X011322Y048120D02*
X011222Y048120D01*
X012176Y047430D02*
X012977Y047430D01*
X012986Y047435D02*
X012952Y047416D01*
X012924Y047388D01*
X012904Y047354D01*
X012894Y047315D01*
X012894Y047050D01*
X013250Y047050D01*
X013250Y047446D01*
X013024Y047446D01*
X012986Y047435D01*
X012898Y047332D02*
X012133Y047332D01*
X012062Y047233D02*
X012894Y047233D01*
X012894Y047135D02*
X011945Y047135D01*
X012894Y046938D02*
X008572Y046938D01*
X008572Y047036D02*
X013250Y047036D01*
X013250Y047135D02*
X013263Y047135D01*
X013250Y047233D02*
X013263Y047233D01*
X013250Y047332D02*
X013263Y047332D01*
X013250Y047430D02*
X013282Y047430D01*
X013359Y048317D02*
X008572Y048317D01*
X008572Y048415D02*
X013359Y048415D01*
X013359Y048514D02*
X008572Y048514D01*
X008572Y048612D02*
X013359Y048612D01*
X013359Y048711D02*
X008572Y048711D01*
X008572Y048809D02*
X013359Y048809D01*
X013359Y048908D02*
X008572Y048908D01*
X008572Y049006D02*
X013359Y049006D01*
X013359Y049105D02*
X008572Y049105D01*
X008572Y049203D02*
X013359Y049203D01*
X013389Y049302D02*
X008572Y049302D01*
X008572Y049400D02*
X013430Y049400D01*
X013498Y049499D02*
X008572Y049499D01*
X008572Y049597D02*
X010507Y049597D01*
X010406Y049639D02*
X010715Y049511D01*
X011829Y049511D01*
X012138Y049639D01*
X012374Y049875D01*
X012502Y050184D01*
X012502Y050518D01*
X012374Y050827D01*
X012138Y051063D01*
X011829Y051191D01*
X010715Y051191D01*
X010406Y051063D01*
X010170Y050827D01*
X010042Y050518D01*
X010042Y050184D01*
X010170Y049875D01*
X010406Y049639D01*
X010350Y049696D02*
X008572Y049696D01*
X008572Y049794D02*
X010251Y049794D01*
X010163Y049893D02*
X008572Y049893D01*
X008572Y049991D02*
X010122Y049991D01*
X010081Y050090D02*
X008572Y050090D01*
X008572Y050188D02*
X010042Y050188D01*
X010042Y050287D02*
X008572Y050287D01*
X008572Y050385D02*
X010042Y050385D01*
X010042Y050484D02*
X008572Y050484D01*
X008572Y050582D02*
X010069Y050582D01*
X010109Y050681D02*
X008572Y050681D01*
X008572Y050779D02*
X010150Y050779D01*
X010221Y050878D02*
X008572Y050878D01*
X008572Y050976D02*
X010319Y050976D01*
X010434Y051075D02*
X008572Y051075D01*
X008572Y051173D02*
X010672Y051173D01*
X010756Y051794D02*
X010840Y051781D01*
X011222Y051781D01*
X011222Y052271D01*
X011322Y052271D01*
X011322Y051781D01*
X011705Y051781D01*
X011788Y051794D01*
X011869Y051821D01*
X011945Y051859D01*
X012014Y051909D01*
X012074Y051969D01*
X012124Y052038D01*
X012162Y052114D01*
X012189Y052195D01*
X012201Y052271D01*
X011322Y052271D01*
X011322Y052371D01*
X012201Y052371D01*
X012189Y052448D01*
X012162Y052528D01*
X012124Y052604D01*
X012074Y052673D01*
X012014Y052733D01*
X011945Y052783D01*
X011869Y052822D01*
X011788Y052848D01*
X011705Y052861D01*
X011322Y052861D01*
X011322Y052371D01*
X011222Y052371D01*
X011222Y052271D01*
X010343Y052271D01*
X010355Y052195D01*
X010382Y052114D01*
X010420Y052038D01*
X010470Y051969D01*
X010530Y051909D01*
X010599Y051859D01*
X010675Y051821D01*
X010756Y051794D01*
X010594Y051863D02*
X008572Y051863D01*
X008572Y051961D02*
X010478Y051961D01*
X010409Y052060D02*
X008572Y052060D01*
X008572Y052158D02*
X010367Y052158D01*
X010346Y052257D02*
X008572Y052257D01*
X008572Y052355D02*
X011222Y052355D01*
X011222Y052371D02*
X010343Y052371D01*
X010355Y052448D01*
X010382Y052528D01*
X010420Y052604D01*
X010470Y052673D01*
X010530Y052733D01*
X010599Y052783D01*
X010675Y052822D01*
X010756Y052848D01*
X010840Y052861D01*
X011222Y052861D01*
X011222Y052371D01*
X011222Y052454D02*
X011322Y052454D01*
X011322Y052552D02*
X011222Y052552D01*
X011222Y052651D02*
X011322Y052651D01*
X011322Y052749D02*
X011222Y052749D01*
X011222Y052848D02*
X011322Y052848D01*
X011789Y052848D02*
X014283Y052848D01*
X014185Y052946D02*
X008572Y052946D01*
X008572Y052848D02*
X010755Y052848D01*
X010552Y052749D02*
X008572Y052749D01*
X008572Y052651D02*
X010454Y052651D01*
X010394Y052552D02*
X008572Y052552D01*
X008572Y052454D02*
X010357Y052454D01*
X011222Y052257D02*
X011322Y052257D01*
X011322Y052355D02*
X014776Y052355D01*
X014874Y052257D02*
X012199Y052257D01*
X012177Y052158D02*
X014973Y052158D01*
X015071Y052060D02*
X012135Y052060D01*
X012066Y051961D02*
X015170Y051961D01*
X015268Y051863D02*
X011950Y051863D01*
X011322Y051863D02*
X011222Y051863D01*
X011222Y051961D02*
X011322Y051961D01*
X011322Y052060D02*
X011222Y052060D01*
X011222Y052158D02*
X011322Y052158D01*
X011992Y052749D02*
X014382Y052749D01*
X014480Y052651D02*
X012090Y052651D01*
X012150Y052552D02*
X014579Y052552D01*
X014677Y052454D02*
X012187Y052454D01*
X011873Y051173D02*
X015958Y051173D01*
X016056Y051075D02*
X012110Y051075D01*
X012225Y050976D02*
X016155Y050976D01*
X016349Y050878D02*
X012323Y050878D01*
X012394Y050779D02*
X016308Y050779D01*
X016303Y050681D02*
X012435Y050681D01*
X012476Y050582D02*
X014601Y050582D01*
X014483Y050484D02*
X012502Y050484D01*
X012502Y050385D02*
X014385Y050385D01*
X014286Y050287D02*
X012502Y050287D01*
X012502Y050188D02*
X014188Y050188D01*
X014089Y050090D02*
X012463Y050090D01*
X012422Y049991D02*
X013991Y049991D01*
X013892Y049893D02*
X012381Y049893D01*
X012293Y049794D02*
X013794Y049794D01*
X013695Y049696D02*
X012195Y049696D01*
X012037Y049597D02*
X013597Y049597D01*
X015564Y051567D02*
X008572Y051567D01*
X008572Y051469D02*
X015662Y051469D01*
X015761Y051370D02*
X008572Y051370D01*
X008572Y051272D02*
X015859Y051272D01*
X015465Y051666D02*
X008572Y051666D01*
X008572Y051764D02*
X015367Y051764D01*
X014086Y053045D02*
X008572Y053045D01*
X008572Y053143D02*
X013988Y053143D01*
X013889Y053242D02*
X008572Y053242D01*
X008572Y053340D02*
X013791Y053340D01*
X013692Y053439D02*
X008572Y053439D01*
X008572Y053537D02*
X013594Y053537D01*
X010663Y046445D02*
X008572Y046445D01*
X008572Y046347D02*
X010425Y046347D01*
X010316Y046248D02*
X008572Y046248D01*
X008572Y046150D02*
X010217Y046150D01*
X010149Y046051D02*
X008572Y046051D01*
X008572Y045953D02*
X010108Y045953D01*
X010067Y045854D02*
X008572Y045854D01*
X008572Y045756D02*
X010042Y045756D01*
X010042Y045657D02*
X008572Y045657D01*
X008572Y045559D02*
X010042Y045559D01*
X010123Y045263D02*
X008572Y045263D01*
X008572Y045165D02*
X010164Y045165D01*
X010255Y045066D02*
X008572Y045066D01*
X008572Y044968D02*
X010353Y044968D01*
X010516Y044869D02*
X008572Y044869D01*
X008341Y043392D02*
X009845Y043392D01*
X009746Y043293D02*
X008264Y043293D01*
X008277Y043303D02*
X008277Y043303D01*
X008128Y043195D02*
X009648Y043195D01*
X009549Y043096D02*
X007971Y043096D01*
X009057Y042604D02*
X000698Y042604D01*
X000698Y042702D02*
X009155Y042702D01*
X009254Y042801D02*
X000698Y042801D01*
X000704Y042899D02*
X009352Y042899D01*
X009451Y042998D02*
X000793Y042998D01*
X000698Y042505D02*
X009035Y042505D01*
X009035Y042407D02*
X000698Y042407D01*
X000698Y042308D02*
X009035Y042308D01*
X009035Y042210D02*
X000698Y042210D01*
X000698Y042111D02*
X009035Y042111D01*
X009035Y042013D02*
X000698Y042013D01*
X000698Y041914D02*
X009035Y041914D01*
X009035Y041816D02*
X000698Y041816D01*
X000698Y041717D02*
X009035Y041717D01*
X009035Y041619D02*
X000698Y041619D01*
X000698Y041520D02*
X009035Y041520D01*
X009035Y041422D02*
X000698Y041422D01*
X000698Y041323D02*
X009092Y041323D01*
X009190Y041225D02*
X000698Y041225D01*
X000698Y041126D02*
X009289Y041126D01*
X009387Y041028D02*
X000698Y041028D01*
X000698Y040929D02*
X009486Y040929D01*
X009584Y040831D02*
X000698Y040831D01*
X000698Y040732D02*
X009683Y040732D01*
X009781Y040634D02*
X000698Y040634D01*
X000698Y040535D02*
X009880Y040535D01*
X015183Y040929D02*
X018812Y040929D01*
X018713Y040831D02*
X015282Y040831D01*
X015380Y040732D02*
X018615Y040732D01*
X018516Y040634D02*
X015479Y040634D01*
X015577Y040535D02*
X018418Y040535D01*
X018319Y040437D02*
X015620Y040437D01*
X015620Y040338D02*
X018221Y040338D01*
X018122Y040240D02*
X015620Y040240D01*
X015620Y040141D02*
X018024Y040141D01*
X017925Y040043D02*
X015620Y040043D01*
X015620Y039944D02*
X017827Y039944D01*
X017728Y039846D02*
X015620Y039846D01*
X015225Y042210D02*
X019690Y042210D01*
X019690Y042308D02*
X015323Y042308D01*
X015422Y042407D02*
X019690Y042407D01*
X019690Y042505D02*
X015520Y042505D01*
X015619Y042604D02*
X019690Y042604D01*
X019690Y042702D02*
X015717Y042702D01*
X015816Y042801D02*
X019690Y042801D01*
X019690Y042899D02*
X015914Y042899D01*
X016013Y042998D02*
X019690Y042998D01*
X019690Y043096D02*
X016069Y043096D01*
X016069Y043195D02*
X019690Y043195D01*
X019690Y043293D02*
X016069Y043293D01*
X016069Y043392D02*
X019690Y043392D01*
X019690Y043490D02*
X016069Y043490D01*
X016069Y043589D02*
X019691Y043589D01*
X019717Y043687D02*
X019392Y043687D01*
X019579Y043786D02*
X019744Y043786D01*
X019770Y043884D02*
X019677Y043884D01*
X019776Y043983D02*
X019796Y043983D01*
X018211Y043687D02*
X016069Y043687D01*
X016069Y043786D02*
X018024Y043786D01*
X017926Y043884D02*
X016069Y043884D01*
X016069Y043983D02*
X017827Y043983D01*
X017729Y044081D02*
X016069Y044081D01*
X016069Y044180D02*
X017630Y044180D01*
X017532Y044278D02*
X016045Y044278D01*
X015946Y044377D02*
X017433Y044377D01*
X017356Y044475D02*
X015848Y044475D01*
X015749Y044574D02*
X017316Y044574D01*
X024658Y037186D02*
X024714Y037186D01*
X024756Y037285D02*
X024813Y037285D01*
X024855Y037383D02*
X024911Y037383D01*
X024953Y037482D02*
X025010Y037482D01*
X025052Y037580D02*
X025108Y037580D01*
X025150Y037679D02*
X025207Y037679D01*
X025249Y037777D02*
X025305Y037777D01*
X025347Y037876D02*
X025404Y037876D01*
X025446Y037974D02*
X025502Y037974D01*
X025544Y038073D02*
X025601Y038073D01*
X025643Y038171D02*
X025699Y038171D01*
X025741Y038270D02*
X025798Y038270D01*
X025840Y038368D02*
X025896Y038368D01*
X025938Y038467D02*
X025995Y038467D01*
X026037Y038565D02*
X026093Y038565D01*
X026135Y038664D02*
X026192Y038664D01*
X026194Y038762D02*
X026290Y038762D01*
X026251Y038861D02*
X026389Y038861D01*
X026391Y038959D02*
X026308Y038959D01*
X026365Y039058D02*
X026391Y039058D01*
X024616Y037088D02*
X024559Y037088D01*
X024517Y036989D02*
X024461Y036989D01*
X024419Y036891D02*
X024362Y036891D01*
X024320Y036792D02*
X024264Y036792D01*
X024222Y036694D02*
X024165Y036694D01*
X024123Y036595D02*
X024067Y036595D01*
X024025Y036497D02*
X023968Y036497D01*
X023926Y036398D02*
X023870Y036398D01*
X023828Y036300D02*
X023771Y036300D01*
X023729Y036201D02*
X023673Y036201D01*
X023631Y036103D02*
X023574Y036103D01*
X023532Y036004D02*
X023476Y036004D01*
X023434Y035906D02*
X023377Y035906D01*
X023335Y035807D02*
X023279Y035807D01*
X023237Y035709D02*
X023180Y035709D01*
X023138Y035610D02*
X023082Y035610D01*
X023040Y035512D02*
X022983Y035512D01*
X022941Y035413D02*
X022885Y035413D01*
X022843Y035315D02*
X022786Y035315D01*
X022744Y035216D02*
X022688Y035216D01*
X022646Y035118D02*
X022589Y035118D01*
X022547Y035019D02*
X022491Y035019D01*
X022449Y034921D02*
X022392Y034921D01*
X022350Y034822D02*
X022294Y034822D01*
X022252Y034724D02*
X022195Y034724D01*
X022153Y034625D02*
X022097Y034625D01*
X022055Y034527D02*
X021998Y034527D01*
X021956Y034428D02*
X021900Y034428D01*
X021858Y034330D02*
X021801Y034330D01*
X021759Y034231D02*
X021703Y034231D01*
X021661Y034133D02*
X021604Y034133D01*
X021562Y034034D02*
X021506Y034034D01*
X021464Y033936D02*
X021407Y033936D01*
X021365Y033837D02*
X021309Y033837D01*
X021267Y033739D02*
X021156Y033739D01*
X021168Y033640D02*
X020985Y033640D01*
X021070Y033542D02*
X020725Y033542D01*
X024293Y031900D02*
X029167Y036774D01*
X029487Y037094D01*
X029713Y037486D01*
X029831Y037924D01*
X029831Y039499D01*
X030001Y039329D01*
X030341Y039188D01*
X030708Y039188D01*
X031047Y039329D01*
X031306Y039588D01*
X031446Y039927D01*
X031446Y040009D01*
X032127Y039329D01*
X032127Y038901D01*
X031968Y038967D01*
X031718Y038967D01*
X031487Y038871D01*
X031410Y038794D01*
X031305Y038751D01*
X031038Y038483D01*
X030893Y038134D01*
X030893Y037756D01*
X031038Y037407D01*
X031582Y036863D01*
X031582Y031748D01*
X031510Y031574D01*
X031510Y031324D01*
X031606Y031093D01*
X031613Y031086D01*
X031727Y030813D01*
X031994Y030545D01*
X039699Y022840D01*
X039966Y022573D01*
X040315Y022428D01*
X040997Y022428D01*
X041714Y021711D01*
X041488Y021618D01*
X041390Y021520D01*
X041292Y021618D01*
X041031Y021726D01*
X040749Y021726D01*
X040488Y021618D01*
X040288Y021418D01*
X040180Y021157D01*
X040180Y020875D01*
X040288Y020614D01*
X040488Y020414D01*
X040749Y020306D01*
X041031Y020306D01*
X041292Y020414D01*
X041390Y020512D01*
X041488Y020414D01*
X041749Y020306D01*
X042031Y020306D01*
X042292Y020414D01*
X042492Y020614D01*
X042585Y020840D01*
X042802Y020623D01*
X042802Y019941D01*
X042947Y019592D01*
X043214Y019325D01*
X043214Y019325D01*
X046392Y016147D01*
X046659Y015880D01*
X047008Y015735D01*
X047973Y015735D01*
X048322Y015880D01*
X048433Y015991D01*
X048481Y015943D01*
X049102Y015943D01*
X049542Y016383D01*
X049542Y017004D01*
X049352Y017193D01*
X049542Y017383D01*
X049542Y018004D01*
X049352Y018193D01*
X049542Y018383D01*
X049542Y019004D01*
X049352Y019193D01*
X049542Y019383D01*
X049542Y020004D01*
X049140Y020405D01*
X049242Y020507D01*
X049242Y020643D01*
X048842Y020643D01*
X048842Y020743D01*
X049242Y020743D01*
X049242Y020880D01*
X049140Y020981D01*
X049542Y021383D01*
X049542Y022004D01*
X049352Y022193D01*
X049542Y022383D01*
X049542Y023004D01*
X049352Y023193D01*
X049542Y023383D01*
X049542Y024004D01*
X049352Y024193D01*
X049542Y024383D01*
X049542Y025004D01*
X049352Y025193D01*
X049542Y025383D01*
X049542Y026004D01*
X049352Y026193D01*
X049542Y026383D01*
X049542Y027004D01*
X049352Y027193D01*
X049542Y027383D01*
X049542Y028004D01*
X049140Y028405D01*
X049242Y028507D01*
X049242Y028643D01*
X048842Y028643D01*
X048842Y028743D01*
X049242Y028743D01*
X049242Y028880D01*
X049140Y028981D01*
X049542Y029383D01*
X049542Y030004D01*
X049352Y030193D01*
X049542Y030383D01*
X049542Y031004D01*
X049352Y031193D01*
X049542Y031383D01*
X049542Y032004D01*
X049352Y032193D01*
X049542Y032383D01*
X049542Y033004D01*
X049352Y033193D01*
X049542Y033383D01*
X049542Y034004D01*
X049352Y034193D01*
X049542Y034383D01*
X049542Y035004D01*
X049140Y035405D01*
X049242Y035507D01*
X049242Y035643D01*
X048842Y035643D01*
X048842Y035743D01*
X049242Y035743D01*
X049242Y035880D01*
X048978Y036143D01*
X048842Y036143D01*
X048842Y035743D01*
X048742Y035743D01*
X048742Y036143D01*
X048605Y036143D01*
X048504Y036042D01*
X048102Y036443D01*
X047481Y036443D01*
X047042Y036004D01*
X035799Y036004D01*
X035799Y035906D02*
X047042Y035906D01*
X047042Y036004D02*
X047042Y035383D01*
X047231Y035193D01*
X047042Y035004D01*
X047042Y034383D01*
X047231Y034193D01*
X047042Y034004D01*
X047042Y033383D01*
X047231Y033193D01*
X047042Y033004D01*
X047042Y032383D01*
X047231Y032193D01*
X047042Y032004D01*
X047042Y031383D01*
X047231Y031193D01*
X047042Y031004D01*
X047042Y030383D01*
X047231Y030193D01*
X047042Y030004D01*
X047042Y029383D01*
X047231Y029193D01*
X047042Y029004D01*
X047042Y028383D01*
X047231Y028193D01*
X047042Y028004D01*
X047042Y027383D01*
X047231Y027193D01*
X047042Y027004D01*
X047042Y026383D01*
X047231Y026193D01*
X047042Y026004D01*
X047042Y025383D01*
X047231Y025193D01*
X047042Y025004D01*
X047042Y024383D01*
X047231Y024193D01*
X047042Y024004D01*
X047042Y023383D01*
X047231Y023193D01*
X047042Y023004D01*
X047042Y022383D01*
X047231Y022193D01*
X047042Y022004D01*
X047042Y021383D01*
X047121Y021303D01*
X046788Y021303D01*
X038230Y029862D01*
X038379Y030011D01*
X038475Y030242D01*
X038475Y030491D01*
X038379Y030722D01*
X038203Y030899D01*
X038159Y030917D01*
X035799Y033277D01*
X035799Y039661D01*
X037115Y040977D01*
X040626Y040977D01*
X040850Y041070D01*
X041021Y041241D01*
X041440Y041660D01*
X041440Y041660D01*
X041612Y041832D01*
X041705Y042056D01*
X041705Y047437D01*
X044103Y049835D01*
X050074Y049835D01*
X050299Y049928D01*
X050805Y050434D01*
X050895Y050653D01*
X050925Y050682D01*
X050980Y050814D01*
X050980Y001331D01*
X050973Y001236D01*
X050924Y001051D01*
X050828Y000886D01*
X050693Y000751D01*
X050528Y000656D01*
X050344Y000606D01*
X050248Y000600D01*
X045940Y000600D01*
X047702Y002362D01*
X047846Y002711D01*
X050980Y002711D01*
X050980Y002613D02*
X047805Y002613D01*
X047846Y002711D02*
X047846Y007426D01*
X047736Y007691D01*
X047736Y007794D01*
X047608Y008102D01*
X047596Y008115D01*
X047596Y009712D01*
X047490Y009970D01*
X047301Y010159D01*
X047932Y010159D01*
X047978Y010113D01*
X048302Y009979D01*
X048652Y009979D01*
X048975Y010113D01*
X049223Y010360D01*
X049357Y010684D01*
X049357Y011034D01*
X049223Y011357D01*
X049032Y011548D01*
X049223Y011738D01*
X049357Y012062D01*
X049357Y012412D01*
X049223Y012735D01*
X048975Y012983D01*
X048652Y013117D01*
X048343Y013117D01*
X048089Y013370D01*
X047710Y013750D01*
X046856Y014603D01*
X046776Y014797D01*
X046556Y015016D01*
X046270Y015135D01*
X045959Y015135D01*
X045673Y015016D01*
X045453Y014797D01*
X045335Y014510D01*
X045335Y014200D01*
X045453Y013913D01*
X045510Y013856D01*
X045200Y013856D01*
X045079Y013906D01*
X044181Y013906D01*
X043905Y013792D01*
X043694Y013581D01*
X043580Y013305D01*
X043580Y013007D01*
X043694Y012731D01*
X043905Y012520D01*
X043952Y012501D01*
X043945Y012492D01*
X043913Y012429D01*
X043891Y012362D01*
X043883Y012306D01*
X044580Y012306D01*
X044580Y012206D01*
X043883Y012206D01*
X043891Y012151D01*
X043913Y012084D01*
X043945Y012020D01*
X043952Y012011D01*
X043905Y011992D01*
X043694Y011781D01*
X043580Y011505D01*
X043580Y011207D01*
X043694Y010931D01*
X043905Y010720D01*
X044181Y010606D01*
X045079Y010606D01*
X045355Y010720D01*
X045566Y010931D01*
X045680Y011207D01*
X045680Y011505D01*
X045566Y011781D01*
X045355Y011992D01*
X045309Y012011D01*
X045315Y012020D01*
X045347Y012084D01*
X045369Y012151D01*
X045378Y012206D01*
X044680Y012206D01*
X044680Y012306D01*
X045378Y012306D01*
X045369Y012362D01*
X045347Y012429D01*
X045333Y012456D01*
X047023Y012456D01*
X047099Y012380D01*
X047723Y011756D01*
X047731Y011738D01*
X047910Y011559D01*
X046479Y011559D01*
X046222Y011452D01*
X045866Y011096D01*
X045673Y011016D01*
X045453Y010797D01*
X045335Y010510D01*
X045335Y010200D01*
X045453Y009913D01*
X045673Y009693D01*
X045866Y009613D01*
X046196Y009283D01*
X046196Y008115D01*
X046184Y008102D01*
X046056Y007794D01*
X046056Y007691D01*
X045946Y007426D01*
X045946Y003294D01*
X044737Y002084D01*
X044077Y002084D01*
X045735Y003741D01*
X045879Y004091D01*
X045879Y007426D01*
X045769Y007691D01*
X045769Y007794D01*
X045641Y008102D01*
X045405Y008339D01*
X045096Y008467D01*
X044762Y008467D01*
X044453Y008339D01*
X044217Y008102D01*
X044089Y007794D01*
X044089Y007691D01*
X043979Y007426D01*
X043979Y004673D01*
X043909Y004603D01*
X043909Y007426D01*
X043799Y007691D01*
X043799Y007794D01*
X043671Y008102D01*
X043435Y008339D01*
X043126Y008467D01*
X042792Y008467D01*
X042483Y008339D01*
X042247Y008102D01*
X042119Y007794D01*
X042119Y007691D01*
X042009Y007426D01*
X042009Y004868D01*
X041784Y004643D01*
X039313Y004643D01*
X039988Y005319D01*
X040146Y005592D01*
X040228Y005898D01*
X040228Y007389D01*
X040146Y007694D01*
X039988Y007968D01*
X039759Y008197D01*
X039485Y008355D01*
X039411Y008375D01*
X039189Y008467D01*
X038855Y008467D01*
X038633Y008375D01*
X038559Y008355D01*
X038285Y008197D01*
X038062Y007973D01*
X037904Y007700D01*
X037822Y007395D01*
X037822Y007079D01*
X037828Y007057D01*
X037828Y006553D01*
X037743Y006468D01*
X036015Y006468D01*
X036047Y006500D01*
X036205Y006773D01*
X036287Y007079D01*
X036287Y009444D01*
X036348Y009536D01*
X036531Y009976D01*
X036624Y010443D01*
X036624Y010920D01*
X036531Y011387D01*
X036348Y011827D01*
X036084Y012223D01*
X035747Y012560D01*
X035351Y012825D01*
X034911Y013007D01*
X034443Y013100D01*
X025561Y013100D01*
X024616Y014045D01*
X024616Y030840D01*
X024508Y031384D01*
X024296Y031895D01*
X024293Y031900D01*
X024307Y031867D02*
X025762Y031867D01*
X025802Y031966D02*
X024359Y031966D01*
X024457Y032064D02*
X025897Y032064D01*
X025805Y031972D02*
X026064Y032231D01*
X026404Y032372D01*
X026770Y032372D01*
X027110Y032231D01*
X027369Y031972D01*
X027509Y031633D01*
X027509Y031266D01*
X027369Y030927D01*
X027110Y030667D01*
X026770Y030527D01*
X026404Y030527D01*
X026064Y030667D01*
X025805Y030927D01*
X025665Y031266D01*
X025665Y031633D01*
X025805Y031972D01*
X025721Y031769D02*
X024348Y031769D01*
X024389Y031670D02*
X025680Y031670D01*
X025665Y031572D02*
X024430Y031572D01*
X024471Y031473D02*
X025665Y031473D01*
X025665Y031375D02*
X024509Y031375D01*
X024529Y031276D02*
X025665Y031276D01*
X025701Y031178D02*
X024549Y031178D01*
X024568Y031079D02*
X025742Y031079D01*
X025783Y030981D02*
X024588Y030981D01*
X024607Y030882D02*
X025850Y030882D01*
X025948Y030784D02*
X024616Y030784D01*
X024616Y030685D02*
X026047Y030685D01*
X026259Y030587D02*
X024616Y030587D01*
X024616Y030488D02*
X032051Y030488D01*
X031994Y030545D02*
X031994Y030545D01*
X031953Y030587D02*
X026915Y030587D01*
X027127Y030685D02*
X031854Y030685D01*
X031756Y030784D02*
X027226Y030784D01*
X027324Y030882D02*
X031698Y030882D01*
X031657Y030981D02*
X027391Y030981D01*
X027432Y031079D02*
X031616Y031079D01*
X031571Y031178D02*
X027473Y031178D01*
X027509Y031276D02*
X031530Y031276D01*
X031510Y031375D02*
X027509Y031375D01*
X027509Y031473D02*
X031510Y031473D01*
X031510Y031572D02*
X027509Y031572D01*
X027494Y031670D02*
X031550Y031670D01*
X031582Y031769D02*
X027453Y031769D01*
X027412Y031867D02*
X031582Y031867D01*
X031582Y031966D02*
X027372Y031966D01*
X027277Y032064D02*
X031582Y032064D01*
X031582Y032163D02*
X027178Y032163D01*
X027037Y032261D02*
X031582Y032261D01*
X031582Y032360D02*
X026800Y032360D01*
X026374Y032360D02*
X024753Y032360D01*
X024851Y032458D02*
X031582Y032458D01*
X031582Y032557D02*
X031127Y032557D01*
X031136Y032572D02*
X031146Y032611D01*
X031146Y033053D01*
X030574Y033053D01*
X030574Y033153D01*
X030474Y033153D01*
X030474Y033725D01*
X030032Y033725D01*
X029994Y033715D01*
X029959Y033695D01*
X029932Y033667D01*
X029912Y033633D01*
X029902Y033595D01*
X029902Y033153D01*
X030474Y033153D01*
X030474Y033053D01*
X029902Y033053D01*
X029902Y032611D01*
X029912Y032572D01*
X029932Y032538D01*
X029959Y032510D01*
X029994Y032491D01*
X030032Y032480D01*
X030474Y032480D01*
X030474Y033053D01*
X030574Y033053D01*
X030574Y032480D01*
X031016Y032480D01*
X031054Y032491D01*
X031089Y032510D01*
X031116Y032538D01*
X031136Y032572D01*
X031146Y032655D02*
X031582Y032655D01*
X031582Y032754D02*
X031146Y032754D01*
X031146Y032852D02*
X031582Y032852D01*
X031582Y032951D02*
X031146Y032951D01*
X031146Y033049D02*
X031582Y033049D01*
X031582Y033148D02*
X030574Y033148D01*
X030574Y033153D02*
X031146Y033153D01*
X031146Y033595D01*
X031136Y033633D01*
X031116Y033667D01*
X031089Y033695D01*
X031054Y033715D01*
X031016Y033725D01*
X030574Y033725D01*
X030574Y033153D01*
X030574Y033246D02*
X030474Y033246D01*
X030474Y033148D02*
X025541Y033148D01*
X025639Y033246D02*
X029902Y033246D01*
X029902Y033345D02*
X025738Y033345D01*
X025836Y033443D02*
X029902Y033443D01*
X029902Y033542D02*
X025935Y033542D01*
X026033Y033640D02*
X029916Y033640D01*
X030474Y033640D02*
X030574Y033640D01*
X030574Y033542D02*
X030474Y033542D01*
X030474Y033443D02*
X030574Y033443D01*
X030574Y033345D02*
X030474Y033345D01*
X030474Y033049D02*
X030574Y033049D01*
X030574Y032951D02*
X030474Y032951D01*
X030474Y032852D02*
X030574Y032852D01*
X030574Y032754D02*
X030474Y032754D01*
X030474Y032655D02*
X030574Y032655D01*
X030574Y032557D02*
X030474Y032557D01*
X029921Y032557D02*
X024950Y032557D01*
X025048Y032655D02*
X029902Y032655D01*
X029902Y032754D02*
X025147Y032754D01*
X025245Y032852D02*
X029902Y032852D01*
X029902Y032951D02*
X025344Y032951D01*
X025442Y033049D02*
X029902Y033049D01*
X031146Y033246D02*
X031582Y033246D01*
X031582Y033345D02*
X031146Y033345D01*
X031146Y033443D02*
X031582Y033443D01*
X031582Y033542D02*
X031146Y033542D01*
X031132Y033640D02*
X031582Y033640D01*
X031582Y033739D02*
X026132Y033739D01*
X026230Y033837D02*
X031582Y033837D01*
X031582Y033936D02*
X026329Y033936D01*
X026427Y034034D02*
X031582Y034034D01*
X031582Y034133D02*
X026526Y034133D01*
X026624Y034231D02*
X031582Y034231D01*
X031582Y034330D02*
X026723Y034330D01*
X026821Y034428D02*
X031582Y034428D01*
X031582Y034527D02*
X026920Y034527D01*
X027018Y034625D02*
X031582Y034625D01*
X031582Y034724D02*
X027117Y034724D01*
X027215Y034822D02*
X031582Y034822D01*
X031582Y034921D02*
X027314Y034921D01*
X027412Y035019D02*
X031582Y035019D01*
X031582Y035118D02*
X027511Y035118D01*
X027609Y035216D02*
X031582Y035216D01*
X031582Y035315D02*
X027708Y035315D01*
X027806Y035413D02*
X031582Y035413D01*
X031582Y035512D02*
X027905Y035512D01*
X028003Y035610D02*
X031582Y035610D01*
X031582Y035709D02*
X028102Y035709D01*
X028200Y035807D02*
X031582Y035807D01*
X031582Y035906D02*
X028299Y035906D01*
X028397Y036004D02*
X031582Y036004D01*
X031582Y036103D02*
X028496Y036103D01*
X028594Y036201D02*
X031582Y036201D01*
X031582Y036300D02*
X028693Y036300D01*
X028791Y036398D02*
X031582Y036398D01*
X031582Y036497D02*
X028890Y036497D01*
X028988Y036595D02*
X031582Y036595D01*
X031582Y036694D02*
X029087Y036694D01*
X029185Y036792D02*
X031582Y036792D01*
X031554Y036891D02*
X029284Y036891D01*
X029382Y036989D02*
X031456Y036989D01*
X031357Y037088D02*
X029481Y037088D01*
X029540Y037186D02*
X031259Y037186D01*
X031160Y037285D02*
X029597Y037285D01*
X029654Y037383D02*
X031062Y037383D01*
X031007Y037482D02*
X029711Y037482D01*
X029739Y037580D02*
X030966Y037580D01*
X030925Y037679D02*
X029765Y037679D01*
X029791Y037777D02*
X030893Y037777D01*
X030893Y037876D02*
X029818Y037876D01*
X029831Y037974D02*
X030893Y037974D01*
X030893Y038073D02*
X029831Y038073D01*
X029831Y038171D02*
X030908Y038171D01*
X030949Y038270D02*
X029831Y038270D01*
X029831Y038368D02*
X030990Y038368D01*
X031031Y038467D02*
X029831Y038467D01*
X029831Y038565D02*
X031119Y038565D01*
X031218Y038664D02*
X029831Y038664D01*
X029831Y038762D02*
X031332Y038762D01*
X031476Y038861D02*
X029831Y038861D01*
X029831Y038959D02*
X031699Y038959D01*
X031987Y038959D02*
X032127Y038959D01*
X032127Y039058D02*
X029831Y039058D01*
X029831Y039156D02*
X032127Y039156D01*
X032127Y039255D02*
X030868Y039255D01*
X031071Y039353D02*
X032103Y039353D01*
X032004Y039452D02*
X031170Y039452D01*
X031268Y039550D02*
X031906Y039550D01*
X031807Y039649D02*
X031331Y039649D01*
X031372Y039747D02*
X031709Y039747D01*
X031610Y039846D02*
X031413Y039846D01*
X031446Y039944D02*
X031512Y039944D01*
X030180Y039255D02*
X029831Y039255D01*
X029831Y039353D02*
X029977Y039353D01*
X029879Y039452D02*
X029831Y039452D01*
X034219Y043006D02*
X034164Y043138D01*
X034129Y043174D01*
X034164Y043209D01*
X034289Y043511D01*
X034289Y043837D01*
X034164Y044138D01*
X034129Y044174D01*
X034164Y044209D01*
X034289Y044511D01*
X034289Y044837D01*
X034164Y045138D01*
X034129Y045174D01*
X034164Y045209D01*
X034289Y045511D01*
X034289Y045837D01*
X034164Y046138D01*
X034129Y046174D01*
X034164Y046209D01*
X034289Y046511D01*
X034289Y046837D01*
X034164Y047138D01*
X034129Y047174D01*
X034164Y047209D01*
X034289Y047511D01*
X034289Y047837D01*
X034164Y048138D01*
X034129Y048174D01*
X034164Y048209D01*
X034289Y048511D01*
X034289Y048837D01*
X034164Y049138D01*
X034129Y049174D01*
X034164Y049209D01*
X034289Y049511D01*
X034289Y049837D01*
X034164Y050138D01*
X033933Y050369D01*
X033900Y050383D01*
X033914Y050401D01*
X033951Y050474D01*
X033976Y050552D01*
X033987Y050624D01*
X033519Y050624D01*
X033519Y050724D01*
X033987Y050724D01*
X033976Y050795D01*
X033951Y050873D01*
X033914Y050946D01*
X033900Y050965D01*
X033933Y050978D01*
X034164Y051209D01*
X034289Y051511D01*
X034289Y051837D01*
X034164Y052138D01*
X034129Y052174D01*
X034164Y052209D01*
X034289Y052511D01*
X034289Y052837D01*
X034164Y053138D01*
X034129Y053174D01*
X034164Y053209D01*
X034289Y053511D01*
X034289Y053837D01*
X034164Y054138D01*
X033933Y054369D01*
X033632Y054494D01*
X033306Y054494D01*
X033004Y054369D01*
X032774Y054138D01*
X032649Y053837D01*
X032649Y053511D01*
X032728Y053319D01*
X031741Y053319D01*
X032981Y054560D01*
X034641Y054560D01*
X035071Y054130D01*
X035071Y046879D01*
X035164Y046655D01*
X035663Y046156D01*
X035887Y046064D01*
X038743Y046064D01*
X038649Y045837D01*
X038649Y045511D01*
X038774Y045209D01*
X038809Y045174D01*
X038774Y045138D01*
X038649Y044837D01*
X038649Y044511D01*
X038774Y044209D01*
X038809Y044174D01*
X038774Y044138D01*
X038649Y043837D01*
X038649Y043511D01*
X038774Y043209D01*
X038809Y043174D01*
X038774Y043138D01*
X038719Y043006D01*
X038664Y043138D01*
X038433Y043369D01*
X038132Y043494D01*
X037806Y043494D01*
X037504Y043369D01*
X037469Y043333D01*
X037433Y043369D01*
X037132Y043494D01*
X036806Y043494D01*
X036504Y043369D01*
X036469Y043333D01*
X036433Y043369D01*
X036132Y043494D01*
X035806Y043494D01*
X035504Y043369D01*
X035469Y043333D01*
X035433Y043369D01*
X035132Y043494D01*
X034806Y043494D01*
X034504Y043369D01*
X034274Y043138D01*
X034219Y043006D01*
X034181Y043096D02*
X034256Y043096D01*
X034330Y043195D02*
X034150Y043195D01*
X034199Y043293D02*
X034429Y043293D01*
X034560Y043392D02*
X034240Y043392D01*
X034280Y043490D02*
X034797Y043490D01*
X035140Y043490D02*
X035797Y043490D01*
X035560Y043392D02*
X035378Y043392D01*
X036140Y043490D02*
X036797Y043490D01*
X036560Y043392D02*
X036378Y043392D01*
X037140Y043490D02*
X037797Y043490D01*
X037560Y043392D02*
X037378Y043392D01*
X038140Y043490D02*
X038657Y043490D01*
X038649Y043589D02*
X034289Y043589D01*
X034289Y043687D02*
X038649Y043687D01*
X038649Y043786D02*
X034289Y043786D01*
X034269Y043884D02*
X038669Y043884D01*
X038709Y043983D02*
X034228Y043983D01*
X034188Y044081D02*
X038750Y044081D01*
X038803Y044180D02*
X034135Y044180D01*
X034193Y044278D02*
X038745Y044278D01*
X038704Y044377D02*
X034233Y044377D01*
X034274Y044475D02*
X038664Y044475D01*
X038649Y044574D02*
X034289Y044574D01*
X034289Y044672D02*
X038649Y044672D01*
X038649Y044771D02*
X034289Y044771D01*
X034275Y044869D02*
X038662Y044869D01*
X038703Y044968D02*
X034235Y044968D01*
X034194Y045066D02*
X038744Y045066D01*
X038800Y045165D02*
X034138Y045165D01*
X034186Y045263D02*
X038751Y045263D01*
X038711Y045362D02*
X034227Y045362D01*
X034268Y045460D02*
X038670Y045460D01*
X038649Y045559D02*
X034289Y045559D01*
X034289Y045657D02*
X038649Y045657D01*
X038649Y045756D02*
X034289Y045756D01*
X034282Y045854D02*
X038656Y045854D01*
X038697Y045953D02*
X034241Y045953D01*
X034200Y046051D02*
X038738Y046051D01*
X038698Y043392D02*
X038378Y043392D01*
X038509Y043293D02*
X038739Y043293D01*
X038788Y043195D02*
X038608Y043195D01*
X038681Y043096D02*
X038756Y043096D01*
X037067Y040929D02*
X050980Y040929D01*
X050980Y040831D02*
X036969Y040831D01*
X036870Y040732D02*
X050980Y040732D01*
X050980Y040634D02*
X036772Y040634D01*
X036673Y040535D02*
X050980Y040535D01*
X050980Y040437D02*
X036575Y040437D01*
X036476Y040338D02*
X050980Y040338D01*
X050980Y040240D02*
X036378Y040240D01*
X036279Y040141D02*
X050980Y040141D01*
X050980Y040043D02*
X036181Y040043D01*
X036082Y039944D02*
X050980Y039944D01*
X050980Y039846D02*
X035984Y039846D01*
X035885Y039747D02*
X050980Y039747D01*
X050980Y039649D02*
X035799Y039649D01*
X035799Y039550D02*
X050980Y039550D01*
X050980Y039452D02*
X035799Y039452D01*
X035799Y039353D02*
X050980Y039353D01*
X050980Y039255D02*
X035799Y039255D01*
X035799Y039156D02*
X050980Y039156D01*
X050980Y039058D02*
X035799Y039058D01*
X035799Y038959D02*
X050980Y038959D01*
X050980Y038861D02*
X035799Y038861D01*
X035799Y038762D02*
X050980Y038762D01*
X050980Y038664D02*
X035799Y038664D01*
X035799Y038565D02*
X050980Y038565D01*
X050980Y038467D02*
X035799Y038467D01*
X035799Y038368D02*
X050980Y038368D01*
X050980Y038270D02*
X035799Y038270D01*
X035799Y038171D02*
X050980Y038171D01*
X050980Y038073D02*
X035799Y038073D01*
X035799Y037974D02*
X050980Y037974D01*
X050980Y037876D02*
X035799Y037876D01*
X035799Y037777D02*
X050980Y037777D01*
X050980Y037679D02*
X035799Y037679D01*
X035799Y037580D02*
X050980Y037580D01*
X050980Y037482D02*
X035799Y037482D01*
X035799Y037383D02*
X050980Y037383D01*
X050980Y037285D02*
X035799Y037285D01*
X035799Y037186D02*
X050980Y037186D01*
X050980Y037088D02*
X035799Y037088D01*
X035799Y036989D02*
X050980Y036989D01*
X050980Y036891D02*
X035799Y036891D01*
X035799Y036792D02*
X050980Y036792D01*
X050980Y036694D02*
X035799Y036694D01*
X035799Y036595D02*
X050980Y036595D01*
X050980Y036497D02*
X035799Y036497D01*
X035799Y036398D02*
X047436Y036398D01*
X047337Y036300D02*
X035799Y036300D01*
X035799Y036201D02*
X047239Y036201D01*
X047140Y036103D02*
X035799Y036103D01*
X035799Y035807D02*
X047042Y035807D01*
X047042Y035709D02*
X035799Y035709D01*
X035799Y035610D02*
X047042Y035610D01*
X047042Y035512D02*
X035799Y035512D01*
X035799Y035413D02*
X047042Y035413D01*
X047110Y035315D02*
X035799Y035315D01*
X035799Y035216D02*
X047208Y035216D01*
X047155Y035118D02*
X035799Y035118D01*
X035799Y035019D02*
X047057Y035019D01*
X047042Y034921D02*
X035799Y034921D01*
X035799Y034822D02*
X047042Y034822D01*
X047042Y034724D02*
X035799Y034724D01*
X035799Y034625D02*
X047042Y034625D01*
X047042Y034527D02*
X035799Y034527D01*
X035799Y034428D02*
X047042Y034428D01*
X047095Y034330D02*
X035799Y034330D01*
X035799Y034231D02*
X047193Y034231D01*
X047170Y034133D02*
X035799Y034133D01*
X035799Y034034D02*
X047072Y034034D01*
X047042Y033936D02*
X035799Y033936D01*
X035799Y033837D02*
X047042Y033837D01*
X047042Y033739D02*
X035799Y033739D01*
X035799Y033640D02*
X047042Y033640D01*
X047042Y033542D02*
X035799Y033542D01*
X035799Y033443D02*
X047042Y033443D01*
X047080Y033345D02*
X035799Y033345D01*
X035830Y033246D02*
X047178Y033246D01*
X047185Y033148D02*
X035928Y033148D01*
X036027Y033049D02*
X047087Y033049D01*
X047042Y032951D02*
X036125Y032951D01*
X036224Y032852D02*
X047042Y032852D01*
X047042Y032754D02*
X036322Y032754D01*
X036421Y032655D02*
X047042Y032655D01*
X047042Y032557D02*
X036519Y032557D01*
X036618Y032458D02*
X047042Y032458D01*
X047065Y032360D02*
X036716Y032360D01*
X036815Y032261D02*
X047163Y032261D01*
X047200Y032163D02*
X036913Y032163D01*
X037012Y032064D02*
X047102Y032064D01*
X047042Y031966D02*
X037110Y031966D01*
X037209Y031867D02*
X047042Y031867D01*
X047042Y031769D02*
X037307Y031769D01*
X037406Y031670D02*
X047042Y031670D01*
X047042Y031572D02*
X037504Y031572D01*
X037603Y031473D02*
X047042Y031473D01*
X047050Y031375D02*
X037701Y031375D01*
X037800Y031276D02*
X047148Y031276D01*
X047215Y031178D02*
X037898Y031178D01*
X037997Y031079D02*
X047117Y031079D01*
X047042Y030981D02*
X038095Y030981D01*
X038220Y030882D02*
X047042Y030882D01*
X047042Y030784D02*
X038318Y030784D01*
X038395Y030685D02*
X047042Y030685D01*
X047042Y030587D02*
X038436Y030587D01*
X038475Y030488D02*
X047042Y030488D01*
X047042Y030390D02*
X038475Y030390D01*
X038475Y030291D02*
X047133Y030291D01*
X047230Y030193D02*
X038455Y030193D01*
X038414Y030094D02*
X047132Y030094D01*
X047042Y029996D02*
X038364Y029996D01*
X038266Y029897D02*
X047042Y029897D01*
X047042Y029799D02*
X038293Y029799D01*
X038392Y029700D02*
X047042Y029700D01*
X047042Y029602D02*
X038490Y029602D01*
X038589Y029503D02*
X047042Y029503D01*
X047042Y029405D02*
X038687Y029405D01*
X038786Y029306D02*
X047118Y029306D01*
X047217Y029208D02*
X038884Y029208D01*
X038983Y029109D02*
X047147Y029109D01*
X047048Y029011D02*
X039081Y029011D01*
X039180Y028912D02*
X047042Y028912D01*
X047042Y028814D02*
X039278Y028814D01*
X039377Y028715D02*
X047042Y028715D01*
X047042Y028617D02*
X039475Y028617D01*
X039574Y028518D02*
X047042Y028518D01*
X047042Y028420D02*
X039672Y028420D01*
X039771Y028321D02*
X047103Y028321D01*
X047202Y028223D02*
X039869Y028223D01*
X039968Y028124D02*
X047162Y028124D01*
X047063Y028026D02*
X040066Y028026D01*
X040165Y027927D02*
X047042Y027927D01*
X047042Y027829D02*
X040263Y027829D01*
X040362Y027730D02*
X047042Y027730D01*
X047042Y027632D02*
X040460Y027632D01*
X040559Y027533D02*
X047042Y027533D01*
X047042Y027435D02*
X040657Y027435D01*
X040756Y027336D02*
X047088Y027336D01*
X047187Y027238D02*
X040854Y027238D01*
X040953Y027139D02*
X047177Y027139D01*
X047078Y027041D02*
X041051Y027041D01*
X041150Y026942D02*
X047042Y026942D01*
X047042Y026844D02*
X041248Y026844D01*
X041347Y026745D02*
X047042Y026745D01*
X047042Y026647D02*
X041445Y026647D01*
X041544Y026548D02*
X047042Y026548D01*
X047042Y026450D02*
X041642Y026450D01*
X041741Y026351D02*
X047073Y026351D01*
X047172Y026253D02*
X041839Y026253D01*
X041938Y026154D02*
X047192Y026154D01*
X047093Y026056D02*
X042036Y026056D01*
X042135Y025957D02*
X047042Y025957D01*
X047042Y025859D02*
X042233Y025859D01*
X042332Y025760D02*
X047042Y025760D01*
X047042Y025662D02*
X042430Y025662D01*
X042529Y025563D02*
X047042Y025563D01*
X047042Y025465D02*
X042627Y025465D01*
X042726Y025366D02*
X047058Y025366D01*
X047157Y025268D02*
X042824Y025268D01*
X042923Y025169D02*
X047207Y025169D01*
X047108Y025071D02*
X043021Y025071D01*
X043120Y024972D02*
X047042Y024972D01*
X047042Y024874D02*
X043218Y024874D01*
X043317Y024775D02*
X047042Y024775D01*
X047042Y024677D02*
X043415Y024677D01*
X043514Y024578D02*
X047042Y024578D01*
X047042Y024480D02*
X043612Y024480D01*
X043711Y024381D02*
X047043Y024381D01*
X047142Y024283D02*
X043809Y024283D01*
X043908Y024184D02*
X047222Y024184D01*
X047123Y024086D02*
X044006Y024086D01*
X044105Y023987D02*
X047042Y023987D01*
X047042Y023889D02*
X044203Y023889D01*
X044302Y023790D02*
X047042Y023790D01*
X047042Y023692D02*
X044400Y023692D01*
X044499Y023593D02*
X047042Y023593D01*
X047042Y023495D02*
X044597Y023495D01*
X044696Y023396D02*
X047042Y023396D01*
X047127Y023298D02*
X044794Y023298D01*
X044893Y023199D02*
X047225Y023199D01*
X047138Y023101D02*
X044991Y023101D01*
X045090Y023002D02*
X047042Y023002D01*
X047042Y022904D02*
X045188Y022904D01*
X045287Y022805D02*
X047042Y022805D01*
X047042Y022707D02*
X045385Y022707D01*
X045484Y022608D02*
X047042Y022608D01*
X047042Y022510D02*
X045582Y022510D01*
X045681Y022411D02*
X047042Y022411D01*
X047112Y022313D02*
X045779Y022313D01*
X045878Y022214D02*
X047210Y022214D01*
X047153Y022116D02*
X045976Y022116D01*
X046075Y022017D02*
X047055Y022017D01*
X047042Y021919D02*
X046173Y021919D01*
X046272Y021820D02*
X047042Y021820D01*
X047042Y021722D02*
X046370Y021722D01*
X046469Y021623D02*
X047042Y021623D01*
X047042Y021525D02*
X046567Y021525D01*
X046666Y021426D02*
X047042Y021426D01*
X047097Y021328D02*
X046764Y021328D01*
X048842Y020737D02*
X050980Y020737D01*
X050980Y020835D02*
X049242Y020835D01*
X049188Y020934D02*
X050980Y020934D01*
X050980Y021032D02*
X049191Y021032D01*
X049290Y021131D02*
X050980Y021131D01*
X050980Y021229D02*
X049388Y021229D01*
X049487Y021328D02*
X050980Y021328D01*
X050980Y021426D02*
X049542Y021426D01*
X049542Y021525D02*
X050980Y021525D01*
X050980Y021623D02*
X049542Y021623D01*
X049542Y021722D02*
X050980Y021722D01*
X050980Y021820D02*
X049542Y021820D01*
X049542Y021919D02*
X050980Y021919D01*
X050980Y022017D02*
X049529Y022017D01*
X049430Y022116D02*
X050980Y022116D01*
X050980Y022214D02*
X049373Y022214D01*
X049472Y022313D02*
X050980Y022313D01*
X050980Y022411D02*
X049542Y022411D01*
X049542Y022510D02*
X050980Y022510D01*
X050980Y022608D02*
X049542Y022608D01*
X049542Y022707D02*
X050980Y022707D01*
X050980Y022805D02*
X049542Y022805D01*
X049542Y022904D02*
X050980Y022904D01*
X050980Y023002D02*
X049542Y023002D01*
X049445Y023101D02*
X050980Y023101D01*
X050980Y023199D02*
X049358Y023199D01*
X049457Y023298D02*
X050980Y023298D01*
X050980Y023396D02*
X049542Y023396D01*
X049542Y023495D02*
X050980Y023495D01*
X050980Y023593D02*
X049542Y023593D01*
X049542Y023692D02*
X050980Y023692D01*
X050980Y023790D02*
X049542Y023790D01*
X049542Y023889D02*
X050980Y023889D01*
X050980Y023987D02*
X049542Y023987D01*
X049460Y024086D02*
X050980Y024086D01*
X050980Y024184D02*
X049362Y024184D01*
X049442Y024283D02*
X050980Y024283D01*
X050980Y024381D02*
X049540Y024381D01*
X049542Y024480D02*
X050980Y024480D01*
X050980Y024578D02*
X049542Y024578D01*
X049542Y024677D02*
X050980Y024677D01*
X050980Y024775D02*
X049542Y024775D01*
X049542Y024874D02*
X050980Y024874D01*
X050980Y024972D02*
X049542Y024972D01*
X049475Y025071D02*
X050980Y025071D01*
X050980Y025169D02*
X049377Y025169D01*
X049427Y025268D02*
X050980Y025268D01*
X050980Y025366D02*
X049525Y025366D01*
X049542Y025465D02*
X050980Y025465D01*
X050980Y025563D02*
X049542Y025563D01*
X049542Y025662D02*
X050980Y025662D01*
X050980Y025760D02*
X049542Y025760D01*
X049542Y025859D02*
X050980Y025859D01*
X050980Y025957D02*
X049542Y025957D01*
X049490Y026056D02*
X050980Y026056D01*
X050980Y026154D02*
X049392Y026154D01*
X049412Y026253D02*
X050980Y026253D01*
X050980Y026351D02*
X049510Y026351D01*
X049542Y026450D02*
X050980Y026450D01*
X050980Y026548D02*
X049542Y026548D01*
X049542Y026647D02*
X050980Y026647D01*
X050980Y026745D02*
X049542Y026745D01*
X049542Y026844D02*
X050980Y026844D01*
X050980Y026942D02*
X049542Y026942D01*
X049505Y027041D02*
X050980Y027041D01*
X050980Y027139D02*
X049407Y027139D01*
X049397Y027238D02*
X050980Y027238D01*
X050980Y027336D02*
X049495Y027336D01*
X049542Y027435D02*
X050980Y027435D01*
X050980Y027533D02*
X049542Y027533D01*
X049542Y027632D02*
X050980Y027632D01*
X050980Y027730D02*
X049542Y027730D01*
X049542Y027829D02*
X050980Y027829D01*
X050980Y027927D02*
X049542Y027927D01*
X049520Y028026D02*
X050980Y028026D01*
X050980Y028124D02*
X049422Y028124D01*
X049323Y028223D02*
X050980Y028223D01*
X050980Y028321D02*
X049225Y028321D01*
X049154Y028420D02*
X050980Y028420D01*
X050980Y028518D02*
X049242Y028518D01*
X049242Y028617D02*
X050980Y028617D01*
X050980Y028715D02*
X048842Y028715D01*
X049242Y028814D02*
X050980Y028814D01*
X050980Y028912D02*
X049209Y028912D01*
X049170Y029011D02*
X050980Y029011D01*
X050980Y029109D02*
X049268Y029109D01*
X049367Y029208D02*
X050980Y029208D01*
X050980Y029306D02*
X049465Y029306D01*
X049542Y029405D02*
X050980Y029405D01*
X050980Y029503D02*
X049542Y029503D01*
X049542Y029602D02*
X050980Y029602D01*
X050980Y029700D02*
X049542Y029700D01*
X049542Y029799D02*
X050980Y029799D01*
X050980Y029897D02*
X049542Y029897D01*
X049542Y029996D02*
X050980Y029996D01*
X050980Y030094D02*
X049452Y030094D01*
X049353Y030193D02*
X050980Y030193D01*
X050980Y030291D02*
X049450Y030291D01*
X049542Y030390D02*
X050980Y030390D01*
X050980Y030488D02*
X049542Y030488D01*
X049542Y030587D02*
X050980Y030587D01*
X050980Y030685D02*
X049542Y030685D01*
X049542Y030784D02*
X050980Y030784D01*
X050980Y030882D02*
X049542Y030882D01*
X049542Y030981D02*
X050980Y030981D01*
X050980Y031079D02*
X049467Y031079D01*
X049368Y031178D02*
X050980Y031178D01*
X050980Y031276D02*
X049435Y031276D01*
X049534Y031375D02*
X050980Y031375D01*
X050980Y031473D02*
X049542Y031473D01*
X049542Y031572D02*
X050980Y031572D01*
X050980Y031670D02*
X049542Y031670D01*
X049542Y031769D02*
X050980Y031769D01*
X050980Y031867D02*
X049542Y031867D01*
X049542Y031966D02*
X050980Y031966D01*
X050980Y032064D02*
X049482Y032064D01*
X049383Y032163D02*
X050980Y032163D01*
X050980Y032261D02*
X049420Y032261D01*
X049519Y032360D02*
X050980Y032360D01*
X050980Y032458D02*
X049542Y032458D01*
X049542Y032557D02*
X050980Y032557D01*
X050980Y032655D02*
X049542Y032655D01*
X049542Y032754D02*
X050980Y032754D01*
X050980Y032852D02*
X049542Y032852D01*
X049542Y032951D02*
X050980Y032951D01*
X050980Y033049D02*
X049497Y033049D01*
X049398Y033148D02*
X050980Y033148D01*
X050980Y033246D02*
X049405Y033246D01*
X049504Y033345D02*
X050980Y033345D01*
X050980Y033443D02*
X049542Y033443D01*
X049542Y033542D02*
X050980Y033542D01*
X050980Y033640D02*
X049542Y033640D01*
X049542Y033739D02*
X050980Y033739D01*
X050980Y033837D02*
X049542Y033837D01*
X049542Y033936D02*
X050980Y033936D01*
X050980Y034034D02*
X049512Y034034D01*
X049413Y034133D02*
X050980Y034133D01*
X050980Y034231D02*
X049390Y034231D01*
X049489Y034330D02*
X050980Y034330D01*
X050980Y034428D02*
X049542Y034428D01*
X049542Y034527D02*
X050980Y034527D01*
X050980Y034625D02*
X049542Y034625D01*
X049542Y034724D02*
X050980Y034724D01*
X050980Y034822D02*
X049542Y034822D01*
X049542Y034921D02*
X050980Y034921D01*
X050980Y035019D02*
X049527Y035019D01*
X049428Y035118D02*
X050980Y035118D01*
X050980Y035216D02*
X049330Y035216D01*
X049231Y035315D02*
X050980Y035315D01*
X050980Y035413D02*
X049148Y035413D01*
X049242Y035512D02*
X050980Y035512D01*
X050980Y035610D02*
X049242Y035610D01*
X049242Y035807D02*
X050980Y035807D01*
X050980Y035709D02*
X048842Y035709D01*
X048842Y035807D02*
X048742Y035807D01*
X048742Y035906D02*
X048842Y035906D01*
X048842Y036004D02*
X048742Y036004D01*
X048742Y036103D02*
X048842Y036103D01*
X049019Y036103D02*
X050980Y036103D01*
X050980Y036201D02*
X048345Y036201D01*
X048443Y036103D02*
X048565Y036103D01*
X048246Y036300D02*
X050980Y036300D01*
X050980Y036398D02*
X048148Y036398D01*
X049117Y036004D02*
X050980Y036004D01*
X050980Y035906D02*
X049216Y035906D01*
X050980Y041028D02*
X040748Y041028D01*
X040906Y041126D02*
X050980Y041126D01*
X050980Y041225D02*
X041005Y041225D01*
X041103Y041323D02*
X050980Y041323D01*
X050980Y041422D02*
X041202Y041422D01*
X041300Y041520D02*
X050980Y041520D01*
X050980Y041619D02*
X041399Y041619D01*
X041497Y041717D02*
X050980Y041717D01*
X050980Y041816D02*
X041596Y041816D01*
X041646Y041914D02*
X050980Y041914D01*
X050980Y042013D02*
X041687Y042013D01*
X041705Y042111D02*
X050980Y042111D01*
X050980Y042210D02*
X041705Y042210D01*
X041705Y042308D02*
X050980Y042308D01*
X050980Y042407D02*
X041705Y042407D01*
X041705Y042505D02*
X050980Y042505D01*
X050980Y042604D02*
X041705Y042604D01*
X041705Y042702D02*
X050980Y042702D01*
X050980Y042801D02*
X041705Y042801D01*
X041705Y042899D02*
X050980Y042899D01*
X050980Y042998D02*
X041705Y042998D01*
X041705Y043096D02*
X050980Y043096D01*
X050980Y043195D02*
X041705Y043195D01*
X041705Y043293D02*
X050980Y043293D01*
X050980Y043392D02*
X041705Y043392D01*
X041705Y043490D02*
X050980Y043490D01*
X050980Y043589D02*
X041705Y043589D01*
X041705Y043687D02*
X050980Y043687D01*
X050980Y043786D02*
X041705Y043786D01*
X041705Y043884D02*
X050980Y043884D01*
X050980Y043983D02*
X041705Y043983D01*
X041705Y044081D02*
X050980Y044081D01*
X050980Y044180D02*
X041705Y044180D01*
X041705Y044278D02*
X050980Y044278D01*
X050980Y044377D02*
X041705Y044377D01*
X041705Y044475D02*
X050980Y044475D01*
X050980Y044574D02*
X041705Y044574D01*
X041705Y044672D02*
X050980Y044672D01*
X050980Y044771D02*
X041705Y044771D01*
X041705Y044869D02*
X050980Y044869D01*
X050980Y044968D02*
X041705Y044968D01*
X041705Y045066D02*
X050980Y045066D01*
X050980Y045165D02*
X041705Y045165D01*
X041705Y045263D02*
X050980Y045263D01*
X050980Y045362D02*
X041705Y045362D01*
X041705Y045460D02*
X050980Y045460D01*
X050980Y045559D02*
X041705Y045559D01*
X041705Y045657D02*
X050980Y045657D01*
X050980Y045756D02*
X041705Y045756D01*
X041705Y045854D02*
X050980Y045854D01*
X050980Y045953D02*
X041705Y045953D01*
X041705Y046051D02*
X050980Y046051D01*
X050980Y046150D02*
X041705Y046150D01*
X041705Y046248D02*
X050980Y046248D01*
X050980Y046347D02*
X041705Y046347D01*
X041705Y046445D02*
X050980Y046445D01*
X050980Y046544D02*
X041705Y046544D01*
X041705Y046642D02*
X050980Y046642D01*
X050980Y046741D02*
X041705Y046741D01*
X041705Y046839D02*
X050980Y046839D01*
X050980Y046938D02*
X041705Y046938D01*
X041705Y047036D02*
X050980Y047036D01*
X050980Y047135D02*
X041705Y047135D01*
X041705Y047233D02*
X050980Y047233D01*
X050980Y047332D02*
X041705Y047332D01*
X041705Y047430D02*
X050980Y047430D01*
X050980Y047529D02*
X041797Y047529D01*
X041895Y047627D02*
X050980Y047627D01*
X050980Y047726D02*
X041994Y047726D01*
X042092Y047824D02*
X050980Y047824D01*
X050980Y047923D02*
X042191Y047923D01*
X042289Y048021D02*
X050980Y048021D01*
X050980Y048120D02*
X042388Y048120D01*
X042486Y048218D02*
X050980Y048218D01*
X050980Y048317D02*
X042585Y048317D01*
X042683Y048415D02*
X050980Y048415D01*
X050980Y048514D02*
X042782Y048514D01*
X042880Y048612D02*
X050980Y048612D01*
X050980Y048711D02*
X042979Y048711D01*
X043077Y048809D02*
X050980Y048809D01*
X050980Y048908D02*
X043176Y048908D01*
X043274Y049006D02*
X050980Y049006D01*
X050980Y049105D02*
X043373Y049105D01*
X043471Y049203D02*
X050980Y049203D01*
X050980Y049302D02*
X043570Y049302D01*
X043668Y049400D02*
X050980Y049400D01*
X050980Y049499D02*
X043767Y049499D01*
X043865Y049597D02*
X050980Y049597D01*
X050980Y049696D02*
X043964Y049696D01*
X044062Y049794D02*
X050980Y049794D01*
X050980Y049893D02*
X050213Y049893D01*
X050362Y049991D02*
X050980Y049991D01*
X050980Y050090D02*
X050460Y050090D01*
X050559Y050188D02*
X050980Y050188D01*
X050980Y050287D02*
X050657Y050287D01*
X050756Y050385D02*
X050980Y050385D01*
X050980Y050484D02*
X050825Y050484D01*
X050866Y050582D02*
X050980Y050582D01*
X050980Y050681D02*
X050923Y050681D01*
X050965Y050779D02*
X050980Y050779D01*
X050980Y052636D02*
X050925Y052767D01*
X050898Y052795D01*
X050898Y052988D01*
X050805Y053212D01*
X050283Y053734D01*
X050059Y053827D01*
X048935Y053827D01*
X048795Y053967D01*
X048174Y053967D01*
X047773Y053565D01*
X047671Y053667D01*
X047535Y053667D01*
X047535Y053267D01*
X047435Y053267D01*
X047435Y053667D01*
X047298Y053667D01*
X047035Y053403D01*
X047035Y053267D01*
X047435Y053267D01*
X047435Y053167D01*
X047035Y053167D01*
X047035Y053031D01*
X047136Y052929D01*
X047034Y052827D01*
X046928Y052827D01*
X046862Y052894D01*
X046696Y052962D01*
X045336Y052962D01*
X045171Y052894D01*
X045044Y052767D01*
X044976Y052602D01*
X044976Y051832D01*
X045020Y051725D01*
X044976Y051617D01*
X044976Y051055D01*
X044264Y051055D01*
X044264Y051945D01*
X044171Y052169D01*
X043665Y052675D01*
X043447Y052765D01*
X043417Y052795D01*
X043251Y052864D01*
X042688Y052864D01*
X042688Y052956D01*
X042580Y053216D01*
X042381Y053415D01*
X042217Y053483D01*
X042246Y053505D01*
X042292Y053550D01*
X042329Y053602D01*
X042358Y053659D01*
X042378Y053720D01*
X042388Y053783D01*
X042388Y053787D01*
X042009Y053787D01*
X042009Y053523D01*
X041952Y053523D01*
X041952Y053787D01*
X041573Y053787D01*
X041573Y053783D01*
X041583Y053720D01*
X041603Y053659D01*
X041632Y053602D01*
X041670Y053550D01*
X041715Y053505D01*
X041745Y053483D01*
X041580Y053415D01*
X041381Y053216D01*
X041273Y052956D01*
X041273Y052675D01*
X041381Y052415D01*
X041480Y052315D01*
X041381Y052216D01*
X041273Y051956D01*
X041273Y051675D01*
X041381Y051415D01*
X041480Y051315D01*
X041448Y051284D01*
X040195Y051284D01*
X040289Y051511D01*
X040289Y051837D01*
X040164Y052138D01*
X039933Y052369D01*
X039900Y052383D01*
X039914Y052401D01*
X039951Y052474D01*
X039976Y052552D01*
X039987Y052624D01*
X039519Y052624D01*
X039519Y052724D01*
X039987Y052724D01*
X039976Y052795D01*
X039951Y052873D01*
X039914Y052946D01*
X041273Y052946D01*
X041273Y052848D02*
X039959Y052848D01*
X039983Y052749D02*
X041273Y052749D01*
X041283Y052651D02*
X039519Y052651D01*
X039419Y052651D02*
X038063Y052651D01*
X038063Y052749D02*
X038954Y052749D01*
X038950Y052724D02*
X039419Y052724D01*
X039419Y052624D01*
X038950Y052624D01*
X038962Y052552D01*
X038987Y052474D01*
X039024Y052401D01*
X039038Y052383D01*
X039004Y052369D01*
X038774Y052138D01*
X038649Y051837D01*
X038649Y051511D01*
X038774Y051209D01*
X038809Y051174D01*
X038774Y051138D01*
X038649Y050837D01*
X038649Y050511D01*
X038743Y050284D01*
X038084Y050284D01*
X038063Y050304D01*
X038063Y055389D01*
X037970Y055614D01*
X037799Y055785D01*
X036980Y056603D01*
X036980Y058244D01*
X036888Y058468D01*
X036716Y058640D01*
X036600Y058755D01*
X050248Y058755D01*
X050344Y058749D01*
X050528Y058699D01*
X050693Y058604D01*
X050828Y058469D01*
X050924Y058304D01*
X050973Y058119D01*
X050980Y058024D01*
X050980Y052636D01*
X050980Y052651D02*
X050973Y052651D01*
X050980Y052749D02*
X050933Y052749D01*
X050898Y052848D02*
X050980Y052848D01*
X050980Y052946D02*
X050898Y052946D01*
X050874Y053045D02*
X050980Y053045D01*
X050980Y053143D02*
X050833Y053143D01*
X050775Y053242D02*
X050980Y053242D01*
X050980Y053340D02*
X050677Y053340D01*
X050578Y053439D02*
X050980Y053439D01*
X050980Y053537D02*
X050480Y053537D01*
X050381Y053636D02*
X050980Y053636D01*
X050980Y053734D02*
X050283Y053734D01*
X050980Y053833D02*
X048930Y053833D01*
X048831Y053931D02*
X050980Y053931D01*
X050980Y054030D02*
X042329Y054030D01*
X042329Y054029D02*
X042292Y054081D01*
X042246Y054126D01*
X042194Y054164D01*
X042137Y054193D01*
X042076Y054213D01*
X042013Y054223D01*
X042009Y054223D01*
X042009Y053844D01*
X041952Y053844D01*
X041952Y053787D01*
X042009Y053787D01*
X042009Y053844D01*
X042388Y053844D01*
X042388Y053847D01*
X042378Y053911D01*
X042358Y053972D01*
X042329Y054029D01*
X042372Y053931D02*
X048138Y053931D01*
X048040Y053833D02*
X042009Y053833D01*
X041952Y053833D02*
X040289Y053833D01*
X040289Y053837D02*
X040164Y054138D01*
X039933Y054369D01*
X039632Y054494D01*
X039306Y054494D01*
X039004Y054369D01*
X038774Y054138D01*
X038649Y053837D01*
X038649Y053511D01*
X038774Y053209D01*
X039004Y052978D01*
X039038Y052965D01*
X039024Y052946D01*
X038063Y052946D01*
X038063Y052848D02*
X038979Y052848D01*
X038987Y052873D02*
X038962Y052795D01*
X038950Y052724D01*
X038987Y052873D02*
X039024Y052946D01*
X038938Y053045D02*
X038063Y053045D01*
X038063Y053143D02*
X038840Y053143D01*
X038760Y053242D02*
X038063Y053242D01*
X038063Y053340D02*
X038719Y053340D01*
X038679Y053439D02*
X038063Y053439D01*
X038063Y053537D02*
X038649Y053537D01*
X038649Y053636D02*
X038063Y053636D01*
X038063Y053734D02*
X038649Y053734D01*
X038649Y053833D02*
X038063Y053833D01*
X038063Y053931D02*
X038688Y053931D01*
X038729Y054030D02*
X038063Y054030D01*
X038063Y054128D02*
X038770Y054128D01*
X038862Y054227D02*
X038063Y054227D01*
X038063Y054325D02*
X038961Y054325D01*
X039137Y054424D02*
X038063Y054424D01*
X038063Y054522D02*
X050980Y054522D01*
X050980Y054424D02*
X039801Y054424D01*
X039977Y054325D02*
X050980Y054325D01*
X050980Y054227D02*
X040076Y054227D01*
X040168Y054128D02*
X041718Y054128D01*
X041715Y054126D02*
X041670Y054081D01*
X041632Y054029D01*
X041603Y053972D01*
X041583Y053911D01*
X041573Y053847D01*
X041573Y053844D01*
X041952Y053844D01*
X041952Y054223D01*
X041949Y054223D01*
X041885Y054213D01*
X041824Y054193D01*
X041767Y054164D01*
X041715Y054126D01*
X041633Y054030D02*
X040209Y054030D01*
X040250Y053931D02*
X041590Y053931D01*
X041581Y053734D02*
X040289Y053734D01*
X040289Y053636D02*
X041615Y053636D01*
X041683Y053537D02*
X040289Y053537D01*
X040289Y053511D02*
X040289Y053837D01*
X040289Y053511D02*
X040164Y053209D01*
X039933Y052978D01*
X039900Y052965D01*
X039914Y052946D01*
X040000Y053045D02*
X041310Y053045D01*
X041351Y053143D02*
X040098Y053143D01*
X040178Y053242D02*
X041406Y053242D01*
X041505Y053340D02*
X040218Y053340D01*
X040259Y053439D02*
X041637Y053439D01*
X041952Y053537D02*
X042009Y053537D01*
X042009Y053636D02*
X041952Y053636D01*
X041952Y053734D02*
X042009Y053734D01*
X042009Y053931D02*
X041952Y053931D01*
X041952Y054030D02*
X042009Y054030D01*
X042009Y054128D02*
X041952Y054128D01*
X042243Y054128D02*
X050980Y054128D01*
X050980Y054621D02*
X038063Y054621D01*
X038063Y054719D02*
X050980Y054719D01*
X050980Y054818D02*
X038063Y054818D01*
X038063Y054916D02*
X050980Y054916D01*
X050980Y055015D02*
X038063Y055015D01*
X038063Y055113D02*
X050980Y055113D01*
X050980Y055212D02*
X038063Y055212D01*
X038063Y055310D02*
X050980Y055310D01*
X050980Y055409D02*
X038055Y055409D01*
X038014Y055507D02*
X047043Y055507D01*
X047091Y055480D02*
X047356Y055409D01*
X047630Y055409D01*
X047894Y055480D01*
X048131Y055617D01*
X048325Y055810D01*
X048462Y056048D01*
X048533Y056312D01*
X048533Y056586D01*
X048462Y056851D01*
X048325Y057088D01*
X048131Y057282D01*
X047894Y057419D01*
X047630Y057490D01*
X047356Y057490D01*
X047091Y057419D01*
X046854Y057282D01*
X046660Y057088D01*
X046523Y056851D01*
X046452Y056586D01*
X046452Y056312D01*
X046523Y056048D01*
X046660Y055810D01*
X046854Y055617D01*
X047091Y055480D01*
X046873Y055606D02*
X037974Y055606D01*
X037880Y055704D02*
X046766Y055704D01*
X046668Y055803D02*
X037781Y055803D01*
X037683Y055901D02*
X046607Y055901D01*
X046551Y056000D02*
X037584Y056000D01*
X037486Y056098D02*
X046509Y056098D01*
X046483Y056197D02*
X037387Y056197D01*
X037289Y056295D02*
X046457Y056295D01*
X046452Y056394D02*
X037190Y056394D01*
X037092Y056492D02*
X046452Y056492D01*
X046453Y056591D02*
X036993Y056591D01*
X036980Y056689D02*
X046480Y056689D01*
X046506Y056788D02*
X036980Y056788D01*
X036980Y056886D02*
X046543Y056886D01*
X046600Y056985D02*
X036980Y056985D01*
X036980Y057083D02*
X046657Y057083D01*
X046753Y057182D02*
X036980Y057182D01*
X036980Y057280D02*
X046852Y057280D01*
X047021Y057379D02*
X036980Y057379D01*
X036980Y057477D02*
X047308Y057477D01*
X047677Y057477D02*
X050980Y057477D01*
X050980Y057379D02*
X047964Y057379D01*
X048133Y057280D02*
X050980Y057280D01*
X050980Y057182D02*
X048232Y057182D01*
X048328Y057083D02*
X050980Y057083D01*
X050980Y056985D02*
X048385Y056985D01*
X048442Y056886D02*
X050980Y056886D01*
X050980Y056788D02*
X048479Y056788D01*
X048505Y056689D02*
X050980Y056689D01*
X050980Y056591D02*
X048532Y056591D01*
X048533Y056492D02*
X050980Y056492D01*
X050980Y056394D02*
X048533Y056394D01*
X048528Y056295D02*
X050980Y056295D01*
X050980Y056197D02*
X048502Y056197D01*
X048476Y056098D02*
X050980Y056098D01*
X050980Y056000D02*
X048434Y056000D01*
X048378Y055901D02*
X050980Y055901D01*
X050980Y055803D02*
X048318Y055803D01*
X048219Y055704D02*
X050980Y055704D01*
X050980Y055606D02*
X048113Y055606D01*
X047942Y055507D02*
X050980Y055507D01*
X050980Y057576D02*
X036980Y057576D01*
X036980Y057674D02*
X050980Y057674D01*
X050980Y057773D02*
X036980Y057773D01*
X036980Y057871D02*
X050980Y057871D01*
X050980Y057970D02*
X036980Y057970D01*
X036980Y058068D02*
X050977Y058068D01*
X050961Y058167D02*
X036980Y058167D01*
X036972Y058265D02*
X050934Y058265D01*
X050889Y058364D02*
X036931Y058364D01*
X036890Y058462D02*
X050832Y058462D01*
X050737Y058561D02*
X036795Y058561D01*
X036696Y058659D02*
X050598Y058659D01*
X047941Y053734D02*
X042380Y053734D01*
X042346Y053636D02*
X047267Y053636D01*
X047168Y053537D02*
X042279Y053537D01*
X042325Y053439D02*
X047070Y053439D01*
X047035Y053340D02*
X042456Y053340D01*
X042555Y053242D02*
X047435Y053242D01*
X047435Y053340D02*
X047535Y053340D01*
X047535Y053439D02*
X047435Y053439D01*
X047435Y053537D02*
X047535Y053537D01*
X047535Y053636D02*
X047435Y053636D01*
X047702Y053636D02*
X047843Y053636D01*
X047035Y053143D02*
X042611Y053143D01*
X042652Y053045D02*
X047035Y053045D01*
X047119Y052946D02*
X046735Y052946D01*
X046908Y052848D02*
X047055Y052848D01*
X045297Y052946D02*
X042688Y052946D01*
X043290Y052848D02*
X045125Y052848D01*
X045037Y052749D02*
X043486Y052749D01*
X043689Y052651D02*
X044996Y052651D01*
X044976Y052552D02*
X043788Y052552D01*
X043886Y052454D02*
X044976Y052454D01*
X044976Y052355D02*
X043985Y052355D01*
X044083Y052257D02*
X044976Y052257D01*
X044976Y052158D02*
X044175Y052158D01*
X044216Y052060D02*
X044976Y052060D01*
X044976Y051961D02*
X044257Y051961D01*
X044264Y051863D02*
X044976Y051863D01*
X045004Y051764D02*
X044264Y051764D01*
X044264Y051666D02*
X044996Y051666D01*
X044976Y051567D02*
X044264Y051567D01*
X044264Y051469D02*
X044976Y051469D01*
X044976Y051370D02*
X044264Y051370D01*
X044264Y051272D02*
X044976Y051272D01*
X044976Y051173D02*
X044264Y051173D01*
X044264Y051075D02*
X044976Y051075D01*
X041425Y051370D02*
X040231Y051370D01*
X040272Y051469D02*
X041359Y051469D01*
X041318Y051567D02*
X040289Y051567D01*
X040289Y051666D02*
X041277Y051666D01*
X041273Y051764D02*
X040289Y051764D01*
X040278Y051863D02*
X041273Y051863D01*
X041275Y051961D02*
X040237Y051961D01*
X040197Y052060D02*
X041316Y052060D01*
X041357Y052158D02*
X040144Y052158D01*
X040046Y052257D02*
X041421Y052257D01*
X041440Y052355D02*
X039947Y052355D01*
X039940Y052454D02*
X041365Y052454D01*
X041324Y052552D02*
X039976Y052552D01*
X038997Y052454D02*
X038063Y052454D01*
X038063Y052552D02*
X038962Y052552D01*
X038991Y052355D02*
X038063Y052355D01*
X038063Y052257D02*
X038892Y052257D01*
X038794Y052158D02*
X038063Y052158D01*
X038063Y052060D02*
X038741Y052060D01*
X038700Y051961D02*
X038063Y051961D01*
X038063Y051863D02*
X038660Y051863D01*
X038649Y051764D02*
X038063Y051764D01*
X038063Y051666D02*
X038649Y051666D01*
X038649Y051567D02*
X038063Y051567D01*
X038063Y051469D02*
X038666Y051469D01*
X038707Y051370D02*
X038063Y051370D01*
X038063Y051272D02*
X038748Y051272D01*
X038809Y051173D02*
X038063Y051173D01*
X038063Y051075D02*
X038747Y051075D01*
X038707Y050976D02*
X038063Y050976D01*
X038063Y050878D02*
X038666Y050878D01*
X038649Y050779D02*
X038063Y050779D01*
X038063Y050681D02*
X038649Y050681D01*
X038649Y050582D02*
X038063Y050582D01*
X038063Y050484D02*
X038660Y050484D01*
X038701Y050385D02*
X038063Y050385D01*
X038081Y050287D02*
X038742Y050287D01*
X035374Y046445D02*
X034262Y046445D01*
X034289Y046544D02*
X035276Y046544D01*
X035177Y046642D02*
X034289Y046642D01*
X034289Y046741D02*
X035129Y046741D01*
X035088Y046839D02*
X034288Y046839D01*
X034247Y046938D02*
X035071Y046938D01*
X035071Y047036D02*
X034206Y047036D01*
X034166Y047135D02*
X035071Y047135D01*
X035071Y047233D02*
X034174Y047233D01*
X034215Y047332D02*
X035071Y047332D01*
X035071Y047430D02*
X034256Y047430D01*
X034289Y047529D02*
X035071Y047529D01*
X035071Y047627D02*
X034289Y047627D01*
X034289Y047726D02*
X035071Y047726D01*
X035071Y047824D02*
X034289Y047824D01*
X034253Y047923D02*
X035071Y047923D01*
X035071Y048021D02*
X034213Y048021D01*
X034172Y048120D02*
X035071Y048120D01*
X035071Y048218D02*
X034168Y048218D01*
X034209Y048317D02*
X035071Y048317D01*
X035071Y048415D02*
X034249Y048415D01*
X034289Y048514D02*
X035071Y048514D01*
X035071Y048612D02*
X034289Y048612D01*
X034289Y048711D02*
X035071Y048711D01*
X035071Y048809D02*
X034289Y048809D01*
X034260Y048908D02*
X035071Y048908D01*
X035071Y049006D02*
X034219Y049006D01*
X034178Y049105D02*
X035071Y049105D01*
X035071Y049203D02*
X034158Y049203D01*
X034202Y049302D02*
X035071Y049302D01*
X035071Y049400D02*
X034243Y049400D01*
X034284Y049499D02*
X035071Y049499D01*
X035071Y049597D02*
X034289Y049597D01*
X034289Y049696D02*
X035071Y049696D01*
X035071Y049794D02*
X034289Y049794D01*
X034266Y049893D02*
X035071Y049893D01*
X035071Y049991D02*
X034225Y049991D01*
X034184Y050090D02*
X035071Y050090D01*
X035071Y050188D02*
X034114Y050188D01*
X034016Y050287D02*
X035071Y050287D01*
X035071Y050385D02*
X033902Y050385D01*
X033954Y050484D02*
X035071Y050484D01*
X035071Y050582D02*
X033981Y050582D01*
X033979Y050779D02*
X035071Y050779D01*
X035071Y050681D02*
X033519Y050681D01*
X033949Y050878D02*
X035071Y050878D01*
X035071Y050976D02*
X033928Y050976D01*
X034030Y051075D02*
X035071Y051075D01*
X035071Y051173D02*
X034128Y051173D01*
X034190Y051272D02*
X035071Y051272D01*
X035071Y051370D02*
X034231Y051370D01*
X034272Y051469D02*
X035071Y051469D01*
X035071Y051567D02*
X034289Y051567D01*
X034289Y051666D02*
X035071Y051666D01*
X035071Y051764D02*
X034289Y051764D01*
X034278Y051863D02*
X035071Y051863D01*
X035071Y051961D02*
X034237Y051961D01*
X034197Y052060D02*
X035071Y052060D01*
X035071Y052158D02*
X034144Y052158D01*
X034184Y052257D02*
X035071Y052257D01*
X035071Y052355D02*
X034225Y052355D01*
X034265Y052454D02*
X035071Y052454D01*
X035071Y052552D02*
X034289Y052552D01*
X034289Y052651D02*
X035071Y052651D01*
X035071Y052749D02*
X034289Y052749D01*
X034284Y052848D02*
X035071Y052848D01*
X035071Y052946D02*
X034244Y052946D01*
X034203Y053045D02*
X035071Y053045D01*
X035071Y053143D02*
X034159Y053143D01*
X034178Y053242D02*
X035071Y053242D01*
X035071Y053340D02*
X034218Y053340D01*
X034259Y053439D02*
X035071Y053439D01*
X035071Y053537D02*
X034289Y053537D01*
X034289Y053636D02*
X035071Y053636D01*
X035071Y053734D02*
X034289Y053734D01*
X034289Y053833D02*
X035071Y053833D01*
X035071Y053931D02*
X034250Y053931D01*
X034209Y054030D02*
X035071Y054030D01*
X035071Y054128D02*
X034168Y054128D01*
X034076Y054227D02*
X034974Y054227D01*
X034876Y054325D02*
X033977Y054325D01*
X033801Y054424D02*
X034777Y054424D01*
X034679Y054522D02*
X032944Y054522D01*
X032845Y054424D02*
X033137Y054424D01*
X032961Y054325D02*
X032747Y054325D01*
X032648Y054227D02*
X032862Y054227D01*
X032770Y054128D02*
X032550Y054128D01*
X032451Y054030D02*
X032729Y054030D01*
X032688Y053931D02*
X032353Y053931D01*
X032254Y053833D02*
X032649Y053833D01*
X032649Y053734D02*
X032156Y053734D01*
X032057Y053636D02*
X032649Y053636D01*
X032649Y053537D02*
X031959Y053537D01*
X031860Y053439D02*
X032679Y053439D01*
X032719Y053340D02*
X031762Y053340D01*
X034221Y046347D02*
X035473Y046347D01*
X035571Y046248D02*
X034180Y046248D01*
X034153Y046150D02*
X035679Y046150D01*
X026137Y032261D02*
X024654Y032261D01*
X024556Y032163D02*
X025996Y032163D01*
X024616Y030390D02*
X032150Y030390D01*
X032248Y030291D02*
X024616Y030291D01*
X024616Y030193D02*
X032347Y030193D01*
X032445Y030094D02*
X024616Y030094D01*
X024616Y029996D02*
X032544Y029996D01*
X032642Y029897D02*
X024616Y029897D01*
X024616Y029799D02*
X032741Y029799D01*
X032839Y029700D02*
X024616Y029700D01*
X024616Y029602D02*
X032938Y029602D01*
X033036Y029503D02*
X024616Y029503D01*
X024616Y029405D02*
X033135Y029405D01*
X033233Y029306D02*
X024616Y029306D01*
X024616Y029208D02*
X033332Y029208D01*
X033430Y029109D02*
X024616Y029109D01*
X024616Y029011D02*
X033529Y029011D01*
X033627Y028912D02*
X024616Y028912D01*
X024616Y028814D02*
X033726Y028814D01*
X033824Y028715D02*
X024616Y028715D01*
X024616Y028617D02*
X033923Y028617D01*
X034021Y028518D02*
X024616Y028518D01*
X024616Y028420D02*
X034120Y028420D01*
X034218Y028321D02*
X024616Y028321D01*
X024616Y028223D02*
X034317Y028223D01*
X034415Y028124D02*
X024616Y028124D01*
X024616Y028026D02*
X034514Y028026D01*
X034612Y027927D02*
X024616Y027927D01*
X024616Y027829D02*
X034711Y027829D01*
X034809Y027730D02*
X024616Y027730D01*
X024616Y027632D02*
X034908Y027632D01*
X035006Y027533D02*
X024616Y027533D01*
X024616Y027435D02*
X035105Y027435D01*
X035203Y027336D02*
X024616Y027336D01*
X024616Y027238D02*
X035302Y027238D01*
X035400Y027139D02*
X024616Y027139D01*
X024616Y027041D02*
X035499Y027041D01*
X035597Y026942D02*
X024616Y026942D01*
X024616Y026844D02*
X035696Y026844D01*
X035794Y026745D02*
X024616Y026745D01*
X024616Y026647D02*
X035893Y026647D01*
X035991Y026548D02*
X024616Y026548D01*
X024616Y026450D02*
X036090Y026450D01*
X036188Y026351D02*
X035219Y026351D01*
X035366Y026290D02*
X035060Y026417D01*
X034728Y026417D01*
X034422Y026290D01*
X034187Y026055D01*
X034060Y025749D01*
X034060Y025417D01*
X034187Y025111D01*
X034422Y024876D01*
X034728Y024749D01*
X035060Y024749D01*
X035366Y024876D01*
X035601Y025111D01*
X035728Y025417D01*
X035728Y025749D01*
X035601Y026055D01*
X035366Y026290D01*
X035404Y026253D02*
X036287Y026253D01*
X036385Y026154D02*
X035502Y026154D01*
X035601Y026056D02*
X036484Y026056D01*
X036582Y025957D02*
X035642Y025957D01*
X035683Y025859D02*
X036681Y025859D01*
X036779Y025760D02*
X035723Y025760D01*
X035728Y025662D02*
X036878Y025662D01*
X036976Y025563D02*
X035728Y025563D01*
X035728Y025465D02*
X037075Y025465D01*
X037173Y025366D02*
X035707Y025366D01*
X035666Y025268D02*
X037272Y025268D01*
X037370Y025169D02*
X035625Y025169D01*
X035561Y025071D02*
X037469Y025071D01*
X037567Y024972D02*
X035462Y024972D01*
X035360Y024874D02*
X037666Y024874D01*
X037764Y024775D02*
X035122Y024775D01*
X034666Y024775D02*
X027209Y024775D01*
X027209Y024677D02*
X037863Y024677D01*
X037961Y024578D02*
X027209Y024578D01*
X027209Y024491D02*
X027209Y024934D01*
X027199Y024972D01*
X034326Y024972D01*
X034227Y025071D02*
X024616Y025071D01*
X024616Y025169D02*
X034163Y025169D01*
X034122Y025268D02*
X024616Y025268D01*
X024616Y025366D02*
X034081Y025366D01*
X034060Y025465D02*
X024616Y025465D01*
X024616Y025563D02*
X034060Y025563D01*
X034060Y025662D02*
X024616Y025662D01*
X024616Y025760D02*
X034065Y025760D01*
X034106Y025859D02*
X024616Y025859D01*
X024616Y025957D02*
X034146Y025957D01*
X034187Y026056D02*
X024616Y026056D01*
X024616Y026154D02*
X034286Y026154D01*
X034384Y026253D02*
X024616Y026253D01*
X024616Y026351D02*
X034569Y026351D01*
X034428Y024874D02*
X027209Y024874D01*
X027199Y024972D02*
X027179Y025006D01*
X027152Y025034D01*
X027117Y025054D01*
X027079Y025064D01*
X026637Y025064D01*
X026637Y024491D01*
X027209Y024491D01*
X027209Y024391D02*
X026637Y024391D01*
X026637Y023819D01*
X027079Y023819D01*
X027117Y023829D01*
X027152Y023849D01*
X027179Y023877D01*
X027199Y023911D01*
X027209Y023949D01*
X027209Y024391D01*
X027209Y024381D02*
X038158Y024381D01*
X038060Y024480D02*
X026637Y024480D01*
X026637Y024491D02*
X026637Y024391D01*
X026537Y024391D01*
X026537Y023819D01*
X026095Y023819D01*
X026057Y023829D01*
X026022Y023849D01*
X025995Y023877D01*
X025975Y023911D01*
X025965Y023949D01*
X025965Y024391D01*
X026537Y024391D01*
X026537Y024491D01*
X025965Y024491D01*
X025965Y024934D01*
X025975Y024972D01*
X024616Y024972D01*
X024616Y024874D02*
X025965Y024874D01*
X025975Y024972D02*
X025995Y025006D01*
X026022Y025034D01*
X026057Y025054D01*
X026095Y025064D01*
X026537Y025064D01*
X026537Y024491D01*
X026637Y024491D01*
X026637Y024578D02*
X026537Y024578D01*
X026537Y024480D02*
X024616Y024480D01*
X024616Y024578D02*
X025965Y024578D01*
X025965Y024677D02*
X024616Y024677D01*
X024616Y024775D02*
X025965Y024775D01*
X025965Y024381D02*
X024616Y024381D01*
X024616Y024283D02*
X025965Y024283D01*
X025965Y024184D02*
X024616Y024184D01*
X024616Y024086D02*
X025965Y024086D01*
X025965Y023987D02*
X024616Y023987D01*
X024616Y023889D02*
X025988Y023889D01*
X026121Y023593D02*
X024616Y023593D01*
X024616Y023495D02*
X025989Y023495D01*
X026064Y023570D02*
X025805Y023310D01*
X025665Y022971D01*
X025665Y022604D01*
X025805Y022265D01*
X026064Y022006D01*
X026404Y021865D01*
X026770Y021865D01*
X027110Y022006D01*
X027369Y022265D01*
X027509Y022604D01*
X027509Y022971D01*
X027369Y023310D01*
X027110Y023570D01*
X026770Y023710D01*
X026404Y023710D01*
X026064Y023570D01*
X025891Y023396D02*
X024616Y023396D01*
X024616Y023298D02*
X025800Y023298D01*
X025759Y023199D02*
X024616Y023199D01*
X024616Y023101D02*
X025718Y023101D01*
X025677Y023002D02*
X024616Y023002D01*
X024616Y022904D02*
X025665Y022904D01*
X025665Y022805D02*
X024616Y022805D01*
X024616Y022707D02*
X025665Y022707D01*
X025665Y022608D02*
X024616Y022608D01*
X024616Y022510D02*
X025704Y022510D01*
X025745Y022411D02*
X024616Y022411D01*
X024616Y022313D02*
X025785Y022313D01*
X025856Y022214D02*
X024616Y022214D01*
X024616Y022116D02*
X025955Y022116D01*
X026053Y022017D02*
X024616Y022017D01*
X024616Y021919D02*
X026275Y021919D01*
X026899Y021919D02*
X041506Y021919D01*
X041408Y022017D02*
X027121Y022017D01*
X027219Y022116D02*
X041309Y022116D01*
X041211Y022214D02*
X027318Y022214D01*
X027389Y022313D02*
X041112Y022313D01*
X041014Y022411D02*
X027429Y022411D01*
X027470Y022510D02*
X040119Y022510D01*
X039931Y022608D02*
X027509Y022608D01*
X027509Y022707D02*
X039833Y022707D01*
X039734Y022805D02*
X027509Y022805D01*
X027509Y022904D02*
X039636Y022904D01*
X039699Y022840D02*
X039699Y022840D01*
X039537Y023002D02*
X027497Y023002D01*
X027456Y023101D02*
X039439Y023101D01*
X039340Y023199D02*
X027415Y023199D01*
X027374Y023298D02*
X039242Y023298D01*
X039143Y023396D02*
X027283Y023396D01*
X027185Y023495D02*
X039045Y023495D01*
X038946Y023593D02*
X027053Y023593D01*
X026816Y023692D02*
X038848Y023692D01*
X038749Y023790D02*
X024616Y023790D01*
X024616Y023692D02*
X026358Y023692D01*
X026537Y023889D02*
X026637Y023889D01*
X026637Y023987D02*
X026537Y023987D01*
X026537Y024086D02*
X026637Y024086D01*
X026637Y024184D02*
X026537Y024184D01*
X026537Y024283D02*
X026637Y024283D01*
X026637Y024381D02*
X026537Y024381D01*
X026537Y024677D02*
X026637Y024677D01*
X026637Y024775D02*
X026537Y024775D01*
X026537Y024874D02*
X026637Y024874D01*
X026637Y024972D02*
X026537Y024972D01*
X027209Y024283D02*
X038257Y024283D01*
X038355Y024184D02*
X027209Y024184D01*
X027209Y024086D02*
X038454Y024086D01*
X038552Y023987D02*
X027209Y023987D01*
X027186Y023889D02*
X038651Y023889D01*
X040500Y021623D02*
X024616Y021623D01*
X024616Y021525D02*
X040394Y021525D01*
X040296Y021426D02*
X024616Y021426D01*
X024616Y021328D02*
X040251Y021328D01*
X040210Y021229D02*
X024616Y021229D01*
X024616Y021131D02*
X040180Y021131D01*
X040180Y021032D02*
X024616Y021032D01*
X024616Y020934D02*
X040180Y020934D01*
X040197Y020835D02*
X024616Y020835D01*
X024616Y020737D02*
X040237Y020737D01*
X040278Y020638D02*
X024616Y020638D01*
X024616Y020540D02*
X040363Y020540D01*
X040461Y020441D02*
X024616Y020441D01*
X024616Y020343D02*
X040661Y020343D01*
X041119Y020343D02*
X041661Y020343D01*
X041461Y020441D02*
X041319Y020441D01*
X042119Y020343D02*
X042802Y020343D01*
X042802Y020441D02*
X042319Y020441D01*
X042418Y020540D02*
X042802Y020540D01*
X042787Y020638D02*
X042502Y020638D01*
X042543Y020737D02*
X042688Y020737D01*
X042590Y020835D02*
X042584Y020835D01*
X042802Y020244D02*
X024616Y020244D01*
X024616Y020146D02*
X042802Y020146D01*
X042802Y020047D02*
X024616Y020047D01*
X024616Y019949D02*
X042802Y019949D01*
X042840Y019850D02*
X024616Y019850D01*
X024616Y019752D02*
X042881Y019752D01*
X042922Y019653D02*
X024616Y019653D01*
X024616Y019555D02*
X042985Y019555D01*
X043083Y019456D02*
X024616Y019456D01*
X024616Y019358D02*
X043182Y019358D01*
X043280Y019259D02*
X024616Y019259D01*
X024616Y019161D02*
X043379Y019161D01*
X043477Y019062D02*
X024616Y019062D01*
X024616Y018964D02*
X043576Y018964D01*
X043674Y018865D02*
X024616Y018865D01*
X024616Y018767D02*
X043773Y018767D01*
X043871Y018668D02*
X024616Y018668D01*
X024616Y018570D02*
X043970Y018570D01*
X044068Y018471D02*
X024616Y018471D01*
X024616Y018373D02*
X044167Y018373D01*
X044265Y018274D02*
X024616Y018274D01*
X024616Y018176D02*
X034634Y018176D01*
X034614Y018166D02*
X034546Y018116D01*
X034487Y018057D01*
X034437Y017989D01*
X034399Y017914D01*
X034373Y017834D01*
X034361Y017759D01*
X034844Y017759D01*
X034844Y017659D01*
X034361Y017659D01*
X034373Y017584D01*
X034399Y017504D01*
X034437Y017429D01*
X034487Y017361D01*
X034546Y017302D01*
X034614Y017252D01*
X034689Y017214D01*
X034769Y017188D01*
X034844Y017176D01*
X034844Y017659D01*
X034944Y017659D01*
X034944Y017176D01*
X035019Y017188D01*
X035099Y017214D01*
X035174Y017252D01*
X035242Y017302D01*
X035301Y017361D01*
X035351Y017429D01*
X035389Y017504D01*
X035415Y017584D01*
X035427Y017659D01*
X034944Y017659D01*
X034944Y017759D01*
X034844Y017759D01*
X034844Y018242D01*
X034769Y018230D01*
X034689Y018204D01*
X034614Y018166D01*
X034507Y018077D02*
X024616Y018077D01*
X024616Y017979D02*
X034432Y017979D01*
X034388Y017880D02*
X024616Y017880D01*
X024616Y017782D02*
X034365Y017782D01*
X034373Y017585D02*
X024616Y017585D01*
X024616Y017683D02*
X034844Y017683D01*
X034844Y017585D02*
X034944Y017585D01*
X034944Y017683D02*
X044856Y017683D01*
X044758Y017782D02*
X035423Y017782D01*
X035427Y017759D02*
X035415Y017834D01*
X035389Y017914D01*
X035351Y017989D01*
X035301Y018057D01*
X035242Y018116D01*
X035174Y018166D01*
X035099Y018204D01*
X035019Y018230D01*
X034944Y018242D01*
X034944Y017759D01*
X035427Y017759D01*
X035400Y017880D02*
X044659Y017880D01*
X044561Y017979D02*
X035356Y017979D01*
X035281Y018077D02*
X044462Y018077D01*
X044364Y018176D02*
X035154Y018176D01*
X034944Y018176D02*
X034844Y018176D01*
X034844Y018077D02*
X034944Y018077D01*
X034944Y017979D02*
X034844Y017979D01*
X034844Y017880D02*
X034944Y017880D01*
X034944Y017782D02*
X034844Y017782D01*
X034844Y017486D02*
X034944Y017486D01*
X034944Y017388D02*
X034844Y017388D01*
X034844Y017289D02*
X034944Y017289D01*
X034944Y017191D02*
X034844Y017191D01*
X034762Y017191D02*
X024616Y017191D01*
X024616Y017289D02*
X034564Y017289D01*
X034468Y017388D02*
X024616Y017388D01*
X024616Y017486D02*
X034409Y017486D01*
X035026Y017191D02*
X045349Y017191D01*
X045250Y017289D02*
X035224Y017289D01*
X035320Y017388D02*
X045152Y017388D01*
X045053Y017486D02*
X035380Y017486D01*
X035415Y017585D02*
X044955Y017585D01*
X045447Y017092D02*
X024616Y017092D01*
X024616Y016994D02*
X045546Y016994D01*
X045644Y016895D02*
X043855Y016895D01*
X043957Y016868D02*
X043693Y016939D01*
X043419Y016939D01*
X043154Y016868D01*
X042917Y016731D01*
X042723Y016537D01*
X042586Y016300D01*
X042515Y016035D01*
X042515Y015761D01*
X042586Y015496D01*
X042723Y015259D01*
X042917Y015065D01*
X043154Y014928D01*
X043419Y014857D01*
X043693Y014857D01*
X043957Y014928D01*
X044194Y015065D01*
X044388Y015259D01*
X044525Y015496D01*
X044596Y015761D01*
X044596Y016035D01*
X044525Y016300D01*
X044388Y016537D01*
X044194Y016731D01*
X043957Y016868D01*
X044080Y016797D02*
X045743Y016797D01*
X045841Y016698D02*
X044227Y016698D01*
X044326Y016600D02*
X045940Y016600D01*
X046038Y016501D02*
X044409Y016501D01*
X044466Y016403D02*
X046137Y016403D01*
X046235Y016304D02*
X044523Y016304D01*
X044550Y016206D02*
X046334Y016206D01*
X046392Y016147D02*
X046392Y016147D01*
X046432Y016107D02*
X044577Y016107D01*
X044596Y016009D02*
X046531Y016009D01*
X046629Y015910D02*
X044596Y015910D01*
X044596Y015812D02*
X046825Y015812D01*
X046538Y015024D02*
X050980Y015024D01*
X050980Y015122D02*
X046300Y015122D01*
X045929Y015122D02*
X044251Y015122D01*
X044350Y015221D02*
X050980Y015221D01*
X050980Y015319D02*
X044423Y015319D01*
X044480Y015418D02*
X050980Y015418D01*
X050980Y015516D02*
X044530Y015516D01*
X044557Y015615D02*
X050980Y015615D01*
X050980Y015713D02*
X044583Y015713D01*
X044122Y015024D02*
X045691Y015024D01*
X045582Y014925D02*
X043945Y014925D01*
X043166Y014925D02*
X027069Y014925D01*
X027110Y014908D02*
X026770Y015049D01*
X026404Y015049D01*
X026064Y014908D01*
X025805Y014649D01*
X025665Y014310D01*
X025665Y013943D01*
X025805Y013604D01*
X026064Y013344D01*
X026404Y013204D01*
X026770Y013204D01*
X027110Y013344D01*
X027369Y013604D01*
X027509Y013943D01*
X027509Y014310D01*
X027369Y014649D01*
X027110Y014908D01*
X027191Y014827D02*
X045483Y014827D01*
X045425Y014728D02*
X027290Y014728D01*
X027377Y014630D02*
X045384Y014630D01*
X045343Y014531D02*
X027418Y014531D01*
X027459Y014433D02*
X045335Y014433D01*
X045335Y014334D02*
X027499Y014334D01*
X027509Y014236D02*
X045335Y014236D01*
X045360Y014137D02*
X027509Y014137D01*
X027509Y014039D02*
X045401Y014039D01*
X045442Y013940D02*
X027508Y013940D01*
X027467Y013842D02*
X044025Y013842D01*
X043856Y013743D02*
X027427Y013743D01*
X027386Y013645D02*
X043758Y013645D01*
X043680Y013546D02*
X027311Y013546D01*
X027213Y013448D02*
X043639Y013448D01*
X043598Y013349D02*
X027114Y013349D01*
X026883Y013251D02*
X043580Y013251D01*
X043580Y013152D02*
X025509Y013152D01*
X025411Y013251D02*
X026291Y013251D01*
X026060Y013349D02*
X025312Y013349D01*
X025214Y013448D02*
X025961Y013448D01*
X025863Y013546D02*
X025115Y013546D01*
X025017Y013645D02*
X025788Y013645D01*
X025747Y013743D02*
X024918Y013743D01*
X024820Y013842D02*
X025707Y013842D01*
X025666Y013940D02*
X024721Y013940D01*
X024623Y014039D02*
X025665Y014039D01*
X025665Y014137D02*
X024616Y014137D01*
X024616Y014236D02*
X025665Y014236D01*
X025675Y014334D02*
X024616Y014334D01*
X024616Y014433D02*
X025715Y014433D01*
X025756Y014531D02*
X024616Y014531D01*
X024616Y014630D02*
X025797Y014630D01*
X025884Y014728D02*
X024616Y014728D01*
X024616Y014827D02*
X025983Y014827D01*
X026105Y014925D02*
X024616Y014925D01*
X024616Y015024D02*
X026342Y015024D01*
X026537Y015157D02*
X026095Y015157D01*
X026057Y015168D01*
X026022Y015187D01*
X025995Y015215D01*
X025975Y015250D01*
X025965Y015288D01*
X025965Y015730D01*
X026537Y015730D01*
X026537Y015830D01*
X026537Y016402D01*
X026095Y016402D01*
X026057Y016392D01*
X026022Y016372D01*
X025995Y016344D01*
X025975Y016310D01*
X025965Y016272D01*
X025965Y015830D01*
X026537Y015830D01*
X026637Y015830D01*
X026637Y016402D01*
X027079Y016402D01*
X027117Y016392D01*
X027152Y016372D01*
X027179Y016344D01*
X027199Y016310D01*
X027209Y016272D01*
X027209Y015830D01*
X026637Y015830D01*
X026637Y015730D01*
X027209Y015730D01*
X027209Y015288D01*
X027199Y015250D01*
X027179Y015215D01*
X027152Y015187D01*
X027117Y015168D01*
X027079Y015157D01*
X026637Y015157D01*
X026637Y015730D01*
X026537Y015730D01*
X026537Y015157D01*
X026537Y015221D02*
X026637Y015221D01*
X026637Y015319D02*
X026537Y015319D01*
X026537Y015418D02*
X026637Y015418D01*
X026637Y015516D02*
X026537Y015516D01*
X026537Y015615D02*
X026637Y015615D01*
X026637Y015713D02*
X026537Y015713D01*
X026537Y015812D02*
X024616Y015812D01*
X024616Y015910D02*
X025965Y015910D01*
X025965Y016009D02*
X024616Y016009D01*
X024616Y016107D02*
X025965Y016107D01*
X025965Y016206D02*
X024616Y016206D01*
X024616Y016304D02*
X025973Y016304D01*
X026537Y016304D02*
X026637Y016304D01*
X026637Y016206D02*
X026537Y016206D01*
X026537Y016107D02*
X026637Y016107D01*
X026637Y016009D02*
X026537Y016009D01*
X026537Y015910D02*
X026637Y015910D01*
X026637Y015812D02*
X042515Y015812D01*
X042515Y015910D02*
X027209Y015910D01*
X027209Y016009D02*
X042515Y016009D01*
X042534Y016107D02*
X027209Y016107D01*
X027209Y016206D02*
X042561Y016206D01*
X042588Y016304D02*
X027201Y016304D01*
X027209Y015713D02*
X042528Y015713D01*
X042554Y015615D02*
X027209Y015615D01*
X027209Y015516D02*
X042581Y015516D01*
X042631Y015418D02*
X027209Y015418D01*
X027209Y015319D02*
X042688Y015319D01*
X042761Y015221D02*
X027182Y015221D01*
X026832Y015024D02*
X042989Y015024D01*
X042860Y015122D02*
X024616Y015122D01*
X024616Y015221D02*
X025992Y015221D01*
X025965Y015319D02*
X024616Y015319D01*
X024616Y015418D02*
X025965Y015418D01*
X025965Y015516D02*
X024616Y015516D01*
X024616Y015615D02*
X025965Y015615D01*
X025965Y015713D02*
X024616Y015713D01*
X024616Y016403D02*
X042645Y016403D01*
X042702Y016501D02*
X024616Y016501D01*
X024616Y016600D02*
X042785Y016600D01*
X042884Y016698D02*
X024616Y016698D01*
X024616Y016797D02*
X043031Y016797D01*
X043256Y016895D02*
X024616Y016895D01*
X024616Y021722D02*
X040738Y021722D01*
X041042Y021722D02*
X041703Y021722D01*
X041605Y021820D02*
X024616Y021820D01*
X034677Y013054D02*
X043580Y013054D01*
X043602Y012955D02*
X035036Y012955D01*
X035274Y012857D02*
X043643Y012857D01*
X043683Y012758D02*
X035451Y012758D01*
X035598Y012660D02*
X040175Y012660D01*
X040094Y012626D02*
X039895Y012426D01*
X039786Y012165D01*
X039786Y011363D01*
X039895Y011102D01*
X040094Y010902D01*
X040355Y010794D01*
X040638Y010794D01*
X040899Y010902D01*
X041098Y011102D01*
X041165Y011263D01*
X041184Y011237D01*
X041229Y011191D01*
X041282Y011154D01*
X041339Y011124D01*
X041400Y011104D01*
X041464Y011094D01*
X041466Y011094D01*
X041466Y011734D01*
X041526Y011734D01*
X041526Y011094D01*
X041529Y011094D01*
X041592Y011104D01*
X041654Y011124D01*
X041711Y011154D01*
X041764Y011191D01*
X041809Y011237D01*
X041847Y011289D01*
X041876Y011347D01*
X041896Y011408D01*
X041906Y011472D01*
X041906Y011734D01*
X041526Y011734D01*
X041526Y011794D01*
X041466Y011794D01*
X041466Y012434D01*
X041464Y012434D01*
X041400Y012424D01*
X041339Y012404D01*
X041282Y012375D01*
X041229Y012337D01*
X041184Y012291D01*
X041165Y012265D01*
X041098Y012426D01*
X040899Y012626D01*
X040638Y012734D01*
X040355Y012734D01*
X040094Y012626D01*
X040029Y012561D02*
X035745Y012561D01*
X035844Y012463D02*
X039931Y012463D01*
X039869Y012364D02*
X035943Y012364D01*
X036041Y012266D02*
X039828Y012266D01*
X039787Y012167D02*
X036121Y012167D01*
X036187Y012069D02*
X039786Y012069D01*
X039786Y011970D02*
X036253Y011970D01*
X036319Y011872D02*
X039786Y011872D01*
X039786Y011773D02*
X036371Y011773D01*
X036412Y011675D02*
X039786Y011675D01*
X039786Y011576D02*
X036452Y011576D01*
X036493Y011478D02*
X039786Y011478D01*
X039786Y011379D02*
X036532Y011379D01*
X036552Y011281D02*
X039821Y011281D01*
X039861Y011182D02*
X036571Y011182D01*
X036591Y011084D02*
X039913Y011084D01*
X040012Y010985D02*
X036611Y010985D01*
X036624Y010887D02*
X040132Y010887D01*
X040861Y010887D02*
X043739Y010887D01*
X043672Y010985D02*
X040981Y010985D01*
X041080Y011084D02*
X043632Y011084D01*
X043591Y011182D02*
X041751Y011182D01*
X041841Y011281D02*
X043580Y011281D01*
X043580Y011379D02*
X041887Y011379D01*
X041906Y011478D02*
X043580Y011478D01*
X043610Y011576D02*
X041906Y011576D01*
X041906Y011675D02*
X043650Y011675D01*
X043691Y011773D02*
X041526Y011773D01*
X041526Y011794D02*
X041906Y011794D01*
X041906Y012056D01*
X041896Y012120D01*
X041876Y012182D01*
X041847Y012239D01*
X041809Y012291D01*
X041764Y012337D01*
X041711Y012375D01*
X041654Y012404D01*
X041592Y012424D01*
X041529Y012434D01*
X041526Y012434D01*
X041526Y011794D01*
X041526Y011872D02*
X041466Y011872D01*
X041466Y011970D02*
X041526Y011970D01*
X041526Y012069D02*
X041466Y012069D01*
X041466Y012167D02*
X041526Y012167D01*
X041526Y012266D02*
X041466Y012266D01*
X041466Y012364D02*
X041526Y012364D01*
X041726Y012364D02*
X043892Y012364D01*
X043930Y012463D02*
X041062Y012463D01*
X041124Y012364D02*
X041267Y012364D01*
X041165Y012266D02*
X041165Y012266D01*
X040964Y012561D02*
X043865Y012561D01*
X043766Y012660D02*
X040818Y012660D01*
X041828Y012266D02*
X044580Y012266D01*
X044680Y012266D02*
X047214Y012266D01*
X047115Y012364D02*
X045368Y012364D01*
X045372Y012167D02*
X047312Y012167D01*
X047411Y012069D02*
X045340Y012069D01*
X045377Y011970D02*
X047509Y011970D01*
X047608Y011872D02*
X045476Y011872D01*
X045569Y011773D02*
X047706Y011773D01*
X047794Y011675D02*
X045610Y011675D01*
X045651Y011576D02*
X047893Y011576D01*
X048012Y010099D02*
X047361Y010099D01*
X047459Y010000D02*
X048250Y010000D01*
X048703Y010000D02*
X050980Y010000D01*
X050980Y009902D02*
X047518Y009902D01*
X047559Y009803D02*
X050980Y009803D01*
X050980Y009705D02*
X047596Y009705D01*
X047596Y009606D02*
X050980Y009606D01*
X050980Y009508D02*
X047596Y009508D01*
X047596Y009409D02*
X050980Y009409D01*
X050980Y009311D02*
X047596Y009311D01*
X047596Y009212D02*
X050980Y009212D01*
X050980Y009114D02*
X047596Y009114D01*
X047596Y009015D02*
X050980Y009015D01*
X050980Y008917D02*
X047596Y008917D01*
X047596Y008818D02*
X050980Y008818D01*
X050980Y008720D02*
X047596Y008720D01*
X047596Y008621D02*
X050980Y008621D01*
X050980Y008523D02*
X047596Y008523D01*
X047596Y008424D02*
X048596Y008424D01*
X048699Y008467D02*
X048390Y008339D01*
X048154Y008102D01*
X048026Y007794D01*
X048026Y006680D01*
X048154Y006371D01*
X048390Y006134D01*
X048699Y006007D01*
X049033Y006007D01*
X049342Y006134D01*
X049578Y006371D01*
X049706Y006680D01*
X049706Y007794D01*
X049578Y008102D01*
X049342Y008339D01*
X049033Y008467D01*
X048699Y008467D01*
X048377Y008326D02*
X047596Y008326D01*
X047596Y008227D02*
X048279Y008227D01*
X048180Y008129D02*
X047596Y008129D01*
X047638Y008030D02*
X048124Y008030D01*
X048083Y007932D02*
X047679Y007932D01*
X047720Y007833D02*
X048043Y007833D01*
X048026Y007735D02*
X047736Y007735D01*
X047759Y007636D02*
X048026Y007636D01*
X048026Y007538D02*
X047800Y007538D01*
X047841Y007439D02*
X048026Y007439D01*
X048026Y007341D02*
X047846Y007341D01*
X047846Y007242D02*
X048026Y007242D01*
X048026Y007144D02*
X047846Y007144D01*
X047846Y007045D02*
X048026Y007045D01*
X048026Y006947D02*
X047846Y006947D01*
X047846Y006848D02*
X048026Y006848D01*
X048026Y006750D02*
X047846Y006750D01*
X047846Y006651D02*
X048038Y006651D01*
X048079Y006553D02*
X047846Y006553D01*
X047846Y006454D02*
X048120Y006454D01*
X048169Y006356D02*
X047846Y006356D01*
X047846Y006257D02*
X048268Y006257D01*
X048366Y006159D02*
X047846Y006159D01*
X047846Y006060D02*
X048570Y006060D01*
X049162Y006060D02*
X050980Y006060D01*
X050980Y005962D02*
X047846Y005962D01*
X047846Y005863D02*
X050980Y005863D01*
X050980Y005765D02*
X047846Y005765D01*
X047846Y005666D02*
X050980Y005666D01*
X050980Y005568D02*
X047846Y005568D01*
X047846Y005469D02*
X050980Y005469D01*
X050980Y005371D02*
X047846Y005371D01*
X047846Y005272D02*
X050980Y005272D01*
X050980Y005174D02*
X047846Y005174D01*
X047846Y005075D02*
X050980Y005075D01*
X050980Y004977D02*
X047846Y004977D01*
X047846Y004878D02*
X050980Y004878D01*
X050980Y004780D02*
X047846Y004780D01*
X047846Y004681D02*
X050980Y004681D01*
X050980Y004583D02*
X047846Y004583D01*
X047846Y004484D02*
X050980Y004484D01*
X050980Y004386D02*
X047846Y004386D01*
X047846Y004287D02*
X050980Y004287D01*
X050980Y004189D02*
X047846Y004189D01*
X047846Y004090D02*
X050980Y004090D01*
X050980Y003992D02*
X047846Y003992D01*
X047846Y003893D02*
X050980Y003893D01*
X050980Y003795D02*
X047846Y003795D01*
X047846Y003696D02*
X050980Y003696D01*
X050980Y003598D02*
X047846Y003598D01*
X047846Y003499D02*
X050980Y003499D01*
X050980Y003401D02*
X047846Y003401D01*
X047846Y003302D02*
X050980Y003302D01*
X050980Y003204D02*
X047846Y003204D01*
X047846Y003105D02*
X050980Y003105D01*
X050980Y003007D02*
X047846Y003007D01*
X047846Y002908D02*
X050980Y002908D01*
X050980Y002810D02*
X047846Y002810D01*
X047765Y002514D02*
X050980Y002514D01*
X050980Y002416D02*
X047724Y002416D01*
X047657Y002317D02*
X050980Y002317D01*
X050980Y002219D02*
X047558Y002219D01*
X047460Y002120D02*
X050980Y002120D01*
X050980Y002022D02*
X047361Y002022D01*
X047263Y001923D02*
X050980Y001923D01*
X050980Y001825D02*
X047164Y001825D01*
X047066Y001726D02*
X050980Y001726D01*
X050980Y001628D02*
X046967Y001628D01*
X046869Y001529D02*
X050980Y001529D01*
X050980Y001431D02*
X046770Y001431D01*
X046672Y001332D02*
X050980Y001332D01*
X050973Y001234D02*
X046573Y001234D01*
X046475Y001135D02*
X050946Y001135D01*
X050915Y001037D02*
X046376Y001037D01*
X046278Y000938D02*
X050858Y000938D01*
X050782Y000840D02*
X046179Y000840D01*
X046081Y000741D02*
X050676Y000741D01*
X050479Y000643D02*
X045982Y000643D01*
X044871Y002219D02*
X044212Y002219D01*
X044310Y002317D02*
X044970Y002317D01*
X045068Y002416D02*
X044409Y002416D01*
X044507Y002514D02*
X045167Y002514D01*
X045265Y002613D02*
X044606Y002613D01*
X044704Y002711D02*
X045364Y002711D01*
X045462Y002810D02*
X044803Y002810D01*
X044901Y002908D02*
X045561Y002908D01*
X045659Y003007D02*
X045000Y003007D01*
X045098Y003105D02*
X045758Y003105D01*
X045856Y003204D02*
X045197Y003204D01*
X045295Y003302D02*
X045946Y003302D01*
X045946Y003401D02*
X045394Y003401D01*
X045492Y003499D02*
X045946Y003499D01*
X045946Y003598D02*
X045591Y003598D01*
X045689Y003696D02*
X045946Y003696D01*
X045946Y003795D02*
X045757Y003795D01*
X045797Y003893D02*
X045946Y003893D01*
X045946Y003992D02*
X045838Y003992D01*
X045879Y004090D02*
X045946Y004090D01*
X045946Y004189D02*
X045879Y004189D01*
X045879Y004287D02*
X045946Y004287D01*
X045946Y004386D02*
X045879Y004386D01*
X045879Y004484D02*
X045946Y004484D01*
X045946Y004583D02*
X045879Y004583D01*
X045879Y004681D02*
X045946Y004681D01*
X045946Y004780D02*
X045879Y004780D01*
X045879Y004878D02*
X045946Y004878D01*
X045946Y004977D02*
X045879Y004977D01*
X045879Y005075D02*
X045946Y005075D01*
X045946Y005174D02*
X045879Y005174D01*
X045879Y005272D02*
X045946Y005272D01*
X045946Y005371D02*
X045879Y005371D01*
X045879Y005469D02*
X045946Y005469D01*
X045946Y005568D02*
X045879Y005568D01*
X045879Y005666D02*
X045946Y005666D01*
X045946Y005765D02*
X045879Y005765D01*
X045879Y005863D02*
X045946Y005863D01*
X045946Y005962D02*
X045879Y005962D01*
X045879Y006060D02*
X045946Y006060D01*
X045946Y006159D02*
X045879Y006159D01*
X045879Y006257D02*
X045946Y006257D01*
X045946Y006356D02*
X045879Y006356D01*
X045879Y006454D02*
X045946Y006454D01*
X045946Y006553D02*
X045879Y006553D01*
X045879Y006651D02*
X045946Y006651D01*
X045946Y006750D02*
X045879Y006750D01*
X045879Y006848D02*
X045946Y006848D01*
X045946Y006947D02*
X045879Y006947D01*
X045879Y007045D02*
X045946Y007045D01*
X045946Y007144D02*
X045879Y007144D01*
X045879Y007242D02*
X045946Y007242D01*
X045946Y007341D02*
X045879Y007341D01*
X045874Y007439D02*
X045952Y007439D01*
X045993Y007538D02*
X045833Y007538D01*
X045792Y007636D02*
X046033Y007636D01*
X046056Y007735D02*
X045769Y007735D01*
X045753Y007833D02*
X046073Y007833D01*
X046113Y007932D02*
X045712Y007932D01*
X045671Y008030D02*
X046154Y008030D01*
X046196Y008129D02*
X045615Y008129D01*
X045517Y008227D02*
X046196Y008227D01*
X046196Y008326D02*
X045418Y008326D01*
X045199Y008424D02*
X046196Y008424D01*
X046196Y008523D02*
X036287Y008523D01*
X036287Y008621D02*
X046196Y008621D01*
X046196Y008720D02*
X036287Y008720D01*
X036287Y008818D02*
X046196Y008818D01*
X046196Y008917D02*
X036287Y008917D01*
X036287Y009015D02*
X046196Y009015D01*
X046196Y009114D02*
X036287Y009114D01*
X036287Y009212D02*
X046196Y009212D01*
X046169Y009311D02*
X036287Y009311D01*
X036287Y009409D02*
X046070Y009409D01*
X045972Y009508D02*
X036329Y009508D01*
X036377Y009606D02*
X045873Y009606D01*
X045662Y009705D02*
X036418Y009705D01*
X036459Y009803D02*
X045563Y009803D01*
X045465Y009902D02*
X036500Y009902D01*
X036535Y010000D02*
X045417Y010000D01*
X045376Y010099D02*
X036555Y010099D01*
X036575Y010197D02*
X045336Y010197D01*
X045335Y010296D02*
X036594Y010296D01*
X036614Y010394D02*
X045335Y010394D01*
X045335Y010493D02*
X036624Y010493D01*
X036624Y010591D02*
X045368Y010591D01*
X045409Y010690D02*
X045280Y010690D01*
X045423Y010788D02*
X045450Y010788D01*
X045521Y010887D02*
X045543Y010887D01*
X045588Y010985D02*
X045642Y010985D01*
X045629Y011084D02*
X045836Y011084D01*
X045952Y011182D02*
X045670Y011182D01*
X045680Y011281D02*
X046050Y011281D01*
X046149Y011379D02*
X045680Y011379D01*
X045680Y011478D02*
X046283Y011478D01*
X047913Y013546D02*
X050980Y013546D01*
X050980Y013448D02*
X048012Y013448D01*
X048110Y013349D02*
X050980Y013349D01*
X050980Y013251D02*
X048209Y013251D01*
X048307Y013152D02*
X050980Y013152D01*
X050980Y013054D02*
X048804Y013054D01*
X049003Y012955D02*
X050980Y012955D01*
X050980Y012857D02*
X049101Y012857D01*
X049200Y012758D02*
X050980Y012758D01*
X050980Y012660D02*
X049254Y012660D01*
X049295Y012561D02*
X050980Y012561D01*
X050980Y012463D02*
X049336Y012463D01*
X049357Y012364D02*
X050980Y012364D01*
X050980Y012266D02*
X049357Y012266D01*
X049357Y012167D02*
X050980Y012167D01*
X050980Y012069D02*
X049357Y012069D01*
X049319Y011970D02*
X050980Y011970D01*
X050980Y011872D02*
X049278Y011872D01*
X049237Y011773D02*
X050980Y011773D01*
X050980Y011675D02*
X049159Y011675D01*
X049061Y011576D02*
X050980Y011576D01*
X050980Y011478D02*
X049102Y011478D01*
X049201Y011379D02*
X050980Y011379D01*
X050980Y011281D02*
X049255Y011281D01*
X049295Y011182D02*
X050980Y011182D01*
X050980Y011084D02*
X049336Y011084D01*
X049357Y010985D02*
X050980Y010985D01*
X050980Y010887D02*
X049357Y010887D01*
X049357Y010788D02*
X050980Y010788D01*
X050980Y010690D02*
X049357Y010690D01*
X049318Y010591D02*
X050980Y010591D01*
X050980Y010493D02*
X049278Y010493D01*
X049237Y010394D02*
X050980Y010394D01*
X050980Y010296D02*
X049158Y010296D01*
X049060Y010197D02*
X050980Y010197D01*
X050980Y010099D02*
X048941Y010099D01*
X049136Y008424D02*
X050980Y008424D01*
X050980Y008326D02*
X049355Y008326D01*
X049454Y008227D02*
X050980Y008227D01*
X050980Y008129D02*
X049552Y008129D01*
X049608Y008030D02*
X050980Y008030D01*
X050980Y007932D02*
X049649Y007932D01*
X049690Y007833D02*
X050980Y007833D01*
X050980Y007735D02*
X049706Y007735D01*
X049706Y007636D02*
X050980Y007636D01*
X050980Y007538D02*
X049706Y007538D01*
X049706Y007439D02*
X050980Y007439D01*
X050980Y007341D02*
X049706Y007341D01*
X049706Y007242D02*
X050980Y007242D01*
X050980Y007144D02*
X049706Y007144D01*
X049706Y007045D02*
X050980Y007045D01*
X050980Y006947D02*
X049706Y006947D01*
X049706Y006848D02*
X050980Y006848D01*
X050980Y006750D02*
X049706Y006750D01*
X049694Y006651D02*
X050980Y006651D01*
X050980Y006553D02*
X049654Y006553D01*
X049613Y006454D02*
X050980Y006454D01*
X050980Y006356D02*
X049563Y006356D01*
X049465Y006257D02*
X050980Y006257D01*
X050980Y006159D02*
X049366Y006159D01*
X044659Y008424D02*
X043229Y008424D01*
X043448Y008326D02*
X044440Y008326D01*
X044342Y008227D02*
X043547Y008227D01*
X043645Y008129D02*
X044243Y008129D01*
X044187Y008030D02*
X043701Y008030D01*
X043742Y007932D02*
X044146Y007932D01*
X044105Y007833D02*
X043783Y007833D01*
X043799Y007735D02*
X044089Y007735D01*
X044066Y007636D02*
X043822Y007636D01*
X043863Y007538D02*
X044026Y007538D01*
X043985Y007439D02*
X043904Y007439D01*
X043909Y007341D02*
X043979Y007341D01*
X043979Y007242D02*
X043909Y007242D01*
X043909Y007144D02*
X043979Y007144D01*
X043979Y007045D02*
X043909Y007045D01*
X043909Y006947D02*
X043979Y006947D01*
X043979Y006848D02*
X043909Y006848D01*
X043909Y006750D02*
X043979Y006750D01*
X043979Y006651D02*
X043909Y006651D01*
X043909Y006553D02*
X043979Y006553D01*
X043979Y006454D02*
X043909Y006454D01*
X043909Y006356D02*
X043979Y006356D01*
X043979Y006257D02*
X043909Y006257D01*
X043909Y006159D02*
X043979Y006159D01*
X043979Y006060D02*
X043909Y006060D01*
X043909Y005962D02*
X043979Y005962D01*
X043979Y005863D02*
X043909Y005863D01*
X043909Y005765D02*
X043979Y005765D01*
X043979Y005666D02*
X043909Y005666D01*
X043909Y005568D02*
X043979Y005568D01*
X043979Y005469D02*
X043909Y005469D01*
X043909Y005371D02*
X043979Y005371D01*
X043979Y005272D02*
X043909Y005272D01*
X043909Y005174D02*
X043979Y005174D01*
X043979Y005075D02*
X043909Y005075D01*
X043909Y004977D02*
X043979Y004977D01*
X043979Y004878D02*
X043909Y004878D01*
X043909Y004780D02*
X043979Y004780D01*
X043979Y004681D02*
X043909Y004681D01*
X042009Y004878D02*
X039548Y004878D01*
X039646Y004977D02*
X042009Y004977D01*
X042009Y005075D02*
X039745Y005075D01*
X039843Y005174D02*
X042009Y005174D01*
X042009Y005272D02*
X039942Y005272D01*
X040018Y005371D02*
X042009Y005371D01*
X042009Y005469D02*
X040075Y005469D01*
X040132Y005568D02*
X042009Y005568D01*
X042009Y005666D02*
X040166Y005666D01*
X040192Y005765D02*
X042009Y005765D01*
X042009Y005863D02*
X040219Y005863D01*
X040228Y005962D02*
X042009Y005962D01*
X042009Y006060D02*
X040228Y006060D01*
X040228Y006159D02*
X042009Y006159D01*
X042009Y006257D02*
X040228Y006257D01*
X040228Y006356D02*
X040767Y006356D01*
X040785Y006346D02*
X040866Y006320D01*
X040942Y006308D01*
X040942Y007187D01*
X040452Y007187D01*
X040452Y006804D01*
X040466Y006720D01*
X040492Y006639D01*
X040530Y006564D01*
X040580Y006495D01*
X040640Y006435D01*
X040709Y006385D01*
X040785Y006346D01*
X040942Y006356D02*
X041042Y006356D01*
X041042Y006308D02*
X041119Y006320D01*
X041199Y006346D01*
X041275Y006385D01*
X041344Y006435D01*
X041404Y006495D01*
X041454Y006564D01*
X041493Y006639D01*
X041519Y006720D01*
X041532Y006804D01*
X041532Y007187D01*
X041042Y007187D01*
X041042Y007287D01*
X040942Y007287D01*
X040942Y008165D01*
X040866Y008153D01*
X040785Y008127D01*
X040709Y008088D01*
X040640Y008039D01*
X040580Y007978D01*
X040530Y007910D01*
X040492Y007834D01*
X040466Y007753D01*
X040452Y007669D01*
X040452Y007287D01*
X040942Y007287D01*
X040942Y007187D01*
X041042Y007187D01*
X041042Y006308D01*
X041042Y006454D02*
X040942Y006454D01*
X040942Y006553D02*
X041042Y006553D01*
X041042Y006651D02*
X040942Y006651D01*
X040942Y006750D02*
X041042Y006750D01*
X041042Y006848D02*
X040942Y006848D01*
X040942Y006947D02*
X041042Y006947D01*
X041042Y007045D02*
X040942Y007045D01*
X040942Y007144D02*
X041042Y007144D01*
X041042Y007242D02*
X042009Y007242D01*
X042009Y007144D02*
X041532Y007144D01*
X041532Y007045D02*
X042009Y007045D01*
X042009Y006947D02*
X041532Y006947D01*
X041532Y006848D02*
X042009Y006848D01*
X042009Y006750D02*
X041524Y006750D01*
X041496Y006651D02*
X042009Y006651D01*
X042009Y006553D02*
X041446Y006553D01*
X041363Y006454D02*
X042009Y006454D01*
X042009Y006356D02*
X041218Y006356D01*
X040621Y006454D02*
X040228Y006454D01*
X040228Y006553D02*
X040538Y006553D01*
X040488Y006651D02*
X040228Y006651D01*
X040228Y006750D02*
X040461Y006750D01*
X040452Y006848D02*
X040228Y006848D01*
X040228Y006947D02*
X040452Y006947D01*
X040452Y007045D02*
X040228Y007045D01*
X040228Y007144D02*
X040452Y007144D01*
X040452Y007341D02*
X040228Y007341D01*
X040215Y007439D02*
X040452Y007439D01*
X040452Y007538D02*
X040188Y007538D01*
X040162Y007636D02*
X040452Y007636D01*
X040463Y007735D02*
X040123Y007735D01*
X040066Y007833D02*
X040491Y007833D01*
X040546Y007932D02*
X040009Y007932D01*
X039926Y008030D02*
X040632Y008030D01*
X040789Y008129D02*
X039827Y008129D01*
X039707Y008227D02*
X042372Y008227D01*
X042470Y008326D02*
X039536Y008326D01*
X039292Y008424D02*
X042689Y008424D01*
X042273Y008129D02*
X041195Y008129D01*
X041199Y008127D02*
X041119Y008153D01*
X041042Y008165D01*
X041042Y007287D01*
X041532Y007287D01*
X041532Y007669D01*
X041519Y007753D01*
X041493Y007834D01*
X041454Y007910D01*
X041404Y007978D01*
X041344Y008039D01*
X041275Y008088D01*
X041199Y008127D01*
X041042Y008129D02*
X040942Y008129D01*
X040942Y008030D02*
X041042Y008030D01*
X041042Y007932D02*
X040942Y007932D01*
X040942Y007833D02*
X041042Y007833D01*
X041042Y007735D02*
X040942Y007735D01*
X040942Y007636D02*
X041042Y007636D01*
X041042Y007538D02*
X040942Y007538D01*
X040942Y007439D02*
X041042Y007439D01*
X041042Y007341D02*
X040942Y007341D01*
X040942Y007242D02*
X040228Y007242D01*
X041532Y007341D02*
X042009Y007341D01*
X042015Y007439D02*
X041532Y007439D01*
X041532Y007538D02*
X042056Y007538D01*
X042096Y007636D02*
X041532Y007636D01*
X041522Y007735D02*
X042119Y007735D01*
X042135Y007833D02*
X041493Y007833D01*
X041438Y007932D02*
X042176Y007932D01*
X042217Y008030D02*
X041352Y008030D01*
X038752Y008424D02*
X036287Y008424D01*
X036287Y008326D02*
X038508Y008326D01*
X038338Y008227D02*
X036287Y008227D01*
X036287Y008129D02*
X038217Y008129D01*
X038119Y008030D02*
X036287Y008030D01*
X036287Y007932D02*
X038038Y007932D01*
X037981Y007833D02*
X036287Y007833D01*
X036287Y007735D02*
X037924Y007735D01*
X037887Y007636D02*
X036287Y007636D01*
X036287Y007538D02*
X037861Y007538D01*
X037834Y007439D02*
X036287Y007439D01*
X036287Y007341D02*
X037822Y007341D01*
X037822Y007242D02*
X036287Y007242D01*
X036287Y007144D02*
X037822Y007144D01*
X037828Y007045D02*
X036278Y007045D01*
X036251Y006947D02*
X037828Y006947D01*
X037828Y006848D02*
X036225Y006848D01*
X036191Y006750D02*
X037828Y006750D01*
X037828Y006651D02*
X036134Y006651D01*
X036077Y006553D02*
X037828Y006553D01*
X039449Y004780D02*
X041920Y004780D01*
X041822Y004681D02*
X039351Y004681D01*
X044113Y002120D02*
X044773Y002120D01*
X043980Y010690D02*
X036624Y010690D01*
X036624Y010788D02*
X043838Y010788D01*
X043785Y011872D02*
X041906Y011872D01*
X041906Y011970D02*
X043883Y011970D01*
X043921Y012069D02*
X041905Y012069D01*
X041881Y012167D02*
X043889Y012167D01*
X041526Y011675D02*
X041466Y011675D01*
X041466Y011576D02*
X041526Y011576D01*
X041526Y011478D02*
X041466Y011478D01*
X041466Y011379D02*
X041526Y011379D01*
X041526Y011281D02*
X041466Y011281D01*
X041466Y011182D02*
X041526Y011182D01*
X041242Y011182D02*
X041132Y011182D01*
X046647Y014925D02*
X050980Y014925D01*
X050980Y014827D02*
X046746Y014827D01*
X046804Y014728D02*
X050980Y014728D01*
X050980Y014630D02*
X046845Y014630D01*
X046928Y014531D02*
X050980Y014531D01*
X050980Y014433D02*
X047027Y014433D01*
X047125Y014334D02*
X050980Y014334D01*
X050980Y014236D02*
X047224Y014236D01*
X047322Y014137D02*
X050980Y014137D01*
X050980Y014039D02*
X047421Y014039D01*
X047519Y013940D02*
X050980Y013940D01*
X050980Y013842D02*
X047618Y013842D01*
X047716Y013743D02*
X050980Y013743D01*
X050980Y013645D02*
X047815Y013645D01*
X048157Y015812D02*
X050980Y015812D01*
X050980Y015910D02*
X048352Y015910D01*
X049168Y016009D02*
X050980Y016009D01*
X050980Y016107D02*
X049266Y016107D01*
X049365Y016206D02*
X050980Y016206D01*
X050980Y016304D02*
X049463Y016304D01*
X049542Y016403D02*
X050980Y016403D01*
X050980Y016501D02*
X049542Y016501D01*
X049542Y016600D02*
X050980Y016600D01*
X050980Y016698D02*
X049542Y016698D01*
X049542Y016797D02*
X050980Y016797D01*
X050980Y016895D02*
X049542Y016895D01*
X049542Y016994D02*
X050980Y016994D01*
X050980Y017092D02*
X049454Y017092D01*
X049355Y017191D02*
X050980Y017191D01*
X050980Y017289D02*
X049448Y017289D01*
X049542Y017388D02*
X050980Y017388D01*
X050980Y017486D02*
X049542Y017486D01*
X049542Y017585D02*
X050980Y017585D01*
X050980Y017683D02*
X049542Y017683D01*
X049542Y017782D02*
X050980Y017782D01*
X050980Y017880D02*
X049542Y017880D01*
X049542Y017979D02*
X050980Y017979D01*
X050980Y018077D02*
X049469Y018077D01*
X049370Y018176D02*
X050980Y018176D01*
X050980Y018274D02*
X049433Y018274D01*
X049532Y018373D02*
X050980Y018373D01*
X050980Y018471D02*
X049542Y018471D01*
X049542Y018570D02*
X050980Y018570D01*
X050980Y018668D02*
X049542Y018668D01*
X049542Y018767D02*
X050980Y018767D01*
X050980Y018865D02*
X049542Y018865D01*
X049542Y018964D02*
X050980Y018964D01*
X050980Y019062D02*
X049484Y019062D01*
X049385Y019161D02*
X050980Y019161D01*
X050980Y019259D02*
X049418Y019259D01*
X049517Y019358D02*
X050980Y019358D01*
X050980Y019456D02*
X049542Y019456D01*
X049542Y019555D02*
X050980Y019555D01*
X050980Y019653D02*
X049542Y019653D01*
X049542Y019752D02*
X050980Y019752D01*
X050980Y019850D02*
X049542Y019850D01*
X049542Y019949D02*
X050980Y019949D01*
X050980Y020047D02*
X049499Y020047D01*
X049400Y020146D02*
X050980Y020146D01*
X050980Y020244D02*
X049302Y020244D01*
X049203Y020343D02*
X050980Y020343D01*
X050980Y020441D02*
X049176Y020441D01*
X049242Y020540D02*
X050980Y020540D01*
X050980Y020638D02*
X049242Y020638D01*
X041500Y021623D02*
X041280Y021623D01*
X041386Y021525D02*
X041394Y021525D01*
X033887Y008263D02*
X029802Y008263D01*
X029917Y008197D01*
X030140Y007973D01*
X030298Y007700D01*
X030380Y007395D01*
X030380Y006474D01*
X030519Y006474D01*
X030540Y006468D01*
X030765Y006468D01*
X030738Y006495D01*
X030688Y006564D01*
X030649Y006639D01*
X030623Y006720D01*
X030610Y006804D01*
X030610Y007187D01*
X031100Y007187D01*
X031100Y007287D01*
X031100Y008165D01*
X031023Y008153D01*
X030942Y008127D01*
X030867Y008088D01*
X030798Y008039D01*
X030738Y007978D01*
X030688Y007910D01*
X030649Y007834D01*
X030623Y007753D01*
X030610Y007669D01*
X030610Y007287D01*
X031100Y007287D01*
X031200Y007287D01*
X031200Y008165D01*
X031276Y008153D01*
X031357Y008127D01*
X031433Y008088D01*
X031501Y008039D01*
X031562Y007978D01*
X031612Y007910D01*
X031650Y007834D01*
X031676Y007753D01*
X031690Y007669D01*
X031690Y007287D01*
X031200Y007287D01*
X031200Y007187D01*
X031690Y007187D01*
X031690Y006804D01*
X031676Y006720D01*
X031650Y006639D01*
X031612Y006564D01*
X031562Y006495D01*
X031535Y006468D01*
X032732Y006468D01*
X032705Y006495D01*
X032655Y006564D01*
X032616Y006639D01*
X032590Y006720D01*
X032577Y006804D01*
X032577Y007187D01*
X033067Y007187D01*
X033067Y007287D01*
X033067Y008165D01*
X032990Y008153D01*
X032909Y008127D01*
X032834Y008088D01*
X032765Y008039D01*
X032705Y007978D01*
X032655Y007910D01*
X032616Y007834D01*
X032590Y007753D01*
X032577Y007669D01*
X032577Y007287D01*
X033067Y007287D01*
X033167Y007287D01*
X033167Y008165D01*
X033243Y008153D01*
X033324Y008127D01*
X033400Y008088D01*
X033468Y008039D01*
X033529Y007978D01*
X033579Y007910D01*
X033617Y007834D01*
X033643Y007753D01*
X033657Y007669D01*
X033657Y007287D01*
X033167Y007287D01*
X033167Y007187D01*
X033657Y007187D01*
X033657Y006804D01*
X033643Y006720D01*
X033617Y006639D01*
X033579Y006564D01*
X033529Y006495D01*
X033502Y006468D01*
X034158Y006468D01*
X034126Y006500D01*
X033968Y006773D01*
X033887Y007079D01*
X033887Y008263D01*
X033887Y008227D02*
X029864Y008227D01*
X029985Y008129D02*
X030947Y008129D01*
X031100Y008129D02*
X031200Y008129D01*
X031200Y008030D02*
X031100Y008030D01*
X031100Y007932D02*
X031200Y007932D01*
X031200Y007833D02*
X031100Y007833D01*
X031100Y007735D02*
X031200Y007735D01*
X031200Y007636D02*
X031100Y007636D01*
X031100Y007538D02*
X031200Y007538D01*
X031200Y007439D02*
X031100Y007439D01*
X031100Y007341D02*
X031200Y007341D01*
X031200Y007242D02*
X033067Y007242D01*
X033067Y007341D02*
X033167Y007341D01*
X033167Y007439D02*
X033067Y007439D01*
X033067Y007538D02*
X033167Y007538D01*
X033167Y007636D02*
X033067Y007636D01*
X033067Y007735D02*
X033167Y007735D01*
X033167Y007833D02*
X033067Y007833D01*
X033067Y007932D02*
X033167Y007932D01*
X033167Y008030D02*
X033067Y008030D01*
X033067Y008129D02*
X033167Y008129D01*
X033319Y008129D02*
X033887Y008129D01*
X033887Y008030D02*
X033477Y008030D01*
X033563Y007932D02*
X033887Y007932D01*
X033887Y007833D02*
X033617Y007833D01*
X033646Y007735D02*
X033887Y007735D01*
X033887Y007636D02*
X033657Y007636D01*
X033657Y007538D02*
X033887Y007538D01*
X033887Y007439D02*
X033657Y007439D01*
X033657Y007341D02*
X033887Y007341D01*
X033887Y007242D02*
X033167Y007242D01*
X033657Y007144D02*
X033887Y007144D01*
X033896Y007045D02*
X033657Y007045D01*
X033657Y006947D02*
X033922Y006947D01*
X033948Y006848D02*
X033657Y006848D01*
X033648Y006750D02*
X033982Y006750D01*
X034039Y006651D02*
X033621Y006651D01*
X033570Y006553D02*
X034096Y006553D01*
X032914Y008129D02*
X031352Y008129D01*
X031510Y008030D02*
X032756Y008030D01*
X032671Y007932D02*
X031596Y007932D01*
X031650Y007833D02*
X032616Y007833D01*
X032587Y007735D02*
X031679Y007735D01*
X031690Y007636D02*
X032577Y007636D01*
X032577Y007538D02*
X031690Y007538D01*
X031690Y007439D02*
X032577Y007439D01*
X032577Y007341D02*
X031690Y007341D01*
X031690Y007144D02*
X032577Y007144D01*
X032577Y007045D02*
X031690Y007045D01*
X031690Y006947D02*
X032577Y006947D01*
X032577Y006848D02*
X031690Y006848D01*
X031681Y006750D02*
X032585Y006750D01*
X032612Y006651D02*
X031654Y006651D01*
X031603Y006553D02*
X032663Y006553D01*
X031100Y007242D02*
X030380Y007242D01*
X030380Y007144D02*
X030610Y007144D01*
X030610Y007045D02*
X030380Y007045D01*
X030380Y006947D02*
X030610Y006947D01*
X030610Y006848D02*
X030380Y006848D01*
X030380Y006750D02*
X030618Y006750D01*
X030645Y006651D02*
X030380Y006651D01*
X030380Y006553D02*
X030696Y006553D01*
X030610Y007341D02*
X030380Y007341D01*
X030368Y007439D02*
X030610Y007439D01*
X030610Y007538D02*
X030341Y007538D01*
X030315Y007636D02*
X030610Y007636D01*
X030620Y007735D02*
X030278Y007735D01*
X030221Y007833D02*
X030649Y007833D01*
X030704Y007932D02*
X030164Y007932D01*
X030083Y008030D02*
X030789Y008030D01*
X028495Y008227D02*
X023002Y008227D01*
X022904Y008326D02*
X024007Y008326D01*
X023690Y008424D02*
X022805Y008424D01*
X022707Y008523D02*
X023452Y008523D01*
X023290Y008621D02*
X022608Y008621D01*
X022510Y008720D02*
X023143Y008720D01*
X023003Y008818D02*
X022411Y008818D01*
X022313Y008917D02*
X022904Y008917D01*
X022806Y009015D02*
X022214Y009015D01*
X022116Y009114D02*
X022707Y009114D01*
X022609Y009212D02*
X022017Y009212D01*
X021919Y009311D02*
X022510Y009311D01*
X022412Y009409D02*
X021820Y009409D01*
X021722Y009508D02*
X022313Y009508D01*
X022215Y009606D02*
X021623Y009606D01*
X023101Y008129D02*
X028375Y008129D01*
X028276Y008030D02*
X023199Y008030D01*
X023298Y007932D02*
X028195Y007932D01*
X028138Y007833D02*
X023396Y007833D01*
X023495Y007735D02*
X026071Y007735D01*
X026057Y007731D02*
X026022Y007711D01*
X025995Y007683D01*
X025975Y007649D01*
X025965Y007611D01*
X025965Y007169D01*
X026537Y007169D01*
X026537Y007741D01*
X026095Y007741D01*
X026057Y007731D01*
X025971Y007636D02*
X023593Y007636D01*
X023692Y007538D02*
X025965Y007538D01*
X025965Y007439D02*
X023790Y007439D01*
X023889Y007341D02*
X025965Y007341D01*
X025965Y007242D02*
X023987Y007242D01*
X024086Y007144D02*
X026537Y007144D01*
X026537Y007169D02*
X026537Y007069D01*
X025965Y007069D01*
X025965Y006626D01*
X025975Y006588D01*
X025995Y006554D01*
X026022Y006526D01*
X026057Y006506D01*
X026095Y006496D01*
X026537Y006496D01*
X026537Y007068D01*
X026637Y007068D01*
X026637Y006496D01*
X027079Y006496D01*
X027117Y006506D01*
X027152Y006526D01*
X027179Y006554D01*
X027199Y006588D01*
X027209Y006626D01*
X027209Y007069D01*
X026637Y007069D01*
X026637Y007169D01*
X026537Y007169D01*
X026537Y007242D02*
X026637Y007242D01*
X026637Y007169D02*
X026637Y007741D01*
X027079Y007741D01*
X027117Y007731D01*
X027152Y007711D01*
X027179Y007683D01*
X027199Y007649D01*
X027209Y007611D01*
X027209Y007169D01*
X026637Y007169D01*
X026637Y007144D02*
X027980Y007144D01*
X027980Y007242D02*
X027209Y007242D01*
X027209Y007341D02*
X027980Y007341D01*
X027992Y007439D02*
X027209Y007439D01*
X027209Y007538D02*
X028018Y007538D01*
X028044Y007636D02*
X027203Y007636D01*
X027103Y007735D02*
X028082Y007735D01*
X027980Y007045D02*
X027209Y007045D01*
X027209Y006947D02*
X027980Y006947D01*
X027980Y006848D02*
X027209Y006848D01*
X027209Y006750D02*
X027980Y006750D01*
X027980Y006651D02*
X027209Y006651D01*
X027178Y006553D02*
X027980Y006553D01*
X026637Y006553D02*
X026537Y006553D01*
X026537Y006651D02*
X026637Y006651D01*
X026637Y006750D02*
X026537Y006750D01*
X026537Y006848D02*
X026637Y006848D01*
X026637Y006947D02*
X026537Y006947D01*
X026537Y007045D02*
X026637Y007045D01*
X026637Y007341D02*
X026537Y007341D01*
X026537Y007439D02*
X026637Y007439D01*
X026637Y007538D02*
X026537Y007538D01*
X026537Y007636D02*
X026637Y007636D01*
X026637Y007735D02*
X026537Y007735D01*
X025965Y007045D02*
X024184Y007045D01*
X024283Y006947D02*
X025965Y006947D01*
X025965Y006848D02*
X024381Y006848D01*
X024480Y006750D02*
X025965Y006750D01*
X025965Y006651D02*
X024578Y006651D01*
X024677Y006553D02*
X025996Y006553D01*
X003842Y035906D02*
X003742Y035906D01*
X003742Y036004D02*
X003842Y036004D01*
X003842Y036103D02*
X003742Y036103D01*
X003742Y036201D02*
X003842Y036201D01*
X003842Y036300D02*
X003742Y036300D01*
X004145Y036595D02*
X004436Y036595D01*
D35*
X011272Y045627D02*
X011858Y046213D01*
X013300Y046213D01*
X013969Y046213D02*
X013969Y047000D01*
X013300Y047000D02*
X011868Y047000D01*
X011272Y047597D01*
D36*
X009309Y047597D01*
X009304Y047591D01*
X009304Y043556D01*
X008024Y042276D01*
X002414Y042276D01*
X001430Y041292D01*
X001430Y039717D01*
X001435Y039723D01*
X003792Y039723D01*
X001430Y039717D02*
X001430Y035780D01*
X001435Y035786D01*
X003792Y035786D01*
X001430Y035780D02*
X001430Y031744D01*
X001534Y031849D01*
X003792Y031849D01*
X003797Y031843D01*
X008221Y031843D01*
X009500Y033122D01*
X010780Y033122D01*
X010800Y033103D01*
X014697Y033103D01*
X010760Y024441D02*
X009874Y024441D01*
X009402Y023969D01*
X003797Y023969D01*
X003792Y023975D01*
X001435Y023975D01*
X001430Y023969D01*
X001430Y020032D01*
X001430Y016095D01*
X003786Y016095D01*
X003792Y016101D01*
X003797Y016095D01*
X006548Y016095D01*
X007926Y017473D01*
X009993Y017473D01*
X010780Y016685D01*
X010780Y015800D01*
X010760Y015780D01*
X010760Y015819D01*
X012453Y014126D02*
X012453Y009993D01*
X015307Y007138D01*
X015307Y004973D01*
X016292Y003989D01*
X018949Y003989D01*
X021804Y001134D01*
X045130Y001134D01*
X046896Y002900D01*
X046896Y007237D01*
X044929Y007237D02*
X044929Y004280D01*
X043063Y002414D01*
X022591Y002414D01*
X014126Y010878D01*
X014126Y018260D01*
X011469Y020918D01*
X010189Y020918D01*
X012453Y021902D02*
X015504Y018851D01*
X015504Y011567D01*
X023378Y003693D01*
X042178Y003693D01*
X042959Y004475D01*
X042959Y007237D01*
X047197Y016685D02*
X043752Y020130D01*
X043752Y021016D01*
X041390Y023378D01*
X040504Y023378D01*
X032630Y031252D01*
X032532Y031351D01*
X032532Y031449D01*
X032532Y037256D01*
X032237Y037552D01*
X031843Y037945D01*
X030524Y033103D02*
X030563Y033063D01*
X030563Y031646D01*
X026587Y027670D01*
X026587Y024441D01*
X026607Y024461D01*
X027611Y024461D01*
X028989Y023083D01*
X028989Y018162D01*
X028536Y017709D01*
X028300Y017473D01*
X026607Y015780D01*
X026587Y015780D01*
X028516Y017709D01*
X028536Y017709D02*
X034894Y017709D01*
X047197Y016685D02*
X047784Y016685D01*
X047792Y016693D01*
X018063Y002414D02*
X017965Y001528D01*
X017276Y000839D01*
X014815Y000839D01*
X013831Y001823D01*
X013831Y006548D01*
X010091Y010288D01*
X010780Y007138D02*
X010760Y007119D01*
X002433Y007119D01*
X001430Y008122D01*
X001430Y008615D01*
X001527Y008713D01*
X002902Y008713D01*
X001430Y008615D02*
X001430Y011272D01*
X001430Y011273D01*
X002902Y011273D01*
X001430Y011272D02*
X001430Y016095D01*
X001430Y020032D02*
X001435Y020038D01*
X003792Y020038D01*
X001430Y023969D02*
X001430Y027906D01*
X001435Y027912D01*
X003792Y027912D01*
X001430Y027906D02*
X001430Y031744D01*
X012453Y022788D02*
X012453Y021902D01*
X004682Y011273D02*
X004682Y008713D01*
X010780Y007138D02*
X011174Y007138D01*
X012158Y006154D01*
X012158Y004683D01*
X009304Y047591D02*
X009304Y051331D01*
X010288Y052315D01*
X011266Y052315D01*
X011272Y052321D01*
X011272Y055076D02*
X015969Y055076D01*
X016882Y055989D01*
X017933Y056981D02*
X016693Y058221D01*
X012453Y058221D01*
X011278Y057046D01*
X011272Y057046D01*
X016882Y051989D02*
X017926Y051989D01*
X017933Y051981D01*
X021933Y051981D02*
X022386Y051981D01*
X022886Y052481D01*
X022886Y056481D02*
X022386Y056981D01*
X021933Y056981D01*
D37*
X018556Y049363D02*
X017670Y048477D01*
X017670Y046213D01*
X018457Y046213D02*
X018457Y045819D01*
X017965Y045327D01*
X017965Y044835D01*
X018457Y044343D01*
X019146Y044343D01*
X021705Y046902D01*
X021705Y047689D01*
X022099Y048083D01*
X029973Y048083D01*
X030859Y047197D01*
X030859Y041587D01*
X032827Y039619D01*
X032827Y038142D01*
X032237Y037552D01*
X017965Y045327D02*
X015603Y045327D01*
X015111Y045819D01*
X015111Y049363D01*
X046115Y014355D02*
X047313Y013156D01*
X047496Y012973D01*
X048233Y012237D01*
X048477Y012237D01*
X048477Y010859D02*
X046619Y010859D01*
X046115Y010355D01*
X046896Y009573D01*
X046896Y007237D01*
X044630Y012256D02*
X041989Y012256D01*
X041496Y011764D01*
X041496Y008918D01*
X040992Y008413D01*
X040992Y007237D01*
X044630Y013156D02*
X047313Y013156D01*
X018457Y002807D02*
X018457Y002020D01*
X017670Y002020D02*
X017670Y002807D01*
X018457Y002807D01*
D38*
X037847Y030367D02*
X035189Y033024D01*
X035189Y039914D01*
X036863Y041587D01*
X040504Y041587D01*
X041095Y042178D01*
X041095Y047689D01*
X043851Y050445D01*
X045721Y050445D01*
X045681Y050485D01*
X045681Y051233D01*
X045681Y052217D01*
X046351Y052217D02*
X047485Y052217D01*
X047469Y051233D02*
X047485Y051217D01*
X047469Y051233D02*
X046351Y051233D01*
X045721Y050445D02*
X049953Y050445D01*
X050288Y050780D01*
X050288Y051233D01*
X050288Y052217D01*
X050288Y052867D01*
X049937Y053217D01*
X048485Y053217D01*
X047485Y053217D02*
X047469Y053201D01*
X042670Y053201D01*
X042056Y053815D01*
X041981Y053815D01*
X040839Y052674D01*
X039469Y052674D01*
X039469Y050674D02*
X041839Y050674D01*
X041981Y050815D01*
X042193Y050815D01*
X042867Y051489D01*
X042867Y052158D02*
X042323Y052158D01*
X041981Y051815D01*
X041973Y051823D01*
X042867Y052158D02*
X043319Y052158D01*
X043654Y051823D01*
X043654Y051134D01*
X040406Y047886D01*
X040406Y042965D01*
X040111Y042670D01*
X040107Y042674D01*
X039469Y042674D01*
X039469Y046674D02*
X036008Y046674D01*
X035681Y047000D01*
X035681Y054382D01*
X034894Y055170D01*
X032729Y055170D01*
X027020Y049461D01*
X022394Y049461D01*
X020918Y047985D01*
X020918Y047296D01*
X018703Y045081D01*
X018654Y045081D01*
X013969Y047000D02*
X013969Y049107D01*
X014914Y050052D01*
X026823Y050052D01*
X032532Y055760D01*
X035189Y055760D01*
X036272Y054678D01*
X036272Y048083D01*
X036681Y047674D01*
X039469Y047674D01*
X039469Y048674D02*
X037256Y048674D01*
X036863Y049067D01*
X036863Y054973D01*
X035485Y056351D01*
X032335Y056351D01*
X026626Y050642D01*
X016931Y050642D01*
X030563Y051626D02*
X031744Y050445D01*
X031744Y041882D01*
X033615Y040012D01*
X033615Y032630D01*
X046552Y019693D01*
X047792Y019693D01*
X047792Y020693D02*
X046536Y020693D01*
X034402Y032827D01*
X034402Y040307D01*
X032532Y042178D01*
X032532Y050741D01*
X031351Y051922D01*
X031056Y052709D02*
X033433Y052709D01*
X033469Y052674D01*
X031056Y052709D02*
X030563Y052217D01*
X030563Y051626D01*
X031615Y057729D02*
X031615Y057796D01*
X032335Y058516D01*
X035977Y058516D01*
X036370Y058122D01*
X036370Y056351D01*
X037453Y055268D01*
X037453Y050052D01*
X037831Y049674D01*
X039469Y049674D01*
X048485Y051217D02*
X049603Y051217D01*
X049619Y051233D01*
X049619Y052217D02*
X048485Y052217D01*
X044737Y037256D02*
X044737Y037059D01*
X044737Y036863D01*
X032926Y031449D02*
X032532Y031449D01*
X032138Y031449D01*
X032532Y031154D02*
X032630Y031252D01*
X032532Y031154D02*
X032532Y031056D01*
D39*
X024764Y039725D02*
X024469Y039725D01*
X024363Y039619D01*
X048772Y036567D02*
X048792Y036548D01*
X048792Y035693D01*
X048772Y036567D02*
X048870Y036567D01*
X050347Y035091D01*
X050347Y028693D01*
X048792Y028693D01*
X050347Y028693D02*
X050347Y021311D01*
X049729Y020693D01*
D40*
X048792Y020693D01*
X048772Y036567D02*
X045229Y036567D01*
X044737Y037059D01*
X044737Y037256D02*
X044737Y037650D01*
X027870Y053066D02*
X029481Y054678D01*
X029481Y056340D01*
X029470Y057729D02*
X028103Y057729D01*
X026331Y055957D01*
X026331Y055895D01*
X026331Y054481D02*
X024331Y056481D01*
X022886Y056481D01*
X024917Y054481D02*
X022917Y052481D01*
X022886Y052481D01*
X026331Y053066D02*
X027870Y053066D01*
X027745Y054481D02*
X026331Y054481D01*
X029470Y057729D02*
X029481Y057740D01*
X031604Y057740D01*
X031615Y057729D01*
D41*
X031351Y051922D03*
X031843Y038339D03*
X031843Y037945D03*
X031843Y037552D03*
X032532Y031843D03*
X032532Y031449D03*
X032532Y031056D03*
X032926Y031449D03*
X032138Y031449D03*
X037847Y030367D03*
X044737Y036863D03*
X044737Y037256D03*
X044737Y037650D03*
X018654Y045081D03*
X018457Y046213D03*
X017670Y046213D03*
X018556Y049363D03*
X016931Y050642D03*
X015111Y049363D03*
X010583Y021311D03*
X010583Y020918D03*
X010189Y020918D03*
X009796Y020918D03*
X009796Y021311D03*
X010189Y021311D03*
X010189Y020524D03*
X009796Y020524D03*
X010583Y020524D03*
X010091Y011075D03*
X010091Y010681D03*
X010091Y010288D03*
X009697Y010288D03*
X009304Y010288D03*
X009304Y010681D03*
X009697Y010681D03*
X009697Y011075D03*
X009304Y011075D03*
X017670Y002807D03*
X017670Y002414D03*
X018063Y002414D03*
X018063Y002807D03*
X018457Y002807D03*
X018457Y002414D03*
X018457Y002020D03*
X018063Y002020D03*
X017670Y002020D03*
D42*
X024264Y005268D02*
X017276Y012256D01*
X017276Y019933D01*
X014422Y022788D01*
X014422Y027788D01*
X010760Y031449D01*
X010760Y031430D01*
X009205Y029874D01*
X003797Y029874D01*
X003792Y029869D01*
X003994Y026134D02*
X003792Y025932D01*
X003797Y025937D01*
X003994Y026134D02*
X011666Y026134D01*
X012453Y025347D01*
X012453Y022788D01*
X010760Y022788D01*
X010189Y020918D02*
X009008Y020918D01*
X007931Y021995D01*
X003792Y021995D01*
X007138Y019048D02*
X006154Y018063D01*
X003797Y018063D01*
X003792Y018058D01*
X007138Y019048D02*
X010977Y019048D01*
X012453Y017571D01*
X012453Y014126D01*
X010760Y014126D01*
X009697Y010681D02*
X006258Y014121D01*
X003792Y014121D01*
X003792Y033806D02*
X004475Y033806D01*
X005859Y035189D01*
X006154Y035189D01*
X003792Y037743D02*
X003792Y037748D01*
X004087Y038044D01*
X005367Y038044D01*
X021410Y043359D02*
X021418Y043367D01*
X021418Y043926D01*
X024764Y043926D02*
X024764Y043367D01*
X028111Y043367D02*
X028111Y043926D01*
X034205Y010681D02*
X035189Y010681D01*
X035087Y010579D01*
X035087Y007237D01*
X038241Y005268D02*
X039028Y006056D01*
X039028Y007231D01*
X039022Y007237D01*
X038241Y005268D02*
X030367Y005268D01*
X030361Y005274D01*
X030367Y005268D02*
X029087Y005268D01*
X024264Y005268D01*
X029087Y005268D02*
X029180Y005361D01*
X029180Y007237D01*
D43*
X021804Y030563D02*
X021804Y031843D01*
X028111Y038150D01*
X028111Y043367D01*
X024764Y043367D02*
X024764Y039725D01*
X020229Y035189D01*
X010091Y035189D01*
X006154Y035189D01*
X005367Y038044D02*
X007335Y038044D01*
X018359Y038044D01*
X019933Y039619D01*
X020721Y040406D01*
X021016Y040701D01*
X021410Y041095D01*
X021410Y043359D01*
D44*
X021804Y014028D02*
X021804Y013437D01*
X024559Y010681D01*
X034205Y010681D01*
D45*
X021804Y014028D02*
X021804Y030563D01*
M02*
