G75*
G70*
%OFA0B0*%
%FSLAX24Y24*%
%IPPOS*%
%LPD*%
%AMOC8*
5,1,8,0,0,1.08239X$1,22.5*
%
%ADD10C,0.0000*%
%ADD11R,0.0866X0.0236*%
%ADD12R,0.0512X0.0591*%
%ADD13C,0.0520*%
%ADD14C,0.0768*%
%ADD15C,0.0740*%
%ADD16OC8,0.0515*%
%ADD17C,0.0515*%
%ADD18C,0.0780*%
%ADD19R,0.0240X0.0870*%
%ADD20R,0.0630X0.0512*%
%ADD21R,0.0870X0.0240*%
%ADD22R,0.0512X0.0630*%
%ADD23R,0.0260X0.0800*%
%ADD24R,0.0591X0.0512*%
%ADD25C,0.0760*%
%ADD26OC8,0.0520*%
%ADD27OC8,0.0600*%
%ADD28C,0.0150*%
%ADD29C,0.0020*%
%ADD30R,0.0630X0.0460*%
%ADD31R,0.0080X0.0250*%
%ADD32C,0.0860*%
%ADD33R,0.0945X0.0945*%
%ADD34OC8,0.0945*%
%ADD35C,0.0945*%
%ADD36OC8,0.2000*%
%ADD37C,0.0600*%
%ADD38C,0.0520*%
%ADD39C,0.0660*%
%ADD40R,0.0551X0.0394*%
%ADD41OC8,0.1000*%
%ADD42C,0.0600*%
%ADD43OC8,0.0630*%
%ADD44C,0.0630*%
%ADD45C,0.0120*%
%ADD46R,0.0460X0.0630*%
%ADD47C,0.0400*%
%ADD48C,0.0500*%
%ADD49C,0.0240*%
%ADD50C,0.0320*%
%ADD51C,0.1500*%
%ADD52C,0.0700*%
%ADD53C,0.1000*%
%ADD54C,0.0356*%
%ADD55C,0.0160*%
%ADD56C,0.0660*%
D10*
X000839Y005859D02*
X007532Y005859D01*
X007578Y005857D01*
X007624Y005852D01*
X007670Y005843D01*
X007715Y005830D01*
X007758Y005814D01*
X007800Y005795D01*
X007841Y005772D01*
X007879Y005746D01*
X007916Y005717D01*
X007950Y005686D01*
X007981Y005652D01*
X008010Y005615D01*
X008036Y005577D01*
X008059Y005536D01*
X008078Y005494D01*
X008094Y005451D01*
X008107Y005406D01*
X008116Y005360D01*
X008121Y005314D01*
X008123Y005268D01*
X008122Y005268D02*
X008122Y000741D01*
X008124Y000695D01*
X008129Y000649D01*
X008138Y000603D01*
X008151Y000558D01*
X008167Y000515D01*
X008186Y000473D01*
X008209Y000432D01*
X008235Y000394D01*
X008264Y000357D01*
X008295Y000323D01*
X008329Y000292D01*
X008366Y000263D01*
X008404Y000237D01*
X008445Y000214D01*
X008487Y000195D01*
X008530Y000179D01*
X008575Y000166D01*
X008621Y000157D01*
X008667Y000152D01*
X008713Y000150D01*
X050248Y000150D01*
X050314Y000152D01*
X050380Y000157D01*
X050446Y000167D01*
X050511Y000180D01*
X050575Y000196D01*
X050638Y000216D01*
X050700Y000240D01*
X050760Y000267D01*
X050819Y000297D01*
X050876Y000331D01*
X050931Y000368D01*
X050984Y000408D01*
X051035Y000450D01*
X051083Y000496D01*
X051129Y000544D01*
X051171Y000595D01*
X051211Y000648D01*
X051248Y000703D01*
X051282Y000760D01*
X051312Y000819D01*
X051339Y000879D01*
X051363Y000941D01*
X051383Y001004D01*
X051399Y001068D01*
X051412Y001133D01*
X051422Y001199D01*
X051427Y001265D01*
X051429Y001331D01*
X051430Y001331D02*
X051430Y058024D01*
X051429Y058024D02*
X051427Y058090D01*
X051422Y058156D01*
X051412Y058222D01*
X051399Y058287D01*
X051383Y058351D01*
X051363Y058414D01*
X051339Y058476D01*
X051312Y058536D01*
X051282Y058595D01*
X051248Y058652D01*
X051211Y058707D01*
X051171Y058760D01*
X051129Y058811D01*
X051083Y058859D01*
X051035Y058905D01*
X050984Y058947D01*
X050931Y058987D01*
X050876Y059024D01*
X050819Y059058D01*
X050760Y059088D01*
X050700Y059115D01*
X050638Y059139D01*
X050575Y059159D01*
X050511Y059175D01*
X050446Y059188D01*
X050380Y059198D01*
X050314Y059203D01*
X050248Y059205D01*
X008713Y059205D01*
X008713Y059206D02*
X008667Y059204D01*
X008621Y059199D01*
X008575Y059190D01*
X008530Y059177D01*
X008487Y059161D01*
X008445Y059142D01*
X008404Y059119D01*
X008366Y059093D01*
X008329Y059064D01*
X008295Y059033D01*
X008264Y058999D01*
X008235Y058962D01*
X008209Y058924D01*
X008186Y058883D01*
X008167Y058841D01*
X008151Y058798D01*
X008138Y058753D01*
X008129Y058707D01*
X008124Y058661D01*
X008122Y058615D01*
X008122Y044048D01*
X008123Y044048D02*
X008121Y044002D01*
X008116Y043956D01*
X008107Y043910D01*
X008094Y043865D01*
X008078Y043822D01*
X008059Y043780D01*
X008036Y043739D01*
X008010Y043701D01*
X007981Y043664D01*
X007950Y043630D01*
X007916Y043599D01*
X007879Y043570D01*
X007841Y043544D01*
X007800Y043521D01*
X007758Y043502D01*
X007715Y043486D01*
X007670Y043473D01*
X007624Y043464D01*
X007578Y043459D01*
X007532Y043457D01*
X000839Y043457D01*
X000839Y043458D02*
X000793Y043456D01*
X000747Y043451D01*
X000701Y043442D01*
X000656Y043429D01*
X000613Y043413D01*
X000571Y043394D01*
X000530Y043371D01*
X000492Y043345D01*
X000455Y043316D01*
X000421Y043285D01*
X000390Y043251D01*
X000361Y043214D01*
X000335Y043176D01*
X000312Y043135D01*
X000293Y043093D01*
X000277Y043050D01*
X000264Y043005D01*
X000255Y042959D01*
X000250Y042913D01*
X000248Y042867D01*
X000248Y006449D01*
X000250Y006403D01*
X000255Y006357D01*
X000264Y006311D01*
X000277Y006266D01*
X000293Y006223D01*
X000312Y006181D01*
X000335Y006140D01*
X000361Y006102D01*
X000390Y006065D01*
X000421Y006031D01*
X000455Y006000D01*
X000492Y005971D01*
X000530Y005945D01*
X000571Y005922D01*
X000613Y005903D01*
X000656Y005887D01*
X000701Y005874D01*
X000747Y005865D01*
X000793Y005860D01*
X000839Y005858D01*
X007925Y015898D02*
X007927Y015946D01*
X007933Y015994D01*
X007943Y016041D01*
X007956Y016087D01*
X007974Y016132D01*
X007994Y016176D01*
X008019Y016218D01*
X008047Y016257D01*
X008077Y016294D01*
X008111Y016328D01*
X008148Y016360D01*
X008186Y016389D01*
X008227Y016414D01*
X008270Y016436D01*
X008315Y016454D01*
X008361Y016468D01*
X008408Y016479D01*
X008456Y016486D01*
X008504Y016489D01*
X008552Y016488D01*
X008600Y016483D01*
X008648Y016474D01*
X008694Y016462D01*
X008739Y016445D01*
X008783Y016425D01*
X008825Y016402D01*
X008865Y016375D01*
X008903Y016345D01*
X008938Y016312D01*
X008970Y016276D01*
X009000Y016238D01*
X009026Y016197D01*
X009048Y016154D01*
X009068Y016110D01*
X009083Y016065D01*
X009095Y016018D01*
X009103Y015970D01*
X009107Y015922D01*
X009107Y015874D01*
X009103Y015826D01*
X009095Y015778D01*
X009083Y015731D01*
X009068Y015686D01*
X009048Y015642D01*
X009026Y015599D01*
X009000Y015558D01*
X008970Y015520D01*
X008938Y015484D01*
X008903Y015451D01*
X008865Y015421D01*
X008825Y015394D01*
X008783Y015371D01*
X008739Y015351D01*
X008694Y015334D01*
X008648Y015322D01*
X008600Y015313D01*
X008552Y015308D01*
X008504Y015307D01*
X008456Y015310D01*
X008408Y015317D01*
X008361Y015328D01*
X008315Y015342D01*
X008270Y015360D01*
X008227Y015382D01*
X008186Y015407D01*
X008148Y015436D01*
X008111Y015468D01*
X008077Y015502D01*
X008047Y015539D01*
X008019Y015578D01*
X007994Y015620D01*
X007974Y015664D01*
X007956Y015709D01*
X007943Y015755D01*
X007933Y015802D01*
X007927Y015850D01*
X007925Y015898D01*
X021355Y045426D02*
X021357Y045480D01*
X021363Y045534D01*
X021373Y045588D01*
X021387Y045640D01*
X021404Y045692D01*
X021425Y045742D01*
X021450Y045790D01*
X021479Y045837D01*
X021510Y045881D01*
X021545Y045922D01*
X021583Y045962D01*
X021623Y045998D01*
X021666Y046031D01*
X021711Y046061D01*
X021759Y046088D01*
X021808Y046111D01*
X021859Y046130D01*
X021911Y046146D01*
X021964Y046158D01*
X022018Y046166D01*
X022072Y046170D01*
X022126Y046170D01*
X022180Y046166D01*
X022234Y046158D01*
X022287Y046146D01*
X022339Y046130D01*
X022390Y046111D01*
X022439Y046088D01*
X022487Y046061D01*
X022532Y046031D01*
X022575Y045998D01*
X022615Y045962D01*
X022653Y045922D01*
X022688Y045881D01*
X022719Y045837D01*
X022748Y045790D01*
X022773Y045742D01*
X022794Y045692D01*
X022811Y045640D01*
X022825Y045588D01*
X022835Y045534D01*
X022841Y045480D01*
X022843Y045426D01*
X022841Y045372D01*
X022835Y045318D01*
X022825Y045264D01*
X022811Y045212D01*
X022794Y045160D01*
X022773Y045110D01*
X022748Y045062D01*
X022719Y045015D01*
X022688Y044971D01*
X022653Y044930D01*
X022615Y044890D01*
X022575Y044854D01*
X022532Y044821D01*
X022487Y044791D01*
X022439Y044764D01*
X022390Y044741D01*
X022339Y044722D01*
X022287Y044706D01*
X022234Y044694D01*
X022180Y044686D01*
X022126Y044682D01*
X022072Y044682D01*
X022018Y044686D01*
X021964Y044694D01*
X021911Y044706D01*
X021859Y044722D01*
X021808Y044741D01*
X021759Y044764D01*
X021711Y044791D01*
X021666Y044821D01*
X021623Y044854D01*
X021583Y044890D01*
X021545Y044930D01*
X021510Y044971D01*
X021479Y045015D01*
X021450Y045062D01*
X021425Y045110D01*
X021404Y045160D01*
X021387Y045212D01*
X021373Y045264D01*
X021363Y045318D01*
X021357Y045372D01*
X021355Y045426D01*
X024701Y045426D02*
X024703Y045480D01*
X024709Y045534D01*
X024719Y045588D01*
X024733Y045640D01*
X024750Y045692D01*
X024771Y045742D01*
X024796Y045790D01*
X024825Y045837D01*
X024856Y045881D01*
X024891Y045922D01*
X024929Y045962D01*
X024969Y045998D01*
X025012Y046031D01*
X025057Y046061D01*
X025105Y046088D01*
X025154Y046111D01*
X025205Y046130D01*
X025257Y046146D01*
X025310Y046158D01*
X025364Y046166D01*
X025418Y046170D01*
X025472Y046170D01*
X025526Y046166D01*
X025580Y046158D01*
X025633Y046146D01*
X025685Y046130D01*
X025736Y046111D01*
X025785Y046088D01*
X025833Y046061D01*
X025878Y046031D01*
X025921Y045998D01*
X025961Y045962D01*
X025999Y045922D01*
X026034Y045881D01*
X026065Y045837D01*
X026094Y045790D01*
X026119Y045742D01*
X026140Y045692D01*
X026157Y045640D01*
X026171Y045588D01*
X026181Y045534D01*
X026187Y045480D01*
X026189Y045426D01*
X026187Y045372D01*
X026181Y045318D01*
X026171Y045264D01*
X026157Y045212D01*
X026140Y045160D01*
X026119Y045110D01*
X026094Y045062D01*
X026065Y045015D01*
X026034Y044971D01*
X025999Y044930D01*
X025961Y044890D01*
X025921Y044854D01*
X025878Y044821D01*
X025833Y044791D01*
X025785Y044764D01*
X025736Y044741D01*
X025685Y044722D01*
X025633Y044706D01*
X025580Y044694D01*
X025526Y044686D01*
X025472Y044682D01*
X025418Y044682D01*
X025364Y044686D01*
X025310Y044694D01*
X025257Y044706D01*
X025205Y044722D01*
X025154Y044741D01*
X025105Y044764D01*
X025057Y044791D01*
X025012Y044821D01*
X024969Y044854D01*
X024929Y044890D01*
X024891Y044930D01*
X024856Y044971D01*
X024825Y045015D01*
X024796Y045062D01*
X024771Y045110D01*
X024750Y045160D01*
X024733Y045212D01*
X024719Y045264D01*
X024709Y045318D01*
X024703Y045372D01*
X024701Y045426D01*
X028048Y045426D02*
X028050Y045480D01*
X028056Y045534D01*
X028066Y045588D01*
X028080Y045640D01*
X028097Y045692D01*
X028118Y045742D01*
X028143Y045790D01*
X028172Y045837D01*
X028203Y045881D01*
X028238Y045922D01*
X028276Y045962D01*
X028316Y045998D01*
X028359Y046031D01*
X028404Y046061D01*
X028452Y046088D01*
X028501Y046111D01*
X028552Y046130D01*
X028604Y046146D01*
X028657Y046158D01*
X028711Y046166D01*
X028765Y046170D01*
X028819Y046170D01*
X028873Y046166D01*
X028927Y046158D01*
X028980Y046146D01*
X029032Y046130D01*
X029083Y046111D01*
X029132Y046088D01*
X029180Y046061D01*
X029225Y046031D01*
X029268Y045998D01*
X029308Y045962D01*
X029346Y045922D01*
X029381Y045881D01*
X029412Y045837D01*
X029441Y045790D01*
X029466Y045742D01*
X029487Y045692D01*
X029504Y045640D01*
X029518Y045588D01*
X029528Y045534D01*
X029534Y045480D01*
X029536Y045426D01*
X029534Y045372D01*
X029528Y045318D01*
X029518Y045264D01*
X029504Y045212D01*
X029487Y045160D01*
X029466Y045110D01*
X029441Y045062D01*
X029412Y045015D01*
X029381Y044971D01*
X029346Y044930D01*
X029308Y044890D01*
X029268Y044854D01*
X029225Y044821D01*
X029180Y044791D01*
X029132Y044764D01*
X029083Y044741D01*
X029032Y044722D01*
X028980Y044706D01*
X028927Y044694D01*
X028873Y044686D01*
X028819Y044682D01*
X028765Y044682D01*
X028711Y044686D01*
X028657Y044694D01*
X028604Y044706D01*
X028552Y044722D01*
X028501Y044741D01*
X028452Y044764D01*
X028404Y044791D01*
X028359Y044821D01*
X028316Y044854D01*
X028276Y044890D01*
X028238Y044930D01*
X028203Y044971D01*
X028172Y045015D01*
X028143Y045062D01*
X028118Y045110D01*
X028097Y045160D01*
X028080Y045212D01*
X028066Y045264D01*
X028056Y045318D01*
X028050Y045372D01*
X028048Y045426D01*
X014421Y056646D02*
X014423Y056694D01*
X014429Y056742D01*
X014439Y056789D01*
X014452Y056835D01*
X014470Y056880D01*
X014490Y056924D01*
X014515Y056966D01*
X014543Y057005D01*
X014573Y057042D01*
X014607Y057076D01*
X014644Y057108D01*
X014682Y057137D01*
X014723Y057162D01*
X014766Y057184D01*
X014811Y057202D01*
X014857Y057216D01*
X014904Y057227D01*
X014952Y057234D01*
X015000Y057237D01*
X015048Y057236D01*
X015096Y057231D01*
X015144Y057222D01*
X015190Y057210D01*
X015235Y057193D01*
X015279Y057173D01*
X015321Y057150D01*
X015361Y057123D01*
X015399Y057093D01*
X015434Y057060D01*
X015466Y057024D01*
X015496Y056986D01*
X015522Y056945D01*
X015544Y056902D01*
X015564Y056858D01*
X015579Y056813D01*
X015591Y056766D01*
X015599Y056718D01*
X015603Y056670D01*
X015603Y056622D01*
X015599Y056574D01*
X015591Y056526D01*
X015579Y056479D01*
X015564Y056434D01*
X015544Y056390D01*
X015522Y056347D01*
X015496Y056306D01*
X015466Y056268D01*
X015434Y056232D01*
X015399Y056199D01*
X015361Y056169D01*
X015321Y056142D01*
X015279Y056119D01*
X015235Y056099D01*
X015190Y056082D01*
X015144Y056070D01*
X015096Y056061D01*
X015048Y056056D01*
X015000Y056055D01*
X014952Y056058D01*
X014904Y056065D01*
X014857Y056076D01*
X014811Y056090D01*
X014766Y056108D01*
X014723Y056130D01*
X014682Y056155D01*
X014644Y056184D01*
X014607Y056216D01*
X014573Y056250D01*
X014543Y056287D01*
X014515Y056326D01*
X014490Y056368D01*
X014470Y056412D01*
X014452Y056457D01*
X014439Y056503D01*
X014429Y056550D01*
X014423Y056598D01*
X014421Y056646D01*
X046902Y056449D02*
X046904Y056497D01*
X046910Y056545D01*
X046920Y056592D01*
X046933Y056638D01*
X046951Y056683D01*
X046971Y056727D01*
X046996Y056769D01*
X047024Y056808D01*
X047054Y056845D01*
X047088Y056879D01*
X047125Y056911D01*
X047163Y056940D01*
X047204Y056965D01*
X047247Y056987D01*
X047292Y057005D01*
X047338Y057019D01*
X047385Y057030D01*
X047433Y057037D01*
X047481Y057040D01*
X047529Y057039D01*
X047577Y057034D01*
X047625Y057025D01*
X047671Y057013D01*
X047716Y056996D01*
X047760Y056976D01*
X047802Y056953D01*
X047842Y056926D01*
X047880Y056896D01*
X047915Y056863D01*
X047947Y056827D01*
X047977Y056789D01*
X048003Y056748D01*
X048025Y056705D01*
X048045Y056661D01*
X048060Y056616D01*
X048072Y056569D01*
X048080Y056521D01*
X048084Y056473D01*
X048084Y056425D01*
X048080Y056377D01*
X048072Y056329D01*
X048060Y056282D01*
X048045Y056237D01*
X048025Y056193D01*
X048003Y056150D01*
X047977Y056109D01*
X047947Y056071D01*
X047915Y056035D01*
X047880Y056002D01*
X047842Y055972D01*
X047802Y055945D01*
X047760Y055922D01*
X047716Y055902D01*
X047671Y055885D01*
X047625Y055873D01*
X047577Y055864D01*
X047529Y055859D01*
X047481Y055858D01*
X047433Y055861D01*
X047385Y055868D01*
X047338Y055879D01*
X047292Y055893D01*
X047247Y055911D01*
X047204Y055933D01*
X047163Y055958D01*
X047125Y055987D01*
X047088Y056019D01*
X047054Y056053D01*
X047024Y056090D01*
X046996Y056129D01*
X046971Y056171D01*
X046951Y056215D01*
X046933Y056260D01*
X046920Y056306D01*
X046910Y056353D01*
X046904Y056401D01*
X046902Y056449D01*
X042965Y015898D02*
X042967Y015946D01*
X042973Y015994D01*
X042983Y016041D01*
X042996Y016087D01*
X043014Y016132D01*
X043034Y016176D01*
X043059Y016218D01*
X043087Y016257D01*
X043117Y016294D01*
X043151Y016328D01*
X043188Y016360D01*
X043226Y016389D01*
X043267Y016414D01*
X043310Y016436D01*
X043355Y016454D01*
X043401Y016468D01*
X043448Y016479D01*
X043496Y016486D01*
X043544Y016489D01*
X043592Y016488D01*
X043640Y016483D01*
X043688Y016474D01*
X043734Y016462D01*
X043779Y016445D01*
X043823Y016425D01*
X043865Y016402D01*
X043905Y016375D01*
X043943Y016345D01*
X043978Y016312D01*
X044010Y016276D01*
X044040Y016238D01*
X044066Y016197D01*
X044088Y016154D01*
X044108Y016110D01*
X044123Y016065D01*
X044135Y016018D01*
X044143Y015970D01*
X044147Y015922D01*
X044147Y015874D01*
X044143Y015826D01*
X044135Y015778D01*
X044123Y015731D01*
X044108Y015686D01*
X044088Y015642D01*
X044066Y015599D01*
X044040Y015558D01*
X044010Y015520D01*
X043978Y015484D01*
X043943Y015451D01*
X043905Y015421D01*
X043865Y015394D01*
X043823Y015371D01*
X043779Y015351D01*
X043734Y015334D01*
X043688Y015322D01*
X043640Y015313D01*
X043592Y015308D01*
X043544Y015307D01*
X043496Y015310D01*
X043448Y015317D01*
X043401Y015328D01*
X043355Y015342D01*
X043310Y015360D01*
X043267Y015382D01*
X043226Y015407D01*
X043188Y015436D01*
X043151Y015468D01*
X043117Y015502D01*
X043087Y015539D01*
X043059Y015578D01*
X043034Y015620D01*
X043014Y015664D01*
X042996Y015709D01*
X042983Y015755D01*
X042973Y015802D01*
X042967Y015850D01*
X042965Y015898D01*
D11*
X041922Y014384D03*
X041922Y013884D03*
X041922Y013384D03*
X041922Y012884D03*
X039874Y012884D03*
X039874Y013384D03*
X039874Y013884D03*
X039874Y014384D03*
X040367Y018593D03*
X040367Y019093D03*
X040367Y019593D03*
X040367Y020093D03*
X042414Y020093D03*
X042414Y019593D03*
X042414Y019093D03*
X042414Y018593D03*
D12*
X041528Y017768D03*
X040859Y017768D03*
X038575Y014815D03*
X038575Y013831D03*
X037906Y013831D03*
X037906Y014815D03*
X037906Y012847D03*
X038575Y012847D03*
X019973Y006056D03*
X019304Y006056D03*
X019304Y005268D03*
X019973Y005268D03*
X006390Y014717D03*
X005721Y014717D03*
X005721Y015504D03*
X006390Y015504D03*
X006390Y018654D03*
X006390Y019441D03*
X005721Y019441D03*
X005721Y018654D03*
X005721Y022591D03*
X005721Y023378D03*
X006390Y023378D03*
X006390Y022591D03*
X006390Y026528D03*
X005721Y026528D03*
X005721Y027315D03*
X006390Y027315D03*
X006390Y030465D03*
X006390Y031252D03*
X005721Y031252D03*
X005721Y030465D03*
X005721Y034402D03*
X006390Y034402D03*
X006390Y035189D03*
X005721Y035189D03*
X005721Y040307D03*
X006390Y040307D03*
X006390Y041095D03*
X005721Y041095D03*
D13*
X040890Y021016D03*
X041890Y021016D03*
D14*
X034894Y017709D03*
X034894Y025583D03*
D15*
X034969Y042674D03*
X035969Y042674D03*
X036969Y042674D03*
X037969Y042674D03*
X039469Y042674D03*
X039469Y043674D03*
X039469Y044674D03*
X039469Y045674D03*
X039469Y046674D03*
X039469Y047674D03*
X039469Y048674D03*
X039469Y049674D03*
X039469Y050674D03*
X039469Y051674D03*
X039469Y052674D03*
X039469Y053674D03*
X033469Y053674D03*
X033469Y052674D03*
X033469Y051674D03*
X033469Y050674D03*
X033469Y049674D03*
X033469Y048674D03*
X033469Y047674D03*
X033469Y046674D03*
X033469Y045674D03*
X033469Y044674D03*
X033469Y043674D03*
X033469Y042674D03*
X004682Y011273D03*
X002902Y011273D03*
X002902Y008713D03*
X004682Y008713D03*
D16*
X041981Y050815D03*
D17*
X041981Y051815D03*
X041981Y052815D03*
X041981Y053815D03*
D18*
X011662Y055076D02*
X010882Y055076D01*
X010882Y057046D02*
X011662Y057046D01*
X011662Y052321D02*
X010882Y052321D01*
X010882Y050351D02*
X011662Y050351D01*
X011662Y047597D02*
X010882Y047597D01*
X010882Y045627D02*
X011662Y045627D01*
X004182Y039723D02*
X003402Y039723D01*
X003402Y037743D02*
X004182Y037743D01*
X004182Y035786D02*
X003402Y035786D01*
X003402Y033806D02*
X004182Y033806D01*
X004182Y031849D02*
X003402Y031849D01*
X003402Y029869D02*
X004182Y029869D01*
X004182Y027912D02*
X003402Y027912D01*
X003402Y025932D02*
X004182Y025932D01*
X004182Y023975D02*
X003402Y023975D01*
X003402Y021995D02*
X004182Y021995D01*
X004182Y020038D02*
X003402Y020038D01*
X003402Y018058D02*
X004182Y018058D01*
X004182Y016101D02*
X003402Y016101D01*
X003402Y014121D02*
X004182Y014121D01*
X011768Y004683D02*
X012548Y004683D01*
X012548Y002713D02*
X011768Y002713D01*
X029180Y006847D02*
X029180Y007627D01*
X031150Y007627D02*
X031150Y006847D01*
X033117Y006847D02*
X033117Y007627D01*
X035087Y007627D02*
X035087Y006847D01*
X039022Y006847D02*
X039022Y007627D01*
X040992Y007627D02*
X040992Y006847D01*
X042959Y006847D02*
X042959Y007627D01*
X044929Y007627D02*
X044929Y006847D01*
X046896Y006847D02*
X046896Y007627D01*
X048866Y007627D02*
X048866Y006847D01*
D19*
X017928Y047840D03*
X017428Y047840D03*
X016928Y047840D03*
X016428Y047840D03*
X016428Y049900D03*
X016928Y049900D03*
X017428Y049900D03*
X017928Y049900D03*
D20*
X018556Y050150D03*
X018556Y049363D03*
X015800Y049363D03*
X015800Y050150D03*
D21*
X016148Y045585D03*
X016148Y045085D03*
X016148Y044585D03*
X016148Y044085D03*
X018208Y044085D03*
X018208Y044585D03*
X018208Y045085D03*
X018208Y045585D03*
D22*
X018457Y046213D03*
X017670Y046213D03*
X017768Y043359D03*
X016981Y043359D03*
D23*
X035113Y037974D03*
X035613Y037974D03*
X036113Y037974D03*
X036613Y037974D03*
X037113Y037974D03*
X037613Y037974D03*
X038113Y037974D03*
X038613Y037974D03*
X038613Y035554D03*
X038113Y035554D03*
X037613Y035554D03*
X037113Y035554D03*
X036613Y035554D03*
X036113Y035554D03*
X035613Y035554D03*
X035113Y035554D03*
D24*
X032335Y052276D03*
X032335Y052945D03*
X032335Y053851D03*
X032335Y054520D03*
X043162Y013969D03*
X043162Y013300D03*
X015209Y003733D03*
X015209Y003063D03*
X005859Y010544D03*
X005859Y011213D03*
D25*
X017933Y051981D03*
X021933Y051981D03*
X021933Y056981D03*
X017933Y056981D03*
D26*
X016882Y055989D03*
X016882Y051989D03*
X022886Y052481D03*
X022886Y056481D03*
D27*
X047485Y053217D03*
X048485Y053217D03*
X048485Y052217D03*
X047485Y052217D03*
X047485Y051217D03*
X047792Y035693D03*
X047792Y034693D03*
X047792Y033693D03*
X047792Y032693D03*
X047792Y031693D03*
X047792Y030693D03*
X047792Y029693D03*
X047792Y028693D03*
X047792Y027693D03*
X047792Y026693D03*
X047792Y025693D03*
X047792Y024693D03*
X047792Y023693D03*
X047792Y022693D03*
X047792Y021693D03*
X047792Y020693D03*
X047792Y019693D03*
X047792Y018693D03*
X047792Y017693D03*
X047792Y016693D03*
X048792Y016693D03*
X048792Y017693D03*
X048792Y018693D03*
X048792Y019693D03*
X048792Y020693D03*
X048792Y021693D03*
X048792Y022693D03*
X048792Y023693D03*
X048792Y024693D03*
X048792Y025693D03*
X048792Y026693D03*
X048792Y027693D03*
X048792Y028693D03*
X048792Y029693D03*
X048792Y030693D03*
X048792Y031693D03*
X048792Y032693D03*
X048792Y033693D03*
X048792Y034693D03*
X048792Y035693D03*
D28*
X031618Y038258D02*
X031618Y038408D01*
X032068Y038408D01*
X032068Y038258D01*
X031618Y038258D01*
X031618Y038407D02*
X032068Y038407D01*
X031618Y039058D02*
X031618Y039208D01*
X032068Y039208D01*
X032068Y039058D01*
X031618Y039058D01*
X031618Y039207D02*
X032068Y039207D01*
X027681Y031531D02*
X027681Y031381D01*
X027681Y031531D02*
X028131Y031531D01*
X028131Y031381D01*
X027681Y031381D01*
X027681Y031530D02*
X028131Y031530D01*
X027681Y030731D02*
X027681Y030581D01*
X027681Y030731D02*
X028131Y030731D01*
X028131Y030581D01*
X027681Y030581D01*
X027681Y030730D02*
X028131Y030730D01*
X027681Y022869D02*
X027681Y022719D01*
X027681Y022869D02*
X028131Y022869D01*
X028131Y022719D01*
X027681Y022719D01*
X027681Y022868D02*
X028131Y022868D01*
X027681Y022069D02*
X027681Y021919D01*
X027681Y022069D02*
X028131Y022069D01*
X028131Y021919D01*
X027681Y021919D01*
X027681Y022068D02*
X028131Y022068D01*
X027681Y014208D02*
X027681Y014058D01*
X027681Y014208D02*
X028131Y014208D01*
X028131Y014058D01*
X027681Y014058D01*
X027681Y014207D02*
X028131Y014207D01*
X027681Y013408D02*
X027681Y013258D01*
X027681Y013408D02*
X028131Y013408D01*
X028131Y013258D01*
X027681Y013258D01*
X027681Y013407D02*
X028131Y013407D01*
D29*
X028196Y013415D02*
X027616Y013415D01*
X027616Y013433D02*
X028196Y013433D01*
X028196Y013452D02*
X027616Y013452D01*
X027616Y013470D02*
X028196Y013470D01*
X028196Y013489D02*
X027616Y013489D01*
X027616Y013507D02*
X027901Y013507D01*
X027906Y013503D02*
X027616Y013783D01*
X027616Y013283D01*
X028196Y013283D01*
X028196Y013783D01*
X027906Y013503D01*
X027911Y013507D02*
X028196Y013507D01*
X028196Y013526D02*
X027930Y013526D01*
X027949Y013544D02*
X028196Y013544D01*
X028196Y013563D02*
X027968Y013563D01*
X027987Y013581D02*
X028196Y013581D01*
X028196Y013600D02*
X028006Y013600D01*
X028026Y013618D02*
X028196Y013618D01*
X028196Y013637D02*
X028045Y013637D01*
X028064Y013655D02*
X028196Y013655D01*
X028196Y013674D02*
X028083Y013674D01*
X028102Y013692D02*
X028196Y013692D01*
X028196Y013711D02*
X028121Y013711D01*
X028140Y013729D02*
X028196Y013729D01*
X028196Y013748D02*
X028160Y013748D01*
X028179Y013766D02*
X028196Y013766D01*
X028097Y013859D02*
X027715Y013859D01*
X027696Y013877D02*
X028115Y013877D01*
X028134Y013896D02*
X027678Y013896D01*
X027659Y013914D02*
X028152Y013914D01*
X028171Y013933D02*
X027641Y013933D01*
X027622Y013951D02*
X028189Y013951D01*
X028196Y013958D02*
X027906Y013668D01*
X027616Y013958D01*
X027616Y014183D01*
X028196Y014183D01*
X028196Y013958D01*
X028196Y013970D02*
X027616Y013970D01*
X027616Y013988D02*
X028196Y013988D01*
X028196Y014007D02*
X027616Y014007D01*
X027616Y014025D02*
X028196Y014025D01*
X028196Y014044D02*
X027616Y014044D01*
X027616Y014062D02*
X028196Y014062D01*
X028196Y014081D02*
X027616Y014081D01*
X027616Y014099D02*
X028196Y014099D01*
X028196Y014118D02*
X027616Y014118D01*
X027616Y014136D02*
X028196Y014136D01*
X028196Y014155D02*
X027616Y014155D01*
X027616Y014173D02*
X028196Y014173D01*
X028078Y013840D02*
X027733Y013840D01*
X027752Y013822D02*
X028060Y013822D01*
X028041Y013803D02*
X027770Y013803D01*
X027789Y013785D02*
X028023Y013785D01*
X028004Y013766D02*
X027807Y013766D01*
X027826Y013748D02*
X027986Y013748D01*
X027967Y013729D02*
X027844Y013729D01*
X027863Y013711D02*
X027949Y013711D01*
X027930Y013692D02*
X027881Y013692D01*
X027900Y013674D02*
X027912Y013674D01*
X027825Y013581D02*
X027616Y013581D01*
X027616Y013563D02*
X027844Y013563D01*
X027863Y013544D02*
X027616Y013544D01*
X027616Y013526D02*
X027882Y013526D01*
X027805Y013600D02*
X027616Y013600D01*
X027616Y013618D02*
X027786Y013618D01*
X027767Y013637D02*
X027616Y013637D01*
X027616Y013655D02*
X027748Y013655D01*
X027729Y013674D02*
X027616Y013674D01*
X027616Y013692D02*
X027710Y013692D01*
X027690Y013711D02*
X027616Y013711D01*
X027616Y013729D02*
X027671Y013729D01*
X027652Y013748D02*
X027616Y013748D01*
X027616Y013766D02*
X027633Y013766D01*
X027616Y013396D02*
X028196Y013396D01*
X028196Y013378D02*
X027616Y013378D01*
X027616Y013359D02*
X028196Y013359D01*
X028196Y013341D02*
X027616Y013341D01*
X027616Y013322D02*
X028196Y013322D01*
X028196Y013304D02*
X027616Y013304D01*
X027616Y013285D02*
X028196Y013285D01*
X028196Y021944D02*
X027616Y021944D01*
X027616Y022444D01*
X027906Y022164D01*
X028196Y022444D01*
X028196Y021944D01*
X028196Y021962D02*
X027616Y021962D01*
X027616Y021980D02*
X028196Y021980D01*
X028196Y021999D02*
X027616Y021999D01*
X027616Y022017D02*
X028196Y022017D01*
X028196Y022036D02*
X027616Y022036D01*
X027616Y022054D02*
X028196Y022054D01*
X028196Y022073D02*
X027616Y022073D01*
X027616Y022091D02*
X028196Y022091D01*
X028196Y022110D02*
X027616Y022110D01*
X027616Y022128D02*
X028196Y022128D01*
X028196Y022147D02*
X027616Y022147D01*
X027616Y022165D02*
X027905Y022165D01*
X027907Y022165D02*
X028196Y022165D01*
X028196Y022184D02*
X027926Y022184D01*
X027945Y022202D02*
X028196Y022202D01*
X028196Y022221D02*
X027965Y022221D01*
X027984Y022239D02*
X028196Y022239D01*
X028196Y022258D02*
X028003Y022258D01*
X028022Y022276D02*
X028196Y022276D01*
X028196Y022295D02*
X028041Y022295D01*
X028060Y022313D02*
X028196Y022313D01*
X028196Y022332D02*
X028080Y022332D01*
X028099Y022350D02*
X028196Y022350D01*
X028196Y022369D02*
X028118Y022369D01*
X028137Y022387D02*
X028196Y022387D01*
X028196Y022406D02*
X028156Y022406D01*
X028175Y022424D02*
X028196Y022424D01*
X028195Y022443D02*
X028196Y022443D01*
X028112Y022535D02*
X027700Y022535D01*
X027718Y022517D02*
X028094Y022517D01*
X028075Y022498D02*
X027737Y022498D01*
X027755Y022480D02*
X028057Y022480D01*
X028038Y022461D02*
X027774Y022461D01*
X027792Y022443D02*
X028020Y022443D01*
X028001Y022424D02*
X027811Y022424D01*
X027829Y022406D02*
X027983Y022406D01*
X027964Y022387D02*
X027848Y022387D01*
X027866Y022369D02*
X027946Y022369D01*
X027927Y022350D02*
X027885Y022350D01*
X027903Y022332D02*
X027909Y022332D01*
X027906Y022329D02*
X027616Y022619D01*
X027616Y022844D01*
X028196Y022844D01*
X028196Y022619D01*
X027906Y022329D01*
X027828Y022239D02*
X027616Y022239D01*
X027616Y022221D02*
X027847Y022221D01*
X027866Y022202D02*
X027616Y022202D01*
X027616Y022184D02*
X027886Y022184D01*
X027809Y022258D02*
X027616Y022258D01*
X027616Y022276D02*
X027790Y022276D01*
X027771Y022295D02*
X027616Y022295D01*
X027616Y022313D02*
X027751Y022313D01*
X027732Y022332D02*
X027616Y022332D01*
X027616Y022350D02*
X027713Y022350D01*
X027694Y022369D02*
X027616Y022369D01*
X027616Y022387D02*
X027675Y022387D01*
X027656Y022406D02*
X027616Y022406D01*
X027616Y022424D02*
X027636Y022424D01*
X027617Y022443D02*
X027616Y022443D01*
X027681Y022554D02*
X028131Y022554D01*
X028149Y022572D02*
X027663Y022572D01*
X027644Y022591D02*
X028168Y022591D01*
X028186Y022609D02*
X027626Y022609D01*
X027616Y022628D02*
X028196Y022628D01*
X028196Y022646D02*
X027616Y022646D01*
X027616Y022665D02*
X028196Y022665D01*
X028196Y022683D02*
X027616Y022683D01*
X027616Y022702D02*
X028196Y022702D01*
X028196Y022720D02*
X027616Y022720D01*
X027616Y022739D02*
X028196Y022739D01*
X028196Y022757D02*
X027616Y022757D01*
X027616Y022776D02*
X028196Y022776D01*
X028196Y022794D02*
X027616Y022794D01*
X027616Y022813D02*
X028196Y022813D01*
X028196Y022831D02*
X027616Y022831D01*
X027616Y030606D02*
X028196Y030606D01*
X028196Y031106D01*
X027906Y030826D01*
X027616Y031106D01*
X027616Y030606D01*
X027616Y030620D02*
X028196Y030620D01*
X028196Y030638D02*
X027616Y030638D01*
X027616Y030657D02*
X028196Y030657D01*
X028196Y030675D02*
X027616Y030675D01*
X027616Y030694D02*
X028196Y030694D01*
X028196Y030712D02*
X027616Y030712D01*
X027616Y030731D02*
X028196Y030731D01*
X028196Y030749D02*
X027616Y030749D01*
X027616Y030768D02*
X028196Y030768D01*
X028196Y030786D02*
X027616Y030786D01*
X027616Y030805D02*
X028196Y030805D01*
X028196Y030823D02*
X027616Y030823D01*
X027616Y030842D02*
X027889Y030842D01*
X027870Y030860D02*
X027616Y030860D01*
X027616Y030879D02*
X027851Y030879D01*
X027831Y030897D02*
X027616Y030897D01*
X027616Y030916D02*
X027812Y030916D01*
X027793Y030934D02*
X027616Y030934D01*
X027616Y030953D02*
X027774Y030953D01*
X027755Y030971D02*
X027616Y030971D01*
X027616Y030990D02*
X027736Y030990D01*
X027716Y031008D02*
X027616Y031008D01*
X027616Y031027D02*
X027697Y031027D01*
X027678Y031045D02*
X027616Y031045D01*
X027616Y031064D02*
X027659Y031064D01*
X027640Y031082D02*
X027616Y031082D01*
X027616Y031101D02*
X027621Y031101D01*
X027703Y031193D02*
X028109Y031193D01*
X028090Y031175D02*
X027722Y031175D01*
X027740Y031156D02*
X028072Y031156D01*
X028053Y031138D02*
X027759Y031138D01*
X027777Y031119D02*
X028035Y031119D01*
X028016Y031101D02*
X027796Y031101D01*
X027814Y031082D02*
X027998Y031082D01*
X027979Y031064D02*
X027833Y031064D01*
X027851Y031045D02*
X027961Y031045D01*
X027942Y031027D02*
X027870Y031027D01*
X027888Y031008D02*
X027924Y031008D01*
X027906Y030991D02*
X027616Y031281D01*
X027616Y031506D01*
X028196Y031506D01*
X028196Y031281D01*
X027906Y030991D01*
X027980Y030897D02*
X028196Y030897D01*
X028196Y030879D02*
X027961Y030879D01*
X027942Y030860D02*
X028196Y030860D01*
X028196Y030842D02*
X027923Y030842D01*
X028000Y030916D02*
X028196Y030916D01*
X028196Y030934D02*
X028019Y030934D01*
X028038Y030953D02*
X028196Y030953D01*
X028196Y030971D02*
X028057Y030971D01*
X028076Y030990D02*
X028196Y030990D01*
X028196Y031008D02*
X028095Y031008D01*
X028114Y031027D02*
X028196Y031027D01*
X028196Y031045D02*
X028134Y031045D01*
X028153Y031064D02*
X028196Y031064D01*
X028196Y031082D02*
X028172Y031082D01*
X028191Y031101D02*
X028196Y031101D01*
X028127Y031212D02*
X027685Y031212D01*
X027666Y031230D02*
X028146Y031230D01*
X028164Y031249D02*
X027648Y031249D01*
X027629Y031267D02*
X028183Y031267D01*
X028196Y031286D02*
X027616Y031286D01*
X027616Y031304D02*
X028196Y031304D01*
X028196Y031323D02*
X027616Y031323D01*
X027616Y031341D02*
X028196Y031341D01*
X028196Y031360D02*
X027616Y031360D01*
X027616Y031378D02*
X028196Y031378D01*
X028196Y031397D02*
X027616Y031397D01*
X027616Y031415D02*
X028196Y031415D01*
X028196Y031434D02*
X027616Y031434D01*
X027616Y031452D02*
X028196Y031452D01*
X028196Y031471D02*
X027616Y031471D01*
X027616Y031489D02*
X028196Y031489D01*
X031553Y038283D02*
X032133Y038283D01*
X032133Y038783D01*
X031843Y038503D01*
X031553Y038783D01*
X031553Y038283D01*
X031553Y038298D02*
X032133Y038298D01*
X032133Y038316D02*
X031553Y038316D01*
X031553Y038335D02*
X032133Y038335D01*
X032133Y038353D02*
X031553Y038353D01*
X031553Y038372D02*
X032133Y038372D01*
X032133Y038390D02*
X031553Y038390D01*
X031553Y038409D02*
X032133Y038409D01*
X032133Y038427D02*
X031553Y038427D01*
X031553Y038446D02*
X032133Y038446D01*
X032133Y038464D02*
X031553Y038464D01*
X031553Y038483D02*
X032133Y038483D01*
X032133Y038501D02*
X031553Y038501D01*
X031553Y038520D02*
X031825Y038520D01*
X031806Y038538D02*
X031553Y038538D01*
X031553Y038557D02*
X031787Y038557D01*
X031768Y038575D02*
X031553Y038575D01*
X031553Y038594D02*
X031749Y038594D01*
X031730Y038612D02*
X031553Y038612D01*
X031553Y038631D02*
X031711Y038631D01*
X031691Y038649D02*
X031553Y038649D01*
X031553Y038668D02*
X031672Y038668D01*
X031653Y038686D02*
X031553Y038686D01*
X031553Y038705D02*
X031634Y038705D01*
X031615Y038723D02*
X031553Y038723D01*
X031553Y038742D02*
X031596Y038742D01*
X031576Y038760D02*
X031553Y038760D01*
X031553Y038779D02*
X031557Y038779D01*
X031640Y038871D02*
X032046Y038871D01*
X032028Y038853D02*
X031658Y038853D01*
X031677Y038834D02*
X032009Y038834D01*
X031991Y038816D02*
X031695Y038816D01*
X031714Y038797D02*
X031972Y038797D01*
X031954Y038779D02*
X031732Y038779D01*
X031751Y038760D02*
X031935Y038760D01*
X031917Y038742D02*
X031769Y038742D01*
X031788Y038723D02*
X031898Y038723D01*
X031880Y038705D02*
X031806Y038705D01*
X031825Y038686D02*
X031861Y038686D01*
X031843Y038668D02*
X031553Y038958D01*
X031553Y039183D01*
X032133Y039183D01*
X032133Y038958D01*
X031843Y038668D01*
X031918Y038575D02*
X032133Y038575D01*
X032133Y038557D02*
X031899Y038557D01*
X031880Y038538D02*
X032133Y038538D01*
X032133Y038520D02*
X031860Y038520D01*
X031937Y038594D02*
X032133Y038594D01*
X032133Y038612D02*
X031956Y038612D01*
X031975Y038631D02*
X032133Y038631D01*
X032133Y038649D02*
X031994Y038649D01*
X032014Y038668D02*
X032133Y038668D01*
X032133Y038686D02*
X032033Y038686D01*
X032052Y038705D02*
X032133Y038705D01*
X032133Y038723D02*
X032071Y038723D01*
X032090Y038742D02*
X032133Y038742D01*
X032133Y038760D02*
X032109Y038760D01*
X032129Y038779D02*
X032133Y038779D01*
X032065Y038890D02*
X031621Y038890D01*
X031603Y038908D02*
X032083Y038908D01*
X032102Y038927D02*
X031584Y038927D01*
X031566Y038945D02*
X032120Y038945D01*
X032133Y038964D02*
X031553Y038964D01*
X031553Y038982D02*
X032133Y038982D01*
X032133Y039001D02*
X031553Y039001D01*
X031553Y039019D02*
X032133Y039019D01*
X032133Y039038D02*
X031553Y039038D01*
X031553Y039056D02*
X032133Y039056D01*
X032133Y039075D02*
X031553Y039075D01*
X031553Y039093D02*
X032133Y039093D01*
X032133Y039112D02*
X031553Y039112D01*
X031553Y039130D02*
X032133Y039130D01*
X032133Y039149D02*
X031553Y039149D01*
X031553Y039167D02*
X032133Y039167D01*
D30*
X024264Y051228D03*
X024264Y051828D03*
D31*
X024264Y051528D03*
D32*
X048477Y012237D03*
X048477Y010859D03*
D33*
X030524Y033103D03*
X026587Y024441D03*
X026587Y015780D03*
X026587Y007119D03*
X010760Y007119D03*
X010760Y015780D03*
X010760Y024441D03*
X014697Y033103D03*
D34*
X010760Y031449D03*
X010760Y022788D03*
X010760Y014126D03*
X014697Y040111D03*
D35*
X026587Y031449D03*
X026587Y022788D03*
X026587Y014126D03*
X030524Y040111D03*
D36*
X024363Y039619D03*
X019933Y039619D03*
X014619Y043654D03*
X010485Y041981D03*
X007335Y038044D03*
X010091Y035189D03*
X019343Y047788D03*
X029874Y050150D03*
D37*
X044330Y013156D02*
X044930Y013156D01*
X044930Y012256D02*
X044330Y012256D01*
X044330Y011356D02*
X044930Y011356D01*
D38*
X041496Y011504D02*
X041496Y012024D01*
X040496Y012024D02*
X040496Y011504D01*
D39*
X046115Y010355D03*
X046115Y014355D03*
X016587Y005989D03*
X016587Y001989D03*
X031615Y057729D03*
X035615Y057729D03*
D40*
X018300Y006036D03*
X017433Y005662D03*
X018300Y005288D03*
D41*
X021418Y043926D03*
X022780Y046926D03*
X024764Y043926D03*
X026126Y046926D03*
X028111Y043926D03*
X029473Y046926D03*
D42*
X026331Y055895D03*
X048485Y051217D03*
D43*
X029481Y056340D03*
D44*
X029481Y057740D03*
D45*
X027784Y054302D02*
X027844Y054242D01*
X027646Y054242D01*
X027506Y054382D01*
X027506Y054580D01*
X027646Y054720D01*
X027844Y054720D01*
X027984Y054580D01*
X027984Y054382D01*
X027844Y054242D01*
X027807Y054332D01*
X027683Y054332D01*
X027596Y054419D01*
X027596Y054543D01*
X027683Y054630D01*
X027807Y054630D01*
X027894Y054543D01*
X027894Y054419D01*
X027807Y054332D01*
X027770Y054422D01*
X027720Y054422D01*
X027686Y054456D01*
X027686Y054506D01*
X027720Y054540D01*
X027770Y054540D01*
X027804Y054506D01*
X027804Y054456D01*
X027770Y054422D01*
X026370Y052887D02*
X026430Y052827D01*
X026232Y052827D01*
X026092Y052967D01*
X026092Y053165D01*
X026232Y053305D01*
X026430Y053305D01*
X026570Y053165D01*
X026570Y052967D01*
X026430Y052827D01*
X026393Y052917D01*
X026269Y052917D01*
X026182Y053004D01*
X026182Y053128D01*
X026269Y053215D01*
X026393Y053215D01*
X026480Y053128D01*
X026480Y053004D01*
X026393Y052917D01*
X026356Y053007D01*
X026306Y053007D01*
X026272Y053041D01*
X026272Y053091D01*
X026306Y053125D01*
X026356Y053125D01*
X026390Y053091D01*
X026390Y053041D01*
X026356Y053007D01*
X024956Y054302D02*
X025016Y054242D01*
X024818Y054242D01*
X024678Y054382D01*
X024678Y054580D01*
X024818Y054720D01*
X025016Y054720D01*
X025156Y054580D01*
X025156Y054382D01*
X025016Y054242D01*
X024979Y054332D01*
X024855Y054332D01*
X024768Y054419D01*
X024768Y054543D01*
X024855Y054630D01*
X024979Y054630D01*
X025066Y054543D01*
X025066Y054419D01*
X024979Y054332D01*
X024942Y054422D01*
X024892Y054422D01*
X024858Y054456D01*
X024858Y054506D01*
X024892Y054540D01*
X024942Y054540D01*
X024976Y054506D01*
X024976Y054456D01*
X024942Y054422D01*
D46*
X031641Y056351D03*
X032241Y056351D03*
D47*
X032237Y056346D01*
X032237Y055859D01*
X031154Y054776D01*
X029579Y054776D01*
X026626Y051823D01*
X024269Y051823D01*
X024264Y051828D01*
X024264Y051228D02*
X026917Y051228D01*
X027807Y052119D01*
X030071Y052119D01*
X031548Y050642D01*
X033437Y050642D01*
X033469Y050674D01*
X035221Y050674D01*
X037221Y052674D01*
X039469Y052674D01*
X033469Y053674D02*
X033469Y053937D01*
X032886Y054520D01*
X032335Y054520D01*
X032335Y053851D02*
X032335Y052945D01*
X032335Y052276D02*
X032335Y051626D01*
X033288Y050674D01*
X033469Y050674D01*
X032433Y056351D02*
X032241Y056351D01*
X031641Y056351D02*
X031449Y056351D01*
X034894Y017709D02*
X040406Y017709D01*
D48*
X040800Y017709D01*
X040859Y017768D01*
X041528Y017768D02*
X041528Y017119D01*
X040996Y016587D01*
X030367Y016587D01*
X029874Y016095D01*
X029874Y011174D01*
X028595Y009894D01*
X022394Y009894D01*
X021607Y009107D01*
X021607Y005760D01*
X021115Y005268D01*
X019973Y005268D01*
X019304Y005268D02*
X019304Y004835D01*
X019048Y004579D01*
X017670Y004579D01*
X017433Y004815D01*
X017433Y005662D01*
X017107Y005989D01*
X016587Y005989D01*
X017374Y007138D02*
X010780Y007138D01*
X010760Y007119D01*
X012158Y004683D02*
X012164Y004678D01*
X013181Y003733D02*
X015209Y003733D01*
X015209Y003063D02*
X015512Y003063D01*
X016587Y001989D01*
X017670Y002020D02*
X018063Y002020D01*
X018457Y002020D01*
X018457Y002414D01*
X018457Y002807D02*
X018063Y002807D01*
X017670Y002807D01*
X017670Y002414D01*
X017670Y002020D01*
X018260Y006252D02*
X017374Y007138D01*
X019973Y006056D02*
X019973Y009048D01*
X021705Y010780D01*
X028201Y010780D01*
X028989Y011567D01*
X028989Y016489D01*
X029874Y017374D01*
X029874Y026233D01*
X030367Y026725D01*
X041882Y026725D01*
X046914Y021693D01*
X047792Y021693D01*
X047792Y017693D02*
X047792Y016693D01*
X047750Y016735D01*
X047148Y016735D01*
X046115Y017768D01*
X041528Y017768D01*
X039126Y019343D02*
X034894Y023575D01*
X034894Y025583D01*
X037847Y030367D02*
X027906Y030367D01*
X019835Y030367D01*
X015701Y026233D01*
X010681Y026233D01*
X008713Y024264D01*
X008713Y019835D01*
X012453Y016095D01*
X012453Y013536D01*
X011863Y012945D01*
X008418Y012945D01*
X006685Y011213D01*
X005859Y011213D01*
X005859Y010544D02*
X005411Y010544D01*
X004682Y011273D01*
X005859Y010544D02*
X007493Y010544D01*
X009008Y012059D01*
X016784Y012059D01*
X017178Y012453D01*
X017325Y012601D01*
X018851Y014126D01*
X022689Y014126D01*
X028989Y020426D01*
X028989Y028300D01*
X029776Y029087D01*
X039520Y029087D01*
X042126Y031693D01*
X047792Y031693D01*
X038437Y035583D02*
X037748Y035583D01*
X033615Y035583D02*
X032630Y036567D01*
X021311Y036567D01*
X014126Y029382D01*
X008418Y029382D01*
X006390Y027355D01*
X006390Y027315D01*
X006390Y026528D01*
X005721Y026528D02*
X005125Y025932D01*
X003792Y025932D01*
X003792Y023975D02*
X005125Y023975D01*
X005721Y023378D01*
X005721Y022591D02*
X005125Y021995D01*
X003792Y021995D01*
X003792Y020038D02*
X005125Y020038D01*
X005721Y019441D01*
X005721Y018654D02*
X005125Y018058D01*
X003792Y018058D01*
X003792Y016101D02*
X005125Y016101D01*
X005721Y015504D01*
X006390Y015504D02*
X006390Y014717D01*
X005721Y014717D02*
X005125Y014121D01*
X003792Y014121D01*
X006390Y015504D02*
X006390Y017414D01*
X007926Y018949D01*
X007926Y024559D01*
X010386Y027020D01*
X015307Y027020D01*
X022493Y034205D01*
X031449Y034205D01*
X032433Y033221D01*
X032827Y034008D02*
X031843Y034993D01*
X022099Y034993D01*
X014914Y027807D01*
X010091Y027807D01*
X007138Y024855D01*
X007138Y020229D01*
X006390Y019481D01*
X006390Y019441D01*
X006390Y018654D01*
X006390Y022591D02*
X006390Y023378D01*
X006390Y025189D01*
X009796Y028595D01*
X014520Y028595D01*
X021705Y035780D01*
X032237Y035780D01*
X033221Y034796D01*
X032532Y031843D02*
X032532Y031056D01*
X027906Y031456D02*
X027814Y031548D01*
X026725Y031548D01*
X026626Y031449D01*
X026587Y031449D01*
X026233Y037355D02*
X030071Y041193D01*
X031056Y041193D01*
X032335Y039914D01*
X035386Y039914D01*
X036961Y041489D01*
X036961Y042666D01*
X036969Y042674D01*
X035977Y042666D02*
X035977Y041685D01*
X034993Y040701D01*
X032827Y040701D01*
X031548Y041981D01*
X024264Y041981D01*
X023772Y041489D01*
X023674Y041390D01*
X023181Y042079D02*
X023870Y042768D01*
X031941Y042768D01*
X033221Y041489D01*
X034500Y041489D01*
X034969Y041957D01*
X034969Y042674D01*
X035969Y042674D02*
X035977Y042666D01*
X031843Y039133D02*
X030865Y040111D01*
X030524Y040111D01*
X026233Y037355D02*
X020918Y037355D01*
X013733Y030170D01*
X006646Y030170D01*
X006390Y030426D01*
X006390Y030465D01*
X006390Y031252D01*
X005721Y031252D02*
X005125Y031849D01*
X003792Y031849D01*
X003792Y033806D02*
X005125Y033806D01*
X005721Y034402D01*
X006390Y034402D02*
X006390Y035189D01*
X006390Y035229D01*
X005721Y035189D02*
X005125Y035786D01*
X003792Y035786D01*
X003792Y037743D02*
X005721Y039672D01*
X005721Y040307D01*
X006390Y040307D02*
X006390Y041095D01*
X005721Y041095D02*
X005170Y041095D01*
X003797Y039723D01*
X003792Y039723D01*
X005721Y030465D02*
X005125Y029869D01*
X003792Y029869D01*
X003792Y027912D02*
X005125Y027912D01*
X005721Y027315D01*
X018026Y047840D02*
X019290Y047840D01*
X019343Y047788D01*
X039469Y050674D02*
X040276Y050674D01*
X042768Y048181D01*
X027906Y022794D02*
X026593Y022794D01*
X026587Y022788D01*
X027906Y021804D02*
X027906Y020819D01*
X027414Y020918D01*
X027906Y014133D02*
X027900Y014126D01*
X026587Y014126D01*
X027906Y013044D02*
X027906Y012256D01*
X027414Y012256D01*
X037906Y012099D02*
X039422Y010583D01*
X041981Y010583D01*
X042178Y010386D01*
X046083Y010386D01*
X046115Y010355D01*
X044630Y011356D02*
X044616Y011370D01*
X043752Y011370D01*
X043162Y011961D01*
X043162Y013300D01*
X037906Y012847D02*
X037906Y012099D01*
X049953Y009107D02*
X050248Y009107D01*
X013181Y003733D02*
X012788Y003339D01*
X012784Y003339D01*
X012158Y002713D01*
D49*
X018300Y005288D02*
X018378Y005288D01*
X019146Y006056D01*
X019304Y006056D01*
X018300Y006036D02*
X018300Y006213D01*
X018260Y006252D01*
X027906Y013044D02*
X027906Y013333D01*
X027906Y021804D02*
X027906Y021994D01*
X037256Y015504D02*
X037256Y014028D01*
X037453Y013831D01*
X037906Y013831D01*
X037906Y012847D01*
X038575Y012847D02*
X038575Y012807D01*
X039028Y012355D01*
X039906Y012355D01*
X040496Y011764D01*
X041496Y011764D02*
X041496Y012150D01*
X040762Y012884D01*
X040701Y012884D01*
X040701Y015209D01*
X040504Y015406D01*
X038142Y015406D01*
X037906Y015170D01*
X037906Y014815D01*
X038575Y014815D02*
X038575Y013831D01*
X038628Y013884D01*
X039874Y013884D01*
X039874Y013384D02*
X039073Y013384D01*
X038575Y012886D01*
X038575Y012847D01*
X039874Y012884D02*
X040701Y012884D01*
X041435Y013884D02*
X041095Y014225D01*
X041095Y015406D01*
X040701Y015800D01*
X037552Y015800D01*
X037256Y015504D01*
X040367Y017748D02*
X040406Y017709D01*
X040367Y017748D02*
X040367Y018593D01*
X040367Y019093D02*
X039376Y019093D01*
X039126Y019343D01*
X039619Y019835D02*
X039861Y019593D01*
X040367Y019593D01*
X040367Y020093D02*
X041156Y020093D01*
X041882Y020819D01*
X041882Y021008D01*
X041890Y021016D01*
X041845Y020093D02*
X041528Y019776D01*
X041528Y017768D01*
X041845Y020093D02*
X042414Y020093D01*
X040890Y021016D02*
X039815Y021016D01*
X039619Y020819D01*
X039619Y019835D01*
X041435Y013884D02*
X041922Y013884D01*
X041922Y013384D02*
X042321Y013384D01*
X042906Y013969D01*
X043162Y013969D01*
X035485Y033221D02*
X032433Y033221D01*
X032827Y034008D02*
X035386Y034008D01*
X036113Y034735D01*
X036113Y035554D01*
X035613Y035554D02*
X035613Y035022D01*
X035386Y034796D01*
X033221Y034796D01*
X033643Y035554D02*
X033615Y035583D01*
X033643Y035554D02*
X035113Y035554D01*
X037113Y035554D02*
X037113Y034849D01*
X035485Y033221D01*
X037613Y035554D02*
X037720Y035554D01*
X037748Y035583D01*
X038113Y035554D02*
X038613Y035554D01*
X038437Y035583D02*
X038141Y035583D01*
X038113Y035554D01*
X035113Y037967D02*
X035091Y037945D01*
X035113Y037967D02*
X035113Y037974D01*
X018949Y043851D02*
X018949Y044441D01*
X018806Y044585D01*
X018208Y044585D01*
X018208Y044085D02*
X017435Y044085D01*
X017313Y044085D01*
X016981Y043752D01*
X016981Y043359D01*
X017768Y043359D02*
X018457Y043359D01*
X018949Y043851D01*
X018654Y045081D02*
X018650Y045085D01*
X018208Y045085D01*
X018208Y045585D02*
X018457Y045835D01*
X018457Y046213D01*
X017670Y046213D02*
X017374Y045918D01*
X017374Y044146D01*
X017435Y044085D01*
X016148Y044085D02*
X016148Y044343D01*
X016148Y044585D01*
X016148Y045085D02*
X016148Y045327D01*
X016148Y045585D01*
X017571Y046115D02*
X017670Y046213D01*
X017428Y047840D02*
X017928Y047840D01*
X016928Y047840D02*
X016428Y047840D01*
X016193Y049067D02*
X017965Y049067D01*
X017928Y049105D01*
X017928Y049900D01*
X017428Y049900D02*
X017428Y050498D01*
X017571Y050642D01*
X018457Y050642D01*
X018556Y050544D01*
X018556Y050150D01*
X018556Y049363D02*
X018260Y049067D01*
X017965Y049067D01*
X016928Y049900D02*
X016928Y050638D01*
X016931Y050642D01*
X016428Y049900D02*
X016178Y050150D01*
X015800Y050150D01*
X015800Y049363D02*
X015898Y049363D01*
X016193Y049067D01*
D50*
X015111Y049363D02*
X015111Y049855D01*
X015406Y050150D01*
X015800Y050150D01*
X018556Y049363D02*
X018949Y049363D01*
X020622Y051036D01*
X022985Y051036D01*
X023772Y051823D01*
X024259Y051823D01*
X024264Y051828D01*
X031351Y051922D02*
X031351Y053496D01*
X031744Y053890D01*
X032296Y053890D01*
X032335Y053851D01*
X032335Y052945D02*
X032296Y052906D01*
X039469Y045674D02*
X039666Y045674D01*
X041587Y043752D01*
X041587Y041882D01*
X038613Y038908D01*
X038613Y037974D01*
X038113Y037974D02*
X038113Y039195D01*
X040996Y042079D01*
X040996Y043359D01*
X039681Y044674D01*
X039469Y044674D01*
X039469Y043674D02*
X039697Y043674D01*
X040406Y042965D01*
X040406Y042276D01*
X037613Y039483D01*
X037613Y037974D01*
X037113Y037974D02*
X037113Y037014D01*
X036613Y036514D01*
X036613Y035554D01*
X037613Y035554D02*
X037613Y034463D01*
X035583Y032433D01*
X030957Y032433D01*
X030524Y032867D01*
X030524Y033103D01*
X027906Y030656D02*
X027906Y030367D01*
X031843Y037552D02*
X031843Y037945D01*
X035091Y037945D01*
X035613Y037974D02*
X035613Y037325D01*
X035878Y037059D01*
X036370Y037059D01*
X036613Y037302D01*
X036613Y037974D01*
X036113Y037974D02*
X036113Y039361D01*
X037945Y041193D01*
X037945Y042650D01*
X037969Y042674D01*
X031843Y038339D02*
X031843Y038333D01*
X031843Y037945D01*
X023674Y041390D02*
X013733Y041390D01*
X007571Y035229D01*
X006390Y035229D01*
X006390Y040307D02*
X011469Y040307D01*
X013241Y042079D01*
X023181Y042079D01*
X010583Y021311D02*
X010189Y021311D01*
X010189Y020918D01*
X010189Y020524D01*
X010583Y020524D01*
X010583Y020918D01*
X010583Y021311D01*
X010189Y021311D02*
X009796Y021311D01*
X009796Y020918D01*
X009796Y020524D01*
X009697Y011075D02*
X009304Y011075D01*
X009304Y010681D01*
X009304Y010288D01*
X009697Y010288D01*
X009697Y010681D01*
X009697Y010288D02*
X010091Y010288D01*
X010091Y010681D02*
X010091Y011075D01*
X009697Y011075D01*
X042414Y018593D02*
X046815Y018593D01*
X047222Y018186D01*
X047119Y019093D02*
X047222Y019195D01*
X047119Y019093D02*
X042414Y019093D01*
X048280Y019195D02*
X048782Y018693D01*
X048792Y018693D01*
X048305Y018186D02*
X048792Y017699D01*
X048792Y017693D01*
D51*
X040992Y007237D02*
X040996Y007232D01*
X040996Y006056D01*
X040209Y005268D01*
X033122Y005268D01*
X033117Y005274D01*
X033117Y007237D01*
X031150Y007237D02*
X031150Y005272D01*
X031154Y005268D01*
X033122Y005268D01*
X031154Y005268D02*
X027315Y005268D01*
X026587Y005996D01*
X026587Y007119D01*
X027414Y012256D02*
X019737Y012256D01*
X018162Y010681D01*
X010091Y010681D01*
X009697Y010681D01*
X010583Y020918D02*
X027414Y020918D01*
X014717Y035977D02*
X014717Y040091D01*
X014697Y040111D01*
X014619Y043654D02*
X014520Y043752D01*
X014520Y043949D01*
X012847Y045622D01*
X011276Y045622D01*
X011276Y042772D01*
X010485Y041981D01*
X011276Y045622D02*
X011272Y045627D01*
X014520Y043949D02*
X015701Y043949D01*
X016095Y045721D02*
X016095Y047742D01*
X016193Y047840D01*
X014960Y047840D01*
X012453Y050347D01*
X011276Y050347D01*
X011272Y050351D01*
X016193Y047840D02*
X016239Y047840D01*
X018026Y047840D02*
X022788Y047840D01*
X022780Y047833D01*
X022780Y046926D01*
X022788Y047840D02*
X026134Y047840D01*
X026126Y047833D01*
X026126Y046926D01*
X026134Y047840D02*
X029420Y047840D01*
X029473Y047788D01*
X029473Y049748D01*
X029874Y050150D01*
X029473Y047788D02*
X029473Y046926D01*
X014717Y035977D02*
X010760Y032020D01*
X010760Y031449D01*
D52*
X015701Y043949D02*
X016148Y044343D01*
X016148Y045327D02*
X015996Y045327D01*
X016148Y045585D02*
X016148Y045668D01*
X016095Y045721D01*
X029481Y056340D02*
X029492Y056351D01*
X031449Y056351D01*
X032433Y056351D02*
X034237Y056351D01*
X035615Y057729D01*
X044737Y051626D02*
X044737Y036863D01*
X044737Y051626D02*
X046327Y053217D01*
X047485Y053217D01*
X048792Y020693D02*
X049685Y020693D01*
X050248Y020130D01*
X050248Y009107D01*
X050248Y001528D01*
X049559Y000839D01*
X011075Y000839D01*
X010386Y001528D01*
X010386Y003792D01*
X011272Y004678D01*
X012152Y004678D01*
X012158Y004683D01*
D53*
X018063Y002414D02*
X018457Y002414D01*
X048083Y002414D01*
X048866Y003197D01*
X048866Y007237D01*
X049953Y009107D02*
X041685Y009107D01*
X040992Y008413D01*
X040992Y007237D01*
X026587Y024441D02*
X010760Y024441D01*
X016239Y047840D02*
X016428Y047840D01*
X017928Y047840D02*
X018026Y047840D01*
X032138Y031449D02*
X037059Y031449D01*
X042768Y037158D01*
X042768Y048181D01*
D54*
X044737Y037650D03*
X044737Y037256D03*
X044737Y036863D03*
X037847Y030367D03*
X032926Y031449D03*
X032532Y031449D03*
X032532Y031056D03*
X032138Y031449D03*
X032532Y031843D03*
X031843Y037552D03*
X031843Y037945D03*
X031843Y038339D03*
X031351Y051922D03*
X018556Y049363D03*
X016931Y050642D03*
X015111Y049363D03*
X017670Y046213D03*
X018457Y046213D03*
X018654Y045081D03*
X010583Y021311D03*
X010583Y020918D03*
X010189Y020918D03*
X009796Y020918D03*
X009796Y021311D03*
X010189Y021311D03*
X010189Y020524D03*
X009796Y020524D03*
X010583Y020524D03*
X010091Y011075D03*
X010091Y010681D03*
X010091Y010288D03*
X009697Y010288D03*
X009304Y010288D03*
X009304Y010681D03*
X009697Y010681D03*
X009697Y011075D03*
X009304Y011075D03*
X017670Y002807D03*
X017670Y002414D03*
X018063Y002414D03*
X018063Y002807D03*
X018457Y002807D03*
X018457Y002414D03*
X018457Y002020D03*
X018063Y002020D03*
X017670Y002020D03*
D55*
X047222Y018186D02*
X048305Y018186D01*
X048280Y019195D02*
X047222Y019195D01*
X030268Y045426D02*
X030016Y045426D01*
X030016Y045587D01*
X029932Y045898D01*
X029771Y046177D01*
X029703Y046246D01*
X029754Y046246D01*
X030153Y046644D01*
X030153Y046881D01*
X029518Y046881D01*
X029518Y046971D01*
X029428Y046971D01*
X029428Y047606D01*
X029191Y047606D01*
X028793Y047207D01*
X028793Y046971D01*
X029428Y046971D01*
X029428Y046881D01*
X028793Y046881D01*
X028793Y046650D01*
X028631Y046650D01*
X028319Y046566D01*
X028040Y046405D01*
X027812Y046177D01*
X027651Y045898D01*
X027568Y045587D01*
X027568Y045426D01*
X026669Y045426D01*
X026669Y045587D01*
X026586Y045898D01*
X026425Y046177D01*
X026356Y046246D01*
X026408Y046246D01*
X026806Y046644D01*
X026806Y046881D01*
X026171Y046881D01*
X026171Y046971D01*
X026081Y046971D01*
X026081Y047606D01*
X025845Y047606D01*
X025446Y047207D01*
X025446Y046971D01*
X026081Y046971D01*
X026081Y046881D01*
X025446Y046881D01*
X025446Y046650D01*
X025284Y046650D01*
X024973Y046566D01*
X024694Y046405D01*
X024466Y046177D01*
X024305Y045898D01*
X024221Y045587D01*
X024221Y045426D01*
X023323Y045426D01*
X023323Y045587D01*
X023239Y045898D01*
X023078Y046177D01*
X023010Y046246D01*
X023062Y046246D01*
X023460Y046644D01*
X023460Y046881D01*
X022825Y046881D01*
X022825Y046971D01*
X022735Y046971D01*
X022735Y047606D01*
X022498Y047606D01*
X022100Y047207D01*
X022100Y046971D01*
X022735Y046971D01*
X022735Y046881D01*
X022100Y046881D01*
X022100Y046650D01*
X021938Y046650D01*
X021626Y046566D01*
X021347Y046405D01*
X021119Y046177D01*
X020958Y045898D01*
X020875Y045587D01*
X020875Y045426D01*
X020622Y045426D01*
X020622Y050131D01*
X020839Y050347D01*
X028694Y050347D01*
X028694Y050230D01*
X029794Y050230D01*
X029794Y050070D01*
X028694Y050070D01*
X028694Y049661D01*
X029386Y048970D01*
X029794Y048970D01*
X029794Y050070D01*
X029954Y050070D01*
X029954Y048970D01*
X030268Y048970D01*
X030268Y045426D01*
X030268Y045481D02*
X030016Y045481D01*
X030002Y045640D02*
X030268Y045640D01*
X030268Y045798D02*
X029959Y045798D01*
X029899Y045957D02*
X030268Y045957D01*
X030268Y046115D02*
X029807Y046115D01*
X029782Y046274D02*
X030268Y046274D01*
X030268Y046432D02*
X029941Y046432D01*
X030099Y046591D02*
X030268Y046591D01*
X030268Y046749D02*
X030153Y046749D01*
X030268Y046908D02*
X029518Y046908D01*
X029518Y046971D02*
X030153Y046971D01*
X030153Y047207D01*
X029754Y047606D01*
X029518Y047606D01*
X029518Y046971D01*
X029518Y047066D02*
X029428Y047066D01*
X029428Y046908D02*
X026171Y046908D01*
X026171Y046971D02*
X026806Y046971D01*
X026806Y047207D01*
X026408Y047606D01*
X026171Y047606D01*
X026171Y046971D01*
X026171Y047066D02*
X026081Y047066D01*
X026081Y046908D02*
X022825Y046908D01*
X022825Y046971D02*
X023460Y046971D01*
X023460Y047207D01*
X023062Y047606D01*
X022825Y047606D01*
X022825Y046971D01*
X022825Y047066D02*
X022735Y047066D01*
X022735Y046908D02*
X020622Y046908D01*
X020622Y047066D02*
X022100Y047066D01*
X022117Y047225D02*
X020622Y047225D01*
X020622Y047383D02*
X022276Y047383D01*
X022434Y047542D02*
X020622Y047542D01*
X020622Y047700D02*
X030268Y047700D01*
X030268Y047542D02*
X029819Y047542D01*
X029977Y047383D02*
X030268Y047383D01*
X030268Y047225D02*
X030136Y047225D01*
X030153Y047066D02*
X030268Y047066D01*
X030268Y047859D02*
X020622Y047859D01*
X020622Y048017D02*
X030268Y048017D01*
X030268Y048176D02*
X020622Y048176D01*
X020622Y048334D02*
X030268Y048334D01*
X030268Y048493D02*
X020622Y048493D01*
X020622Y048651D02*
X030268Y048651D01*
X030268Y048810D02*
X020622Y048810D01*
X020622Y048968D02*
X030268Y048968D01*
X029954Y049127D02*
X029794Y049127D01*
X029794Y049285D02*
X029954Y049285D01*
X029954Y049444D02*
X029794Y049444D01*
X029794Y049602D02*
X029954Y049602D01*
X029954Y049761D02*
X029794Y049761D01*
X029794Y049919D02*
X029954Y049919D01*
X029794Y050078D02*
X020622Y050078D01*
X020622Y049919D02*
X028694Y049919D01*
X028694Y049761D02*
X020622Y049761D01*
X020622Y049602D02*
X028754Y049602D01*
X028912Y049444D02*
X020622Y049444D01*
X020622Y049285D02*
X029071Y049285D01*
X029229Y049127D02*
X020622Y049127D01*
X020728Y050236D02*
X028694Y050236D01*
X029127Y047542D02*
X026472Y047542D01*
X026631Y047383D02*
X028969Y047383D01*
X028810Y047225D02*
X026789Y047225D01*
X026806Y047066D02*
X028793Y047066D01*
X028793Y046749D02*
X026806Y046749D01*
X026753Y046591D02*
X028410Y046591D01*
X028087Y046432D02*
X026595Y046432D01*
X026436Y046274D02*
X027909Y046274D01*
X027776Y046115D02*
X026461Y046115D01*
X026552Y045957D02*
X027685Y045957D01*
X027624Y045798D02*
X026613Y045798D01*
X026655Y045640D02*
X027582Y045640D01*
X027568Y045481D02*
X026669Y045481D01*
X025446Y046749D02*
X023460Y046749D01*
X023407Y046591D02*
X025064Y046591D01*
X024740Y046432D02*
X023248Y046432D01*
X023090Y046274D02*
X024562Y046274D01*
X024430Y046115D02*
X023114Y046115D01*
X023206Y045957D02*
X024338Y045957D01*
X024278Y045798D02*
X023266Y045798D01*
X023309Y045640D02*
X024235Y045640D01*
X024221Y045481D02*
X023323Y045481D01*
X023460Y047066D02*
X025446Y047066D01*
X025464Y047225D02*
X023443Y047225D01*
X023284Y047383D02*
X025622Y047383D01*
X025781Y047542D02*
X023126Y047542D01*
X022825Y047542D02*
X022735Y047542D01*
X022735Y047383D02*
X022825Y047383D01*
X022825Y047225D02*
X022735Y047225D01*
X022100Y046749D02*
X020622Y046749D01*
X020622Y046591D02*
X021717Y046591D01*
X021394Y046432D02*
X020622Y046432D01*
X020622Y046274D02*
X021216Y046274D01*
X021083Y046115D02*
X020622Y046115D01*
X020622Y045957D02*
X020992Y045957D01*
X020931Y045798D02*
X020622Y045798D01*
X020622Y045640D02*
X020889Y045640D01*
X020875Y045481D02*
X020622Y045481D01*
X017166Y046945D02*
X017142Y046935D01*
X017007Y046800D01*
X016934Y046623D01*
X016934Y046326D01*
X016866Y046258D01*
X016774Y046037D01*
X016774Y045145D01*
X016763Y045150D01*
X016763Y045229D01*
X016750Y045275D01*
X016727Y045316D01*
X016707Y045335D01*
X016727Y045355D01*
X016750Y045396D01*
X016763Y045441D01*
X016763Y045585D01*
X016148Y045585D01*
X016148Y045585D01*
X016763Y045585D01*
X016763Y045729D01*
X016750Y045775D01*
X016727Y045816D01*
X016693Y045849D01*
X016652Y045873D01*
X016606Y045885D01*
X016148Y045885D01*
X016148Y045585D01*
X016148Y045263D01*
X016148Y045263D01*
X016148Y045585D01*
X016148Y045585D01*
X016148Y045585D01*
X016148Y045885D01*
X015689Y045885D01*
X015643Y045873D01*
X015602Y045849D01*
X015569Y045816D01*
X015562Y045804D01*
X012453Y048674D01*
X008602Y048674D01*
X008602Y051331D01*
X013437Y051331D01*
X014563Y050205D01*
X014471Y049982D01*
X014471Y049537D01*
X014453Y049494D01*
X014453Y049232D01*
X014553Y048990D01*
X014738Y048805D01*
X014980Y048704D01*
X015208Y048704D01*
X015213Y048700D01*
X015389Y048627D01*
X015785Y048627D01*
X015853Y048559D01*
X016074Y048467D01*
X016867Y048467D01*
X016863Y048455D01*
X016784Y048455D01*
X016738Y048443D01*
X016697Y048420D01*
X016678Y048400D01*
X016658Y048420D01*
X016617Y048443D01*
X016571Y048455D01*
X016428Y048455D01*
X016428Y047840D01*
X016428Y047225D01*
X016571Y047225D01*
X016617Y047238D01*
X016658Y047261D01*
X016678Y047281D01*
X016697Y047261D01*
X016738Y047238D01*
X016784Y047225D01*
X016863Y047225D01*
X014023Y047225D01*
X013851Y047383D02*
X016128Y047383D01*
X016128Y047382D02*
X016140Y047336D01*
X016164Y047295D01*
X016197Y047261D01*
X016238Y047238D01*
X016284Y047225D01*
X016428Y047225D01*
X016428Y047840D01*
X016428Y047840D01*
X016128Y047840D01*
X016128Y047382D01*
X016128Y047542D02*
X013680Y047542D01*
X013508Y047700D02*
X016128Y047700D01*
X016128Y047840D02*
X016428Y047840D01*
X016428Y047840D01*
X016428Y047840D01*
X016428Y048455D01*
X016284Y048455D01*
X016238Y048443D01*
X016197Y048420D01*
X016164Y048386D01*
X016140Y048345D01*
X016128Y048299D01*
X016128Y047840D01*
X016128Y047859D02*
X013336Y047859D01*
X013164Y048017D02*
X016128Y048017D01*
X016128Y048176D02*
X012993Y048176D01*
X012821Y048334D02*
X016137Y048334D01*
X016013Y048493D02*
X012649Y048493D01*
X012478Y048651D02*
X015330Y048651D01*
X014733Y048810D02*
X008602Y048810D01*
X008602Y048968D02*
X014574Y048968D01*
X014496Y049127D02*
X008602Y049127D01*
X008602Y049285D02*
X014453Y049285D01*
X014453Y049444D02*
X008602Y049444D01*
X008602Y049602D02*
X014471Y049602D01*
X014471Y049761D02*
X008602Y049761D01*
X008602Y049919D02*
X010508Y049919D01*
X010511Y049916D02*
X010583Y049864D01*
X010663Y049823D01*
X010749Y049795D01*
X010837Y049781D01*
X011222Y049781D01*
X011222Y050301D01*
X011322Y050301D01*
X011322Y049781D01*
X011707Y049781D01*
X011796Y049795D01*
X011881Y049823D01*
X011961Y049864D01*
X012033Y049916D01*
X012097Y049980D01*
X012150Y050052D01*
X012190Y050132D01*
X012218Y050218D01*
X012231Y050301D01*
X011322Y050301D01*
X011322Y050401D01*
X012231Y050401D01*
X012218Y050485D01*
X012190Y050570D01*
X012150Y050650D01*
X012097Y050722D01*
X012033Y050786D01*
X011961Y050839D01*
X011881Y050879D01*
X011796Y050907D01*
X011707Y050921D01*
X011322Y050921D01*
X011322Y050401D01*
X011222Y050401D01*
X011222Y050301D01*
X010313Y050301D01*
X010326Y050218D01*
X010354Y050132D01*
X010395Y050052D01*
X010447Y049980D01*
X010511Y049916D01*
X010382Y050078D02*
X008602Y050078D01*
X008602Y050236D02*
X010323Y050236D01*
X010313Y050401D02*
X011222Y050401D01*
X011222Y050921D01*
X010837Y050921D01*
X010749Y050907D01*
X010663Y050879D01*
X010583Y050839D01*
X010511Y050786D01*
X010447Y050722D01*
X010395Y050650D01*
X010354Y050570D01*
X010326Y050485D01*
X010313Y050401D01*
X010348Y050553D02*
X008602Y050553D01*
X008602Y050395D02*
X011222Y050395D01*
X011322Y050395D02*
X014374Y050395D01*
X014215Y050553D02*
X012196Y050553D01*
X012105Y050712D02*
X014057Y050712D01*
X013898Y050870D02*
X011899Y050870D01*
X011322Y050870D02*
X011222Y050870D01*
X011222Y050712D02*
X011322Y050712D01*
X011322Y050553D02*
X011222Y050553D01*
X011222Y050236D02*
X011322Y050236D01*
X011322Y050078D02*
X011222Y050078D01*
X011222Y049919D02*
X011322Y049919D01*
X012036Y049919D02*
X014471Y049919D01*
X014510Y050078D02*
X012162Y050078D01*
X012221Y050236D02*
X014532Y050236D01*
X013740Y051029D02*
X008602Y051029D01*
X008602Y051187D02*
X013581Y051187D01*
X010645Y050870D02*
X008602Y050870D01*
X008602Y050712D02*
X010439Y050712D01*
X008602Y046607D02*
X013536Y046607D01*
X015020Y045122D01*
X015111Y044966D01*
X015251Y044825D01*
X015306Y044693D01*
X015441Y044558D01*
X015533Y044520D01*
X015533Y044441D01*
X015545Y044397D01*
X015107Y044834D01*
X014699Y044834D01*
X014699Y043734D01*
X015799Y043734D01*
X015799Y043785D01*
X016148Y043785D01*
X016251Y043785D01*
X016245Y043769D01*
X016245Y042948D01*
X016318Y042772D01*
X016371Y042719D01*
X015352Y042719D01*
X015799Y043165D01*
X015799Y043574D01*
X014699Y043574D01*
X014699Y043734D01*
X014539Y043734D01*
X014539Y044834D01*
X014130Y044834D01*
X013439Y044143D01*
X013439Y043734D01*
X014538Y043734D01*
X014538Y043574D01*
X013439Y043574D01*
X013439Y043165D01*
X013885Y042719D01*
X013113Y042719D01*
X012878Y042622D01*
X012698Y042442D01*
X011204Y040947D01*
X011120Y040947D01*
X011665Y041492D01*
X011665Y041901D01*
X010565Y041901D01*
X010565Y042061D01*
X011665Y042061D01*
X011665Y042469D01*
X010973Y043161D01*
X010565Y043161D01*
X010565Y042061D01*
X010405Y042061D01*
X010405Y043161D01*
X009996Y043161D01*
X009305Y042469D01*
X009305Y042061D01*
X010405Y042061D01*
X010405Y041901D01*
X009305Y041901D01*
X009305Y041492D01*
X009849Y040947D01*
X008122Y040947D01*
X008122Y043153D01*
X008298Y043281D01*
X008298Y043281D01*
X008498Y043556D01*
X008602Y043878D01*
X008602Y046607D01*
X008602Y046591D02*
X013552Y046591D01*
X013710Y046432D02*
X008602Y046432D01*
X008602Y046274D02*
X013869Y046274D01*
X014027Y046115D02*
X011959Y046115D01*
X011961Y046114D02*
X011881Y046155D01*
X011796Y046183D01*
X011707Y046197D01*
X011322Y046197D01*
X011322Y045677D01*
X011222Y045677D01*
X011222Y046197D01*
X010837Y046197D01*
X010749Y046183D01*
X010663Y046155D01*
X010583Y046114D01*
X010511Y046061D01*
X010447Y045998D01*
X010395Y045925D01*
X010354Y045845D01*
X010326Y045760D01*
X010313Y045677D01*
X011222Y045677D01*
X011222Y045577D01*
X010313Y045577D01*
X010326Y045493D01*
X010354Y045408D01*
X010395Y045328D01*
X010447Y045255D01*
X010511Y045192D01*
X010583Y045139D01*
X010663Y045098D01*
X010749Y045071D01*
X010837Y045057D01*
X011222Y045057D01*
X011222Y045577D01*
X011322Y045577D01*
X011322Y045677D01*
X012231Y045677D01*
X012218Y045760D01*
X012190Y045845D01*
X012150Y045925D01*
X012097Y045998D01*
X012033Y046061D01*
X011961Y046114D01*
X012127Y045957D02*
X014186Y045957D01*
X014344Y045798D02*
X012206Y045798D01*
X012231Y045577D02*
X011322Y045577D01*
X011322Y045057D01*
X011707Y045057D01*
X011796Y045071D01*
X011881Y045098D01*
X011961Y045139D01*
X012033Y045192D01*
X012097Y045255D01*
X012150Y045328D01*
X012190Y045408D01*
X012218Y045493D01*
X012231Y045577D01*
X012214Y045481D02*
X014661Y045481D01*
X014503Y045640D02*
X011322Y045640D01*
X011222Y045640D02*
X008602Y045640D01*
X008602Y045798D02*
X010338Y045798D01*
X010417Y045957D02*
X008602Y045957D01*
X008602Y046115D02*
X010585Y046115D01*
X011222Y046115D02*
X011322Y046115D01*
X011322Y045957D02*
X011222Y045957D01*
X011222Y045798D02*
X011322Y045798D01*
X011322Y045481D02*
X011222Y045481D01*
X011222Y045323D02*
X011322Y045323D01*
X011322Y045164D02*
X011222Y045164D01*
X010549Y045164D02*
X008602Y045164D01*
X008602Y045006D02*
X015088Y045006D01*
X014978Y045164D02*
X011995Y045164D01*
X012146Y045323D02*
X014820Y045323D01*
X015229Y044847D02*
X008602Y044847D01*
X008602Y044689D02*
X013984Y044689D01*
X013826Y044530D02*
X008602Y044530D01*
X008602Y044372D02*
X013667Y044372D01*
X013509Y044213D02*
X008602Y044213D01*
X008602Y044055D02*
X013439Y044055D01*
X013439Y043896D02*
X008602Y043896D01*
X008557Y043738D02*
X013439Y043738D01*
X013439Y043421D02*
X008400Y043421D01*
X008498Y043556D02*
X008498Y043556D01*
X008505Y043579D02*
X014538Y043579D01*
X014539Y043738D02*
X014699Y043738D01*
X014699Y043896D02*
X014539Y043896D01*
X014539Y044055D02*
X014699Y044055D01*
X014699Y044213D02*
X014539Y044213D01*
X014539Y044372D02*
X014699Y044372D01*
X014699Y044530D02*
X014539Y044530D01*
X014539Y044689D02*
X014699Y044689D01*
X015253Y044689D02*
X015310Y044689D01*
X015411Y044530D02*
X015508Y044530D01*
X016148Y044485D02*
X016148Y044485D01*
X016148Y044085D01*
X016148Y043785D01*
X016148Y044085D01*
X016148Y044085D01*
X016148Y044085D01*
X016148Y044385D01*
X016148Y044485D01*
X016148Y044372D02*
X016148Y044372D01*
X016148Y044213D02*
X016148Y044213D01*
X016148Y044055D02*
X016148Y044055D01*
X016148Y043896D02*
X016148Y043896D01*
X016245Y043738D02*
X015799Y043738D01*
X015799Y043421D02*
X016245Y043421D01*
X016245Y043579D02*
X014699Y043579D01*
X013817Y042787D02*
X011348Y042787D01*
X011506Y042628D02*
X012893Y042628D01*
X012726Y042470D02*
X011665Y042470D01*
X011665Y042311D02*
X012567Y042311D01*
X012409Y042153D02*
X011665Y042153D01*
X011665Y041836D02*
X012092Y041836D01*
X012250Y041994D02*
X010565Y041994D01*
X010565Y042153D02*
X010405Y042153D01*
X010405Y042311D02*
X010565Y042311D01*
X010565Y042470D02*
X010405Y042470D01*
X010405Y042628D02*
X010565Y042628D01*
X010565Y042787D02*
X010405Y042787D01*
X010405Y042945D02*
X010565Y042945D01*
X010565Y043104D02*
X010405Y043104D01*
X009939Y043104D02*
X008122Y043104D01*
X008122Y042945D02*
X009780Y042945D01*
X009622Y042787D02*
X008122Y042787D01*
X008122Y042628D02*
X009463Y042628D01*
X009305Y042470D02*
X008122Y042470D01*
X008122Y042311D02*
X009305Y042311D01*
X009305Y042153D02*
X008122Y042153D01*
X008122Y041994D02*
X010405Y041994D01*
X009595Y041202D02*
X008122Y041202D01*
X008122Y041360D02*
X009437Y041360D01*
X009305Y041519D02*
X008122Y041519D01*
X008122Y041677D02*
X009305Y041677D01*
X009305Y041836D02*
X008122Y041836D01*
X008122Y041043D02*
X009754Y041043D01*
X011216Y041043D02*
X011299Y041043D01*
X011374Y041202D02*
X011458Y041202D01*
X011533Y041360D02*
X011616Y041360D01*
X011665Y041519D02*
X011775Y041519D01*
X011665Y041677D02*
X011933Y041677D01*
X011189Y042945D02*
X013659Y042945D01*
X013500Y043104D02*
X011031Y043104D01*
X010398Y045323D02*
X008602Y045323D01*
X008602Y045481D02*
X010330Y045481D01*
X008272Y043262D02*
X013439Y043262D01*
X015420Y042787D02*
X016312Y042787D01*
X016246Y042945D02*
X015578Y042945D01*
X015737Y043104D02*
X016245Y043104D01*
X016245Y043262D02*
X015799Y043262D01*
X016148Y045323D02*
X016148Y045323D01*
X016148Y045481D02*
X016148Y045481D01*
X016148Y045640D02*
X016148Y045640D01*
X016148Y045798D02*
X016148Y045798D01*
X016737Y045798D02*
X016774Y045798D01*
X016763Y045640D02*
X016774Y045640D01*
X016763Y045481D02*
X016774Y045481D01*
X016774Y045323D02*
X016720Y045323D01*
X016763Y045164D02*
X016774Y045164D01*
X016774Y045957D02*
X015397Y045957D01*
X015225Y046115D02*
X016807Y046115D01*
X016882Y046274D02*
X015053Y046274D01*
X014881Y046432D02*
X016934Y046432D01*
X016934Y046591D02*
X014710Y046591D01*
X014538Y046749D02*
X016986Y046749D01*
X017115Y046908D02*
X014366Y046908D01*
X014195Y047066D02*
X016968Y047066D01*
X016901Y047134D02*
X017036Y046999D01*
X017166Y046945D01*
X016901Y047134D02*
X016863Y047225D01*
X016428Y047383D02*
X016428Y047383D01*
X016428Y047542D02*
X016428Y047542D01*
X016428Y047700D02*
X016428Y047700D01*
X016428Y047859D02*
X016428Y047859D01*
X016428Y048017D02*
X016428Y048017D01*
X016428Y048176D02*
X016428Y048176D01*
X016428Y048334D02*
X016428Y048334D01*
X026081Y047542D02*
X026171Y047542D01*
X026171Y047383D02*
X026081Y047383D01*
X026081Y047225D02*
X026171Y047225D01*
X029428Y047225D02*
X029518Y047225D01*
X029518Y047383D02*
X029428Y047383D01*
X029428Y047542D02*
X029518Y047542D01*
D56*
X045819Y051134D02*
X045819Y034796D01*
X046902Y033713D01*
X047772Y033713D01*
X047792Y033693D01*
X048792Y033693D02*
X048811Y033713D01*
X049658Y033713D01*
X050741Y034796D01*
X050741Y050445D01*
X048969Y052217D01*
X048485Y052217D01*
X048485Y051217D02*
X048493Y051217D01*
X049658Y050052D01*
X049658Y035288D01*
X049067Y034697D01*
X048969Y034697D01*
X048965Y034693D01*
X048792Y034693D01*
X047792Y034693D02*
X047788Y034697D01*
X047493Y034697D01*
X046902Y035288D01*
X046902Y050642D01*
X047477Y051217D01*
X047485Y051217D01*
X047485Y052217D02*
X046902Y052217D01*
X045819Y051134D01*
M02*
