<?xml version="1.0" encoding="UTF-8" standalone="no"?>
<!DOCTYPE svg PUBLIC "-//W3C//DTD SVG 1.0//EN" "http://www.w3.org/TR/2001/REC-SVG-20010904/DTD/svg10.dtd">
<!-- Generated by Microsoft Visio 11.0, SVG Export, v1.0 TSR_Sticker.svg Page-1 -->
<svg xmlns="http://www.w3.org/2000/svg" xmlns:xlink="http://www.w3.org/1999/xlink" xmlns:ev="http://www.w3.org/2001/xml-events"
		xmlns:v="http://schemas.microsoft.com/visio/2003/SVGExtensions/" width="8.26772in" height="11.6929in"
		viewBox="0 0 595.276 841.89" xml:space="preserve" color-interpolation-filters="sRGB" class="st11">
	<v:documentProperties v:langID="1033" v:metric="true" v:viewMarkup="false">
		<v:userDefs>
			<v:ud v:nameU="msvNoAutoConnect" v:val="VT0(1):26"/>
		</v:userDefs>
	</v:documentProperties>

	<style type="text/css">
	<![CDATA[
		.st1 {fill:none;stroke:#000000;stroke-dasharray:5.25,3.75;stroke-linecap:round;stroke-linejoin:round;stroke-width:0.75}
		.st2 {fill:#ffff00;font-family:Rockwell;font-size:1.99999em}
		.st3 {fill:#ffff00;font-family:Rockwell;font-size:1.99999em;font-weight:bold}
		.st4 {fill:#ffff00;font-family:Rockwell;font-size:1.5em}
		.st5 {font-size:1em}
		.st6 {fill:#ffff00;font-family:Rockwell;font-size:1.16666em}
		.st7 {font-size:0.642863em}
		.st8 {fill:none;stroke:#000000;stroke-linecap:round;stroke-linejoin:round;stroke-width:0.75}
		.st9 {fill:#ffff00;font-family:Rockwell;font-size:0.833336em}
		.st10 {fill:none;stroke:none;stroke-linecap:round;stroke-linejoin:round;stroke-width:0.75}
		.st11 {fill:none;fill-rule:evenodd;font-size:12px;overflow:visible;stroke-linecap:square;stroke-miterlimit:3}
	]]>
	</style>

	<g v:mID="0" v:index="1" v:groupContext="foregroundPage">
		<title>Page-1</title>
		<v:pageProperties v:drawingScale="0.0393701" v:pageScale="0.0393701" v:drawingUnits="24" v:shadowOffsetX="8.50394"
				v:shadowOffsetY="-8.50394"/>
		<g id="shape1-1" v:mID="1" v:groupContext="shape" transform="translate(22.6772,-782.362)">
			<title>Sheet.1</title>
			<desc>TSR 15 - 500</desc>
			<v:textBlock v:margins="rect(4,4,4,4)" v:tabSpace="42.5197"/>
			<v:textRect cx="70.8661" cy="827.717" width="141.74" height="28.3465"/>
			<path d="M0 841.89 L141.73 841.89 L141.73 813.54 L0 813.54 L0 841.89 Z" class="st1"/>
			<text x="4.6" y="834.92" class="st2" v:langID="1033"><v:paragraph v:horizAlign="1"/><v:tabList/>TSR 15 - 500</text>		</g>
		<g id="shape2-4" v:mID="2" v:groupContext="shape" transform="translate(22.6772,-742.677)">
			<title>Sheet.2</title>
			<desc>01</desc>
			<v:textBlock v:margins="rect(4,4,4,4)" v:tabSpace="42.5197"/>
			<v:textRect cx="28.3465" cy="827.717" width="56.7" height="28.3465"/>
			<path d="M0 841.89 L56.69 841.89 L56.69 813.54 L0 813.54 L0 841.89 Z" class="st1"/>
			<text x="15.1" y="834.92" class="st3" v:langID="1033"><v:paragraph v:horizAlign="1"/><v:tabList/>01</text>		</g>
		<g id="shape3-7" v:mID="3" v:groupContext="shape" transform="translate(107.717,-742.677)">
			<title>Sheet.3</title>
			<desc>02</desc>
			<v:textBlock v:margins="rect(4,4,4,4)" v:tabSpace="42.5197"/>
			<v:textRect cx="28.3465" cy="827.717" width="56.7" height="28.3465"/>
			<path d="M0 841.89 L56.69 841.89 L56.69 813.54 L0 813.54 L0 841.89 Z" class="st1"/>
			<text x="15.1" y="834.92" class="st3" v:langID="1033"><v:paragraph v:horizAlign="1"/><v:tabList/>02</text>		</g>
		<g id="shape4-10" v:mID="4" v:groupContext="shape" transform="translate(22.6772,-688.819)">
			<title>Sheet.4</title>
			<desc>Switch AC</desc>
			<v:textBlock v:margins="rect(4,4,4,4)" v:tabSpace="42.5197"/>
			<v:textRect cx="42.5197" cy="820.63" width="85.04" height="42.5197"/>
			<path d="M0 841.89 L85.04 841.89 L85.04 799.37 L0 799.37 L0 841.89 Z" class="st1"/>
			<text x="15.61" y="815.23" class="st4" v:langID="1033"><v:paragraph v:horizAlign="1"/><v:tabList/>Switch<v:newlineChar/><tspan
						x="29.4" dy="1.2em" class="st5">AC</tspan></text>		</g>
		<g id="shape6-14" v:mID="6" v:groupContext="shape" transform="translate(22.6772,-632.126)">
			<title>Sheet.6</title>
			<desc>VBUC +48V</desc>
			<v:textBlock v:margins="rect(4,4,4,4)" v:tabSpace="42.5197"/>
			<v:textRect cx="42.5197" cy="820.63" width="85.04" height="42.5197"/>
			<path d="M0 841.89 L85.04 841.89 L85.04 799.37 L0 799.37 L0 841.89 Z" class="st1"/>
			<text x="17.97" y="815.23" class="st4" v:langID="1033"><v:paragraph v:horizAlign="1"/><v:tabList/>VBUC<v:newlineChar/><tspan
						x="20.39" dy="1.2em" class="st5">+</tspan>48V</text>		</g>
		<g id="shape5-18" v:mID="5" v:groupContext="shape" transform="translate(119.055,-688.819)">
			<title>Sheet.5</title>
			<desc>Switch Battery</desc>
			<v:textBlock v:margins="rect(4,4,4,4)" v:tabSpace="42.5197"/>
			<v:textRect cx="42.5197" cy="820.63" width="85.04" height="42.5197"/>
			<path d="M0 841.89 L85.04 841.89 L85.04 799.37 L0 799.37 L0 841.89 Z" class="st1"/>
			<text x="15.61" y="815.23" class="st4" v:langID="1033"><v:paragraph v:horizAlign="1"/><v:tabList/>Switch<v:newlineChar/><tspan
						x="13.09" dy="1.2em" class="st5">Battery</tspan></text>		</g>
		<g id="shape7-22" v:mID="7" v:groupContext="shape" transform="translate(119.055,-632.126)">
			<title>Sheet.7</title>
			<desc>VSCPC +48V</desc>
			<v:textBlock v:margins="rect(4,4,4,4)" v:tabSpace="42.5197"/>
			<v:textRect cx="42.5197" cy="820.63" width="85.04" height="42.5197"/>
			<path d="M0 841.89 L85.04 841.89 L85.04 799.37 L0 799.37 L0 841.89 Z" class="st1"/>
			<text x="12.54" y="815.23" class="st4" v:langID="1033"><v:paragraph v:horizAlign="1"/><v:tabList/>VSCPC<v:newlineChar/><tspan
						x="20.39" dy="1.2em" class="st5">+</tspan>48V</text>		</g>
		<g id="shape8-26" v:mID="8" v:groupContext="shape" transform="translate(22.6772,-589.606)">
			<title>Sheet.8</title>
			<desc>Hughes HX</desc>
			<v:textBlock v:margins="rect(4,4,4,4)" v:tabSpace="42.5197"/>
			<v:textRect cx="42.5197" cy="827.717" width="85.04" height="28.3465"/>
			<path d="M0 841.89 L85.04 841.89 L85.04 813.54 L0 813.54 L0 841.89 Z" class="st1"/>
			<text x="6.72" y="831.92" class="st6" v:langID="1033"><v:paragraph v:horizAlign="1"/><v:tabList/>Hughes HX</text>		</g>
		<g id="shape9-29" v:mID="9" v:groupContext="shape" transform="translate(119.055,-589.606)">
			<title>Sheet.9</title>
			<desc>VWiFi</desc>
			<v:textBlock v:margins="rect(4,4,4,4)" v:tabSpace="42.5197"/>
			<v:textRect cx="42.5197" cy="827.717" width="85.04" height="28.3465"/>
			<path d="M0 841.89 L85.04 841.89 L85.04 813.54 L0 813.54 L0 841.89 Z" class="st1"/>
			<text x="22.61" y="831.92" class="st6" v:langID="1033"><v:paragraph v:horizAlign="1"/><v:tabList/>VWiFi</text>		</g>
		<g id="shape10-32" v:mID="10" v:groupContext="shape" transform="translate(22.6772,-534.331)">
			<title>Sheet.10</title>
			<desc>Hughes HT iDirect X1&#38;X3</desc>
			<v:textBlock v:margins="rect(4,4,4,4)" v:tabSpace="42.5197"/>
			<v:textRect cx="42.5197" cy="820.63" width="85.04" height="42.5197"/>
			<path d="M0 841.89 L85.04 841.89 L85.04 799.37 L0 799.37 L0 841.89 Z" class="st1"/>
			<text x="7.3" y="816.43" class="st6" v:langID="1033"><v:paragraph v:horizAlign="1"/><v:tabList/>Hughes HT<v:newlineChar/><tspan
						x="5.06" dy="1.2em" class="st5">iDirect </tspan><tspan class="st7">X</tspan><tspan class="st7">1</tspan><tspan
						class="st7">&#38;</tspan><tspan class="st7">X</tspan><tspan class="st7">3</tspan></text>		</g>
		<g id="shape11-41" v:mID="11" v:groupContext="shape" transform="translate(119.055,-555.591)">
			<title>Sheet.11</title>
			<desc>Bat (+)</desc>
			<v:textBlock v:margins="rect(4,4,4,4)" v:tabSpace="42.5197"/>
			<v:textRect cx="28.3465" cy="830.551" width="56.7" height="22.6772"/>
			<path d="M0 841.89 L56.69 841.89 L56.69 819.21 L0 819.21 L0 841.89 Z" class="st1"/>
			<text x="6.77" y="834.75" class="st6" v:langID="1033"><v:paragraph v:horizAlign="1"/><v:tabList/>Bat (+)</text>		</g>
		<g id="shape12-44" v:mID="12" v:groupContext="shape" transform="translate(119.055,-521.575)">
			<title>Sheet.12</title>
			<desc>Bat (-)</desc>
			<v:textBlock v:margins="rect(4,4,4,4)" v:tabSpace="42.5197"/>
			<v:textRect cx="28.3465" cy="830.551" width="56.7" height="22.6772"/>
			<path d="M0 841.89 L56.69 841.89 L56.69 819.21 L0 819.21 L0 841.89 Z" class="st1"/>
			<text x="8.96" y="834.75" class="st6" v:langID="1033"><v:paragraph v:horizAlign="1"/><v:tabList/>Bat (-)</text>		</g>
		<g id="group13-47" transform="translate(17.2913,-476.22)" v:mID="13" v:groupContext="group">
			<title>Sheet.13</title>
			<g id="shape27-48" v:mID="27" v:groupContext="shape" transform="translate(3.11811,-2.83465)">
				<title>Sheet.27</title>
				<desc>SIM Net SIM Stat</desc>
				<v:textBlock v:margins="rect(4,4,4,4)" v:tabSpace="42.5197"/>
				<v:textRect cx="23.3858" cy="827.717" width="46.78" height="28.3465"/>
				<rect x="0" y="813.543" width="46.7717" height="28.3465" class="st8"/>
				<text x="5.57" y="824.72" class="st9" v:langID="1033"><v:paragraph v:horizAlign="1"/><v:tabList/>SIM Net<v:newlineChar/><tspan
							x="5.22" dy="1.2em" class="st5">SIM Stat</tspan></text>			</g>
			<g id="shape28-52" v:mID="28" v:groupContext="shape" transform="translate(49.8898,-2.83465)">
				<title>Sheet.28</title>
				<desc>Rpi Ardu</desc>
				<v:textBlock v:margins="rect(4,4,4,4)" v:tabSpace="42.5197"/>
				<v:textRect cx="16.2992" cy="827.717" width="32.6" height="28.3465"/>
				<rect x="0" y="813.543" width="32.5984" height="28.3465" class="st8"/>
				<text x="8.69" y="824.72" class="st9" v:langID="1033"><v:paragraph v:horizAlign="1"/><v:tabList/>Rpi<v:newlineChar/><tspan
							x="4.78" dy="1.2em" class="st5">Ardu</tspan></text>			</g>
			<g id="shape29-56" v:mID="29" v:groupContext="shape" transform="translate(82.4882,-2.83465)">
				<title>Sheet.29</title>
				<desc>6.5V 19.5V</desc>
				<v:textBlock v:margins="rect(4,4,4,4)" v:tabSpace="42.5197"/>
				<v:textRect cx="17.7165" cy="827.717" width="35.44" height="28.3465"/>
				<rect x="0" y="813.543" width="35.4331" height="28.3465" class="st10"/>
				<text x="7.3" y="824.72" class="st9" v:langID="1033"><v:paragraph v:horizAlign="1"/><v:tabList/>6.5V<v:newlineChar/><tspan
							x="4.59" dy="1.2em" class="st5">19</tspan>.5V</text>			</g>
			<g id="shape30-60" v:mID="30" v:groupContext="shape" transform="translate(109.417,-2.83465)">
				<title>Sheet.30</title>
				<desc>13.5V 24V</desc>
				<v:textBlock v:margins="rect(4,4,4,4)" v:tabSpace="42.5197"/>
				<v:textRect cx="21.2598" cy="827.717" width="42.52" height="28.3465"/>
				<rect x="0" y="813.543" width="42.5197" height="28.3465" class="st10"/>
				<text x="8.13" y="824.72" class="st9" v:langID="1033"><v:paragraph v:horizAlign="1"/><v:tabList/>13.5V<v:newlineChar/><tspan
							x="12.3" dy="1.2em" class="st5">24</tspan>V</text>			</g>
			<g id="shape31-64" v:mID="31" v:groupContext="shape" transform="translate(147.685,-2.83465)">
				<title>Sheet.31</title>
				<desc>- VWiFi</desc>
				<v:textBlock v:margins="rect(4,4,4,4)" v:tabSpace="42.5197" v:verticalAlign="0"/>
				<v:textRect cx="18.4252" cy="827.717" width="36.86" height="28.3465"/>
				<rect x="0" y="813.543" width="36.8504" height="28.3465" class="st10"/>
				<text x="16.66" y="826.54" class="st9" v:langID="1033"><v:paragraph v:horizAlign="1"/><v:tabList/>-<v:newlineChar/><tspan
							x="4.21" dy="1.2em" class="st5">VWiFi</tspan></text>			</g>
			<g id="shape32-68" v:mID="32" v:groupContext="shape" transform="translate(180.283,-2.83465)">
				<title>Sheet.32</title>
				<desc>VBat VSCPC</desc>
				<v:textBlock v:margins="rect(4,4,4,4)" v:tabSpace="42.5197" v:verticalAlign="0"/>
				<v:textRect cx="21.2598" cy="827.717" width="42.52" height="28.3465"/>
				<rect x="0" y="813.543" width="42.5197" height="28.3465" class="st10"/>
				<text x="10.64" y="826.54" class="st9" v:langID="1033"><v:paragraph v:horizAlign="1"/><v:tabList/>VBat<v:newlineChar/><tspan
							x="4.6" dy="1.2em" class="st5">VSCPC</tspan></text>			</g>
			<g id="shape33-72" v:mID="33" v:groupContext="shape" transform="translate(216.567,-2.83465)">
				<title>Sheet.33</title>
				<desc>VAC VBUC</desc>
				<v:textBlock v:margins="rect(4,4,4,4)" v:tabSpace="42.5197" v:verticalAlign="0"/>
				<v:textRect cx="21.2598" cy="827.717" width="42.52" height="28.3465"/>
				<rect x="0" y="813.543" width="42.5197" height="28.3465" class="st10"/>
				<text x="10.43" y="826.54" class="st9" v:langID="1033"><v:paragraph v:horizAlign="1"/><v:tabList/>VAC<v:newlineChar/><tspan
							x="7.62" dy="1.2em" class="st5">VBUC</tspan></text>			</g>
			<g id="shape34-76" v:mID="34" v:groupContext="shape" transform="translate(82.4882,-2.83465)">
				<title>Sheet.34</title>
				<rect x="0" y="813.543" width="64.9134" height="28.3465" class="st8"/>
			</g>
			<g id="shape35-78" v:mID="35" v:groupContext="shape" transform="translate(147.402,-2.83465)">
				<title>Sheet.35</title>
				<rect x="0" y="827.717" width="106.583" height="14.1732" class="st8"/>
			</g>
			<g id="shape36-80" v:mID="36" v:groupContext="shape" transform="translate(147.402,-17.0079)">
				<title>Sheet.36</title>
				<rect x="0" y="827.717" width="106.583" height="14.1732" class="st8"/>
			</g>
			<g id="shape25-82" v:mID="25" v:groupContext="shape">
				<title>Sheet.25</title>
				<path d="M0 841.89 L256.82 841.89 L256.82 807.87 L0 807.87 L0 841.89 Z" class="st1"/>
			</g>
		</g>
	</g>
</svg>
