%
M48
M72
T01C0.0236
T02C0.0315
T03C0.0320
T04C0.0394
T05C0.0400
T06C0.0470
T07C0.0512
T08C0.0520
T09C0.0591
T10C0.0630
T11C0.1000
T12C0.1181
%
T01
X8418Y16981
X15603Y28989
X15603Y29678
X15603Y30367
X22985Y37748
X23329Y37748
X23329Y38437
X22985Y38437
X22985Y39126
X23329Y39126
X24067Y40111
X24412Y40111
X24756Y40111
X24658Y42522
X24412Y43014
X24240Y43309
X24067Y43014
X23132Y43802
X23132Y44146
X22788Y44146
X22788Y43802
X22443Y43802
X22443Y44146
X22099Y44146
X21927Y44441
X21754Y44146
X21754Y43802
X22099Y43802
X21927Y44786
X23181Y47197
X23181Y47591
X23181Y48181
X20672Y47886
X23575Y51528
X24461Y51282
X24461Y50937
X24461Y50593
X26233Y52315
X26823Y54284
X27020Y55563
X26823Y45327
X27512Y45327
X34500Y36764
X32630Y35288
X32237Y34402
X32729Y32433
X31744Y32433
X31449Y31056
X32433Y31056
X33910Y31252
X34008Y32680
X34008Y33024
X34008Y33369
X36961Y35091
X38634Y35485
X38831Y37158
X38831Y37945
X42079Y42276
X42867Y42276
X44048Y44048
X45622Y44441
X45622Y42276
X48280Y38733
X48772Y38733
X49264Y38733
X49756Y38733
X50248Y38733
X50741Y38733
X51134Y39028
X51626Y39225
X51528Y37650
X51036Y37552
X50544Y37552
X50052Y37552
X49559Y37552
X49067Y37552
X47000Y34993
X47788Y33516
X46508Y29382
X45622Y29382
X44737Y29382
X43851Y29382
X47000Y26233
X47886Y26233
X48772Y26233
X49658Y26233
X50544Y26233
X43654Y23181
X38634Y23181
X38290Y19638
X37945Y19638
X37601Y18949
X37256Y18949
X36863Y18359
X36518Y18359
X35632Y18113
X35288Y18113
X35288Y17768
X35632Y17768
X31498Y15554
X31154Y15554
X30809Y15554
X30809Y15209
X30809Y14865
X31154Y14865
X31154Y15209
X31498Y15209
X31498Y14865
X33713Y12158
X34500Y12748
X32926Y11567
X39717Y11863
X42473Y11863
X42768Y14126
X42768Y14471
X46311Y12552
X46656Y12552
X34451Y25987
X34205Y26233
X33959Y26479
X33270Y25741
X32926Y25741
X31597Y26430
X31252Y26430
X29924Y27119
X29579Y27119
X42867Y45819
X45622Y47591
X46804Y47591
X47099Y46607
X48477Y46607
X48870Y46607
X49264Y46607
X52315Y46459
X52315Y46115
X52315Y45770
X52217Y41784
X50248Y41784
X42867Y50544
X42374Y51331
X41292Y51331
X40160Y52119
X39815Y52119
X39225Y52709
X39815Y53644
X50248Y51528
X16489Y49658
T02
X40701Y49091
X40701Y48091
X40701Y47091
X40701Y46091
T03
X22788Y52481
X22788Y56481
X16784Y55989
X16784Y51989
X46500Y21607
X47500Y21607
T04
X52906Y9481
X52906Y8103
X52906Y5544
X52906Y4166
X21835Y51981
X17835Y51981
X17835Y56981
X21835Y56981
T05
X29335Y54756
X29335Y53756
X29335Y52756
X29335Y51756
X29335Y50756
X29335Y49756
X29335Y48756
X29335Y47756
X29335Y46756
X29335Y45756
X29335Y44756
X29335Y43756
X30835Y43756
X31835Y43756
X32835Y43756
X33835Y43756
X35335Y43756
X35335Y44756
X35335Y45756
X35335Y46756
X35335Y47756
X35335Y48756
X35335Y49756
X35335Y50756
X35335Y51756
X35335Y52756
X35335Y53756
X35335Y54756
X45910Y54489
X46910Y54489
X46910Y53489
X45910Y53489
X45910Y52489
X46910Y52489
X46910Y51489
X45910Y51489
X45910Y50489
X46910Y50489
X46910Y55489
X45910Y55489
X45910Y56489
X45910Y57489
X46910Y57489
X46910Y56489
X51630Y31756
X52630Y31756
X52630Y30756
X51630Y30756
X51630Y29756
X52630Y29756
X52630Y28756
X51630Y28756
X51630Y27756
X51630Y26756
X52630Y26756
X52630Y27756
X52630Y25756
X51630Y25756
X51630Y24756
X51630Y23756
X52630Y23756
X52630Y24756
X52630Y22756
X51630Y22756
X51630Y21756
X52630Y21756
X52630Y20756
X51630Y20756
X51630Y19756
X52630Y19756
X52630Y18756
X51630Y18756
X51630Y17756
X51630Y16756
X52630Y16756
X52630Y17756
X52630Y15756
X51630Y15756
X51630Y14756
X51630Y13756
X52630Y13756
X52630Y14756
X52630Y12756
X51630Y12756
X4386Y11567
X2606Y11567
X2606Y14127
X4386Y14127
T06
X11370Y14260
X11370Y16260
X11370Y20260
X11370Y22260
X16685Y22260
X16685Y20260
X20622Y20260
X20622Y22260
X24559Y22260
X24559Y20260
X24559Y16260
X24559Y14260
X20622Y14260
X20622Y16260
X16685Y16260
X16685Y14260
T07
X41489Y18595
X41489Y26469
T08
X22866Y44650
X22866Y49350
X18066Y49350
X17266Y47000
X18066Y44650
X11174Y45627
X11174Y47597
X11174Y50351
X11174Y52321
X11174Y55076
X11174Y57046
X3693Y39723
X3693Y37743
X3693Y35786
X3693Y33806
X3693Y29877
X3693Y27907
X3693Y25937
X3693Y23967
X3693Y21997
X3693Y18069
X3693Y16089
X14717Y7833
X14717Y5863
X14717Y3896
X14717Y1926
X20814Y4087
X22784Y4087
X24751Y4087
X26721Y4087
X30262Y4087
X32232Y4087
X34199Y4087
X36169Y4087
X39711Y4087
X41681Y4087
X45227Y4087
X47197Y4087
X49167Y4087
T09
X53496Y38733
T10
X54496Y39733
X52496Y39733
X52496Y37733
X54496Y37733
X26489Y40111
X26489Y33103
X26489Y31449
X26489Y24441
X10662Y24441
X10662Y31449
X10662Y33103
X10662Y40111
T11
X11174Y3890
X11174Y7827
X9402Y15307
X18654Y15209
X18654Y22493
X18260Y39520
X20229Y44244
X12650Y44244
T12
X14914Y56646
X51233Y58024
X47394Y15898
X13930Y15898
M30
