G75*
G70*
%OFA0B0*%
%FSLAX24Y24*%
%IPPOS*%
%LPD*%
%AMOC8*
5,1,8,0,0,1.08239X$1,22.5*
%
%ADD10C,0.0060*%
%ADD11C,0.0080*%
%ADD12C,0.0040*%
%ADD13C,0.0050*%
%ADD14C,0.0070*%
%ADD15C,0.0010*%
%ADD16C,0.0030*%
%ADD17C,0.0320*%
%ADD18R,0.0079X0.0079*%
%ADD19C,0.0020*%
%ADD20R,0.1500X0.0300*%
%ADD21R,0.0500X0.0500*%
%ADD22R,0.2000X0.0250*%
%ADD23R,0.0700X0.1500*%
%ADD24C,0.0100*%
D10*
X010810Y005306D02*
X010917Y005200D01*
X011023Y005200D01*
X011130Y005306D01*
X011130Y005840D01*
X011023Y005840D02*
X011237Y005840D01*
X011454Y005733D02*
X011454Y005627D01*
X011561Y005520D01*
X011775Y005520D01*
X011882Y005413D01*
X011882Y005306D01*
X011775Y005200D01*
X011561Y005200D01*
X011454Y005306D01*
X011454Y005413D01*
X011561Y005520D01*
X011775Y005520D02*
X011882Y005627D01*
X011882Y005733D01*
X011775Y005840D01*
X011561Y005840D01*
X011454Y005733D01*
X012267Y005063D02*
X012267Y006663D01*
X012267Y007033D01*
X012267Y008633D01*
X013017Y008633D01*
X013017Y007033D01*
X014817Y007033D01*
X014817Y007183D01*
X014967Y007183D02*
X014967Y006513D01*
X014817Y006513D02*
X014817Y006663D01*
X013017Y006663D01*
X013017Y005063D01*
X012267Y005063D01*
X012267Y004843D01*
X012667Y004843D01*
X013117Y004843D01*
X014967Y004843D01*
X014967Y005213D01*
X014817Y005213D02*
X014817Y005063D01*
X013017Y005063D01*
X013117Y004843D02*
X013217Y004643D01*
X012567Y004643D01*
X012667Y004843D01*
X013017Y004696D02*
X012267Y004696D01*
X012267Y003096D01*
X012267Y002726D01*
X012267Y001126D01*
X013017Y001126D01*
X013017Y002726D01*
X014817Y002726D01*
X014817Y002576D01*
X014967Y002576D02*
X014967Y003246D01*
X014817Y003246D02*
X014817Y003096D01*
X013017Y003096D01*
X013017Y004696D01*
X014817Y004696D01*
X014817Y004546D01*
X014967Y004546D02*
X014967Y004906D01*
X015967Y004906D01*
X017167Y004906D01*
X017167Y000906D01*
X017167Y000706D01*
X015267Y000706D01*
X015367Y000906D01*
X015967Y000906D01*
X015967Y004906D01*
X015967Y004843D02*
X015367Y004843D01*
X014967Y004843D01*
X014967Y004906D02*
X012267Y004906D01*
X012267Y004696D01*
X013267Y004546D02*
X014517Y004546D01*
X014517Y005213D02*
X013267Y005213D01*
X013267Y006513D01*
X014517Y006513D01*
X014517Y007183D02*
X013267Y007183D01*
X013267Y008483D01*
X014517Y008483D01*
X014817Y008483D02*
X014817Y008633D01*
X013017Y008633D01*
X012267Y008633D02*
X012267Y008843D01*
X014967Y008843D01*
X014967Y008483D01*
X014967Y008843D02*
X015967Y008843D01*
X017167Y008843D01*
X017167Y004843D01*
X017167Y004643D01*
X015267Y004643D01*
X015367Y004843D01*
X015967Y004843D02*
X015967Y008843D01*
X016067Y008633D02*
X017067Y008633D01*
X017067Y007033D01*
X016067Y007033D01*
X016067Y008633D01*
X016417Y008423D02*
X016667Y007223D01*
X016717Y007273D02*
X016467Y008473D01*
X016343Y008396D02*
X016360Y008422D01*
X016379Y008445D01*
X016402Y008465D01*
X016426Y008482D01*
X016453Y008496D01*
X016482Y008507D01*
X016511Y008513D01*
X016541Y008516D01*
X016572Y008515D01*
X016601Y008510D01*
X016630Y008501D01*
X016658Y008488D01*
X016683Y008472D01*
X016707Y008453D01*
X016357Y008413D02*
X016321Y008365D01*
X016288Y008314D01*
X016258Y008262D01*
X016232Y008208D01*
X016209Y008152D01*
X016189Y008095D01*
X016173Y008037D01*
X016161Y007978D01*
X016153Y007918D01*
X016148Y007858D01*
X016147Y007798D01*
X016150Y007738D01*
X016157Y007678D01*
X016167Y007618D01*
X016181Y007560D01*
X016199Y007502D01*
X016220Y007446D01*
X016245Y007391D01*
X016273Y007338D01*
X016304Y007286D01*
X016339Y007237D01*
X016325Y007255D02*
X016347Y007233D01*
X016370Y007214D01*
X016396Y007198D01*
X016423Y007185D01*
X016452Y007175D01*
X016481Y007168D01*
X016512Y007164D01*
X016542Y007164D01*
X016572Y007168D01*
X016602Y007175D01*
X016630Y007185D01*
X016658Y007198D01*
X016683Y007214D01*
X016707Y007233D01*
X017067Y006663D02*
X016067Y006663D01*
X016067Y005063D01*
X017067Y005063D01*
X017067Y006663D01*
X016467Y006503D02*
X016717Y005303D01*
X016667Y005253D02*
X016417Y006453D01*
X016343Y006426D02*
X016360Y006452D01*
X016379Y006475D01*
X016402Y006495D01*
X016426Y006512D01*
X016453Y006526D01*
X016482Y006537D01*
X016511Y006543D01*
X016541Y006546D01*
X016572Y006545D01*
X016601Y006540D01*
X016630Y006531D01*
X016658Y006518D01*
X016683Y006502D01*
X016707Y006483D01*
X016357Y006443D02*
X016321Y006395D01*
X016288Y006344D01*
X016258Y006292D01*
X016232Y006238D01*
X016209Y006182D01*
X016189Y006125D01*
X016173Y006067D01*
X016161Y006008D01*
X016153Y005948D01*
X016148Y005888D01*
X016147Y005828D01*
X016150Y005768D01*
X016157Y005708D01*
X016167Y005648D01*
X016181Y005590D01*
X016199Y005532D01*
X016220Y005476D01*
X016245Y005421D01*
X016273Y005368D01*
X016304Y005316D01*
X016339Y005267D01*
X016325Y005285D02*
X016347Y005263D01*
X016370Y005244D01*
X016396Y005228D01*
X016423Y005215D01*
X016452Y005205D01*
X016481Y005198D01*
X016512Y005194D01*
X016542Y005194D01*
X016572Y005198D01*
X016602Y005205D01*
X016630Y005215D01*
X016658Y005228D01*
X016683Y005244D01*
X016707Y005263D01*
X017167Y004843D02*
X015967Y004843D01*
X016067Y004696D02*
X017067Y004696D01*
X017067Y003096D01*
X016067Y003096D01*
X016067Y004696D01*
X016417Y004486D02*
X016667Y003286D01*
X016717Y003336D02*
X016467Y004536D01*
X016343Y004459D02*
X016360Y004485D01*
X016379Y004508D01*
X016402Y004528D01*
X016426Y004545D01*
X016453Y004559D01*
X016482Y004570D01*
X016511Y004576D01*
X016541Y004579D01*
X016572Y004578D01*
X016601Y004573D01*
X016630Y004564D01*
X016658Y004551D01*
X016683Y004535D01*
X016707Y004516D01*
X016357Y004476D02*
X016321Y004428D01*
X016288Y004377D01*
X016258Y004325D01*
X016232Y004271D01*
X016209Y004215D01*
X016189Y004158D01*
X016173Y004100D01*
X016161Y004041D01*
X016153Y003981D01*
X016148Y003921D01*
X016147Y003861D01*
X016150Y003801D01*
X016157Y003741D01*
X016167Y003681D01*
X016181Y003623D01*
X016199Y003565D01*
X016220Y003509D01*
X016245Y003454D01*
X016273Y003401D01*
X016304Y003349D01*
X016339Y003300D01*
X016325Y003318D02*
X016347Y003296D01*
X016370Y003277D01*
X016396Y003261D01*
X016423Y003248D01*
X016452Y003238D01*
X016481Y003231D01*
X016512Y003227D01*
X016542Y003227D01*
X016572Y003231D01*
X016602Y003238D01*
X016630Y003248D01*
X016658Y003261D01*
X016683Y003277D01*
X016707Y003296D01*
X017067Y002726D02*
X016067Y002726D01*
X016067Y001126D01*
X017067Y001126D01*
X017067Y002726D01*
X016467Y002566D02*
X016717Y001366D01*
X016667Y001316D02*
X016417Y002516D01*
X016343Y002489D02*
X016360Y002515D01*
X016379Y002538D01*
X016402Y002558D01*
X016426Y002575D01*
X016453Y002589D01*
X016482Y002600D01*
X016511Y002606D01*
X016541Y002609D01*
X016572Y002608D01*
X016601Y002603D01*
X016630Y002594D01*
X016658Y002581D01*
X016683Y002565D01*
X016707Y002546D01*
X016357Y002506D02*
X016321Y002458D01*
X016288Y002407D01*
X016258Y002355D01*
X016232Y002301D01*
X016209Y002245D01*
X016189Y002188D01*
X016173Y002130D01*
X016161Y002071D01*
X016153Y002011D01*
X016148Y001951D01*
X016147Y001891D01*
X016150Y001831D01*
X016157Y001771D01*
X016167Y001711D01*
X016181Y001653D01*
X016199Y001595D01*
X016220Y001539D01*
X016245Y001484D01*
X016273Y001431D01*
X016304Y001379D01*
X016339Y001330D01*
X016325Y001348D02*
X016347Y001326D01*
X016370Y001307D01*
X016396Y001291D01*
X016423Y001278D01*
X016452Y001268D01*
X016481Y001261D01*
X016512Y001257D01*
X016542Y001257D01*
X016572Y001261D01*
X016602Y001268D01*
X016630Y001278D01*
X016658Y001291D01*
X016683Y001307D01*
X016707Y001326D01*
X017167Y000906D02*
X015967Y000906D01*
X015367Y000906D02*
X014967Y000906D01*
X014967Y001276D01*
X014817Y001276D02*
X014817Y001126D01*
X013017Y001126D01*
X013117Y000906D02*
X014967Y000906D01*
X014517Y001276D02*
X013267Y001276D01*
X013267Y002576D01*
X014517Y002576D01*
X014517Y003246D02*
X013267Y003246D01*
X013267Y004546D01*
X013017Y003096D02*
X012267Y003096D01*
X012267Y002726D02*
X013017Y002726D01*
X012267Y001126D02*
X012267Y000906D01*
X012667Y000906D01*
X013117Y000906D01*
X013217Y000706D01*
X012567Y000706D01*
X012667Y000906D01*
X016709Y001324D02*
X016749Y001361D01*
X016786Y001401D01*
X016821Y001443D01*
X016852Y001487D01*
X016881Y001533D01*
X016906Y001581D01*
X016928Y001631D01*
X016947Y001682D01*
X016963Y001734D01*
X016974Y001788D01*
X016982Y001841D01*
X016987Y001896D01*
X016988Y001950D01*
X016985Y002004D01*
X016979Y002059D01*
X016969Y002112D01*
X016955Y002165D01*
X016938Y002216D01*
X016917Y002267D01*
X016894Y002316D01*
X016866Y002363D01*
X016836Y002408D01*
X016803Y002451D01*
X016767Y002492D01*
X016728Y002531D01*
X016687Y002566D01*
X016709Y003294D02*
X016749Y003331D01*
X016786Y003371D01*
X016821Y003413D01*
X016852Y003457D01*
X016881Y003503D01*
X016906Y003551D01*
X016929Y003601D01*
X016947Y003652D01*
X016963Y003704D01*
X016974Y003758D01*
X016982Y003811D01*
X016987Y003866D01*
X016988Y003920D01*
X016985Y003975D01*
X016979Y004029D01*
X016969Y004082D01*
X016955Y004135D01*
X016938Y004186D01*
X016917Y004237D01*
X016894Y004286D01*
X016866Y004333D01*
X016836Y004378D01*
X016803Y004422D01*
X016767Y004462D01*
X016728Y004501D01*
X016687Y004536D01*
X016709Y005261D02*
X016749Y005298D01*
X016786Y005338D01*
X016821Y005380D01*
X016852Y005424D01*
X016881Y005470D01*
X016906Y005518D01*
X016928Y005568D01*
X016947Y005619D01*
X016963Y005671D01*
X016974Y005725D01*
X016982Y005778D01*
X016987Y005833D01*
X016988Y005887D01*
X016985Y005941D01*
X016979Y005996D01*
X016969Y006049D01*
X016955Y006102D01*
X016938Y006153D01*
X016917Y006204D01*
X016894Y006253D01*
X016866Y006300D01*
X016836Y006345D01*
X016803Y006388D01*
X016767Y006429D01*
X016728Y006468D01*
X016687Y006503D01*
X016709Y007231D02*
X016749Y007268D01*
X016786Y007308D01*
X016821Y007350D01*
X016852Y007394D01*
X016881Y007440D01*
X016906Y007488D01*
X016929Y007538D01*
X016947Y007589D01*
X016963Y007641D01*
X016974Y007695D01*
X016982Y007748D01*
X016987Y007803D01*
X016988Y007857D01*
X016985Y007912D01*
X016979Y007966D01*
X016969Y008019D01*
X016955Y008072D01*
X016938Y008123D01*
X016917Y008174D01*
X016894Y008223D01*
X016866Y008270D01*
X016836Y008315D01*
X016803Y008359D01*
X016767Y008399D01*
X016728Y008438D01*
X016687Y008473D01*
X019804Y006537D02*
X019804Y005337D01*
X023804Y005337D01*
X023804Y004737D01*
X023804Y004337D01*
X023434Y004337D01*
X023434Y004187D02*
X023584Y004187D01*
X023584Y002387D01*
X023584Y001637D01*
X023804Y001637D01*
X023804Y002037D01*
X023804Y002487D01*
X023804Y004337D01*
X023741Y004337D02*
X024101Y004337D01*
X024101Y004187D02*
X023951Y004187D01*
X023951Y002387D01*
X023951Y001637D01*
X025551Y001637D01*
X025921Y001637D01*
X027521Y001637D01*
X027521Y002387D01*
X025921Y002387D01*
X025921Y004187D01*
X026071Y004187D01*
X026071Y004337D02*
X025401Y004337D01*
X025401Y004187D02*
X025551Y004187D01*
X025551Y002387D01*
X023951Y002387D01*
X023804Y002487D02*
X024004Y002587D01*
X024004Y001937D01*
X023804Y002037D01*
X023741Y001637D02*
X023741Y004337D01*
X023741Y005337D01*
X023741Y006537D01*
X027741Y006537D01*
X027941Y006537D01*
X027941Y004637D01*
X027741Y004737D01*
X027741Y005337D01*
X023741Y005337D01*
X023804Y005337D02*
X023804Y006537D01*
X024004Y006537D01*
X024004Y004637D01*
X023804Y004737D01*
X024101Y003887D02*
X024101Y002637D01*
X025401Y002637D01*
X025401Y003887D01*
X026071Y003887D02*
X026071Y002637D01*
X027371Y002637D01*
X027371Y003887D01*
X027371Y004187D02*
X027521Y004187D01*
X027521Y002387D01*
X027741Y002487D02*
X027741Y004337D01*
X027371Y004337D01*
X027741Y004337D02*
X027741Y004737D01*
X027741Y005337D02*
X027741Y006537D01*
X027521Y006437D02*
X027521Y005437D01*
X025921Y005437D01*
X025921Y006437D01*
X027521Y006437D01*
X027281Y006087D02*
X026081Y005837D01*
X026131Y005787D02*
X027331Y006037D01*
X027321Y006077D02*
X027340Y006053D01*
X027356Y006028D01*
X027369Y006000D01*
X027379Y005972D01*
X027386Y005942D01*
X027390Y005912D01*
X027390Y005882D01*
X027386Y005851D01*
X027379Y005822D01*
X027369Y005793D01*
X027356Y005766D01*
X027340Y005740D01*
X027321Y005717D01*
X027299Y005695D01*
X027323Y006079D02*
X027286Y006119D01*
X027246Y006156D01*
X027204Y006191D01*
X027160Y006222D01*
X027114Y006251D01*
X027066Y006276D01*
X027016Y006298D01*
X026965Y006317D01*
X026913Y006333D01*
X026859Y006344D01*
X026806Y006352D01*
X026751Y006357D01*
X026697Y006358D01*
X026643Y006355D01*
X026588Y006349D01*
X026535Y006339D01*
X026482Y006325D01*
X026431Y006308D01*
X026380Y006287D01*
X026331Y006264D01*
X026284Y006236D01*
X026239Y006206D01*
X026196Y006173D01*
X026155Y006137D01*
X026116Y006098D01*
X026081Y006057D01*
X026101Y006077D02*
X026082Y006053D01*
X026066Y006028D01*
X026053Y006000D01*
X026044Y005971D01*
X026039Y005942D01*
X026038Y005911D01*
X026041Y005881D01*
X026047Y005852D01*
X026058Y005823D01*
X026072Y005796D01*
X026089Y005772D01*
X026109Y005749D01*
X026132Y005730D01*
X026158Y005713D01*
X025551Y005437D02*
X025551Y006437D01*
X023951Y006437D01*
X023951Y005437D01*
X025551Y005437D01*
X025329Y005695D02*
X025351Y005717D01*
X025370Y005740D01*
X025386Y005766D01*
X025399Y005793D01*
X025409Y005822D01*
X025416Y005851D01*
X025420Y005882D01*
X025420Y005912D01*
X025416Y005942D01*
X025409Y005972D01*
X025399Y006000D01*
X025386Y006028D01*
X025370Y006053D01*
X025351Y006077D01*
X025361Y006037D02*
X024161Y005787D01*
X024111Y005837D02*
X025311Y006087D01*
X025347Y005709D02*
X025298Y005674D01*
X025246Y005643D01*
X025193Y005615D01*
X025138Y005590D01*
X025082Y005569D01*
X025024Y005551D01*
X024966Y005537D01*
X024906Y005527D01*
X024846Y005520D01*
X024786Y005517D01*
X024726Y005518D01*
X024666Y005523D01*
X024606Y005531D01*
X024547Y005543D01*
X024489Y005559D01*
X024432Y005579D01*
X024376Y005602D01*
X024322Y005628D01*
X024270Y005658D01*
X024219Y005691D01*
X024171Y005727D01*
X024188Y005713D02*
X024162Y005730D01*
X024139Y005749D01*
X024119Y005772D01*
X024102Y005796D01*
X024088Y005823D01*
X024077Y005852D01*
X024071Y005881D01*
X024068Y005911D01*
X024069Y005942D01*
X024074Y005971D01*
X024083Y006000D01*
X024096Y006028D01*
X024112Y006053D01*
X024131Y006077D01*
X023804Y006537D02*
X019804Y006537D01*
X020014Y006437D02*
X021614Y006437D01*
X021614Y005437D01*
X020014Y005437D01*
X020014Y006437D01*
X020174Y005837D02*
X021374Y006087D01*
X021424Y006037D02*
X020224Y005787D01*
X020251Y005713D02*
X020225Y005730D01*
X020202Y005749D01*
X020182Y005772D01*
X020165Y005796D01*
X020151Y005823D01*
X020140Y005852D01*
X020134Y005881D01*
X020131Y005911D01*
X020132Y005942D01*
X020137Y005971D01*
X020146Y006000D01*
X020159Y006028D01*
X020175Y006053D01*
X020194Y006077D01*
X020234Y005727D02*
X020282Y005691D01*
X020333Y005658D01*
X020385Y005628D01*
X020439Y005602D01*
X020495Y005579D01*
X020552Y005559D01*
X020610Y005543D01*
X020669Y005531D01*
X020729Y005523D01*
X020789Y005518D01*
X020849Y005517D01*
X020909Y005520D01*
X020969Y005527D01*
X021029Y005537D01*
X021087Y005551D01*
X021145Y005569D01*
X021201Y005590D01*
X021256Y005615D01*
X021309Y005643D01*
X021361Y005674D01*
X021410Y005709D01*
X021392Y005695D02*
X021414Y005717D01*
X021433Y005740D01*
X021449Y005766D01*
X021462Y005793D01*
X021472Y005822D01*
X021479Y005851D01*
X021483Y005882D01*
X021483Y005912D01*
X021479Y005942D01*
X021472Y005972D01*
X021462Y006000D01*
X021449Y006028D01*
X021433Y006053D01*
X021414Y006077D01*
X021984Y006437D02*
X021984Y005437D01*
X023584Y005437D01*
X023584Y006437D01*
X021984Y006437D01*
X022144Y005837D02*
X023344Y006087D01*
X023394Y006037D02*
X022194Y005787D01*
X022221Y005713D02*
X022195Y005730D01*
X022172Y005749D01*
X022152Y005772D01*
X022135Y005796D01*
X022121Y005823D01*
X022110Y005852D01*
X022104Y005881D01*
X022101Y005911D01*
X022102Y005942D01*
X022107Y005971D01*
X022116Y006000D01*
X022129Y006028D01*
X022145Y006053D01*
X022164Y006077D01*
X022204Y005727D02*
X022252Y005691D01*
X022303Y005658D01*
X022355Y005628D01*
X022409Y005602D01*
X022465Y005579D01*
X022522Y005559D01*
X022580Y005543D01*
X022639Y005531D01*
X022699Y005523D01*
X022759Y005518D01*
X022819Y005517D01*
X022879Y005520D01*
X022939Y005527D01*
X022999Y005537D01*
X023057Y005551D01*
X023115Y005569D01*
X023171Y005590D01*
X023226Y005615D01*
X023279Y005643D01*
X023331Y005674D01*
X023380Y005709D01*
X023362Y005695D02*
X023384Y005717D01*
X023403Y005740D01*
X023419Y005766D01*
X023432Y005793D01*
X023442Y005822D01*
X023449Y005851D01*
X023453Y005882D01*
X023453Y005912D01*
X023449Y005942D01*
X023442Y005972D01*
X023432Y006000D01*
X023419Y006028D01*
X023403Y006053D01*
X023384Y006077D01*
X023385Y006079D02*
X023348Y006119D01*
X023308Y006156D01*
X023266Y006191D01*
X023222Y006222D01*
X023176Y006251D01*
X023128Y006276D01*
X023078Y006298D01*
X023027Y006317D01*
X022975Y006333D01*
X022921Y006344D01*
X022868Y006352D01*
X022813Y006357D01*
X022759Y006358D01*
X022705Y006355D01*
X022650Y006349D01*
X022597Y006339D01*
X022544Y006325D01*
X022493Y006308D01*
X022442Y006287D01*
X022393Y006264D01*
X022346Y006236D01*
X022301Y006206D01*
X022258Y006173D01*
X022217Y006137D01*
X022178Y006098D01*
X022143Y006057D01*
X021416Y006079D02*
X021379Y006119D01*
X021339Y006156D01*
X021297Y006191D01*
X021253Y006222D01*
X021207Y006251D01*
X021159Y006276D01*
X021109Y006299D01*
X021058Y006317D01*
X021006Y006333D01*
X020952Y006344D01*
X020899Y006352D01*
X020844Y006357D01*
X020790Y006358D01*
X020735Y006355D01*
X020681Y006349D01*
X020628Y006339D01*
X020575Y006325D01*
X020524Y006308D01*
X020473Y006287D01*
X020424Y006264D01*
X020377Y006236D01*
X020332Y006206D01*
X020288Y006173D01*
X020248Y006137D01*
X020209Y006098D01*
X020174Y006057D01*
X019804Y005337D02*
X019804Y004337D01*
X020164Y004337D01*
X020164Y004187D02*
X020014Y004187D01*
X020014Y002387D01*
X020014Y001637D01*
X021614Y001637D01*
X021984Y001637D01*
X023584Y001637D01*
X023741Y001637D02*
X023951Y001637D01*
X023584Y002387D02*
X021984Y002387D01*
X021984Y004187D01*
X022134Y004187D01*
X022134Y004337D02*
X021464Y004337D01*
X021464Y004187D02*
X021614Y004187D01*
X021614Y002387D01*
X020014Y002387D01*
X020164Y002637D02*
X020164Y003887D01*
X019804Y004337D02*
X019804Y001637D01*
X020014Y001637D01*
X020164Y002637D02*
X021464Y002637D01*
X021464Y003887D01*
X022134Y003887D02*
X022134Y002637D01*
X023434Y002637D01*
X023434Y003887D01*
X021984Y002387D02*
X021984Y001637D01*
X021614Y001637D02*
X021614Y002387D01*
X024111Y006057D02*
X024146Y006098D01*
X024185Y006137D01*
X024225Y006173D01*
X024269Y006206D01*
X024314Y006236D01*
X024361Y006264D01*
X024410Y006287D01*
X024461Y006308D01*
X024512Y006325D01*
X024565Y006339D01*
X024618Y006349D01*
X024672Y006355D01*
X024727Y006358D01*
X024781Y006357D01*
X024836Y006352D01*
X024889Y006344D01*
X024943Y006333D01*
X024995Y006317D01*
X025046Y006299D01*
X025096Y006276D01*
X025144Y006251D01*
X025190Y006222D01*
X025234Y006191D01*
X025276Y006156D01*
X025316Y006119D01*
X025353Y006079D01*
X026141Y005727D02*
X026189Y005691D01*
X026240Y005658D01*
X026292Y005628D01*
X026346Y005602D01*
X026402Y005579D01*
X026459Y005559D01*
X026517Y005543D01*
X026576Y005531D01*
X026636Y005523D01*
X026696Y005518D01*
X026756Y005517D01*
X026816Y005520D01*
X026876Y005527D01*
X026936Y005537D01*
X026994Y005551D01*
X027052Y005569D01*
X027108Y005590D01*
X027163Y005615D01*
X027216Y005643D01*
X027268Y005674D01*
X027317Y005709D01*
X029252Y005337D02*
X029252Y004337D01*
X029612Y004337D01*
X029612Y004187D02*
X029462Y004187D01*
X029462Y002387D01*
X029462Y001637D01*
X031062Y001637D01*
X031432Y001637D01*
X033032Y001637D01*
X033032Y002387D01*
X031432Y002387D01*
X031432Y004187D01*
X031582Y004187D01*
X031582Y004337D02*
X030912Y004337D01*
X030912Y004187D02*
X031062Y004187D01*
X031062Y002387D01*
X029462Y002387D01*
X029612Y002637D02*
X029612Y003887D01*
X029252Y004337D02*
X029252Y001637D01*
X029462Y001637D01*
X029612Y002637D02*
X030912Y002637D01*
X030912Y003887D01*
X031582Y003887D02*
X031582Y002637D01*
X032882Y002637D01*
X032882Y003887D01*
X032882Y004187D02*
X033032Y004187D01*
X033032Y002387D01*
X033252Y002487D02*
X033252Y002037D01*
X033252Y001637D01*
X033032Y001637D01*
X033189Y001637D02*
X033189Y004337D01*
X033549Y004337D01*
X033549Y004187D02*
X033399Y004187D01*
X033399Y002387D01*
X033399Y001637D01*
X034999Y001637D01*
X035369Y001637D01*
X036969Y001637D01*
X036969Y002387D01*
X035369Y002387D01*
X035369Y004187D01*
X035519Y004187D01*
X035519Y004337D02*
X034849Y004337D01*
X034849Y004187D02*
X034999Y004187D01*
X034999Y002387D01*
X033399Y002387D01*
X033252Y002487D02*
X033252Y004337D01*
X032882Y004337D01*
X033189Y004337D02*
X033189Y005337D01*
X033189Y006537D01*
X037189Y006537D01*
X037389Y006537D01*
X037389Y004637D01*
X037189Y004737D01*
X037189Y005337D01*
X033189Y005337D01*
X033252Y005337D02*
X033252Y004737D01*
X033252Y004337D01*
X033452Y004637D02*
X033252Y004737D01*
X033452Y004637D02*
X033452Y006537D01*
X033252Y006537D01*
X029252Y006537D01*
X029252Y005337D01*
X033252Y005337D01*
X033252Y006537D01*
X033399Y006437D02*
X034999Y006437D01*
X034999Y005437D01*
X033399Y005437D01*
X033399Y006437D01*
X033032Y006437D02*
X033032Y005437D01*
X031432Y005437D01*
X031432Y006437D01*
X033032Y006437D01*
X032792Y006087D02*
X031592Y005837D01*
X031642Y005787D02*
X032842Y006037D01*
X032832Y006077D02*
X032851Y006053D01*
X032867Y006028D01*
X032880Y006000D01*
X032890Y005972D01*
X032897Y005942D01*
X032901Y005912D01*
X032901Y005882D01*
X032897Y005851D01*
X032890Y005822D01*
X032880Y005793D01*
X032867Y005766D01*
X032851Y005740D01*
X032832Y005717D01*
X032810Y005695D01*
X032834Y006079D02*
X032797Y006119D01*
X032757Y006156D01*
X032715Y006191D01*
X032671Y006222D01*
X032625Y006251D01*
X032577Y006276D01*
X032527Y006298D01*
X032476Y006317D01*
X032424Y006333D01*
X032370Y006344D01*
X032317Y006352D01*
X032262Y006357D01*
X032208Y006358D01*
X032154Y006355D01*
X032099Y006349D01*
X032046Y006339D01*
X031993Y006325D01*
X031942Y006308D01*
X031891Y006287D01*
X031842Y006264D01*
X031795Y006236D01*
X031750Y006206D01*
X031707Y006173D01*
X031666Y006137D01*
X031627Y006098D01*
X031592Y006057D01*
X031612Y006077D02*
X031593Y006053D01*
X031577Y006028D01*
X031564Y006000D01*
X031555Y005971D01*
X031550Y005942D01*
X031549Y005911D01*
X031552Y005881D01*
X031558Y005852D01*
X031569Y005823D01*
X031583Y005796D01*
X031600Y005772D01*
X031620Y005749D01*
X031643Y005730D01*
X031669Y005713D01*
X031062Y005437D02*
X031062Y006437D01*
X029462Y006437D01*
X029462Y005437D01*
X031062Y005437D01*
X030840Y005695D02*
X030862Y005717D01*
X030881Y005740D01*
X030897Y005766D01*
X030910Y005793D01*
X030920Y005822D01*
X030927Y005851D01*
X030931Y005882D01*
X030931Y005912D01*
X030927Y005942D01*
X030920Y005972D01*
X030910Y006000D01*
X030897Y006028D01*
X030881Y006053D01*
X030862Y006077D01*
X030822Y006087D02*
X029622Y005837D01*
X029672Y005787D02*
X030872Y006037D01*
X030858Y005709D02*
X030809Y005674D01*
X030757Y005643D01*
X030704Y005615D01*
X030649Y005590D01*
X030593Y005569D01*
X030535Y005551D01*
X030477Y005537D01*
X030417Y005527D01*
X030357Y005520D01*
X030297Y005517D01*
X030237Y005518D01*
X030177Y005523D01*
X030117Y005531D01*
X030058Y005543D01*
X030000Y005559D01*
X029943Y005579D01*
X029887Y005602D01*
X029833Y005628D01*
X029781Y005658D01*
X029730Y005691D01*
X029682Y005727D01*
X029699Y005713D02*
X029673Y005730D01*
X029650Y005749D01*
X029630Y005772D01*
X029613Y005796D01*
X029599Y005823D01*
X029588Y005852D01*
X029582Y005881D01*
X029579Y005911D01*
X029580Y005942D01*
X029585Y005971D01*
X029594Y006000D01*
X029607Y006028D01*
X029623Y006053D01*
X029642Y006077D01*
X029622Y006057D02*
X029657Y006098D01*
X029696Y006137D01*
X029736Y006173D01*
X029780Y006206D01*
X029825Y006236D01*
X029872Y006264D01*
X029921Y006287D01*
X029972Y006308D01*
X030023Y006325D01*
X030076Y006339D01*
X030129Y006349D01*
X030183Y006355D01*
X030238Y006358D01*
X030292Y006357D01*
X030347Y006352D01*
X030400Y006344D01*
X030454Y006333D01*
X030506Y006317D01*
X030557Y006299D01*
X030607Y006276D01*
X030655Y006251D01*
X030701Y006222D01*
X030745Y006191D01*
X030787Y006156D01*
X030827Y006119D01*
X030864Y006079D01*
X031652Y005727D02*
X031700Y005691D01*
X031751Y005658D01*
X031803Y005628D01*
X031857Y005602D01*
X031913Y005579D01*
X031970Y005559D01*
X032028Y005543D01*
X032087Y005531D01*
X032147Y005523D01*
X032207Y005518D01*
X032267Y005517D01*
X032327Y005520D01*
X032387Y005527D01*
X032447Y005537D01*
X032505Y005551D01*
X032563Y005569D01*
X032619Y005590D01*
X032674Y005615D01*
X032727Y005643D01*
X032779Y005674D01*
X032828Y005709D01*
X033559Y005837D02*
X034759Y006087D01*
X034809Y006037D02*
X033609Y005787D01*
X033636Y005713D02*
X033610Y005730D01*
X033587Y005749D01*
X033567Y005772D01*
X033550Y005796D01*
X033536Y005823D01*
X033525Y005852D01*
X033519Y005881D01*
X033516Y005911D01*
X033517Y005942D01*
X033522Y005971D01*
X033531Y006000D01*
X033544Y006028D01*
X033560Y006053D01*
X033579Y006077D01*
X033559Y006057D02*
X033594Y006098D01*
X033633Y006137D01*
X033673Y006173D01*
X033717Y006206D01*
X033762Y006236D01*
X033809Y006264D01*
X033858Y006287D01*
X033909Y006308D01*
X033960Y006325D01*
X034013Y006339D01*
X034066Y006349D01*
X034120Y006355D01*
X034175Y006358D01*
X034229Y006357D01*
X034284Y006352D01*
X034337Y006344D01*
X034391Y006333D01*
X034443Y006317D01*
X034494Y006299D01*
X034544Y006276D01*
X034592Y006251D01*
X034638Y006222D01*
X034682Y006191D01*
X034724Y006156D01*
X034764Y006119D01*
X034801Y006079D01*
X034799Y006077D02*
X034818Y006053D01*
X034834Y006028D01*
X034847Y006000D01*
X034857Y005972D01*
X034864Y005942D01*
X034868Y005912D01*
X034868Y005882D01*
X034864Y005851D01*
X034857Y005822D01*
X034847Y005793D01*
X034834Y005766D01*
X034818Y005740D01*
X034799Y005717D01*
X034777Y005695D01*
X035369Y005437D02*
X035369Y006437D01*
X036969Y006437D01*
X036969Y005437D01*
X035369Y005437D01*
X035579Y005787D02*
X036779Y006037D01*
X036729Y006087D02*
X035529Y005837D01*
X035606Y005713D02*
X035580Y005730D01*
X035557Y005749D01*
X035537Y005772D01*
X035520Y005796D01*
X035506Y005823D01*
X035495Y005852D01*
X035489Y005881D01*
X035486Y005911D01*
X035487Y005942D01*
X035492Y005971D01*
X035501Y006000D01*
X035514Y006028D01*
X035530Y006053D01*
X035549Y006077D01*
X035589Y005727D02*
X035637Y005691D01*
X035688Y005658D01*
X035740Y005628D01*
X035794Y005602D01*
X035850Y005579D01*
X035907Y005559D01*
X035965Y005543D01*
X036024Y005531D01*
X036084Y005523D01*
X036144Y005518D01*
X036204Y005517D01*
X036264Y005520D01*
X036324Y005527D01*
X036384Y005537D01*
X036442Y005551D01*
X036500Y005569D01*
X036556Y005590D01*
X036611Y005615D01*
X036664Y005643D01*
X036716Y005674D01*
X036765Y005709D01*
X036747Y005695D02*
X036769Y005717D01*
X036788Y005740D01*
X036804Y005766D01*
X036817Y005793D01*
X036827Y005822D01*
X036834Y005851D01*
X036838Y005882D01*
X036838Y005912D01*
X036834Y005942D01*
X036827Y005972D01*
X036817Y006000D01*
X036804Y006028D01*
X036788Y006053D01*
X036769Y006077D01*
X037189Y006537D02*
X037189Y005337D01*
X037189Y004737D02*
X037189Y004337D01*
X036819Y004337D01*
X036819Y004187D02*
X036969Y004187D01*
X036969Y002387D01*
X037189Y002487D02*
X037189Y002037D01*
X037189Y001637D01*
X036969Y001637D01*
X037189Y002037D02*
X037389Y001937D01*
X037389Y002587D01*
X037189Y002487D01*
X037189Y004337D01*
X036819Y003887D02*
X036819Y002637D01*
X035519Y002637D01*
X035519Y003887D01*
X034849Y003887D02*
X034849Y002637D01*
X033549Y002637D01*
X033549Y003887D01*
X033452Y002587D02*
X033452Y001937D01*
X033252Y002037D01*
X033189Y001637D02*
X033399Y001637D01*
X033252Y002487D02*
X033452Y002587D01*
X034999Y002387D02*
X034999Y001637D01*
X035369Y001637D02*
X035369Y002387D01*
X035529Y006057D02*
X035564Y006098D01*
X035603Y006137D01*
X035644Y006173D01*
X035687Y006206D01*
X035732Y006236D01*
X035779Y006264D01*
X035828Y006287D01*
X035879Y006308D01*
X035930Y006325D01*
X035983Y006339D01*
X036036Y006349D01*
X036091Y006355D01*
X036145Y006358D01*
X036199Y006357D01*
X036254Y006352D01*
X036307Y006344D01*
X036361Y006333D01*
X036413Y006317D01*
X036464Y006298D01*
X036514Y006276D01*
X036562Y006251D01*
X036608Y006222D01*
X036652Y006191D01*
X036694Y006156D01*
X036734Y006119D01*
X036771Y006079D01*
X038701Y006537D02*
X038701Y005337D01*
X042701Y005337D01*
X042701Y004737D01*
X042701Y004337D01*
X042331Y004337D01*
X042331Y004187D02*
X042481Y004187D01*
X042481Y002387D01*
X042481Y001637D01*
X042701Y001637D01*
X042701Y002037D01*
X042701Y002487D01*
X042701Y004337D01*
X042901Y004637D02*
X042701Y004737D01*
X042901Y004637D02*
X042901Y006537D01*
X042701Y006537D01*
X038701Y006537D01*
X038911Y006437D02*
X040511Y006437D01*
X040511Y005437D01*
X038911Y005437D01*
X038911Y006437D01*
X039071Y005837D02*
X040271Y006087D01*
X040321Y006037D02*
X039121Y005787D01*
X039148Y005713D02*
X039122Y005730D01*
X039099Y005749D01*
X039079Y005772D01*
X039062Y005796D01*
X039048Y005823D01*
X039037Y005852D01*
X039031Y005881D01*
X039028Y005911D01*
X039029Y005942D01*
X039034Y005971D01*
X039043Y006000D01*
X039056Y006028D01*
X039072Y006053D01*
X039091Y006077D01*
X039131Y005727D02*
X039179Y005691D01*
X039230Y005658D01*
X039282Y005628D01*
X039336Y005602D01*
X039392Y005579D01*
X039449Y005559D01*
X039507Y005543D01*
X039566Y005531D01*
X039626Y005523D01*
X039686Y005518D01*
X039746Y005517D01*
X039806Y005520D01*
X039866Y005527D01*
X039926Y005537D01*
X039984Y005551D01*
X040042Y005569D01*
X040098Y005590D01*
X040153Y005615D01*
X040206Y005643D01*
X040258Y005674D01*
X040307Y005709D01*
X040289Y005695D02*
X040311Y005717D01*
X040330Y005740D01*
X040346Y005766D01*
X040359Y005793D01*
X040369Y005822D01*
X040376Y005851D01*
X040380Y005882D01*
X040380Y005912D01*
X040376Y005942D01*
X040369Y005972D01*
X040359Y006000D01*
X040346Y006028D01*
X040330Y006053D01*
X040311Y006077D01*
X040881Y006437D02*
X040881Y005437D01*
X042481Y005437D01*
X042481Y006437D01*
X040881Y006437D01*
X041041Y005837D02*
X042241Y006087D01*
X042291Y006037D02*
X041091Y005787D01*
X041118Y005713D02*
X041092Y005730D01*
X041069Y005749D01*
X041049Y005772D01*
X041032Y005796D01*
X041018Y005823D01*
X041007Y005852D01*
X041001Y005881D01*
X040998Y005911D01*
X040999Y005942D01*
X041004Y005971D01*
X041013Y006000D01*
X041026Y006028D01*
X041042Y006053D01*
X041061Y006077D01*
X041101Y005727D02*
X041149Y005691D01*
X041200Y005658D01*
X041252Y005628D01*
X041306Y005602D01*
X041362Y005579D01*
X041419Y005559D01*
X041477Y005543D01*
X041536Y005531D01*
X041596Y005523D01*
X041656Y005518D01*
X041716Y005517D01*
X041776Y005520D01*
X041836Y005527D01*
X041896Y005537D01*
X041954Y005551D01*
X042012Y005569D01*
X042068Y005590D01*
X042123Y005615D01*
X042176Y005643D01*
X042228Y005674D01*
X042277Y005709D01*
X042259Y005695D02*
X042281Y005717D01*
X042300Y005740D01*
X042316Y005766D01*
X042329Y005793D01*
X042339Y005822D01*
X042346Y005851D01*
X042350Y005882D01*
X042350Y005912D01*
X042346Y005942D01*
X042339Y005972D01*
X042329Y006000D01*
X042316Y006028D01*
X042300Y006053D01*
X042281Y006077D01*
X042701Y006537D02*
X042701Y005337D01*
X042283Y006079D02*
X042246Y006119D01*
X042206Y006156D01*
X042164Y006191D01*
X042120Y006222D01*
X042074Y006251D01*
X042026Y006276D01*
X041976Y006298D01*
X041925Y006317D01*
X041873Y006333D01*
X041819Y006344D01*
X041766Y006352D01*
X041711Y006357D01*
X041657Y006358D01*
X041603Y006355D01*
X041548Y006349D01*
X041495Y006339D01*
X041442Y006325D01*
X041391Y006308D01*
X041340Y006287D01*
X041291Y006264D01*
X041244Y006236D01*
X041199Y006206D01*
X041156Y006173D01*
X041115Y006137D01*
X041076Y006098D01*
X041041Y006057D01*
X040313Y006079D02*
X040276Y006119D01*
X040236Y006156D01*
X040194Y006191D01*
X040150Y006222D01*
X040104Y006251D01*
X040056Y006276D01*
X040006Y006299D01*
X039955Y006317D01*
X039903Y006333D01*
X039849Y006344D01*
X039796Y006352D01*
X039741Y006357D01*
X039687Y006358D01*
X039632Y006355D01*
X039578Y006349D01*
X039525Y006339D01*
X039472Y006325D01*
X039421Y006308D01*
X039370Y006287D01*
X039321Y006264D01*
X039274Y006236D01*
X039229Y006206D01*
X039185Y006173D01*
X039145Y006137D01*
X039106Y006098D01*
X039071Y006057D01*
X038701Y005337D02*
X038701Y004337D01*
X039061Y004337D01*
X039061Y004187D02*
X038911Y004187D01*
X038911Y002387D01*
X038911Y001637D01*
X040511Y001637D01*
X040881Y001637D01*
X042481Y001637D01*
X042701Y002037D02*
X042901Y001937D01*
X042901Y002587D01*
X042701Y002487D01*
X042481Y002387D02*
X040881Y002387D01*
X040881Y004187D01*
X041031Y004187D01*
X041031Y004337D02*
X040361Y004337D01*
X040361Y004187D02*
X040511Y004187D01*
X040511Y002387D01*
X038911Y002387D01*
X039061Y002637D02*
X039061Y003887D01*
X038701Y004337D02*
X038701Y001637D01*
X038911Y001637D01*
X039061Y002637D02*
X040361Y002637D01*
X040361Y003887D01*
X041031Y003887D02*
X041031Y002637D01*
X042331Y002637D01*
X042331Y003887D01*
X044227Y004337D02*
X044577Y004337D01*
X044577Y004187D02*
X044427Y004187D01*
X044427Y002387D01*
X044427Y001637D01*
X046027Y001637D01*
X046397Y001637D01*
X047997Y001637D01*
X047997Y002387D01*
X046397Y002387D01*
X046397Y004187D01*
X046547Y004187D01*
X046547Y004337D02*
X045877Y004337D01*
X045877Y004187D02*
X046027Y004187D01*
X046027Y002387D01*
X044427Y002387D01*
X044577Y002637D02*
X044577Y003887D01*
X044227Y004337D02*
X044227Y005337D01*
X044227Y006537D01*
X050167Y006537D01*
X050367Y006537D01*
X050367Y004637D01*
X050167Y004737D01*
X050167Y005337D01*
X044227Y005337D01*
X044427Y005437D02*
X044427Y006437D01*
X046027Y006437D01*
X046027Y005437D01*
X044427Y005437D01*
X044647Y005787D02*
X045847Y006037D01*
X045797Y006087D02*
X044597Y005837D01*
X044674Y005713D02*
X044648Y005730D01*
X044625Y005749D01*
X044605Y005772D01*
X044588Y005796D01*
X044574Y005823D01*
X044563Y005852D01*
X044557Y005881D01*
X044554Y005911D01*
X044555Y005942D01*
X044560Y005971D01*
X044569Y006000D01*
X044582Y006028D01*
X044598Y006053D01*
X044617Y006077D01*
X044597Y006057D02*
X044632Y006098D01*
X044671Y006137D01*
X044711Y006173D01*
X044755Y006206D01*
X044800Y006236D01*
X044847Y006264D01*
X044896Y006287D01*
X044947Y006308D01*
X044998Y006325D01*
X045051Y006339D01*
X045104Y006349D01*
X045158Y006355D01*
X045213Y006358D01*
X045267Y006357D01*
X045322Y006352D01*
X045375Y006344D01*
X045429Y006333D01*
X045481Y006317D01*
X045532Y006299D01*
X045582Y006276D01*
X045630Y006251D01*
X045676Y006222D01*
X045720Y006191D01*
X045762Y006156D01*
X045802Y006119D01*
X045839Y006079D01*
X045837Y006077D02*
X045856Y006053D01*
X045872Y006028D01*
X045885Y006000D01*
X045895Y005972D01*
X045902Y005942D01*
X045906Y005912D01*
X045906Y005882D01*
X045902Y005851D01*
X045895Y005822D01*
X045885Y005793D01*
X045872Y005766D01*
X045856Y005740D01*
X045837Y005717D01*
X045815Y005695D01*
X046397Y005437D02*
X046397Y006437D01*
X047997Y006437D01*
X047997Y005437D01*
X046397Y005437D01*
X046607Y005787D02*
X047807Y006037D01*
X047757Y006087D02*
X046557Y005837D01*
X046634Y005713D02*
X046608Y005730D01*
X046585Y005749D01*
X046565Y005772D01*
X046548Y005796D01*
X046534Y005823D01*
X046523Y005852D01*
X046517Y005881D01*
X046514Y005911D01*
X046515Y005942D01*
X046520Y005971D01*
X046529Y006000D01*
X046542Y006028D01*
X046558Y006053D01*
X046577Y006077D01*
X046617Y005727D02*
X046665Y005691D01*
X046716Y005658D01*
X046768Y005628D01*
X046822Y005602D01*
X046878Y005579D01*
X046935Y005559D01*
X046993Y005543D01*
X047052Y005531D01*
X047112Y005523D01*
X047172Y005518D01*
X047232Y005517D01*
X047292Y005520D01*
X047352Y005527D01*
X047412Y005537D01*
X047470Y005551D01*
X047528Y005569D01*
X047584Y005590D01*
X047639Y005615D01*
X047692Y005643D01*
X047744Y005674D01*
X047793Y005709D01*
X047775Y005695D02*
X047797Y005717D01*
X047816Y005740D01*
X047832Y005766D01*
X047845Y005793D01*
X047855Y005822D01*
X047862Y005851D01*
X047866Y005882D01*
X047866Y005912D01*
X047862Y005942D01*
X047855Y005972D01*
X047845Y006000D01*
X047832Y006028D01*
X047816Y006053D01*
X047797Y006077D01*
X048367Y006437D02*
X048367Y005437D01*
X049967Y005437D01*
X049967Y006437D01*
X048367Y006437D01*
X048527Y005837D02*
X049727Y006087D01*
X049777Y006037D02*
X048577Y005787D01*
X048604Y005713D02*
X048578Y005730D01*
X048555Y005749D01*
X048535Y005772D01*
X048518Y005796D01*
X048504Y005823D01*
X048493Y005852D01*
X048487Y005881D01*
X048484Y005911D01*
X048485Y005942D01*
X048490Y005971D01*
X048499Y006000D01*
X048512Y006028D01*
X048528Y006053D01*
X048547Y006077D01*
X048587Y005727D02*
X048635Y005691D01*
X048686Y005658D01*
X048738Y005628D01*
X048792Y005602D01*
X048848Y005579D01*
X048905Y005559D01*
X048963Y005543D01*
X049022Y005531D01*
X049082Y005523D01*
X049142Y005518D01*
X049202Y005517D01*
X049262Y005520D01*
X049322Y005527D01*
X049382Y005537D01*
X049440Y005551D01*
X049498Y005569D01*
X049554Y005590D01*
X049609Y005615D01*
X049662Y005643D01*
X049714Y005674D01*
X049763Y005709D01*
X049745Y005695D02*
X049767Y005717D01*
X049786Y005740D01*
X049802Y005766D01*
X049815Y005793D01*
X049825Y005822D01*
X049832Y005851D01*
X049836Y005882D01*
X049836Y005912D01*
X049832Y005942D01*
X049825Y005972D01*
X049815Y006000D01*
X049802Y006028D01*
X049786Y006053D01*
X049767Y006077D01*
X050167Y006537D02*
X050167Y005337D01*
X050167Y004737D02*
X050167Y004337D01*
X049817Y004337D01*
X049817Y004187D02*
X049967Y004187D01*
X049967Y002387D01*
X048367Y002387D01*
X048367Y004187D01*
X048527Y004187D01*
X048517Y004337D02*
X047857Y004337D01*
X047847Y004187D02*
X047997Y004187D01*
X047997Y002387D01*
X047847Y002637D02*
X046547Y002637D01*
X046547Y003887D01*
X045877Y003887D02*
X045877Y002637D01*
X044577Y002637D01*
X044427Y001637D02*
X044227Y001637D01*
X044227Y004337D01*
X044657Y005727D02*
X044705Y005691D01*
X044756Y005658D01*
X044808Y005628D01*
X044862Y005602D01*
X044918Y005579D01*
X044975Y005559D01*
X045033Y005543D01*
X045092Y005531D01*
X045152Y005523D01*
X045212Y005518D01*
X045272Y005517D01*
X045332Y005520D01*
X045392Y005527D01*
X045452Y005537D01*
X045510Y005551D01*
X045568Y005569D01*
X045624Y005590D01*
X045679Y005615D01*
X045732Y005643D01*
X045784Y005674D01*
X045833Y005709D01*
X046557Y006057D02*
X046592Y006098D01*
X046631Y006137D01*
X046671Y006173D01*
X046715Y006206D01*
X046760Y006236D01*
X046807Y006264D01*
X046856Y006287D01*
X046907Y006308D01*
X046958Y006325D01*
X047011Y006339D01*
X047064Y006349D01*
X047118Y006355D01*
X047173Y006358D01*
X047227Y006357D01*
X047282Y006352D01*
X047335Y006344D01*
X047389Y006333D01*
X047441Y006317D01*
X047492Y006299D01*
X047542Y006276D01*
X047590Y006251D01*
X047636Y006222D01*
X047680Y006191D01*
X047722Y006156D01*
X047762Y006119D01*
X047799Y006079D01*
X048527Y006057D02*
X048562Y006098D01*
X048601Y006137D01*
X048642Y006173D01*
X048685Y006206D01*
X048730Y006236D01*
X048777Y006264D01*
X048826Y006287D01*
X048877Y006308D01*
X048928Y006325D01*
X048981Y006339D01*
X049034Y006349D01*
X049089Y006355D01*
X049143Y006358D01*
X049197Y006357D01*
X049252Y006352D01*
X049305Y006344D01*
X049359Y006333D01*
X049411Y006317D01*
X049462Y006298D01*
X049512Y006276D01*
X049560Y006251D01*
X049606Y006222D01*
X049650Y006191D01*
X049692Y006156D01*
X049732Y006119D01*
X049769Y006079D01*
X050167Y004337D02*
X050167Y002487D01*
X050167Y002037D01*
X050167Y001637D01*
X049967Y001637D01*
X048367Y001637D01*
X048367Y002387D01*
X048517Y002637D02*
X048517Y003887D01*
X047847Y003887D02*
X047847Y002637D01*
X048517Y002637D02*
X049817Y002637D01*
X049817Y003887D01*
X050367Y002587D02*
X050367Y001937D01*
X050167Y002037D01*
X049967Y002387D02*
X049967Y001637D01*
X050167Y002487D02*
X050367Y002587D01*
X048367Y001637D02*
X047997Y001637D01*
X046397Y001637D02*
X046397Y002387D01*
X046027Y002387D02*
X046027Y001637D01*
X040881Y001637D02*
X040881Y002387D01*
X040511Y002387D02*
X040511Y001637D01*
X034795Y005709D02*
X034746Y005674D01*
X034694Y005643D01*
X034641Y005615D01*
X034586Y005590D01*
X034530Y005569D01*
X034472Y005551D01*
X034414Y005537D01*
X034354Y005527D01*
X034294Y005520D01*
X034234Y005517D01*
X034174Y005518D01*
X034114Y005523D01*
X034054Y005531D01*
X033995Y005543D01*
X033937Y005559D01*
X033880Y005579D01*
X033824Y005602D01*
X033770Y005628D01*
X033718Y005658D01*
X033667Y005691D01*
X033619Y005727D01*
X031432Y002387D02*
X031432Y001637D01*
X031062Y001637D02*
X031062Y002387D01*
X027941Y002587D02*
X027941Y001937D01*
X027741Y002037D01*
X027741Y002487D01*
X027941Y002587D01*
X027741Y002037D02*
X027741Y001637D01*
X027521Y001637D01*
X025921Y001637D02*
X025921Y002387D01*
X025551Y002387D02*
X025551Y001637D01*
X019058Y013271D02*
X019165Y013377D01*
X019165Y013804D01*
X019058Y013911D01*
X018845Y013911D01*
X018738Y013804D01*
X018738Y013698D01*
X018845Y013591D01*
X019165Y013591D01*
X019058Y013271D02*
X018845Y013271D01*
X018738Y013377D01*
X018414Y013377D02*
X018414Y013911D01*
X018520Y013911D02*
X018307Y013911D01*
X018414Y013377D02*
X018307Y013271D01*
X018200Y013271D01*
X018093Y013377D01*
X017435Y013760D02*
X017435Y014260D01*
X017685Y014510D02*
X018185Y014510D01*
X018185Y016010D01*
X017685Y016010D01*
X017435Y016260D02*
X017435Y016760D01*
X016085Y016760D01*
X017285Y019760D01*
X015935Y019760D01*
X015935Y020260D01*
X015685Y020510D02*
X015185Y020510D01*
X015185Y022010D01*
X015685Y022010D01*
X015935Y022260D02*
X015935Y022760D01*
X017435Y022760D01*
X017435Y022260D01*
X017685Y022010D02*
X018185Y022010D01*
X018185Y020510D01*
X017685Y020510D01*
X017435Y020260D02*
X017435Y019760D01*
X017285Y019760D01*
X017785Y020010D02*
X017785Y016510D01*
X019122Y016010D02*
X019622Y016010D01*
X019872Y016260D02*
X019872Y016760D01*
X020022Y016760D01*
X021372Y016760D01*
X021372Y016260D01*
X021622Y016010D02*
X022122Y016010D01*
X022122Y014510D01*
X021622Y014510D01*
X021372Y014260D02*
X021372Y013760D01*
X019872Y013760D01*
X019872Y014260D01*
X019622Y014510D02*
X019122Y014510D01*
X019122Y016010D01*
X019522Y016510D02*
X019522Y020010D01*
X019872Y020260D02*
X019872Y019760D01*
X021222Y019760D01*
X020022Y016760D01*
X020572Y018260D02*
X020574Y018273D01*
X020579Y018286D01*
X020588Y018297D01*
X020599Y018304D01*
X020612Y018309D01*
X020625Y018310D01*
X020639Y018307D01*
X020651Y018301D01*
X020661Y018292D01*
X020668Y018280D01*
X020672Y018267D01*
X020672Y018253D01*
X020668Y018240D01*
X020661Y018228D01*
X020651Y018219D01*
X020639Y018213D01*
X020625Y018210D01*
X020612Y018211D01*
X020599Y018216D01*
X020588Y018223D01*
X020579Y018234D01*
X020574Y018247D01*
X020572Y018260D01*
X019220Y018328D02*
X018580Y018328D01*
X018580Y018755D01*
X018687Y018972D02*
X018580Y019079D01*
X018580Y019292D01*
X018687Y019399D01*
X018793Y019399D01*
X018900Y019292D01*
X019007Y019399D01*
X019114Y019399D01*
X019220Y019292D01*
X019220Y019079D01*
X019114Y018972D01*
X018900Y019186D02*
X018900Y019292D01*
X018900Y018541D02*
X018900Y018328D01*
X019122Y020510D02*
X019122Y022010D01*
X019622Y022010D01*
X019872Y022260D02*
X019872Y022760D01*
X021372Y022760D01*
X021372Y022260D01*
X021622Y022010D02*
X022122Y022010D01*
X022122Y020510D01*
X021622Y020510D01*
X021372Y020260D02*
X021372Y019760D01*
X021222Y019760D01*
X021722Y020010D02*
X021722Y016510D01*
X023059Y016010D02*
X023559Y016010D01*
X023809Y016260D02*
X023809Y016760D01*
X023959Y016760D01*
X025309Y016760D01*
X025309Y016260D01*
X025559Y016010D02*
X026059Y016010D01*
X026059Y014510D01*
X025559Y014510D01*
X025309Y014260D02*
X025309Y013760D01*
X023809Y013760D01*
X023809Y014260D01*
X023559Y014510D02*
X023059Y014510D01*
X023059Y016010D01*
X023459Y016510D02*
X023459Y020010D01*
X023809Y020260D02*
X023809Y019760D01*
X025159Y019760D01*
X023959Y016760D01*
X024509Y018260D02*
X024511Y018273D01*
X024516Y018286D01*
X024525Y018297D01*
X024536Y018304D01*
X024549Y018309D01*
X024562Y018310D01*
X024576Y018307D01*
X024588Y018301D01*
X024598Y018292D01*
X024605Y018280D01*
X024609Y018267D01*
X024609Y018253D01*
X024605Y018240D01*
X024598Y018228D01*
X024588Y018219D01*
X024576Y018213D01*
X024562Y018210D01*
X024549Y018211D01*
X024536Y018216D01*
X024525Y018223D01*
X024516Y018234D01*
X024511Y018247D01*
X024509Y018260D01*
X023256Y018328D02*
X022615Y018328D01*
X022615Y018755D01*
X022829Y018972D02*
X022615Y019186D01*
X023256Y019186D01*
X023256Y019399D02*
X023256Y018972D01*
X022936Y018541D02*
X022936Y018328D01*
X023059Y020510D02*
X023059Y022010D01*
X023559Y022010D01*
X023809Y022260D02*
X023809Y022760D01*
X025309Y022760D01*
X025309Y022260D01*
X025559Y022010D02*
X026059Y022010D01*
X026059Y020510D01*
X025559Y020510D01*
X025309Y020260D02*
X025309Y019760D01*
X025159Y019760D01*
X025659Y020010D02*
X025659Y016510D01*
X023559Y020510D02*
X023059Y020510D01*
X019622Y020510D02*
X019122Y020510D01*
X017787Y023015D02*
X017360Y023015D01*
X017787Y023442D01*
X017787Y023548D01*
X017680Y023655D01*
X017467Y023655D01*
X017360Y023548D01*
X017142Y023655D02*
X016929Y023655D01*
X017036Y023655D02*
X017036Y023121D01*
X016929Y023015D01*
X016822Y023015D01*
X016715Y023121D01*
X015585Y020010D02*
X015585Y016510D01*
X015935Y016260D02*
X015935Y016760D01*
X016085Y016760D01*
X015685Y016010D02*
X015185Y016010D01*
X015185Y014510D01*
X015685Y014510D01*
X015935Y014260D02*
X015935Y013760D01*
X017435Y013760D01*
X016635Y018260D02*
X016637Y018273D01*
X016642Y018286D01*
X016651Y018297D01*
X016662Y018304D01*
X016675Y018309D01*
X016688Y018310D01*
X016702Y018307D01*
X016714Y018301D01*
X016724Y018292D01*
X016731Y018280D01*
X016735Y018267D01*
X016735Y018253D01*
X016731Y018240D01*
X016724Y018228D01*
X016714Y018219D01*
X016702Y018213D01*
X016688Y018210D01*
X016675Y018211D01*
X016662Y018216D01*
X016651Y018223D01*
X016642Y018234D01*
X016637Y018247D01*
X016635Y018260D01*
X015283Y018328D02*
X014643Y018328D01*
X014643Y018755D01*
X014963Y018541D02*
X014963Y018328D01*
X014963Y018972D02*
X014963Y019399D01*
X014643Y019292D02*
X014963Y018972D01*
X015283Y019292D02*
X014643Y019292D01*
X012870Y020510D02*
X012870Y022010D01*
X012370Y022010D01*
X012120Y022260D02*
X012120Y022760D01*
X010620Y022760D01*
X010620Y022260D01*
X010370Y022010D02*
X009870Y022010D01*
X009870Y020510D01*
X010370Y020510D01*
X010620Y020260D02*
X010620Y019760D01*
X011970Y019760D01*
X010770Y016760D01*
X012120Y016760D01*
X012120Y016260D01*
X012370Y016010D02*
X012870Y016010D01*
X012870Y014510D01*
X012370Y014510D01*
X012120Y014260D02*
X012120Y013760D01*
X010620Y013760D01*
X010620Y014260D01*
X010370Y014510D02*
X009870Y014510D01*
X009870Y016010D01*
X010370Y016010D01*
X010620Y016260D02*
X010620Y016760D01*
X010770Y016760D01*
X010270Y016510D02*
X010270Y020010D01*
X009960Y019399D02*
X009747Y019399D01*
X009640Y019292D01*
X009640Y019186D01*
X009747Y018972D01*
X009426Y018972D01*
X009426Y019399D01*
X009960Y019399D02*
X010067Y019292D01*
X010067Y019079D01*
X009960Y018972D01*
X009747Y018541D02*
X009747Y018328D01*
X010067Y018328D02*
X009426Y018328D01*
X009426Y018755D01*
X011320Y018260D02*
X011322Y018273D01*
X011327Y018286D01*
X011336Y018297D01*
X011347Y018304D01*
X011360Y018309D01*
X011373Y018310D01*
X011387Y018307D01*
X011399Y018301D01*
X011409Y018292D01*
X011416Y018280D01*
X011420Y018267D01*
X011420Y018253D01*
X011416Y018240D01*
X011409Y018228D01*
X011399Y018219D01*
X011387Y018213D01*
X011373Y018210D01*
X011360Y018211D01*
X011347Y018216D01*
X011336Y018223D01*
X011327Y018234D01*
X011322Y018247D01*
X011320Y018260D01*
X011970Y019760D02*
X012120Y019760D01*
X012120Y020260D01*
X012370Y020510D02*
X012870Y020510D01*
X012470Y020010D02*
X012470Y016510D01*
X008732Y014502D02*
X008518Y014395D01*
X008305Y014181D01*
X008625Y014181D01*
X008732Y014075D01*
X008732Y013968D01*
X008625Y013861D01*
X008412Y013861D01*
X008305Y013968D01*
X008305Y014181D01*
X008087Y014502D02*
X007874Y014502D01*
X007981Y014502D02*
X007981Y013968D01*
X007874Y013861D01*
X007767Y013861D01*
X007660Y013968D01*
X005243Y015079D02*
X004543Y015079D01*
X002843Y015079D01*
X002293Y015079D01*
X002293Y019079D01*
X002843Y019079D01*
X004543Y019079D01*
X004543Y015079D01*
X005243Y015079D02*
X005243Y019079D01*
X004893Y019079D01*
X004543Y019079D01*
X004493Y019279D01*
X004943Y019279D01*
X004893Y019079D01*
X004693Y018069D02*
X004695Y018097D01*
X004701Y018124D01*
X004710Y018150D01*
X004723Y018175D01*
X004740Y018198D01*
X004759Y018218D01*
X004781Y018235D01*
X004805Y018249D01*
X004831Y018259D01*
X004858Y018266D01*
X004886Y018269D01*
X004914Y018268D01*
X004941Y018263D01*
X004968Y018254D01*
X004993Y018242D01*
X005016Y018227D01*
X005037Y018208D01*
X005055Y018187D01*
X005070Y018163D01*
X005081Y018137D01*
X005089Y018111D01*
X005093Y018083D01*
X005093Y018055D01*
X005089Y018027D01*
X005081Y018001D01*
X005070Y017975D01*
X005055Y017951D01*
X005037Y017930D01*
X005016Y017911D01*
X004993Y017896D01*
X004968Y017884D01*
X004941Y017875D01*
X004914Y017870D01*
X004886Y017869D01*
X004858Y017872D01*
X004831Y017879D01*
X004805Y017889D01*
X004781Y017903D01*
X004759Y017920D01*
X004740Y017940D01*
X004723Y017963D01*
X004710Y017988D01*
X004701Y018014D01*
X004695Y018041D01*
X004693Y018069D01*
X004693Y016089D02*
X004695Y016117D01*
X004701Y016144D01*
X004710Y016170D01*
X004723Y016195D01*
X004740Y016218D01*
X004759Y016238D01*
X004781Y016255D01*
X004805Y016269D01*
X004831Y016279D01*
X004858Y016286D01*
X004886Y016289D01*
X004914Y016288D01*
X004941Y016283D01*
X004968Y016274D01*
X004993Y016262D01*
X005016Y016247D01*
X005037Y016228D01*
X005055Y016207D01*
X005070Y016183D01*
X005081Y016157D01*
X005089Y016131D01*
X005093Y016103D01*
X005093Y016075D01*
X005089Y016047D01*
X005081Y016021D01*
X005070Y015995D01*
X005055Y015971D01*
X005037Y015950D01*
X005016Y015931D01*
X004993Y015916D01*
X004968Y015904D01*
X004941Y015895D01*
X004914Y015890D01*
X004886Y015889D01*
X004858Y015892D01*
X004831Y015899D01*
X004805Y015909D01*
X004781Y015923D01*
X004759Y015940D01*
X004740Y015960D01*
X004723Y015983D01*
X004710Y016008D01*
X004701Y016034D01*
X004695Y016061D01*
X004693Y016089D01*
X002843Y015079D02*
X002843Y019079D01*
X002193Y020797D02*
X001543Y020797D01*
X001643Y020997D01*
X002093Y020997D01*
X003943Y020997D01*
X003943Y021347D01*
X003793Y021347D02*
X003793Y021197D01*
X001993Y021197D01*
X001993Y022797D01*
X003793Y022797D01*
X003793Y022637D01*
X003943Y022647D02*
X003943Y023307D01*
X003793Y023317D02*
X003793Y023167D01*
X001993Y023167D01*
X001243Y023167D01*
X001243Y022797D01*
X001243Y021197D01*
X001993Y021197D01*
X002093Y020997D02*
X002193Y020797D01*
X002243Y021347D02*
X003493Y021347D01*
X003943Y020997D02*
X004343Y020997D01*
X004943Y020997D01*
X004943Y026917D01*
X006143Y026917D01*
X006143Y030877D01*
X004943Y030877D01*
X004943Y026917D01*
X003943Y026917D01*
X003943Y026587D01*
X003793Y026587D02*
X003793Y026737D01*
X001993Y026737D01*
X001243Y026737D01*
X001243Y025137D01*
X001243Y024767D01*
X001243Y023167D01*
X001243Y022797D02*
X001993Y022797D01*
X002243Y022647D02*
X003493Y022647D01*
X003493Y023317D02*
X002243Y023317D01*
X002243Y024617D01*
X003493Y024617D01*
X003793Y024617D02*
X003793Y024767D01*
X001993Y024767D01*
X001993Y023167D01*
X002243Y022647D02*
X002243Y021347D01*
X001643Y020997D02*
X001243Y020997D01*
X001243Y021197D01*
X004243Y020797D02*
X004343Y020997D01*
X004243Y020797D02*
X006143Y020797D01*
X006143Y020997D01*
X004943Y020997D01*
X005043Y021197D02*
X005043Y022797D01*
X006043Y022797D01*
X006043Y021197D01*
X005043Y021197D01*
X005301Y021419D02*
X005323Y021397D01*
X005346Y021378D01*
X005372Y021362D01*
X005399Y021349D01*
X005428Y021339D01*
X005457Y021332D01*
X005488Y021328D01*
X005518Y021328D01*
X005548Y021332D01*
X005578Y021339D01*
X005606Y021349D01*
X005634Y021362D01*
X005659Y021378D01*
X005683Y021397D01*
X005643Y021387D02*
X005393Y022587D01*
X005443Y022637D02*
X005693Y021437D01*
X006143Y020997D02*
X006143Y026917D01*
X006043Y026737D02*
X006043Y025137D01*
X005043Y025137D01*
X005043Y026737D01*
X006043Y026737D01*
X006043Y027107D02*
X005043Y027107D01*
X005043Y028707D01*
X006043Y028707D01*
X006043Y027107D01*
X005693Y027347D02*
X005443Y028547D01*
X005393Y028497D02*
X005643Y027297D01*
X005683Y027307D02*
X005659Y027288D01*
X005634Y027272D01*
X005606Y027259D01*
X005578Y027249D01*
X005548Y027242D01*
X005518Y027238D01*
X005488Y027238D01*
X005457Y027242D01*
X005428Y027249D01*
X005399Y027259D01*
X005372Y027272D01*
X005346Y027288D01*
X005323Y027307D01*
X005301Y027329D01*
X005685Y027305D02*
X005725Y027342D01*
X005762Y027382D01*
X005797Y027424D01*
X005828Y027468D01*
X005857Y027514D01*
X005882Y027562D01*
X005905Y027612D01*
X005923Y027663D01*
X005939Y027715D01*
X005950Y027769D01*
X005958Y027822D01*
X005963Y027877D01*
X005964Y027931D01*
X005961Y027986D01*
X005955Y028040D01*
X005945Y028093D01*
X005931Y028146D01*
X005914Y028197D01*
X005893Y028248D01*
X005870Y028297D01*
X005842Y028344D01*
X005812Y028389D01*
X005779Y028433D01*
X005743Y028473D01*
X005704Y028512D01*
X005663Y028547D01*
X005683Y028527D02*
X005659Y028546D01*
X005634Y028562D01*
X005606Y028575D01*
X005577Y028584D01*
X005548Y028589D01*
X005517Y028590D01*
X005487Y028587D01*
X005458Y028581D01*
X005429Y028570D01*
X005402Y028556D01*
X005378Y028539D01*
X005355Y028519D01*
X005336Y028496D01*
X005319Y028470D01*
X005043Y029077D02*
X005043Y030677D01*
X006043Y030677D01*
X006043Y029077D01*
X005043Y029077D01*
X005301Y029299D02*
X005323Y029277D01*
X005346Y029258D01*
X005372Y029242D01*
X005399Y029229D01*
X005428Y029219D01*
X005457Y029212D01*
X005488Y029208D01*
X005518Y029208D01*
X005548Y029212D01*
X005578Y029219D01*
X005606Y029229D01*
X005634Y029242D01*
X005659Y029258D01*
X005683Y029277D01*
X005643Y029267D02*
X005393Y030467D01*
X005443Y030517D02*
X005693Y029317D01*
X005315Y029281D02*
X005280Y029330D01*
X005249Y029382D01*
X005221Y029435D01*
X005196Y029490D01*
X005175Y029546D01*
X005157Y029604D01*
X005143Y029662D01*
X005133Y029722D01*
X005126Y029782D01*
X005123Y029842D01*
X005124Y029902D01*
X005129Y029962D01*
X005137Y030022D01*
X005149Y030081D01*
X005165Y030139D01*
X005185Y030196D01*
X005208Y030252D01*
X005234Y030306D01*
X005264Y030358D01*
X005297Y030409D01*
X005333Y030457D01*
X005319Y030440D02*
X005336Y030466D01*
X005355Y030489D01*
X005378Y030509D01*
X005402Y030526D01*
X005429Y030540D01*
X005458Y030551D01*
X005487Y030557D01*
X005517Y030560D01*
X005548Y030559D01*
X005577Y030554D01*
X005606Y030545D01*
X005634Y030532D01*
X005659Y030516D01*
X005683Y030497D01*
X005663Y030517D02*
X005704Y030482D01*
X005743Y030443D01*
X005779Y030403D01*
X005812Y030359D01*
X005842Y030314D01*
X005870Y030267D01*
X005893Y030218D01*
X005914Y030167D01*
X005931Y030116D01*
X005945Y030063D01*
X005955Y030010D01*
X005961Y029956D01*
X005964Y029901D01*
X005963Y029847D01*
X005958Y029792D01*
X005950Y029739D01*
X005939Y029685D01*
X005923Y029633D01*
X005905Y029582D01*
X005882Y029532D01*
X005857Y029484D01*
X005828Y029438D01*
X005797Y029394D01*
X005762Y029352D01*
X005725Y029312D01*
X005685Y029275D01*
X005333Y028487D02*
X005297Y028439D01*
X005264Y028388D01*
X005234Y028336D01*
X005208Y028282D01*
X005185Y028226D01*
X005165Y028169D01*
X005149Y028111D01*
X005137Y028052D01*
X005129Y027992D01*
X005124Y027932D01*
X005123Y027872D01*
X005126Y027812D01*
X005133Y027752D01*
X005143Y027692D01*
X005157Y027634D01*
X005175Y027576D01*
X005196Y027520D01*
X005221Y027465D01*
X005249Y027412D01*
X005280Y027360D01*
X005315Y027311D01*
X005443Y026567D02*
X005693Y025367D01*
X005643Y025317D02*
X005393Y026517D01*
X005319Y026490D02*
X005336Y026516D01*
X005355Y026539D01*
X005378Y026559D01*
X005402Y026576D01*
X005429Y026590D01*
X005458Y026601D01*
X005487Y026607D01*
X005517Y026610D01*
X005548Y026609D01*
X005577Y026604D01*
X005606Y026595D01*
X005634Y026582D01*
X005659Y026566D01*
X005683Y026547D01*
X005333Y026507D02*
X005297Y026459D01*
X005264Y026408D01*
X005234Y026356D01*
X005208Y026302D01*
X005185Y026246D01*
X005165Y026189D01*
X005149Y026131D01*
X005137Y026072D01*
X005129Y026012D01*
X005124Y025952D01*
X005123Y025892D01*
X005126Y025832D01*
X005133Y025772D01*
X005143Y025712D01*
X005157Y025654D01*
X005175Y025596D01*
X005196Y025540D01*
X005221Y025485D01*
X005249Y025432D01*
X005280Y025380D01*
X005315Y025331D01*
X005301Y025349D02*
X005323Y025327D01*
X005346Y025308D01*
X005372Y025292D01*
X005399Y025279D01*
X005428Y025269D01*
X005457Y025262D01*
X005488Y025258D01*
X005518Y025258D01*
X005548Y025262D01*
X005578Y025269D01*
X005606Y025279D01*
X005634Y025292D01*
X005659Y025308D01*
X005683Y025327D01*
X006043Y024767D02*
X005043Y024767D01*
X005043Y023167D01*
X006043Y023167D01*
X006043Y024767D01*
X005443Y024607D02*
X005693Y023407D01*
X005643Y023357D02*
X005393Y024557D01*
X005319Y024530D02*
X005336Y024556D01*
X005355Y024579D01*
X005378Y024599D01*
X005402Y024616D01*
X005429Y024630D01*
X005458Y024641D01*
X005487Y024647D01*
X005517Y024650D01*
X005548Y024649D01*
X005577Y024644D01*
X005606Y024635D01*
X005634Y024622D01*
X005659Y024606D01*
X005683Y024587D01*
X005333Y024547D02*
X005297Y024499D01*
X005264Y024448D01*
X005234Y024396D01*
X005208Y024342D01*
X005185Y024286D01*
X005165Y024229D01*
X005149Y024171D01*
X005137Y024112D01*
X005129Y024052D01*
X005124Y023992D01*
X005123Y023932D01*
X005126Y023872D01*
X005133Y023812D01*
X005143Y023752D01*
X005157Y023694D01*
X005175Y023636D01*
X005196Y023580D01*
X005221Y023525D01*
X005249Y023472D01*
X005280Y023420D01*
X005315Y023371D01*
X005301Y023389D02*
X005323Y023367D01*
X005346Y023348D01*
X005372Y023332D01*
X005399Y023319D01*
X005428Y023309D01*
X005457Y023302D01*
X005488Y023298D01*
X005518Y023298D01*
X005548Y023302D01*
X005578Y023309D01*
X005606Y023319D01*
X005634Y023332D01*
X005659Y023348D01*
X005683Y023367D01*
X005685Y023365D02*
X005725Y023402D01*
X005762Y023442D01*
X005797Y023484D01*
X005828Y023528D01*
X005857Y023574D01*
X005882Y023622D01*
X005904Y023672D01*
X005923Y023723D01*
X005939Y023775D01*
X005950Y023829D01*
X005958Y023882D01*
X005963Y023937D01*
X005964Y023991D01*
X005961Y024045D01*
X005955Y024100D01*
X005945Y024153D01*
X005931Y024206D01*
X005914Y024257D01*
X005893Y024308D01*
X005870Y024357D01*
X005842Y024404D01*
X005812Y024449D01*
X005779Y024492D01*
X005743Y024533D01*
X005704Y024572D01*
X005663Y024607D01*
X005685Y025325D02*
X005725Y025362D01*
X005762Y025402D01*
X005797Y025444D01*
X005828Y025488D01*
X005857Y025534D01*
X005882Y025582D01*
X005904Y025632D01*
X005923Y025683D01*
X005939Y025735D01*
X005950Y025789D01*
X005958Y025842D01*
X005963Y025897D01*
X005964Y025951D01*
X005961Y026005D01*
X005955Y026060D01*
X005945Y026113D01*
X005931Y026166D01*
X005914Y026217D01*
X005893Y026268D01*
X005870Y026317D01*
X005842Y026364D01*
X005812Y026409D01*
X005779Y026453D01*
X005743Y026493D01*
X005704Y026532D01*
X005663Y026567D01*
X003943Y026917D02*
X001243Y026917D01*
X001243Y026737D01*
X001243Y026917D02*
X001243Y027107D01*
X001993Y027107D01*
X001993Y028707D01*
X003793Y028707D01*
X003793Y028557D01*
X003943Y028557D02*
X003943Y029227D01*
X003793Y029227D02*
X003793Y029077D01*
X001993Y029077D01*
X001993Y030677D01*
X001243Y030677D01*
X001243Y029077D01*
X001243Y028707D01*
X001243Y027107D01*
X001993Y027107D02*
X003793Y027107D01*
X003793Y027257D01*
X003943Y027257D02*
X003943Y026917D01*
X003493Y026587D02*
X002243Y026587D01*
X002243Y025287D01*
X003493Y025287D01*
X003793Y025287D02*
X003793Y025137D01*
X001993Y025137D01*
X001993Y026737D01*
X002243Y027257D02*
X002243Y028557D01*
X003493Y028557D01*
X003493Y029227D02*
X002243Y029227D01*
X002243Y030527D01*
X003493Y030527D01*
X003793Y030527D02*
X003793Y030677D01*
X001993Y030677D01*
X001243Y030677D02*
X001243Y030877D01*
X003943Y030877D01*
X003943Y030527D01*
X003943Y030877D02*
X004943Y030877D01*
X005243Y032796D02*
X004543Y032796D01*
X002843Y032796D01*
X002293Y032796D01*
X002293Y036796D01*
X002843Y036796D01*
X004543Y036796D01*
X004543Y032796D01*
X004693Y033806D02*
X004695Y033834D01*
X004701Y033861D01*
X004710Y033887D01*
X004723Y033912D01*
X004740Y033935D01*
X004759Y033955D01*
X004781Y033972D01*
X004805Y033986D01*
X004831Y033996D01*
X004858Y034003D01*
X004886Y034006D01*
X004914Y034005D01*
X004941Y034000D01*
X004968Y033991D01*
X004993Y033979D01*
X005016Y033964D01*
X005037Y033945D01*
X005055Y033924D01*
X005070Y033900D01*
X005081Y033874D01*
X005089Y033848D01*
X005093Y033820D01*
X005093Y033792D01*
X005089Y033764D01*
X005081Y033738D01*
X005070Y033712D01*
X005055Y033688D01*
X005037Y033667D01*
X005016Y033648D01*
X004993Y033633D01*
X004968Y033621D01*
X004941Y033612D01*
X004914Y033607D01*
X004886Y033606D01*
X004858Y033609D01*
X004831Y033616D01*
X004805Y033626D01*
X004781Y033640D01*
X004759Y033657D01*
X004740Y033677D01*
X004723Y033700D01*
X004710Y033725D01*
X004701Y033751D01*
X004695Y033778D01*
X004693Y033806D01*
X005243Y032796D02*
X005243Y036796D01*
X004893Y036796D01*
X004543Y036796D01*
X004493Y036996D01*
X004943Y036996D01*
X004893Y036796D01*
X004543Y036733D02*
X002843Y036733D01*
X002293Y036733D01*
X002293Y040733D01*
X002843Y040733D01*
X004543Y040733D01*
X004543Y036733D01*
X005243Y036733D01*
X005243Y040733D01*
X004893Y040733D01*
X004543Y040733D01*
X004493Y040933D01*
X004943Y040933D01*
X004893Y040733D01*
X004693Y039723D02*
X004695Y039751D01*
X004701Y039778D01*
X004710Y039804D01*
X004723Y039829D01*
X004740Y039852D01*
X004759Y039872D01*
X004781Y039889D01*
X004805Y039903D01*
X004831Y039913D01*
X004858Y039920D01*
X004886Y039923D01*
X004914Y039922D01*
X004941Y039917D01*
X004968Y039908D01*
X004993Y039896D01*
X005016Y039881D01*
X005037Y039862D01*
X005055Y039841D01*
X005070Y039817D01*
X005081Y039791D01*
X005089Y039765D01*
X005093Y039737D01*
X005093Y039709D01*
X005089Y039681D01*
X005081Y039655D01*
X005070Y039629D01*
X005055Y039605D01*
X005037Y039584D01*
X005016Y039565D01*
X004993Y039550D01*
X004968Y039538D01*
X004941Y039529D01*
X004914Y039524D01*
X004886Y039523D01*
X004858Y039526D01*
X004831Y039533D01*
X004805Y039543D01*
X004781Y039557D01*
X004759Y039574D01*
X004740Y039594D01*
X004723Y039617D01*
X004710Y039642D01*
X004701Y039668D01*
X004695Y039695D01*
X004693Y039723D01*
X004693Y037743D02*
X004695Y037771D01*
X004701Y037798D01*
X004710Y037824D01*
X004723Y037849D01*
X004740Y037872D01*
X004759Y037892D01*
X004781Y037909D01*
X004805Y037923D01*
X004831Y037933D01*
X004858Y037940D01*
X004886Y037943D01*
X004914Y037942D01*
X004941Y037937D01*
X004968Y037928D01*
X004993Y037916D01*
X005016Y037901D01*
X005037Y037882D01*
X005055Y037861D01*
X005070Y037837D01*
X005081Y037811D01*
X005089Y037785D01*
X005093Y037757D01*
X005093Y037729D01*
X005089Y037701D01*
X005081Y037675D01*
X005070Y037649D01*
X005055Y037625D01*
X005037Y037604D01*
X005016Y037585D01*
X004993Y037570D01*
X004968Y037558D01*
X004941Y037549D01*
X004914Y037544D01*
X004886Y037543D01*
X004858Y037546D01*
X004831Y037553D01*
X004805Y037563D01*
X004781Y037577D01*
X004759Y037594D01*
X004740Y037614D01*
X004723Y037637D01*
X004710Y037662D01*
X004701Y037688D01*
X004695Y037715D01*
X004693Y037743D01*
X004693Y035786D02*
X004695Y035814D01*
X004701Y035841D01*
X004710Y035867D01*
X004723Y035892D01*
X004740Y035915D01*
X004759Y035935D01*
X004781Y035952D01*
X004805Y035966D01*
X004831Y035976D01*
X004858Y035983D01*
X004886Y035986D01*
X004914Y035985D01*
X004941Y035980D01*
X004968Y035971D01*
X004993Y035959D01*
X005016Y035944D01*
X005037Y035925D01*
X005055Y035904D01*
X005070Y035880D01*
X005081Y035854D01*
X005089Y035828D01*
X005093Y035800D01*
X005093Y035772D01*
X005089Y035744D01*
X005081Y035718D01*
X005070Y035692D01*
X005055Y035668D01*
X005037Y035647D01*
X005016Y035628D01*
X004993Y035613D01*
X004968Y035601D01*
X004941Y035592D01*
X004914Y035587D01*
X004886Y035586D01*
X004858Y035589D01*
X004831Y035596D01*
X004805Y035606D01*
X004781Y035620D01*
X004759Y035637D01*
X004740Y035657D01*
X004723Y035680D01*
X004710Y035705D01*
X004701Y035731D01*
X004695Y035758D01*
X004693Y035786D01*
X002843Y036733D02*
X002843Y040733D01*
X002843Y036796D02*
X002843Y032796D01*
X001993Y029077D02*
X001243Y029077D01*
X001243Y028707D02*
X001993Y028707D01*
X002243Y027257D02*
X003493Y027257D01*
X003943Y025287D02*
X003943Y024617D01*
X001993Y024767D02*
X001243Y024767D01*
X001243Y025137D02*
X001993Y025137D01*
X005663Y022637D02*
X005704Y022602D01*
X005743Y022563D01*
X005779Y022522D01*
X005812Y022479D01*
X005842Y022434D01*
X005870Y022387D01*
X005893Y022338D01*
X005914Y022287D01*
X005931Y022236D01*
X005945Y022183D01*
X005955Y022130D01*
X005961Y022075D01*
X005964Y022021D01*
X005963Y021967D01*
X005958Y021912D01*
X005950Y021859D01*
X005939Y021805D01*
X005923Y021753D01*
X005904Y021702D01*
X005882Y021652D01*
X005857Y021604D01*
X005828Y021558D01*
X005797Y021514D01*
X005762Y021472D01*
X005725Y021432D01*
X005685Y021395D01*
X005315Y021401D02*
X005280Y021450D01*
X005249Y021502D01*
X005221Y021555D01*
X005196Y021610D01*
X005175Y021666D01*
X005157Y021724D01*
X005143Y021782D01*
X005133Y021842D01*
X005126Y021902D01*
X005123Y021962D01*
X005124Y022022D01*
X005129Y022082D01*
X005137Y022142D01*
X005149Y022201D01*
X005165Y022259D01*
X005185Y022316D01*
X005208Y022372D01*
X005234Y022426D01*
X005264Y022478D01*
X005297Y022529D01*
X005333Y022577D01*
X005319Y022560D02*
X005336Y022586D01*
X005355Y022609D01*
X005378Y022629D01*
X005402Y022646D01*
X005429Y022660D01*
X005458Y022671D01*
X005487Y022677D01*
X005517Y022680D01*
X005548Y022679D01*
X005577Y022674D01*
X005606Y022665D01*
X005634Y022652D01*
X005659Y022636D01*
X005683Y022617D01*
X010925Y009777D02*
X011139Y009777D01*
X011032Y009777D02*
X011032Y009243D01*
X010925Y009137D01*
X010818Y009137D01*
X010711Y009243D01*
X011356Y009243D02*
X011356Y009137D01*
X011356Y009243D02*
X011783Y009670D01*
X011783Y009777D01*
X011356Y009777D01*
X012267Y007033D02*
X013017Y007033D01*
X013017Y006663D02*
X012267Y006663D01*
X042737Y012424D02*
X042737Y012844D01*
X042737Y013244D01*
X042737Y013664D01*
X042739Y013687D01*
X042744Y013710D01*
X042753Y013732D01*
X042766Y013752D01*
X042781Y013770D01*
X042799Y013785D01*
X042819Y013798D01*
X042841Y013807D01*
X042864Y013812D01*
X042887Y013814D01*
X046587Y013814D01*
X046610Y013812D01*
X046633Y013807D01*
X046655Y013798D01*
X046675Y013785D01*
X046693Y013770D01*
X046708Y013752D01*
X046721Y013732D01*
X046730Y013710D01*
X046735Y013687D01*
X046737Y013664D01*
X046737Y012424D01*
X046735Y012401D01*
X046730Y012378D01*
X046721Y012356D01*
X046708Y012336D01*
X046693Y012318D01*
X046675Y012303D01*
X046655Y012290D01*
X046633Y012281D01*
X046610Y012276D01*
X046587Y012274D01*
X042887Y012274D01*
X042864Y012276D01*
X042841Y012281D01*
X042819Y012290D01*
X042799Y012303D01*
X042781Y012318D01*
X042766Y012336D01*
X042753Y012356D01*
X042744Y012378D01*
X042739Y012401D01*
X042737Y012424D01*
X042737Y012844D02*
X042764Y012846D01*
X042791Y012851D01*
X042817Y012861D01*
X042841Y012873D01*
X042863Y012889D01*
X042883Y012907D01*
X042900Y012929D01*
X042915Y012952D01*
X042925Y012977D01*
X042933Y013003D01*
X042937Y013030D01*
X042937Y013058D01*
X042933Y013085D01*
X042925Y013111D01*
X042915Y013136D01*
X042900Y013159D01*
X042883Y013181D01*
X042863Y013199D01*
X042841Y013215D01*
X042817Y013227D01*
X042791Y013237D01*
X042764Y013242D01*
X042737Y013244D01*
X047899Y020802D02*
X047985Y020802D01*
X048029Y020846D01*
X048029Y021063D01*
X048150Y020976D02*
X048237Y021063D01*
X048237Y020802D01*
X048323Y020802D02*
X048150Y020802D01*
X047899Y020802D02*
X047855Y020846D01*
X047855Y021063D01*
X051130Y021006D02*
X051130Y020506D01*
X051380Y020256D01*
X051130Y020006D01*
X051130Y019506D01*
X051380Y019256D01*
X051130Y019006D01*
X051130Y018506D01*
X051380Y018256D01*
X051130Y018006D01*
X051130Y017506D01*
X051380Y017256D01*
X051130Y017006D01*
X051130Y016506D01*
X051380Y016256D01*
X051130Y016006D01*
X051130Y015506D01*
X051380Y015256D01*
X051130Y015006D01*
X051130Y014506D01*
X051380Y014256D01*
X051130Y014006D01*
X051130Y013506D01*
X051380Y013256D01*
X051130Y013006D01*
X051130Y012506D01*
X051380Y012256D01*
X052880Y012256D01*
X053130Y012506D01*
X053130Y013006D01*
X052880Y013256D01*
X053130Y013506D01*
X053130Y014006D01*
X052880Y014256D01*
X053130Y014506D01*
X053130Y015006D01*
X052880Y015256D01*
X053130Y015506D01*
X053130Y016006D01*
X052880Y016256D01*
X053130Y016506D01*
X053130Y017006D01*
X052880Y017256D01*
X053130Y017506D01*
X053130Y018006D01*
X052880Y018256D01*
X053130Y018506D01*
X053130Y019006D01*
X052880Y019256D01*
X053130Y019506D01*
X053130Y020006D01*
X052880Y020256D01*
X053130Y020506D01*
X053130Y021006D01*
X052880Y021256D01*
X053130Y021506D01*
X053130Y022006D01*
X052880Y022256D01*
X053130Y022506D01*
X053130Y023006D01*
X052880Y023256D01*
X053130Y023506D01*
X053130Y024006D01*
X052880Y024256D01*
X053130Y024506D01*
X053130Y025006D01*
X052880Y025256D01*
X053130Y025506D01*
X053130Y026006D01*
X052880Y026256D01*
X053130Y026506D01*
X053130Y027006D01*
X052880Y027256D01*
X053130Y027506D01*
X053130Y028006D01*
X052880Y028256D01*
X053130Y028506D01*
X053130Y029006D01*
X052880Y029256D01*
X053130Y029506D01*
X053130Y030006D01*
X052880Y030256D01*
X053130Y030506D01*
X053130Y031006D01*
X052880Y031256D01*
X053130Y031506D01*
X053130Y032006D01*
X052880Y032256D01*
X051380Y032256D01*
X051130Y032006D01*
X051130Y031506D01*
X051380Y031256D01*
X051130Y031006D01*
X051130Y030506D01*
X051380Y030256D01*
X051130Y030006D01*
X051130Y029506D01*
X051380Y029256D01*
X051130Y029006D01*
X051130Y028506D01*
X051380Y028256D01*
X051130Y028006D01*
X051130Y027506D01*
X051380Y027256D01*
X051130Y027006D01*
X051130Y026506D01*
X051380Y026256D01*
X051130Y026006D01*
X051130Y025506D01*
X051380Y025256D01*
X051130Y025006D01*
X051130Y024506D01*
X051380Y024256D01*
X051130Y024006D01*
X051130Y023506D01*
X051380Y023256D01*
X051130Y023006D01*
X051130Y022506D01*
X051380Y022256D01*
X051130Y022006D01*
X051130Y021506D01*
X051380Y021256D01*
X051130Y021006D01*
X054301Y040466D02*
X054475Y040726D01*
X054596Y040639D02*
X054683Y040726D01*
X054683Y040466D01*
X054769Y040466D02*
X054596Y040466D01*
X054475Y040466D02*
X054301Y040726D01*
X047723Y043089D02*
X047549Y043089D01*
X047636Y043089D02*
X047636Y043350D01*
X047549Y043263D01*
X047428Y043306D02*
X047384Y043350D01*
X047298Y043350D01*
X047254Y043306D01*
X047254Y043133D01*
X047298Y043089D01*
X047384Y043089D01*
X047428Y043133D01*
X047145Y043089D02*
X047058Y043089D01*
X047101Y043089D02*
X047101Y043350D01*
X047058Y043350D02*
X047145Y043350D01*
X047160Y049989D02*
X045660Y049989D01*
X045410Y050239D01*
X045410Y050739D01*
X045660Y050989D01*
X045410Y051239D01*
X045410Y051739D01*
X045660Y051989D01*
X045410Y052239D01*
X045410Y052739D01*
X045660Y052989D01*
X045410Y053239D01*
X045410Y053739D01*
X045660Y053989D01*
X045410Y054239D01*
X045410Y054739D01*
X045660Y054989D01*
X045410Y055239D01*
X045410Y055739D01*
X045660Y055989D01*
X045410Y056239D01*
X045410Y056739D01*
X045660Y056989D01*
X045410Y057239D01*
X045410Y057739D01*
X045660Y057989D01*
X047160Y057989D01*
X047410Y057739D01*
X047410Y057239D01*
X047160Y056989D01*
X047410Y056739D01*
X047410Y056239D01*
X047160Y055989D01*
X047410Y055739D01*
X047410Y055239D01*
X047160Y054989D01*
X047410Y054739D01*
X047410Y054239D01*
X047160Y053989D01*
X047410Y053739D01*
X047410Y053239D01*
X047160Y052989D01*
X047410Y052739D01*
X047410Y052239D01*
X047160Y051989D01*
X047410Y051739D01*
X047410Y051239D01*
X047160Y050989D01*
X047410Y050739D01*
X047410Y050239D01*
X047160Y049989D01*
X041912Y051890D02*
X041492Y051890D01*
X041092Y051890D01*
X040672Y051890D01*
X040649Y051892D01*
X040626Y051897D01*
X040604Y051906D01*
X040584Y051919D01*
X040566Y051934D01*
X040551Y051952D01*
X040538Y051972D01*
X040529Y051994D01*
X040524Y052017D01*
X040522Y052040D01*
X041092Y051890D02*
X041094Y051917D01*
X041099Y051944D01*
X041109Y051970D01*
X041121Y051994D01*
X041137Y052016D01*
X041155Y052036D01*
X041177Y052053D01*
X041200Y052068D01*
X041225Y052078D01*
X041251Y052086D01*
X041278Y052090D01*
X041306Y052090D01*
X041333Y052086D01*
X041359Y052078D01*
X041384Y052068D01*
X041407Y052053D01*
X041429Y052036D01*
X041447Y052016D01*
X041463Y051994D01*
X041475Y051970D01*
X041485Y051944D01*
X041490Y051917D01*
X041492Y051890D01*
X041912Y051890D02*
X041935Y051892D01*
X041958Y051897D01*
X041980Y051906D01*
X042000Y051919D01*
X042018Y051934D01*
X042033Y051952D01*
X042046Y051972D01*
X042055Y051994D01*
X042060Y052017D01*
X042062Y052040D01*
X042062Y055740D02*
X042060Y055763D01*
X042055Y055786D01*
X042046Y055808D01*
X042033Y055828D01*
X042018Y055846D01*
X042000Y055861D01*
X041980Y055874D01*
X041958Y055883D01*
X041935Y055888D01*
X041912Y055890D01*
X040672Y055890D01*
X040649Y055888D01*
X040626Y055883D01*
X040604Y055874D01*
X040584Y055861D01*
X040566Y055846D01*
X040551Y055828D01*
X040538Y055808D01*
X040529Y055786D01*
X040524Y055763D01*
X040522Y055740D01*
X025166Y050250D02*
X025166Y043750D01*
X016266Y043750D01*
X016266Y050250D01*
X025166Y050250D01*
X022866Y048470D02*
X022866Y047250D01*
X022616Y047000D02*
X020016Y047000D01*
X019766Y047250D02*
X018766Y046750D01*
X018766Y047250D01*
X018516Y047000D02*
X018116Y047000D01*
X019266Y046750D02*
X019266Y044650D01*
X019016Y044650D01*
X018816Y043340D02*
X018602Y043340D01*
X018709Y043340D02*
X018709Y042806D01*
X018602Y042700D01*
X018495Y042700D01*
X018389Y042806D01*
X019033Y043020D02*
X019460Y043020D01*
X019353Y042700D02*
X019353Y043340D01*
X019033Y043020D01*
X016991Y039797D02*
X016778Y039797D01*
X016671Y039690D01*
X016453Y039797D02*
X016240Y039797D01*
X016347Y039797D02*
X016347Y039263D01*
X016240Y039156D01*
X016133Y039156D01*
X016026Y039263D01*
X016671Y039263D02*
X016778Y039156D01*
X016991Y039156D01*
X017098Y039263D01*
X017098Y039370D01*
X016991Y039477D01*
X016885Y039477D01*
X016991Y039477D02*
X017098Y039583D01*
X017098Y039690D01*
X016991Y039797D01*
X013624Y044407D02*
X011724Y044407D01*
X011824Y044607D01*
X012424Y044607D01*
X012424Y048607D01*
X013624Y048607D01*
X013624Y044607D01*
X013624Y044407D01*
X013624Y044607D02*
X012424Y044607D01*
X012524Y044827D02*
X012524Y046427D01*
X013524Y046427D01*
X013524Y044827D01*
X012524Y044827D01*
X012782Y045049D02*
X012804Y045027D01*
X012827Y045008D01*
X012853Y044992D01*
X012880Y044979D01*
X012909Y044969D01*
X012938Y044962D01*
X012969Y044958D01*
X012999Y044958D01*
X013029Y044962D01*
X013059Y044969D01*
X013087Y044979D01*
X013115Y044992D01*
X013140Y045008D01*
X013164Y045027D01*
X013174Y045067D02*
X012924Y046267D01*
X012874Y046217D02*
X013124Y045017D01*
X012796Y045031D02*
X012761Y045080D01*
X012730Y045132D01*
X012702Y045185D01*
X012677Y045240D01*
X012656Y045296D01*
X012638Y045354D01*
X012624Y045412D01*
X012614Y045472D01*
X012607Y045532D01*
X012604Y045592D01*
X012605Y045652D01*
X012610Y045712D01*
X012618Y045772D01*
X012630Y045831D01*
X012646Y045889D01*
X012666Y045946D01*
X012689Y046002D01*
X012715Y046056D01*
X012745Y046108D01*
X012778Y046159D01*
X012814Y046207D01*
X012800Y046190D02*
X012817Y046216D01*
X012836Y046239D01*
X012859Y046259D01*
X012883Y046276D01*
X012910Y046290D01*
X012939Y046301D01*
X012968Y046307D01*
X012998Y046310D01*
X013029Y046309D01*
X013058Y046304D01*
X013087Y046295D01*
X013115Y046282D01*
X013140Y046266D01*
X013164Y046247D01*
X013524Y046797D02*
X012524Y046797D01*
X012524Y048397D01*
X013524Y048397D01*
X013524Y046797D01*
X013174Y047037D02*
X012924Y048237D01*
X012874Y048187D02*
X013124Y046987D01*
X013164Y046997D02*
X013140Y046978D01*
X013115Y046962D01*
X013087Y046949D01*
X013059Y046939D01*
X013029Y046932D01*
X012999Y046928D01*
X012969Y046928D01*
X012938Y046932D01*
X012909Y046939D01*
X012880Y046949D01*
X012853Y046962D01*
X012827Y046978D01*
X012804Y046997D01*
X012782Y047019D01*
X013166Y046995D02*
X013206Y047032D01*
X013243Y047072D01*
X013278Y047114D01*
X013309Y047158D01*
X013338Y047204D01*
X013363Y047252D01*
X013386Y047302D01*
X013404Y047353D01*
X013420Y047405D01*
X013431Y047459D01*
X013439Y047512D01*
X013444Y047567D01*
X013445Y047621D01*
X013442Y047676D01*
X013436Y047730D01*
X013426Y047783D01*
X013412Y047836D01*
X013395Y047887D01*
X013374Y047938D01*
X013351Y047987D01*
X013323Y048034D01*
X013293Y048079D01*
X013260Y048123D01*
X013224Y048163D01*
X013185Y048202D01*
X013144Y048237D01*
X013164Y048217D02*
X013140Y048236D01*
X013115Y048252D01*
X013087Y048265D01*
X013058Y048274D01*
X013029Y048279D01*
X012998Y048280D01*
X012968Y048277D01*
X012939Y048271D01*
X012910Y048260D01*
X012883Y048246D01*
X012859Y048229D01*
X012836Y048209D01*
X012817Y048186D01*
X012800Y048160D01*
X012424Y048607D02*
X011424Y048607D01*
X011424Y048247D01*
X011274Y048247D02*
X011274Y048397D01*
X009474Y048397D01*
X008724Y048397D01*
X008724Y046797D01*
X008724Y046427D01*
X008724Y044827D01*
X009474Y044827D01*
X009474Y046427D01*
X011274Y046427D01*
X011274Y046277D01*
X011424Y046277D02*
X011424Y046947D01*
X011274Y046947D02*
X011274Y046797D01*
X009474Y046797D01*
X009474Y048397D01*
X009724Y048247D02*
X010974Y048247D01*
X011424Y048607D02*
X008724Y048607D01*
X008724Y048397D01*
X009024Y049131D02*
X009674Y049131D01*
X009574Y049331D01*
X011424Y049331D01*
X011424Y049701D01*
X011274Y049701D02*
X011274Y049551D01*
X009474Y049551D01*
X008724Y049551D01*
X008724Y049331D01*
X009124Y049331D01*
X009574Y049331D01*
X009474Y049551D02*
X009474Y051151D01*
X011274Y051151D01*
X011274Y051001D01*
X011424Y051001D02*
X011424Y051671D01*
X011274Y051671D02*
X011274Y051521D01*
X009474Y051521D01*
X009474Y053121D01*
X008724Y053121D01*
X008724Y051521D01*
X008724Y051151D01*
X008724Y049551D01*
X009124Y049331D02*
X009024Y049131D01*
X009724Y049701D02*
X009724Y051001D01*
X010974Y051001D01*
X010974Y051671D02*
X009724Y051671D01*
X009724Y052971D01*
X010974Y052971D01*
X011274Y052971D02*
X011274Y053121D01*
X009474Y053121D01*
X008724Y053121D02*
X008724Y053331D01*
X011424Y053331D01*
X011424Y052971D01*
X011424Y053331D02*
X012424Y053331D01*
X013624Y053331D01*
X013624Y049331D01*
X013624Y049131D01*
X011724Y049131D01*
X011824Y049331D01*
X012424Y049331D01*
X012424Y053331D01*
X012524Y053121D02*
X013524Y053121D01*
X013524Y051521D01*
X012524Y051521D01*
X012524Y053121D01*
X012874Y052911D02*
X013124Y051711D01*
X013174Y051761D02*
X012924Y052961D01*
X012800Y052884D02*
X012817Y052910D01*
X012836Y052933D01*
X012859Y052953D01*
X012883Y052970D01*
X012910Y052984D01*
X012939Y052995D01*
X012968Y053001D01*
X012998Y053004D01*
X013029Y053003D01*
X013058Y052998D01*
X013087Y052989D01*
X013115Y052976D01*
X013140Y052960D01*
X013164Y052941D01*
X012814Y052901D02*
X012778Y052853D01*
X012745Y052802D01*
X012715Y052750D01*
X012689Y052696D01*
X012666Y052640D01*
X012646Y052583D01*
X012630Y052525D01*
X012618Y052466D01*
X012610Y052406D01*
X012605Y052346D01*
X012604Y052286D01*
X012607Y052226D01*
X012614Y052166D01*
X012624Y052106D01*
X012638Y052048D01*
X012656Y051990D01*
X012677Y051934D01*
X012702Y051879D01*
X012730Y051826D01*
X012761Y051774D01*
X012796Y051725D01*
X012782Y051743D02*
X012804Y051721D01*
X012827Y051702D01*
X012853Y051686D01*
X012880Y051673D01*
X012909Y051663D01*
X012938Y051656D01*
X012969Y051652D01*
X012999Y051652D01*
X013029Y051656D01*
X013059Y051663D01*
X013087Y051673D01*
X013115Y051686D01*
X013140Y051702D01*
X013164Y051721D01*
X013524Y051151D02*
X012524Y051151D01*
X012524Y049551D01*
X013524Y049551D01*
X013524Y051151D01*
X012924Y050991D02*
X013174Y049791D01*
X013124Y049741D02*
X012874Y050941D01*
X012800Y050914D02*
X012817Y050940D01*
X012836Y050963D01*
X012859Y050983D01*
X012883Y051000D01*
X012910Y051014D01*
X012939Y051025D01*
X012968Y051031D01*
X012998Y051034D01*
X013029Y051033D01*
X013058Y051028D01*
X013087Y051019D01*
X013115Y051006D01*
X013140Y050990D01*
X013164Y050971D01*
X012814Y050931D02*
X012778Y050883D01*
X012745Y050832D01*
X012715Y050780D01*
X012689Y050726D01*
X012666Y050670D01*
X012646Y050613D01*
X012630Y050555D01*
X012618Y050496D01*
X012610Y050436D01*
X012605Y050376D01*
X012604Y050316D01*
X012607Y050256D01*
X012614Y050196D01*
X012624Y050136D01*
X012638Y050078D01*
X012656Y050020D01*
X012677Y049964D01*
X012702Y049909D01*
X012730Y049856D01*
X012761Y049804D01*
X012796Y049755D01*
X012782Y049773D02*
X012804Y049751D01*
X012827Y049732D01*
X012853Y049716D01*
X012880Y049703D01*
X012909Y049693D01*
X012938Y049686D01*
X012969Y049682D01*
X012999Y049682D01*
X013029Y049686D01*
X013059Y049693D01*
X013087Y049703D01*
X013115Y049716D01*
X013140Y049732D01*
X013164Y049751D01*
X013624Y049331D02*
X012424Y049331D01*
X011824Y049331D02*
X011424Y049331D01*
X010974Y049701D02*
X009724Y049701D01*
X009724Y048247D02*
X009724Y046947D01*
X010974Y046947D01*
X010974Y046277D02*
X009724Y046277D01*
X009724Y044977D01*
X010974Y044977D01*
X011274Y044977D02*
X011274Y044827D01*
X009474Y044827D01*
X009574Y044607D02*
X011424Y044607D01*
X011424Y044977D01*
X011424Y044607D02*
X011824Y044607D01*
X011488Y044029D02*
X011061Y044029D01*
X011061Y043709D01*
X011274Y043816D01*
X011381Y043816D01*
X011488Y043709D01*
X011488Y043495D01*
X011381Y043389D01*
X011168Y043389D01*
X011061Y043495D01*
X010736Y043495D02*
X010736Y044029D01*
X010630Y044029D02*
X010843Y044029D01*
X010736Y043495D02*
X010630Y043389D01*
X010523Y043389D01*
X010416Y043495D01*
X009674Y044407D02*
X009024Y044407D01*
X009124Y044607D01*
X009574Y044607D01*
X009674Y044407D01*
X009124Y044607D02*
X008724Y044607D01*
X008724Y044827D01*
X008724Y046427D02*
X009474Y046427D01*
X009474Y046797D02*
X008724Y046797D01*
X013144Y046267D02*
X013185Y046232D01*
X013224Y046193D01*
X013260Y046152D01*
X013293Y046109D01*
X013323Y046064D01*
X013351Y046017D01*
X013374Y045968D01*
X013395Y045917D01*
X013412Y045866D01*
X013426Y045813D01*
X013436Y045760D01*
X013442Y045705D01*
X013445Y045651D01*
X013444Y045597D01*
X013439Y045542D01*
X013431Y045489D01*
X013420Y045435D01*
X013404Y045383D01*
X013385Y045332D01*
X013363Y045282D01*
X013338Y045234D01*
X013309Y045188D01*
X013278Y045144D01*
X013243Y045102D01*
X013206Y045062D01*
X013166Y045025D01*
X012796Y047001D02*
X012761Y047050D01*
X012730Y047102D01*
X012702Y047155D01*
X012677Y047210D01*
X012656Y047266D01*
X012638Y047324D01*
X012624Y047382D01*
X012614Y047442D01*
X012607Y047502D01*
X012604Y047562D01*
X012605Y047622D01*
X012610Y047682D01*
X012618Y047742D01*
X012630Y047801D01*
X012646Y047859D01*
X012666Y047916D01*
X012689Y047972D01*
X012715Y048026D01*
X012745Y048078D01*
X012778Y048129D01*
X012814Y048177D01*
X013166Y049749D02*
X013206Y049786D01*
X013243Y049826D01*
X013278Y049868D01*
X013309Y049912D01*
X013338Y049958D01*
X013363Y050006D01*
X013385Y050056D01*
X013404Y050107D01*
X013420Y050159D01*
X013431Y050213D01*
X013439Y050266D01*
X013444Y050321D01*
X013445Y050375D01*
X013442Y050429D01*
X013436Y050484D01*
X013426Y050537D01*
X013412Y050590D01*
X013395Y050641D01*
X013374Y050692D01*
X013351Y050741D01*
X013323Y050788D01*
X013293Y050833D01*
X013260Y050876D01*
X013224Y050917D01*
X013185Y050956D01*
X013144Y050991D01*
X013166Y051719D02*
X013206Y051756D01*
X013243Y051796D01*
X013278Y051838D01*
X013309Y051882D01*
X013338Y051928D01*
X013363Y051976D01*
X013386Y052026D01*
X013404Y052077D01*
X013420Y052129D01*
X013431Y052183D01*
X013439Y052236D01*
X013444Y052291D01*
X013445Y052345D01*
X013442Y052400D01*
X013436Y052454D01*
X013426Y052507D01*
X013412Y052560D01*
X013395Y052611D01*
X013374Y052662D01*
X013351Y052711D01*
X013323Y052758D01*
X013293Y052803D01*
X013260Y052847D01*
X013224Y052887D01*
X013185Y052926D01*
X013144Y052961D01*
X013624Y053856D02*
X011724Y053856D01*
X011824Y054056D01*
X012424Y054056D01*
X012424Y058056D01*
X013624Y058056D01*
X013624Y054056D01*
X013624Y053856D01*
X013624Y054056D02*
X012424Y054056D01*
X012524Y054276D02*
X012524Y055876D01*
X013524Y055876D01*
X013524Y054276D01*
X012524Y054276D01*
X012782Y054498D02*
X012804Y054476D01*
X012827Y054457D01*
X012853Y054441D01*
X012880Y054428D01*
X012909Y054418D01*
X012938Y054411D01*
X012969Y054407D01*
X012999Y054407D01*
X013029Y054411D01*
X013059Y054418D01*
X013087Y054428D01*
X013115Y054441D01*
X013140Y054457D01*
X013164Y054476D01*
X013174Y054516D02*
X012924Y055716D01*
X012874Y055666D02*
X013124Y054466D01*
X012796Y054479D02*
X012761Y054528D01*
X012730Y054580D01*
X012702Y054633D01*
X012677Y054688D01*
X012656Y054744D01*
X012638Y054802D01*
X012624Y054860D01*
X012614Y054920D01*
X012607Y054980D01*
X012604Y055040D01*
X012605Y055100D01*
X012610Y055160D01*
X012618Y055220D01*
X012630Y055279D01*
X012646Y055337D01*
X012666Y055394D01*
X012689Y055450D01*
X012715Y055504D01*
X012745Y055556D01*
X012778Y055607D01*
X012814Y055655D01*
X012800Y055639D02*
X012817Y055665D01*
X012836Y055688D01*
X012859Y055708D01*
X012883Y055725D01*
X012910Y055739D01*
X012939Y055750D01*
X012968Y055756D01*
X012998Y055759D01*
X013029Y055758D01*
X013058Y055753D01*
X013087Y055744D01*
X013115Y055731D01*
X013140Y055715D01*
X013164Y055696D01*
X013524Y056246D02*
X012524Y056246D01*
X012524Y057846D01*
X013524Y057846D01*
X013524Y056246D01*
X013174Y056486D02*
X012924Y057686D01*
X012874Y057636D02*
X013124Y056436D01*
X013164Y056446D02*
X013140Y056427D01*
X013115Y056411D01*
X013087Y056398D01*
X013059Y056388D01*
X013029Y056381D01*
X012999Y056377D01*
X012969Y056377D01*
X012938Y056381D01*
X012909Y056388D01*
X012880Y056398D01*
X012853Y056411D01*
X012827Y056427D01*
X012804Y056446D01*
X012782Y056468D01*
X013166Y056443D02*
X013206Y056480D01*
X013243Y056520D01*
X013278Y056562D01*
X013309Y056606D01*
X013338Y056652D01*
X013363Y056700D01*
X013386Y056750D01*
X013404Y056801D01*
X013420Y056853D01*
X013431Y056907D01*
X013439Y056960D01*
X013444Y057015D01*
X013445Y057069D01*
X013442Y057124D01*
X013436Y057178D01*
X013426Y057231D01*
X013412Y057284D01*
X013395Y057335D01*
X013374Y057386D01*
X013351Y057435D01*
X013323Y057482D01*
X013293Y057527D01*
X013260Y057571D01*
X013224Y057611D01*
X013185Y057650D01*
X013144Y057685D01*
X013164Y057666D02*
X013140Y057685D01*
X013115Y057701D01*
X013087Y057714D01*
X013058Y057723D01*
X013029Y057728D01*
X012998Y057729D01*
X012968Y057726D01*
X012939Y057720D01*
X012910Y057709D01*
X012883Y057695D01*
X012859Y057678D01*
X012836Y057658D01*
X012817Y057635D01*
X012800Y057609D01*
X012424Y058056D02*
X011424Y058056D01*
X011424Y057696D01*
X011274Y057696D02*
X011274Y057846D01*
X009474Y057846D01*
X008724Y057846D01*
X008724Y056246D01*
X008724Y055876D01*
X008724Y054276D01*
X009474Y054276D01*
X009474Y055876D01*
X011274Y055876D01*
X011274Y055726D01*
X011424Y055726D02*
X011424Y056396D01*
X011274Y056396D02*
X011274Y056246D01*
X009474Y056246D01*
X009474Y057846D01*
X009724Y057696D02*
X010974Y057696D01*
X011424Y058056D02*
X008724Y058056D01*
X008724Y057846D01*
X009724Y057696D02*
X009724Y056396D01*
X010974Y056396D01*
X010974Y055726D02*
X009724Y055726D01*
X009724Y054426D01*
X010974Y054426D01*
X011274Y054426D02*
X011274Y054276D01*
X009474Y054276D01*
X009574Y054056D02*
X011424Y054056D01*
X011424Y054426D01*
X011424Y054056D02*
X011824Y054056D01*
X013166Y054474D02*
X013206Y054511D01*
X013243Y054551D01*
X013278Y054593D01*
X013309Y054637D01*
X013338Y054683D01*
X013363Y054731D01*
X013385Y054781D01*
X013404Y054832D01*
X013420Y054884D01*
X013431Y054938D01*
X013439Y054991D01*
X013444Y055046D01*
X013445Y055100D01*
X013442Y055154D01*
X013436Y055209D01*
X013426Y055262D01*
X013412Y055315D01*
X013395Y055366D01*
X013374Y055417D01*
X013351Y055466D01*
X013323Y055513D01*
X013293Y055558D01*
X013260Y055601D01*
X013224Y055642D01*
X013185Y055681D01*
X013144Y055716D01*
X012796Y056449D02*
X012761Y056498D01*
X012730Y056550D01*
X012702Y056603D01*
X012677Y056658D01*
X012656Y056714D01*
X012638Y056772D01*
X012624Y056830D01*
X012614Y056890D01*
X012607Y056950D01*
X012604Y057010D01*
X012605Y057070D01*
X012610Y057130D01*
X012618Y057190D01*
X012630Y057249D01*
X012646Y057307D01*
X012666Y057364D01*
X012689Y057420D01*
X012715Y057474D01*
X012745Y057526D01*
X012778Y057577D01*
X012814Y057625D01*
X009474Y056246D02*
X008724Y056246D01*
X008724Y055876D02*
X009474Y055876D01*
X008724Y054276D02*
X008724Y054056D01*
X009124Y054056D01*
X009574Y054056D01*
X009674Y053856D01*
X009024Y053856D01*
X009124Y054056D01*
X009474Y051521D02*
X008724Y051521D01*
X008724Y051151D02*
X009474Y051151D01*
X019016Y049350D02*
X019266Y049350D01*
X019266Y047250D01*
X022866Y046750D02*
X022866Y045520D01*
X022669Y043206D02*
X024088Y043206D01*
X024088Y041346D02*
X022669Y041346D01*
D11*
X022931Y042986D02*
X022933Y043001D01*
X022939Y043014D01*
X022948Y043026D01*
X022959Y043035D01*
X022973Y043041D01*
X022988Y043043D01*
X023003Y043041D01*
X023016Y043035D01*
X023028Y043026D01*
X023037Y043015D01*
X023043Y043001D01*
X023045Y042986D01*
X023043Y042971D01*
X023037Y042958D01*
X023028Y042946D01*
X023017Y042937D01*
X023003Y042931D01*
X022988Y042929D01*
X022973Y042931D01*
X022960Y042937D01*
X022948Y042946D01*
X022939Y042957D01*
X022933Y042971D01*
X022931Y042986D01*
X028851Y042508D02*
X030386Y042508D01*
X030386Y040603D01*
X034087Y040603D01*
X034087Y042508D01*
X035622Y042508D01*
X035622Y031744D01*
X035239Y031744D01*
X035239Y030815D01*
X034087Y030815D01*
X034087Y031744D01*
X030386Y031744D01*
X030386Y030815D01*
X029235Y030815D01*
X029235Y031744D01*
X028851Y031744D01*
X028851Y042508D01*
X037945Y042867D02*
X037945Y041685D01*
X037945Y042867D02*
X039126Y042867D01*
X046213Y042867D02*
X047394Y042867D01*
X047394Y041685D01*
X049205Y036292D02*
X048851Y035937D01*
X048851Y033693D01*
X049717Y033693D01*
X050583Y033693D02*
X051449Y033693D01*
X051449Y035937D01*
X051095Y036292D01*
X050583Y036292D01*
X049717Y036292D02*
X049205Y036292D01*
X050524Y036154D02*
X050589Y036131D01*
X050652Y036105D01*
X050713Y036075D01*
X050773Y036041D01*
X050831Y036005D01*
X050887Y035965D01*
X050940Y035922D01*
X050991Y035876D01*
X051039Y035827D01*
X051084Y035776D01*
X051127Y035722D01*
X051166Y035666D01*
X051202Y035608D01*
X051235Y035547D01*
X051264Y035485D01*
X051290Y035422D01*
X051312Y035357D01*
X051331Y035291D01*
X051345Y035224D01*
X051356Y035157D01*
X051363Y035088D01*
X051367Y035020D01*
X051366Y034951D01*
X051362Y034883D01*
X051353Y034815D01*
X051341Y034748D01*
X051326Y034681D01*
X051306Y034615D01*
X051283Y034551D01*
X051256Y034488D01*
X051225Y034426D01*
X051192Y034367D01*
X051155Y034309D01*
X051114Y034254D01*
X051071Y034201D01*
X051025Y034150D01*
X050976Y034102D01*
X050924Y034057D01*
X050870Y034015D01*
X050814Y033976D01*
X050755Y033940D01*
X050695Y033908D01*
X050633Y033879D01*
X050569Y033853D01*
X050504Y033832D01*
X049776Y033831D02*
X049711Y033854D01*
X049648Y033880D01*
X049587Y033910D01*
X049527Y033944D01*
X049469Y033980D01*
X049413Y034020D01*
X049360Y034063D01*
X049309Y034109D01*
X049261Y034158D01*
X049216Y034209D01*
X049173Y034263D01*
X049134Y034319D01*
X049098Y034377D01*
X049065Y034438D01*
X049036Y034500D01*
X049010Y034563D01*
X048988Y034628D01*
X048969Y034694D01*
X048955Y034761D01*
X048944Y034828D01*
X048937Y034897D01*
X048933Y034965D01*
X048934Y035034D01*
X048938Y035102D01*
X048947Y035170D01*
X048959Y035237D01*
X048974Y035304D01*
X048994Y035370D01*
X049017Y035434D01*
X049044Y035497D01*
X049075Y035559D01*
X049108Y035618D01*
X049145Y035676D01*
X049186Y035731D01*
X049229Y035784D01*
X049275Y035835D01*
X049324Y035883D01*
X049376Y035928D01*
X049430Y035970D01*
X049486Y036009D01*
X049545Y036045D01*
X049605Y036077D01*
X049667Y036106D01*
X049731Y036132D01*
X049796Y036153D01*
X052000Y035937D02*
X052000Y033693D01*
X052867Y033693D01*
X053733Y033693D02*
X054599Y033693D01*
X054599Y035937D01*
X054244Y036292D01*
X053733Y036292D01*
X052867Y036292D02*
X052355Y036292D01*
X052000Y035937D01*
X053674Y036154D02*
X053739Y036131D01*
X053802Y036105D01*
X053863Y036075D01*
X053923Y036041D01*
X053981Y036005D01*
X054037Y035965D01*
X054090Y035922D01*
X054141Y035876D01*
X054189Y035827D01*
X054234Y035776D01*
X054277Y035722D01*
X054316Y035666D01*
X054352Y035608D01*
X054385Y035547D01*
X054414Y035485D01*
X054440Y035422D01*
X054462Y035357D01*
X054481Y035291D01*
X054495Y035224D01*
X054506Y035157D01*
X054513Y035088D01*
X054517Y035020D01*
X054516Y034951D01*
X054512Y034883D01*
X054503Y034815D01*
X054491Y034748D01*
X054476Y034681D01*
X054456Y034615D01*
X054433Y034551D01*
X054406Y034488D01*
X054375Y034426D01*
X054342Y034367D01*
X054305Y034309D01*
X054264Y034254D01*
X054221Y034201D01*
X054175Y034150D01*
X054126Y034102D01*
X054074Y034057D01*
X054020Y034015D01*
X053964Y033976D01*
X053905Y033940D01*
X053845Y033908D01*
X053783Y033879D01*
X053719Y033853D01*
X053654Y033832D01*
X052926Y033831D02*
X052861Y033854D01*
X052798Y033880D01*
X052737Y033910D01*
X052677Y033944D01*
X052619Y033980D01*
X052563Y034020D01*
X052510Y034063D01*
X052459Y034109D01*
X052411Y034158D01*
X052366Y034209D01*
X052323Y034263D01*
X052284Y034319D01*
X052248Y034377D01*
X052215Y034438D01*
X052186Y034500D01*
X052160Y034563D01*
X052138Y034628D01*
X052119Y034694D01*
X052105Y034761D01*
X052094Y034828D01*
X052087Y034897D01*
X052083Y034965D01*
X052084Y035034D01*
X052088Y035102D01*
X052097Y035170D01*
X052109Y035237D01*
X052124Y035304D01*
X052144Y035370D01*
X052167Y035434D01*
X052194Y035497D01*
X052225Y035559D01*
X052258Y035618D01*
X052295Y035676D01*
X052336Y035731D01*
X052379Y035784D01*
X052425Y035835D01*
X052474Y035883D01*
X052526Y035928D01*
X052580Y035970D01*
X052636Y036009D01*
X052695Y036045D01*
X052755Y036077D01*
X052817Y036106D01*
X052881Y036132D01*
X052946Y036153D01*
X047394Y034599D02*
X047394Y033418D01*
X046213Y033418D01*
X039126Y033418D02*
X037945Y033418D01*
X037945Y034599D01*
X046646Y020583D02*
X048142Y020583D01*
X046944Y020398D02*
X046946Y020418D01*
X046952Y020436D01*
X046961Y020454D01*
X046973Y020469D01*
X046988Y020481D01*
X047006Y020490D01*
X047024Y020496D01*
X047044Y020498D01*
X047064Y020496D01*
X047082Y020490D01*
X047100Y020481D01*
X047115Y020469D01*
X047127Y020454D01*
X047136Y020436D01*
X047142Y020418D01*
X047144Y020398D01*
X047142Y020378D01*
X047136Y020360D01*
X047127Y020342D01*
X047115Y020327D01*
X047100Y020315D01*
X047082Y020306D01*
X047064Y020300D01*
X047044Y020298D01*
X047024Y020300D01*
X047006Y020306D01*
X046988Y020315D01*
X046973Y020327D01*
X046961Y020342D01*
X046952Y020360D01*
X046946Y020378D01*
X046944Y020398D01*
X046646Y018693D02*
X048142Y018693D01*
X004696Y013697D02*
X004696Y011997D01*
X003889Y011647D02*
X003096Y011647D01*
X002296Y011997D02*
X002296Y013697D01*
X003096Y014047D02*
X003901Y014047D01*
X002796Y012847D02*
X002798Y012899D01*
X002804Y012951D01*
X002814Y013003D01*
X002827Y013053D01*
X002844Y013103D01*
X002865Y013151D01*
X002890Y013197D01*
X002918Y013241D01*
X002949Y013283D01*
X002983Y013323D01*
X003020Y013360D01*
X003060Y013394D01*
X003102Y013425D01*
X003146Y013453D01*
X003192Y013478D01*
X003240Y013499D01*
X003290Y013516D01*
X003340Y013529D01*
X003392Y013539D01*
X003444Y013545D01*
X003496Y013547D01*
X003548Y013545D01*
X003600Y013539D01*
X003652Y013529D01*
X003702Y013516D01*
X003752Y013499D01*
X003800Y013478D01*
X003846Y013453D01*
X003890Y013425D01*
X003932Y013394D01*
X003972Y013360D01*
X004009Y013323D01*
X004043Y013283D01*
X004074Y013241D01*
X004102Y013197D01*
X004127Y013151D01*
X004148Y013103D01*
X004165Y013053D01*
X004178Y013003D01*
X004188Y012951D01*
X004194Y012899D01*
X004196Y012847D01*
X004194Y012795D01*
X004188Y012743D01*
X004178Y012691D01*
X004165Y012641D01*
X004148Y012591D01*
X004127Y012543D01*
X004102Y012497D01*
X004074Y012453D01*
X004043Y012411D01*
X004009Y012371D01*
X003972Y012334D01*
X003932Y012300D01*
X003890Y012269D01*
X003846Y012241D01*
X003800Y012216D01*
X003752Y012195D01*
X003702Y012178D01*
X003652Y012165D01*
X003600Y012155D01*
X003548Y012149D01*
X003496Y012147D01*
X003444Y012149D01*
X003392Y012155D01*
X003340Y012165D01*
X003290Y012178D01*
X003240Y012195D01*
X003192Y012216D01*
X003146Y012241D01*
X003102Y012269D01*
X003060Y012300D01*
X003020Y012334D01*
X002983Y012371D01*
X002949Y012411D01*
X002918Y012453D01*
X002890Y012497D01*
X002865Y012543D01*
X002844Y012591D01*
X002827Y012641D01*
X002814Y012691D01*
X002804Y012743D01*
X002798Y012795D01*
X002796Y012847D01*
D12*
X009021Y001597D02*
X009201Y001597D01*
X009321Y001477D01*
X009381Y001477D01*
X009201Y001597D02*
X009321Y001717D01*
X009381Y001717D01*
X009381Y002085D02*
X009021Y002085D01*
X009021Y001845D01*
X009201Y002214D02*
X009141Y002274D01*
X009141Y002454D01*
X009021Y002454D02*
X009381Y002454D01*
X009381Y002274D01*
X009321Y002214D01*
X009201Y002214D01*
X009141Y002582D02*
X009081Y002582D01*
X009021Y002642D01*
X009021Y002762D01*
X009081Y002822D01*
X009201Y002762D02*
X009201Y002642D01*
X009141Y002582D01*
X009321Y002582D02*
X009381Y002642D01*
X009381Y002762D01*
X009321Y002822D01*
X009261Y002822D01*
X009201Y002762D01*
X008961Y002950D02*
X008961Y003190D01*
X009081Y003319D02*
X009021Y003379D01*
X009021Y003499D01*
X009081Y003559D01*
X009321Y003559D01*
X009381Y003499D01*
X009381Y003379D01*
X009321Y003319D01*
X009381Y003687D02*
X009081Y003687D01*
X009021Y003747D01*
X009021Y003867D01*
X009081Y003927D01*
X009381Y003927D01*
X009321Y004055D02*
X009261Y004055D01*
X009201Y004115D01*
X009201Y004295D01*
X009201Y004115D02*
X009141Y004055D01*
X009081Y004055D01*
X009021Y004115D01*
X009021Y004295D01*
X009381Y004295D01*
X009381Y004115D01*
X009321Y004055D01*
X009321Y005538D02*
X009201Y005658D01*
X009021Y005658D01*
X009201Y005658D02*
X009321Y005778D01*
X009381Y005778D01*
X009381Y005538D02*
X009321Y005538D01*
X009021Y005906D02*
X009021Y006146D01*
X009381Y006146D01*
X009321Y006274D02*
X009201Y006274D01*
X009141Y006334D01*
X009141Y006515D01*
X009021Y006515D02*
X009381Y006515D01*
X009381Y006334D01*
X009321Y006274D01*
X009321Y006643D02*
X009381Y006703D01*
X009381Y006823D01*
X009321Y006883D01*
X009261Y006883D01*
X009201Y006823D01*
X009201Y006703D01*
X009141Y006643D01*
X009081Y006643D01*
X009021Y006703D01*
X009021Y006823D01*
X009081Y006883D01*
X008961Y007011D02*
X008961Y007251D01*
X009081Y007379D02*
X009021Y007439D01*
X009021Y007559D01*
X009081Y007620D01*
X009321Y007620D01*
X009381Y007559D01*
X009381Y007439D01*
X009321Y007379D01*
X009321Y007748D02*
X009201Y007748D01*
X009141Y007808D01*
X009141Y007988D01*
X009021Y007988D02*
X009381Y007988D01*
X009381Y007808D01*
X009321Y007748D01*
X009321Y008116D02*
X009381Y008176D01*
X009381Y008296D01*
X009321Y008356D01*
X009081Y008356D01*
X009021Y008296D01*
X009021Y008176D01*
X009081Y008116D01*
X009081Y008484D02*
X009021Y008544D01*
X009021Y008664D01*
X009081Y008724D01*
X009201Y008664D02*
X009201Y008544D01*
X009141Y008484D01*
X009081Y008484D01*
X009201Y008664D02*
X009261Y008724D01*
X009321Y008724D01*
X009381Y008664D01*
X009381Y008544D01*
X009321Y008484D01*
X017390Y004869D02*
X017390Y004409D01*
X017390Y004562D02*
X017620Y004562D01*
X017697Y004639D01*
X017697Y004792D01*
X017620Y004869D01*
X017390Y004869D01*
X017543Y004562D02*
X017697Y004409D01*
X017850Y004409D02*
X018157Y004409D01*
X018004Y004409D02*
X018004Y004869D01*
X017850Y004716D01*
X018310Y004792D02*
X018387Y004869D01*
X018541Y004869D01*
X018617Y004792D01*
X018617Y004716D01*
X018310Y004409D01*
X018617Y004409D01*
X018541Y002605D02*
X018617Y002528D01*
X018617Y002452D01*
X018541Y002375D01*
X018617Y002298D01*
X018617Y002222D01*
X018541Y002145D01*
X018387Y002145D01*
X018310Y002222D01*
X018157Y002145D02*
X017850Y002145D01*
X017697Y002145D02*
X017543Y002298D01*
X017620Y002298D02*
X017390Y002298D01*
X017390Y002145D02*
X017390Y002605D01*
X017620Y002605D01*
X017697Y002528D01*
X017697Y002375D01*
X017620Y002298D01*
X017850Y002452D02*
X018004Y002605D01*
X018004Y002145D01*
X018310Y002528D02*
X018387Y002605D01*
X018541Y002605D01*
X018541Y002375D02*
X018464Y002375D01*
X019687Y001212D02*
X019627Y001152D01*
X019627Y001092D01*
X019687Y001032D01*
X019807Y001032D01*
X019867Y000972D01*
X019867Y000912D01*
X019807Y000851D01*
X019687Y000851D01*
X019627Y000912D01*
X019687Y001212D02*
X019807Y001212D01*
X019867Y001152D01*
X019995Y001152D02*
X019995Y000912D01*
X020055Y000851D01*
X020175Y000851D01*
X020235Y000912D01*
X020363Y000851D02*
X020363Y001092D01*
X020483Y001212D01*
X020604Y001092D01*
X020604Y000851D01*
X020732Y000851D02*
X020912Y000851D01*
X020972Y000912D01*
X020972Y001152D01*
X020912Y001212D01*
X020732Y001212D01*
X020732Y000851D01*
X020604Y001032D02*
X020363Y001032D01*
X020235Y001152D02*
X020175Y001212D01*
X020055Y001212D01*
X019995Y001152D01*
X021100Y001092D02*
X021220Y001212D01*
X021340Y001092D01*
X021340Y000851D01*
X021468Y000791D02*
X021708Y000791D01*
X021837Y000851D02*
X021837Y001212D01*
X022017Y001212D01*
X022077Y001152D01*
X022077Y001032D01*
X022017Y000972D01*
X021837Y000972D01*
X021957Y000972D02*
X022077Y000851D01*
X022205Y000851D02*
X022445Y000851D01*
X022573Y000912D02*
X022633Y000851D01*
X022753Y000851D01*
X022813Y000912D01*
X022813Y001032D01*
X022693Y001032D01*
X022573Y001152D02*
X022633Y001212D01*
X022753Y001212D01*
X022813Y001152D01*
X022573Y001152D02*
X022573Y000912D01*
X022325Y001032D02*
X022205Y001032D01*
X022205Y001212D02*
X022205Y000851D01*
X022205Y001212D02*
X022445Y001212D01*
X022942Y000791D02*
X023182Y000791D01*
X023310Y000851D02*
X023310Y001092D01*
X023430Y001212D01*
X023550Y001092D01*
X023550Y000851D01*
X023550Y001032D02*
X023310Y001032D01*
X024154Y001092D02*
X024214Y001032D01*
X024334Y001032D01*
X024394Y000972D01*
X024394Y000912D01*
X024334Y000851D01*
X024214Y000851D01*
X024154Y000912D01*
X024154Y001092D02*
X024154Y001152D01*
X024214Y001212D01*
X024334Y001212D01*
X024394Y001152D01*
X024523Y001152D02*
X024523Y000912D01*
X024583Y000851D01*
X024703Y000851D01*
X024763Y000912D01*
X024891Y000851D02*
X024891Y001092D01*
X025011Y001212D01*
X025131Y001092D01*
X025131Y000851D01*
X025259Y000851D02*
X025439Y000851D01*
X025499Y000912D01*
X025499Y001152D01*
X025439Y001212D01*
X025259Y001212D01*
X025259Y000851D01*
X025131Y001032D02*
X024891Y001032D01*
X024763Y001152D02*
X024703Y001212D01*
X024583Y001212D01*
X024523Y001152D01*
X025628Y001092D02*
X025748Y001212D01*
X025868Y001092D01*
X025868Y000851D01*
X025996Y000791D02*
X026236Y000791D01*
X026364Y000851D02*
X026364Y001212D01*
X026544Y001212D01*
X026604Y001152D01*
X026604Y001032D01*
X026544Y000972D01*
X026364Y000972D01*
X026484Y000972D02*
X026604Y000851D01*
X026732Y000851D02*
X026732Y001212D01*
X026973Y001212D01*
X027101Y001152D02*
X027161Y001212D01*
X027281Y001212D01*
X027341Y001152D01*
X027341Y001032D02*
X027221Y001032D01*
X027341Y001032D02*
X027341Y000912D01*
X027281Y000851D01*
X027161Y000851D01*
X027101Y000912D01*
X027101Y001152D01*
X026853Y001032D02*
X026732Y001032D01*
X026732Y000851D02*
X026973Y000851D01*
X027469Y000791D02*
X027709Y000791D01*
X027837Y000851D02*
X027837Y001212D01*
X028018Y001212D01*
X028078Y001152D01*
X028078Y001092D01*
X028018Y001032D01*
X027837Y001032D01*
X027837Y000851D02*
X028018Y000851D01*
X028078Y000912D01*
X028078Y000972D01*
X028018Y001032D01*
X029469Y000851D02*
X029469Y001212D01*
X029589Y001092D01*
X029709Y001212D01*
X029709Y000851D01*
X029838Y000851D02*
X030018Y000851D01*
X030078Y000912D01*
X030078Y001152D01*
X030018Y001212D01*
X029838Y001212D01*
X029838Y000851D01*
X030206Y000851D02*
X030206Y001212D01*
X030326Y001092D01*
X030446Y001212D01*
X030446Y000851D01*
X030574Y000791D02*
X030814Y000791D01*
X030942Y000851D02*
X030942Y001212D01*
X031123Y001212D01*
X031183Y001152D01*
X031183Y001032D01*
X031123Y000972D01*
X030942Y000972D01*
X031063Y000972D02*
X031183Y000851D01*
X031311Y000851D02*
X031551Y000851D01*
X031679Y000912D02*
X031739Y000851D01*
X031859Y000851D01*
X031919Y000912D01*
X031919Y001032D01*
X031799Y001032D01*
X031679Y001152D02*
X031679Y000912D01*
X031679Y001152D02*
X031739Y001212D01*
X031859Y001212D01*
X031919Y001152D01*
X031551Y001212D02*
X031311Y001212D01*
X031311Y000851D01*
X031311Y001032D02*
X031431Y001032D01*
X032047Y000791D02*
X032288Y000791D01*
X032416Y000851D02*
X032416Y001092D01*
X032536Y001212D01*
X032656Y001092D01*
X032656Y000851D01*
X032656Y001032D02*
X032416Y001032D01*
X033603Y000851D02*
X033603Y001212D01*
X033723Y001092D01*
X033843Y001212D01*
X033843Y000851D01*
X033971Y000851D02*
X034152Y000851D01*
X034212Y000912D01*
X034212Y001152D01*
X034152Y001212D01*
X033971Y001212D01*
X033971Y000851D01*
X034340Y000851D02*
X034340Y001212D01*
X034460Y001092D01*
X034580Y001212D01*
X034580Y000851D01*
X034708Y000791D02*
X034948Y000791D01*
X035076Y000851D02*
X035076Y001212D01*
X035256Y001212D01*
X035317Y001152D01*
X035317Y001032D01*
X035256Y000972D01*
X035076Y000972D01*
X035196Y000972D02*
X035317Y000851D01*
X035445Y000851D02*
X035445Y001212D01*
X035685Y001212D01*
X035813Y001152D02*
X035873Y001212D01*
X035993Y001212D01*
X036053Y001152D01*
X036053Y001032D02*
X035933Y001032D01*
X036053Y001032D02*
X036053Y000912D01*
X035993Y000851D01*
X035873Y000851D01*
X035813Y000912D01*
X035813Y001152D01*
X035565Y001032D02*
X035445Y001032D01*
X035445Y000851D02*
X035685Y000851D01*
X036181Y000791D02*
X036421Y000791D01*
X036550Y000851D02*
X036550Y001212D01*
X036730Y001212D01*
X036790Y001152D01*
X036790Y001092D01*
X036730Y001032D01*
X036550Y001032D01*
X036730Y001032D02*
X036790Y000972D01*
X036790Y000912D01*
X036730Y000851D01*
X036550Y000851D01*
X038837Y008039D02*
X038837Y008269D01*
X038913Y008346D01*
X039067Y008346D01*
X039143Y008269D01*
X039143Y008039D01*
X039143Y008193D02*
X039297Y008346D01*
X039067Y008500D02*
X039067Y008807D01*
X039297Y008730D02*
X038837Y008730D01*
X039067Y008500D01*
X039297Y008039D02*
X038837Y008039D01*
X039624Y008039D02*
X039624Y008269D01*
X039701Y008346D01*
X039854Y008346D01*
X039931Y008269D01*
X039931Y008039D01*
X040084Y008039D02*
X039624Y008039D01*
X039931Y008193D02*
X040084Y008346D01*
X040008Y008500D02*
X040084Y008576D01*
X040084Y008730D01*
X040008Y008807D01*
X039931Y008807D01*
X039854Y008730D01*
X039854Y008653D01*
X039854Y008730D02*
X039777Y008807D01*
X039701Y008807D01*
X039624Y008730D01*
X039624Y008576D01*
X039701Y008500D01*
X039854Y008960D02*
X039854Y009267D01*
X039624Y009190D02*
X039854Y008960D01*
X040084Y009190D02*
X039624Y009190D01*
X044151Y009190D02*
X044228Y009267D01*
X044305Y009267D01*
X044382Y009190D01*
X044382Y009037D01*
X044305Y008960D01*
X044228Y008960D01*
X044151Y009037D01*
X044151Y009190D01*
X044382Y009190D02*
X044458Y009267D01*
X044535Y009267D01*
X044612Y009190D01*
X044612Y009037D01*
X044535Y008960D01*
X044458Y008960D01*
X044382Y009037D01*
X044305Y008807D02*
X044228Y008807D01*
X044151Y008730D01*
X044151Y008576D01*
X044228Y008500D01*
X044228Y008346D02*
X044382Y008346D01*
X044458Y008269D01*
X044458Y008039D01*
X044458Y008193D02*
X044612Y008346D01*
X044612Y008500D02*
X044305Y008807D01*
X044612Y008807D02*
X044612Y008500D01*
X044939Y008576D02*
X045016Y008500D01*
X044939Y008576D02*
X044939Y008730D01*
X045016Y008807D01*
X045092Y008807D01*
X045399Y008500D01*
X045399Y008807D01*
X045323Y008960D02*
X045399Y009037D01*
X045399Y009190D01*
X045323Y009267D01*
X045016Y009267D01*
X044939Y009190D01*
X044939Y009037D01*
X045016Y008960D01*
X045092Y008960D01*
X045169Y009037D01*
X045169Y009267D01*
X045169Y008346D02*
X045246Y008269D01*
X045246Y008039D01*
X045399Y008039D02*
X044939Y008039D01*
X044939Y008269D01*
X045016Y008346D01*
X045169Y008346D01*
X045246Y008193D02*
X045399Y008346D01*
X046120Y008269D02*
X046197Y008346D01*
X046350Y008346D01*
X046427Y008269D01*
X046427Y008039D01*
X046580Y008039D02*
X046120Y008039D01*
X046120Y008269D01*
X046197Y008500D02*
X046120Y008576D01*
X046120Y008730D01*
X046197Y008807D01*
X046273Y008807D01*
X046580Y008500D01*
X046580Y008807D01*
X046907Y008730D02*
X046984Y008807D01*
X047061Y008807D01*
X047138Y008730D01*
X047214Y008807D01*
X047291Y008807D01*
X047368Y008730D01*
X047368Y008576D01*
X047291Y008500D01*
X047368Y008346D02*
X047214Y008193D01*
X047214Y008269D02*
X047214Y008039D01*
X047368Y008039D02*
X046907Y008039D01*
X046907Y008269D01*
X046984Y008346D01*
X047138Y008346D01*
X047214Y008269D01*
X046984Y008500D02*
X046907Y008576D01*
X046907Y008730D01*
X047138Y008730D02*
X047138Y008653D01*
X046580Y008346D02*
X046427Y008193D01*
X048089Y008269D02*
X048165Y008346D01*
X048319Y008346D01*
X048395Y008269D01*
X048395Y008039D01*
X048395Y008193D02*
X048549Y008346D01*
X048549Y008500D02*
X048549Y008807D01*
X048549Y008653D02*
X048089Y008653D01*
X048242Y008500D01*
X048089Y008269D02*
X048089Y008039D01*
X048549Y008039D01*
X048876Y008039D02*
X048876Y008269D01*
X048953Y008346D01*
X049106Y008346D01*
X049183Y008269D01*
X049183Y008039D01*
X049336Y008039D02*
X048876Y008039D01*
X049183Y008193D02*
X049336Y008346D01*
X049336Y008500D02*
X049336Y008807D01*
X049336Y008653D02*
X048876Y008653D01*
X049029Y008500D01*
X049106Y008960D02*
X049029Y009114D01*
X049029Y009190D01*
X049106Y009267D01*
X049260Y009267D01*
X049336Y009190D01*
X049336Y009037D01*
X049260Y008960D01*
X049106Y008960D02*
X048876Y008960D01*
X048876Y009267D01*
X048549Y009190D02*
X048089Y009190D01*
X048319Y008960D01*
X048319Y009267D01*
X044612Y008039D02*
X044151Y008039D01*
X044151Y008269D01*
X044228Y008346D01*
X048224Y017893D02*
X048377Y017893D01*
X048454Y017970D01*
X048607Y017893D02*
X048914Y017893D01*
X048761Y017893D02*
X048761Y018353D01*
X048607Y018200D01*
X048454Y018276D02*
X048377Y018353D01*
X048224Y018353D01*
X048147Y018276D01*
X048147Y017970D01*
X048224Y017893D01*
X049565Y021819D02*
X049565Y022049D01*
X049642Y022126D01*
X049795Y022126D01*
X049872Y022049D01*
X049872Y021819D01*
X050025Y021819D02*
X049565Y021819D01*
X049872Y021972D02*
X050025Y022126D01*
X049949Y022279D02*
X050025Y022356D01*
X050025Y022509D01*
X049949Y022586D01*
X049795Y022586D01*
X049718Y022509D01*
X049718Y022433D01*
X049795Y022279D01*
X049565Y022279D01*
X049565Y022586D01*
X049642Y022740D02*
X049565Y022816D01*
X049565Y022970D01*
X049642Y023047D01*
X049718Y023047D01*
X049795Y022970D01*
X049872Y023047D01*
X049949Y023047D01*
X050025Y022970D01*
X050025Y022816D01*
X049949Y022740D01*
X049795Y022893D02*
X049795Y022970D01*
X048856Y027539D02*
X048702Y027539D01*
X048625Y027615D01*
X048472Y027615D02*
X048395Y027539D01*
X048242Y027539D01*
X048165Y027615D01*
X048012Y027539D02*
X047858Y027692D01*
X047935Y027692D02*
X047705Y027692D01*
X047705Y027539D02*
X047705Y027999D01*
X047935Y027999D01*
X048012Y027922D01*
X048012Y027769D01*
X047935Y027692D01*
X048165Y027922D02*
X048242Y027999D01*
X048395Y027999D01*
X048472Y027922D01*
X048472Y027845D01*
X048395Y027769D01*
X048472Y027692D01*
X048472Y027615D01*
X048395Y027769D02*
X048319Y027769D01*
X048625Y027769D02*
X048779Y027845D01*
X048856Y027845D01*
X048932Y027769D01*
X048932Y027615D01*
X048856Y027539D01*
X048625Y027769D02*
X048625Y027999D01*
X048932Y027999D01*
X048856Y029605D02*
X048702Y029605D01*
X048625Y029682D01*
X048625Y029836D01*
X048856Y029836D01*
X048932Y029759D01*
X048932Y029682D01*
X048856Y029605D01*
X048625Y029836D02*
X048779Y029989D01*
X048932Y030066D01*
X048789Y030491D02*
X048635Y030491D01*
X048559Y030568D01*
X048559Y030721D02*
X048712Y030798D01*
X048789Y030798D01*
X048866Y030721D01*
X048866Y030568D01*
X048789Y030491D01*
X048559Y030721D02*
X048559Y030952D01*
X048866Y030952D01*
X048405Y030875D02*
X048405Y030721D01*
X048329Y030645D01*
X048098Y030645D01*
X048098Y030491D02*
X048098Y030952D01*
X048329Y030952D01*
X048405Y030875D01*
X048252Y030645D02*
X048405Y030491D01*
X048395Y030066D02*
X048472Y029989D01*
X048472Y029912D01*
X048395Y029836D01*
X048472Y029759D01*
X048472Y029682D01*
X048395Y029605D01*
X048242Y029605D01*
X048165Y029682D01*
X048012Y029605D02*
X047858Y029759D01*
X047935Y029759D02*
X047705Y029759D01*
X047705Y029605D02*
X047705Y030066D01*
X047935Y030066D01*
X048012Y029989D01*
X048012Y029836D01*
X047935Y029759D01*
X048165Y029989D02*
X048242Y030066D01*
X048395Y030066D01*
X048395Y029836D02*
X048319Y029836D01*
X048312Y034427D02*
X048619Y034427D01*
X048465Y034427D02*
X048465Y034887D01*
X048312Y034734D01*
X048158Y034427D02*
X047851Y034427D01*
X047851Y034887D01*
X043529Y043866D02*
X043069Y043866D01*
X043069Y044096D01*
X043146Y044173D01*
X043299Y044173D01*
X043376Y044096D01*
X043376Y043866D01*
X043376Y044020D02*
X043529Y044173D01*
X043529Y044326D02*
X043222Y044633D01*
X043146Y044633D01*
X043069Y044557D01*
X043069Y044403D01*
X043146Y044326D01*
X043529Y044326D02*
X043529Y044633D01*
X043529Y044787D02*
X043452Y044787D01*
X043146Y045094D01*
X043069Y045094D01*
X043069Y044787D01*
X042453Y045325D02*
X042453Y045479D01*
X042376Y045556D01*
X041992Y045556D01*
X042069Y045709D02*
X041992Y045786D01*
X041992Y045939D01*
X042069Y046016D01*
X042146Y046016D01*
X042223Y045939D01*
X042299Y046016D01*
X042376Y046016D01*
X042453Y045939D01*
X042453Y045786D01*
X042376Y045709D01*
X042223Y045863D02*
X042223Y045939D01*
X042453Y045325D02*
X042376Y045249D01*
X041992Y045249D01*
X045605Y045412D02*
X046065Y045412D01*
X046065Y045565D02*
X046065Y045258D01*
X045989Y045105D02*
X046065Y045028D01*
X046065Y044874D01*
X045989Y044798D01*
X045912Y044798D01*
X045835Y044874D01*
X045759Y044798D01*
X045682Y044798D01*
X045605Y044874D01*
X045605Y045028D01*
X045682Y045105D01*
X045835Y044951D02*
X045835Y044874D01*
X036666Y041804D02*
X036359Y041804D01*
X036512Y041804D02*
X036512Y042264D01*
X036359Y042111D01*
X036205Y042264D02*
X036052Y042264D01*
X036129Y042264D02*
X036129Y041881D01*
X036052Y041804D01*
X035975Y041804D01*
X035898Y041881D01*
X028350Y051259D02*
X028350Y051336D01*
X028657Y051643D01*
X028657Y051719D01*
X028350Y051719D01*
X028120Y051719D02*
X027889Y051489D01*
X028196Y051489D01*
X028120Y051259D02*
X028120Y051719D01*
X027736Y051643D02*
X027736Y051489D01*
X027659Y051412D01*
X027429Y051412D01*
X027429Y051259D02*
X027429Y051719D01*
X027659Y051719D01*
X027736Y051643D01*
X027583Y051412D02*
X027736Y051259D01*
X027802Y053223D02*
X027341Y053223D01*
X027341Y053453D01*
X027418Y053530D01*
X027571Y053530D01*
X027648Y053453D01*
X027648Y053223D01*
X027648Y053376D02*
X027802Y053530D01*
X027725Y053683D02*
X027802Y053760D01*
X027802Y053913D01*
X027725Y053990D01*
X027648Y053990D01*
X027571Y053913D01*
X027571Y053837D01*
X027571Y053913D02*
X027495Y053990D01*
X027418Y053990D01*
X027341Y053913D01*
X027341Y053760D01*
X027418Y053683D01*
X027495Y054143D02*
X027341Y054297D01*
X027802Y054297D01*
X027802Y054450D02*
X027802Y054143D01*
X027802Y054699D02*
X027341Y054699D01*
X027341Y054929D01*
X027418Y055006D01*
X027571Y055006D01*
X027648Y054929D01*
X027648Y054699D01*
X027648Y054853D02*
X027802Y055006D01*
X027725Y055159D02*
X027802Y055236D01*
X027802Y055390D01*
X027725Y055466D01*
X027648Y055466D01*
X027571Y055390D01*
X027571Y055313D01*
X027571Y055390D02*
X027495Y055466D01*
X027418Y055466D01*
X027341Y055390D01*
X027341Y055236D01*
X027418Y055159D01*
X027418Y055620D02*
X027341Y055697D01*
X027341Y055850D01*
X027418Y055927D01*
X027725Y055620D01*
X027802Y055697D01*
X027802Y055850D01*
X027725Y055927D01*
X027418Y055927D01*
X027418Y055620D02*
X027725Y055620D01*
X026694Y056236D02*
X026694Y056543D01*
X026618Y056620D01*
X026464Y056620D01*
X026388Y056543D01*
X026388Y056467D01*
X026464Y056390D01*
X026694Y056390D01*
X026694Y056236D02*
X026618Y056160D01*
X026464Y056160D01*
X026388Y056236D01*
X026234Y056160D02*
X026081Y056313D01*
X026157Y056313D02*
X025927Y056313D01*
X025927Y056160D02*
X025927Y056620D01*
X026157Y056620D01*
X026234Y056543D01*
X026234Y056390D01*
X026157Y056313D01*
X025317Y056368D02*
X025317Y056445D01*
X025240Y056522D01*
X025086Y056522D01*
X025010Y056445D01*
X024856Y056522D02*
X024549Y056522D01*
X024549Y056292D01*
X024703Y056368D01*
X024779Y056368D01*
X024856Y056292D01*
X024856Y056138D01*
X024779Y056061D01*
X024626Y056061D01*
X024549Y056138D01*
X024396Y056061D02*
X024242Y056215D01*
X024319Y056215D02*
X024089Y056215D01*
X024089Y056061D02*
X024089Y056522D01*
X024319Y056522D01*
X024396Y056445D01*
X024396Y056292D01*
X024319Y056215D01*
X025010Y056061D02*
X025317Y056368D01*
X025317Y056061D02*
X025010Y056061D01*
X018043Y058577D02*
X018043Y058654D01*
X017966Y058731D01*
X017736Y058731D01*
X017736Y058577D01*
X017813Y058501D01*
X017966Y058501D01*
X018043Y058577D01*
X017890Y058884D02*
X017736Y058731D01*
X017890Y058884D02*
X018043Y058961D01*
X017429Y058961D02*
X017429Y058501D01*
X017276Y058501D02*
X017583Y058501D01*
X017276Y058808D02*
X017429Y058961D01*
X017122Y058961D02*
X017122Y058654D01*
X016969Y058501D01*
X016815Y058654D01*
X016815Y058961D01*
X016662Y058961D02*
X016355Y058961D01*
X016509Y058961D02*
X016509Y058501D01*
X014401Y052819D02*
X014161Y052819D01*
X014040Y052699D01*
X014161Y052579D01*
X014401Y052579D01*
X013980Y052451D02*
X013980Y052210D01*
X014040Y052082D02*
X014401Y052082D01*
X014401Y051902D01*
X014341Y051842D01*
X014221Y051842D01*
X014161Y051902D01*
X014161Y052082D01*
X014040Y051714D02*
X014161Y051594D01*
X014040Y051474D01*
X014401Y051474D01*
X014401Y051346D02*
X014401Y051166D01*
X014341Y051106D01*
X014221Y051106D01*
X014161Y051166D01*
X014161Y051346D01*
X014161Y051226D02*
X014040Y051106D01*
X013980Y050977D02*
X013980Y050737D01*
X014101Y050609D02*
X014040Y050549D01*
X014040Y050429D01*
X014101Y050369D01*
X014161Y050369D01*
X014221Y050429D01*
X014221Y050549D01*
X014281Y050609D01*
X014341Y050609D01*
X014401Y050549D01*
X014401Y050429D01*
X014341Y050369D01*
X014401Y050241D02*
X014401Y050061D01*
X014341Y050001D01*
X014221Y050001D01*
X014161Y050061D01*
X014161Y050241D01*
X014040Y050241D02*
X014401Y050241D01*
X014401Y049872D02*
X014040Y049872D01*
X014040Y049632D01*
X014040Y049384D02*
X014221Y049384D01*
X014341Y049264D01*
X014401Y049264D01*
X014221Y049384D02*
X014341Y049504D01*
X014401Y049504D01*
X014401Y051346D02*
X014040Y051346D01*
X014040Y051714D02*
X014401Y051714D01*
X009667Y040374D02*
X009744Y040298D01*
X009744Y040221D01*
X009667Y040144D01*
X009744Y040068D01*
X009744Y039991D01*
X009667Y039914D01*
X009514Y039914D01*
X009437Y039991D01*
X009284Y039991D02*
X009284Y040068D01*
X009207Y040144D01*
X009054Y040144D01*
X008977Y040221D01*
X008977Y040298D01*
X009054Y040374D01*
X009207Y040374D01*
X009284Y040298D01*
X009437Y040298D02*
X009514Y040374D01*
X009667Y040374D01*
X009667Y040144D02*
X009591Y040144D01*
X009284Y039991D02*
X009207Y039914D01*
X009054Y039914D01*
X008977Y039991D01*
X008823Y039991D02*
X008823Y040374D01*
X008516Y040374D02*
X008516Y039991D01*
X008593Y039914D01*
X008747Y039914D01*
X008823Y039991D01*
X009130Y039837D02*
X009130Y040451D01*
X001887Y040468D02*
X001767Y040348D01*
X001887Y040228D01*
X001526Y040228D01*
X001466Y040100D02*
X001466Y039860D01*
X001586Y039732D02*
X001526Y039671D01*
X001526Y039551D01*
X001586Y039491D01*
X001646Y039491D01*
X001706Y039551D01*
X001706Y039671D01*
X001767Y039732D01*
X001827Y039732D01*
X001887Y039671D01*
X001887Y039551D01*
X001827Y039491D01*
X001887Y039363D02*
X001887Y039183D01*
X001827Y039123D01*
X001706Y039123D01*
X001646Y039183D01*
X001646Y039363D01*
X001526Y039363D02*
X001887Y039363D01*
X001887Y038995D02*
X001526Y038995D01*
X001526Y038755D01*
X001526Y038506D02*
X001706Y038506D01*
X001827Y038386D01*
X001887Y038386D01*
X001706Y038506D02*
X001827Y038627D01*
X001887Y038627D01*
X001466Y038258D02*
X001466Y038018D01*
X001526Y037890D02*
X001887Y037890D01*
X001706Y037890D02*
X001706Y037650D01*
X001526Y037650D02*
X001887Y037650D01*
X001887Y037522D02*
X001526Y037281D01*
X001466Y037153D02*
X001466Y036913D01*
X001526Y036785D02*
X001767Y036785D01*
X001887Y036665D01*
X001767Y036545D01*
X001526Y036545D01*
X001706Y036545D02*
X001706Y036785D01*
X001887Y037281D02*
X001526Y037522D01*
X001099Y037268D02*
X000979Y037148D01*
X001099Y037028D01*
X000739Y037028D01*
X000739Y036899D02*
X000739Y036719D01*
X000799Y036659D01*
X001039Y036659D01*
X001099Y036719D01*
X001099Y036899D01*
X000739Y036899D01*
X000739Y036531D02*
X001099Y036531D01*
X000979Y036411D01*
X001099Y036291D01*
X000739Y036291D01*
X000679Y036163D02*
X000679Y035923D01*
X000799Y035795D02*
X000739Y035734D01*
X000739Y035614D01*
X000799Y035554D01*
X000859Y035554D01*
X000919Y035614D01*
X000919Y035734D01*
X000979Y035795D01*
X001039Y035795D01*
X001099Y035734D01*
X001099Y035614D01*
X001039Y035554D01*
X001099Y035426D02*
X001099Y035246D01*
X001039Y035186D01*
X000919Y035186D01*
X000859Y035246D01*
X000859Y035426D01*
X000739Y035426D02*
X001099Y035426D01*
X001099Y035058D02*
X000739Y035058D01*
X000739Y034818D01*
X000739Y034569D02*
X000919Y034569D01*
X001039Y034449D01*
X001099Y034449D01*
X000919Y034569D02*
X001039Y034690D01*
X001099Y034690D01*
X000679Y034321D02*
X000679Y034081D01*
X000739Y033953D02*
X001099Y033953D01*
X000919Y033953D02*
X000919Y033713D01*
X001099Y033713D02*
X000739Y033713D01*
X000739Y033585D02*
X001099Y033344D01*
X001099Y033585D02*
X000739Y033344D01*
X000679Y033216D02*
X000679Y032976D01*
X000739Y032848D02*
X000739Y032668D01*
X000799Y032608D01*
X000859Y032608D01*
X000919Y032668D01*
X000919Y032848D01*
X000739Y032848D02*
X001099Y032848D01*
X001099Y032668D01*
X001039Y032608D01*
X000979Y032608D01*
X000919Y032668D01*
X000739Y037268D02*
X001099Y037268D01*
X001526Y040468D02*
X001887Y040468D01*
X001827Y040596D02*
X001887Y040656D01*
X001887Y040836D01*
X001526Y040836D01*
X001526Y040656D01*
X001586Y040596D01*
X001827Y040596D01*
X001887Y040965D02*
X001526Y040965D01*
X001526Y041205D02*
X001887Y041205D01*
X001767Y041085D01*
X001887Y040965D01*
X008516Y031713D02*
X008516Y031329D01*
X008593Y031253D01*
X008747Y031253D01*
X008823Y031329D01*
X008823Y031713D01*
X008977Y031636D02*
X009054Y031713D01*
X009207Y031713D01*
X009284Y031636D01*
X009207Y031483D02*
X009284Y031406D01*
X009284Y031329D01*
X009207Y031253D01*
X009054Y031253D01*
X008977Y031329D01*
X009054Y031483D02*
X008977Y031560D01*
X008977Y031636D01*
X009054Y031483D02*
X009207Y031483D01*
X009437Y031483D02*
X009437Y031329D01*
X009514Y031253D01*
X009667Y031253D01*
X009744Y031329D01*
X009744Y031406D01*
X009667Y031483D01*
X009437Y031483D01*
X009591Y031636D01*
X009744Y031713D01*
X009130Y031790D02*
X009130Y031176D01*
X020628Y009365D02*
X020705Y009212D01*
X020858Y009059D01*
X020858Y009289D01*
X020935Y009365D01*
X021012Y009365D01*
X021088Y009289D01*
X021088Y009135D01*
X021012Y009059D01*
X020858Y009059D01*
X021088Y008905D02*
X021088Y008598D01*
X021088Y008445D02*
X020935Y008291D01*
X020935Y008368D02*
X020935Y008138D01*
X021088Y008138D02*
X020628Y008138D01*
X020628Y008368D01*
X020705Y008445D01*
X020858Y008445D01*
X020935Y008368D01*
X020781Y008598D02*
X020628Y008752D01*
X021088Y008752D01*
X021436Y008659D02*
X021896Y008659D01*
X021896Y008506D02*
X021896Y008813D01*
X021896Y008966D02*
X021819Y008966D01*
X021512Y009273D01*
X021436Y009273D01*
X021436Y008966D01*
X021436Y008659D02*
X021589Y008506D01*
X021512Y008352D02*
X021666Y008352D01*
X021743Y008276D01*
X021743Y008046D01*
X021743Y008199D02*
X021896Y008352D01*
X021896Y008046D02*
X021436Y008046D01*
X021436Y008276D01*
X021512Y008352D01*
X019897Y008040D02*
X019590Y007733D01*
X019667Y007657D01*
X019820Y007657D01*
X019897Y007733D01*
X019897Y008040D01*
X019820Y008117D01*
X019667Y008117D01*
X019590Y008040D01*
X019590Y007733D01*
X019437Y007657D02*
X019130Y007657D01*
X019283Y007657D02*
X019283Y008117D01*
X019130Y007964D01*
X018976Y008040D02*
X018976Y007887D01*
X018899Y007810D01*
X018669Y007810D01*
X018669Y007657D02*
X018669Y008117D01*
X018899Y008117D01*
X018976Y008040D01*
X018823Y007810D02*
X018976Y007657D01*
X018899Y007330D02*
X018976Y007253D01*
X018976Y007099D01*
X018899Y007023D01*
X018669Y007023D01*
X018823Y007023D02*
X018976Y006869D01*
X019130Y006869D02*
X019437Y006869D01*
X019590Y006869D02*
X019897Y006869D01*
X019743Y006869D02*
X019743Y007330D01*
X019590Y007176D01*
X019283Y007330D02*
X019283Y006869D01*
X019130Y007176D02*
X019283Y007330D01*
X018899Y007330D02*
X018669Y007330D01*
X018669Y006869D01*
X021100Y001092D02*
X021100Y000851D01*
X021100Y001032D02*
X021340Y001032D01*
X025628Y001032D02*
X025868Y001032D01*
X025628Y001092D02*
X025628Y000851D01*
X054394Y003713D02*
X054394Y004020D01*
X054547Y004174D02*
X054394Y004327D01*
X054547Y004481D01*
X054854Y004481D01*
X054854Y004634D02*
X054394Y004634D01*
X054854Y004941D01*
X054394Y004941D01*
X054624Y004481D02*
X054624Y004174D01*
X054547Y004174D02*
X054854Y004174D01*
X054624Y003867D02*
X054624Y003713D01*
X054854Y003713D02*
X054394Y003713D01*
X054931Y005094D02*
X054931Y005401D01*
X054854Y005555D02*
X054854Y005785D01*
X054778Y005862D01*
X054701Y005862D01*
X054624Y005785D01*
X054624Y005555D01*
X054854Y005555D02*
X054394Y005555D01*
X054394Y005785D01*
X054471Y005862D01*
X054547Y005862D01*
X054624Y005785D01*
X054624Y007650D02*
X054624Y007804D01*
X054394Y007650D02*
X054394Y007957D01*
X054547Y008111D02*
X054394Y008264D01*
X054547Y008418D01*
X054854Y008418D01*
X054854Y008571D02*
X054394Y008571D01*
X054854Y008878D01*
X054394Y008878D01*
X054624Y008418D02*
X054624Y008111D01*
X054547Y008111D02*
X054854Y008111D01*
X054854Y007650D02*
X054394Y007650D01*
X054931Y009031D02*
X054931Y009338D01*
X054854Y009492D02*
X054547Y009492D01*
X054394Y009645D01*
X054547Y009799D01*
X054854Y009799D01*
X054624Y009799D02*
X054624Y009492D01*
X035921Y056678D02*
X035614Y056678D01*
X035768Y056678D02*
X035768Y057138D01*
X035614Y056985D01*
X035461Y057062D02*
X035384Y057138D01*
X035231Y057138D01*
X035154Y057062D01*
X035154Y056985D01*
X035231Y056908D01*
X035384Y056908D01*
X035461Y056831D01*
X035461Y056755D01*
X035384Y056678D01*
X035231Y056678D01*
X035154Y056755D01*
X035001Y056755D02*
X035001Y057138D01*
X034694Y057138D02*
X034694Y056755D01*
X034770Y056678D01*
X034924Y056678D01*
X035001Y056755D01*
X035307Y056601D02*
X035307Y057215D01*
D13*
X040544Y056440D02*
X040694Y056440D01*
X040619Y056440D02*
X040619Y055990D01*
X040544Y055990D02*
X040694Y055990D01*
X040851Y056065D02*
X040926Y055990D01*
X041076Y055990D01*
X041151Y056065D01*
X041311Y055990D02*
X041611Y056290D01*
X041611Y056365D01*
X041536Y056440D01*
X041386Y056440D01*
X041311Y056365D01*
X041151Y056365D02*
X041076Y056440D01*
X040926Y056440D01*
X040851Y056365D01*
X040851Y056065D01*
X041311Y055990D02*
X041611Y055990D01*
X044784Y057164D02*
X045235Y057164D01*
X045235Y057014D02*
X045235Y057314D01*
X045160Y057474D02*
X045235Y057549D01*
X045235Y057699D01*
X045160Y057774D01*
X045085Y057774D01*
X045010Y057699D01*
X045010Y057474D01*
X045160Y057474D01*
X045010Y057474D02*
X044860Y057624D01*
X044784Y057774D01*
X044784Y057164D02*
X044935Y057014D01*
X042748Y050563D02*
X040386Y050563D01*
X040386Y044619D01*
X042748Y044619D01*
X042748Y050563D01*
X040386Y050563D02*
X039717Y050563D01*
X039717Y044619D01*
X040386Y044619D01*
X047584Y050464D02*
X047735Y050314D01*
X047584Y050464D02*
X048035Y050464D01*
X048035Y050314D02*
X048035Y050614D01*
X053411Y032227D02*
X053336Y032152D01*
X053336Y032002D01*
X053411Y031927D01*
X053486Y031927D01*
X053561Y032002D01*
X053561Y032227D01*
X053711Y032227D02*
X053411Y032227D01*
X053711Y032227D02*
X053786Y032152D01*
X053786Y032002D01*
X053711Y031927D01*
X053711Y031767D02*
X053786Y031692D01*
X053786Y031542D01*
X053711Y031467D01*
X053561Y031617D02*
X053561Y031692D01*
X053636Y031767D01*
X053711Y031767D01*
X053561Y031692D02*
X053486Y031767D01*
X053411Y031767D01*
X053336Y031692D01*
X053336Y031542D01*
X053411Y031467D01*
X053786Y028093D02*
X053786Y027793D01*
X053786Y027943D02*
X053336Y027943D01*
X053486Y027793D01*
X053486Y027633D02*
X053561Y027558D01*
X053636Y027633D01*
X053711Y027633D01*
X053786Y027558D01*
X053786Y027408D01*
X053711Y027333D01*
X053561Y027483D02*
X053561Y027558D01*
X053486Y027633D02*
X053411Y027633D01*
X053336Y027558D01*
X053336Y027408D01*
X053411Y027333D01*
X053786Y023172D02*
X053786Y022872D01*
X053786Y023022D02*
X053336Y023022D01*
X053486Y022872D01*
X053486Y022712D02*
X053411Y022712D01*
X053336Y022637D01*
X053336Y022487D01*
X053411Y022411D01*
X053486Y022712D02*
X053786Y022411D01*
X053786Y022712D01*
X052721Y022256D02*
X051540Y022256D01*
X052130Y021666D02*
X052130Y022847D01*
X053786Y018054D02*
X053786Y017754D01*
X053786Y017904D02*
X053336Y017904D01*
X053486Y017754D01*
X053786Y017594D02*
X053786Y017293D01*
X053786Y017443D02*
X053336Y017443D01*
X053486Y017293D01*
X053786Y012903D02*
X053786Y012602D01*
X053786Y012752D02*
X053336Y012752D01*
X053486Y012602D01*
X052983Y012507D02*
X052983Y012357D01*
X052908Y012282D01*
X052833Y012282D01*
X052758Y012357D01*
X052758Y012507D01*
X052833Y012582D01*
X052908Y012582D01*
X052983Y012507D01*
X052758Y012507D02*
X052683Y012582D01*
X052608Y012582D01*
X052533Y012507D01*
X052533Y012357D01*
X052608Y012282D01*
X052683Y012282D01*
X052758Y012357D01*
X052533Y012121D02*
X052533Y011971D01*
X052533Y012046D02*
X052908Y012046D01*
X052983Y011971D01*
X052983Y011896D01*
X052908Y011821D01*
X052040Y010150D02*
X052040Y007394D01*
X054244Y007394D01*
X054244Y010150D01*
X052040Y010150D01*
X051489Y010150D01*
X051489Y007394D01*
X052040Y007394D01*
X052040Y006213D02*
X051489Y006213D01*
X051489Y003457D01*
X052040Y003457D01*
X052040Y006213D01*
X054244Y006213D01*
X054244Y003457D01*
X052040Y003457D01*
X049827Y001208D02*
X049902Y001133D01*
X049827Y001208D02*
X049677Y001208D01*
X049602Y001133D01*
X049602Y000833D01*
X049677Y000758D01*
X049827Y000758D01*
X049902Y000833D01*
X049902Y000983D01*
X049752Y000983D01*
X049442Y000758D02*
X049141Y000758D01*
X049141Y001208D01*
X049442Y001208D01*
X049292Y000983D02*
X049141Y000983D01*
X048981Y000983D02*
X048906Y000908D01*
X048681Y000908D01*
X048681Y000758D02*
X048681Y001208D01*
X048906Y001208D01*
X048981Y001133D01*
X048981Y000983D01*
X048831Y000908D02*
X048981Y000758D01*
X048521Y000683D02*
X048221Y000683D01*
X048061Y000833D02*
X047985Y000758D01*
X047835Y000758D01*
X047760Y000833D01*
X047760Y001133D01*
X047835Y001208D01*
X047985Y001208D01*
X048061Y001133D01*
X047600Y001208D02*
X047300Y001208D01*
X047450Y001208D02*
X047450Y000758D01*
X047140Y000758D02*
X046839Y000758D01*
X046839Y001208D01*
X046679Y000683D02*
X046379Y000683D01*
X046219Y000758D02*
X046219Y001208D01*
X046069Y001058D01*
X045919Y001208D01*
X045919Y000758D01*
X045759Y000833D02*
X045759Y001133D01*
X045683Y001208D01*
X045533Y001208D01*
X045458Y001133D01*
X045458Y000833D01*
X045533Y000758D01*
X045683Y000758D01*
X045759Y000833D01*
X045298Y000758D02*
X045148Y000908D01*
X045223Y000908D02*
X044998Y000908D01*
X044998Y000758D02*
X044998Y001208D01*
X045223Y001208D01*
X045298Y001133D01*
X045298Y000983D01*
X045223Y000908D01*
X044838Y001208D02*
X044538Y001208D01*
X044538Y000758D01*
X044538Y000983D02*
X044688Y000983D01*
X043072Y000932D02*
X043072Y001082D01*
X042921Y001082D01*
X042771Y001232D02*
X042771Y000932D01*
X042846Y000856D01*
X042996Y000856D01*
X043072Y000932D01*
X043072Y001232D02*
X042996Y001307D01*
X042846Y001307D01*
X042771Y001232D01*
X042611Y001307D02*
X042311Y001307D01*
X042311Y000856D01*
X042611Y000856D01*
X042461Y001082D02*
X042311Y001082D01*
X042151Y001082D02*
X042076Y001007D01*
X041851Y001007D01*
X042001Y001007D02*
X042151Y000856D01*
X042151Y001082D02*
X042151Y001232D01*
X042076Y001307D01*
X041851Y001307D01*
X041851Y000856D01*
X041690Y000781D02*
X041390Y000781D01*
X041230Y000932D02*
X041155Y000856D01*
X041005Y000856D01*
X040930Y000932D01*
X040930Y001232D01*
X041005Y001307D01*
X041155Y001307D01*
X041230Y001232D01*
X040770Y001307D02*
X040469Y001307D01*
X040619Y001307D02*
X040619Y000856D01*
X040309Y000856D02*
X040009Y000856D01*
X040009Y001307D01*
X039849Y000781D02*
X039549Y000781D01*
X039388Y000932D02*
X039388Y001232D01*
X039313Y001307D01*
X039163Y001307D01*
X039088Y001232D01*
X039088Y000932D01*
X039163Y000856D01*
X039313Y000856D01*
X039388Y000932D01*
X038928Y001307D02*
X038628Y001307D01*
X038778Y001307D02*
X038778Y000856D01*
X038956Y004612D02*
X039256Y004612D01*
X039106Y004612D02*
X039106Y005062D01*
X038956Y004912D01*
X040956Y004987D02*
X041031Y005062D01*
X041181Y005062D01*
X041256Y004987D01*
X041256Y004912D01*
X040956Y004612D01*
X041256Y004612D01*
X044472Y004612D02*
X044773Y004612D01*
X044622Y004612D02*
X044622Y005062D01*
X044472Y004912D01*
X046472Y004987D02*
X046547Y005062D01*
X046697Y005062D01*
X046773Y004987D01*
X046773Y004912D01*
X046472Y004612D01*
X046773Y004612D01*
X048472Y004687D02*
X048547Y004612D01*
X048697Y004612D01*
X048773Y004687D01*
X048773Y004762D01*
X048697Y004837D01*
X048622Y004837D01*
X048697Y004837D02*
X048773Y004912D01*
X048773Y004987D01*
X048697Y005062D01*
X048547Y005062D01*
X048472Y004987D01*
X042487Y012369D02*
X042111Y012369D01*
X042111Y012669D02*
X042487Y012669D01*
X042562Y012594D01*
X042562Y012444D01*
X042487Y012369D01*
X042487Y012829D02*
X042562Y012904D01*
X042562Y013054D01*
X042487Y013129D01*
X042411Y013129D01*
X042336Y013054D01*
X042336Y012904D01*
X042261Y012829D01*
X042186Y012829D01*
X042111Y012904D01*
X042111Y013054D01*
X042186Y013129D01*
X042186Y013289D02*
X042261Y013289D01*
X042336Y013365D01*
X042336Y013515D01*
X042411Y013590D01*
X042487Y013590D01*
X042562Y013515D01*
X042562Y013365D01*
X042487Y013289D01*
X042411Y013289D01*
X042336Y013365D01*
X042336Y013515D02*
X042261Y013590D01*
X042186Y013590D01*
X042111Y013515D01*
X042111Y013365D01*
X042186Y013289D01*
X042036Y012979D02*
X042637Y012979D01*
X035670Y005062D02*
X035519Y005062D01*
X035444Y004987D01*
X035670Y005062D02*
X035745Y004987D01*
X035745Y004912D01*
X035444Y004612D01*
X035745Y004612D01*
X033745Y004612D02*
X033444Y004612D01*
X033594Y004612D02*
X033594Y005062D01*
X033444Y004912D01*
X031808Y004912D02*
X031507Y004612D01*
X031808Y004612D01*
X031808Y004912D02*
X031808Y004987D01*
X031733Y005062D01*
X031582Y005062D01*
X031507Y004987D01*
X029808Y004612D02*
X029507Y004612D01*
X029657Y004612D02*
X029657Y005062D01*
X029507Y004912D01*
X026296Y004912D02*
X026296Y004987D01*
X026221Y005062D01*
X026071Y005062D01*
X025996Y004987D01*
X026296Y004912D02*
X025996Y004612D01*
X026296Y004612D01*
X024296Y004612D02*
X023996Y004612D01*
X024146Y004612D02*
X024146Y005062D01*
X023996Y004912D01*
X022359Y004912D02*
X022059Y004612D01*
X022359Y004612D01*
X022359Y004912D02*
X022359Y004987D01*
X022284Y005062D01*
X022134Y005062D01*
X022059Y004987D01*
X020359Y004612D02*
X020059Y004612D01*
X020209Y004612D02*
X020209Y005062D01*
X020059Y004912D01*
X015692Y004541D02*
X015692Y004241D01*
X015692Y004391D02*
X015242Y004391D01*
X015392Y004241D01*
X015392Y002541D02*
X015317Y002541D01*
X015242Y002466D01*
X015242Y002316D01*
X015317Y002241D01*
X015392Y002541D02*
X015692Y002241D01*
X015692Y002541D01*
X015692Y006178D02*
X015392Y006478D01*
X015317Y006478D01*
X015242Y006403D01*
X015242Y006253D01*
X015317Y006178D01*
X015692Y006178D02*
X015692Y006478D01*
X015692Y008178D02*
X015692Y008478D01*
X015692Y008328D02*
X015242Y008328D01*
X015392Y008178D01*
X005058Y016495D02*
X004831Y016722D01*
X004775Y016722D01*
X004718Y016665D01*
X004718Y016552D01*
X004775Y016495D01*
X005058Y016495D02*
X005058Y016722D01*
X005058Y018495D02*
X005058Y018722D01*
X005058Y018608D02*
X004718Y018608D01*
X004831Y018495D01*
X001293Y018664D02*
X001293Y018814D01*
X001218Y018889D01*
X000917Y018889D01*
X000842Y018814D01*
X000842Y018664D01*
X000917Y018589D01*
X000842Y018429D02*
X001143Y018429D01*
X001293Y018278D01*
X001143Y018128D01*
X000842Y018128D01*
X000842Y017968D02*
X000842Y017743D01*
X000917Y017668D01*
X001218Y017668D01*
X001293Y017743D01*
X001293Y017968D01*
X000842Y017968D01*
X001068Y018128D02*
X001068Y018429D01*
X001218Y018589D02*
X001293Y018664D01*
X001218Y019049D02*
X001293Y019124D01*
X001293Y019274D01*
X001218Y019349D01*
X001143Y019349D01*
X001068Y019274D01*
X001068Y019124D01*
X000992Y019049D01*
X000917Y019049D01*
X000842Y019124D01*
X000842Y019274D01*
X000917Y019349D01*
X000842Y017508D02*
X001143Y017508D01*
X001293Y017358D01*
X001143Y017208D01*
X000842Y017208D01*
X000767Y017047D02*
X000767Y016747D01*
X000917Y016587D02*
X000842Y016512D01*
X000842Y016362D01*
X000917Y016287D01*
X000992Y016287D01*
X001068Y016362D01*
X001068Y016512D01*
X001143Y016587D01*
X001218Y016587D01*
X001293Y016512D01*
X001293Y016362D01*
X001218Y016287D01*
X001293Y016127D02*
X001293Y015901D01*
X001218Y015826D01*
X001068Y015826D01*
X000992Y015901D01*
X000992Y016127D01*
X000842Y016127D02*
X001293Y016127D01*
X001293Y015666D02*
X000842Y015666D01*
X000842Y015366D01*
X000842Y015056D02*
X001068Y015056D01*
X001218Y014906D01*
X001293Y014906D01*
X001068Y015056D02*
X001218Y015206D01*
X001293Y015206D01*
X001068Y017208D02*
X001068Y017508D01*
X001035Y021916D02*
X000960Y021916D01*
X000885Y021991D01*
X000810Y021916D01*
X000735Y021916D01*
X000660Y021991D01*
X000660Y022142D01*
X000735Y022217D01*
X000660Y022377D02*
X001110Y022677D01*
X001110Y022377D02*
X000660Y022677D01*
X000585Y022837D02*
X000585Y023137D01*
X000660Y023298D02*
X000660Y023598D01*
X000660Y023448D02*
X001110Y023448D01*
X000960Y023598D01*
X001110Y023758D02*
X000660Y024058D01*
X000585Y024218D02*
X000585Y024519D01*
X000660Y024829D02*
X001110Y024829D01*
X001110Y024979D02*
X001110Y024679D01*
X001110Y025139D02*
X000660Y025139D01*
X000885Y025139D02*
X000885Y025439D01*
X000660Y025439D02*
X001110Y025439D01*
X000585Y025599D02*
X000585Y025900D01*
X000660Y026210D02*
X000885Y026210D01*
X001035Y026060D01*
X001110Y026060D01*
X000885Y026210D02*
X001035Y026360D01*
X001110Y026360D01*
X001110Y026821D02*
X000660Y026821D01*
X000660Y026520D01*
X000885Y026981D02*
X000810Y027056D01*
X000810Y027281D01*
X000660Y027281D02*
X001110Y027281D01*
X001110Y027056D01*
X001035Y026981D01*
X000885Y026981D01*
X000810Y027441D02*
X000735Y027441D01*
X000660Y027516D01*
X000660Y027666D01*
X000735Y027741D01*
X000885Y027666D02*
X000885Y027516D01*
X000810Y027441D01*
X001035Y027441D02*
X001110Y027516D01*
X001110Y027666D01*
X001035Y027741D01*
X000960Y027741D01*
X000885Y027666D01*
X000585Y027901D02*
X000585Y028202D01*
X000660Y028362D02*
X001110Y028362D01*
X000960Y028512D01*
X001110Y028662D01*
X000660Y028662D01*
X000735Y028822D02*
X001035Y028822D01*
X001110Y028897D01*
X001110Y029122D01*
X000660Y029122D01*
X000660Y028897D01*
X000735Y028822D01*
X000660Y029283D02*
X001110Y029283D01*
X000960Y029433D01*
X001110Y029583D01*
X000660Y029583D01*
X004218Y030372D02*
X004368Y030222D01*
X004218Y030372D02*
X004668Y030372D01*
X004668Y030222D02*
X004668Y030522D01*
X004668Y028522D02*
X004668Y028222D01*
X004368Y028522D01*
X004293Y028522D01*
X004218Y028447D01*
X004218Y028297D01*
X004293Y028222D01*
X004293Y026582D02*
X004368Y026582D01*
X004443Y026507D01*
X004518Y026582D01*
X004593Y026582D01*
X004668Y026507D01*
X004668Y026357D01*
X004593Y026282D01*
X004443Y026432D02*
X004443Y026507D01*
X004293Y026582D02*
X004218Y026507D01*
X004218Y026357D01*
X004293Y026282D01*
X004443Y024582D02*
X004443Y024282D01*
X004218Y024507D01*
X004668Y024507D01*
X004593Y022582D02*
X004668Y022507D01*
X004668Y022357D01*
X004593Y022282D01*
X004443Y022282D02*
X004368Y022432D01*
X004368Y022507D01*
X004443Y022582D01*
X004593Y022582D01*
X004443Y022282D02*
X004218Y022282D01*
X004218Y022582D01*
X001110Y022142D02*
X001110Y021991D01*
X001035Y021916D01*
X000885Y021991D02*
X000885Y022066D01*
X001035Y022217D02*
X001110Y022142D01*
X000660Y023758D02*
X001110Y024058D01*
X004775Y034212D02*
X004718Y034268D01*
X004718Y034382D01*
X004775Y034438D01*
X004831Y034438D01*
X005058Y034212D01*
X005058Y034438D01*
X005058Y036212D02*
X005058Y036438D01*
X005058Y036325D02*
X004718Y036325D01*
X004831Y036212D01*
X004775Y038149D02*
X004718Y038205D01*
X004718Y038319D01*
X004775Y038375D01*
X004831Y038375D01*
X005058Y038149D01*
X005058Y038375D01*
X005058Y040149D02*
X005058Y040375D01*
X005058Y040262D02*
X004718Y040262D01*
X004831Y040149D01*
X011698Y046016D02*
X011773Y045941D01*
X011698Y046016D02*
X011698Y046166D01*
X011773Y046242D01*
X011848Y046242D01*
X012149Y045941D01*
X012149Y046242D01*
X012149Y047941D02*
X012149Y048242D01*
X012149Y048091D02*
X011698Y048091D01*
X011848Y047941D01*
X011773Y050666D02*
X011698Y050741D01*
X011698Y050891D01*
X011773Y050966D01*
X011848Y050966D01*
X012149Y050666D01*
X012149Y050966D01*
X012149Y052666D02*
X012149Y052966D01*
X012149Y052816D02*
X011698Y052816D01*
X011848Y052666D01*
X011773Y055390D02*
X011698Y055465D01*
X011698Y055615D01*
X011773Y055690D01*
X011848Y055690D01*
X012149Y055390D01*
X012149Y055690D01*
X012149Y057390D02*
X012149Y057690D01*
X012149Y057540D02*
X011698Y057540D01*
X011848Y057390D01*
X016213Y058103D02*
X016213Y050859D01*
X023457Y050859D01*
X023457Y058103D01*
X016213Y058103D01*
X016407Y057630D02*
X016409Y057663D01*
X016415Y057695D01*
X016424Y057727D01*
X016438Y057757D01*
X016454Y057785D01*
X016474Y057811D01*
X016497Y057835D01*
X016523Y057856D01*
X016551Y057873D01*
X016581Y057888D01*
X016612Y057898D01*
X016644Y057905D01*
X016677Y057908D01*
X016710Y057907D01*
X016742Y057902D01*
X016774Y057893D01*
X016805Y057881D01*
X016833Y057865D01*
X016860Y057846D01*
X016884Y057824D01*
X016906Y057799D01*
X016924Y057771D01*
X016939Y057742D01*
X016951Y057711D01*
X016959Y057679D01*
X016963Y057646D01*
X016963Y057614D01*
X016959Y057581D01*
X016951Y057549D01*
X016939Y057518D01*
X016924Y057489D01*
X016906Y057461D01*
X016884Y057436D01*
X016860Y057414D01*
X016833Y057395D01*
X016805Y057379D01*
X016774Y057367D01*
X016742Y057358D01*
X016710Y057353D01*
X016677Y057352D01*
X016644Y057355D01*
X016612Y057362D01*
X016581Y057372D01*
X016551Y057387D01*
X016523Y057404D01*
X016497Y057425D01*
X016474Y057449D01*
X016454Y057475D01*
X016438Y057503D01*
X016424Y057533D01*
X016415Y057565D01*
X016409Y057597D01*
X016407Y057630D01*
X029235Y055756D02*
X029237Y055776D01*
X029243Y055794D01*
X029252Y055812D01*
X029264Y055827D01*
X029279Y055839D01*
X029297Y055848D01*
X029315Y055854D01*
X029335Y055856D01*
X029355Y055854D01*
X029373Y055848D01*
X029391Y055839D01*
X029406Y055827D01*
X029418Y055812D01*
X029427Y055794D01*
X029433Y055776D01*
X029435Y055756D01*
X029433Y055736D01*
X029427Y055718D01*
X029418Y055700D01*
X029406Y055685D01*
X029391Y055673D01*
X029373Y055664D01*
X029355Y055658D01*
X029335Y055656D01*
X029315Y055658D01*
X029297Y055664D01*
X029279Y055673D01*
X029264Y055685D01*
X029252Y055700D01*
X029243Y055718D01*
X029237Y055736D01*
X029235Y055756D01*
D14*
X026031Y044850D02*
X026031Y044430D01*
X026031Y044640D02*
X025401Y044640D01*
X025611Y044430D01*
X025401Y044206D02*
X025821Y043785D01*
X025716Y043890D02*
X026031Y044206D01*
X026031Y043785D02*
X025401Y043785D01*
X014784Y044633D02*
X014259Y044633D01*
X014154Y044738D01*
X014154Y044949D01*
X014259Y045054D01*
X014784Y045054D01*
X014679Y045278D02*
X014784Y045383D01*
X014784Y045593D01*
X014679Y045698D01*
X014259Y045698D01*
X014154Y045593D01*
X014154Y045383D01*
X014259Y045278D01*
X014259Y045922D02*
X014154Y046027D01*
X014154Y046238D01*
X014259Y046343D01*
X014679Y046343D01*
X014784Y046238D01*
X014784Y046027D01*
X014679Y045922D01*
X014574Y046567D02*
X014154Y046567D01*
X014469Y046567D02*
X014469Y046987D01*
X014574Y046987D02*
X014154Y046987D01*
X014049Y047212D02*
X014049Y047632D01*
X014364Y047856D02*
X014784Y047856D01*
X014364Y047856D02*
X014154Y048066D01*
X014364Y048276D01*
X014784Y048276D01*
X014574Y046987D02*
X014784Y046777D01*
X014574Y046567D01*
X014482Y054146D02*
X014588Y054251D01*
X014588Y054461D01*
X014482Y054566D01*
X014062Y054566D01*
X013957Y054461D01*
X013957Y054251D01*
X014062Y054146D01*
X013957Y054790D02*
X014377Y054790D01*
X014588Y055000D01*
X014377Y055211D01*
X013957Y055211D01*
X014167Y055435D02*
X014588Y055435D01*
X014272Y055211D02*
X014272Y054790D01*
X014167Y055435D02*
X013957Y055645D01*
X014167Y055855D01*
X014588Y055855D01*
D15*
X023572Y043514D02*
X023572Y043389D01*
X023597Y043364D01*
X023647Y043364D01*
X023672Y043389D01*
X023672Y043514D01*
X023720Y043489D02*
X023745Y043514D01*
X023795Y043514D01*
X023820Y043489D01*
X023867Y043489D02*
X023892Y043514D01*
X023942Y043514D01*
X023967Y043489D01*
X023967Y043464D01*
X023867Y043364D01*
X023967Y043364D01*
X023820Y043389D02*
X023820Y043414D01*
X023795Y043439D01*
X023745Y043439D01*
X023720Y043464D01*
X023720Y043489D01*
X023770Y043539D02*
X023770Y043339D01*
X023745Y043364D02*
X023795Y043364D01*
X023820Y043389D01*
X023745Y043364D02*
X023720Y043389D01*
D16*
X026495Y043233D02*
X026495Y042986D01*
X026557Y042924D01*
X026680Y042924D01*
X026742Y042986D01*
X026864Y042986D02*
X026925Y042924D01*
X027049Y042924D01*
X027110Y042986D01*
X027110Y043048D01*
X027049Y043110D01*
X026987Y043110D01*
X027049Y043110D02*
X027110Y043171D01*
X027110Y043233D01*
X027049Y043295D01*
X026925Y043295D01*
X026864Y043233D01*
X026742Y043233D02*
X026680Y043295D01*
X026557Y043295D01*
X026495Y043233D01*
X026557Y041720D02*
X026495Y041658D01*
X026495Y041411D01*
X026557Y041350D01*
X026680Y041350D01*
X026742Y041411D01*
X026864Y041535D02*
X027110Y041535D01*
X027049Y041720D02*
X026864Y041535D01*
X026742Y041658D02*
X026680Y041720D01*
X026557Y041720D01*
X027049Y041720D02*
X027049Y041350D01*
X024993Y053954D02*
X024746Y053954D01*
X024993Y054201D01*
X024993Y054263D01*
X024931Y054325D01*
X024808Y054325D01*
X024746Y054263D01*
X024624Y054263D02*
X024563Y054325D01*
X024439Y054325D01*
X024378Y054263D01*
X024378Y054016D01*
X024439Y053954D01*
X024563Y053954D01*
X024624Y054016D01*
X048302Y042747D02*
X048302Y042457D01*
X048302Y042554D02*
X048447Y042554D01*
X048495Y042602D01*
X048495Y042699D01*
X048447Y042747D01*
X048302Y042747D01*
X048398Y042554D02*
X048495Y042457D01*
X048596Y042457D02*
X048790Y042650D01*
X048790Y042699D01*
X048741Y042747D01*
X048645Y042747D01*
X048596Y042699D01*
X048596Y042457D02*
X048790Y042457D01*
X048891Y042457D02*
X049084Y042650D01*
X049084Y042699D01*
X049036Y042747D01*
X048939Y042747D01*
X048891Y042699D01*
X048891Y042457D02*
X049084Y042457D01*
X048988Y041960D02*
X048988Y041669D01*
X049084Y041669D02*
X048891Y041669D01*
X048790Y041669D02*
X048596Y041669D01*
X048790Y041863D01*
X048790Y041911D01*
X048741Y041960D01*
X048645Y041960D01*
X048596Y041911D01*
X048495Y041911D02*
X048495Y041815D01*
X048447Y041766D01*
X048302Y041766D01*
X048398Y041766D02*
X048495Y041669D01*
X048302Y041669D02*
X048302Y041960D01*
X048447Y041960D01*
X048495Y041911D01*
X048891Y041863D02*
X048988Y041960D01*
X049315Y044222D02*
X049315Y044512D01*
X049218Y044512D02*
X049412Y044512D01*
X049513Y044416D02*
X049610Y044512D01*
X049610Y044222D01*
X049706Y044222D02*
X049513Y044222D01*
X051088Y044512D02*
X051282Y044512D01*
X051185Y044512D02*
X051185Y044222D01*
X051383Y044222D02*
X051576Y044416D01*
X051576Y044464D01*
X051528Y044512D01*
X051431Y044512D01*
X051383Y044464D01*
X051383Y044222D02*
X051576Y044222D01*
X050998Y036774D02*
X051047Y036726D01*
X051047Y036677D01*
X050998Y036629D01*
X050902Y036629D01*
X050853Y036677D01*
X050853Y036726D01*
X050902Y036774D01*
X050998Y036774D01*
X050998Y036629D02*
X051047Y036581D01*
X051047Y036532D01*
X050998Y036484D01*
X050902Y036484D01*
X050853Y036532D01*
X050853Y036581D01*
X050902Y036629D01*
X050752Y036532D02*
X050704Y036484D01*
X050607Y036484D01*
X050559Y036532D01*
X050559Y036726D01*
X050607Y036774D01*
X050704Y036774D01*
X050752Y036726D01*
X053708Y036726D02*
X053708Y036532D01*
X053757Y036484D01*
X053853Y036484D01*
X053902Y036532D01*
X054003Y036532D02*
X054003Y036484D01*
X054003Y036532D02*
X054196Y036726D01*
X054196Y036774D01*
X054003Y036774D01*
X053902Y036726D02*
X053853Y036774D01*
X053757Y036774D01*
X053708Y036726D01*
X001168Y014029D02*
X001168Y013884D01*
X001119Y013835D01*
X001023Y013835D01*
X000974Y013884D01*
X000974Y014029D01*
X000878Y014029D02*
X001168Y014029D01*
X000974Y013932D02*
X000878Y013835D01*
X000878Y013734D02*
X001168Y013734D01*
X001168Y013589D01*
X001119Y013541D01*
X001023Y013541D01*
X000974Y013589D01*
X000974Y013734D01*
X000878Y013439D02*
X000878Y013343D01*
X000878Y013391D02*
X001168Y013391D01*
X001168Y013439D02*
X001168Y013343D01*
X000829Y013243D02*
X000829Y013049D01*
X000878Y012948D02*
X001168Y012948D01*
X001168Y012803D01*
X001119Y012755D01*
X001023Y012755D01*
X000974Y012803D01*
X000974Y012948D01*
X000974Y012852D02*
X000878Y012755D01*
X000878Y012654D02*
X000878Y012460D01*
X000926Y012359D02*
X000878Y012311D01*
X000878Y012214D01*
X000926Y012166D01*
X000974Y012166D01*
X001023Y012214D01*
X001023Y012311D01*
X001071Y012359D01*
X001119Y012359D01*
X001168Y012311D01*
X001168Y012214D01*
X001119Y012166D01*
X001168Y012064D02*
X000878Y012064D01*
X000878Y011871D01*
X001023Y011968D02*
X001023Y012064D01*
X001168Y012064D02*
X001168Y011871D01*
X001168Y011770D02*
X001168Y011576D01*
X001168Y011673D02*
X000878Y011673D01*
X001168Y012460D02*
X001168Y012654D01*
X000878Y012654D01*
X001023Y012654D02*
X001023Y012557D01*
D17*
X010150Y023930D02*
X010150Y031961D01*
X027000Y031961D01*
X027000Y023930D01*
X010150Y023930D01*
X010150Y032591D02*
X010150Y040622D01*
X027000Y040622D01*
X027000Y032591D01*
X010150Y032591D01*
X046450Y043496D02*
X046452Y043521D01*
X046458Y043545D01*
X046467Y043567D01*
X046480Y043588D01*
X046496Y043607D01*
X046515Y043623D01*
X046536Y043636D01*
X046558Y043645D01*
X046582Y043651D01*
X046607Y043653D01*
X046632Y043651D01*
X046656Y043645D01*
X046678Y043636D01*
X046699Y043623D01*
X046718Y043607D01*
X046734Y043588D01*
X046747Y043567D01*
X046756Y043545D01*
X046762Y043521D01*
X046764Y043496D01*
X046762Y043471D01*
X046756Y043447D01*
X046747Y043425D01*
X046734Y043404D01*
X046718Y043385D01*
X046699Y043369D01*
X046678Y043356D01*
X046656Y043347D01*
X046632Y043341D01*
X046607Y043339D01*
X046582Y043341D01*
X046558Y043347D01*
X046536Y043356D01*
X046515Y043369D01*
X046496Y043385D01*
X046480Y043404D01*
X046467Y043425D01*
X046458Y043447D01*
X046452Y043471D01*
X046450Y043496D01*
D18*
X049461Y045386D03*
X051430Y045386D03*
D19*
X051077Y045395D02*
X051077Y045505D01*
X051040Y045542D01*
X050893Y045542D01*
X050857Y045505D01*
X050857Y045395D01*
X051077Y045395D01*
X051077Y045321D02*
X051077Y045174D01*
X050857Y045174D01*
X050857Y045321D01*
X050967Y045248D02*
X050967Y045174D01*
X051077Y045100D02*
X051077Y044953D01*
X050857Y044953D01*
X050893Y045616D02*
X050857Y045653D01*
X050857Y045726D01*
X050893Y045763D01*
X050930Y045763D01*
X051077Y045616D01*
X051077Y045763D01*
X050609Y046328D02*
X050536Y046328D01*
X050499Y046364D01*
X050425Y046328D02*
X050278Y046328D01*
X050425Y046475D01*
X050425Y046511D01*
X050388Y046548D01*
X050315Y046548D01*
X050278Y046511D01*
X050204Y046511D02*
X050204Y046438D01*
X050167Y046401D01*
X050057Y046401D01*
X050130Y046401D02*
X050204Y046328D01*
X050057Y046328D02*
X050057Y046548D01*
X050167Y046548D01*
X050204Y046511D01*
X050499Y046511D02*
X050536Y046548D01*
X050609Y046548D01*
X050646Y046511D01*
X050646Y046475D01*
X050609Y046438D01*
X050646Y046401D01*
X050646Y046364D01*
X050609Y046328D01*
X050609Y046438D02*
X050572Y046438D01*
X049049Y045844D02*
X049049Y045697D01*
X049049Y045770D02*
X048829Y045770D01*
X048903Y045697D01*
X048866Y045623D02*
X048829Y045586D01*
X048829Y045476D01*
X049049Y045476D01*
X049049Y045586D01*
X049013Y045623D01*
X048866Y045623D01*
X048829Y045402D02*
X048829Y045255D01*
X049049Y045255D01*
X049049Y045402D01*
X048939Y045328D02*
X048939Y045255D01*
X049049Y045181D02*
X049049Y045034D01*
X048829Y045034D01*
X052714Y046328D02*
X052714Y046548D01*
X052824Y046548D01*
X052861Y046511D01*
X052861Y046438D01*
X052824Y046401D01*
X052714Y046401D01*
X052788Y046401D02*
X052861Y046328D01*
X052935Y046328D02*
X053082Y046475D01*
X053082Y046511D01*
X053045Y046548D01*
X052972Y046548D01*
X052935Y046511D01*
X052935Y046328D02*
X053082Y046328D01*
X053156Y046364D02*
X053193Y046328D01*
X053266Y046328D01*
X053303Y046364D01*
X053303Y046401D01*
X053266Y046438D01*
X053156Y046438D01*
X053156Y046364D01*
X053156Y046438D02*
X053230Y046511D01*
X053303Y046548D01*
X053240Y042752D02*
X053093Y042752D01*
X053093Y042642D01*
X053167Y042679D01*
X053203Y042679D01*
X053240Y042642D01*
X053240Y042569D01*
X053203Y042532D01*
X053130Y042532D01*
X053093Y042569D01*
X053019Y042532D02*
X052872Y042532D01*
X053019Y042679D01*
X053019Y042715D01*
X052982Y042752D01*
X052909Y042752D01*
X052872Y042715D01*
X052798Y042715D02*
X052798Y042642D01*
X052761Y042605D01*
X052651Y042605D01*
X052651Y042532D02*
X052651Y042752D01*
X052761Y042752D01*
X052798Y042715D01*
X052725Y042605D02*
X052798Y042532D01*
X052761Y041866D02*
X052798Y041829D01*
X052798Y041756D01*
X052761Y041719D01*
X052651Y041719D01*
X052651Y041646D02*
X052651Y041866D01*
X052761Y041866D01*
X052872Y041829D02*
X052909Y041866D01*
X052982Y041866D01*
X053019Y041829D01*
X053019Y041793D01*
X052872Y041646D01*
X053019Y041646D01*
X053093Y041756D02*
X053240Y041756D01*
X053203Y041646D02*
X053203Y041866D01*
X053093Y041756D01*
X052798Y041646D02*
X052725Y041719D01*
X041922Y051890D02*
X041922Y055890D01*
X044816Y058219D02*
X044889Y058219D01*
X044853Y058219D02*
X044853Y058439D01*
X044889Y058439D02*
X044816Y058439D01*
X044963Y058439D02*
X045110Y058219D01*
X045110Y058439D01*
X045184Y058439D02*
X045294Y058439D01*
X045331Y058402D01*
X045331Y058256D01*
X045294Y058219D01*
X045184Y058219D01*
X045184Y058439D01*
X044963Y058439D02*
X044963Y058219D01*
X045405Y058219D02*
X045479Y058219D01*
X045442Y058219D02*
X045442Y058439D01*
X045405Y058439D02*
X045479Y058439D01*
X045552Y058402D02*
X045552Y058256D01*
X045589Y058219D01*
X045663Y058219D01*
X045699Y058256D01*
X045773Y058219D02*
X045773Y058366D01*
X045847Y058439D01*
X045920Y058366D01*
X045920Y058219D01*
X045920Y058329D02*
X045773Y058329D01*
X045699Y058402D02*
X045663Y058439D01*
X045589Y058439D01*
X045552Y058402D01*
X045994Y058439D02*
X046141Y058439D01*
X046068Y058439D02*
X046068Y058219D01*
X046215Y058256D02*
X046252Y058219D01*
X046326Y058219D01*
X046362Y058256D01*
X046362Y058402D01*
X046326Y058439D01*
X046252Y058439D01*
X046215Y058402D01*
X046215Y058256D01*
X046436Y058292D02*
X046547Y058292D01*
X046583Y058329D01*
X046583Y058402D01*
X046547Y058439D01*
X046436Y058439D01*
X046436Y058219D01*
X046510Y058292D02*
X046583Y058219D01*
X046657Y058182D02*
X046804Y058182D01*
X046878Y058256D02*
X046915Y058219D01*
X046988Y058219D01*
X047025Y058256D01*
X047099Y058256D02*
X047136Y058219D01*
X047209Y058219D01*
X047246Y058256D01*
X047246Y058402D01*
X047209Y058439D01*
X047136Y058439D01*
X047099Y058402D01*
X047099Y058256D01*
X047025Y058402D02*
X046988Y058439D01*
X046915Y058439D01*
X046878Y058402D01*
X046878Y058256D01*
X047320Y058219D02*
X047320Y058439D01*
X047467Y058219D01*
X047467Y058439D01*
X047541Y058439D02*
X047688Y058219D01*
X047688Y058439D01*
X047541Y058439D02*
X047541Y058219D01*
X046737Y012414D02*
X042737Y012414D01*
D20*
X003693Y017079D03*
X003693Y034796D03*
X003693Y038733D03*
D21*
X010370Y022260D03*
X010370Y020260D03*
X012370Y020260D03*
X012370Y022260D03*
X015685Y022260D03*
X015685Y020260D03*
X017685Y020260D03*
X019622Y020260D03*
X019622Y022260D03*
X017685Y022260D03*
X021622Y022260D03*
X023559Y022260D03*
X023559Y020260D03*
X021622Y020260D03*
X025559Y020260D03*
X025559Y022260D03*
X025559Y016260D03*
X025559Y014260D03*
X023559Y014260D03*
X021622Y014260D03*
X021622Y016260D03*
X023559Y016260D03*
X019622Y016260D03*
X017685Y016260D03*
X015685Y016260D03*
X015685Y014260D03*
X017685Y014260D03*
X019622Y014260D03*
X012370Y014260D03*
X012370Y016260D03*
X010370Y016260D03*
X010370Y014260D03*
D22*
X011370Y016135D03*
X011370Y020385D03*
X016685Y020385D03*
X020622Y020385D03*
X024559Y020385D03*
X024559Y016135D03*
X020622Y016135D03*
X016685Y016135D03*
D23*
X016035Y015260D03*
X017335Y015260D03*
X019972Y015260D03*
X021272Y015260D03*
X023909Y015260D03*
X025209Y015260D03*
X025209Y021260D03*
X023909Y021260D03*
X021272Y021260D03*
X019972Y021260D03*
X017335Y021260D03*
X016035Y021260D03*
X012020Y021260D03*
X010720Y021260D03*
X010720Y015260D03*
X012020Y015260D03*
D24*
X018766Y046750D02*
X019266Y046750D01*
X019766Y046750D01*
X019766Y047250D01*
X019266Y047250D01*
X018766Y047250D01*
X022616Y047000D02*
X022866Y047250D01*
X022996Y047370D01*
M02*
