G75*
G70*
%OFA0B0*%
%FSLAX24Y24*%
%IPPOS*%
%LPD*%
%AMOC8*
5,1,8,0,0,1.08239X$1,22.5*
%
%ADD10C,0.1221*%
%ADD11C,0.0560*%
%ADD12C,0.0808*%
%ADD13C,0.0780*%
%ADD14R,0.0631X0.0552*%
%ADD15OC8,0.0555*%
%ADD16C,0.0555*%
%ADD17C,0.0820*%
%ADD18R,0.0552X0.0631*%
%ADD19R,0.0280X0.0910*%
%ADD20R,0.0670X0.0552*%
%ADD21C,0.1040*%
%ADD22R,0.0237X0.0237*%
%ADD23R,0.0237X0.0197*%
%ADD24R,0.0434X0.0591*%
%ADD25C,0.0800*%
%ADD26OC8,0.0560*%
%ADD27OC8,0.0640*%
%ADD28R,0.1150X0.0650*%
%ADD29R,0.0650X0.1150*%
%ADD30C,0.0745*%
%ADD31R,0.0500X0.0670*%
%ADD32R,0.0290X0.0120*%
%ADD33R,0.0060X0.0720*%
%ADD34R,0.0906X0.0749*%
%ADD35C,0.0900*%
%ADD36R,0.0985X0.0985*%
%ADD37OC8,0.0985*%
%ADD38C,0.0985*%
%ADD39OC8,0.2040*%
D10*
X013930Y015898D03*
X047394Y015898D03*
X014914Y056646D03*
X051233Y058024D03*
D11*
X047500Y021607D03*
X046500Y021607D03*
D12*
X041489Y018595D03*
X041489Y026469D03*
D13*
X035335Y043756D03*
X035335Y044756D03*
X035335Y045756D03*
X035335Y046756D03*
X035335Y047756D03*
X035335Y048756D03*
X035335Y049756D03*
X035335Y050756D03*
X035335Y051756D03*
X035335Y052756D03*
X035335Y053756D03*
X035335Y054756D03*
X029335Y054756D03*
X029335Y053756D03*
X029335Y052756D03*
X029335Y051756D03*
X029335Y050756D03*
X029335Y049756D03*
X029335Y048756D03*
X029335Y047756D03*
X029335Y046756D03*
X029335Y045756D03*
X029335Y044756D03*
X029335Y043756D03*
X030835Y043756D03*
X031835Y043756D03*
X032835Y043756D03*
X033835Y043756D03*
X004386Y014127D03*
X002606Y014127D03*
X002606Y011567D03*
X004386Y011567D03*
D14*
X029678Y032689D03*
X029678Y033359D03*
X030465Y032571D03*
X030465Y031902D03*
X031744Y030800D03*
X031744Y030130D03*
X032729Y030130D03*
X032729Y030800D03*
X034008Y031902D03*
X034008Y032571D03*
X034008Y033477D03*
X034008Y034146D03*
X032630Y034363D03*
X032630Y035032D03*
X038733Y037217D03*
X038733Y037886D03*
X041587Y046764D03*
X041587Y047433D03*
X024756Y046548D03*
X024756Y045878D03*
X023969Y045878D03*
X023969Y046548D03*
D15*
X040701Y046091D03*
D16*
X040701Y047091D03*
X040701Y048091D03*
X040701Y049091D03*
D17*
X023256Y049350D02*
X022476Y049350D01*
X018456Y049350D02*
X017676Y049350D01*
X017656Y047000D02*
X016876Y047000D01*
X017676Y044650D02*
X018456Y044650D01*
X022476Y044650D02*
X023256Y044650D01*
X011564Y045627D02*
X010784Y045627D01*
X010784Y047597D02*
X011564Y047597D01*
X011564Y050351D02*
X010784Y050351D01*
X010784Y052321D02*
X011564Y052321D01*
X011564Y055076D02*
X010784Y055076D01*
X010784Y057046D02*
X011564Y057046D01*
X004083Y039723D02*
X003303Y039723D01*
X003303Y037743D02*
X004083Y037743D01*
X004083Y035786D02*
X003303Y035786D01*
X003303Y033806D02*
X004083Y033806D01*
X004083Y029877D02*
X003303Y029877D01*
X003303Y027907D02*
X004083Y027907D01*
X004083Y025937D02*
X003303Y025937D01*
X003303Y023967D02*
X004083Y023967D01*
X004083Y021997D02*
X003303Y021997D01*
X003303Y018069D02*
X004083Y018069D01*
X004083Y016089D02*
X003303Y016089D01*
X014327Y007833D02*
X015107Y007833D01*
X015107Y005863D02*
X014327Y005863D01*
X014327Y003896D02*
X015107Y003896D01*
X015107Y001926D02*
X014327Y001926D01*
X020814Y003697D02*
X020814Y004477D01*
X022784Y004477D02*
X022784Y003697D01*
X024751Y003697D02*
X024751Y004477D01*
X026721Y004477D02*
X026721Y003697D01*
X030262Y003697D02*
X030262Y004477D01*
X032232Y004477D02*
X032232Y003697D01*
X034199Y003697D02*
X034199Y004477D01*
X036169Y004477D02*
X036169Y003697D01*
X039711Y003697D02*
X039711Y004477D01*
X041681Y004477D02*
X041681Y003697D01*
X045227Y003697D02*
X045227Y004477D01*
X047197Y004477D02*
X047197Y003697D01*
X049167Y003697D02*
X049167Y004477D01*
D18*
X016430Y050445D03*
X015760Y050445D03*
X044205Y050544D03*
X044874Y050544D03*
X044874Y051528D03*
X044205Y051528D03*
X044205Y052512D03*
X044874Y052512D03*
X044874Y053496D03*
X044205Y053496D03*
X044205Y054481D03*
X044874Y054481D03*
X044874Y055465D03*
X044205Y055465D03*
X044205Y056449D03*
X044874Y056449D03*
X047847Y056449D03*
X048516Y056449D03*
X048516Y055465D03*
X047847Y055465D03*
X047847Y054481D03*
X048516Y054481D03*
X048516Y053496D03*
X047847Y053496D03*
X047847Y052512D03*
X048516Y052512D03*
X048516Y051528D03*
X047847Y051528D03*
X047847Y050544D03*
X048516Y050544D03*
D19*
X022160Y047637D03*
X021660Y047637D03*
X021160Y047637D03*
X020660Y047637D03*
X020660Y045577D03*
X021160Y045577D03*
X021660Y045577D03*
X022160Y045577D03*
D20*
X022985Y047394D03*
X022985Y048181D03*
X020819Y048575D03*
X020819Y049363D03*
D21*
X052496Y039733D03*
X053496Y038733D03*
X054496Y039733D03*
X054496Y037733D03*
X052496Y037733D03*
D22*
X032591Y033319D03*
X032591Y032729D03*
X031882Y032729D03*
X031882Y033319D03*
D23*
X031882Y033024D03*
X032591Y033024D03*
D24*
X016469Y049697D03*
X015721Y049697D03*
X016095Y048831D03*
D25*
X017835Y051981D03*
X021835Y051981D03*
X021835Y056981D03*
X017835Y056981D03*
D26*
X016784Y055989D03*
X016784Y051989D03*
X022788Y052481D03*
X022788Y056481D03*
D27*
X045910Y056489D03*
X045910Y057489D03*
X046910Y057489D03*
X046910Y056489D03*
X046910Y055489D03*
X045910Y055489D03*
X045910Y054489D03*
X046910Y054489D03*
X046910Y053489D03*
X045910Y053489D03*
X045910Y052489D03*
X046910Y052489D03*
X046910Y051489D03*
X045910Y051489D03*
X045910Y050489D03*
X046910Y050489D03*
X051630Y031756D03*
X052630Y031756D03*
X052630Y030756D03*
X051630Y030756D03*
X051630Y029756D03*
X052630Y029756D03*
X052630Y028756D03*
X051630Y028756D03*
X051630Y027756D03*
X051630Y026756D03*
X052630Y026756D03*
X052630Y027756D03*
X052630Y025756D03*
X051630Y025756D03*
X051630Y024756D03*
X051630Y023756D03*
X052630Y023756D03*
X052630Y024756D03*
X052630Y022756D03*
X051630Y022756D03*
X051630Y021756D03*
X052630Y021756D03*
X052630Y020756D03*
X051630Y020756D03*
X051630Y019756D03*
X052630Y019756D03*
X052630Y018756D03*
X051630Y018756D03*
X051630Y017756D03*
X051630Y016756D03*
X052630Y016756D03*
X052630Y017756D03*
X052630Y015756D03*
X051630Y015756D03*
X051630Y014756D03*
X051630Y013756D03*
X052630Y013756D03*
X052630Y014756D03*
X052630Y012756D03*
X051630Y012756D03*
D28*
X025150Y040111D03*
D29*
X025150Y032532D03*
D30*
X024912Y022260D02*
X024207Y022260D01*
X024207Y020260D02*
X024912Y020260D01*
X020975Y020260D02*
X020270Y020260D01*
X020270Y022260D02*
X020975Y022260D01*
X017038Y022260D02*
X016333Y022260D01*
X016333Y020260D02*
X017038Y020260D01*
X017038Y016260D02*
X016333Y016260D01*
X016333Y014260D02*
X017038Y014260D01*
X020270Y014260D02*
X020975Y014260D01*
X020975Y016260D02*
X020270Y016260D01*
X024207Y016260D02*
X024912Y016260D01*
X024912Y014260D02*
X024207Y014260D01*
X011723Y014260D02*
X011018Y014260D01*
X011018Y016260D02*
X011723Y016260D01*
X011723Y020260D02*
X011018Y020260D01*
X011018Y022260D02*
X011723Y022260D01*
D31*
X023570Y050937D03*
X024170Y050937D03*
D32*
X023870Y050937D03*
D33*
X023870Y050937D03*
D34*
X019244Y048004D03*
X019244Y045996D03*
D35*
X052906Y009481D03*
X052906Y008103D03*
X052906Y005544D03*
X052906Y004166D03*
D36*
X026489Y024441D03*
X026489Y033103D03*
X010662Y033103D03*
X010662Y024441D03*
D37*
X010662Y031449D03*
X010662Y040111D03*
D38*
X026489Y040111D03*
X026489Y031449D03*
D39*
X011174Y003890D03*
X011174Y007827D03*
X009402Y015307D03*
X018654Y015209D03*
X018654Y022493D03*
X018260Y039520D03*
X020229Y044244D03*
X012650Y044244D03*
M02*
