G75*
G70*
%OFA0B0*%
%FSLAX24Y24*%
%IPPOS*%
%LPD*%
%AMOC8*
5,1,8,0,0,1.08239X$1,22.5*
%
%ADD10C,0.0000*%
%ADD11R,0.0866X0.0236*%
%ADD12R,0.0512X0.0591*%
%ADD13C,0.0520*%
%ADD14C,0.0768*%
%ADD15C,0.0740*%
%ADD16OC8,0.0515*%
%ADD17C,0.0515*%
%ADD18C,0.0780*%
%ADD19R,0.0870X0.0240*%
%ADD20R,0.0512X0.0630*%
%ADD21R,0.0591X0.0512*%
%ADD22C,0.0236*%
%ADD23C,0.1000*%
%ADD24R,0.0630X0.1378*%
%ADD25R,0.0394X0.0433*%
%ADD26R,0.0472X0.0787*%
%ADD27R,0.0394X0.0551*%
%ADD28R,0.0472X0.0472*%
%ADD29R,0.0551X0.0394*%
%ADD30R,0.0260X0.0800*%
%ADD31C,0.0760*%
%ADD32OC8,0.0520*%
%ADD33OC8,0.0600*%
%ADD34C,0.0705*%
%ADD35R,0.0800X0.0260*%
%ADD36C,0.0860*%
%ADD37R,0.0945X0.0945*%
%ADD38OC8,0.0945*%
%ADD39C,0.0945*%
%ADD40OC8,0.2000*%
%ADD41C,0.0356*%
%ADD42C,0.0660*%
%ADD43C,0.0320*%
%ADD44C,0.1000*%
%ADD45C,0.0240*%
%ADD46C,0.0160*%
%ADD47C,0.0100*%
%ADD48C,0.0560*%
%ADD49C,0.1500*%
%ADD50C,0.3937*%
%ADD51C,0.2540*%
%ADD52C,0.0500*%
D10*
X008024Y000741D02*
X008024Y008221D01*
X008022Y008267D01*
X008017Y008313D01*
X008008Y008359D01*
X007995Y008404D01*
X007979Y008447D01*
X007960Y008489D01*
X007937Y008530D01*
X007911Y008568D01*
X007882Y008605D01*
X007851Y008639D01*
X007817Y008670D01*
X007780Y008699D01*
X007742Y008725D01*
X007701Y008748D01*
X007659Y008767D01*
X007616Y008783D01*
X007571Y008796D01*
X007525Y008805D01*
X007479Y008810D01*
X007433Y008812D01*
X007433Y008811D02*
X000741Y008811D01*
X000695Y008813D01*
X000649Y008818D01*
X000603Y008827D01*
X000558Y008840D01*
X000515Y008856D01*
X000473Y008875D01*
X000432Y008898D01*
X000394Y008924D01*
X000357Y008953D01*
X000323Y008984D01*
X000292Y009018D01*
X000263Y009055D01*
X000237Y009093D01*
X000214Y009134D01*
X000195Y009176D01*
X000179Y009219D01*
X000166Y009264D01*
X000157Y009310D01*
X000152Y009356D01*
X000150Y009402D01*
X000150Y042867D01*
X000152Y042913D01*
X000157Y042959D01*
X000166Y043005D01*
X000179Y043050D01*
X000195Y043093D01*
X000214Y043135D01*
X000237Y043176D01*
X000263Y043214D01*
X000292Y043251D01*
X000323Y043285D01*
X000357Y043316D01*
X000394Y043345D01*
X000432Y043371D01*
X000473Y043394D01*
X000515Y043413D01*
X000558Y043429D01*
X000603Y043442D01*
X000649Y043451D01*
X000695Y043456D01*
X000741Y043458D01*
X000741Y043457D02*
X007433Y043457D01*
X007479Y043459D01*
X007525Y043464D01*
X007571Y043473D01*
X007616Y043486D01*
X007659Y043502D01*
X007701Y043521D01*
X007742Y043544D01*
X007780Y043570D01*
X007817Y043599D01*
X007851Y043630D01*
X007882Y043664D01*
X007911Y043701D01*
X007937Y043739D01*
X007960Y043780D01*
X007979Y043822D01*
X007995Y043865D01*
X008008Y043910D01*
X008017Y043956D01*
X008022Y044002D01*
X008024Y044048D01*
X008024Y058615D01*
X008026Y058661D01*
X008031Y058707D01*
X008040Y058753D01*
X008053Y058798D01*
X008069Y058841D01*
X008088Y058883D01*
X008111Y058924D01*
X008137Y058962D01*
X008166Y058999D01*
X008197Y059033D01*
X008231Y059064D01*
X008268Y059093D01*
X008306Y059119D01*
X008347Y059142D01*
X008389Y059161D01*
X008432Y059177D01*
X008477Y059190D01*
X008523Y059199D01*
X008569Y059204D01*
X008615Y059206D01*
X008615Y059205D02*
X054087Y059205D01*
X054153Y059203D01*
X054219Y059198D01*
X054285Y059188D01*
X054350Y059175D01*
X054414Y059159D01*
X054477Y059139D01*
X054539Y059115D01*
X054599Y059088D01*
X054658Y059058D01*
X054715Y059024D01*
X054770Y058987D01*
X054823Y058947D01*
X054874Y058905D01*
X054922Y058859D01*
X054968Y058811D01*
X055010Y058760D01*
X055050Y058707D01*
X055087Y058652D01*
X055121Y058595D01*
X055151Y058536D01*
X055178Y058476D01*
X055202Y058414D01*
X055222Y058351D01*
X055238Y058287D01*
X055251Y058222D01*
X055261Y058156D01*
X055266Y058090D01*
X055268Y058024D01*
X055268Y001331D01*
X055266Y001265D01*
X055261Y001199D01*
X055251Y001133D01*
X055238Y001068D01*
X055222Y001004D01*
X055202Y000941D01*
X055178Y000879D01*
X055151Y000819D01*
X055121Y000760D01*
X055087Y000703D01*
X055050Y000648D01*
X055010Y000595D01*
X054968Y000544D01*
X054922Y000496D01*
X054874Y000450D01*
X054823Y000408D01*
X054770Y000368D01*
X054715Y000331D01*
X054658Y000297D01*
X054599Y000267D01*
X054539Y000240D01*
X054477Y000216D01*
X054414Y000196D01*
X054350Y000180D01*
X054285Y000167D01*
X054219Y000157D01*
X054153Y000152D01*
X054087Y000150D01*
X008615Y000150D01*
X008569Y000152D01*
X008523Y000157D01*
X008477Y000166D01*
X008432Y000179D01*
X008389Y000195D01*
X008347Y000214D01*
X008306Y000237D01*
X008268Y000263D01*
X008231Y000292D01*
X008197Y000323D01*
X008166Y000357D01*
X008137Y000394D01*
X008111Y000432D01*
X008088Y000473D01*
X008069Y000515D01*
X008053Y000558D01*
X008040Y000603D01*
X008031Y000649D01*
X008026Y000695D01*
X008024Y000741D01*
X013339Y015898D02*
X013341Y015946D01*
X013347Y015994D01*
X013357Y016041D01*
X013370Y016087D01*
X013388Y016132D01*
X013408Y016176D01*
X013433Y016218D01*
X013461Y016257D01*
X013491Y016294D01*
X013525Y016328D01*
X013562Y016360D01*
X013600Y016389D01*
X013641Y016414D01*
X013684Y016436D01*
X013729Y016454D01*
X013775Y016468D01*
X013822Y016479D01*
X013870Y016486D01*
X013918Y016489D01*
X013966Y016488D01*
X014014Y016483D01*
X014062Y016474D01*
X014108Y016462D01*
X014153Y016445D01*
X014197Y016425D01*
X014239Y016402D01*
X014279Y016375D01*
X014317Y016345D01*
X014352Y016312D01*
X014384Y016276D01*
X014414Y016238D01*
X014440Y016197D01*
X014462Y016154D01*
X014482Y016110D01*
X014497Y016065D01*
X014509Y016018D01*
X014517Y015970D01*
X014521Y015922D01*
X014521Y015874D01*
X014517Y015826D01*
X014509Y015778D01*
X014497Y015731D01*
X014482Y015686D01*
X014462Y015642D01*
X014440Y015599D01*
X014414Y015558D01*
X014384Y015520D01*
X014352Y015484D01*
X014317Y015451D01*
X014279Y015421D01*
X014239Y015394D01*
X014197Y015371D01*
X014153Y015351D01*
X014108Y015334D01*
X014062Y015322D01*
X014014Y015313D01*
X013966Y015308D01*
X013918Y015307D01*
X013870Y015310D01*
X013822Y015317D01*
X013775Y015328D01*
X013729Y015342D01*
X013684Y015360D01*
X013641Y015382D01*
X013600Y015407D01*
X013562Y015436D01*
X013525Y015468D01*
X013491Y015502D01*
X013461Y015539D01*
X013433Y015578D01*
X013408Y015620D01*
X013388Y015664D01*
X013370Y015709D01*
X013357Y015755D01*
X013347Y015802D01*
X013341Y015850D01*
X013339Y015898D01*
X046803Y015898D02*
X046805Y015946D01*
X046811Y015994D01*
X046821Y016041D01*
X046834Y016087D01*
X046852Y016132D01*
X046872Y016176D01*
X046897Y016218D01*
X046925Y016257D01*
X046955Y016294D01*
X046989Y016328D01*
X047026Y016360D01*
X047064Y016389D01*
X047105Y016414D01*
X047148Y016436D01*
X047193Y016454D01*
X047239Y016468D01*
X047286Y016479D01*
X047334Y016486D01*
X047382Y016489D01*
X047430Y016488D01*
X047478Y016483D01*
X047526Y016474D01*
X047572Y016462D01*
X047617Y016445D01*
X047661Y016425D01*
X047703Y016402D01*
X047743Y016375D01*
X047781Y016345D01*
X047816Y016312D01*
X047848Y016276D01*
X047878Y016238D01*
X047904Y016197D01*
X047926Y016154D01*
X047946Y016110D01*
X047961Y016065D01*
X047973Y016018D01*
X047981Y015970D01*
X047985Y015922D01*
X047985Y015874D01*
X047981Y015826D01*
X047973Y015778D01*
X047961Y015731D01*
X047946Y015686D01*
X047926Y015642D01*
X047904Y015599D01*
X047878Y015558D01*
X047848Y015520D01*
X047816Y015484D01*
X047781Y015451D01*
X047743Y015421D01*
X047703Y015394D01*
X047661Y015371D01*
X047617Y015351D01*
X047572Y015334D01*
X047526Y015322D01*
X047478Y015313D01*
X047430Y015308D01*
X047382Y015307D01*
X047334Y015310D01*
X047286Y015317D01*
X047239Y015328D01*
X047193Y015342D01*
X047148Y015360D01*
X047105Y015382D01*
X047064Y015407D01*
X047026Y015436D01*
X046989Y015468D01*
X046955Y015502D01*
X046925Y015539D01*
X046897Y015578D01*
X046872Y015620D01*
X046852Y015664D01*
X046834Y015709D01*
X046821Y015755D01*
X046811Y015802D01*
X046805Y015850D01*
X046803Y015898D01*
X014323Y056646D02*
X014325Y056694D01*
X014331Y056742D01*
X014341Y056789D01*
X014354Y056835D01*
X014372Y056880D01*
X014392Y056924D01*
X014417Y056966D01*
X014445Y057005D01*
X014475Y057042D01*
X014509Y057076D01*
X014546Y057108D01*
X014584Y057137D01*
X014625Y057162D01*
X014668Y057184D01*
X014713Y057202D01*
X014759Y057216D01*
X014806Y057227D01*
X014854Y057234D01*
X014902Y057237D01*
X014950Y057236D01*
X014998Y057231D01*
X015046Y057222D01*
X015092Y057210D01*
X015137Y057193D01*
X015181Y057173D01*
X015223Y057150D01*
X015263Y057123D01*
X015301Y057093D01*
X015336Y057060D01*
X015368Y057024D01*
X015398Y056986D01*
X015424Y056945D01*
X015446Y056902D01*
X015466Y056858D01*
X015481Y056813D01*
X015493Y056766D01*
X015501Y056718D01*
X015505Y056670D01*
X015505Y056622D01*
X015501Y056574D01*
X015493Y056526D01*
X015481Y056479D01*
X015466Y056434D01*
X015446Y056390D01*
X015424Y056347D01*
X015398Y056306D01*
X015368Y056268D01*
X015336Y056232D01*
X015301Y056199D01*
X015263Y056169D01*
X015223Y056142D01*
X015181Y056119D01*
X015137Y056099D01*
X015092Y056082D01*
X015046Y056070D01*
X014998Y056061D01*
X014950Y056056D01*
X014902Y056055D01*
X014854Y056058D01*
X014806Y056065D01*
X014759Y056076D01*
X014713Y056090D01*
X014668Y056108D01*
X014625Y056130D01*
X014584Y056155D01*
X014546Y056184D01*
X014509Y056216D01*
X014475Y056250D01*
X014445Y056287D01*
X014417Y056326D01*
X014392Y056368D01*
X014372Y056412D01*
X014354Y056457D01*
X014341Y056503D01*
X014331Y056550D01*
X014325Y056598D01*
X014323Y056646D01*
X050642Y058024D02*
X050644Y058072D01*
X050650Y058120D01*
X050660Y058167D01*
X050673Y058213D01*
X050691Y058258D01*
X050711Y058302D01*
X050736Y058344D01*
X050764Y058383D01*
X050794Y058420D01*
X050828Y058454D01*
X050865Y058486D01*
X050903Y058515D01*
X050944Y058540D01*
X050987Y058562D01*
X051032Y058580D01*
X051078Y058594D01*
X051125Y058605D01*
X051173Y058612D01*
X051221Y058615D01*
X051269Y058614D01*
X051317Y058609D01*
X051365Y058600D01*
X051411Y058588D01*
X051456Y058571D01*
X051500Y058551D01*
X051542Y058528D01*
X051582Y058501D01*
X051620Y058471D01*
X051655Y058438D01*
X051687Y058402D01*
X051717Y058364D01*
X051743Y058323D01*
X051765Y058280D01*
X051785Y058236D01*
X051800Y058191D01*
X051812Y058144D01*
X051820Y058096D01*
X051824Y058048D01*
X051824Y058000D01*
X051820Y057952D01*
X051812Y057904D01*
X051800Y057857D01*
X051785Y057812D01*
X051765Y057768D01*
X051743Y057725D01*
X051717Y057684D01*
X051687Y057646D01*
X051655Y057610D01*
X051620Y057577D01*
X051582Y057547D01*
X051542Y057520D01*
X051500Y057497D01*
X051456Y057477D01*
X051411Y057460D01*
X051365Y057448D01*
X051317Y057439D01*
X051269Y057434D01*
X051221Y057433D01*
X051173Y057436D01*
X051125Y057443D01*
X051078Y057454D01*
X051032Y057468D01*
X050987Y057486D01*
X050944Y057508D01*
X050903Y057533D01*
X050865Y057562D01*
X050828Y057594D01*
X050794Y057628D01*
X050764Y057665D01*
X050736Y057704D01*
X050711Y057746D01*
X050691Y057790D01*
X050673Y057835D01*
X050660Y057881D01*
X050650Y057928D01*
X050644Y057976D01*
X050642Y058024D01*
D11*
X048418Y020388D03*
X048418Y019888D03*
X048418Y019388D03*
X048418Y018888D03*
X046370Y018888D03*
X046370Y019388D03*
X046370Y019888D03*
X046370Y020388D03*
D12*
X046961Y018063D03*
X047630Y018063D03*
X049422Y027709D03*
X050091Y027709D03*
X050091Y029776D03*
X049422Y029776D03*
X049422Y030662D03*
X050091Y030662D03*
X050288Y041784D03*
X049619Y041784D03*
X049619Y042670D03*
X050288Y042670D03*
X051587Y042670D03*
X051587Y041784D03*
X052256Y041784D03*
X052256Y042670D03*
X028241Y050741D03*
X027571Y050741D03*
X026666Y055563D03*
X025996Y055563D03*
X025091Y055563D03*
X024422Y055563D03*
X018201Y007827D03*
X017532Y007827D03*
X017532Y007040D03*
X018201Y007040D03*
X018201Y003890D03*
X017532Y003890D03*
X017532Y003103D03*
X018201Y003103D03*
D13*
X046500Y021607D03*
X047500Y021607D03*
D14*
X041489Y018595D03*
X041489Y026469D03*
D15*
X035335Y043756D03*
X035335Y044756D03*
X035335Y045756D03*
X035335Y046756D03*
X035335Y047756D03*
X035335Y048756D03*
X035335Y049756D03*
X035335Y050756D03*
X035335Y051756D03*
X035335Y052756D03*
X035335Y053756D03*
X035335Y054756D03*
X029335Y054756D03*
X029335Y053756D03*
X029335Y052756D03*
X029335Y051756D03*
X029335Y050756D03*
X029335Y049756D03*
X029335Y048756D03*
X029335Y047756D03*
X029335Y046756D03*
X029335Y045756D03*
X029335Y044756D03*
X029335Y043756D03*
X030835Y043756D03*
X031835Y043756D03*
X032835Y043756D03*
X033835Y043756D03*
X004386Y014127D03*
X002606Y014127D03*
X002606Y011567D03*
X004386Y011567D03*
D16*
X040701Y046091D03*
D17*
X040701Y047091D03*
X040701Y048091D03*
X040701Y049091D03*
D18*
X023256Y049350D02*
X022476Y049350D01*
X018456Y049350D02*
X017676Y049350D01*
X017656Y047000D02*
X016876Y047000D01*
X017676Y044650D02*
X018456Y044650D01*
X022476Y044650D02*
X023256Y044650D01*
X011564Y045627D02*
X010784Y045627D01*
X010784Y047597D02*
X011564Y047597D01*
X011564Y050351D02*
X010784Y050351D01*
X010784Y052321D02*
X011564Y052321D01*
X011564Y055076D02*
X010784Y055076D01*
X010784Y057046D02*
X011564Y057046D01*
X004083Y039723D02*
X003303Y039723D01*
X003303Y037743D02*
X004083Y037743D01*
X004083Y035786D02*
X003303Y035786D01*
X003303Y033806D02*
X004083Y033806D01*
X004083Y029877D02*
X003303Y029877D01*
X003303Y027907D02*
X004083Y027907D01*
X004083Y025937D02*
X003303Y025937D01*
X003303Y023967D02*
X004083Y023967D01*
X004083Y021997D02*
X003303Y021997D01*
X003303Y018069D02*
X004083Y018069D01*
X004083Y016089D02*
X003303Y016089D01*
X014327Y007833D02*
X015107Y007833D01*
X015107Y005863D02*
X014327Y005863D01*
X014327Y003896D02*
X015107Y003896D01*
X015107Y001926D02*
X014327Y001926D01*
X020814Y003697D02*
X020814Y004477D01*
X022784Y004477D02*
X022784Y003697D01*
X024751Y003697D02*
X024751Y004477D01*
X026721Y004477D02*
X026721Y003697D01*
X030262Y003697D02*
X030262Y004477D01*
X032232Y004477D02*
X032232Y003697D01*
X034199Y003697D02*
X034199Y004477D01*
X036169Y004477D02*
X036169Y003697D01*
X039711Y003697D02*
X039711Y004477D01*
X041681Y004477D02*
X041681Y003697D01*
X045227Y003697D02*
X045227Y004477D01*
X047197Y004477D02*
X047197Y003697D01*
X049167Y003697D02*
X049167Y004477D01*
D19*
X024408Y041526D03*
X024408Y042026D03*
X024408Y042526D03*
X024408Y043026D03*
X022348Y043026D03*
X022348Y042526D03*
X022348Y042026D03*
X022348Y041526D03*
D20*
X025347Y041587D03*
X026134Y041587D03*
X026134Y043162D03*
X025347Y043162D03*
X025150Y054678D03*
X024363Y054678D03*
D21*
X028201Y055130D03*
X028201Y054225D03*
X028201Y053556D03*
X028201Y055800D03*
X044048Y044776D03*
X044048Y044107D03*
X050347Y045091D03*
X050347Y045760D03*
X052315Y045760D03*
X052315Y045091D03*
X050544Y022729D03*
X050544Y022059D03*
X049166Y007571D03*
X049166Y006902D03*
X048378Y006902D03*
X048378Y007571D03*
X047197Y007571D03*
X047197Y006902D03*
X046410Y006902D03*
X046410Y007571D03*
X045229Y007571D03*
X045229Y006902D03*
X044441Y006902D03*
X044441Y007571D03*
X039914Y007571D03*
X039914Y006902D03*
X039126Y006902D03*
X039126Y007571D03*
X021607Y007571D03*
X021607Y006902D03*
X020819Y006902D03*
X020819Y007571D03*
D22*
X039520Y032985D02*
X039520Y033535D01*
X039914Y033535D02*
X039914Y032985D01*
X040307Y032985D02*
X040307Y033535D01*
X040701Y033535D02*
X040701Y032985D01*
X041095Y032985D02*
X041095Y033535D01*
X041489Y033535D02*
X041489Y032985D01*
X041882Y032985D02*
X041882Y033535D01*
X042276Y033535D02*
X042276Y032985D01*
X042670Y032985D02*
X042670Y033535D01*
X043063Y033535D02*
X043063Y032985D01*
X043457Y032985D02*
X043457Y033535D01*
X043851Y033535D02*
X043851Y032985D01*
X044244Y032985D02*
X044244Y033535D01*
X044638Y033535D02*
X044638Y032985D01*
X045032Y032985D02*
X045032Y033535D01*
X045426Y033535D02*
X045426Y032985D01*
X045819Y032985D02*
X045819Y033535D01*
X047277Y034993D02*
X047827Y034993D01*
X047827Y035386D02*
X047277Y035386D01*
X047277Y035780D02*
X047827Y035780D01*
X047827Y036174D02*
X047277Y036174D01*
X047277Y036567D02*
X047827Y036567D01*
X047827Y036961D02*
X047277Y036961D01*
X047277Y037355D02*
X047827Y037355D01*
X047827Y037748D02*
X047277Y037748D01*
X047277Y038142D02*
X047827Y038142D01*
X047827Y038536D02*
X047277Y038536D01*
X047277Y038930D02*
X047827Y038930D01*
X047827Y039323D02*
X047277Y039323D01*
X047277Y039717D02*
X047827Y039717D01*
X047827Y040111D02*
X047277Y040111D01*
X047277Y040504D02*
X047827Y040504D01*
X047827Y040898D02*
X047277Y040898D01*
X047277Y041292D02*
X047827Y041292D01*
X045819Y042749D02*
X045819Y043299D01*
X045426Y043299D02*
X045426Y042749D01*
X045032Y042749D02*
X045032Y043299D01*
X044638Y043299D02*
X044638Y042749D01*
X044244Y042749D02*
X044244Y043299D01*
X043851Y043299D02*
X043851Y042749D01*
X043457Y042749D02*
X043457Y043299D01*
X043063Y043299D02*
X043063Y042749D01*
X042670Y042749D02*
X042670Y043299D01*
X042276Y043299D02*
X042276Y042749D01*
X041882Y042749D02*
X041882Y043299D01*
X041489Y043299D02*
X041489Y042749D01*
X041095Y042749D02*
X041095Y043299D01*
X040701Y043299D02*
X040701Y042749D01*
X040307Y042749D02*
X040307Y043299D01*
X039914Y043299D02*
X039914Y042749D01*
X039520Y042749D02*
X039520Y043299D01*
X038063Y041292D02*
X037513Y041292D01*
X037513Y040898D02*
X038063Y040898D01*
X038063Y040504D02*
X037513Y040504D01*
X037513Y040111D02*
X038063Y040111D01*
X038063Y039717D02*
X037513Y039717D01*
X037513Y039323D02*
X038063Y039323D01*
X038063Y038930D02*
X037513Y038930D01*
X037513Y038536D02*
X038063Y038536D01*
X038063Y038142D02*
X037513Y038142D01*
X037513Y037748D02*
X038063Y037748D01*
X038063Y037355D02*
X037513Y037355D01*
X037513Y036961D02*
X038063Y036961D01*
X038063Y036567D02*
X037513Y036567D01*
X037513Y036174D02*
X038063Y036174D01*
X038063Y035780D02*
X037513Y035780D01*
X037513Y035386D02*
X038063Y035386D01*
X038063Y034993D02*
X037513Y034993D01*
D23*
X052496Y037733D03*
X053496Y038733D03*
X054496Y039733D03*
X052496Y039733D03*
X054496Y037733D03*
D24*
X053300Y036056D03*
X053300Y033930D03*
X050150Y033930D03*
X050150Y036056D03*
D25*
X048181Y034146D03*
X048181Y033477D03*
D26*
X033737Y031209D03*
X032737Y031209D03*
X031737Y031209D03*
X031737Y041138D03*
X032737Y041138D03*
X033737Y041138D03*
D27*
X049579Y043418D03*
X050327Y043418D03*
X049953Y044284D03*
X051548Y043418D03*
X051922Y044284D03*
X052296Y043418D03*
D28*
X051430Y045012D03*
X051430Y045839D03*
X049461Y045839D03*
X049461Y045012D03*
D29*
X045662Y044441D03*
X044796Y044067D03*
X044796Y044815D03*
D30*
X044987Y014254D03*
X045487Y014254D03*
X045987Y014254D03*
X046487Y014254D03*
X044487Y014254D03*
X043987Y014254D03*
X043487Y014254D03*
X042987Y014254D03*
X042987Y011834D03*
X043487Y011834D03*
X043987Y011834D03*
X044487Y011834D03*
X044987Y011834D03*
X045487Y011834D03*
X045987Y011834D03*
X046487Y011834D03*
D31*
X021835Y051981D03*
X017835Y051981D03*
X017835Y056981D03*
X021835Y056981D03*
D32*
X022788Y056481D03*
X022788Y052481D03*
X016784Y051989D03*
X016784Y055989D03*
D33*
X045910Y056489D03*
X045910Y057489D03*
X046910Y057489D03*
X046910Y056489D03*
X046910Y055489D03*
X045910Y055489D03*
X045910Y054489D03*
X046910Y054489D03*
X046910Y053489D03*
X045910Y053489D03*
X045910Y052489D03*
X046910Y052489D03*
X046910Y051489D03*
X045910Y051489D03*
X045910Y050489D03*
X046910Y050489D03*
X051630Y031756D03*
X052630Y031756D03*
X052630Y030756D03*
X051630Y030756D03*
X051630Y029756D03*
X052630Y029756D03*
X052630Y028756D03*
X051630Y028756D03*
X051630Y027756D03*
X051630Y026756D03*
X052630Y026756D03*
X052630Y027756D03*
X052630Y025756D03*
X051630Y025756D03*
X051630Y024756D03*
X051630Y023756D03*
X052630Y023756D03*
X052630Y024756D03*
X052630Y022756D03*
X051630Y022756D03*
X051630Y021756D03*
X052630Y021756D03*
X052630Y020756D03*
X051630Y020756D03*
X051630Y019756D03*
X052630Y019756D03*
X052630Y018756D03*
X051630Y018756D03*
X051630Y017756D03*
X051630Y016756D03*
X052630Y016756D03*
X052630Y017756D03*
X052630Y015756D03*
X051630Y015756D03*
X051630Y014756D03*
X051630Y013756D03*
X052630Y013756D03*
X052630Y014756D03*
X052630Y012756D03*
X051630Y012756D03*
D34*
X024912Y014260D02*
X024207Y014260D01*
X024207Y016260D02*
X024912Y016260D01*
X020975Y016260D02*
X020270Y016260D01*
X020270Y014260D02*
X020975Y014260D01*
X017038Y014260D02*
X016333Y014260D01*
X016333Y016260D02*
X017038Y016260D01*
X017038Y020260D02*
X016333Y020260D01*
X016333Y022260D02*
X017038Y022260D01*
X020270Y022260D02*
X020975Y022260D01*
X020975Y020260D02*
X020270Y020260D01*
X024207Y020260D02*
X024912Y020260D01*
X024912Y022260D02*
X024207Y022260D01*
X011723Y022260D02*
X011018Y022260D01*
X011018Y020260D02*
X011723Y020260D01*
X011723Y016260D02*
X011018Y016260D01*
X011018Y014260D02*
X011723Y014260D01*
D35*
X040082Y052140D03*
X040082Y052640D03*
X040082Y053140D03*
X040082Y053640D03*
X040082Y054140D03*
X040082Y054640D03*
X040082Y055140D03*
X040082Y055640D03*
X042502Y055640D03*
X042502Y055140D03*
X042502Y054640D03*
X042502Y054140D03*
X042502Y053640D03*
X042502Y053140D03*
X042502Y052640D03*
X042502Y052140D03*
D36*
X052906Y009481D03*
X052906Y008103D03*
X052906Y005544D03*
X052906Y004166D03*
D37*
X026489Y024441D03*
X026489Y033103D03*
X010662Y033103D03*
X010662Y024441D03*
D38*
X010662Y031449D03*
X010662Y040111D03*
D39*
X026489Y040111D03*
X026489Y031449D03*
D40*
X018260Y039520D03*
X020229Y044244D03*
X012650Y044244D03*
X018654Y022493D03*
X018654Y015209D03*
X011174Y007827D03*
X011174Y003890D03*
X009402Y015307D03*
D41*
X008418Y016981D03*
X015603Y028989D03*
X015603Y029678D03*
X015603Y030367D03*
X022985Y037748D03*
X023329Y037748D03*
X023329Y038437D03*
X022985Y038437D03*
X022985Y039126D03*
X023329Y039126D03*
X024067Y040111D03*
X024412Y040111D03*
X024756Y040111D03*
X024658Y042522D03*
X024412Y043014D03*
X024240Y043309D03*
X024067Y043014D03*
X023132Y043802D03*
X023132Y044146D03*
X022788Y044146D03*
X022788Y043802D03*
X022443Y043802D03*
X022443Y044146D03*
X022099Y044146D03*
X021927Y044441D03*
X021754Y044146D03*
X021754Y043802D03*
X022099Y043802D03*
X021927Y044786D03*
X023181Y047197D03*
X023181Y047591D03*
X023181Y048181D03*
X020672Y047886D03*
X023575Y051528D03*
X024461Y051282D03*
X024461Y050937D03*
X024461Y050593D03*
X026233Y052315D03*
X026823Y054284D03*
X027020Y055563D03*
X026823Y045327D03*
X027512Y045327D03*
X034500Y036764D03*
X032630Y035288D03*
X032237Y034402D03*
X032729Y032433D03*
X031744Y032433D03*
X031449Y031056D03*
X032433Y031056D03*
X033910Y031252D03*
X034008Y032680D03*
X034008Y033024D03*
X034008Y033369D03*
X036961Y035091D03*
X038634Y035485D03*
X038831Y037158D03*
X038831Y037945D03*
X042079Y042276D03*
X042867Y042276D03*
X044048Y044048D03*
X045622Y044441D03*
X045622Y042276D03*
X048280Y038733D03*
X048772Y038733D03*
X049264Y038733D03*
X049756Y038733D03*
X050248Y038733D03*
X050741Y038733D03*
X051134Y039028D03*
X051626Y039225D03*
X051528Y037650D03*
X051036Y037552D03*
X050544Y037552D03*
X050052Y037552D03*
X049559Y037552D03*
X049067Y037552D03*
X047000Y034993D03*
X047788Y033516D03*
X046508Y029382D03*
X045622Y029382D03*
X044737Y029382D03*
X043851Y029382D03*
X047000Y026233D03*
X047886Y026233D03*
X048772Y026233D03*
X049658Y026233D03*
X050544Y026233D03*
X043654Y023181D03*
X038634Y023181D03*
X038290Y019638D03*
X037945Y019638D03*
X037601Y018949D03*
X037256Y018949D03*
X036863Y018359D03*
X036518Y018359D03*
X035632Y018113D03*
X035288Y018113D03*
X035288Y017768D03*
X035632Y017768D03*
X031498Y015554D03*
X031154Y015554D03*
X030809Y015554D03*
X030809Y015209D03*
X030809Y014865D03*
X031154Y014865D03*
X031154Y015209D03*
X031498Y015209D03*
X031498Y014865D03*
X033713Y012158D03*
X034500Y012748D03*
X032926Y011567D03*
X039717Y011863D03*
X042473Y011863D03*
X042768Y014126D03*
X042768Y014471D03*
X046311Y012552D03*
X046656Y012552D03*
X034451Y025987D03*
X034205Y026233D03*
X033959Y026479D03*
X033270Y025741D03*
X032926Y025741D03*
X031597Y026430D03*
X031252Y026430D03*
X029924Y027119D03*
X029579Y027119D03*
X042867Y045819D03*
X045622Y047591D03*
X046804Y047591D03*
X047099Y046607D03*
X048477Y046607D03*
X048870Y046607D03*
X049264Y046607D03*
X052315Y046459D03*
X052315Y046115D03*
X052315Y045770D03*
X052217Y041784D03*
X050248Y041784D03*
X042867Y050544D03*
X042374Y051331D03*
X041292Y051331D03*
X040160Y052119D03*
X039815Y052119D03*
X039225Y052709D03*
X039815Y053644D03*
X050248Y051528D03*
X016489Y049658D03*
D42*
X017670Y050839D01*
X024363Y050839D01*
X024461Y050937D01*
X024461Y051725D01*
X026233Y053496D01*
X027906Y053496D01*
X028201Y053201D02*
X028201Y052611D01*
X029056Y051756D01*
X029335Y051756D01*
X029335Y050756D02*
X028512Y050756D01*
X028496Y050741D01*
X027315Y050741D02*
X026725Y050741D01*
X025347Y049363D01*
X025347Y047296D01*
X025248Y047394D01*
X023181Y047394D01*
X025347Y047296D02*
X025347Y043162D01*
X022348Y043026D02*
X022296Y042973D01*
X022296Y042867D01*
X024412Y040111D02*
X024412Y037601D01*
X023083Y036272D01*
X023083Y028693D01*
X023772Y028004D01*
X030268Y028004D01*
X030760Y027512D01*
X032926Y027512D01*
X033959Y026479D01*
X034205Y026233D01*
X034451Y025987D01*
X041489Y026469D02*
X041489Y024067D01*
X044540Y021016D01*
X044540Y020032D01*
X047985Y018063D02*
X048378Y018063D01*
X049461Y016981D01*
X049461Y014028D01*
X050741Y012748D01*
X051622Y012748D01*
X051630Y012756D01*
X051630Y013756D01*
X048014Y011834D02*
X051725Y008122D01*
X052611Y008122D01*
X052768Y007965D01*
X052906Y008103D01*
X052768Y007965D02*
X051646Y006843D01*
X049461Y006843D01*
X048378Y006744D02*
X048378Y006252D01*
X049167Y005463D01*
X049167Y004087D01*
X048181Y002807D02*
X048181Y002315D01*
X046705Y002315D01*
X046213Y002807D01*
X047197Y004087D02*
X047197Y004776D01*
X046410Y005563D01*
X046410Y006744D01*
X044441Y006744D02*
X044441Y004873D01*
X044539Y004775D01*
X041681Y005174D02*
X041681Y004087D01*
X041681Y005174D02*
X040111Y006744D01*
X038930Y006843D02*
X038142Y006843D01*
X038044Y006941D01*
X042768Y014126D02*
X042768Y014471D01*
X045721Y011863D02*
X045918Y011863D01*
X046458Y011863D01*
X046458Y012353D01*
X046656Y012552D01*
X046311Y012552D01*
X046458Y011863D02*
X046487Y011834D01*
X048014Y011834D01*
X052906Y004166D02*
X051056Y002315D01*
X048181Y002315D01*
X022784Y004087D02*
X022784Y005764D01*
X021804Y006744D01*
X020819Y006744D02*
X020819Y004093D01*
X020814Y004087D01*
X017374Y003890D02*
X014723Y003890D01*
X014717Y003896D01*
X014717Y005863D02*
X016394Y005863D01*
X017276Y006744D01*
X017276Y007827D02*
X017270Y007833D01*
X014717Y007833D01*
X017276Y002807D02*
X016394Y001926D01*
X014717Y001926D01*
X047552Y036567D02*
X048280Y036567D01*
X048792Y036056D01*
X048870Y036056D01*
X050150Y036056D01*
X053300Y036056D01*
X053300Y033930D02*
X053300Y032426D01*
X052630Y031756D01*
X053300Y033930D02*
X050150Y033930D01*
X028201Y054481D02*
X028201Y054973D01*
X024461Y051282D02*
X024463Y051233D01*
X024463Y050644D01*
X024316Y050792D01*
X024461Y050937D01*
X016489Y049658D02*
X013831Y052315D01*
X011179Y052315D01*
X011174Y052321D01*
D43*
X020672Y047886D02*
X020721Y047886D01*
X021016Y048181D01*
X022493Y048181D01*
X022493Y046902D01*
X024166Y045229D01*
X024166Y044048D01*
X023378Y043260D01*
X023378Y041784D01*
X023636Y041526D01*
X024408Y041526D01*
X024408Y041443D01*
X024953Y040898D01*
X025839Y040898D01*
X026134Y041193D01*
X026134Y041587D01*
X026134Y043162D01*
X026823Y042374D02*
X027906Y041292D01*
X027906Y039422D01*
X023969Y035485D01*
X023969Y029284D01*
X024363Y028890D01*
X030662Y028890D01*
X031154Y028398D01*
X042965Y028398D01*
X047607Y023756D01*
X051630Y023756D01*
X051630Y024756D02*
X047591Y024756D01*
X043260Y029087D01*
X031548Y029087D01*
X031056Y029579D01*
X024953Y029579D01*
X024658Y029874D01*
X024658Y035189D01*
X028595Y039126D01*
X028595Y041489D01*
X027512Y042571D01*
X027512Y045327D01*
X026823Y045327D02*
X026823Y042374D01*
X025347Y041784D02*
X025347Y041587D01*
X025347Y041784D02*
X025105Y042026D01*
X024408Y042026D01*
X024408Y042526D02*
X024654Y042526D01*
X024658Y042522D01*
X024412Y043014D02*
X024240Y043186D01*
X024240Y043309D01*
X024079Y043026D02*
X024067Y043014D01*
X024079Y043026D02*
X024408Y043026D01*
X025211Y043026D01*
X025347Y043162D01*
X022443Y044195D02*
X022099Y043851D01*
X022099Y043802D01*
X023181Y047394D02*
X023181Y047591D01*
X023181Y048181D02*
X022493Y048181D01*
X023575Y051528D02*
X023575Y051823D01*
X024363Y052611D01*
X024363Y054678D01*
X024422Y054737D01*
X024422Y055563D01*
X025091Y055563D02*
X025091Y054737D01*
X025150Y054678D01*
X025091Y055563D02*
X025091Y056016D01*
X024855Y056252D01*
X023969Y056252D01*
X023674Y055957D01*
X023674Y053367D01*
X022788Y052481D01*
X025091Y055563D02*
X025996Y055563D01*
X026666Y055563D02*
X027020Y055563D01*
X028201Y055800D02*
X028241Y055760D01*
X029087Y055760D01*
X029335Y055512D01*
X029335Y054756D01*
X028201Y054973D02*
X028201Y055130D01*
X028201Y054481D02*
X028201Y054225D01*
X028162Y054225D01*
X028103Y054284D01*
X026823Y054284D01*
X027906Y053496D02*
X028103Y053496D01*
X028162Y053556D01*
X028201Y053556D01*
X028201Y053201D01*
X026233Y052315D02*
X027571Y050977D01*
X027571Y050741D01*
X027315Y050741D01*
X028241Y050741D02*
X028496Y050741D01*
X029335Y050756D02*
X029693Y050756D01*
X030170Y051233D01*
X030170Y055760D01*
X031744Y057335D01*
X036567Y057335D01*
X037945Y055957D01*
X037945Y055367D01*
X038172Y055140D01*
X040082Y055140D01*
X040082Y054640D02*
X037884Y054640D01*
X037355Y055170D01*
X037355Y055662D01*
X036272Y056744D01*
X031941Y056744D01*
X030760Y055563D01*
X030760Y050839D01*
X029678Y049756D01*
X029335Y049756D01*
X029335Y048756D02*
X029662Y048756D01*
X031351Y050445D01*
X031351Y055367D01*
X032138Y056154D01*
X035977Y056154D01*
X036764Y055367D01*
X036764Y054973D01*
X037597Y054140D01*
X040082Y054140D01*
X040082Y053640D02*
X039819Y053640D01*
X039815Y053644D01*
X040082Y053640D02*
X041042Y053640D01*
X041292Y053890D01*
X041292Y055465D01*
X041467Y055640D01*
X042502Y055640D01*
X043632Y055640D01*
X045481Y057489D01*
X045910Y057489D01*
X042374Y051331D02*
X041784Y050741D01*
X040406Y050741D01*
X035422Y045756D01*
X035335Y045756D01*
X035335Y046756D02*
X035536Y046756D01*
X040111Y051331D01*
X041292Y051331D01*
X040701Y050150D02*
X035335Y044784D01*
X035335Y044756D01*
X035335Y043756D02*
X038670Y047091D01*
X040701Y047091D01*
X040701Y050150D02*
X042473Y050150D01*
X042867Y050544D01*
X040160Y052119D02*
X039886Y052140D01*
X040082Y052140D01*
X035998Y052140D01*
X035615Y051756D01*
X035335Y051756D01*
X035335Y053756D02*
X036406Y053756D01*
X037453Y052709D01*
X039225Y052709D01*
X039581Y053140D02*
X039422Y053300D01*
X037650Y053300D01*
X036174Y054776D01*
X036174Y055071D01*
X035681Y055563D01*
X032335Y055563D01*
X031941Y055170D01*
X031941Y050052D01*
X029646Y047756D01*
X029335Y047756D01*
X031737Y041138D02*
X031737Y041087D01*
X031548Y040898D01*
X031548Y035091D01*
X032237Y034402D01*
X032630Y035288D02*
X033516Y036174D01*
X037256Y036174D01*
X037256Y035386D02*
X036961Y035091D01*
X036961Y037256D02*
X036961Y040996D01*
X036819Y041138D01*
X033737Y041138D01*
X038831Y037158D02*
X038831Y036961D01*
X036272Y033024D02*
X034008Y033024D01*
X033713Y033024D01*
X034008Y032729D01*
X034008Y032680D01*
X033664Y033024D02*
X033688Y033049D01*
X034008Y033369D01*
X033664Y033024D02*
X026725Y033024D01*
X026646Y033103D01*
X026489Y033103D01*
X022197Y037256D02*
X022689Y037748D01*
X023329Y037748D01*
X023329Y038437D02*
X022296Y038437D01*
X021508Y037650D01*
X021508Y026922D01*
X022000Y026430D01*
X031597Y026430D01*
X029924Y027119D02*
X022493Y027119D01*
X022197Y027414D01*
X022197Y037256D01*
X020819Y038044D02*
X021902Y039126D01*
X023329Y039126D01*
X020819Y038044D02*
X020819Y026233D01*
X021311Y025741D01*
X033270Y025741D01*
X034451Y025987D02*
X034500Y025937D01*
X038634Y023181D02*
X027807Y023181D01*
X027315Y022689D01*
X027315Y018752D01*
X026823Y018260D01*
X009697Y018260D01*
X008418Y016981D01*
X003693Y025937D02*
X002512Y025937D01*
X002119Y026331D01*
X002119Y030563D01*
X002512Y030957D01*
X004284Y030957D01*
X005563Y029678D01*
X015603Y029678D01*
X015603Y030367D02*
X005859Y030367D01*
X003693Y032532D01*
X003693Y033806D01*
X003693Y029877D02*
X003887Y029877D01*
X004776Y028989D01*
X015603Y028989D01*
X030809Y015554D02*
X031154Y015554D01*
X031154Y015209D01*
X031154Y014865D01*
X031498Y014865D02*
X031498Y015209D01*
X031498Y015554D01*
X030809Y015209D02*
X030809Y014865D01*
X031252Y012748D02*
X034500Y012748D01*
X033713Y012158D02*
X031646Y012158D01*
X027807Y008319D01*
X019540Y008319D01*
X018949Y007729D01*
X018949Y004678D01*
X018201Y003930D01*
X018201Y003890D01*
X018201Y003103D01*
X017532Y003103D02*
X017276Y002847D01*
X017276Y002807D01*
X017374Y003890D02*
X017532Y003890D01*
X017276Y006744D02*
X017276Y006784D01*
X017532Y007040D01*
X018201Y007040D02*
X018201Y007827D01*
X018201Y007867D01*
X019244Y008910D01*
X027414Y008910D01*
X031252Y012748D01*
X032040Y011567D02*
X032926Y011567D01*
X032040Y011567D02*
X028044Y007571D01*
X021607Y007571D01*
X020819Y007571D01*
X020819Y006902D02*
X020819Y006744D01*
X021607Y006902D02*
X021764Y006744D01*
X021804Y006744D01*
X017532Y007827D02*
X017276Y007827D01*
X035288Y017768D02*
X037847Y017768D01*
X040406Y015209D01*
X043654Y015209D01*
X043987Y014876D01*
X043987Y014254D01*
X044487Y014254D02*
X044487Y013581D01*
X044244Y013339D01*
X043752Y013339D01*
X043487Y013605D01*
X043487Y014254D01*
X042987Y014254D02*
X042859Y014126D01*
X042768Y014126D01*
X044487Y012695D02*
X044987Y013195D01*
X044987Y014254D01*
X045487Y014254D02*
X045487Y014853D01*
X044540Y015800D01*
X040701Y015800D01*
X038142Y018359D01*
X036863Y018359D01*
X036518Y018359D01*
X035632Y018113D02*
X035288Y017768D01*
X035632Y017768D02*
X035288Y018113D01*
X037256Y018949D02*
X037601Y018949D01*
X038437Y018949D01*
X040996Y016390D01*
X044737Y016390D01*
X045987Y015140D01*
X045987Y014254D01*
X046487Y014254D02*
X046487Y015428D01*
X044933Y016981D01*
X041292Y016981D01*
X038634Y019638D01*
X038290Y019638D01*
X037945Y019638D01*
X041489Y018595D02*
X041782Y018888D01*
X046370Y018888D01*
X046961Y018298D01*
X046961Y018063D01*
X047591Y018103D02*
X047630Y018063D01*
X047985Y018063D01*
X047591Y018103D02*
X047591Y020130D01*
X047849Y020388D01*
X048418Y020388D01*
X048418Y019388D02*
X049514Y019388D01*
X050937Y017965D01*
X050937Y015455D01*
X051134Y015258D01*
X052119Y015258D02*
X052620Y014756D01*
X052630Y014756D01*
X052143Y014249D02*
X052630Y013762D01*
X052630Y013756D01*
X051183Y014249D02*
X050814Y014249D01*
X050248Y014815D01*
X050248Y017670D01*
X049030Y018888D01*
X048418Y018888D01*
X046865Y020388D02*
X047493Y021016D01*
X047493Y021599D01*
X047500Y021607D01*
X046508Y021599D02*
X046508Y021213D01*
X046213Y020918D01*
X045819Y020918D01*
X045524Y020622D01*
X045524Y020130D01*
X045766Y019888D01*
X046370Y019888D01*
X046370Y019388D02*
X044790Y019388D01*
X044540Y019638D01*
X044540Y020032D01*
X046370Y020388D02*
X046865Y020388D01*
X046508Y021599D02*
X046500Y021607D01*
X043654Y023181D02*
X050091Y023181D01*
X050544Y022729D01*
X050544Y022059D02*
X050544Y021902D01*
X051183Y021262D01*
X052217Y021213D02*
X052630Y020800D01*
X052630Y020756D01*
X050544Y026233D02*
X049412Y027365D01*
X049412Y027699D01*
X049422Y027709D01*
X049422Y029776D01*
X049422Y030662D01*
X050091Y030662D02*
X050150Y030662D01*
X050248Y030760D01*
X051626Y030760D01*
X051630Y030756D01*
X051611Y029776D02*
X051630Y029756D01*
X051611Y029776D02*
X050091Y029776D01*
X050091Y027709D02*
X051583Y027709D01*
X051630Y027756D01*
X049658Y026233D02*
X046508Y029382D01*
X045622Y029382D02*
X048772Y026233D01*
X047886Y026233D02*
X044737Y029382D01*
X043851Y029382D02*
X047000Y026233D01*
X049363Y032433D02*
X043851Y032433D01*
X041095Y032433D01*
X036863Y032433D01*
X036272Y033024D01*
X033910Y031252D02*
X033780Y031252D01*
X033737Y031209D01*
X043851Y033910D02*
X045918Y035977D01*
X046804Y035977D01*
X046804Y037256D01*
X046804Y038339D01*
X047000Y038536D01*
X047552Y038930D02*
X047552Y039323D01*
X050248Y039323D01*
X050347Y039323D01*
X050741Y039717D01*
X052481Y039717D01*
X052496Y039733D01*
X052430Y039733D01*
X052496Y039733D02*
X054496Y039733D01*
X053496Y038733D02*
X051823Y038733D01*
X051233Y038142D01*
X047985Y038142D01*
X048674Y037355D02*
X048772Y037256D01*
X048870Y037158D01*
X051922Y037158D01*
X052496Y037733D01*
X054496Y037733D01*
X052709Y041193D02*
X050937Y041193D01*
X050937Y040800D01*
X050052Y039914D01*
X047493Y039914D01*
X047493Y039776D01*
X047552Y039717D01*
X047552Y039323D01*
X047493Y039914D02*
X047000Y039914D01*
X046705Y040209D01*
X046705Y043063D01*
X045918Y043851D01*
X045130Y043851D01*
X044914Y044067D01*
X044796Y044067D01*
X044796Y044815D02*
X044087Y044815D01*
X044048Y044776D01*
X045622Y047591D02*
X046804Y047591D01*
X047099Y046804D02*
X047591Y047296D01*
X049855Y047296D01*
X050248Y047689D01*
X050248Y051528D01*
X047099Y046804D02*
X047099Y046607D01*
X049461Y045012D02*
X049461Y044776D01*
X049953Y044284D01*
X049579Y043418D02*
X049579Y042709D01*
X049619Y042670D01*
X049619Y041784D01*
X050288Y041784D02*
X050288Y041036D01*
X049756Y040504D01*
X047886Y040504D01*
X050288Y042670D02*
X050327Y042709D01*
X050603Y042709D01*
X050937Y042374D01*
X050937Y041193D01*
X051587Y041784D02*
X051587Y042670D01*
X051548Y042709D01*
X051548Y043418D01*
X051922Y044284D02*
X051430Y044776D01*
X051430Y045012D01*
X052315Y045760D02*
X052315Y045770D01*
X052315Y045967D01*
X050347Y045918D02*
X050347Y045760D01*
X050327Y043418D02*
X050327Y042709D01*
X052197Y042709D02*
X052256Y042670D01*
X052296Y042709D01*
X052296Y043418D01*
X052463Y042670D02*
X052709Y042670D01*
X052906Y042473D01*
X052906Y041390D01*
X052709Y041193D01*
X048870Y036056D02*
X048772Y035957D01*
X048772Y034697D01*
X048221Y034146D01*
X048181Y034146D01*
X048142Y033516D02*
X047788Y033516D01*
X048142Y033516D02*
X048181Y033477D01*
X049363Y032433D02*
X050150Y033221D01*
X050150Y033930D01*
X047000Y035780D02*
X046804Y035977D01*
X040082Y053140D02*
X039581Y053140D01*
X044487Y012695D02*
X044487Y011834D01*
X044987Y011834D02*
X044987Y010963D01*
X048378Y007571D01*
X049166Y007571D01*
X049166Y006902D02*
X049402Y006902D01*
X049461Y006843D01*
X048378Y006902D02*
X048378Y006744D01*
X047197Y006902D02*
X047197Y006056D01*
X048181Y005071D01*
X048181Y002807D01*
X046213Y002807D02*
X046213Y004678D01*
X045229Y005662D01*
X045229Y006902D01*
X045229Y007571D02*
X044441Y007571D01*
X043487Y008526D01*
X043487Y011834D01*
X043987Y011834D02*
X043987Y009994D01*
X046410Y007571D01*
X047197Y007571D01*
X046410Y006902D02*
X046410Y006744D01*
X044441Y006744D02*
X044441Y006902D01*
X040111Y006744D02*
X040071Y006744D01*
X039914Y006902D01*
X039914Y007571D02*
X039717Y007571D01*
X039520Y007768D01*
X039520Y011666D01*
X039717Y011863D01*
X042473Y011863D02*
X042502Y011834D01*
X042987Y011834D01*
X045487Y011834D02*
X045692Y011834D01*
X045721Y011863D01*
X045918Y011863D02*
X045947Y011834D01*
X045987Y011834D01*
X039717Y007571D02*
X039126Y007571D01*
X039126Y006902D02*
X038989Y006902D01*
X038930Y006843D01*
D44*
X038044Y006941D02*
X038044Y005754D01*
X039711Y004087D01*
X039717Y004081D01*
X039717Y002906D01*
X039225Y002414D01*
X030760Y002414D01*
X030262Y002912D01*
X030262Y004087D01*
X030262Y004093D01*
X028496Y005465D02*
X028496Y001134D01*
X028398Y001036D01*
X021902Y001036D01*
X020819Y002119D01*
X020819Y004081D01*
X020814Y004087D01*
X026922Y009894D02*
X030760Y013733D01*
X035288Y013733D01*
X036370Y012650D01*
X036370Y006646D01*
X035583Y005859D01*
X028890Y005859D01*
X028496Y005465D01*
X026922Y009894D02*
X001725Y009894D01*
X001036Y010583D01*
X001036Y017965D01*
X001134Y018063D01*
X003688Y018063D01*
X003693Y018069D01*
X005760Y019933D02*
X005760Y012847D01*
X007237Y011370D01*
X026233Y011370D01*
X030071Y015209D01*
X030809Y015209D01*
X031154Y015209D01*
X031498Y015209D01*
X036469Y015209D01*
X038044Y013634D01*
X038044Y006941D01*
X040800Y008515D02*
X040800Y013241D01*
X037355Y016685D01*
X029382Y016685D01*
X025544Y012847D01*
X008024Y012847D01*
X007237Y013634D01*
X007237Y021115D01*
X004382Y023969D01*
X003695Y023969D01*
X003693Y023967D01*
X003693Y021997D02*
X003696Y021997D01*
X005760Y019933D01*
X001036Y017965D02*
X001036Y041587D01*
X001823Y042374D01*
X015800Y042374D01*
X018066Y044641D01*
X018066Y044650D01*
X021607Y041489D02*
X021644Y041526D01*
X022348Y041526D01*
X022296Y042867D02*
X022197Y042965D01*
X022197Y043949D01*
X022443Y044195D01*
X022866Y044618D01*
X022866Y044650D01*
X010662Y033103D02*
X007979Y035786D01*
X003693Y035786D01*
X003693Y027907D02*
X007196Y027907D01*
X010662Y024441D01*
X026489Y024441D02*
X034185Y024441D01*
X034205Y024461D01*
X038733Y024461D01*
X041489Y021705D01*
X041489Y018595D01*
X040800Y008515D02*
X044539Y004775D01*
X045227Y004087D01*
X045227Y004089D01*
X052906Y005544D02*
X054363Y005544D01*
X054382Y005563D01*
X054382Y008516D01*
X053418Y009481D01*
X052906Y009481D01*
X054382Y005563D02*
X054382Y002020D01*
X053398Y001036D01*
X028398Y001036D01*
D45*
X041095Y032433D02*
X041095Y033260D01*
X041095Y034008D01*
X038831Y036272D01*
X038831Y036961D01*
X037788Y036961D01*
X037256Y036961D01*
X036961Y037256D01*
X036863Y036764D02*
X034500Y036764D01*
X036863Y036764D02*
X037059Y036567D01*
X037788Y036567D01*
X037788Y036174D02*
X037256Y036174D01*
X037788Y035780D02*
X038339Y035780D01*
X038634Y035485D01*
X037788Y035386D02*
X037256Y035386D01*
X038831Y037945D02*
X038634Y038142D01*
X037788Y038142D01*
X036961Y040996D02*
X037256Y041292D01*
X037788Y041292D01*
X037788Y042807D01*
X037994Y043014D01*
X038270Y043014D01*
X038280Y043024D01*
X039520Y043024D01*
X042079Y042276D02*
X042276Y042473D01*
X042276Y043024D01*
X042670Y043024D02*
X042670Y042473D01*
X042867Y042276D01*
X045622Y042276D02*
X045819Y042473D01*
X045819Y043024D01*
X045662Y044441D02*
X045622Y044441D01*
X047552Y040111D02*
X047552Y039973D01*
X047493Y039914D01*
X047552Y038930D02*
X047552Y038536D01*
X047000Y038536D01*
X047552Y037748D02*
X047552Y037355D01*
X048674Y037355D01*
X047552Y037355D02*
X046902Y037355D01*
X046804Y037256D01*
X047000Y035780D02*
X047552Y035780D01*
X047552Y035386D01*
X047552Y034993D02*
X047000Y034993D01*
X043851Y033910D02*
X043851Y033260D01*
X043457Y033260D01*
X043851Y033260D02*
X043851Y032433D01*
X033713Y033024D02*
X033688Y033049D01*
X022348Y041526D02*
X022348Y042026D01*
D46*
X022348Y042526D02*
X022348Y043026D01*
X018359Y039520D02*
X018359Y039126D01*
X018359Y039520D02*
X018260Y039520D01*
X031744Y032433D02*
X031744Y031217D01*
X031737Y031209D01*
X031603Y031209D01*
X031449Y031056D01*
X032433Y031056D02*
X032587Y031209D01*
X032737Y031209D01*
X032729Y031217D01*
X032729Y032433D01*
X044048Y044048D02*
X044048Y044107D01*
X045032Y048083D02*
X047788Y048083D01*
X049264Y049559D01*
X049264Y054382D01*
X047158Y056489D01*
X046910Y056489D01*
X047197Y055957D02*
X046441Y055957D01*
X045910Y056489D01*
X045910Y055489D02*
X046426Y054973D01*
X047197Y054973D01*
X048378Y053792D01*
X048378Y049855D01*
X047493Y048969D01*
X045327Y048969D01*
X044441Y049855D01*
X044441Y052414D01*
X043715Y053140D01*
X042502Y053140D01*
X042502Y052640D02*
X043723Y052640D01*
X044146Y052217D01*
X044146Y049756D01*
X045229Y048674D01*
X047591Y048674D01*
X048674Y049756D01*
X048674Y053989D01*
X047174Y055489D01*
X046910Y055489D01*
X047197Y055957D02*
X048969Y054185D01*
X048969Y049658D01*
X047689Y048378D01*
X045130Y048378D01*
X043851Y049658D01*
X043851Y051922D01*
X043632Y052140D01*
X042502Y052140D01*
X041981Y051725D02*
X043359Y051725D01*
X043556Y051528D01*
X043556Y049559D01*
X045032Y048083D01*
X045426Y049264D02*
X047394Y049264D01*
X048083Y049953D01*
X048083Y053595D01*
X047189Y054489D01*
X046910Y054489D01*
X047197Y053989D02*
X046410Y053989D01*
X045910Y054489D01*
X045910Y053489D02*
X045335Y053489D01*
X043683Y055140D01*
X042502Y055140D01*
X042502Y054640D02*
X043691Y054640D01*
X045327Y053004D01*
X045327Y050150D01*
X045622Y049855D01*
X047197Y049855D01*
X047493Y050150D01*
X047493Y052906D01*
X046910Y053489D01*
X047197Y053989D02*
X047788Y053398D01*
X047788Y050052D01*
X047296Y049559D01*
X045524Y049559D01*
X045032Y050052D01*
X045032Y052807D01*
X043699Y054140D01*
X042502Y054140D01*
X042502Y053640D02*
X043707Y053640D01*
X044737Y052611D01*
X044737Y049953D01*
X045426Y049264D01*
X041981Y051725D02*
X041065Y052640D01*
X040082Y052640D01*
X049461Y045839D02*
X049461Y045819D01*
X050150Y045130D01*
X050307Y045130D01*
X050347Y045091D01*
X051430Y045819D02*
X052069Y045180D01*
X052227Y045180D01*
X052315Y045091D01*
X051430Y045819D02*
X051430Y045839D01*
X052256Y042670D02*
X052463Y042670D01*
X052256Y041784D02*
X052217Y041784D01*
X050288Y041784D02*
X050248Y041784D01*
X050248Y039323D02*
X050248Y038733D01*
X050741Y038733D01*
X050839Y038733D01*
X051134Y039028D01*
X051331Y039225D01*
X051626Y039225D01*
X050248Y038733D02*
X049756Y038733D01*
X049264Y038733D01*
X048772Y038733D01*
X048280Y038733D01*
X047985Y038142D02*
X047552Y038142D01*
X047552Y036961D02*
X047552Y036567D01*
X047552Y036174D01*
X048772Y037256D02*
X049067Y037552D01*
X049559Y037552D01*
X050052Y037552D01*
X050544Y037552D01*
X051036Y037552D01*
X051430Y037552D01*
X051528Y037650D01*
X047886Y040504D02*
X047552Y040504D01*
X051183Y021262D02*
X052168Y021262D01*
X052217Y021213D01*
X052119Y015258D02*
X051134Y015258D01*
X051183Y014249D02*
X052143Y014249D01*
X018654Y022493D02*
X018260Y022099D01*
D47*
X036666Y032237D02*
X036666Y034837D01*
X036741Y034762D01*
X036884Y034703D01*
X037038Y034703D01*
X037181Y034762D01*
X037232Y034813D01*
X037234Y034807D01*
X037326Y034714D01*
X037447Y034664D01*
X038129Y034664D01*
X038249Y034714D01*
X038342Y034807D01*
X038391Y034927D01*
X038391Y035058D01*
X038342Y035178D01*
X038331Y035189D01*
X038342Y035200D01*
X038350Y035220D01*
X038414Y035156D01*
X038557Y035097D01*
X038711Y035097D01*
X038854Y035156D01*
X038963Y035265D01*
X039022Y035407D01*
X039022Y035562D01*
X038963Y035704D01*
X038854Y035814D01*
X038714Y035872D01*
X038526Y036060D01*
X038405Y036110D01*
X038391Y036110D01*
X038391Y036239D01*
X038342Y036359D01*
X038331Y036370D01*
X038342Y036381D01*
X038391Y036502D01*
X038391Y036633D01*
X038342Y036753D01*
X038285Y036810D01*
X038301Y036834D01*
X038321Y036883D01*
X038331Y036935D01*
X038331Y036952D01*
X037797Y036952D01*
X037797Y036970D01*
X038331Y036970D01*
X038331Y036987D01*
X038321Y037039D01*
X038301Y037088D01*
X038285Y037112D01*
X038342Y037169D01*
X038391Y037289D01*
X038391Y037420D01*
X038342Y037541D01*
X038331Y037552D01*
X038342Y037563D01*
X038391Y037683D01*
X038391Y037812D01*
X038466Y037812D01*
X038502Y037725D01*
X038611Y037616D01*
X038754Y037557D01*
X038908Y037557D01*
X039051Y037616D01*
X039160Y037725D01*
X039219Y037868D01*
X039219Y038022D01*
X039160Y038165D01*
X039051Y038274D01*
X038911Y038332D01*
X038821Y038422D01*
X038700Y038472D01*
X038391Y038472D01*
X038391Y038601D01*
X038342Y038722D01*
X038331Y038733D01*
X038342Y038744D01*
X038391Y038864D01*
X038391Y038995D01*
X038342Y039115D01*
X038331Y039126D01*
X038342Y039137D01*
X038391Y039258D01*
X038391Y039388D01*
X038342Y039509D01*
X038331Y039520D01*
X038342Y039531D01*
X038391Y039652D01*
X038391Y039782D01*
X038342Y039903D01*
X038331Y039914D01*
X038342Y039925D01*
X038391Y040045D01*
X038391Y040176D01*
X038342Y040296D01*
X038331Y040307D01*
X038342Y040318D01*
X038391Y040439D01*
X038391Y040570D01*
X038342Y040690D01*
X038331Y040701D01*
X038342Y040712D01*
X038391Y040833D01*
X038391Y040963D01*
X038342Y041084D01*
X038285Y041141D01*
X038301Y041165D01*
X038321Y041214D01*
X038331Y041265D01*
X038331Y041283D01*
X037797Y041283D01*
X037797Y041301D01*
X037779Y041301D01*
X037779Y041560D01*
X037486Y041560D01*
X037434Y041550D01*
X037385Y041529D01*
X037341Y041500D01*
X037304Y041463D01*
X037275Y041419D01*
X037254Y041370D01*
X037244Y041318D01*
X037244Y041301D01*
X037779Y041301D01*
X037779Y041283D01*
X037244Y041283D01*
X037244Y041265D01*
X037254Y041214D01*
X037275Y041165D01*
X037291Y041141D01*
X037234Y041084D01*
X037184Y040963D01*
X037184Y040833D01*
X037234Y040712D01*
X037245Y040701D01*
X037234Y040690D01*
X037184Y040570D01*
X037184Y040439D01*
X037234Y040318D01*
X037245Y040307D01*
X037234Y040296D01*
X037184Y040176D01*
X037184Y040045D01*
X037234Y039925D01*
X037245Y039914D01*
X037234Y039903D01*
X037184Y039782D01*
X037184Y039652D01*
X037234Y039531D01*
X037245Y039520D01*
X037234Y039509D01*
X037184Y039388D01*
X037184Y039258D01*
X037234Y039137D01*
X037245Y039126D01*
X037234Y039115D01*
X037184Y038995D01*
X037184Y038864D01*
X037234Y038744D01*
X037245Y038733D01*
X037234Y038722D01*
X037184Y038601D01*
X037184Y038471D01*
X037234Y038350D01*
X037245Y038339D01*
X037234Y038328D01*
X037184Y038207D01*
X037184Y038077D01*
X037234Y037956D01*
X037245Y037945D01*
X037234Y037934D01*
X037184Y037814D01*
X037184Y037683D01*
X037234Y037563D01*
X037245Y037552D01*
X037234Y037541D01*
X037184Y037420D01*
X037184Y037289D01*
X037234Y037169D01*
X037291Y037112D01*
X037275Y037088D01*
X037254Y037039D01*
X037244Y036987D01*
X037244Y036970D01*
X037779Y036970D01*
X037779Y036952D01*
X037244Y036952D01*
X037244Y036935D01*
X037252Y036897D01*
X037196Y036897D01*
X037142Y036951D01*
X037050Y037044D01*
X036928Y037094D01*
X036666Y037094D01*
X036666Y043949D01*
X037256Y044540D01*
X040800Y044540D01*
X043260Y047000D01*
X046780Y047000D01*
X046729Y046877D01*
X046729Y046728D01*
X046711Y046684D01*
X046711Y046529D01*
X046770Y046387D01*
X046847Y046309D01*
X042769Y046309D01*
X042589Y046235D01*
X042451Y046097D01*
X042377Y045917D01*
X042377Y045722D01*
X042451Y045542D01*
X042589Y045404D01*
X042769Y045329D01*
X047787Y045329D01*
X047967Y045404D01*
X048680Y046117D01*
X049015Y046117D01*
X049015Y045516D01*
X049105Y045426D01*
X049015Y045335D01*
X049015Y044689D01*
X049138Y044566D01*
X049148Y044566D01*
X049546Y044167D01*
X049546Y043921D01*
X049564Y043903D01*
X049295Y043903D01*
X049172Y043780D01*
X049172Y043072D01*
X049153Y043052D01*
X049153Y042287D01*
X049213Y042227D01*
X049153Y042166D01*
X049153Y041402D01*
X049276Y041279D01*
X049918Y041279D01*
X049918Y041189D01*
X049603Y040874D01*
X048155Y040874D01*
X048155Y040963D01*
X048105Y041084D01*
X048094Y041095D01*
X048105Y041106D01*
X048155Y041226D01*
X048155Y041357D01*
X048105Y041478D01*
X048013Y041570D01*
X047892Y041620D01*
X047211Y041620D01*
X047090Y041570D01*
X046998Y041478D01*
X046948Y041357D01*
X046948Y041226D01*
X046998Y041106D01*
X047009Y041095D01*
X046998Y041084D01*
X046948Y040963D01*
X046948Y040833D01*
X046998Y040712D01*
X047009Y040701D01*
X046998Y040690D01*
X046948Y040570D01*
X046948Y040439D01*
X046998Y040318D01*
X047055Y040262D01*
X047038Y040238D01*
X047018Y040189D01*
X047008Y040137D01*
X047008Y040120D01*
X047543Y040120D01*
X047543Y040102D01*
X047561Y040102D01*
X047561Y040120D01*
X048095Y040120D01*
X048095Y040134D01*
X049830Y040134D01*
X049966Y040191D01*
X050601Y040826D01*
X050658Y040962D01*
X050658Y041306D01*
X050754Y041402D01*
X050754Y042166D01*
X050651Y042269D01*
X050664Y042282D01*
X050683Y042317D01*
X050694Y042355D01*
X050694Y042620D01*
X050338Y042620D01*
X050338Y042720D01*
X050238Y042720D01*
X050238Y042992D01*
X050279Y042992D01*
X050279Y043369D01*
X050376Y043369D01*
X050376Y043466D01*
X050674Y043466D01*
X050674Y043713D01*
X050664Y043751D01*
X050644Y043785D01*
X050616Y043813D01*
X050582Y043833D01*
X050544Y043843D01*
X050376Y043843D01*
X050376Y043466D01*
X050279Y043466D01*
X050279Y043840D01*
X050360Y043921D01*
X050360Y044625D01*
X050729Y044625D01*
X050852Y044748D01*
X050852Y046103D01*
X050839Y046117D01*
X050983Y046117D01*
X050983Y045516D01*
X051073Y045426D01*
X050983Y045335D01*
X050983Y044689D01*
X051106Y044566D01*
X051116Y044566D01*
X051515Y044167D01*
X051515Y043921D01*
X051533Y043903D01*
X051264Y043903D01*
X051141Y043780D01*
X051141Y043072D01*
X051121Y043052D01*
X051121Y042287D01*
X051182Y042227D01*
X051121Y042166D01*
X051121Y041402D01*
X051244Y041279D01*
X052599Y041279D01*
X052722Y041402D01*
X052722Y042166D01*
X052619Y042269D01*
X052632Y042282D01*
X052652Y042317D01*
X052662Y042355D01*
X052662Y042620D01*
X052306Y042620D01*
X052306Y042720D01*
X052206Y042720D01*
X052206Y042992D01*
X052247Y042992D01*
X052247Y043369D01*
X052344Y043369D01*
X052344Y043115D01*
X052306Y043115D01*
X052306Y042720D01*
X052662Y042720D01*
X052662Y042985D01*
X052652Y043023D01*
X052632Y043057D01*
X052622Y043067D01*
X052632Y043084D01*
X052643Y043122D01*
X052643Y043369D01*
X052344Y043369D01*
X052344Y043466D01*
X052643Y043466D01*
X052643Y043713D01*
X052632Y043751D01*
X052613Y043785D01*
X052585Y043813D01*
X052550Y043833D01*
X052512Y043843D01*
X052344Y043843D01*
X052344Y043466D01*
X052247Y043466D01*
X052247Y043840D01*
X052329Y043921D01*
X052329Y044625D01*
X052698Y044625D01*
X052821Y044748D01*
X052821Y046103D01*
X052805Y046118D01*
X052805Y046557D01*
X052731Y046737D01*
X052593Y046874D01*
X052583Y046884D01*
X052583Y046884D01*
X052467Y047000D01*
X055058Y047000D01*
X055058Y040060D01*
X055038Y040095D01*
X054986Y040162D01*
X054926Y040222D01*
X054858Y040274D01*
X054785Y040317D01*
X054706Y040350D01*
X054624Y040372D01*
X054546Y040382D01*
X054546Y039783D01*
X054446Y039783D01*
X054446Y039683D01*
X053847Y039683D01*
X053858Y039606D01*
X053880Y039523D01*
X053912Y039445D01*
X053955Y039371D01*
X054007Y039303D01*
X054067Y039243D01*
X054135Y039191D01*
X054208Y039148D01*
X054287Y039116D01*
X054369Y039094D01*
X054446Y039084D01*
X054446Y039683D01*
X054546Y039683D01*
X054546Y039084D01*
X054624Y039094D01*
X054706Y039116D01*
X054785Y039148D01*
X054858Y039191D01*
X054926Y039243D01*
X054986Y039303D01*
X055038Y039371D01*
X055058Y039405D01*
X055058Y038060D01*
X055038Y038095D01*
X054986Y038162D01*
X054926Y038222D01*
X054858Y038274D01*
X054785Y038317D01*
X054706Y038350D01*
X054624Y038372D01*
X054546Y038382D01*
X054546Y037783D01*
X054446Y037783D01*
X054446Y037683D01*
X053847Y037683D01*
X053858Y037606D01*
X053880Y037523D01*
X053912Y037445D01*
X053955Y037371D01*
X054007Y037303D01*
X054067Y037243D01*
X054135Y037191D01*
X054208Y037148D01*
X054287Y037116D01*
X054369Y037094D01*
X054446Y037084D01*
X054446Y037683D01*
X054546Y037683D01*
X054546Y037084D01*
X054624Y037094D01*
X054706Y037116D01*
X054785Y037148D01*
X054858Y037191D01*
X054926Y037243D01*
X054986Y037303D01*
X055038Y037371D01*
X055058Y037405D01*
X055058Y032335D01*
X049658Y032335D01*
X049461Y032138D01*
X036764Y032138D01*
X036666Y032237D01*
X036666Y032261D02*
X049584Y032261D01*
X049485Y032163D02*
X036740Y032163D01*
X036666Y032360D02*
X055058Y032360D01*
X055058Y032458D02*
X036666Y032458D01*
X036666Y032557D02*
X055058Y032557D01*
X055058Y032655D02*
X036666Y032655D01*
X036666Y032754D02*
X039287Y032754D01*
X039242Y032799D02*
X039334Y032706D01*
X039455Y032657D01*
X039585Y032657D01*
X039706Y032706D01*
X039717Y032717D01*
X039728Y032706D01*
X039849Y032657D01*
X039979Y032657D01*
X040100Y032706D01*
X040111Y032717D01*
X040122Y032706D01*
X040242Y032657D01*
X040373Y032657D01*
X040493Y032706D01*
X040504Y032717D01*
X040515Y032706D01*
X040636Y032657D01*
X040766Y032657D01*
X040887Y032706D01*
X040944Y032763D01*
X040968Y032747D01*
X041017Y032727D01*
X041068Y032717D01*
X041086Y032717D01*
X041086Y033251D01*
X041104Y033251D01*
X041104Y032717D01*
X041121Y032717D01*
X041173Y032727D01*
X041222Y032747D01*
X041246Y032763D01*
X041303Y032706D01*
X041423Y032657D01*
X041554Y032657D01*
X041674Y032706D01*
X041685Y032717D01*
X041696Y032706D01*
X041817Y032657D01*
X041948Y032657D01*
X042068Y032706D01*
X042079Y032717D01*
X042090Y032706D01*
X042211Y032657D01*
X042341Y032657D01*
X042462Y032706D01*
X042473Y032717D01*
X042484Y032706D01*
X042604Y032657D01*
X042735Y032657D01*
X042856Y032706D01*
X042867Y032717D01*
X042878Y032706D01*
X042998Y032657D01*
X043129Y032657D01*
X043249Y032706D01*
X043306Y032763D01*
X043330Y032747D01*
X043379Y032727D01*
X043431Y032717D01*
X043448Y032717D01*
X043448Y033251D01*
X043466Y033251D01*
X043466Y032717D01*
X043483Y032717D01*
X043535Y032727D01*
X043584Y032747D01*
X043628Y032776D01*
X043654Y032802D01*
X043680Y032776D01*
X043724Y032747D01*
X043773Y032727D01*
X043824Y032717D01*
X043842Y032717D01*
X043842Y033251D01*
X043860Y033251D01*
X043860Y032717D01*
X043877Y032717D01*
X043929Y032727D01*
X043978Y032747D01*
X044002Y032763D01*
X044059Y032706D01*
X044179Y032657D01*
X044310Y032657D01*
X044430Y032706D01*
X044441Y032717D01*
X044452Y032706D01*
X044573Y032657D01*
X044703Y032657D01*
X044824Y032706D01*
X044835Y032717D01*
X044846Y032706D01*
X044967Y032657D01*
X045097Y032657D01*
X045218Y032706D01*
X045229Y032717D01*
X045240Y032706D01*
X045360Y032657D01*
X045491Y032657D01*
X045611Y032706D01*
X045622Y032717D01*
X045633Y032706D01*
X045754Y032657D01*
X045885Y032657D01*
X046005Y032706D01*
X046097Y032799D01*
X046147Y032919D01*
X046147Y033601D01*
X046097Y033722D01*
X046005Y033814D01*
X045885Y033864D01*
X045754Y033864D01*
X045633Y033814D01*
X045622Y033803D01*
X045611Y033814D01*
X045491Y033864D01*
X045360Y033864D01*
X045240Y033814D01*
X045229Y033803D01*
X045218Y033814D01*
X045097Y033864D01*
X044967Y033864D01*
X044846Y033814D01*
X044835Y033803D01*
X044824Y033814D01*
X044703Y033864D01*
X044573Y033864D01*
X044452Y033814D01*
X044441Y033803D01*
X044430Y033814D01*
X044310Y033864D01*
X044179Y033864D01*
X044059Y033814D01*
X044002Y033757D01*
X043978Y033773D01*
X043929Y033794D01*
X043877Y033804D01*
X043860Y033804D01*
X043860Y033269D01*
X043842Y033269D01*
X043842Y033251D01*
X043583Y033251D01*
X043466Y033251D01*
X043466Y033269D01*
X043842Y033269D01*
X043842Y033804D01*
X043824Y033804D01*
X043773Y033794D01*
X043724Y033773D01*
X043680Y033744D01*
X043654Y033718D01*
X043628Y033744D01*
X043584Y033773D01*
X043535Y033794D01*
X043483Y033804D01*
X043466Y033804D01*
X043466Y033269D01*
X043448Y033269D01*
X043448Y033804D01*
X043431Y033804D01*
X043379Y033794D01*
X043330Y033773D01*
X043306Y033757D01*
X043249Y033814D01*
X043129Y033864D01*
X042998Y033864D01*
X042878Y033814D01*
X042867Y033803D01*
X042856Y033814D01*
X042735Y033864D01*
X042604Y033864D01*
X042484Y033814D01*
X042473Y033803D01*
X042462Y033814D01*
X042341Y033864D01*
X042211Y033864D01*
X042090Y033814D01*
X042079Y033803D01*
X042068Y033814D01*
X041948Y033864D01*
X041817Y033864D01*
X041696Y033814D01*
X041685Y033803D01*
X041674Y033814D01*
X041554Y033864D01*
X041423Y033864D01*
X041303Y033814D01*
X041246Y033757D01*
X041222Y033773D01*
X041173Y033794D01*
X041121Y033804D01*
X041104Y033804D01*
X041104Y033269D01*
X041086Y033269D01*
X041086Y033804D01*
X041068Y033804D01*
X041017Y033794D01*
X040968Y033773D01*
X040944Y033757D01*
X040887Y033814D01*
X040766Y033864D01*
X040636Y033864D01*
X040515Y033814D01*
X040504Y033803D01*
X040493Y033814D01*
X040373Y033864D01*
X040242Y033864D01*
X040122Y033814D01*
X040111Y033803D01*
X040100Y033814D01*
X039979Y033864D01*
X039849Y033864D01*
X039728Y033814D01*
X039717Y033803D01*
X039706Y033814D01*
X039585Y033864D01*
X039455Y033864D01*
X039334Y033814D01*
X039242Y033722D01*
X039192Y033601D01*
X039192Y032919D01*
X039242Y032799D01*
X039220Y032852D02*
X036666Y032852D01*
X036666Y032951D02*
X039192Y032951D01*
X039192Y033049D02*
X036666Y033049D01*
X036666Y033148D02*
X039192Y033148D01*
X039192Y033246D02*
X036666Y033246D01*
X036666Y033345D02*
X039192Y033345D01*
X039192Y033443D02*
X036666Y033443D01*
X036666Y033542D02*
X039192Y033542D01*
X039208Y033640D02*
X036666Y033640D01*
X036666Y033739D02*
X039259Y033739D01*
X039390Y033837D02*
X036666Y033837D01*
X036666Y033936D02*
X047775Y033936D01*
X047775Y033904D02*
X047711Y033904D01*
X047568Y033845D01*
X047459Y033736D01*
X047400Y033593D01*
X047400Y033439D01*
X047459Y033296D01*
X047568Y033187D01*
X047711Y033128D01*
X047820Y033128D01*
X047898Y033050D01*
X048465Y033050D01*
X048588Y033173D01*
X048588Y033780D01*
X048557Y033811D01*
X048588Y033843D01*
X048588Y033990D01*
X048982Y034384D01*
X049086Y034488D01*
X049142Y034624D01*
X049142Y035516D01*
X049625Y035516D01*
X049625Y035280D01*
X049748Y035157D01*
X050552Y035157D01*
X050675Y035280D01*
X050675Y035516D01*
X052775Y035516D01*
X052775Y035280D01*
X052898Y035157D01*
X053702Y035157D01*
X053825Y035280D01*
X053825Y035912D01*
X053840Y035948D01*
X053840Y036163D01*
X053825Y036199D01*
X053825Y036831D01*
X053702Y036954D01*
X052898Y036954D01*
X052775Y036831D01*
X052775Y036596D01*
X050675Y036596D01*
X050675Y036831D01*
X050552Y036954D01*
X049748Y036954D01*
X049625Y036831D01*
X049625Y036596D01*
X049015Y036596D01*
X048738Y036873D01*
X048586Y037025D01*
X048387Y037107D01*
X048122Y037107D01*
X048105Y037147D01*
X048049Y037204D01*
X048065Y037228D01*
X048085Y037277D01*
X048095Y037328D01*
X048095Y037346D01*
X047561Y037346D01*
X047561Y037364D01*
X048095Y037364D01*
X048095Y037381D01*
X048085Y037433D01*
X048065Y037482D01*
X048035Y037526D01*
X048009Y037552D01*
X048035Y037578D01*
X048065Y037621D01*
X048085Y037670D01*
X048095Y037722D01*
X048095Y037739D01*
X047561Y037739D01*
X047561Y037623D01*
X047561Y037364D01*
X047543Y037364D01*
X047543Y037739D01*
X047561Y037739D01*
X047561Y037757D01*
X048095Y037757D01*
X048095Y037772D01*
X051306Y037772D01*
X051442Y037828D01*
X051546Y037933D01*
X051976Y038363D01*
X052336Y038363D01*
X052287Y038350D01*
X052208Y038317D01*
X052135Y038274D01*
X052067Y038222D01*
X052007Y038162D01*
X051955Y038095D01*
X051912Y038021D01*
X051880Y037942D01*
X051858Y037860D01*
X051847Y037783D01*
X052446Y037783D01*
X052446Y037683D01*
X051847Y037683D01*
X051858Y037606D01*
X051880Y037523D01*
X051912Y037445D01*
X051955Y037371D01*
X052007Y037303D01*
X052067Y037243D01*
X052135Y037191D01*
X052208Y037148D01*
X052287Y037116D01*
X052369Y037094D01*
X052446Y037084D01*
X052446Y037683D01*
X052546Y037683D01*
X052546Y037084D01*
X052624Y037094D01*
X052706Y037116D01*
X052785Y037148D01*
X052858Y037191D01*
X052926Y037243D01*
X052986Y037303D01*
X053038Y037371D01*
X053081Y037445D01*
X053113Y037523D01*
X053135Y037606D01*
X053145Y037683D01*
X052546Y037683D01*
X052546Y037783D01*
X053145Y037783D01*
X053135Y037860D01*
X053113Y037942D01*
X053081Y038021D01*
X053038Y038095D01*
X052986Y038162D01*
X052926Y038222D01*
X052858Y038274D01*
X052785Y038317D01*
X052706Y038350D01*
X052657Y038363D01*
X052881Y038363D01*
X052895Y038330D01*
X053094Y038131D01*
X053355Y038023D01*
X053638Y038023D01*
X053899Y038131D01*
X054098Y038330D01*
X054206Y038591D01*
X054206Y038874D01*
X054098Y039135D01*
X053899Y039335D01*
X053638Y039443D01*
X053355Y039443D01*
X053094Y039335D01*
X052895Y039135D01*
X052881Y039103D01*
X052657Y039103D01*
X052706Y039116D01*
X052785Y039148D01*
X052858Y039191D01*
X052926Y039243D01*
X052986Y039303D01*
X053038Y039371D01*
X053081Y039445D01*
X053113Y039523D01*
X053135Y039606D01*
X053145Y039683D01*
X052546Y039683D01*
X052546Y039783D01*
X052446Y039783D01*
X052446Y039683D01*
X051847Y039683D01*
X051858Y039606D01*
X051880Y039523D01*
X051912Y039445D01*
X051955Y039371D01*
X052007Y039303D01*
X052067Y039243D01*
X052135Y039191D01*
X052208Y039148D01*
X052287Y039116D01*
X052336Y039103D01*
X051750Y039103D01*
X051614Y039046D01*
X051079Y038512D01*
X048095Y038512D01*
X048095Y038527D01*
X047561Y038527D01*
X047561Y038545D01*
X048095Y038545D01*
X048095Y038562D01*
X048085Y038614D01*
X048065Y038663D01*
X048035Y038707D01*
X048009Y038733D01*
X048035Y038759D01*
X048065Y038803D01*
X048085Y038851D01*
X048095Y038903D01*
X048095Y038920D01*
X047561Y038920D01*
X047561Y038661D01*
X047561Y038545D01*
X047543Y038545D01*
X047543Y038920D01*
X047561Y038920D01*
X047561Y038939D01*
X047543Y038939D01*
X047543Y039314D01*
X047561Y039314D01*
X047561Y039332D01*
X048095Y039332D01*
X048095Y039350D01*
X048085Y039401D01*
X048065Y039450D01*
X048035Y039494D01*
X048009Y039520D01*
X048035Y039546D01*
X048065Y039590D01*
X048085Y039639D01*
X048095Y039691D01*
X048095Y039708D01*
X047561Y039708D01*
X047561Y039726D01*
X048095Y039726D01*
X048095Y039743D01*
X048085Y039795D01*
X048065Y039844D01*
X048035Y039888D01*
X048009Y039914D01*
X048035Y039940D01*
X048065Y039984D01*
X048085Y040032D01*
X048095Y040084D01*
X048095Y040102D01*
X047561Y040102D01*
X047561Y039843D01*
X047561Y039726D01*
X047543Y039726D01*
X047543Y040102D01*
X047008Y040102D01*
X047008Y040084D01*
X047018Y040032D01*
X047038Y039984D01*
X047068Y039940D01*
X047094Y039914D01*
X047068Y039888D01*
X047038Y039844D01*
X047018Y039795D01*
X047008Y039743D01*
X047008Y039726D01*
X047543Y039726D01*
X047543Y039708D01*
X047561Y039708D01*
X047561Y039449D01*
X047561Y039332D01*
X047543Y039332D01*
X047543Y039708D01*
X047008Y039708D01*
X047008Y039691D01*
X047018Y039639D01*
X047038Y039590D01*
X047068Y039546D01*
X047094Y039520D01*
X047068Y039494D01*
X047038Y039450D01*
X047018Y039401D01*
X047008Y039350D01*
X047008Y039332D01*
X047543Y039332D01*
X047543Y039314D01*
X047008Y039314D01*
X047008Y039297D01*
X047018Y039245D01*
X047038Y039196D01*
X047068Y039152D01*
X047094Y039126D01*
X047068Y039100D01*
X047038Y039057D01*
X047018Y039008D01*
X047008Y038956D01*
X047008Y038939D01*
X047543Y038939D01*
X047543Y038920D01*
X047008Y038920D01*
X047008Y038903D01*
X047018Y038851D01*
X047038Y038803D01*
X047068Y038759D01*
X047094Y038733D01*
X047068Y038707D01*
X047038Y038663D01*
X047018Y038614D01*
X047008Y038562D01*
X047008Y038545D01*
X047543Y038545D01*
X047543Y038527D01*
X047008Y038527D01*
X047008Y038509D01*
X047018Y038458D01*
X047038Y038409D01*
X047055Y038385D01*
X046998Y038328D01*
X046948Y038207D01*
X046948Y038077D01*
X046998Y037956D01*
X047055Y037900D01*
X047038Y037875D01*
X047018Y037827D01*
X047008Y037775D01*
X047008Y037757D01*
X047543Y037757D01*
X047543Y037739D01*
X047008Y037739D01*
X047008Y037722D01*
X047018Y037670D01*
X047038Y037621D01*
X047068Y037578D01*
X047094Y037552D01*
X047068Y037526D01*
X047038Y037482D01*
X047018Y037433D01*
X047008Y037381D01*
X047008Y037364D01*
X047543Y037364D01*
X047543Y037346D01*
X047008Y037346D01*
X047008Y037328D01*
X047018Y037277D01*
X047038Y037228D01*
X047055Y037204D01*
X046998Y037147D01*
X046948Y037026D01*
X046948Y036896D01*
X046998Y036775D01*
X047009Y036764D01*
X046998Y036753D01*
X046948Y036633D01*
X046948Y036502D01*
X046998Y036381D01*
X047009Y036370D01*
X046998Y036359D01*
X046948Y036239D01*
X046948Y036108D01*
X046998Y035988D01*
X047055Y035931D01*
X047038Y035907D01*
X047018Y035858D01*
X047008Y035806D01*
X047008Y035789D01*
X047543Y035789D01*
X047543Y035771D01*
X047561Y035771D01*
X047561Y035789D01*
X048095Y035789D01*
X048095Y035806D01*
X048085Y035858D01*
X048065Y035907D01*
X048049Y035931D01*
X048101Y035983D01*
X048402Y035682D01*
X048402Y034851D01*
X048124Y034573D01*
X047898Y034573D01*
X047775Y034450D01*
X047775Y033904D01*
X047775Y034034D02*
X036666Y034034D01*
X036666Y034133D02*
X047775Y034133D01*
X047775Y034231D02*
X036666Y034231D01*
X036666Y034330D02*
X047775Y034330D01*
X047775Y034428D02*
X036666Y034428D01*
X036666Y034527D02*
X047852Y034527D01*
X047892Y034664D02*
X048013Y034714D01*
X048105Y034807D01*
X048155Y034927D01*
X048155Y035058D01*
X048105Y035178D01*
X048049Y035235D01*
X048065Y035259D01*
X048085Y035308D01*
X048095Y035360D01*
X048095Y035377D01*
X047561Y035377D01*
X047561Y035395D01*
X048095Y035395D01*
X048095Y035413D01*
X048402Y035413D01*
X048402Y035315D02*
X048086Y035315D01*
X048095Y035413D02*
X048085Y035464D01*
X048065Y035513D01*
X048035Y035557D01*
X048009Y035583D01*
X048035Y035609D01*
X048065Y035653D01*
X048085Y035702D01*
X048095Y035754D01*
X048095Y035771D01*
X047561Y035771D01*
X047561Y035512D01*
X047561Y035395D01*
X047543Y035395D01*
X047543Y035771D01*
X047008Y035771D01*
X047008Y035754D01*
X047018Y035702D01*
X047038Y035653D01*
X047068Y035609D01*
X047094Y035583D01*
X047068Y035557D01*
X047038Y035513D01*
X047018Y035464D01*
X047008Y035413D01*
X039022Y035413D01*
X039022Y035512D02*
X047038Y035512D01*
X047067Y035610D02*
X039002Y035610D01*
X038959Y035709D02*
X047017Y035709D01*
X047008Y035807D02*
X038861Y035807D01*
X038680Y035906D02*
X047038Y035906D01*
X046991Y036004D02*
X038581Y036004D01*
X038422Y036103D02*
X046950Y036103D01*
X046948Y036201D02*
X038391Y036201D01*
X038366Y036300D02*
X046973Y036300D01*
X046991Y036398D02*
X038348Y036398D01*
X038389Y036497D02*
X046950Y036497D01*
X046948Y036595D02*
X038391Y036595D01*
X038366Y036694D02*
X046973Y036694D01*
X046991Y036792D02*
X038303Y036792D01*
X038323Y036891D02*
X046950Y036891D01*
X046948Y036989D02*
X038331Y036989D01*
X038301Y037088D02*
X046973Y037088D01*
X047037Y037186D02*
X038349Y037186D01*
X038389Y037285D02*
X044883Y037285D01*
X044883Y037264D02*
X044941Y037206D01*
X046697Y037206D01*
X046756Y037264D01*
X046756Y039020D01*
X046697Y039079D01*
X044941Y039079D01*
X044883Y039020D01*
X044883Y038937D01*
X044883Y037347D01*
X044883Y037264D01*
X044883Y037383D02*
X038391Y037383D01*
X038366Y037482D02*
X044883Y037482D01*
X044883Y037580D02*
X038964Y037580D01*
X039113Y037679D02*
X044883Y037679D01*
X044883Y037777D02*
X039182Y037777D01*
X039219Y037876D02*
X044883Y037876D01*
X044883Y037974D02*
X039219Y037974D01*
X039198Y038073D02*
X044883Y038073D01*
X044883Y038171D02*
X039154Y038171D01*
X039056Y038270D02*
X044883Y038270D01*
X044883Y038368D02*
X044098Y038368D01*
X044098Y038347D02*
X044098Y041481D01*
X044040Y041539D01*
X041300Y041539D01*
X041241Y041481D01*
X041241Y041398D01*
X041241Y038430D01*
X041241Y038347D01*
X041300Y038288D01*
X044040Y038288D01*
X044098Y038347D01*
X044098Y038467D02*
X044883Y038467D01*
X044883Y038565D02*
X044098Y038565D01*
X044098Y038664D02*
X044883Y038664D01*
X044883Y038762D02*
X044098Y038762D01*
X044098Y038861D02*
X044883Y038861D01*
X044883Y038959D02*
X044098Y038959D01*
X044098Y039058D02*
X044920Y039058D01*
X044098Y039156D02*
X047065Y039156D01*
X047039Y039058D02*
X046718Y039058D01*
X046756Y038959D02*
X047009Y038959D01*
X047016Y038861D02*
X046756Y038861D01*
X046756Y038762D02*
X047065Y038762D01*
X047039Y038664D02*
X046756Y038664D01*
X046756Y038565D02*
X047008Y038565D01*
X047016Y038467D02*
X046756Y038467D01*
X046756Y038368D02*
X047038Y038368D01*
X046974Y038270D02*
X046756Y038270D01*
X046756Y038171D02*
X046948Y038171D01*
X046950Y038073D02*
X046756Y038073D01*
X046756Y037974D02*
X046990Y037974D01*
X047039Y037876D02*
X046756Y037876D01*
X046756Y037777D02*
X047008Y037777D01*
X047017Y037679D02*
X046756Y037679D01*
X046756Y037580D02*
X047066Y037580D01*
X047038Y037482D02*
X046756Y037482D01*
X046756Y037383D02*
X047008Y037383D01*
X047017Y037285D02*
X046756Y037285D01*
X047543Y037383D02*
X047561Y037383D01*
X047561Y037482D02*
X047543Y037482D01*
X047543Y037580D02*
X047561Y037580D01*
X047561Y037679D02*
X047543Y037679D01*
X048037Y037580D02*
X051864Y037580D01*
X051848Y037679D02*
X048087Y037679D01*
X048065Y037482D02*
X051897Y037482D01*
X051948Y037383D02*
X048095Y037383D01*
X048087Y037285D02*
X052025Y037285D01*
X052143Y037186D02*
X048066Y037186D01*
X048435Y037088D02*
X052417Y037088D01*
X052446Y037088D02*
X052546Y037088D01*
X052576Y037088D02*
X054417Y037088D01*
X054446Y037088D02*
X054546Y037088D01*
X054576Y037088D02*
X055058Y037088D01*
X055058Y037186D02*
X054850Y037186D01*
X054968Y037285D02*
X055058Y037285D01*
X055045Y037383D02*
X055058Y037383D01*
X055058Y036989D02*
X048622Y036989D01*
X048720Y036891D02*
X049684Y036891D01*
X049625Y036792D02*
X048819Y036792D01*
X048917Y036694D02*
X049625Y036694D01*
X050616Y036891D02*
X052834Y036891D01*
X052775Y036792D02*
X050675Y036792D01*
X050675Y036694D02*
X052775Y036694D01*
X052850Y037186D02*
X054143Y037186D01*
X054025Y037285D02*
X052968Y037285D01*
X053045Y037383D02*
X053948Y037383D01*
X053897Y037482D02*
X053096Y037482D01*
X053129Y037580D02*
X053864Y037580D01*
X053848Y037679D02*
X053145Y037679D01*
X053131Y037876D02*
X053862Y037876D01*
X053858Y037860D02*
X053847Y037783D01*
X054446Y037783D01*
X054446Y038382D01*
X054369Y038372D01*
X054287Y038350D01*
X054208Y038317D01*
X054135Y038274D01*
X054067Y038222D01*
X054007Y038162D01*
X053955Y038095D01*
X053912Y038021D01*
X053880Y037942D01*
X053858Y037860D01*
X053893Y037974D02*
X053100Y037974D01*
X053051Y038073D02*
X053235Y038073D01*
X053054Y038171D02*
X052977Y038171D01*
X052955Y038270D02*
X052864Y038270D01*
X052546Y037777D02*
X054446Y037777D01*
X054446Y037679D02*
X054546Y037679D01*
X054546Y037580D02*
X054446Y037580D01*
X054446Y037482D02*
X054546Y037482D01*
X054546Y037383D02*
X054446Y037383D01*
X054446Y037285D02*
X054546Y037285D01*
X054546Y037186D02*
X054446Y037186D01*
X055058Y036891D02*
X053765Y036891D01*
X053825Y036792D02*
X055058Y036792D01*
X055058Y036694D02*
X053825Y036694D01*
X053825Y036595D02*
X055058Y036595D01*
X055058Y036497D02*
X053825Y036497D01*
X053825Y036398D02*
X055058Y036398D01*
X055058Y036300D02*
X053825Y036300D01*
X053825Y036201D02*
X055058Y036201D01*
X055058Y036103D02*
X053840Y036103D01*
X053840Y036004D02*
X055058Y036004D01*
X055058Y035906D02*
X053825Y035906D01*
X053825Y035807D02*
X055058Y035807D01*
X055058Y035709D02*
X053825Y035709D01*
X053825Y035610D02*
X055058Y035610D01*
X055058Y035512D02*
X053825Y035512D01*
X053825Y035413D02*
X055058Y035413D01*
X055058Y035315D02*
X053825Y035315D01*
X053761Y035216D02*
X055058Y035216D01*
X055058Y035118D02*
X049142Y035118D01*
X049142Y035216D02*
X049689Y035216D01*
X049625Y035315D02*
X049142Y035315D01*
X049142Y035413D02*
X049625Y035413D01*
X049625Y035512D02*
X049142Y035512D01*
X049142Y035019D02*
X055058Y035019D01*
X055058Y034921D02*
X049142Y034921D01*
X049142Y034822D02*
X055058Y034822D01*
X055058Y034724D02*
X053722Y034724D01*
X053735Y034711D02*
X053707Y034739D01*
X053672Y034758D01*
X053634Y034769D01*
X053350Y034769D01*
X053350Y033980D01*
X053250Y033980D01*
X053250Y034769D01*
X052965Y034769D01*
X052927Y034758D01*
X052893Y034739D01*
X052865Y034711D01*
X052845Y034676D01*
X052835Y034638D01*
X052835Y033980D01*
X053250Y033980D01*
X053250Y033880D01*
X052835Y033880D01*
X052835Y033221D01*
X052845Y033183D01*
X052865Y033148D01*
X052893Y033121D01*
X052927Y033101D01*
X052965Y033091D01*
X053250Y033091D01*
X053250Y033880D01*
X053350Y033880D01*
X053350Y033980D01*
X053765Y033980D01*
X053765Y034638D01*
X053754Y034676D01*
X053735Y034711D01*
X053765Y034625D02*
X055058Y034625D01*
X055058Y034527D02*
X053765Y034527D01*
X053765Y034428D02*
X055058Y034428D01*
X055058Y034330D02*
X053765Y034330D01*
X053765Y034231D02*
X055058Y034231D01*
X055058Y034133D02*
X053765Y034133D01*
X053765Y034034D02*
X055058Y034034D01*
X055058Y033936D02*
X053350Y033936D01*
X053350Y033880D02*
X053765Y033880D01*
X053765Y033221D01*
X053754Y033183D01*
X053735Y033148D01*
X053707Y033121D01*
X053672Y033101D01*
X053634Y033091D01*
X053350Y033091D01*
X053350Y033880D01*
X053350Y033837D02*
X053250Y033837D01*
X053250Y033739D02*
X053350Y033739D01*
X053350Y033640D02*
X053250Y033640D01*
X053250Y033542D02*
X053350Y033542D01*
X053350Y033443D02*
X053250Y033443D01*
X053250Y033345D02*
X053350Y033345D01*
X053350Y033246D02*
X053250Y033246D01*
X053250Y033148D02*
X053350Y033148D01*
X053734Y033148D02*
X055058Y033148D01*
X055058Y033246D02*
X053765Y033246D01*
X053765Y033345D02*
X055058Y033345D01*
X055058Y033443D02*
X053765Y033443D01*
X053765Y033542D02*
X055058Y033542D01*
X055058Y033640D02*
X053765Y033640D01*
X053765Y033739D02*
X055058Y033739D01*
X055058Y033837D02*
X053765Y033837D01*
X053350Y034034D02*
X053250Y034034D01*
X053250Y033936D02*
X050200Y033936D01*
X050200Y033980D02*
X050615Y033980D01*
X050615Y034638D01*
X050605Y034676D01*
X050585Y034711D01*
X050557Y034739D01*
X050523Y034758D01*
X050485Y034769D01*
X050200Y034769D01*
X050200Y033980D01*
X050100Y033980D01*
X050100Y034769D01*
X049815Y034769D01*
X049777Y034758D01*
X049743Y034739D01*
X049715Y034711D01*
X049695Y034676D01*
X049685Y034638D01*
X049685Y033980D01*
X050100Y033980D01*
X050100Y033880D01*
X049685Y033880D01*
X049685Y033221D01*
X049695Y033183D01*
X049715Y033148D01*
X049743Y033121D01*
X049777Y033101D01*
X049815Y033091D01*
X050100Y033091D01*
X050100Y033880D01*
X050200Y033880D01*
X050200Y033980D01*
X050200Y034034D02*
X050100Y034034D01*
X050100Y033936D02*
X048588Y033936D01*
X048583Y033837D02*
X049685Y033837D01*
X049685Y033739D02*
X048588Y033739D01*
X048588Y033640D02*
X049685Y033640D01*
X049685Y033542D02*
X048588Y033542D01*
X048588Y033443D02*
X049685Y033443D01*
X049685Y033345D02*
X048588Y033345D01*
X048588Y033246D02*
X049685Y033246D01*
X049716Y033148D02*
X048563Y033148D01*
X047663Y033148D02*
X046147Y033148D01*
X046147Y033246D02*
X047509Y033246D01*
X047439Y033345D02*
X046147Y033345D01*
X046147Y033443D02*
X047400Y033443D01*
X047400Y033542D02*
X046147Y033542D01*
X046131Y033640D02*
X047419Y033640D01*
X047461Y033739D02*
X046081Y033739D01*
X045949Y033837D02*
X047560Y033837D01*
X047617Y034663D02*
X047218Y034663D01*
X047078Y034604D01*
X046923Y034604D01*
X046781Y034663D01*
X046671Y034773D01*
X046612Y034915D01*
X046612Y035070D01*
X046671Y035212D01*
X046781Y035322D01*
X046923Y035381D01*
X047078Y035381D01*
X047086Y035377D01*
X047543Y035377D01*
X047543Y035395D01*
X047008Y035395D01*
X047008Y035413D01*
X046774Y035315D02*
X038984Y035315D01*
X038915Y035216D02*
X046675Y035216D01*
X046632Y035118D02*
X038762Y035118D01*
X038506Y035118D02*
X038367Y035118D01*
X038354Y035216D02*
X038348Y035216D01*
X038391Y035019D02*
X046612Y035019D01*
X046612Y034921D02*
X038389Y034921D01*
X038348Y034822D02*
X046651Y034822D01*
X046720Y034724D02*
X038258Y034724D01*
X037317Y034724D02*
X037088Y034724D01*
X036834Y034724D02*
X036666Y034724D01*
X036666Y034822D02*
X036681Y034822D01*
X036666Y034625D02*
X046873Y034625D01*
X047128Y034625D02*
X048177Y034625D01*
X048275Y034724D02*
X048022Y034724D01*
X048112Y034822D02*
X048374Y034822D01*
X048402Y034921D02*
X048153Y034921D01*
X048155Y035019D02*
X048402Y035019D01*
X048402Y035118D02*
X048131Y035118D01*
X048068Y035216D02*
X048402Y035216D01*
X048402Y035512D02*
X048065Y035512D01*
X048036Y035610D02*
X048402Y035610D01*
X048375Y035709D02*
X048086Y035709D01*
X048095Y035807D02*
X048276Y035807D01*
X048178Y035906D02*
X048065Y035906D01*
X047561Y035709D02*
X047543Y035709D01*
X047543Y035610D02*
X047561Y035610D01*
X047561Y035512D02*
X047543Y035512D01*
X047543Y035413D02*
X047561Y035413D01*
X047622Y034664D02*
X047892Y034664D01*
X047622Y034664D02*
X047617Y034663D01*
X048632Y034034D02*
X049685Y034034D01*
X049685Y034133D02*
X048731Y034133D01*
X048829Y034231D02*
X049685Y034231D01*
X049685Y034330D02*
X048928Y034330D01*
X049026Y034428D02*
X049685Y034428D01*
X049685Y034527D02*
X049102Y034527D01*
X049142Y034625D02*
X049685Y034625D01*
X049728Y034724D02*
X049142Y034724D01*
X050100Y034724D02*
X050200Y034724D01*
X050200Y034625D02*
X050100Y034625D01*
X050100Y034527D02*
X050200Y034527D01*
X050200Y034428D02*
X050100Y034428D01*
X050100Y034330D02*
X050200Y034330D01*
X050200Y034231D02*
X050100Y034231D01*
X050100Y034133D02*
X050200Y034133D01*
X050200Y033880D02*
X050615Y033880D01*
X050615Y033221D01*
X050605Y033183D01*
X050585Y033148D01*
X050557Y033121D01*
X050523Y033101D01*
X050485Y033091D01*
X050200Y033091D01*
X050200Y033880D01*
X050200Y033837D02*
X050100Y033837D01*
X050100Y033739D02*
X050200Y033739D01*
X050200Y033640D02*
X050100Y033640D01*
X050100Y033542D02*
X050200Y033542D01*
X050200Y033443D02*
X050100Y033443D01*
X050100Y033345D02*
X050200Y033345D01*
X050200Y033246D02*
X050100Y033246D01*
X050100Y033148D02*
X050200Y033148D01*
X050584Y033148D02*
X052865Y033148D01*
X052835Y033246D02*
X050615Y033246D01*
X050615Y033345D02*
X052835Y033345D01*
X052835Y033443D02*
X050615Y033443D01*
X050615Y033542D02*
X052835Y033542D01*
X052835Y033640D02*
X050615Y033640D01*
X050615Y033739D02*
X052835Y033739D01*
X052835Y033837D02*
X050615Y033837D01*
X050615Y034034D02*
X052835Y034034D01*
X052835Y034133D02*
X050615Y034133D01*
X050615Y034231D02*
X052835Y034231D01*
X052835Y034330D02*
X050615Y034330D01*
X050615Y034428D02*
X052835Y034428D01*
X052835Y034527D02*
X050615Y034527D01*
X050615Y034625D02*
X052835Y034625D01*
X052878Y034724D02*
X050572Y034724D01*
X050611Y035216D02*
X052838Y035216D01*
X052775Y035315D02*
X050675Y035315D01*
X050675Y035413D02*
X052775Y035413D01*
X052775Y035512D02*
X050675Y035512D01*
X052446Y037186D02*
X052546Y037186D01*
X052546Y037285D02*
X052446Y037285D01*
X052446Y037383D02*
X052546Y037383D01*
X052546Y037482D02*
X052446Y037482D01*
X052446Y037580D02*
X052546Y037580D01*
X052546Y037679D02*
X052446Y037679D01*
X052446Y037777D02*
X051318Y037777D01*
X051489Y037876D02*
X051862Y037876D01*
X051893Y037974D02*
X051588Y037974D01*
X051686Y038073D02*
X051942Y038073D01*
X052016Y038171D02*
X051785Y038171D01*
X051883Y038270D02*
X052128Y038270D01*
X052195Y039156D02*
X048038Y039156D01*
X048035Y039152D02*
X048065Y039196D01*
X048085Y039245D01*
X048095Y039297D01*
X048095Y039314D01*
X047561Y039314D01*
X047561Y039055D01*
X047561Y038939D01*
X048095Y038939D01*
X048095Y038956D01*
X048085Y039008D01*
X048065Y039057D01*
X048035Y039100D01*
X048009Y039126D01*
X048035Y039152D01*
X048064Y039058D02*
X051641Y039058D01*
X051526Y038959D02*
X048095Y038959D01*
X048087Y038861D02*
X051428Y038861D01*
X051329Y038762D02*
X048038Y038762D01*
X048064Y038664D02*
X051231Y038664D01*
X051132Y038565D02*
X048095Y038565D01*
X047561Y038565D02*
X047543Y038565D01*
X047543Y038664D02*
X047561Y038664D01*
X047561Y038762D02*
X047543Y038762D01*
X047543Y038861D02*
X047561Y038861D01*
X047561Y038959D02*
X047543Y038959D01*
X047543Y039058D02*
X047561Y039058D01*
X047561Y039156D02*
X047543Y039156D01*
X047543Y039255D02*
X047561Y039255D01*
X047561Y039353D02*
X047543Y039353D01*
X047543Y039452D02*
X047561Y039452D01*
X047561Y039550D02*
X047543Y039550D01*
X047543Y039649D02*
X047561Y039649D01*
X047561Y039747D02*
X047543Y039747D01*
X047543Y039846D02*
X047561Y039846D01*
X047561Y039944D02*
X047543Y039944D01*
X047543Y040043D02*
X047561Y040043D01*
X048038Y039944D02*
X051880Y039944D01*
X051880Y039942D02*
X051858Y039860D01*
X051847Y039783D01*
X052446Y039783D01*
X052446Y040382D01*
X052369Y040372D01*
X052287Y040350D01*
X052208Y040317D01*
X052135Y040274D01*
X052067Y040222D01*
X052007Y040162D01*
X051955Y040095D01*
X051912Y040021D01*
X051880Y039942D01*
X051856Y039846D02*
X048064Y039846D01*
X048095Y039747D02*
X052446Y039747D01*
X052446Y039846D02*
X052546Y039846D01*
X052546Y039783D02*
X052546Y040382D01*
X052624Y040372D01*
X052706Y040350D01*
X052785Y040317D01*
X052858Y040274D01*
X052926Y040222D01*
X052986Y040162D01*
X053038Y040095D01*
X053081Y040021D01*
X053113Y039942D01*
X053135Y039860D01*
X053145Y039783D01*
X052546Y039783D01*
X052546Y039747D02*
X054446Y039747D01*
X054446Y039783D02*
X053847Y039783D01*
X053858Y039860D01*
X053880Y039942D01*
X053912Y040021D01*
X053955Y040095D01*
X054007Y040162D01*
X054067Y040222D01*
X054135Y040274D01*
X054208Y040317D01*
X054287Y040350D01*
X054369Y040372D01*
X054446Y040382D01*
X054446Y039783D01*
X054446Y039846D02*
X054546Y039846D01*
X054546Y039944D02*
X054446Y039944D01*
X054446Y040043D02*
X054546Y040043D01*
X054546Y040141D02*
X054446Y040141D01*
X054446Y040240D02*
X054546Y040240D01*
X054546Y040338D02*
X054446Y040338D01*
X054260Y040338D02*
X052733Y040338D01*
X052546Y040338D02*
X052446Y040338D01*
X052446Y040240D02*
X052546Y040240D01*
X052546Y040141D02*
X052446Y040141D01*
X052446Y040043D02*
X052546Y040043D01*
X052546Y039944D02*
X052446Y039944D01*
X052260Y040338D02*
X050113Y040338D01*
X050015Y040240D02*
X052089Y040240D01*
X051991Y040141D02*
X049846Y040141D01*
X050212Y040437D02*
X055058Y040437D01*
X055058Y040535D02*
X050310Y040535D01*
X050409Y040634D02*
X055058Y040634D01*
X055058Y040732D02*
X050507Y040732D01*
X050603Y040831D02*
X055058Y040831D01*
X055058Y040929D02*
X050644Y040929D01*
X050658Y041028D02*
X055058Y041028D01*
X055058Y041126D02*
X050658Y041126D01*
X050658Y041225D02*
X055058Y041225D01*
X055058Y041323D02*
X052644Y041323D01*
X052722Y041422D02*
X055058Y041422D01*
X055058Y041520D02*
X052722Y041520D01*
X052722Y041619D02*
X055058Y041619D01*
X055058Y041717D02*
X052722Y041717D01*
X052722Y041816D02*
X055058Y041816D01*
X055058Y041914D02*
X052722Y041914D01*
X052722Y042013D02*
X055058Y042013D01*
X055058Y042111D02*
X052722Y042111D01*
X052679Y042210D02*
X055058Y042210D01*
X055058Y042308D02*
X052647Y042308D01*
X052662Y042407D02*
X055058Y042407D01*
X055058Y042505D02*
X052662Y042505D01*
X052662Y042604D02*
X055058Y042604D01*
X055058Y042702D02*
X052306Y042702D01*
X052306Y042801D02*
X052206Y042801D01*
X052206Y042720D02*
X052053Y042720D01*
X052053Y042620D01*
X052206Y042620D01*
X052206Y042720D01*
X052206Y042702D02*
X052053Y042702D01*
X052206Y042899D02*
X052306Y042899D01*
X052306Y042998D02*
X052247Y042998D01*
X052247Y043096D02*
X052306Y043096D01*
X052344Y043195D02*
X052247Y043195D01*
X052247Y043293D02*
X052344Y043293D01*
X052344Y043392D02*
X055058Y043392D01*
X055058Y043490D02*
X052643Y043490D01*
X052643Y043589D02*
X055058Y043589D01*
X055058Y043687D02*
X052643Y043687D01*
X052612Y043786D02*
X055058Y043786D01*
X055058Y043884D02*
X052291Y043884D01*
X052329Y043983D02*
X055058Y043983D01*
X055058Y044081D02*
X052329Y044081D01*
X052329Y044180D02*
X055058Y044180D01*
X055058Y044278D02*
X052329Y044278D01*
X052329Y044377D02*
X055058Y044377D01*
X055058Y044475D02*
X052329Y044475D01*
X052329Y044574D02*
X055058Y044574D01*
X055058Y044672D02*
X052745Y044672D01*
X052821Y044771D02*
X055058Y044771D01*
X055058Y044869D02*
X052821Y044869D01*
X052821Y044968D02*
X055058Y044968D01*
X055058Y045066D02*
X052821Y045066D01*
X052821Y045165D02*
X055058Y045165D01*
X055058Y045263D02*
X052821Y045263D01*
X052821Y045362D02*
X055058Y045362D01*
X055058Y045460D02*
X052821Y045460D01*
X052821Y045559D02*
X055058Y045559D01*
X055058Y045657D02*
X052821Y045657D01*
X052821Y045756D02*
X055058Y045756D01*
X055058Y045854D02*
X052821Y045854D01*
X052821Y045953D02*
X055058Y045953D01*
X055058Y046051D02*
X052821Y046051D01*
X052805Y046150D02*
X055058Y046150D01*
X055058Y046248D02*
X052805Y046248D01*
X052805Y046347D02*
X055058Y046347D01*
X055058Y046445D02*
X052805Y046445D01*
X052805Y046544D02*
X055058Y046544D01*
X055058Y046642D02*
X052770Y046642D01*
X052727Y046741D02*
X055058Y046741D01*
X055058Y046839D02*
X052628Y046839D01*
X052593Y046874D02*
X052593Y046874D01*
X052530Y046938D02*
X055058Y046938D01*
X052344Y043786D02*
X052247Y043786D01*
X052247Y043687D02*
X052344Y043687D01*
X052344Y043589D02*
X052247Y043589D01*
X052247Y043490D02*
X052344Y043490D01*
X052643Y043293D02*
X055058Y043293D01*
X055058Y043195D02*
X052643Y043195D01*
X052635Y043096D02*
X055058Y043096D01*
X055058Y042998D02*
X052659Y042998D01*
X052662Y042899D02*
X055058Y042899D01*
X055058Y042801D02*
X052662Y042801D01*
X051121Y042801D02*
X050694Y042801D01*
X050694Y042720D02*
X050694Y042985D01*
X050683Y043023D01*
X050664Y043057D01*
X050654Y043067D01*
X050664Y043084D01*
X050674Y043122D01*
X050674Y043369D01*
X050376Y043369D01*
X050376Y043115D01*
X050338Y043115D01*
X050338Y042720D01*
X050694Y042720D01*
X050694Y042604D02*
X051121Y042604D01*
X051121Y042702D02*
X050338Y042702D01*
X050338Y042801D02*
X050238Y042801D01*
X050238Y042899D02*
X050338Y042899D01*
X050338Y042998D02*
X050279Y042998D01*
X050279Y043096D02*
X050338Y043096D01*
X050376Y043195D02*
X050279Y043195D01*
X050279Y043293D02*
X050376Y043293D01*
X050376Y043392D02*
X051141Y043392D01*
X051141Y043490D02*
X050674Y043490D01*
X050674Y043589D02*
X051141Y043589D01*
X051141Y043687D02*
X050674Y043687D01*
X050644Y043786D02*
X051146Y043786D01*
X051245Y043884D02*
X050323Y043884D01*
X050360Y043983D02*
X051515Y043983D01*
X051515Y044081D02*
X050360Y044081D01*
X050360Y044180D02*
X051503Y044180D01*
X051404Y044278D02*
X050360Y044278D01*
X050360Y044377D02*
X051306Y044377D01*
X051207Y044475D02*
X050360Y044475D01*
X050360Y044574D02*
X051099Y044574D01*
X051000Y044672D02*
X050776Y044672D01*
X050852Y044771D02*
X050983Y044771D01*
X050983Y044869D02*
X050852Y044869D01*
X050852Y044968D02*
X050983Y044968D01*
X050983Y045066D02*
X050852Y045066D01*
X050852Y045165D02*
X050983Y045165D01*
X050983Y045263D02*
X050852Y045263D01*
X050852Y045362D02*
X051010Y045362D01*
X051039Y045460D02*
X050852Y045460D01*
X050852Y045559D02*
X050983Y045559D01*
X050983Y045657D02*
X050852Y045657D01*
X050852Y045756D02*
X050983Y045756D01*
X050983Y045854D02*
X050852Y045854D01*
X050852Y045953D02*
X050983Y045953D01*
X050983Y046051D02*
X050852Y046051D01*
X049015Y046051D02*
X048614Y046051D01*
X048516Y045953D02*
X049015Y045953D01*
X049015Y045854D02*
X048417Y045854D01*
X048319Y045756D02*
X049015Y045756D01*
X049015Y045657D02*
X048220Y045657D01*
X048122Y045559D02*
X049015Y045559D01*
X049070Y045460D02*
X048023Y045460D01*
X047865Y045362D02*
X049041Y045362D01*
X049015Y045263D02*
X041523Y045263D01*
X041424Y045165D02*
X043588Y045165D01*
X043542Y045119D02*
X043542Y043764D01*
X043665Y043641D01*
X044430Y043641D01*
X044510Y043720D01*
X044747Y043720D01*
X044747Y044019D01*
X044844Y044019D01*
X044844Y043720D01*
X045091Y043720D01*
X045129Y043731D01*
X045163Y043750D01*
X045191Y043778D01*
X045211Y043813D01*
X045221Y043851D01*
X045221Y044019D01*
X044844Y044019D01*
X044844Y044116D01*
X045218Y044116D01*
X045299Y044034D01*
X046024Y044034D01*
X046147Y044158D01*
X046147Y044725D01*
X046024Y044848D01*
X045299Y044848D01*
X045281Y044830D01*
X045281Y045099D01*
X045158Y045222D01*
X044450Y045222D01*
X044430Y045242D01*
X043665Y045242D01*
X043542Y045119D01*
X043542Y045066D02*
X041326Y045066D01*
X041227Y044968D02*
X043542Y044968D01*
X043542Y044869D02*
X041129Y044869D01*
X041030Y044771D02*
X043542Y044771D01*
X043542Y044672D02*
X040932Y044672D01*
X040833Y044574D02*
X043542Y044574D01*
X043542Y044475D02*
X037192Y044475D01*
X037093Y044377D02*
X043542Y044377D01*
X043542Y044278D02*
X036995Y044278D01*
X036896Y044180D02*
X043542Y044180D01*
X043542Y044081D02*
X036798Y044081D01*
X036699Y043983D02*
X043542Y043983D01*
X043542Y043884D02*
X036666Y043884D01*
X036666Y043786D02*
X043542Y043786D01*
X043619Y043687D02*
X036666Y043687D01*
X036666Y043589D02*
X039754Y043589D01*
X039728Y043578D02*
X039671Y043521D01*
X039647Y043537D01*
X039598Y043557D01*
X039546Y043568D01*
X039529Y043568D01*
X039529Y043033D01*
X039511Y043033D01*
X039511Y043015D01*
X039252Y043015D01*
X039252Y042722D01*
X039262Y042670D01*
X039282Y042621D01*
X039312Y042578D01*
X039349Y042540D01*
X039393Y042511D01*
X039442Y042491D01*
X039494Y042480D01*
X039511Y042480D01*
X039511Y043015D01*
X039529Y043015D01*
X039529Y042480D01*
X039546Y042480D01*
X039598Y042491D01*
X039647Y042511D01*
X039671Y042527D01*
X039728Y042470D01*
X039849Y042420D01*
X039979Y042420D01*
X040100Y042470D01*
X040111Y042481D01*
X040122Y042470D01*
X040242Y042420D01*
X040373Y042420D01*
X040493Y042470D01*
X040504Y042481D01*
X040515Y042470D01*
X040636Y042420D01*
X040766Y042420D01*
X040887Y042470D01*
X040898Y042481D01*
X040909Y042470D01*
X041030Y042420D01*
X041160Y042420D01*
X041281Y042470D01*
X041292Y042481D01*
X041303Y042470D01*
X041423Y042420D01*
X041554Y042420D01*
X041674Y042470D01*
X041685Y042481D01*
X041696Y042470D01*
X041733Y042455D01*
X041691Y042353D01*
X041691Y042199D01*
X041750Y042056D01*
X041859Y041947D01*
X042002Y041888D01*
X042156Y041888D01*
X042299Y041947D01*
X042408Y042056D01*
X042466Y042196D01*
X042473Y042203D01*
X042479Y042196D01*
X042538Y042056D01*
X042647Y041947D01*
X042789Y041888D01*
X042944Y041888D01*
X043086Y041947D01*
X043196Y042056D01*
X043255Y042199D01*
X043255Y042353D01*
X043212Y042455D01*
X043249Y042470D01*
X043260Y042481D01*
X043271Y042470D01*
X043392Y042420D01*
X043522Y042420D01*
X043643Y042470D01*
X043654Y042481D01*
X043665Y042470D01*
X043786Y042420D01*
X043916Y042420D01*
X044037Y042470D01*
X044048Y042481D01*
X044059Y042470D01*
X044179Y042420D01*
X044310Y042420D01*
X044430Y042470D01*
X044441Y042481D01*
X044452Y042470D01*
X044573Y042420D01*
X044703Y042420D01*
X044824Y042470D01*
X044835Y042481D01*
X044846Y042470D01*
X044967Y042420D01*
X045097Y042420D01*
X045218Y042470D01*
X045229Y042481D01*
X045240Y042470D01*
X045277Y042455D01*
X045234Y042353D01*
X045234Y042199D01*
X045293Y042056D01*
X045403Y041947D01*
X045545Y041888D01*
X045700Y041888D01*
X045842Y041947D01*
X045951Y042056D01*
X046010Y042196D01*
X046099Y042286D01*
X046149Y042407D01*
X046149Y043090D01*
X046147Y043094D01*
X046147Y043365D01*
X046097Y043485D01*
X046005Y043578D01*
X045885Y043628D01*
X045754Y043628D01*
X045633Y043578D01*
X045622Y043567D01*
X045611Y043578D01*
X045491Y043628D01*
X045360Y043628D01*
X045240Y043578D01*
X045229Y043567D01*
X045218Y043578D01*
X045097Y043628D01*
X044967Y043628D01*
X044846Y043578D01*
X044835Y043567D01*
X044824Y043578D01*
X044703Y043628D01*
X044573Y043628D01*
X044452Y043578D01*
X044441Y043567D01*
X044430Y043578D01*
X044310Y043628D01*
X044179Y043628D01*
X044059Y043578D01*
X044048Y043567D01*
X044037Y043578D01*
X043916Y043628D01*
X043786Y043628D01*
X043665Y043578D01*
X043654Y043567D01*
X043643Y043578D01*
X043522Y043628D01*
X043392Y043628D01*
X043271Y043578D01*
X043260Y043567D01*
X043249Y043578D01*
X043129Y043628D01*
X042998Y043628D01*
X042878Y043578D01*
X042867Y043567D01*
X042856Y043578D01*
X042735Y043628D01*
X042604Y043628D01*
X042484Y043578D01*
X042473Y043567D01*
X042462Y043578D01*
X042341Y043628D01*
X042211Y043628D01*
X042090Y043578D01*
X042079Y043567D01*
X042068Y043578D01*
X041948Y043628D01*
X041817Y043628D01*
X041696Y043578D01*
X041685Y043567D01*
X041674Y043578D01*
X041554Y043628D01*
X041423Y043628D01*
X041303Y043578D01*
X041292Y043567D01*
X041281Y043578D01*
X041160Y043628D01*
X041030Y043628D01*
X040909Y043578D01*
X040898Y043567D01*
X040887Y043578D01*
X040766Y043628D01*
X040636Y043628D01*
X040515Y043578D01*
X040504Y043567D01*
X040493Y043578D01*
X040373Y043628D01*
X040242Y043628D01*
X040122Y043578D01*
X040111Y043567D01*
X040100Y043578D01*
X039979Y043628D01*
X039849Y043628D01*
X039728Y043578D01*
X039511Y043568D02*
X039494Y043568D01*
X039442Y043557D01*
X039393Y043537D01*
X039349Y043508D01*
X039312Y043471D01*
X039282Y043427D01*
X039262Y043378D01*
X039252Y043326D01*
X039252Y043033D01*
X039511Y043033D01*
X039511Y043568D01*
X039511Y043490D02*
X039529Y043490D01*
X039529Y043392D02*
X039511Y043392D01*
X039511Y043293D02*
X039529Y043293D01*
X039529Y043195D02*
X039511Y043195D01*
X039511Y043096D02*
X039529Y043096D01*
X039529Y042998D02*
X039511Y042998D01*
X039511Y042899D02*
X039529Y042899D01*
X039529Y042801D02*
X039511Y042801D01*
X039511Y042702D02*
X039529Y042702D01*
X039529Y042604D02*
X039511Y042604D01*
X039511Y042505D02*
X039529Y042505D01*
X039633Y042505D02*
X039693Y042505D01*
X039407Y042505D02*
X036666Y042505D01*
X036666Y042407D02*
X041713Y042407D01*
X041691Y042308D02*
X036666Y042308D01*
X036666Y042210D02*
X041691Y042210D01*
X041727Y042111D02*
X036666Y042111D01*
X036666Y042013D02*
X041794Y042013D01*
X041939Y041914D02*
X036666Y041914D01*
X036666Y041816D02*
X049153Y041816D01*
X049153Y041914D02*
X045763Y041914D01*
X045908Y042013D02*
X049153Y042013D01*
X049153Y042111D02*
X045974Y042111D01*
X046023Y042210D02*
X049196Y042210D01*
X049153Y042308D02*
X046108Y042308D01*
X046149Y042407D02*
X049153Y042407D01*
X049153Y042505D02*
X046149Y042505D01*
X046149Y042604D02*
X049153Y042604D01*
X049153Y042702D02*
X046149Y042702D01*
X046149Y042801D02*
X049153Y042801D01*
X049153Y042899D02*
X046149Y042899D01*
X046149Y042998D02*
X049153Y042998D01*
X049172Y043096D02*
X046147Y043096D01*
X046147Y043195D02*
X049172Y043195D01*
X049172Y043293D02*
X046147Y043293D01*
X046136Y043392D02*
X049172Y043392D01*
X049172Y043490D02*
X046093Y043490D01*
X045979Y043589D02*
X049172Y043589D01*
X049172Y043687D02*
X044476Y043687D01*
X044479Y043589D02*
X044404Y043589D01*
X044085Y043589D02*
X044010Y043589D01*
X043691Y043589D02*
X043617Y043589D01*
X043297Y043589D02*
X043223Y043589D01*
X042904Y043589D02*
X042829Y043589D01*
X042510Y043589D02*
X042436Y043589D01*
X042116Y043589D02*
X042042Y043589D01*
X041723Y043589D02*
X041648Y043589D01*
X041329Y043589D02*
X041255Y043589D01*
X040935Y043589D02*
X040861Y043589D01*
X040542Y043589D02*
X040467Y043589D01*
X040148Y043589D02*
X040073Y043589D01*
X039331Y043490D02*
X036666Y043490D01*
X036666Y043392D02*
X039268Y043392D01*
X039252Y043293D02*
X036666Y043293D01*
X036666Y043195D02*
X039252Y043195D01*
X039252Y043096D02*
X036666Y043096D01*
X036666Y042998D02*
X039252Y042998D01*
X039252Y042899D02*
X036666Y042899D01*
X036666Y042801D02*
X039252Y042801D01*
X039256Y042702D02*
X036666Y042702D01*
X036666Y042604D02*
X039294Y042604D01*
X038234Y041500D02*
X038190Y041529D01*
X038142Y041550D01*
X038090Y041560D01*
X037797Y041560D01*
X037797Y041301D01*
X038331Y041301D01*
X038331Y041318D01*
X038321Y041370D01*
X038301Y041419D01*
X038272Y041463D01*
X038234Y041500D01*
X038204Y041520D02*
X041280Y041520D01*
X041241Y041422D02*
X038299Y041422D01*
X038331Y041323D02*
X041241Y041323D01*
X041241Y041225D02*
X038323Y041225D01*
X038299Y041126D02*
X041241Y041126D01*
X041241Y041028D02*
X038365Y041028D01*
X038391Y040929D02*
X041241Y040929D01*
X041241Y040831D02*
X038391Y040831D01*
X038350Y040732D02*
X041241Y040732D01*
X041241Y040634D02*
X038365Y040634D01*
X038391Y040535D02*
X041241Y040535D01*
X041241Y040437D02*
X038390Y040437D01*
X038350Y040338D02*
X041241Y040338D01*
X041241Y040240D02*
X038365Y040240D01*
X038391Y040141D02*
X041241Y040141D01*
X041241Y040043D02*
X038390Y040043D01*
X038350Y039944D02*
X041241Y039944D01*
X041241Y039846D02*
X038365Y039846D01*
X038391Y039747D02*
X041241Y039747D01*
X041241Y039649D02*
X038390Y039649D01*
X038349Y039550D02*
X041241Y039550D01*
X041241Y039452D02*
X038365Y039452D01*
X038391Y039353D02*
X041241Y039353D01*
X041241Y039255D02*
X038390Y039255D01*
X038349Y039156D02*
X041241Y039156D01*
X041241Y039058D02*
X038365Y039058D01*
X038391Y038959D02*
X041241Y038959D01*
X041241Y038861D02*
X038390Y038861D01*
X038349Y038762D02*
X041241Y038762D01*
X041241Y038664D02*
X038366Y038664D01*
X038391Y038565D02*
X041241Y038565D01*
X041241Y038467D02*
X038713Y038467D01*
X038875Y038368D02*
X041241Y038368D01*
X038699Y037580D02*
X038349Y037580D01*
X038390Y037679D02*
X038549Y037679D01*
X038481Y037777D02*
X038391Y037777D01*
X037227Y037580D02*
X036666Y037580D01*
X036666Y037482D02*
X037210Y037482D01*
X037184Y037383D02*
X036666Y037383D01*
X036666Y037285D02*
X037186Y037285D01*
X037227Y037186D02*
X036666Y037186D01*
X036944Y037088D02*
X037274Y037088D01*
X037244Y036989D02*
X037104Y036989D01*
X037186Y037679D02*
X036666Y037679D01*
X036666Y037777D02*
X037184Y037777D01*
X037210Y037876D02*
X036666Y037876D01*
X036666Y037974D02*
X037227Y037974D01*
X037186Y038073D02*
X036666Y038073D01*
X036666Y038171D02*
X037184Y038171D01*
X037210Y038270D02*
X036666Y038270D01*
X036666Y038368D02*
X037227Y038368D01*
X037186Y038467D02*
X036666Y038467D01*
X036666Y038565D02*
X037184Y038565D01*
X037210Y038664D02*
X036666Y038664D01*
X036666Y038762D02*
X037226Y038762D01*
X037186Y038861D02*
X036666Y038861D01*
X036666Y038959D02*
X037184Y038959D01*
X037210Y039058D02*
X036666Y039058D01*
X036666Y039156D02*
X037226Y039156D01*
X037185Y039255D02*
X036666Y039255D01*
X036666Y039353D02*
X037184Y039353D01*
X037210Y039452D02*
X036666Y039452D01*
X036666Y039550D02*
X037226Y039550D01*
X037185Y039649D02*
X036666Y039649D01*
X036666Y039747D02*
X037184Y039747D01*
X037210Y039846D02*
X036666Y039846D01*
X036666Y039944D02*
X037226Y039944D01*
X037185Y040043D02*
X036666Y040043D01*
X036666Y040141D02*
X037184Y040141D01*
X037210Y040240D02*
X036666Y040240D01*
X036666Y040338D02*
X037226Y040338D01*
X037185Y040437D02*
X036666Y040437D01*
X036666Y040535D02*
X037184Y040535D01*
X037211Y040634D02*
X036666Y040634D01*
X036666Y040732D02*
X037226Y040732D01*
X037185Y040831D02*
X036666Y040831D01*
X036666Y040929D02*
X037184Y040929D01*
X037211Y041028D02*
X036666Y041028D01*
X036666Y041126D02*
X037276Y041126D01*
X037252Y041225D02*
X036666Y041225D01*
X036666Y041323D02*
X037245Y041323D01*
X037277Y041422D02*
X036666Y041422D01*
X036666Y041520D02*
X037371Y041520D01*
X037779Y041520D02*
X037797Y041520D01*
X037797Y041422D02*
X037779Y041422D01*
X037779Y041323D02*
X037797Y041323D01*
X036666Y041619D02*
X047208Y041619D01*
X047040Y041520D02*
X044059Y041520D01*
X044098Y041422D02*
X046975Y041422D01*
X046948Y041323D02*
X044098Y041323D01*
X044098Y041225D02*
X046949Y041225D01*
X046989Y041126D02*
X044098Y041126D01*
X044098Y041028D02*
X046975Y041028D01*
X046948Y040929D02*
X044098Y040929D01*
X044098Y040831D02*
X046949Y040831D01*
X046990Y040732D02*
X044098Y040732D01*
X044098Y040634D02*
X046974Y040634D01*
X046948Y040535D02*
X044098Y040535D01*
X044098Y040437D02*
X046949Y040437D01*
X046990Y040338D02*
X044098Y040338D01*
X044098Y040240D02*
X047040Y040240D01*
X047009Y040141D02*
X044098Y040141D01*
X044098Y040043D02*
X047016Y040043D01*
X047065Y039944D02*
X044098Y039944D01*
X044098Y039846D02*
X047040Y039846D01*
X047009Y039747D02*
X044098Y039747D01*
X044098Y039649D02*
X047016Y039649D01*
X047065Y039550D02*
X044098Y039550D01*
X044098Y039452D02*
X047039Y039452D01*
X047009Y039353D02*
X044098Y039353D01*
X044098Y039255D02*
X047016Y039255D01*
X048038Y039550D02*
X051872Y039550D01*
X051852Y039649D02*
X048087Y039649D01*
X048064Y039452D02*
X051909Y039452D01*
X051968Y039353D02*
X048095Y039353D01*
X048087Y039255D02*
X052055Y039255D01*
X051925Y040043D02*
X048087Y040043D01*
X048155Y040929D02*
X049658Y040929D01*
X049756Y041028D02*
X048129Y041028D01*
X048114Y041126D02*
X049855Y041126D01*
X049918Y041225D02*
X048155Y041225D01*
X048155Y041323D02*
X049231Y041323D01*
X049153Y041422D02*
X048129Y041422D01*
X048063Y041520D02*
X049153Y041520D01*
X049153Y041619D02*
X047895Y041619D01*
X049153Y041717D02*
X036666Y041717D01*
X041621Y045362D02*
X042691Y045362D01*
X042533Y045460D02*
X041720Y045460D01*
X041818Y045559D02*
X042444Y045559D01*
X042403Y045657D02*
X041917Y045657D01*
X042015Y045756D02*
X042377Y045756D01*
X042377Y045854D02*
X042114Y045854D01*
X042212Y045953D02*
X042391Y045953D01*
X042432Y046051D02*
X042311Y046051D01*
X042409Y046150D02*
X042504Y046150D01*
X042508Y046248D02*
X042621Y046248D01*
X042606Y046347D02*
X046810Y046347D01*
X046746Y046445D02*
X042705Y046445D01*
X042803Y046544D02*
X046711Y046544D01*
X046711Y046642D02*
X042902Y046642D01*
X043000Y046741D02*
X046729Y046741D01*
X046729Y046839D02*
X043099Y046839D01*
X043197Y046938D02*
X046754Y046938D01*
X045216Y045165D02*
X049015Y045165D01*
X049015Y045066D02*
X045281Y045066D01*
X045281Y044968D02*
X049015Y044968D01*
X049015Y044869D02*
X045281Y044869D01*
X045253Y044081D02*
X044844Y044081D01*
X044844Y043983D02*
X044747Y043983D01*
X044747Y043884D02*
X044844Y043884D01*
X044844Y043786D02*
X044747Y043786D01*
X044798Y043589D02*
X044872Y043589D01*
X045192Y043589D02*
X045266Y043589D01*
X045195Y043786D02*
X049178Y043786D01*
X049276Y043884D02*
X045221Y043884D01*
X045221Y043983D02*
X049546Y043983D01*
X049546Y044081D02*
X046071Y044081D01*
X046147Y044180D02*
X049534Y044180D01*
X049436Y044278D02*
X046147Y044278D01*
X046147Y044377D02*
X049337Y044377D01*
X049239Y044475D02*
X046147Y044475D01*
X046147Y044574D02*
X049130Y044574D01*
X049032Y044672D02*
X046147Y044672D01*
X046102Y044771D02*
X049015Y044771D01*
X050279Y043786D02*
X050376Y043786D01*
X050376Y043687D02*
X050279Y043687D01*
X050279Y043589D02*
X050376Y043589D01*
X050376Y043490D02*
X050279Y043490D01*
X050674Y043293D02*
X051141Y043293D01*
X051141Y043195D02*
X050674Y043195D01*
X050667Y043096D02*
X051141Y043096D01*
X051121Y042998D02*
X050690Y042998D01*
X050694Y042899D02*
X051121Y042899D01*
X051121Y042505D02*
X050694Y042505D01*
X050694Y042407D02*
X051121Y042407D01*
X051121Y042308D02*
X050679Y042308D01*
X050710Y042210D02*
X051165Y042210D01*
X051121Y042111D02*
X050754Y042111D01*
X050754Y042013D02*
X051121Y042013D01*
X051121Y041914D02*
X050754Y041914D01*
X050754Y041816D02*
X051121Y041816D01*
X051121Y041717D02*
X050754Y041717D01*
X050754Y041619D02*
X051121Y041619D01*
X051121Y041520D02*
X050754Y041520D01*
X050754Y041422D02*
X051121Y041422D01*
X051200Y041323D02*
X050675Y041323D01*
X052904Y040240D02*
X054089Y040240D01*
X053991Y040141D02*
X053002Y040141D01*
X053068Y040043D02*
X053925Y040043D01*
X053880Y039944D02*
X053112Y039944D01*
X053137Y039846D02*
X053856Y039846D01*
X053852Y039649D02*
X053141Y039649D01*
X053120Y039550D02*
X053872Y039550D01*
X053909Y039452D02*
X053084Y039452D01*
X053139Y039353D02*
X053025Y039353D01*
X053014Y039255D02*
X052938Y039255D01*
X052916Y039156D02*
X052798Y039156D01*
X053854Y039353D02*
X053968Y039353D01*
X053979Y039255D02*
X054055Y039255D01*
X054077Y039156D02*
X054195Y039156D01*
X054130Y039058D02*
X055058Y039058D01*
X055058Y039156D02*
X054798Y039156D01*
X054938Y039255D02*
X055058Y039255D01*
X055058Y039353D02*
X055025Y039353D01*
X055058Y038959D02*
X054171Y038959D01*
X054206Y038861D02*
X055058Y038861D01*
X055058Y038762D02*
X054206Y038762D01*
X054206Y038664D02*
X055058Y038664D01*
X055058Y038565D02*
X054196Y038565D01*
X054155Y038467D02*
X055058Y038467D01*
X055058Y038368D02*
X054636Y038368D01*
X054546Y038368D02*
X054446Y038368D01*
X054356Y038368D02*
X054114Y038368D01*
X054128Y038270D02*
X054037Y038270D01*
X054016Y038171D02*
X053939Y038171D01*
X053942Y038073D02*
X053758Y038073D01*
X054446Y038073D02*
X054546Y038073D01*
X054546Y038171D02*
X054446Y038171D01*
X054446Y038270D02*
X054546Y038270D01*
X054546Y037974D02*
X054446Y037974D01*
X054446Y037876D02*
X054546Y037876D01*
X054864Y038270D02*
X055058Y038270D01*
X055058Y038171D02*
X054977Y038171D01*
X055051Y038073D02*
X055058Y038073D01*
X054546Y039156D02*
X054446Y039156D01*
X054446Y039255D02*
X054546Y039255D01*
X054546Y039353D02*
X054446Y039353D01*
X054446Y039452D02*
X054546Y039452D01*
X054546Y039550D02*
X054446Y039550D01*
X054446Y039649D02*
X054546Y039649D01*
X055002Y040141D02*
X055058Y040141D01*
X055058Y040240D02*
X054904Y040240D01*
X055058Y040338D02*
X054733Y040338D01*
X053350Y034724D02*
X053250Y034724D01*
X053250Y034625D02*
X053350Y034625D01*
X053350Y034527D02*
X053250Y034527D01*
X053250Y034428D02*
X053350Y034428D01*
X053350Y034330D02*
X053250Y034330D01*
X053250Y034231D02*
X053350Y034231D01*
X053350Y034133D02*
X053250Y034133D01*
X055058Y033049D02*
X046147Y033049D01*
X046147Y032951D02*
X055058Y032951D01*
X055058Y032852D02*
X046120Y032852D01*
X046052Y032754D02*
X055058Y032754D01*
X045689Y033837D02*
X045556Y033837D01*
X045296Y033837D02*
X045162Y033837D01*
X044902Y033837D02*
X044768Y033837D01*
X044508Y033837D02*
X044375Y033837D01*
X044114Y033837D02*
X043193Y033837D01*
X042933Y033837D02*
X042800Y033837D01*
X042540Y033837D02*
X042406Y033837D01*
X042146Y033837D02*
X042012Y033837D01*
X041752Y033837D02*
X041619Y033837D01*
X041358Y033837D02*
X040831Y033837D01*
X040571Y033837D02*
X040438Y033837D01*
X040177Y033837D02*
X040044Y033837D01*
X039784Y033837D02*
X039650Y033837D01*
X041086Y033739D02*
X041104Y033739D01*
X041104Y033640D02*
X041086Y033640D01*
X041086Y033542D02*
X041104Y033542D01*
X041104Y033443D02*
X041086Y033443D01*
X041086Y033345D02*
X041104Y033345D01*
X041104Y033246D02*
X041086Y033246D01*
X041086Y033148D02*
X041104Y033148D01*
X041104Y033049D02*
X041086Y033049D01*
X041086Y032951D02*
X041104Y032951D01*
X041104Y032852D02*
X041086Y032852D01*
X041086Y032754D02*
X041104Y032754D01*
X041232Y032754D02*
X041256Y032754D01*
X040958Y032754D02*
X040934Y032754D01*
X043296Y032754D02*
X043320Y032754D01*
X043448Y032754D02*
X043466Y032754D01*
X043466Y032852D02*
X043448Y032852D01*
X043448Y032951D02*
X043466Y032951D01*
X043466Y033049D02*
X043448Y033049D01*
X043448Y033148D02*
X043466Y033148D01*
X043466Y033246D02*
X043448Y033246D01*
X043448Y033345D02*
X043466Y033345D01*
X043466Y033443D02*
X043448Y033443D01*
X043448Y033542D02*
X043466Y033542D01*
X043466Y033640D02*
X043448Y033640D01*
X043448Y033739D02*
X043466Y033739D01*
X043633Y033739D02*
X043674Y033739D01*
X043842Y033739D02*
X043860Y033739D01*
X043860Y033640D02*
X043842Y033640D01*
X043842Y033542D02*
X043860Y033542D01*
X043860Y033443D02*
X043842Y033443D01*
X043842Y033345D02*
X043860Y033345D01*
X043860Y033246D02*
X043842Y033246D01*
X043842Y033148D02*
X043860Y033148D01*
X043860Y033049D02*
X043842Y033049D01*
X043842Y032951D02*
X043860Y032951D01*
X043860Y032852D02*
X043842Y032852D01*
X043842Y032754D02*
X043860Y032754D01*
X043988Y032754D02*
X044012Y032754D01*
X043714Y032754D02*
X043594Y032754D01*
X043007Y041914D02*
X045482Y041914D01*
X045337Y042013D02*
X043152Y042013D01*
X043218Y042111D02*
X045271Y042111D01*
X045234Y042210D02*
X043255Y042210D01*
X043255Y042308D02*
X045234Y042308D01*
X045256Y042407D02*
X043233Y042407D01*
X042726Y041914D02*
X042220Y041914D01*
X042365Y042013D02*
X042581Y042013D01*
X042515Y042111D02*
X042431Y042111D01*
X045585Y043589D02*
X045660Y043589D01*
D48*
X047689Y045819D02*
X048477Y046607D01*
X050445Y046607D01*
X050347Y046508D01*
X050347Y045918D01*
X050445Y046607D02*
X052168Y046607D01*
X052315Y046459D01*
X052315Y046115D01*
X047689Y045819D02*
X042867Y045819D01*
D49*
X021607Y041489D02*
X020524Y041489D01*
D50*
X018359Y039323D02*
X018359Y039126D01*
X018359Y022099D01*
X018260Y022000D01*
X018260Y022099D01*
X018260Y022162D01*
X018162Y022260D01*
X024658Y020918D02*
X011567Y020918D01*
D51*
X011370Y022260D01*
X016685Y022260D01*
X018162Y022260D01*
X020622Y022260D01*
X024559Y022260D01*
X018359Y039323D02*
X020524Y041489D01*
D52*
X050544Y022729D02*
X050571Y022756D01*
X051630Y022756D01*
M02*
