G75*
G70*
%OFA0B0*%
%FSLAX24Y24*%
%IPPOS*%
%LPD*%
%AMOC8*
5,1,8,0,0,1.08239X$1,22.5*
%
%ADD10C,0.1221*%
%ADD11R,0.0906X0.0276*%
%ADD12R,0.0552X0.0631*%
%ADD13C,0.0560*%
%ADD14C,0.0808*%
%ADD15C,0.0780*%
%ADD16OC8,0.0555*%
%ADD17C,0.0555*%
%ADD18C,0.0820*%
%ADD19R,0.0631X0.0552*%
%ADD20R,0.0300X0.0840*%
%ADD21C,0.0800*%
%ADD22OC8,0.0560*%
%ADD23OC8,0.0640*%
%ADD24R,0.0650X0.1150*%
%ADD25R,0.1150X0.0650*%
%ADD26R,0.0670X0.0500*%
%ADD27R,0.0120X0.0290*%
%ADD28R,0.0720X0.0060*%
%ADD29R,0.0985X0.0985*%
%ADD30OC8,0.0985*%
%ADD31C,0.0985*%
%ADD32C,0.0640*%
%ADD33C,0.0560*%
%ADD34C,0.0700*%
%ADD35R,0.0591X0.0434*%
%ADD36OC8,0.1040*%
%ADD37C,0.1528*%
%ADD38C,0.0640*%
%ADD39OC8,0.0670*%
%ADD40C,0.0670*%
%ADD41C,0.0128*%
%ADD42R,0.0634X0.0634*%
%ADD43C,0.0634*%
%ADD44R,0.0512X0.0512*%
%ADD45C,0.0827*%
D10*
X015012Y015898D03*
X043556Y015898D03*
X043556Y056646D03*
X015012Y056646D03*
D11*
X040367Y020093D03*
X040367Y019593D03*
X040367Y019093D03*
X040367Y018593D03*
X042414Y018593D03*
X042414Y019093D03*
X042414Y019593D03*
X042414Y020093D03*
X041922Y014384D03*
X041922Y013884D03*
X041922Y013384D03*
X041922Y012884D03*
X039874Y012884D03*
X039874Y013384D03*
X039874Y013884D03*
X039874Y014384D03*
D12*
X038575Y014815D03*
X038575Y013831D03*
X037906Y013831D03*
X037906Y014815D03*
X037906Y012847D03*
X038575Y012847D03*
X040859Y017768D03*
X041528Y017768D03*
X019973Y006056D03*
X019304Y006056D03*
X019304Y005268D03*
X019973Y005268D03*
X006390Y014717D03*
X005721Y014717D03*
X005721Y015504D03*
X006390Y015504D03*
X006390Y018654D03*
X006390Y019441D03*
X005721Y019441D03*
X005721Y018654D03*
X005721Y022591D03*
X005721Y023378D03*
X006390Y023378D03*
X006390Y022591D03*
X006390Y026528D03*
X006390Y027315D03*
X005721Y027315D03*
X005721Y026528D03*
X005721Y030465D03*
X005721Y031252D03*
X006390Y031252D03*
X006390Y030465D03*
X006390Y034402D03*
X005721Y034402D03*
X005721Y035189D03*
X006390Y035189D03*
X006390Y040307D03*
X005721Y040307D03*
X005721Y041095D03*
X006390Y041095D03*
X010150Y052807D03*
X010819Y052807D03*
X011725Y052807D03*
X012394Y052807D03*
D13*
X040890Y021016D03*
X041890Y021016D03*
D14*
X034894Y017709D03*
X034894Y025583D03*
D15*
X002902Y007925D03*
X004682Y007925D03*
X004682Y010485D03*
X002902Y010485D03*
X033469Y042674D03*
X033469Y043674D03*
X033469Y044674D03*
X033469Y045674D03*
X033469Y046674D03*
X033469Y047674D03*
X033469Y048674D03*
X033469Y049674D03*
X033469Y050674D03*
X033469Y051674D03*
X033469Y052674D03*
X033469Y053674D03*
X039469Y053674D03*
X039469Y052674D03*
X039469Y051674D03*
X039469Y050674D03*
X039469Y049674D03*
X039469Y048674D03*
X039469Y047674D03*
X039469Y046674D03*
X039469Y045674D03*
X039469Y044674D03*
X039469Y043674D03*
X039469Y042674D03*
X037969Y042674D03*
X036969Y042674D03*
X035969Y042674D03*
X034969Y042674D03*
D16*
X041981Y049831D03*
D17*
X041981Y050831D03*
X041981Y051831D03*
X041981Y052831D03*
D18*
X011662Y051136D02*
X010882Y051136D01*
X010882Y049166D02*
X011662Y049166D01*
X011662Y047196D02*
X010882Y047196D01*
X010882Y055076D02*
X011662Y055076D01*
X011662Y057046D02*
X010882Y057046D01*
X029180Y007627D02*
X029180Y006847D01*
X031150Y006847D02*
X031150Y007627D01*
X033117Y007627D02*
X033117Y006847D01*
X035087Y006847D02*
X035087Y007627D01*
X039022Y007627D02*
X039022Y006847D01*
X040992Y006847D02*
X040992Y007627D01*
X042959Y007627D02*
X042959Y006847D01*
X044929Y006847D02*
X044929Y007627D01*
X046896Y007627D02*
X046896Y006847D01*
X048866Y006847D02*
X048866Y007627D01*
X012548Y004683D02*
X011768Y004683D01*
X011768Y002713D02*
X012548Y002713D01*
D19*
X015209Y003063D03*
X015209Y003733D03*
X005859Y010544D03*
X005859Y011213D03*
X010878Y044894D03*
X010878Y045563D03*
X011666Y045563D03*
X011666Y044894D03*
X043162Y013772D03*
X043162Y013103D03*
D20*
X043231Y035554D03*
X043731Y035554D03*
X042731Y035554D03*
X042231Y035554D03*
X041731Y035554D03*
X041231Y035554D03*
X040731Y035554D03*
X040231Y035554D03*
X038613Y035554D03*
X038113Y035554D03*
X037613Y035554D03*
X037113Y035554D03*
X036613Y035554D03*
X036113Y035554D03*
X035613Y035554D03*
X035113Y035554D03*
X035113Y037974D03*
X035613Y037974D03*
X036113Y037974D03*
X036613Y037974D03*
X037113Y037974D03*
X037613Y037974D03*
X038113Y037974D03*
X038613Y037974D03*
X040231Y037974D03*
X040731Y037974D03*
X041231Y037974D03*
X041731Y037974D03*
X042231Y037974D03*
X042731Y037974D03*
X043231Y037974D03*
X043731Y037974D03*
D21*
X021933Y051981D03*
X017933Y051981D03*
X017933Y056981D03*
X021933Y056981D03*
D22*
X022886Y056481D03*
X022886Y052481D03*
X016882Y051989D03*
X016882Y055989D03*
D23*
X047485Y053217D03*
X048485Y053217D03*
X048485Y052217D03*
X047485Y052217D03*
X047485Y051217D03*
X047792Y035693D03*
X047792Y034693D03*
X047792Y033693D03*
X047792Y032693D03*
X047792Y031693D03*
X047792Y030693D03*
X047792Y029693D03*
X047792Y028693D03*
X047792Y027693D03*
X047792Y026693D03*
X047792Y025693D03*
X047792Y024693D03*
X047792Y023693D03*
X047792Y022693D03*
X047792Y021693D03*
X047792Y020693D03*
X047792Y019693D03*
X047792Y018693D03*
X047792Y017693D03*
X047792Y016693D03*
X048792Y016693D03*
X048792Y017693D03*
X048792Y018693D03*
X048792Y019693D03*
X048792Y020693D03*
X048792Y021693D03*
X048792Y022693D03*
X048792Y023693D03*
X048792Y024693D03*
X048792Y025693D03*
X048792Y026693D03*
X048792Y027693D03*
X048792Y028693D03*
X048792Y029693D03*
X048792Y030693D03*
X048792Y031693D03*
X048792Y032693D03*
X048792Y033693D03*
X048792Y034693D03*
X048792Y035693D03*
D24*
X031843Y039717D03*
D25*
X029185Y031449D03*
D26*
X033418Y057133D03*
X033418Y057733D03*
X039619Y057733D03*
X039619Y057133D03*
D27*
X039619Y057433D03*
D28*
X039619Y057433D03*
X033418Y057433D03*
D29*
X026587Y033103D03*
X026587Y024441D03*
X010760Y024441D03*
X010760Y033103D03*
D30*
X010760Y031449D03*
X010760Y040111D03*
D31*
X026587Y040111D03*
X026587Y031449D03*
D32*
X044330Y013156D02*
X044930Y013156D01*
X044930Y012256D02*
X044330Y012256D01*
X044330Y011356D02*
X044930Y011356D01*
D33*
X041496Y011504D02*
X041496Y012024D01*
X040496Y012024D02*
X040496Y011504D01*
D34*
X046115Y010355D03*
X046115Y014355D03*
X016587Y005989D03*
X016587Y001989D03*
X034469Y058024D03*
X038469Y058024D03*
D35*
X018300Y006036D03*
X017433Y005662D03*
X018300Y005288D03*
D36*
X021418Y043926D03*
X022780Y046926D03*
X024764Y043926D03*
X026126Y046926D03*
X028111Y043926D03*
X029473Y046926D03*
D37*
X028792Y045426D03*
X025445Y045426D03*
X022099Y045426D03*
D38*
X026331Y055895D03*
X048485Y051217D03*
D39*
X030170Y056340D03*
D40*
X030170Y057740D03*
D41*
X027787Y054290D02*
X027851Y054226D01*
X027639Y054226D01*
X027490Y054375D01*
X027490Y054587D01*
X027639Y054736D01*
X027851Y054736D01*
X028000Y054587D01*
X028000Y054375D01*
X027851Y054226D01*
X027811Y054322D01*
X027679Y054322D01*
X027586Y054415D01*
X027586Y054547D01*
X027679Y054640D01*
X027811Y054640D01*
X027904Y054547D01*
X027904Y054415D01*
X027811Y054322D01*
X027771Y054418D01*
X027719Y054418D01*
X027682Y054455D01*
X027682Y054507D01*
X027719Y054544D01*
X027771Y054544D01*
X027808Y054507D01*
X027808Y054455D01*
X027771Y054418D01*
X026373Y052875D02*
X026437Y052811D01*
X026225Y052811D01*
X026076Y052960D01*
X026076Y053172D01*
X026225Y053321D01*
X026437Y053321D01*
X026586Y053172D01*
X026586Y052960D01*
X026437Y052811D01*
X026397Y052907D01*
X026265Y052907D01*
X026172Y053000D01*
X026172Y053132D01*
X026265Y053225D01*
X026397Y053225D01*
X026490Y053132D01*
X026490Y053000D01*
X026397Y052907D01*
X026357Y053003D01*
X026305Y053003D01*
X026268Y053040D01*
X026268Y053092D01*
X026305Y053129D01*
X026357Y053129D01*
X026394Y053092D01*
X026394Y053040D01*
X026357Y053003D01*
X024959Y054290D02*
X025023Y054226D01*
X024811Y054226D01*
X024662Y054375D01*
X024662Y054587D01*
X024811Y054736D01*
X025023Y054736D01*
X025172Y054587D01*
X025172Y054375D01*
X025023Y054226D01*
X024983Y054322D01*
X024851Y054322D01*
X024758Y054415D01*
X024758Y054547D01*
X024851Y054640D01*
X024983Y054640D01*
X025076Y054547D01*
X025076Y054415D01*
X024983Y054322D01*
X024943Y054418D01*
X024891Y054418D01*
X024854Y054455D01*
X024854Y054507D01*
X024891Y054544D01*
X024943Y054544D01*
X024980Y054507D01*
X024980Y054455D01*
X024943Y054418D01*
D42*
X049067Y011567D03*
D43*
X049067Y012567D03*
D44*
X004205Y011567D03*
X003378Y011567D03*
D45*
X003802Y013750D03*
X003802Y015750D03*
X003802Y017748D03*
X003802Y019748D03*
X003802Y021747D03*
X003802Y023747D03*
X003802Y025745D03*
X003802Y027745D03*
X003802Y029744D03*
X003802Y031744D03*
X003802Y033742D03*
X003802Y035742D03*
X003802Y037741D03*
X003802Y039741D03*
M02*
