G75*
G70*
%OFA0B0*%
%FSLAX24Y24*%
%IPPOS*%
%LPD*%
%AMOC8*
5,1,8,0,0,1.08239X$1,22.5*
%
%ADD10C,0.0050*%
%ADD11C,0.0080*%
%ADD12C,0.0060*%
%ADD13C,0.0040*%
%ADD14C,0.0160*%
%ADD15R,0.0160X0.0230*%
%ADD16C,0.0070*%
%ADD17C,0.0020*%
%ADD18C,0.0030*%
%ADD19C,0.0320*%
%ADD20R,0.0150X0.0300*%
%ADD21R,0.0150X0.0200*%
%ADD22R,0.1000X0.0200*%
%ADD23R,0.0300X0.0750*%
%ADD24R,0.0200X0.1000*%
%ADD25R,0.0750X0.0300*%
%ADD26R,0.0118X0.0059*%
%ADD27R,0.0118X0.0118*%
D10*
X012682Y003103D02*
X012758Y003028D01*
X012682Y003103D02*
X012682Y003253D01*
X012758Y003328D01*
X012833Y003328D01*
X013133Y003028D01*
X013133Y003328D01*
X013133Y005028D02*
X013133Y005328D01*
X013133Y005178D02*
X012682Y005178D01*
X012833Y005028D01*
X017288Y004130D02*
X017514Y004130D01*
X017589Y004055D01*
X017589Y003754D01*
X017514Y003679D01*
X017288Y003679D01*
X017288Y004130D01*
X017749Y003980D02*
X017899Y004130D01*
X017899Y003679D01*
X017749Y003679D02*
X018049Y003679D01*
X028425Y007762D02*
X028725Y007762D01*
X028575Y007762D02*
X028575Y008212D01*
X028425Y008062D01*
X030425Y008137D02*
X030500Y008212D01*
X030650Y008212D01*
X030725Y008137D01*
X030725Y008062D01*
X030425Y007762D01*
X030725Y007762D01*
X032362Y007762D02*
X032662Y007762D01*
X032512Y007762D02*
X032512Y008212D01*
X032362Y008062D01*
X034362Y008137D02*
X034437Y008212D01*
X034587Y008212D01*
X034662Y008137D01*
X034662Y008062D01*
X034362Y007762D01*
X034662Y007762D01*
X038267Y007762D02*
X038567Y007762D01*
X038417Y007762D02*
X038417Y008212D01*
X038267Y008062D01*
X040267Y008137D02*
X040342Y008212D01*
X040492Y008212D01*
X040567Y008137D01*
X040567Y008062D01*
X040267Y007762D01*
X040567Y007762D01*
X042204Y007762D02*
X042504Y007762D01*
X042354Y007762D02*
X042354Y008212D01*
X042204Y008062D01*
X044204Y008137D02*
X044279Y008212D01*
X044429Y008212D01*
X044504Y008137D01*
X044504Y008062D01*
X044204Y007762D01*
X044504Y007762D01*
X046141Y007762D02*
X046441Y007762D01*
X046291Y007762D02*
X046291Y008212D01*
X046141Y008062D01*
X048141Y008137D02*
X048216Y008212D01*
X048366Y008212D01*
X048441Y008137D01*
X048441Y008062D01*
X048141Y007762D01*
X048441Y007762D01*
X043815Y010830D02*
X043740Y010755D01*
X043440Y010755D01*
X043365Y010830D01*
X043365Y010980D01*
X043440Y011055D01*
X043740Y011055D01*
X043815Y010980D01*
X043815Y010830D01*
X043665Y010905D02*
X043815Y011055D01*
X043815Y011216D02*
X043515Y011516D01*
X043440Y011516D01*
X043365Y011441D01*
X043365Y011291D01*
X043440Y011216D01*
X043815Y011216D02*
X043815Y011516D01*
X041564Y010940D02*
X041264Y010940D01*
X041264Y010714D01*
X041414Y010789D01*
X041489Y010789D01*
X041564Y010714D01*
X041564Y010564D01*
X041489Y010489D01*
X041339Y010489D01*
X041264Y010564D01*
X041104Y010564D02*
X041104Y010714D01*
X041029Y010789D01*
X040954Y010789D01*
X040804Y010714D01*
X040804Y010940D01*
X041104Y010940D01*
X041104Y010564D02*
X041029Y010489D01*
X040879Y010489D01*
X040804Y010564D01*
X040644Y010489D02*
X040494Y010639D01*
X040569Y010639D02*
X040343Y010639D01*
X040343Y010489D02*
X040343Y010940D01*
X040569Y010940D01*
X040644Y010864D01*
X040644Y010714D01*
X040569Y010639D01*
X040455Y014372D02*
X040457Y014385D01*
X040462Y014397D01*
X040471Y014408D01*
X040481Y014416D01*
X040494Y014420D01*
X040507Y014421D01*
X040520Y014418D01*
X040532Y014412D01*
X040542Y014403D01*
X040549Y014392D01*
X040553Y014379D01*
X040553Y014365D01*
X040549Y014352D01*
X040542Y014341D01*
X040532Y014332D01*
X040520Y014326D01*
X040507Y014323D01*
X040494Y014324D01*
X040481Y014328D01*
X040471Y014336D01*
X040462Y014347D01*
X040457Y014359D01*
X040455Y014372D01*
X046619Y013874D02*
X046619Y013423D01*
X046844Y013423D01*
X046919Y013498D01*
X046919Y013799D01*
X046844Y013874D01*
X046619Y013874D01*
X047079Y013799D02*
X047155Y013874D01*
X047305Y013874D01*
X047380Y013799D01*
X047380Y013724D01*
X047079Y013423D01*
X047380Y013423D01*
X048694Y015908D02*
X048694Y016058D01*
X048694Y015983D02*
X049070Y015983D01*
X049145Y015908D01*
X049145Y015833D01*
X049070Y015758D01*
X049070Y016219D02*
X048995Y016219D01*
X048919Y016294D01*
X048919Y016444D01*
X048995Y016519D01*
X049070Y016519D01*
X049145Y016444D01*
X049145Y016294D01*
X049070Y016219D01*
X048919Y016294D02*
X048844Y016219D01*
X048769Y016219D01*
X048694Y016294D01*
X048694Y016444D01*
X048769Y016519D01*
X048844Y016519D01*
X048919Y016444D01*
X049497Y016689D02*
X049948Y016689D01*
X049948Y016539D02*
X049948Y016840D01*
X049648Y016539D02*
X049497Y016689D01*
X049648Y021230D02*
X049497Y021380D01*
X049948Y021380D01*
X049948Y021230D02*
X049948Y021531D01*
X049948Y021691D02*
X049948Y021991D01*
X049948Y021841D02*
X049497Y021841D01*
X049648Y021691D01*
X048292Y025603D02*
X048292Y026784D01*
X047701Y026193D02*
X048882Y026193D01*
X049497Y026424D02*
X049573Y026348D01*
X049497Y026424D02*
X049497Y026574D01*
X049573Y026649D01*
X049648Y026649D01*
X049948Y026348D01*
X049948Y026649D01*
X049948Y026809D02*
X049948Y027109D01*
X049948Y026959D02*
X049497Y026959D01*
X049648Y026809D01*
X049573Y031270D02*
X049497Y031345D01*
X049497Y031495D01*
X049573Y031570D01*
X049648Y031570D01*
X049723Y031495D01*
X049798Y031570D01*
X049873Y031570D01*
X049948Y031495D01*
X049948Y031345D01*
X049873Y031270D01*
X049723Y031420D02*
X049723Y031495D01*
X049648Y031730D02*
X049497Y031880D01*
X049948Y031880D01*
X049948Y031730D02*
X049948Y032030D01*
X049873Y035404D02*
X049948Y035479D01*
X049948Y035629D01*
X049873Y035704D01*
X049798Y035704D01*
X049723Y035629D01*
X049723Y035554D01*
X049723Y035629D02*
X049648Y035704D01*
X049573Y035704D01*
X049497Y035629D01*
X049497Y035479D01*
X049573Y035404D01*
X049573Y035864D02*
X049497Y035939D01*
X049497Y036089D01*
X049573Y036164D01*
X049873Y036164D01*
X049948Y036089D01*
X049948Y035939D01*
X049873Y035864D01*
X049723Y035939D02*
X049723Y036164D01*
X049723Y035939D02*
X049648Y035864D01*
X049573Y035864D01*
X039881Y036700D02*
X039280Y036700D01*
X039355Y036775D02*
X039430Y036850D01*
X039355Y036775D02*
X039355Y036625D01*
X039430Y036550D01*
X039505Y036550D01*
X039581Y036625D01*
X039581Y036775D01*
X039656Y036850D01*
X039731Y036850D01*
X039806Y036775D01*
X039806Y036625D01*
X039731Y036550D01*
X039731Y036389D02*
X039355Y036389D01*
X039355Y036089D02*
X039731Y036089D01*
X039806Y036164D01*
X039806Y036314D01*
X039731Y036389D01*
X039731Y037010D02*
X039656Y037010D01*
X039581Y037085D01*
X039581Y037235D01*
X039656Y037310D01*
X039731Y037310D01*
X039806Y037235D01*
X039806Y037085D01*
X039731Y037010D01*
X039581Y037085D02*
X039505Y037010D01*
X039430Y037010D01*
X039355Y037085D01*
X039355Y037235D01*
X039430Y037310D01*
X039505Y037310D01*
X039581Y037235D01*
X034763Y036700D02*
X034162Y036700D01*
X034237Y036775D02*
X034312Y036850D01*
X034237Y036775D02*
X034237Y036625D01*
X034312Y036550D01*
X034387Y036550D01*
X034462Y036625D01*
X034462Y036775D01*
X034537Y036850D01*
X034613Y036850D01*
X034688Y036775D01*
X034688Y036625D01*
X034613Y036550D01*
X034613Y036389D02*
X034237Y036389D01*
X034237Y036089D02*
X034613Y036089D01*
X034688Y036164D01*
X034688Y036314D01*
X034613Y036389D01*
X034613Y037010D02*
X034688Y037010D01*
X034613Y037010D02*
X034312Y037310D01*
X034237Y037310D01*
X034237Y037010D01*
X040996Y048359D02*
X041666Y048359D01*
X041666Y054304D01*
X044028Y054304D01*
X044028Y048359D01*
X041666Y048359D01*
X040996Y048359D02*
X040996Y054304D01*
X041666Y054304D01*
X044738Y054475D02*
X044888Y054475D01*
X044813Y054475D02*
X044813Y054925D01*
X044738Y054925D02*
X044888Y054925D01*
X045045Y054925D02*
X045345Y054475D01*
X045345Y054925D01*
X045505Y054925D02*
X045505Y054475D01*
X045731Y054475D01*
X045806Y054550D01*
X045806Y054850D01*
X045731Y054925D01*
X045505Y054925D01*
X045045Y054925D02*
X045045Y054475D01*
X045966Y054475D02*
X046116Y054475D01*
X046041Y054475D02*
X046041Y054925D01*
X045966Y054925D02*
X046116Y054925D01*
X046273Y054850D02*
X046273Y054550D01*
X046348Y054475D01*
X046498Y054475D01*
X046573Y054550D01*
X046733Y054475D02*
X046733Y054775D01*
X046883Y054925D01*
X047033Y054775D01*
X047033Y054475D01*
X047033Y054700D02*
X046733Y054700D01*
X046573Y054850D02*
X046498Y054925D01*
X046348Y054925D01*
X046273Y054850D01*
X047193Y054925D02*
X047494Y054925D01*
X047344Y054925D02*
X047344Y054475D01*
X047654Y054550D02*
X047654Y054850D01*
X047729Y054925D01*
X047879Y054925D01*
X047954Y054850D01*
X047954Y054550D01*
X047879Y054475D01*
X047729Y054475D01*
X047654Y054550D01*
X047635Y054142D02*
X047560Y054142D01*
X047484Y054067D01*
X047484Y053842D01*
X047635Y053842D01*
X047710Y053917D01*
X047710Y054067D01*
X047635Y054142D01*
X047484Y053842D02*
X047334Y053992D01*
X047259Y054142D01*
X048114Y054475D02*
X048114Y054925D01*
X048339Y054925D01*
X048414Y054850D01*
X048414Y054700D01*
X048339Y054625D01*
X048114Y054625D01*
X048264Y054625D02*
X048414Y054475D01*
X048575Y054400D02*
X048875Y054400D01*
X049035Y054550D02*
X049110Y054475D01*
X049260Y054475D01*
X049335Y054550D01*
X049495Y054550D02*
X049570Y054475D01*
X049721Y054475D01*
X049796Y054550D01*
X049796Y054850D01*
X049721Y054925D01*
X049570Y054925D01*
X049495Y054850D01*
X049495Y054550D01*
X049335Y054850D02*
X049260Y054925D01*
X049110Y054925D01*
X049035Y054850D01*
X049035Y054550D01*
X049956Y054475D02*
X049956Y054925D01*
X050256Y054475D01*
X050256Y054925D01*
X050416Y054925D02*
X050716Y054475D01*
X050716Y054925D01*
X050416Y054925D02*
X050416Y054475D01*
X049610Y051292D02*
X049610Y050992D01*
X049610Y051142D02*
X049159Y051142D01*
X049309Y050992D01*
X036505Y058774D02*
X036505Y058849D01*
X036429Y058924D01*
X036354Y058924D01*
X036429Y058924D02*
X036505Y058999D01*
X036505Y059074D01*
X036429Y059149D01*
X036279Y059149D01*
X036204Y059074D01*
X036044Y059074D02*
X035969Y059149D01*
X035744Y059149D01*
X035744Y058699D01*
X035969Y058699D01*
X036044Y058774D01*
X036044Y059074D01*
X036204Y058774D02*
X036279Y058699D01*
X036429Y058699D01*
X036505Y058774D01*
X033369Y054674D02*
X033371Y054694D01*
X033377Y054712D01*
X033386Y054730D01*
X033398Y054745D01*
X033413Y054757D01*
X033431Y054766D01*
X033449Y054772D01*
X033469Y054774D01*
X033489Y054772D01*
X033507Y054766D01*
X033525Y054757D01*
X033540Y054745D01*
X033552Y054730D01*
X033561Y054712D01*
X033567Y054694D01*
X033569Y054674D01*
X033567Y054654D01*
X033561Y054636D01*
X033552Y054618D01*
X033540Y054603D01*
X033525Y054591D01*
X033507Y054582D01*
X033489Y054576D01*
X033469Y054574D01*
X033449Y054576D01*
X033431Y054582D01*
X033413Y054591D01*
X033398Y054603D01*
X033386Y054618D01*
X033377Y054636D01*
X033371Y054654D01*
X033369Y054674D01*
X029106Y058460D02*
X028805Y058460D01*
X029106Y058760D01*
X029106Y058835D01*
X029031Y058910D01*
X028881Y058910D01*
X028805Y058835D01*
X028645Y058835D02*
X028570Y058910D01*
X028420Y058910D01*
X028345Y058835D01*
X028345Y058535D01*
X028420Y058460D01*
X028570Y058460D01*
X028645Y058535D01*
X024868Y055655D02*
X024656Y055443D01*
X024762Y055549D02*
X024443Y055867D01*
X024443Y055655D01*
X024330Y055542D02*
X024330Y055436D01*
X024171Y055276D01*
X024330Y055117D02*
X024012Y055436D01*
X024171Y055595D01*
X024277Y055595D01*
X024330Y055542D01*
X024330Y055436D02*
X024436Y055436D01*
X024489Y055382D01*
X024489Y055276D01*
X024330Y055117D01*
X023556Y058103D02*
X016311Y058103D01*
X016311Y050859D01*
X023556Y050859D01*
X023556Y058103D01*
X016506Y057630D02*
X016508Y057663D01*
X016514Y057695D01*
X016523Y057727D01*
X016537Y057757D01*
X016553Y057785D01*
X016573Y057811D01*
X016596Y057835D01*
X016622Y057856D01*
X016650Y057873D01*
X016680Y057888D01*
X016711Y057898D01*
X016743Y057905D01*
X016776Y057908D01*
X016809Y057907D01*
X016841Y057902D01*
X016873Y057893D01*
X016904Y057881D01*
X016932Y057865D01*
X016959Y057846D01*
X016983Y057824D01*
X017005Y057799D01*
X017023Y057771D01*
X017038Y057742D01*
X017050Y057711D01*
X017058Y057679D01*
X017062Y057646D01*
X017062Y057614D01*
X017058Y057581D01*
X017050Y057549D01*
X017038Y057518D01*
X017023Y057489D01*
X017005Y057461D01*
X016983Y057436D01*
X016959Y057414D01*
X016932Y057395D01*
X016904Y057379D01*
X016873Y057367D01*
X016841Y057358D01*
X016809Y057353D01*
X016776Y057352D01*
X016743Y057355D01*
X016711Y057362D01*
X016680Y057372D01*
X016650Y057387D01*
X016622Y057404D01*
X016596Y057425D01*
X016573Y057449D01*
X016553Y057475D01*
X016537Y057503D01*
X016523Y057533D01*
X016514Y057565D01*
X016508Y057597D01*
X016506Y057630D01*
X012247Y057690D02*
X012247Y057390D01*
X012247Y057540D02*
X011797Y057540D01*
X011947Y057390D01*
X011947Y055690D02*
X011872Y055690D01*
X011797Y055615D01*
X011797Y055465D01*
X011872Y055390D01*
X011947Y055690D02*
X012247Y055390D01*
X012247Y055690D01*
X012247Y051781D02*
X012247Y051480D01*
X012247Y051630D02*
X011797Y051630D01*
X011947Y051480D01*
X011947Y049781D02*
X011872Y049781D01*
X011797Y049706D01*
X011797Y049555D01*
X011872Y049480D01*
X011947Y049781D02*
X012247Y049480D01*
X012247Y049781D01*
X012172Y047781D02*
X012097Y047781D01*
X012022Y047706D01*
X012022Y047630D01*
X012022Y047706D02*
X011947Y047781D01*
X011872Y047781D01*
X011797Y047706D01*
X011797Y047555D01*
X011872Y047480D01*
X012172Y047480D02*
X012247Y047555D01*
X012247Y047706D01*
X012172Y047781D01*
X040066Y022255D02*
X040517Y022255D01*
X040517Y022105D02*
X040517Y022405D01*
X040216Y022105D02*
X040066Y022255D01*
X040141Y021945D02*
X040066Y021869D01*
X040066Y021719D01*
X040141Y021644D01*
X040442Y021644D01*
X040517Y021719D01*
X040517Y021869D01*
X040442Y021945D01*
X040141Y021945D01*
X040367Y021794D02*
X040517Y021945D01*
D11*
X040642Y020288D02*
X042138Y020288D01*
X040940Y020103D02*
X040942Y020123D01*
X040948Y020141D01*
X040957Y020159D01*
X040969Y020174D01*
X040984Y020186D01*
X041002Y020195D01*
X041020Y020201D01*
X041040Y020203D01*
X041060Y020201D01*
X041078Y020195D01*
X041096Y020186D01*
X041111Y020174D01*
X041123Y020159D01*
X041132Y020141D01*
X041138Y020123D01*
X041140Y020103D01*
X041138Y020083D01*
X041132Y020065D01*
X041123Y020047D01*
X041111Y020032D01*
X041096Y020020D01*
X041078Y020011D01*
X041060Y020005D01*
X041040Y020003D01*
X041020Y020005D01*
X041002Y020011D01*
X040984Y020020D01*
X040969Y020032D01*
X040957Y020047D01*
X040948Y020065D01*
X040942Y020083D01*
X040940Y020103D01*
X040642Y018398D02*
X042138Y018398D01*
X036390Y016768D02*
X033398Y016768D01*
X036390Y016768D02*
X036589Y016846D01*
X036783Y016934D01*
X036974Y017031D01*
X037159Y017137D01*
X037339Y017253D01*
X037513Y017376D01*
X037680Y017509D01*
X037841Y017649D01*
X037996Y017797D01*
X038142Y017952D01*
X038281Y018115D01*
X038412Y018283D01*
X038534Y018459D01*
X038648Y018639D01*
X038753Y018826D01*
X038848Y019017D01*
X038934Y019212D01*
X039011Y019412D01*
X039078Y019614D01*
X039134Y019820D01*
X039181Y020029D01*
X039217Y020239D01*
X039243Y020451D01*
X039259Y020664D01*
X039264Y020878D01*
X039259Y021092D01*
X039243Y021305D01*
X039217Y021517D01*
X039181Y021727D01*
X039134Y021936D01*
X039078Y022142D01*
X039011Y022344D01*
X038934Y022544D01*
X038848Y022739D01*
X038753Y022930D01*
X038648Y023117D01*
X038534Y023297D01*
X038412Y023473D01*
X038281Y023641D01*
X038142Y023804D01*
X037996Y023959D01*
X037841Y024107D01*
X037680Y024247D01*
X037513Y024380D01*
X037339Y024503D01*
X037159Y024619D01*
X036974Y024725D01*
X036783Y024822D01*
X036589Y024910D01*
X036390Y024988D01*
X036390Y024989D02*
X036390Y026162D01*
X033398Y026162D01*
X033398Y024989D01*
X033398Y024988D02*
X033199Y024910D01*
X033005Y024822D01*
X032814Y024725D01*
X032629Y024619D01*
X032449Y024503D01*
X032275Y024380D01*
X032108Y024247D01*
X031947Y024107D01*
X031792Y023959D01*
X031646Y023804D01*
X031507Y023641D01*
X031376Y023473D01*
X031254Y023297D01*
X031140Y023117D01*
X031035Y022930D01*
X030940Y022739D01*
X030854Y022544D01*
X030777Y022344D01*
X030710Y022142D01*
X030654Y021936D01*
X030607Y021727D01*
X030571Y021517D01*
X030545Y021305D01*
X030529Y021092D01*
X030524Y020878D01*
X030529Y020664D01*
X030545Y020451D01*
X030571Y020239D01*
X030607Y020029D01*
X030654Y019820D01*
X030710Y019614D01*
X030777Y019412D01*
X030854Y019212D01*
X030940Y019017D01*
X031035Y018826D01*
X031140Y018639D01*
X031254Y018459D01*
X031376Y018283D01*
X031507Y018115D01*
X031646Y017952D01*
X031792Y017797D01*
X031947Y017649D01*
X032108Y017509D01*
X032275Y017376D01*
X032449Y017253D01*
X032629Y017137D01*
X032814Y017031D01*
X033005Y016934D01*
X033199Y016846D01*
X033398Y016768D01*
X029735Y031049D02*
X028635Y031049D01*
X028618Y031051D01*
X028601Y031055D01*
X028585Y031062D01*
X028571Y031072D01*
X028558Y031085D01*
X028548Y031099D01*
X028541Y031115D01*
X028537Y031132D01*
X028535Y031149D01*
X028535Y031749D01*
X028537Y031766D01*
X028541Y031783D01*
X028548Y031799D01*
X028558Y031813D01*
X028571Y031826D01*
X028585Y031836D01*
X028601Y031843D01*
X028618Y031847D01*
X028635Y031849D01*
X029735Y031849D01*
X029752Y031847D01*
X029769Y031843D01*
X029785Y031836D01*
X029799Y031826D01*
X029812Y031813D01*
X029822Y031799D01*
X029829Y031783D01*
X029833Y031766D01*
X029835Y031749D01*
X029835Y031149D01*
X029833Y031132D01*
X029829Y031115D01*
X029822Y031099D01*
X029812Y031085D01*
X029799Y031072D01*
X029785Y031062D01*
X029769Y031055D01*
X029752Y031051D01*
X029735Y031049D01*
X031543Y039067D02*
X032143Y039067D01*
X032160Y039069D01*
X032177Y039073D01*
X032193Y039080D01*
X032207Y039090D01*
X032220Y039103D01*
X032230Y039117D01*
X032237Y039133D01*
X032241Y039150D01*
X032243Y039167D01*
X032243Y040267D01*
X032241Y040284D01*
X032237Y040301D01*
X032230Y040317D01*
X032220Y040331D01*
X032207Y040344D01*
X032193Y040354D01*
X032177Y040361D01*
X032160Y040365D01*
X032143Y040367D01*
X031543Y040367D01*
X031526Y040365D01*
X031509Y040361D01*
X031493Y040354D01*
X031479Y040344D01*
X031466Y040331D01*
X031456Y040317D01*
X031449Y040301D01*
X031445Y040284D01*
X031443Y040267D01*
X031443Y039167D01*
X031445Y039150D01*
X031449Y039133D01*
X031456Y039117D01*
X031466Y039103D01*
X031479Y039090D01*
X031493Y039080D01*
X031509Y039073D01*
X031526Y039069D01*
X031543Y039067D01*
X033118Y056783D02*
X033718Y056783D01*
X033735Y056785D01*
X033752Y056789D01*
X033768Y056796D01*
X033782Y056806D01*
X033795Y056819D01*
X033805Y056833D01*
X033812Y056849D01*
X033816Y056866D01*
X033818Y056883D01*
X033818Y057983D01*
X033816Y058000D01*
X033812Y058017D01*
X033805Y058033D01*
X033795Y058047D01*
X033782Y058060D01*
X033768Y058070D01*
X033752Y058077D01*
X033735Y058081D01*
X033718Y058083D01*
X033118Y058083D01*
X033101Y058081D01*
X033084Y058077D01*
X033068Y058070D01*
X033054Y058060D01*
X033041Y058047D01*
X033031Y058033D01*
X033024Y058017D01*
X033020Y058000D01*
X033018Y057983D01*
X033018Y056883D01*
X033020Y056866D01*
X033024Y056849D01*
X033031Y056833D01*
X033041Y056819D01*
X033054Y056806D01*
X033068Y056796D01*
X033084Y056789D01*
X033101Y056785D01*
X033118Y056783D01*
X039219Y056883D02*
X039219Y057983D01*
X039221Y058000D01*
X039225Y058017D01*
X039232Y058033D01*
X039242Y058047D01*
X039255Y058060D01*
X039269Y058070D01*
X039285Y058077D01*
X039302Y058081D01*
X039319Y058083D01*
X039919Y058083D01*
X039936Y058081D01*
X039953Y058077D01*
X039969Y058070D01*
X039983Y058060D01*
X039996Y058047D01*
X040006Y058033D01*
X040013Y058017D01*
X040017Y058000D01*
X040019Y057983D01*
X040019Y056883D01*
X040017Y056866D01*
X040013Y056849D01*
X040006Y056833D01*
X039996Y056819D01*
X039983Y056806D01*
X039969Y056796D01*
X039953Y056789D01*
X039936Y056785D01*
X039919Y056783D01*
X039319Y056783D01*
X039302Y056785D01*
X039285Y056789D01*
X039269Y056796D01*
X039255Y056806D01*
X039242Y056819D01*
X039232Y056833D01*
X039225Y056849D01*
X039221Y056866D01*
X039219Y056883D01*
X005386Y040741D02*
X005386Y036741D01*
X004786Y036741D01*
X004595Y036741D01*
X003022Y036741D01*
X002828Y036741D01*
X002560Y036741D01*
X002315Y036741D01*
X002197Y036741D01*
X002197Y040741D01*
X002315Y040741D01*
X002315Y036741D01*
X002315Y036742D02*
X002197Y036742D01*
X002197Y032742D01*
X002315Y032742D01*
X002315Y036742D01*
X002482Y036742D01*
X002560Y036742D01*
X002560Y032742D01*
X002315Y032742D01*
X002315Y032744D02*
X002197Y032744D01*
X002197Y028744D01*
X002315Y028744D01*
X002315Y032744D01*
X002482Y032744D01*
X002560Y032744D01*
X002560Y028744D01*
X002315Y028744D01*
X002315Y028745D02*
X002197Y028745D01*
X002197Y024745D01*
X002315Y024745D01*
X002315Y028745D01*
X002482Y028745D01*
X002560Y028745D01*
X002560Y024745D01*
X002315Y024745D01*
X002315Y024747D02*
X002197Y024747D01*
X002197Y020747D01*
X002315Y020747D01*
X002315Y024747D01*
X002482Y024747D01*
X002560Y024747D01*
X002560Y020747D01*
X002315Y020747D01*
X002315Y020748D02*
X002197Y020748D01*
X002197Y016748D01*
X002315Y016748D01*
X002315Y020748D01*
X002482Y020748D01*
X002560Y020748D01*
X002560Y016748D01*
X002315Y016748D01*
X002315Y016750D02*
X002197Y016750D01*
X002197Y012750D01*
X002315Y012750D01*
X002315Y016750D01*
X002482Y016750D01*
X002560Y016750D01*
X002560Y012750D01*
X002315Y012750D01*
X002560Y012750D02*
X002828Y012750D01*
X003022Y012750D01*
X004595Y012750D01*
X004786Y012750D01*
X005386Y012750D01*
X005386Y016750D01*
X004786Y016750D01*
X004595Y016750D01*
X003022Y016750D01*
X002828Y016750D01*
X002828Y012750D01*
X003048Y013750D02*
X003050Y013804D01*
X003056Y013859D01*
X003066Y013912D01*
X003079Y013965D01*
X003097Y014016D01*
X003118Y014067D01*
X003142Y014115D01*
X003170Y014162D01*
X003202Y014206D01*
X003236Y014248D01*
X003274Y014288D01*
X003314Y014325D01*
X003357Y014358D01*
X003402Y014389D01*
X003449Y014416D01*
X003498Y014440D01*
X003548Y014460D01*
X003600Y014477D01*
X003653Y014489D01*
X003707Y014498D01*
X003761Y014503D01*
X003816Y014504D01*
X003870Y014501D01*
X003924Y014494D01*
X003977Y014483D01*
X004030Y014469D01*
X004081Y014450D01*
X004131Y014428D01*
X004179Y014403D01*
X004225Y014374D01*
X004269Y014342D01*
X004311Y014307D01*
X004349Y014269D01*
X004385Y014228D01*
X004418Y014184D01*
X004448Y014139D01*
X004474Y014091D01*
X004497Y014042D01*
X004517Y013991D01*
X004532Y013939D01*
X004544Y013885D01*
X004552Y013832D01*
X004556Y013777D01*
X004556Y013723D01*
X004552Y013668D01*
X004544Y013615D01*
X004532Y013561D01*
X004517Y013509D01*
X004497Y013458D01*
X004474Y013409D01*
X004448Y013361D01*
X004418Y013316D01*
X004385Y013272D01*
X004349Y013231D01*
X004311Y013193D01*
X004269Y013158D01*
X004225Y013126D01*
X004179Y013097D01*
X004131Y013072D01*
X004081Y013050D01*
X004030Y013031D01*
X003977Y013017D01*
X003924Y013006D01*
X003870Y012999D01*
X003816Y012996D01*
X003761Y012997D01*
X003707Y013002D01*
X003653Y013011D01*
X003600Y013023D01*
X003548Y013040D01*
X003498Y013060D01*
X003449Y013084D01*
X003402Y013111D01*
X003357Y013142D01*
X003314Y013175D01*
X003274Y013212D01*
X003236Y013252D01*
X003202Y013294D01*
X003170Y013338D01*
X003142Y013385D01*
X003118Y013433D01*
X003097Y013484D01*
X003079Y013535D01*
X003066Y013588D01*
X003056Y013641D01*
X003050Y013696D01*
X003048Y013750D01*
X003048Y015750D02*
X003050Y015804D01*
X003056Y015859D01*
X003066Y015912D01*
X003079Y015965D01*
X003097Y016016D01*
X003118Y016067D01*
X003142Y016115D01*
X003170Y016162D01*
X003202Y016206D01*
X003236Y016248D01*
X003274Y016288D01*
X003314Y016325D01*
X003357Y016358D01*
X003402Y016389D01*
X003449Y016416D01*
X003498Y016440D01*
X003548Y016460D01*
X003600Y016477D01*
X003653Y016489D01*
X003707Y016498D01*
X003761Y016503D01*
X003816Y016504D01*
X003870Y016501D01*
X003924Y016494D01*
X003977Y016483D01*
X004030Y016469D01*
X004081Y016450D01*
X004131Y016428D01*
X004179Y016403D01*
X004225Y016374D01*
X004269Y016342D01*
X004311Y016307D01*
X004349Y016269D01*
X004385Y016228D01*
X004418Y016184D01*
X004448Y016139D01*
X004474Y016091D01*
X004497Y016042D01*
X004517Y015991D01*
X004532Y015939D01*
X004544Y015885D01*
X004552Y015832D01*
X004556Y015777D01*
X004556Y015723D01*
X004552Y015668D01*
X004544Y015615D01*
X004532Y015561D01*
X004517Y015509D01*
X004497Y015458D01*
X004474Y015409D01*
X004448Y015361D01*
X004418Y015316D01*
X004385Y015272D01*
X004349Y015231D01*
X004311Y015193D01*
X004269Y015158D01*
X004225Y015126D01*
X004179Y015097D01*
X004131Y015072D01*
X004081Y015050D01*
X004030Y015031D01*
X003977Y015017D01*
X003924Y015006D01*
X003870Y014999D01*
X003816Y014996D01*
X003761Y014997D01*
X003707Y015002D01*
X003653Y015011D01*
X003600Y015023D01*
X003548Y015040D01*
X003498Y015060D01*
X003449Y015084D01*
X003402Y015111D01*
X003357Y015142D01*
X003314Y015175D01*
X003274Y015212D01*
X003236Y015252D01*
X003202Y015294D01*
X003170Y015338D01*
X003142Y015385D01*
X003118Y015433D01*
X003097Y015484D01*
X003079Y015535D01*
X003066Y015588D01*
X003056Y015641D01*
X003050Y015696D01*
X003048Y015750D01*
X003022Y016748D02*
X004595Y016748D01*
X004786Y016748D01*
X005386Y016748D01*
X005386Y020748D01*
X004786Y020748D01*
X004595Y020748D01*
X003022Y020748D01*
X002828Y020748D01*
X002828Y016748D01*
X002560Y016748D01*
X002560Y016750D02*
X002645Y016750D01*
X002828Y016750D01*
X002828Y016748D02*
X003022Y016748D01*
X002704Y016871D02*
X002645Y016801D01*
X002645Y016750D01*
X002704Y016871D02*
X002704Y016974D01*
X002423Y016974D01*
X002423Y016871D01*
X002482Y016801D01*
X002482Y016750D01*
X003048Y017748D02*
X003050Y017802D01*
X003056Y017857D01*
X003066Y017910D01*
X003079Y017963D01*
X003097Y018014D01*
X003118Y018065D01*
X003142Y018113D01*
X003170Y018160D01*
X003202Y018204D01*
X003236Y018246D01*
X003274Y018286D01*
X003314Y018323D01*
X003357Y018356D01*
X003402Y018387D01*
X003449Y018414D01*
X003498Y018438D01*
X003548Y018458D01*
X003600Y018475D01*
X003653Y018487D01*
X003707Y018496D01*
X003761Y018501D01*
X003816Y018502D01*
X003870Y018499D01*
X003924Y018492D01*
X003977Y018481D01*
X004030Y018467D01*
X004081Y018448D01*
X004131Y018426D01*
X004179Y018401D01*
X004225Y018372D01*
X004269Y018340D01*
X004311Y018305D01*
X004349Y018267D01*
X004385Y018226D01*
X004418Y018182D01*
X004448Y018137D01*
X004474Y018089D01*
X004497Y018040D01*
X004517Y017989D01*
X004532Y017937D01*
X004544Y017883D01*
X004552Y017830D01*
X004556Y017775D01*
X004556Y017721D01*
X004552Y017666D01*
X004544Y017613D01*
X004532Y017559D01*
X004517Y017507D01*
X004497Y017456D01*
X004474Y017407D01*
X004448Y017359D01*
X004418Y017314D01*
X004385Y017270D01*
X004349Y017229D01*
X004311Y017191D01*
X004269Y017156D01*
X004225Y017124D01*
X004179Y017095D01*
X004131Y017070D01*
X004081Y017048D01*
X004030Y017029D01*
X003977Y017015D01*
X003924Y017004D01*
X003870Y016997D01*
X003816Y016994D01*
X003761Y016995D01*
X003707Y017000D01*
X003653Y017009D01*
X003600Y017021D01*
X003548Y017038D01*
X003498Y017058D01*
X003449Y017082D01*
X003402Y017109D01*
X003357Y017140D01*
X003314Y017173D01*
X003274Y017210D01*
X003236Y017250D01*
X003202Y017292D01*
X003170Y017336D01*
X003142Y017383D01*
X003118Y017431D01*
X003097Y017482D01*
X003079Y017533D01*
X003066Y017586D01*
X003056Y017639D01*
X003050Y017694D01*
X003048Y017748D01*
X004786Y016750D02*
X004786Y012750D01*
X004196Y010405D02*
X003392Y010405D01*
X002592Y010055D02*
X002592Y008355D01*
X003392Y008005D02*
X004185Y008005D01*
X004992Y008355D02*
X004992Y010055D01*
X003092Y009205D02*
X003094Y009257D01*
X003100Y009309D01*
X003110Y009361D01*
X003123Y009411D01*
X003140Y009461D01*
X003161Y009509D01*
X003186Y009555D01*
X003214Y009599D01*
X003245Y009641D01*
X003279Y009681D01*
X003316Y009718D01*
X003356Y009752D01*
X003398Y009783D01*
X003442Y009811D01*
X003488Y009836D01*
X003536Y009857D01*
X003586Y009874D01*
X003636Y009887D01*
X003688Y009897D01*
X003740Y009903D01*
X003792Y009905D01*
X003844Y009903D01*
X003896Y009897D01*
X003948Y009887D01*
X003998Y009874D01*
X004048Y009857D01*
X004096Y009836D01*
X004142Y009811D01*
X004186Y009783D01*
X004228Y009752D01*
X004268Y009718D01*
X004305Y009681D01*
X004339Y009641D01*
X004370Y009599D01*
X004398Y009555D01*
X004423Y009509D01*
X004444Y009461D01*
X004461Y009411D01*
X004474Y009361D01*
X004484Y009309D01*
X004490Y009257D01*
X004492Y009205D01*
X004490Y009153D01*
X004484Y009101D01*
X004474Y009049D01*
X004461Y008999D01*
X004444Y008949D01*
X004423Y008901D01*
X004398Y008855D01*
X004370Y008811D01*
X004339Y008769D01*
X004305Y008729D01*
X004268Y008692D01*
X004228Y008658D01*
X004186Y008627D01*
X004142Y008599D01*
X004096Y008574D01*
X004048Y008553D01*
X003998Y008536D01*
X003948Y008523D01*
X003896Y008513D01*
X003844Y008507D01*
X003792Y008505D01*
X003740Y008507D01*
X003688Y008513D01*
X003636Y008523D01*
X003586Y008536D01*
X003536Y008553D01*
X003488Y008574D01*
X003442Y008599D01*
X003398Y008627D01*
X003356Y008658D01*
X003316Y008692D01*
X003279Y008729D01*
X003245Y008769D01*
X003214Y008811D01*
X003186Y008855D01*
X003161Y008901D01*
X003140Y008949D01*
X003123Y008999D01*
X003110Y009049D01*
X003100Y009101D01*
X003094Y009153D01*
X003092Y009205D01*
X004786Y016748D02*
X004786Y020748D01*
X004786Y020747D02*
X005386Y020747D01*
X005386Y024747D01*
X004786Y024747D01*
X004595Y024747D01*
X003022Y024747D01*
X002828Y024747D01*
X002828Y020747D01*
X002560Y020747D01*
X002560Y020748D02*
X002645Y020748D01*
X002828Y020748D01*
X002828Y020747D02*
X003022Y020747D01*
X004595Y020747D01*
X004786Y020747D01*
X004786Y024747D01*
X004786Y024745D02*
X005386Y024745D01*
X005386Y028745D01*
X004786Y028745D01*
X004595Y028745D01*
X003022Y028745D01*
X002828Y028745D01*
X002828Y024745D01*
X002560Y024745D01*
X002560Y024747D02*
X002645Y024747D01*
X002828Y024747D01*
X002828Y024745D02*
X003022Y024745D01*
X004595Y024745D01*
X004786Y024745D01*
X004786Y028745D01*
X004786Y028744D02*
X005386Y028744D01*
X005386Y032744D01*
X004786Y032744D01*
X004595Y032744D01*
X003022Y032744D01*
X002828Y032744D01*
X002828Y028744D01*
X002560Y028744D01*
X002560Y028745D02*
X002645Y028745D01*
X002828Y028745D01*
X002828Y028744D02*
X003022Y028744D01*
X004595Y028744D01*
X004786Y028744D01*
X004786Y032744D01*
X004786Y032742D02*
X005386Y032742D01*
X005386Y036742D01*
X004786Y036742D01*
X004595Y036742D01*
X003022Y036742D01*
X002828Y036742D01*
X002828Y032742D01*
X002560Y032742D01*
X002560Y032744D02*
X002645Y032744D01*
X002828Y032744D01*
X002828Y032742D02*
X003022Y032742D01*
X004595Y032742D01*
X004786Y032742D01*
X004786Y036742D01*
X004786Y036741D02*
X004786Y040741D01*
X005386Y040741D01*
X004786Y040741D02*
X004595Y040741D01*
X003022Y040741D01*
X002828Y040741D01*
X002828Y036741D01*
X002828Y036742D02*
X002645Y036742D01*
X002560Y036742D01*
X002560Y036741D02*
X002560Y040741D01*
X002482Y040741D01*
X002315Y040741D01*
X002423Y040862D02*
X002482Y040792D01*
X002482Y040741D01*
X002560Y040741D02*
X002645Y040741D01*
X002828Y040741D01*
X002704Y040862D02*
X002645Y040792D01*
X002645Y040741D01*
X002704Y040862D02*
X002704Y040965D01*
X002423Y040965D01*
X002423Y040862D01*
X003048Y039741D02*
X003050Y039795D01*
X003056Y039850D01*
X003066Y039903D01*
X003079Y039956D01*
X003097Y040007D01*
X003118Y040058D01*
X003142Y040106D01*
X003170Y040153D01*
X003202Y040197D01*
X003236Y040239D01*
X003274Y040279D01*
X003314Y040316D01*
X003357Y040349D01*
X003402Y040380D01*
X003449Y040407D01*
X003498Y040431D01*
X003548Y040451D01*
X003600Y040468D01*
X003653Y040480D01*
X003707Y040489D01*
X003761Y040494D01*
X003816Y040495D01*
X003870Y040492D01*
X003924Y040485D01*
X003977Y040474D01*
X004030Y040460D01*
X004081Y040441D01*
X004131Y040419D01*
X004179Y040394D01*
X004225Y040365D01*
X004269Y040333D01*
X004311Y040298D01*
X004349Y040260D01*
X004385Y040219D01*
X004418Y040175D01*
X004448Y040130D01*
X004474Y040082D01*
X004497Y040033D01*
X004517Y039982D01*
X004532Y039930D01*
X004544Y039876D01*
X004552Y039823D01*
X004556Y039768D01*
X004556Y039714D01*
X004552Y039659D01*
X004544Y039606D01*
X004532Y039552D01*
X004517Y039500D01*
X004497Y039449D01*
X004474Y039400D01*
X004448Y039352D01*
X004418Y039307D01*
X004385Y039263D01*
X004349Y039222D01*
X004311Y039184D01*
X004269Y039149D01*
X004225Y039117D01*
X004179Y039088D01*
X004131Y039063D01*
X004081Y039041D01*
X004030Y039022D01*
X003977Y039008D01*
X003924Y038997D01*
X003870Y038990D01*
X003816Y038987D01*
X003761Y038988D01*
X003707Y038993D01*
X003653Y039002D01*
X003600Y039014D01*
X003548Y039031D01*
X003498Y039051D01*
X003449Y039075D01*
X003402Y039102D01*
X003357Y039133D01*
X003314Y039166D01*
X003274Y039203D01*
X003236Y039243D01*
X003202Y039285D01*
X003170Y039329D01*
X003142Y039376D01*
X003118Y039424D01*
X003097Y039475D01*
X003079Y039526D01*
X003066Y039579D01*
X003056Y039632D01*
X003050Y039687D01*
X003048Y039741D01*
X003048Y037741D02*
X003050Y037795D01*
X003056Y037850D01*
X003066Y037903D01*
X003079Y037956D01*
X003097Y038007D01*
X003118Y038058D01*
X003142Y038106D01*
X003170Y038153D01*
X003202Y038197D01*
X003236Y038239D01*
X003274Y038279D01*
X003314Y038316D01*
X003357Y038349D01*
X003402Y038380D01*
X003449Y038407D01*
X003498Y038431D01*
X003548Y038451D01*
X003600Y038468D01*
X003653Y038480D01*
X003707Y038489D01*
X003761Y038494D01*
X003816Y038495D01*
X003870Y038492D01*
X003924Y038485D01*
X003977Y038474D01*
X004030Y038460D01*
X004081Y038441D01*
X004131Y038419D01*
X004179Y038394D01*
X004225Y038365D01*
X004269Y038333D01*
X004311Y038298D01*
X004349Y038260D01*
X004385Y038219D01*
X004418Y038175D01*
X004448Y038130D01*
X004474Y038082D01*
X004497Y038033D01*
X004517Y037982D01*
X004532Y037930D01*
X004544Y037876D01*
X004552Y037823D01*
X004556Y037768D01*
X004556Y037714D01*
X004552Y037659D01*
X004544Y037606D01*
X004532Y037552D01*
X004517Y037500D01*
X004497Y037449D01*
X004474Y037400D01*
X004448Y037352D01*
X004418Y037307D01*
X004385Y037263D01*
X004349Y037222D01*
X004311Y037184D01*
X004269Y037149D01*
X004225Y037117D01*
X004179Y037088D01*
X004131Y037063D01*
X004081Y037041D01*
X004030Y037022D01*
X003977Y037008D01*
X003924Y036997D01*
X003870Y036990D01*
X003816Y036987D01*
X003761Y036988D01*
X003707Y036993D01*
X003653Y037002D01*
X003600Y037014D01*
X003548Y037031D01*
X003498Y037051D01*
X003449Y037075D01*
X003402Y037102D01*
X003357Y037133D01*
X003314Y037166D01*
X003274Y037203D01*
X003236Y037243D01*
X003202Y037285D01*
X003170Y037329D01*
X003142Y037376D01*
X003118Y037424D01*
X003097Y037475D01*
X003079Y037526D01*
X003066Y037579D01*
X003056Y037632D01*
X003050Y037687D01*
X003048Y037741D01*
X002704Y036967D02*
X002423Y036967D01*
X002423Y036863D01*
X002482Y036793D01*
X002482Y036742D01*
X002645Y036742D02*
X002645Y036793D01*
X002704Y036863D01*
X002704Y036967D01*
X003048Y035742D02*
X003050Y035796D01*
X003056Y035851D01*
X003066Y035904D01*
X003079Y035957D01*
X003097Y036008D01*
X003118Y036059D01*
X003142Y036107D01*
X003170Y036154D01*
X003202Y036198D01*
X003236Y036240D01*
X003274Y036280D01*
X003314Y036317D01*
X003357Y036350D01*
X003402Y036381D01*
X003449Y036408D01*
X003498Y036432D01*
X003548Y036452D01*
X003600Y036469D01*
X003653Y036481D01*
X003707Y036490D01*
X003761Y036495D01*
X003816Y036496D01*
X003870Y036493D01*
X003924Y036486D01*
X003977Y036475D01*
X004030Y036461D01*
X004081Y036442D01*
X004131Y036420D01*
X004179Y036395D01*
X004225Y036366D01*
X004269Y036334D01*
X004311Y036299D01*
X004349Y036261D01*
X004385Y036220D01*
X004418Y036176D01*
X004448Y036131D01*
X004474Y036083D01*
X004497Y036034D01*
X004517Y035983D01*
X004532Y035931D01*
X004544Y035877D01*
X004552Y035824D01*
X004556Y035769D01*
X004556Y035715D01*
X004552Y035660D01*
X004544Y035607D01*
X004532Y035553D01*
X004517Y035501D01*
X004497Y035450D01*
X004474Y035401D01*
X004448Y035353D01*
X004418Y035308D01*
X004385Y035264D01*
X004349Y035223D01*
X004311Y035185D01*
X004269Y035150D01*
X004225Y035118D01*
X004179Y035089D01*
X004131Y035064D01*
X004081Y035042D01*
X004030Y035023D01*
X003977Y035009D01*
X003924Y034998D01*
X003870Y034991D01*
X003816Y034988D01*
X003761Y034989D01*
X003707Y034994D01*
X003653Y035003D01*
X003600Y035015D01*
X003548Y035032D01*
X003498Y035052D01*
X003449Y035076D01*
X003402Y035103D01*
X003357Y035134D01*
X003314Y035167D01*
X003274Y035204D01*
X003236Y035244D01*
X003202Y035286D01*
X003170Y035330D01*
X003142Y035377D01*
X003118Y035425D01*
X003097Y035476D01*
X003079Y035527D01*
X003066Y035580D01*
X003056Y035633D01*
X003050Y035688D01*
X003048Y035742D01*
X003048Y033742D02*
X003050Y033796D01*
X003056Y033851D01*
X003066Y033904D01*
X003079Y033957D01*
X003097Y034008D01*
X003118Y034059D01*
X003142Y034107D01*
X003170Y034154D01*
X003202Y034198D01*
X003236Y034240D01*
X003274Y034280D01*
X003314Y034317D01*
X003357Y034350D01*
X003402Y034381D01*
X003449Y034408D01*
X003498Y034432D01*
X003548Y034452D01*
X003600Y034469D01*
X003653Y034481D01*
X003707Y034490D01*
X003761Y034495D01*
X003816Y034496D01*
X003870Y034493D01*
X003924Y034486D01*
X003977Y034475D01*
X004030Y034461D01*
X004081Y034442D01*
X004131Y034420D01*
X004179Y034395D01*
X004225Y034366D01*
X004269Y034334D01*
X004311Y034299D01*
X004349Y034261D01*
X004385Y034220D01*
X004418Y034176D01*
X004448Y034131D01*
X004474Y034083D01*
X004497Y034034D01*
X004517Y033983D01*
X004532Y033931D01*
X004544Y033877D01*
X004552Y033824D01*
X004556Y033769D01*
X004556Y033715D01*
X004552Y033660D01*
X004544Y033607D01*
X004532Y033553D01*
X004517Y033501D01*
X004497Y033450D01*
X004474Y033401D01*
X004448Y033353D01*
X004418Y033308D01*
X004385Y033264D01*
X004349Y033223D01*
X004311Y033185D01*
X004269Y033150D01*
X004225Y033118D01*
X004179Y033089D01*
X004131Y033064D01*
X004081Y033042D01*
X004030Y033023D01*
X003977Y033009D01*
X003924Y032998D01*
X003870Y032991D01*
X003816Y032988D01*
X003761Y032989D01*
X003707Y032994D01*
X003653Y033003D01*
X003600Y033015D01*
X003548Y033032D01*
X003498Y033052D01*
X003449Y033076D01*
X003402Y033103D01*
X003357Y033134D01*
X003314Y033167D01*
X003274Y033204D01*
X003236Y033244D01*
X003202Y033286D01*
X003170Y033330D01*
X003142Y033377D01*
X003118Y033425D01*
X003097Y033476D01*
X003079Y033527D01*
X003066Y033580D01*
X003056Y033633D01*
X003050Y033688D01*
X003048Y033742D01*
X002704Y032968D02*
X002423Y032968D01*
X002423Y032865D01*
X002482Y032795D01*
X002482Y032744D01*
X002645Y032744D02*
X002645Y032795D01*
X002704Y032865D01*
X002704Y032968D01*
X003048Y031744D02*
X003050Y031798D01*
X003056Y031853D01*
X003066Y031906D01*
X003079Y031959D01*
X003097Y032010D01*
X003118Y032061D01*
X003142Y032109D01*
X003170Y032156D01*
X003202Y032200D01*
X003236Y032242D01*
X003274Y032282D01*
X003314Y032319D01*
X003357Y032352D01*
X003402Y032383D01*
X003449Y032410D01*
X003498Y032434D01*
X003548Y032454D01*
X003600Y032471D01*
X003653Y032483D01*
X003707Y032492D01*
X003761Y032497D01*
X003816Y032498D01*
X003870Y032495D01*
X003924Y032488D01*
X003977Y032477D01*
X004030Y032463D01*
X004081Y032444D01*
X004131Y032422D01*
X004179Y032397D01*
X004225Y032368D01*
X004269Y032336D01*
X004311Y032301D01*
X004349Y032263D01*
X004385Y032222D01*
X004418Y032178D01*
X004448Y032133D01*
X004474Y032085D01*
X004497Y032036D01*
X004517Y031985D01*
X004532Y031933D01*
X004544Y031879D01*
X004552Y031826D01*
X004556Y031771D01*
X004556Y031717D01*
X004552Y031662D01*
X004544Y031609D01*
X004532Y031555D01*
X004517Y031503D01*
X004497Y031452D01*
X004474Y031403D01*
X004448Y031355D01*
X004418Y031310D01*
X004385Y031266D01*
X004349Y031225D01*
X004311Y031187D01*
X004269Y031152D01*
X004225Y031120D01*
X004179Y031091D01*
X004131Y031066D01*
X004081Y031044D01*
X004030Y031025D01*
X003977Y031011D01*
X003924Y031000D01*
X003870Y030993D01*
X003816Y030990D01*
X003761Y030991D01*
X003707Y030996D01*
X003653Y031005D01*
X003600Y031017D01*
X003548Y031034D01*
X003498Y031054D01*
X003449Y031078D01*
X003402Y031105D01*
X003357Y031136D01*
X003314Y031169D01*
X003274Y031206D01*
X003236Y031246D01*
X003202Y031288D01*
X003170Y031332D01*
X003142Y031379D01*
X003118Y031427D01*
X003097Y031478D01*
X003079Y031529D01*
X003066Y031582D01*
X003056Y031635D01*
X003050Y031690D01*
X003048Y031744D01*
X003048Y029744D02*
X003050Y029798D01*
X003056Y029853D01*
X003066Y029906D01*
X003079Y029959D01*
X003097Y030010D01*
X003118Y030061D01*
X003142Y030109D01*
X003170Y030156D01*
X003202Y030200D01*
X003236Y030242D01*
X003274Y030282D01*
X003314Y030319D01*
X003357Y030352D01*
X003402Y030383D01*
X003449Y030410D01*
X003498Y030434D01*
X003548Y030454D01*
X003600Y030471D01*
X003653Y030483D01*
X003707Y030492D01*
X003761Y030497D01*
X003816Y030498D01*
X003870Y030495D01*
X003924Y030488D01*
X003977Y030477D01*
X004030Y030463D01*
X004081Y030444D01*
X004131Y030422D01*
X004179Y030397D01*
X004225Y030368D01*
X004269Y030336D01*
X004311Y030301D01*
X004349Y030263D01*
X004385Y030222D01*
X004418Y030178D01*
X004448Y030133D01*
X004474Y030085D01*
X004497Y030036D01*
X004517Y029985D01*
X004532Y029933D01*
X004544Y029879D01*
X004552Y029826D01*
X004556Y029771D01*
X004556Y029717D01*
X004552Y029662D01*
X004544Y029609D01*
X004532Y029555D01*
X004517Y029503D01*
X004497Y029452D01*
X004474Y029403D01*
X004448Y029355D01*
X004418Y029310D01*
X004385Y029266D01*
X004349Y029225D01*
X004311Y029187D01*
X004269Y029152D01*
X004225Y029120D01*
X004179Y029091D01*
X004131Y029066D01*
X004081Y029044D01*
X004030Y029025D01*
X003977Y029011D01*
X003924Y029000D01*
X003870Y028993D01*
X003816Y028990D01*
X003761Y028991D01*
X003707Y028996D01*
X003653Y029005D01*
X003600Y029017D01*
X003548Y029034D01*
X003498Y029054D01*
X003449Y029078D01*
X003402Y029105D01*
X003357Y029136D01*
X003314Y029169D01*
X003274Y029206D01*
X003236Y029246D01*
X003202Y029288D01*
X003170Y029332D01*
X003142Y029379D01*
X003118Y029427D01*
X003097Y029478D01*
X003079Y029529D01*
X003066Y029582D01*
X003056Y029635D01*
X003050Y029690D01*
X003048Y029744D01*
X002704Y028970D02*
X002423Y028970D01*
X002423Y028866D01*
X002482Y028796D01*
X002482Y028745D01*
X002645Y028745D02*
X002645Y028796D01*
X002704Y028866D01*
X002704Y028970D01*
X003048Y027745D02*
X003050Y027799D01*
X003056Y027854D01*
X003066Y027907D01*
X003079Y027960D01*
X003097Y028011D01*
X003118Y028062D01*
X003142Y028110D01*
X003170Y028157D01*
X003202Y028201D01*
X003236Y028243D01*
X003274Y028283D01*
X003314Y028320D01*
X003357Y028353D01*
X003402Y028384D01*
X003449Y028411D01*
X003498Y028435D01*
X003548Y028455D01*
X003600Y028472D01*
X003653Y028484D01*
X003707Y028493D01*
X003761Y028498D01*
X003816Y028499D01*
X003870Y028496D01*
X003924Y028489D01*
X003977Y028478D01*
X004030Y028464D01*
X004081Y028445D01*
X004131Y028423D01*
X004179Y028398D01*
X004225Y028369D01*
X004269Y028337D01*
X004311Y028302D01*
X004349Y028264D01*
X004385Y028223D01*
X004418Y028179D01*
X004448Y028134D01*
X004474Y028086D01*
X004497Y028037D01*
X004517Y027986D01*
X004532Y027934D01*
X004544Y027880D01*
X004552Y027827D01*
X004556Y027772D01*
X004556Y027718D01*
X004552Y027663D01*
X004544Y027610D01*
X004532Y027556D01*
X004517Y027504D01*
X004497Y027453D01*
X004474Y027404D01*
X004448Y027356D01*
X004418Y027311D01*
X004385Y027267D01*
X004349Y027226D01*
X004311Y027188D01*
X004269Y027153D01*
X004225Y027121D01*
X004179Y027092D01*
X004131Y027067D01*
X004081Y027045D01*
X004030Y027026D01*
X003977Y027012D01*
X003924Y027001D01*
X003870Y026994D01*
X003816Y026991D01*
X003761Y026992D01*
X003707Y026997D01*
X003653Y027006D01*
X003600Y027018D01*
X003548Y027035D01*
X003498Y027055D01*
X003449Y027079D01*
X003402Y027106D01*
X003357Y027137D01*
X003314Y027170D01*
X003274Y027207D01*
X003236Y027247D01*
X003202Y027289D01*
X003170Y027333D01*
X003142Y027380D01*
X003118Y027428D01*
X003097Y027479D01*
X003079Y027530D01*
X003066Y027583D01*
X003056Y027636D01*
X003050Y027691D01*
X003048Y027745D01*
X003048Y025745D02*
X003050Y025799D01*
X003056Y025854D01*
X003066Y025907D01*
X003079Y025960D01*
X003097Y026011D01*
X003118Y026062D01*
X003142Y026110D01*
X003170Y026157D01*
X003202Y026201D01*
X003236Y026243D01*
X003274Y026283D01*
X003314Y026320D01*
X003357Y026353D01*
X003402Y026384D01*
X003449Y026411D01*
X003498Y026435D01*
X003548Y026455D01*
X003600Y026472D01*
X003653Y026484D01*
X003707Y026493D01*
X003761Y026498D01*
X003816Y026499D01*
X003870Y026496D01*
X003924Y026489D01*
X003977Y026478D01*
X004030Y026464D01*
X004081Y026445D01*
X004131Y026423D01*
X004179Y026398D01*
X004225Y026369D01*
X004269Y026337D01*
X004311Y026302D01*
X004349Y026264D01*
X004385Y026223D01*
X004418Y026179D01*
X004448Y026134D01*
X004474Y026086D01*
X004497Y026037D01*
X004517Y025986D01*
X004532Y025934D01*
X004544Y025880D01*
X004552Y025827D01*
X004556Y025772D01*
X004556Y025718D01*
X004552Y025663D01*
X004544Y025610D01*
X004532Y025556D01*
X004517Y025504D01*
X004497Y025453D01*
X004474Y025404D01*
X004448Y025356D01*
X004418Y025311D01*
X004385Y025267D01*
X004349Y025226D01*
X004311Y025188D01*
X004269Y025153D01*
X004225Y025121D01*
X004179Y025092D01*
X004131Y025067D01*
X004081Y025045D01*
X004030Y025026D01*
X003977Y025012D01*
X003924Y025001D01*
X003870Y024994D01*
X003816Y024991D01*
X003761Y024992D01*
X003707Y024997D01*
X003653Y025006D01*
X003600Y025018D01*
X003548Y025035D01*
X003498Y025055D01*
X003449Y025079D01*
X003402Y025106D01*
X003357Y025137D01*
X003314Y025170D01*
X003274Y025207D01*
X003236Y025247D01*
X003202Y025289D01*
X003170Y025333D01*
X003142Y025380D01*
X003118Y025428D01*
X003097Y025479D01*
X003079Y025530D01*
X003066Y025583D01*
X003056Y025636D01*
X003050Y025691D01*
X003048Y025745D01*
X002704Y024971D02*
X002423Y024971D01*
X002423Y024868D01*
X002482Y024798D01*
X002482Y024747D01*
X002645Y024747D02*
X002645Y024798D01*
X002704Y024868D01*
X002704Y024971D01*
X003048Y023747D02*
X003050Y023801D01*
X003056Y023856D01*
X003066Y023909D01*
X003079Y023962D01*
X003097Y024013D01*
X003118Y024064D01*
X003142Y024112D01*
X003170Y024159D01*
X003202Y024203D01*
X003236Y024245D01*
X003274Y024285D01*
X003314Y024322D01*
X003357Y024355D01*
X003402Y024386D01*
X003449Y024413D01*
X003498Y024437D01*
X003548Y024457D01*
X003600Y024474D01*
X003653Y024486D01*
X003707Y024495D01*
X003761Y024500D01*
X003816Y024501D01*
X003870Y024498D01*
X003924Y024491D01*
X003977Y024480D01*
X004030Y024466D01*
X004081Y024447D01*
X004131Y024425D01*
X004179Y024400D01*
X004225Y024371D01*
X004269Y024339D01*
X004311Y024304D01*
X004349Y024266D01*
X004385Y024225D01*
X004418Y024181D01*
X004448Y024136D01*
X004474Y024088D01*
X004497Y024039D01*
X004517Y023988D01*
X004532Y023936D01*
X004544Y023882D01*
X004552Y023829D01*
X004556Y023774D01*
X004556Y023720D01*
X004552Y023665D01*
X004544Y023612D01*
X004532Y023558D01*
X004517Y023506D01*
X004497Y023455D01*
X004474Y023406D01*
X004448Y023358D01*
X004418Y023313D01*
X004385Y023269D01*
X004349Y023228D01*
X004311Y023190D01*
X004269Y023155D01*
X004225Y023123D01*
X004179Y023094D01*
X004131Y023069D01*
X004081Y023047D01*
X004030Y023028D01*
X003977Y023014D01*
X003924Y023003D01*
X003870Y022996D01*
X003816Y022993D01*
X003761Y022994D01*
X003707Y022999D01*
X003653Y023008D01*
X003600Y023020D01*
X003548Y023037D01*
X003498Y023057D01*
X003449Y023081D01*
X003402Y023108D01*
X003357Y023139D01*
X003314Y023172D01*
X003274Y023209D01*
X003236Y023249D01*
X003202Y023291D01*
X003170Y023335D01*
X003142Y023382D01*
X003118Y023430D01*
X003097Y023481D01*
X003079Y023532D01*
X003066Y023585D01*
X003056Y023638D01*
X003050Y023693D01*
X003048Y023747D01*
X003048Y021747D02*
X003050Y021801D01*
X003056Y021856D01*
X003066Y021909D01*
X003079Y021962D01*
X003097Y022013D01*
X003118Y022064D01*
X003142Y022112D01*
X003170Y022159D01*
X003202Y022203D01*
X003236Y022245D01*
X003274Y022285D01*
X003314Y022322D01*
X003357Y022355D01*
X003402Y022386D01*
X003449Y022413D01*
X003498Y022437D01*
X003548Y022457D01*
X003600Y022474D01*
X003653Y022486D01*
X003707Y022495D01*
X003761Y022500D01*
X003816Y022501D01*
X003870Y022498D01*
X003924Y022491D01*
X003977Y022480D01*
X004030Y022466D01*
X004081Y022447D01*
X004131Y022425D01*
X004179Y022400D01*
X004225Y022371D01*
X004269Y022339D01*
X004311Y022304D01*
X004349Y022266D01*
X004385Y022225D01*
X004418Y022181D01*
X004448Y022136D01*
X004474Y022088D01*
X004497Y022039D01*
X004517Y021988D01*
X004532Y021936D01*
X004544Y021882D01*
X004552Y021829D01*
X004556Y021774D01*
X004556Y021720D01*
X004552Y021665D01*
X004544Y021612D01*
X004532Y021558D01*
X004517Y021506D01*
X004497Y021455D01*
X004474Y021406D01*
X004448Y021358D01*
X004418Y021313D01*
X004385Y021269D01*
X004349Y021228D01*
X004311Y021190D01*
X004269Y021155D01*
X004225Y021123D01*
X004179Y021094D01*
X004131Y021069D01*
X004081Y021047D01*
X004030Y021028D01*
X003977Y021014D01*
X003924Y021003D01*
X003870Y020996D01*
X003816Y020993D01*
X003761Y020994D01*
X003707Y020999D01*
X003653Y021008D01*
X003600Y021020D01*
X003548Y021037D01*
X003498Y021057D01*
X003449Y021081D01*
X003402Y021108D01*
X003357Y021139D01*
X003314Y021172D01*
X003274Y021209D01*
X003236Y021249D01*
X003202Y021291D01*
X003170Y021335D01*
X003142Y021382D01*
X003118Y021430D01*
X003097Y021481D01*
X003079Y021532D01*
X003066Y021585D01*
X003056Y021638D01*
X003050Y021693D01*
X003048Y021747D01*
X002704Y020973D02*
X002423Y020973D01*
X002423Y020869D01*
X002482Y020799D01*
X002482Y020748D01*
X002645Y020748D02*
X002645Y020799D01*
X002704Y020869D01*
X002704Y020973D01*
X003048Y019748D02*
X003050Y019802D01*
X003056Y019857D01*
X003066Y019910D01*
X003079Y019963D01*
X003097Y020014D01*
X003118Y020065D01*
X003142Y020113D01*
X003170Y020160D01*
X003202Y020204D01*
X003236Y020246D01*
X003274Y020286D01*
X003314Y020323D01*
X003357Y020356D01*
X003402Y020387D01*
X003449Y020414D01*
X003498Y020438D01*
X003548Y020458D01*
X003600Y020475D01*
X003653Y020487D01*
X003707Y020496D01*
X003761Y020501D01*
X003816Y020502D01*
X003870Y020499D01*
X003924Y020492D01*
X003977Y020481D01*
X004030Y020467D01*
X004081Y020448D01*
X004131Y020426D01*
X004179Y020401D01*
X004225Y020372D01*
X004269Y020340D01*
X004311Y020305D01*
X004349Y020267D01*
X004385Y020226D01*
X004418Y020182D01*
X004448Y020137D01*
X004474Y020089D01*
X004497Y020040D01*
X004517Y019989D01*
X004532Y019937D01*
X004544Y019883D01*
X004552Y019830D01*
X004556Y019775D01*
X004556Y019721D01*
X004552Y019666D01*
X004544Y019613D01*
X004532Y019559D01*
X004517Y019507D01*
X004497Y019456D01*
X004474Y019407D01*
X004448Y019359D01*
X004418Y019314D01*
X004385Y019270D01*
X004349Y019229D01*
X004311Y019191D01*
X004269Y019156D01*
X004225Y019124D01*
X004179Y019095D01*
X004131Y019070D01*
X004081Y019048D01*
X004030Y019029D01*
X003977Y019015D01*
X003924Y019004D01*
X003870Y018997D01*
X003816Y018994D01*
X003761Y018995D01*
X003707Y019000D01*
X003653Y019009D01*
X003600Y019021D01*
X003548Y019038D01*
X003498Y019058D01*
X003449Y019082D01*
X003402Y019109D01*
X003357Y019140D01*
X003314Y019173D01*
X003274Y019210D01*
X003236Y019250D01*
X003202Y019292D01*
X003170Y019336D01*
X003142Y019383D01*
X003118Y019431D01*
X003097Y019482D01*
X003079Y019533D01*
X003066Y019586D01*
X003056Y019639D01*
X003050Y019694D01*
X003048Y019748D01*
X048595Y013024D02*
X048595Y011095D01*
X049540Y011095D01*
X049540Y013024D01*
X048595Y013024D01*
D12*
X048727Y013197D02*
X048727Y013371D01*
X048814Y013492D02*
X048727Y013579D01*
X048814Y013665D01*
X048987Y013665D01*
X048987Y013787D02*
X048727Y013787D01*
X048987Y013960D01*
X048727Y013960D01*
X048857Y013665D02*
X048857Y013492D01*
X048814Y013492D02*
X048987Y013492D01*
X048857Y013284D02*
X048857Y013197D01*
X048987Y013197D02*
X048727Y013197D01*
X046615Y013155D02*
X046615Y011555D01*
X045615Y011555D01*
X045615Y013155D01*
X046615Y013155D01*
X046365Y012755D02*
X046115Y012355D01*
X046365Y012355D01*
X046115Y012355D02*
X045865Y012355D01*
X046115Y012355D02*
X045865Y012755D01*
X046365Y012755D01*
X046115Y012955D02*
X046115Y012355D01*
X046115Y012105D01*
X045080Y010706D02*
X044630Y010706D01*
X044030Y010806D01*
X044030Y011156D01*
X044030Y011556D02*
X044030Y012056D01*
X044030Y012456D02*
X044030Y012956D01*
X044030Y013356D02*
X044030Y013706D01*
X044630Y013806D01*
X045080Y013806D01*
X047542Y016193D02*
X047292Y016443D01*
X047292Y016943D01*
X047542Y017193D01*
X047292Y017443D01*
X047292Y017943D01*
X047542Y018193D01*
X047292Y018443D01*
X047292Y018943D01*
X047542Y019193D01*
X047292Y019443D01*
X047292Y019943D01*
X047542Y020193D01*
X047292Y020443D01*
X047292Y020943D01*
X047542Y021193D01*
X047292Y021443D01*
X047292Y021943D01*
X047542Y022193D01*
X047292Y022443D01*
X047292Y022943D01*
X047542Y023193D01*
X047292Y023443D01*
X047292Y023943D01*
X047542Y024193D01*
X047292Y024443D01*
X047292Y024943D01*
X047542Y025193D01*
X047292Y025443D01*
X047292Y025943D01*
X047542Y026193D01*
X047292Y026443D01*
X047292Y026943D01*
X047542Y027193D01*
X047292Y027443D01*
X047292Y027943D01*
X047542Y028193D01*
X047292Y028443D01*
X047292Y028943D01*
X047542Y029193D01*
X047292Y029443D01*
X047292Y029943D01*
X047542Y030193D01*
X047292Y030443D01*
X047292Y030943D01*
X047542Y031193D01*
X047292Y031443D01*
X047292Y031943D01*
X047542Y032193D01*
X047292Y032443D01*
X047292Y032943D01*
X047542Y033193D01*
X047292Y033443D01*
X047292Y033943D01*
X047542Y034193D01*
X047292Y034443D01*
X047292Y034943D01*
X047542Y035193D01*
X047292Y035443D01*
X047292Y035943D01*
X047542Y036193D01*
X049042Y036193D01*
X049292Y035943D01*
X049292Y035443D01*
X049042Y035193D01*
X049292Y034943D01*
X049292Y034443D01*
X049042Y034193D01*
X049292Y033943D01*
X049292Y033443D01*
X049042Y033193D01*
X049292Y032943D01*
X049292Y032443D01*
X049042Y032193D01*
X049292Y031943D01*
X049292Y031443D01*
X049042Y031193D01*
X049292Y030943D01*
X049292Y030443D01*
X049042Y030193D01*
X049292Y029943D01*
X049292Y029443D01*
X049042Y029193D01*
X049292Y028943D01*
X049292Y028443D01*
X049042Y028193D01*
X049292Y027943D01*
X049292Y027443D01*
X049042Y027193D01*
X049292Y026943D01*
X049292Y026443D01*
X049042Y026193D01*
X049292Y025943D01*
X049292Y025443D01*
X049042Y025193D01*
X049292Y024943D01*
X049292Y024443D01*
X049042Y024193D01*
X049292Y023943D01*
X049292Y023443D01*
X049042Y023193D01*
X049292Y022943D01*
X049292Y022443D01*
X049042Y022193D01*
X049292Y021943D01*
X049292Y021443D01*
X049042Y021193D01*
X049292Y020943D01*
X049292Y020443D01*
X049042Y020193D01*
X049292Y019943D01*
X049292Y019443D01*
X049042Y019193D01*
X049292Y018943D01*
X049292Y018443D01*
X049042Y018193D01*
X049292Y017943D01*
X049292Y017443D01*
X049042Y017193D01*
X049292Y016943D01*
X049292Y016443D01*
X049042Y016193D01*
X047542Y016193D01*
X042319Y020507D02*
X042146Y020507D01*
X042233Y020507D02*
X042233Y020767D01*
X042146Y020681D01*
X042025Y020767D02*
X042025Y020551D01*
X041981Y020507D01*
X041895Y020507D01*
X041851Y020551D01*
X041851Y020767D01*
X041940Y021666D02*
X040840Y021666D01*
X040840Y021816D01*
X041940Y021816D01*
X041990Y021816D01*
X041990Y024816D01*
X041988Y024833D01*
X041984Y024850D01*
X041977Y024866D01*
X041967Y024880D01*
X041954Y024893D01*
X041940Y024903D01*
X041924Y024910D01*
X041907Y024914D01*
X041890Y024916D01*
X040890Y024916D01*
X040873Y024914D01*
X040856Y024910D01*
X040840Y024903D01*
X040826Y024893D01*
X040813Y024880D01*
X040803Y024866D01*
X040796Y024850D01*
X040792Y024833D01*
X040790Y024816D01*
X040790Y021816D01*
X040840Y021816D01*
X041390Y022716D02*
X041390Y022916D01*
X041690Y022916D01*
X041690Y023066D02*
X041690Y023216D01*
X041090Y023216D01*
X041090Y023066D01*
X041690Y023066D01*
X041690Y023366D02*
X041390Y023366D01*
X041390Y023566D01*
X041390Y023366D02*
X041090Y023366D01*
X041090Y022916D02*
X041390Y022916D01*
X041940Y021816D02*
X041940Y021666D01*
X041596Y012264D02*
X040396Y012264D01*
X040352Y012262D01*
X040309Y012256D01*
X040267Y012247D01*
X040225Y012234D01*
X040185Y012217D01*
X040146Y012197D01*
X040109Y012174D01*
X040075Y012147D01*
X040042Y012118D01*
X040013Y012085D01*
X039986Y012051D01*
X039963Y012014D01*
X039943Y011975D01*
X039926Y011935D01*
X039913Y011893D01*
X039904Y011851D01*
X039898Y011808D01*
X039896Y011764D01*
X039898Y011720D01*
X039904Y011677D01*
X039913Y011635D01*
X039926Y011593D01*
X039943Y011553D01*
X039963Y011514D01*
X039986Y011477D01*
X040013Y011443D01*
X040042Y011410D01*
X040075Y011381D01*
X040109Y011354D01*
X040146Y011331D01*
X040185Y011311D01*
X040225Y011294D01*
X040267Y011281D01*
X040309Y011272D01*
X040352Y011266D01*
X040396Y011264D01*
X041596Y011264D01*
X041640Y011266D01*
X041683Y011272D01*
X041725Y011281D01*
X041767Y011294D01*
X041807Y011311D01*
X041846Y011331D01*
X041883Y011354D01*
X041917Y011381D01*
X041950Y011410D01*
X041979Y011443D01*
X042006Y011477D01*
X042029Y011514D01*
X042049Y011553D01*
X042066Y011593D01*
X042079Y011635D01*
X042088Y011677D01*
X042094Y011720D01*
X042096Y011764D01*
X042094Y011808D01*
X042088Y011851D01*
X042079Y011893D01*
X042066Y011935D01*
X042049Y011975D01*
X042029Y012014D01*
X042006Y012051D01*
X041979Y012085D01*
X041950Y012118D01*
X041917Y012147D01*
X041883Y012174D01*
X041846Y012197D01*
X041807Y012217D01*
X041767Y012234D01*
X041725Y012247D01*
X041683Y012256D01*
X041640Y012262D01*
X041596Y012264D01*
X041496Y011264D02*
X041449Y011232D01*
X041400Y011202D01*
X041350Y011177D01*
X041297Y011154D01*
X041244Y011136D01*
X041189Y011121D01*
X041133Y011109D01*
X041077Y011102D01*
X041020Y011098D01*
X040963Y011099D01*
X040906Y011103D01*
X040850Y011111D01*
X040794Y011123D01*
X040739Y011138D01*
X040686Y011158D01*
X040634Y011181D01*
X040583Y011207D01*
X040535Y011237D01*
X040489Y011270D01*
X040496Y012264D02*
X040543Y012296D01*
X040592Y012326D01*
X040642Y012351D01*
X040695Y012374D01*
X040748Y012392D01*
X040803Y012407D01*
X040859Y012419D01*
X040915Y012426D01*
X040972Y012430D01*
X041029Y012429D01*
X041086Y012425D01*
X041142Y012417D01*
X041198Y012405D01*
X041253Y012390D01*
X041306Y012370D01*
X041358Y012347D01*
X041409Y012321D01*
X041457Y012291D01*
X041503Y012258D01*
X041949Y009687D02*
X041949Y008487D01*
X045949Y008487D01*
X045949Y007887D01*
X045949Y007487D01*
X045579Y007487D01*
X045579Y007337D02*
X045729Y007337D01*
X045729Y005537D01*
X045729Y004787D01*
X045949Y004787D01*
X045949Y005187D01*
X045949Y005637D01*
X045949Y007487D01*
X045886Y007487D02*
X046246Y007487D01*
X046246Y007337D02*
X046096Y007337D01*
X046096Y005537D01*
X046096Y004787D01*
X047696Y004787D01*
X048066Y004787D01*
X049666Y004787D01*
X049666Y005537D01*
X048066Y005537D01*
X048066Y007337D01*
X048216Y007337D01*
X048216Y007487D02*
X047546Y007487D01*
X047546Y007337D02*
X047696Y007337D01*
X047696Y005537D01*
X046096Y005537D01*
X045949Y005637D02*
X046149Y005737D01*
X046149Y005087D01*
X045949Y005187D01*
X045886Y004787D02*
X045886Y007487D01*
X045886Y008487D01*
X045886Y009687D01*
X049886Y009687D01*
X050086Y009687D01*
X050086Y007787D01*
X049886Y007887D01*
X049886Y008487D01*
X045886Y008487D01*
X045949Y008487D02*
X045949Y009687D01*
X046149Y009687D01*
X046149Y007787D01*
X045949Y007887D01*
X046096Y008587D02*
X046096Y009587D01*
X047696Y009587D01*
X047696Y008587D01*
X046096Y008587D01*
X045729Y008587D02*
X044129Y008587D01*
X044129Y009587D01*
X045729Y009587D01*
X045729Y008587D01*
X045507Y008845D02*
X045529Y008867D01*
X045548Y008890D01*
X045564Y008916D01*
X045577Y008943D01*
X045587Y008972D01*
X045594Y009001D01*
X045598Y009032D01*
X045598Y009062D01*
X045594Y009092D01*
X045587Y009122D01*
X045577Y009150D01*
X045564Y009178D01*
X045548Y009203D01*
X045529Y009227D01*
X045489Y009237D02*
X044289Y008987D01*
X044339Y008937D02*
X045539Y009187D01*
X045949Y009687D02*
X041949Y009687D01*
X042012Y009687D02*
X042212Y009687D01*
X042212Y007787D01*
X042012Y007887D01*
X042012Y008487D01*
X038012Y008487D01*
X038012Y009687D01*
X042012Y009687D01*
X042012Y008487D01*
X041949Y008487D02*
X041949Y007487D01*
X042309Y007487D01*
X042309Y007337D02*
X042159Y007337D01*
X042159Y005537D01*
X042159Y004787D01*
X043759Y004787D01*
X044129Y004787D01*
X045729Y004787D01*
X045886Y004787D02*
X046096Y004787D01*
X045729Y005537D02*
X044129Y005537D01*
X044129Y007337D01*
X044279Y007337D01*
X044279Y007487D02*
X043609Y007487D01*
X043609Y007337D02*
X043759Y007337D01*
X043759Y005537D01*
X042159Y005537D01*
X042012Y005637D02*
X042012Y007487D01*
X041642Y007487D01*
X041642Y007337D02*
X041792Y007337D01*
X041792Y005537D01*
X041792Y004787D01*
X042012Y004787D01*
X042012Y005187D01*
X042012Y005637D01*
X042212Y005737D01*
X042212Y005087D01*
X042012Y005187D01*
X041949Y004787D02*
X041949Y007487D01*
X042012Y007487D02*
X042012Y007887D01*
X042159Y008587D02*
X042159Y009587D01*
X043759Y009587D01*
X043759Y008587D01*
X042159Y008587D01*
X041792Y008587D02*
X040192Y008587D01*
X040192Y009587D01*
X041792Y009587D01*
X041792Y008587D01*
X041570Y008845D02*
X041592Y008867D01*
X041611Y008890D01*
X041627Y008916D01*
X041640Y008943D01*
X041650Y008972D01*
X041657Y009001D01*
X041661Y009032D01*
X041661Y009062D01*
X041657Y009092D01*
X041650Y009122D01*
X041640Y009150D01*
X041627Y009178D01*
X041611Y009203D01*
X041592Y009227D01*
X041552Y009237D02*
X040352Y008987D01*
X040402Y008937D02*
X041602Y009187D01*
X041588Y008859D02*
X041539Y008824D01*
X041487Y008793D01*
X041434Y008765D01*
X041379Y008740D01*
X041323Y008719D01*
X041265Y008701D01*
X041207Y008687D01*
X041147Y008677D01*
X041087Y008670D01*
X041027Y008667D01*
X040967Y008668D01*
X040907Y008673D01*
X040847Y008681D01*
X040788Y008693D01*
X040730Y008709D01*
X040673Y008729D01*
X040617Y008752D01*
X040563Y008778D01*
X040511Y008808D01*
X040460Y008841D01*
X040412Y008877D01*
X040429Y008863D02*
X040403Y008880D01*
X040380Y008899D01*
X040360Y008922D01*
X040343Y008946D01*
X040329Y008973D01*
X040318Y009002D01*
X040312Y009031D01*
X040309Y009061D01*
X040310Y009092D01*
X040315Y009121D01*
X040324Y009150D01*
X040337Y009178D01*
X040353Y009203D01*
X040372Y009227D01*
X039822Y009587D02*
X039822Y008587D01*
X038222Y008587D01*
X038222Y009587D01*
X039822Y009587D01*
X039582Y009237D02*
X038382Y008987D01*
X038432Y008937D02*
X039632Y009187D01*
X039622Y009227D02*
X039641Y009203D01*
X039657Y009178D01*
X039670Y009150D01*
X039680Y009122D01*
X039687Y009092D01*
X039691Y009062D01*
X039691Y009032D01*
X039687Y009001D01*
X039680Y008972D01*
X039670Y008943D01*
X039657Y008916D01*
X039641Y008890D01*
X039622Y008867D01*
X039600Y008845D01*
X039624Y009229D02*
X039587Y009269D01*
X039547Y009306D01*
X039505Y009341D01*
X039461Y009372D01*
X039415Y009401D01*
X039367Y009426D01*
X039317Y009449D01*
X039266Y009467D01*
X039214Y009483D01*
X039160Y009494D01*
X039107Y009502D01*
X039052Y009507D01*
X038998Y009508D01*
X038943Y009505D01*
X038889Y009499D01*
X038836Y009489D01*
X038783Y009475D01*
X038732Y009458D01*
X038681Y009437D01*
X038632Y009414D01*
X038585Y009386D01*
X038540Y009356D01*
X038496Y009323D01*
X038456Y009287D01*
X038417Y009248D01*
X038382Y009207D01*
X038402Y009227D02*
X038383Y009203D01*
X038367Y009178D01*
X038354Y009150D01*
X038345Y009121D01*
X038340Y009092D01*
X038339Y009061D01*
X038342Y009031D01*
X038348Y009002D01*
X038359Y008973D01*
X038373Y008946D01*
X038390Y008922D01*
X038410Y008899D01*
X038433Y008880D01*
X038459Y008863D01*
X038012Y008487D02*
X038012Y007487D01*
X038372Y007487D01*
X038372Y007337D02*
X038222Y007337D01*
X038222Y005537D01*
X038222Y004787D01*
X039822Y004787D01*
X040192Y004787D01*
X041792Y004787D01*
X041949Y004787D02*
X042159Y004787D01*
X041792Y005537D02*
X040192Y005537D01*
X040192Y007337D01*
X040342Y007337D01*
X040342Y007487D02*
X039672Y007487D01*
X039672Y007337D02*
X039822Y007337D01*
X039822Y005537D01*
X038222Y005537D01*
X038372Y005787D02*
X038372Y007037D01*
X038012Y007487D02*
X038012Y004787D01*
X038222Y004787D01*
X038372Y005787D02*
X039672Y005787D01*
X039672Y007037D01*
X040342Y007037D02*
X040342Y005787D01*
X041642Y005787D01*
X041642Y007037D01*
X042309Y007037D02*
X042309Y005787D01*
X043609Y005787D01*
X043609Y007037D01*
X044279Y007037D02*
X044279Y005787D01*
X045579Y005787D01*
X045579Y007037D01*
X046246Y007037D02*
X046246Y005787D01*
X047546Y005787D01*
X047546Y007037D01*
X048216Y007037D02*
X048216Y005787D01*
X049516Y005787D01*
X049516Y007037D01*
X049516Y007337D02*
X049666Y007337D01*
X049666Y005537D01*
X049886Y005637D02*
X049886Y007487D01*
X049516Y007487D01*
X049886Y007487D02*
X049886Y007887D01*
X049886Y008487D02*
X049886Y009687D01*
X049666Y009587D02*
X049666Y008587D01*
X048066Y008587D01*
X048066Y009587D01*
X049666Y009587D01*
X049426Y009237D02*
X048226Y008987D01*
X048276Y008937D02*
X049476Y009187D01*
X049466Y009227D02*
X049485Y009203D01*
X049501Y009178D01*
X049514Y009150D01*
X049524Y009122D01*
X049531Y009092D01*
X049535Y009062D01*
X049535Y009032D01*
X049531Y009001D01*
X049524Y008972D01*
X049514Y008943D01*
X049501Y008916D01*
X049485Y008890D01*
X049466Y008867D01*
X049444Y008845D01*
X049468Y009229D02*
X049431Y009269D01*
X049391Y009306D01*
X049349Y009341D01*
X049305Y009372D01*
X049259Y009401D01*
X049211Y009426D01*
X049161Y009448D01*
X049110Y009467D01*
X049058Y009483D01*
X049004Y009494D01*
X048951Y009502D01*
X048896Y009507D01*
X048842Y009508D01*
X048788Y009505D01*
X048733Y009499D01*
X048680Y009489D01*
X048627Y009475D01*
X048576Y009458D01*
X048525Y009437D01*
X048476Y009414D01*
X048429Y009386D01*
X048384Y009356D01*
X048341Y009323D01*
X048300Y009287D01*
X048261Y009248D01*
X048226Y009207D01*
X048246Y009227D02*
X048227Y009203D01*
X048211Y009178D01*
X048198Y009150D01*
X048189Y009121D01*
X048184Y009092D01*
X048183Y009061D01*
X048186Y009031D01*
X048192Y009002D01*
X048203Y008973D01*
X048217Y008946D01*
X048234Y008922D01*
X048254Y008899D01*
X048277Y008880D01*
X048303Y008863D01*
X047506Y009187D02*
X046306Y008937D01*
X046256Y008987D02*
X047456Y009237D01*
X047496Y009227D02*
X047515Y009203D01*
X047531Y009178D01*
X047544Y009150D01*
X047554Y009122D01*
X047561Y009092D01*
X047565Y009062D01*
X047565Y009032D01*
X047561Y009001D01*
X047554Y008972D01*
X047544Y008943D01*
X047531Y008916D01*
X047515Y008890D01*
X047496Y008867D01*
X047474Y008845D01*
X047498Y009229D02*
X047461Y009269D01*
X047421Y009306D01*
X047379Y009341D01*
X047335Y009372D01*
X047289Y009401D01*
X047241Y009426D01*
X047191Y009449D01*
X047140Y009467D01*
X047088Y009483D01*
X047034Y009494D01*
X046981Y009502D01*
X046926Y009507D01*
X046872Y009508D01*
X046817Y009505D01*
X046763Y009499D01*
X046710Y009489D01*
X046657Y009475D01*
X046606Y009458D01*
X046555Y009437D01*
X046506Y009414D01*
X046459Y009386D01*
X046414Y009356D01*
X046370Y009323D01*
X046330Y009287D01*
X046291Y009248D01*
X046256Y009207D01*
X046276Y009227D02*
X046257Y009203D01*
X046241Y009178D01*
X046228Y009150D01*
X046219Y009121D01*
X046214Y009092D01*
X046213Y009061D01*
X046216Y009031D01*
X046222Y009002D01*
X046233Y008973D01*
X046247Y008946D01*
X046264Y008922D01*
X046284Y008899D01*
X046307Y008880D01*
X046333Y008863D01*
X046316Y008877D02*
X046364Y008841D01*
X046415Y008808D01*
X046467Y008778D01*
X046521Y008752D01*
X046577Y008729D01*
X046634Y008709D01*
X046692Y008693D01*
X046751Y008681D01*
X046811Y008673D01*
X046871Y008668D01*
X046931Y008667D01*
X046991Y008670D01*
X047051Y008677D01*
X047111Y008687D01*
X047169Y008701D01*
X047227Y008719D01*
X047283Y008740D01*
X047338Y008765D01*
X047391Y008793D01*
X047443Y008824D01*
X047492Y008859D01*
X048286Y008877D02*
X048334Y008841D01*
X048385Y008808D01*
X048437Y008778D01*
X048491Y008752D01*
X048547Y008729D01*
X048604Y008709D01*
X048662Y008693D01*
X048721Y008681D01*
X048781Y008673D01*
X048841Y008668D01*
X048901Y008667D01*
X048961Y008670D01*
X049021Y008677D01*
X049081Y008687D01*
X049139Y008701D01*
X049197Y008719D01*
X049253Y008740D01*
X049308Y008765D01*
X049361Y008793D01*
X049413Y008824D01*
X049462Y008859D01*
X050086Y005737D02*
X050086Y005087D01*
X049886Y005187D01*
X049886Y005637D01*
X050086Y005737D01*
X049886Y005187D02*
X049886Y004787D01*
X049666Y004787D01*
X048066Y004787D02*
X048066Y005537D01*
X047696Y005537D02*
X047696Y004787D01*
X045531Y009229D02*
X045494Y009269D01*
X045454Y009306D01*
X045412Y009341D01*
X045368Y009372D01*
X045322Y009401D01*
X045274Y009426D01*
X045224Y009448D01*
X045173Y009467D01*
X045121Y009483D01*
X045067Y009494D01*
X045014Y009502D01*
X044959Y009507D01*
X044905Y009508D01*
X044851Y009505D01*
X044796Y009499D01*
X044743Y009489D01*
X044690Y009475D01*
X044639Y009458D01*
X044588Y009437D01*
X044539Y009414D01*
X044492Y009386D01*
X044447Y009356D01*
X044404Y009323D01*
X044363Y009287D01*
X044324Y009248D01*
X044289Y009207D01*
X044309Y009227D02*
X044290Y009203D01*
X044274Y009178D01*
X044261Y009150D01*
X044252Y009121D01*
X044247Y009092D01*
X044246Y009061D01*
X044249Y009031D01*
X044255Y009002D01*
X044266Y008973D01*
X044280Y008946D01*
X044297Y008922D01*
X044317Y008899D01*
X044340Y008880D01*
X044366Y008863D01*
X043569Y009187D02*
X042369Y008937D01*
X042319Y008987D02*
X043519Y009237D01*
X043559Y009227D02*
X043578Y009203D01*
X043594Y009178D01*
X043607Y009150D01*
X043617Y009122D01*
X043624Y009092D01*
X043628Y009062D01*
X043628Y009032D01*
X043624Y009001D01*
X043617Y008972D01*
X043607Y008943D01*
X043594Y008916D01*
X043578Y008890D01*
X043559Y008867D01*
X043537Y008845D01*
X043561Y009229D02*
X043524Y009269D01*
X043484Y009306D01*
X043442Y009341D01*
X043398Y009372D01*
X043352Y009401D01*
X043304Y009426D01*
X043254Y009449D01*
X043203Y009467D01*
X043151Y009483D01*
X043097Y009494D01*
X043044Y009502D01*
X042989Y009507D01*
X042935Y009508D01*
X042880Y009505D01*
X042826Y009499D01*
X042773Y009489D01*
X042720Y009475D01*
X042669Y009458D01*
X042618Y009437D01*
X042569Y009414D01*
X042522Y009386D01*
X042477Y009356D01*
X042433Y009323D01*
X042393Y009287D01*
X042354Y009248D01*
X042319Y009207D01*
X042339Y009227D02*
X042320Y009203D01*
X042304Y009178D01*
X042291Y009150D01*
X042282Y009121D01*
X042277Y009092D01*
X042276Y009061D01*
X042279Y009031D01*
X042285Y009002D01*
X042296Y008973D01*
X042310Y008946D01*
X042327Y008922D01*
X042347Y008899D01*
X042370Y008880D01*
X042396Y008863D01*
X042379Y008877D02*
X042427Y008841D01*
X042478Y008808D01*
X042530Y008778D01*
X042584Y008752D01*
X042640Y008729D01*
X042697Y008709D01*
X042755Y008693D01*
X042814Y008681D01*
X042874Y008673D01*
X042934Y008668D01*
X042994Y008667D01*
X043054Y008670D01*
X043114Y008677D01*
X043174Y008687D01*
X043232Y008701D01*
X043290Y008719D01*
X043346Y008740D01*
X043401Y008765D01*
X043454Y008793D01*
X043506Y008824D01*
X043555Y008859D01*
X044349Y008877D02*
X044397Y008841D01*
X044448Y008808D01*
X044500Y008778D01*
X044554Y008752D01*
X044610Y008729D01*
X044667Y008709D01*
X044725Y008693D01*
X044784Y008681D01*
X044844Y008673D01*
X044904Y008668D01*
X044964Y008667D01*
X045024Y008670D01*
X045084Y008677D01*
X045144Y008687D01*
X045202Y008701D01*
X045260Y008719D01*
X045316Y008740D01*
X045371Y008765D01*
X045424Y008793D01*
X045476Y008824D01*
X045525Y008859D01*
X044129Y005537D02*
X044129Y004787D01*
X043759Y004787D02*
X043759Y005537D01*
X041594Y009229D02*
X041557Y009269D01*
X041517Y009306D01*
X041475Y009341D01*
X041431Y009372D01*
X041385Y009401D01*
X041337Y009426D01*
X041287Y009448D01*
X041236Y009467D01*
X041184Y009483D01*
X041130Y009494D01*
X041077Y009502D01*
X041022Y009507D01*
X040968Y009508D01*
X040914Y009505D01*
X040859Y009499D01*
X040806Y009489D01*
X040753Y009475D01*
X040702Y009458D01*
X040651Y009437D01*
X040602Y009414D01*
X040555Y009386D01*
X040510Y009356D01*
X040467Y009323D01*
X040426Y009287D01*
X040387Y009248D01*
X040352Y009207D01*
X039618Y008859D02*
X039569Y008824D01*
X039517Y008793D01*
X039464Y008765D01*
X039409Y008740D01*
X039353Y008719D01*
X039295Y008701D01*
X039237Y008687D01*
X039177Y008677D01*
X039117Y008670D01*
X039057Y008667D01*
X038997Y008668D01*
X038937Y008673D01*
X038877Y008681D01*
X038818Y008693D01*
X038760Y008709D01*
X038703Y008729D01*
X038647Y008752D01*
X038593Y008778D01*
X038541Y008808D01*
X038490Y008841D01*
X038442Y008877D01*
X036307Y009687D02*
X036307Y007787D01*
X036107Y007887D01*
X036107Y008487D01*
X032107Y008487D01*
X032107Y009687D01*
X036107Y009687D01*
X036307Y009687D01*
X036107Y009687D02*
X036107Y008487D01*
X035887Y008587D02*
X034287Y008587D01*
X034287Y009587D01*
X035887Y009587D01*
X035887Y008587D01*
X035665Y008845D02*
X035687Y008867D01*
X035706Y008890D01*
X035722Y008916D01*
X035735Y008943D01*
X035745Y008972D01*
X035752Y009001D01*
X035756Y009032D01*
X035756Y009062D01*
X035752Y009092D01*
X035745Y009122D01*
X035735Y009150D01*
X035722Y009178D01*
X035706Y009203D01*
X035687Y009227D01*
X035647Y009237D02*
X034447Y008987D01*
X034497Y008937D02*
X035697Y009187D01*
X035683Y008859D02*
X035634Y008824D01*
X035582Y008793D01*
X035529Y008765D01*
X035474Y008740D01*
X035418Y008719D01*
X035360Y008701D01*
X035302Y008687D01*
X035242Y008677D01*
X035182Y008670D01*
X035122Y008667D01*
X035062Y008668D01*
X035002Y008673D01*
X034942Y008681D01*
X034883Y008693D01*
X034825Y008709D01*
X034768Y008729D01*
X034712Y008752D01*
X034658Y008778D01*
X034606Y008808D01*
X034555Y008841D01*
X034507Y008877D01*
X034524Y008863D02*
X034498Y008880D01*
X034475Y008899D01*
X034455Y008922D01*
X034438Y008946D01*
X034424Y008973D01*
X034413Y009002D01*
X034407Y009031D01*
X034404Y009061D01*
X034405Y009092D01*
X034410Y009121D01*
X034419Y009150D01*
X034432Y009178D01*
X034448Y009203D01*
X034467Y009227D01*
X033917Y009587D02*
X033917Y008587D01*
X032317Y008587D01*
X032317Y009587D01*
X033917Y009587D01*
X033677Y009237D02*
X032477Y008987D01*
X032527Y008937D02*
X033727Y009187D01*
X033717Y009227D02*
X033736Y009203D01*
X033752Y009178D01*
X033765Y009150D01*
X033775Y009122D01*
X033782Y009092D01*
X033786Y009062D01*
X033786Y009032D01*
X033782Y009001D01*
X033775Y008972D01*
X033765Y008943D01*
X033752Y008916D01*
X033736Y008890D01*
X033717Y008867D01*
X033695Y008845D01*
X033719Y009229D02*
X033682Y009269D01*
X033642Y009306D01*
X033600Y009341D01*
X033556Y009372D01*
X033510Y009401D01*
X033462Y009426D01*
X033412Y009449D01*
X033361Y009467D01*
X033309Y009483D01*
X033255Y009494D01*
X033202Y009502D01*
X033147Y009507D01*
X033093Y009508D01*
X033038Y009505D01*
X032984Y009499D01*
X032931Y009489D01*
X032878Y009475D01*
X032827Y009458D01*
X032776Y009437D01*
X032727Y009414D01*
X032680Y009386D01*
X032635Y009356D01*
X032591Y009323D01*
X032551Y009287D01*
X032512Y009248D01*
X032477Y009207D01*
X032497Y009227D02*
X032478Y009203D01*
X032462Y009178D01*
X032449Y009150D01*
X032440Y009121D01*
X032435Y009092D01*
X032434Y009061D01*
X032437Y009031D01*
X032443Y009002D01*
X032454Y008973D01*
X032468Y008946D01*
X032485Y008922D01*
X032505Y008899D01*
X032528Y008880D01*
X032554Y008863D01*
X032170Y008487D02*
X032170Y007887D01*
X032170Y007487D01*
X031800Y007487D01*
X031800Y007337D02*
X031950Y007337D01*
X031950Y005537D01*
X031950Y004787D01*
X032170Y004787D01*
X032170Y005187D01*
X032170Y005637D01*
X032170Y007487D01*
X032107Y007487D02*
X032467Y007487D01*
X032467Y007337D02*
X032317Y007337D01*
X032317Y005537D01*
X032317Y004787D01*
X033917Y004787D01*
X034287Y004787D01*
X035887Y004787D01*
X035887Y005537D01*
X034287Y005537D01*
X034287Y007337D01*
X034437Y007337D01*
X034437Y007487D02*
X033767Y007487D01*
X033767Y007337D02*
X033917Y007337D01*
X033917Y005537D01*
X032317Y005537D01*
X032170Y005637D02*
X032370Y005737D01*
X032370Y005087D01*
X032170Y005187D01*
X032107Y004787D02*
X032317Y004787D01*
X032107Y004787D02*
X032107Y007487D01*
X032107Y008487D01*
X032170Y008487D02*
X028170Y008487D01*
X028170Y009687D01*
X032170Y009687D01*
X032370Y009687D01*
X032370Y007787D01*
X032170Y007887D01*
X032170Y008487D02*
X032170Y009687D01*
X031950Y009587D02*
X031950Y008587D01*
X030350Y008587D01*
X030350Y009587D01*
X031950Y009587D01*
X031710Y009237D02*
X030510Y008987D01*
X030560Y008937D02*
X031760Y009187D01*
X031750Y009227D02*
X031769Y009203D01*
X031785Y009178D01*
X031798Y009150D01*
X031808Y009122D01*
X031815Y009092D01*
X031819Y009062D01*
X031819Y009032D01*
X031815Y009001D01*
X031808Y008972D01*
X031798Y008943D01*
X031785Y008916D01*
X031769Y008890D01*
X031750Y008867D01*
X031728Y008845D01*
X031752Y009229D02*
X031715Y009269D01*
X031675Y009306D01*
X031633Y009341D01*
X031589Y009372D01*
X031543Y009401D01*
X031495Y009426D01*
X031445Y009448D01*
X031394Y009467D01*
X031342Y009483D01*
X031288Y009494D01*
X031235Y009502D01*
X031180Y009507D01*
X031126Y009508D01*
X031072Y009505D01*
X031017Y009499D01*
X030964Y009489D01*
X030911Y009475D01*
X030860Y009458D01*
X030809Y009437D01*
X030760Y009414D01*
X030713Y009386D01*
X030668Y009356D01*
X030625Y009323D01*
X030584Y009287D01*
X030545Y009248D01*
X030510Y009207D01*
X030530Y009227D02*
X030511Y009203D01*
X030495Y009178D01*
X030482Y009150D01*
X030473Y009121D01*
X030468Y009092D01*
X030467Y009061D01*
X030470Y009031D01*
X030476Y009002D01*
X030487Y008973D01*
X030501Y008946D01*
X030518Y008922D01*
X030538Y008899D01*
X030561Y008880D01*
X030587Y008863D01*
X029980Y008587D02*
X028380Y008587D01*
X028380Y009587D01*
X029980Y009587D01*
X029980Y008587D01*
X029758Y008845D02*
X029780Y008867D01*
X029799Y008890D01*
X029815Y008916D01*
X029828Y008943D01*
X029838Y008972D01*
X029845Y009001D01*
X029849Y009032D01*
X029849Y009062D01*
X029845Y009092D01*
X029838Y009122D01*
X029828Y009150D01*
X029815Y009178D01*
X029799Y009203D01*
X029780Y009227D01*
X029740Y009237D02*
X028540Y008987D01*
X028590Y008937D02*
X029790Y009187D01*
X029776Y008859D02*
X029727Y008824D01*
X029675Y008793D01*
X029622Y008765D01*
X029567Y008740D01*
X029511Y008719D01*
X029453Y008701D01*
X029395Y008687D01*
X029335Y008677D01*
X029275Y008670D01*
X029215Y008667D01*
X029155Y008668D01*
X029095Y008673D01*
X029035Y008681D01*
X028976Y008693D01*
X028918Y008709D01*
X028861Y008729D01*
X028805Y008752D01*
X028751Y008778D01*
X028699Y008808D01*
X028648Y008841D01*
X028600Y008877D01*
X028617Y008863D02*
X028591Y008880D01*
X028568Y008899D01*
X028548Y008922D01*
X028531Y008946D01*
X028517Y008973D01*
X028506Y009002D01*
X028500Y009031D01*
X028497Y009061D01*
X028498Y009092D01*
X028503Y009121D01*
X028512Y009150D01*
X028525Y009178D01*
X028541Y009203D01*
X028560Y009227D01*
X028540Y009207D02*
X028575Y009248D01*
X028614Y009287D01*
X028654Y009323D01*
X028698Y009356D01*
X028743Y009386D01*
X028790Y009414D01*
X028839Y009437D01*
X028890Y009458D01*
X028941Y009475D01*
X028994Y009489D01*
X029047Y009499D01*
X029101Y009505D01*
X029156Y009508D01*
X029210Y009507D01*
X029265Y009502D01*
X029318Y009494D01*
X029372Y009483D01*
X029424Y009467D01*
X029475Y009449D01*
X029525Y009426D01*
X029573Y009401D01*
X029619Y009372D01*
X029663Y009341D01*
X029705Y009306D01*
X029745Y009269D01*
X029782Y009229D01*
X030570Y008877D02*
X030618Y008841D01*
X030669Y008808D01*
X030721Y008778D01*
X030775Y008752D01*
X030831Y008729D01*
X030888Y008709D01*
X030946Y008693D01*
X031005Y008681D01*
X031065Y008673D01*
X031125Y008668D01*
X031185Y008667D01*
X031245Y008670D01*
X031305Y008677D01*
X031365Y008687D01*
X031423Y008701D01*
X031481Y008719D01*
X031537Y008740D01*
X031592Y008765D01*
X031645Y008793D01*
X031697Y008824D01*
X031746Y008859D01*
X032537Y008877D02*
X032585Y008841D01*
X032636Y008808D01*
X032688Y008778D01*
X032742Y008752D01*
X032798Y008729D01*
X032855Y008709D01*
X032913Y008693D01*
X032972Y008681D01*
X033032Y008673D01*
X033092Y008668D01*
X033152Y008667D01*
X033212Y008670D01*
X033272Y008677D01*
X033332Y008687D01*
X033390Y008701D01*
X033448Y008719D01*
X033504Y008740D01*
X033559Y008765D01*
X033612Y008793D01*
X033664Y008824D01*
X033713Y008859D01*
X034447Y009207D02*
X034482Y009248D01*
X034521Y009287D01*
X034562Y009323D01*
X034605Y009356D01*
X034650Y009386D01*
X034697Y009414D01*
X034746Y009437D01*
X034797Y009458D01*
X034848Y009475D01*
X034901Y009489D01*
X034954Y009499D01*
X035009Y009505D01*
X035063Y009508D01*
X035117Y009507D01*
X035172Y009502D01*
X035225Y009494D01*
X035279Y009483D01*
X035331Y009467D01*
X035382Y009448D01*
X035432Y009426D01*
X035480Y009401D01*
X035526Y009372D01*
X035570Y009341D01*
X035612Y009306D01*
X035652Y009269D01*
X035689Y009229D01*
X036107Y007887D02*
X036107Y007487D01*
X035737Y007487D01*
X035737Y007337D02*
X035887Y007337D01*
X035887Y005537D01*
X036107Y005637D02*
X036107Y007487D01*
X035737Y007037D02*
X035737Y005787D01*
X034437Y005787D01*
X034437Y007037D01*
X033767Y007037D02*
X033767Y005787D01*
X032467Y005787D01*
X032467Y007037D01*
X031800Y007037D02*
X031800Y005787D01*
X030500Y005787D01*
X030500Y007037D01*
X030500Y007337D02*
X030350Y007337D01*
X030350Y005537D01*
X031950Y005537D01*
X031950Y004787D02*
X030350Y004787D01*
X029980Y004787D01*
X028380Y004787D01*
X028380Y005537D01*
X029980Y005537D01*
X029980Y007337D01*
X029830Y007337D01*
X029830Y007487D02*
X030500Y007487D01*
X029830Y007037D02*
X029830Y005787D01*
X028530Y005787D01*
X028530Y007037D01*
X028530Y007337D02*
X028380Y007337D01*
X028380Y005537D01*
X028380Y004787D02*
X028170Y004787D01*
X028170Y007487D01*
X028530Y007487D01*
X028170Y007487D02*
X028170Y008487D01*
X029980Y005537D02*
X029980Y004787D01*
X030350Y004787D02*
X030350Y005537D01*
X033917Y005537D02*
X033917Y004787D01*
X034287Y004787D02*
X034287Y005537D01*
X035887Y004787D02*
X036107Y004787D01*
X036107Y005187D01*
X036107Y005637D01*
X036307Y005737D01*
X036307Y005087D01*
X036107Y005187D01*
X039822Y005537D02*
X039822Y004787D01*
X040192Y004787D02*
X040192Y005537D01*
X017087Y004789D02*
X017087Y003189D01*
X016087Y003189D01*
X016087Y004789D01*
X017087Y004789D01*
X016837Y004389D02*
X016587Y003989D01*
X016837Y003989D01*
X016587Y003989D02*
X016337Y003989D01*
X016587Y003989D02*
X016337Y004389D01*
X016837Y004389D01*
X016587Y004589D02*
X016587Y003989D01*
X016587Y003739D01*
X014508Y003883D02*
X014508Y005483D01*
X013508Y005483D01*
X013508Y003883D01*
X014508Y003883D01*
X014508Y003513D02*
X014508Y001913D01*
X013508Y001913D01*
X013508Y003513D01*
X014508Y003513D01*
X013908Y003353D02*
X014158Y002153D01*
X014108Y002103D02*
X013858Y003303D01*
X013784Y003276D02*
X013801Y003302D01*
X013820Y003325D01*
X013843Y003345D01*
X013867Y003362D01*
X013894Y003376D01*
X013923Y003387D01*
X013952Y003393D01*
X013982Y003396D01*
X014013Y003395D01*
X014042Y003390D01*
X014071Y003381D01*
X014099Y003368D01*
X014124Y003352D01*
X014148Y003333D01*
X014108Y004073D02*
X013858Y005273D01*
X013908Y005323D02*
X014158Y004123D01*
X014148Y004083D02*
X014124Y004064D01*
X014099Y004048D01*
X014071Y004035D01*
X014043Y004025D01*
X014013Y004018D01*
X013983Y004014D01*
X013953Y004014D01*
X013922Y004018D01*
X013893Y004025D01*
X013864Y004035D01*
X013837Y004048D01*
X013811Y004064D01*
X013788Y004083D01*
X013766Y004105D01*
X014150Y004081D02*
X014190Y004118D01*
X014227Y004158D01*
X014262Y004200D01*
X014293Y004244D01*
X014322Y004290D01*
X014347Y004338D01*
X014370Y004388D01*
X014388Y004439D01*
X014404Y004491D01*
X014415Y004545D01*
X014423Y004598D01*
X014428Y004653D01*
X014429Y004707D01*
X014426Y004762D01*
X014420Y004816D01*
X014410Y004869D01*
X014396Y004922D01*
X014379Y004973D01*
X014358Y005024D01*
X014335Y005073D01*
X014307Y005120D01*
X014277Y005165D01*
X014244Y005209D01*
X014208Y005249D01*
X014169Y005288D01*
X014128Y005323D01*
X014148Y005303D02*
X014124Y005322D01*
X014099Y005338D01*
X014071Y005351D01*
X014042Y005360D01*
X014013Y005365D01*
X013982Y005366D01*
X013952Y005363D01*
X013923Y005357D01*
X013894Y005346D01*
X013867Y005332D01*
X013843Y005315D01*
X013820Y005295D01*
X013801Y005272D01*
X013784Y005246D01*
X013408Y005693D02*
X014608Y005693D01*
X014608Y001693D01*
X014608Y001493D01*
X012708Y001493D01*
X012808Y001693D01*
X013408Y001693D01*
X013408Y005693D01*
X012408Y005693D01*
X012408Y005333D01*
X012258Y005333D02*
X012258Y005483D01*
X010458Y005483D01*
X009708Y005483D01*
X009708Y003883D01*
X009708Y003513D01*
X009708Y001913D01*
X010458Y001913D01*
X010458Y003513D01*
X012258Y003513D01*
X012258Y003363D01*
X012408Y003363D02*
X012408Y004033D01*
X012258Y004033D02*
X012258Y003883D01*
X010458Y003883D01*
X010458Y005483D01*
X010708Y005333D02*
X011958Y005333D01*
X012408Y005693D02*
X009708Y005693D01*
X009708Y005483D01*
X010708Y005333D02*
X010708Y004033D01*
X011958Y004033D01*
X011958Y003363D02*
X010708Y003363D01*
X010708Y002063D01*
X011958Y002063D01*
X012258Y002063D02*
X012258Y001913D01*
X010458Y001913D01*
X010558Y001693D02*
X010108Y001693D01*
X009708Y001693D01*
X009708Y001913D01*
X010108Y001693D02*
X010008Y001493D01*
X010658Y001493D01*
X010558Y001693D01*
X012408Y001693D01*
X012408Y002063D01*
X012408Y001693D02*
X012808Y001693D01*
X013408Y001693D02*
X014608Y001693D01*
X014148Y002113D02*
X014124Y002094D01*
X014099Y002078D01*
X014071Y002065D01*
X014043Y002055D01*
X014013Y002048D01*
X013983Y002044D01*
X013953Y002044D01*
X013922Y002048D01*
X013893Y002055D01*
X013864Y002065D01*
X013837Y002078D01*
X013811Y002094D01*
X013788Y002113D01*
X013766Y002135D01*
X014150Y002111D02*
X014190Y002148D01*
X014227Y002188D01*
X014262Y002230D01*
X014293Y002274D01*
X014322Y002320D01*
X014347Y002368D01*
X014369Y002418D01*
X014388Y002469D01*
X014404Y002521D01*
X014415Y002575D01*
X014423Y002628D01*
X014428Y002683D01*
X014429Y002737D01*
X014426Y002791D01*
X014420Y002846D01*
X014410Y002899D01*
X014396Y002952D01*
X014379Y003003D01*
X014358Y003054D01*
X014335Y003103D01*
X014307Y003150D01*
X014277Y003195D01*
X014244Y003238D01*
X014208Y003279D01*
X014169Y003318D01*
X014128Y003353D01*
X013798Y003293D02*
X013762Y003245D01*
X013729Y003194D01*
X013699Y003142D01*
X013673Y003088D01*
X013650Y003032D01*
X013630Y002975D01*
X013614Y002917D01*
X013602Y002858D01*
X013594Y002798D01*
X013589Y002738D01*
X013588Y002678D01*
X013591Y002618D01*
X013598Y002558D01*
X013608Y002498D01*
X013622Y002440D01*
X013640Y002382D01*
X013661Y002326D01*
X013686Y002271D01*
X013714Y002218D01*
X013745Y002166D01*
X013780Y002117D01*
X013780Y004087D02*
X013745Y004136D01*
X013714Y004188D01*
X013686Y004241D01*
X013661Y004296D01*
X013640Y004352D01*
X013622Y004410D01*
X013608Y004468D01*
X013598Y004528D01*
X013591Y004588D01*
X013588Y004648D01*
X013589Y004708D01*
X013594Y004768D01*
X013602Y004828D01*
X013614Y004887D01*
X013630Y004945D01*
X013650Y005002D01*
X013673Y005058D01*
X013699Y005112D01*
X013729Y005164D01*
X013762Y005215D01*
X013798Y005263D01*
X010458Y003883D02*
X009708Y003883D01*
X009708Y003513D02*
X010458Y003513D01*
X028559Y031979D02*
X028515Y032023D01*
X028559Y031979D02*
X028646Y031979D01*
X028689Y032023D01*
X028689Y032066D01*
X028646Y032109D01*
X028559Y032109D01*
X028515Y032153D01*
X028515Y032196D01*
X028559Y032239D01*
X028646Y032239D01*
X028689Y032196D01*
X028810Y032023D02*
X028853Y031979D01*
X028897Y031979D01*
X028940Y032023D01*
X028940Y032239D01*
X028897Y032239D02*
X028984Y032239D01*
X029105Y032196D02*
X029148Y032239D01*
X029235Y032239D01*
X029278Y032196D01*
X029278Y032153D01*
X029105Y031979D01*
X029278Y031979D01*
X034863Y036144D02*
X034863Y036564D01*
X034863Y036964D01*
X034863Y037384D01*
X034865Y037407D01*
X034870Y037430D01*
X034879Y037452D01*
X034892Y037472D01*
X034907Y037490D01*
X034925Y037505D01*
X034945Y037518D01*
X034967Y037527D01*
X034990Y037532D01*
X035013Y037534D01*
X038713Y037534D01*
X038736Y037532D01*
X038759Y037527D01*
X038781Y037518D01*
X038801Y037505D01*
X038819Y037490D01*
X038834Y037472D01*
X038847Y037452D01*
X038856Y037430D01*
X038861Y037407D01*
X038863Y037384D01*
X038863Y036144D01*
X038861Y036121D01*
X038856Y036098D01*
X038847Y036076D01*
X038834Y036056D01*
X038819Y036038D01*
X038801Y036023D01*
X038781Y036010D01*
X038759Y036001D01*
X038736Y035996D01*
X038713Y035994D01*
X035013Y035994D01*
X034990Y035996D01*
X034967Y036001D01*
X034945Y036010D01*
X034925Y036023D01*
X034907Y036038D01*
X034892Y036056D01*
X034879Y036076D01*
X034870Y036098D01*
X034865Y036121D01*
X034863Y036144D01*
X034863Y036564D02*
X034890Y036566D01*
X034917Y036571D01*
X034943Y036581D01*
X034967Y036593D01*
X034989Y036609D01*
X035009Y036627D01*
X035026Y036649D01*
X035041Y036672D01*
X035051Y036697D01*
X035059Y036723D01*
X035063Y036750D01*
X035063Y036778D01*
X035059Y036805D01*
X035051Y036831D01*
X035041Y036856D01*
X035026Y036879D01*
X035009Y036901D01*
X034989Y036919D01*
X034967Y036935D01*
X034943Y036947D01*
X034917Y036957D01*
X034890Y036962D01*
X034863Y036964D01*
X032590Y039563D02*
X032633Y039606D01*
X032633Y039693D01*
X032590Y039736D01*
X032546Y039736D01*
X032503Y039693D01*
X032503Y039606D01*
X032459Y039563D01*
X032416Y039563D01*
X032373Y039606D01*
X032373Y039693D01*
X032416Y039736D01*
X032590Y039858D02*
X032633Y039901D01*
X032633Y039944D01*
X032590Y039988D01*
X032373Y039988D01*
X032373Y040031D02*
X032373Y039944D01*
X032459Y040152D02*
X032373Y040239D01*
X032633Y040239D01*
X032633Y040152D02*
X032633Y040326D01*
X030288Y042020D02*
X027296Y042020D01*
X027296Y048831D01*
X030288Y048831D01*
X030288Y042020D01*
X026941Y042020D02*
X023949Y042020D01*
X023949Y048831D01*
X026941Y048831D01*
X026941Y042020D01*
X023595Y042020D02*
X020603Y042020D01*
X020603Y048831D01*
X023595Y048831D01*
X023595Y042020D01*
X013722Y045996D02*
X011822Y045996D01*
X011922Y046196D01*
X012522Y046196D01*
X012522Y052136D01*
X013722Y052136D01*
X013722Y046196D01*
X013722Y045996D01*
X013722Y046196D02*
X012522Y046196D01*
X012622Y046396D02*
X012622Y047996D01*
X013622Y047996D01*
X013622Y046396D01*
X012622Y046396D01*
X012880Y046618D02*
X012902Y046596D01*
X012925Y046577D01*
X012951Y046561D01*
X012978Y046548D01*
X013007Y046538D01*
X013036Y046531D01*
X013067Y046527D01*
X013097Y046527D01*
X013127Y046531D01*
X013157Y046538D01*
X013185Y046548D01*
X013213Y046561D01*
X013238Y046577D01*
X013262Y046596D01*
X013272Y046636D02*
X013022Y047836D01*
X012972Y047786D02*
X013222Y046586D01*
X012894Y046600D02*
X012859Y046649D01*
X012828Y046701D01*
X012800Y046754D01*
X012775Y046809D01*
X012754Y046865D01*
X012736Y046923D01*
X012722Y046981D01*
X012712Y047041D01*
X012705Y047101D01*
X012702Y047161D01*
X012703Y047221D01*
X012708Y047281D01*
X012716Y047341D01*
X012728Y047400D01*
X012744Y047458D01*
X012764Y047515D01*
X012787Y047571D01*
X012813Y047625D01*
X012843Y047677D01*
X012876Y047728D01*
X012912Y047776D01*
X012898Y047759D02*
X012915Y047785D01*
X012934Y047808D01*
X012957Y047828D01*
X012981Y047845D01*
X013008Y047859D01*
X013037Y047870D01*
X013066Y047876D01*
X013096Y047879D01*
X013127Y047878D01*
X013156Y047873D01*
X013185Y047864D01*
X013213Y047851D01*
X013238Y047835D01*
X013262Y047816D01*
X013622Y048366D02*
X012622Y048366D01*
X012622Y049966D01*
X013622Y049966D01*
X013622Y048366D01*
X013272Y048606D02*
X013022Y049806D01*
X012972Y049756D02*
X013222Y048556D01*
X013262Y048566D02*
X013238Y048547D01*
X013213Y048531D01*
X013185Y048518D01*
X013157Y048508D01*
X013127Y048501D01*
X013097Y048497D01*
X013067Y048497D01*
X013036Y048501D01*
X013007Y048508D01*
X012978Y048518D01*
X012951Y048531D01*
X012925Y048547D01*
X012902Y048566D01*
X012880Y048588D01*
X013264Y048564D02*
X013304Y048601D01*
X013341Y048641D01*
X013376Y048683D01*
X013407Y048727D01*
X013436Y048773D01*
X013461Y048821D01*
X013484Y048871D01*
X013502Y048922D01*
X013518Y048974D01*
X013529Y049028D01*
X013537Y049081D01*
X013542Y049136D01*
X013543Y049190D01*
X013540Y049245D01*
X013534Y049299D01*
X013524Y049352D01*
X013510Y049405D01*
X013493Y049456D01*
X013472Y049507D01*
X013449Y049556D01*
X013421Y049603D01*
X013391Y049648D01*
X013358Y049692D01*
X013322Y049732D01*
X013283Y049771D01*
X013242Y049806D01*
X013262Y049786D02*
X013238Y049805D01*
X013213Y049821D01*
X013185Y049834D01*
X013156Y049843D01*
X013127Y049848D01*
X013096Y049849D01*
X013066Y049846D01*
X013037Y049840D01*
X013008Y049829D01*
X012981Y049815D01*
X012957Y049798D01*
X012934Y049778D01*
X012915Y049755D01*
X012898Y049729D01*
X012622Y050336D02*
X012622Y051936D01*
X013622Y051936D01*
X013622Y050336D01*
X012622Y050336D01*
X012880Y050548D02*
X012902Y050526D01*
X012925Y050507D01*
X012951Y050491D01*
X012978Y050478D01*
X013007Y050468D01*
X013036Y050461D01*
X013067Y050457D01*
X013097Y050457D01*
X013127Y050461D01*
X013157Y050468D01*
X013185Y050478D01*
X013213Y050491D01*
X013238Y050507D01*
X013262Y050526D01*
X013272Y050566D02*
X013022Y051766D01*
X012972Y051716D02*
X013222Y050516D01*
X012894Y050530D02*
X012859Y050579D01*
X012828Y050631D01*
X012800Y050684D01*
X012775Y050739D01*
X012754Y050795D01*
X012736Y050853D01*
X012722Y050911D01*
X012712Y050971D01*
X012705Y051031D01*
X012702Y051091D01*
X012703Y051151D01*
X012708Y051211D01*
X012716Y051271D01*
X012728Y051330D01*
X012744Y051388D01*
X012764Y051445D01*
X012787Y051501D01*
X012813Y051555D01*
X012843Y051607D01*
X012876Y051658D01*
X012912Y051706D01*
X012898Y051689D02*
X012915Y051715D01*
X012934Y051738D01*
X012957Y051758D01*
X012981Y051775D01*
X013008Y051789D01*
X013037Y051800D01*
X013066Y051806D01*
X013096Y051809D01*
X013127Y051808D01*
X013156Y051803D01*
X013185Y051794D01*
X013213Y051781D01*
X013238Y051765D01*
X013262Y051746D01*
X013242Y051766D02*
X013283Y051731D01*
X013322Y051692D01*
X013358Y051652D01*
X013391Y051608D01*
X013421Y051563D01*
X013449Y051516D01*
X013472Y051467D01*
X013493Y051416D01*
X013510Y051365D01*
X013524Y051312D01*
X013534Y051259D01*
X013540Y051205D01*
X013543Y051150D01*
X013542Y051096D01*
X013537Y051041D01*
X013529Y050988D01*
X013518Y050934D01*
X013502Y050882D01*
X013484Y050831D01*
X013461Y050781D01*
X013436Y050733D01*
X013407Y050687D01*
X013376Y050643D01*
X013341Y050601D01*
X013304Y050561D01*
X013264Y050524D01*
X012912Y049746D02*
X012876Y049698D01*
X012843Y049647D01*
X012813Y049595D01*
X012787Y049541D01*
X012764Y049485D01*
X012744Y049428D01*
X012728Y049370D01*
X012716Y049311D01*
X012708Y049251D01*
X012703Y049191D01*
X012702Y049131D01*
X012705Y049071D01*
X012712Y049011D01*
X012722Y048951D01*
X012736Y048893D01*
X012754Y048835D01*
X012775Y048779D01*
X012800Y048724D01*
X012828Y048671D01*
X012859Y048619D01*
X012894Y048570D01*
X013242Y047836D02*
X013283Y047801D01*
X013322Y047762D01*
X013358Y047721D01*
X013391Y047678D01*
X013421Y047633D01*
X013449Y047586D01*
X013472Y047537D01*
X013493Y047486D01*
X013510Y047435D01*
X013524Y047382D01*
X013534Y047329D01*
X013540Y047274D01*
X013543Y047220D01*
X013542Y047166D01*
X013537Y047111D01*
X013529Y047058D01*
X013518Y047004D01*
X013502Y046952D01*
X013483Y046901D01*
X013461Y046851D01*
X013436Y046803D01*
X013407Y046757D01*
X013376Y046713D01*
X013341Y046671D01*
X013304Y046631D01*
X013264Y046594D01*
X011922Y046196D02*
X011522Y046196D01*
X011522Y046546D01*
X011372Y046546D02*
X011372Y046396D01*
X009572Y046396D01*
X009572Y047996D01*
X011372Y047996D01*
X011372Y047836D01*
X011522Y047846D02*
X011522Y048506D01*
X011372Y048516D02*
X011372Y048366D01*
X009572Y048366D01*
X008822Y048366D01*
X008822Y047996D01*
X008822Y046396D01*
X009572Y046396D01*
X009672Y046196D02*
X009222Y046196D01*
X008822Y046196D01*
X008822Y046396D01*
X009222Y046196D02*
X009122Y045996D01*
X009772Y045996D01*
X009672Y046196D01*
X011522Y046196D01*
X011072Y046546D02*
X009822Y046546D01*
X009822Y047846D01*
X011072Y047846D01*
X011072Y048516D02*
X009822Y048516D01*
X009822Y049816D01*
X011072Y049816D01*
X011372Y049816D02*
X011372Y049966D01*
X009572Y049966D01*
X009572Y048366D01*
X009572Y047996D02*
X008822Y047996D01*
X008822Y048366D02*
X008822Y049966D01*
X008822Y050336D01*
X008822Y051936D01*
X009572Y051936D01*
X009572Y050336D01*
X011372Y050336D01*
X011372Y050486D01*
X011522Y050486D02*
X011522Y049816D01*
X011072Y050486D02*
X009822Y050486D01*
X009822Y051786D01*
X011072Y051786D01*
X011372Y051786D02*
X011372Y051936D01*
X009572Y051936D01*
X008822Y051936D02*
X008822Y052136D01*
X011522Y052136D01*
X011522Y051786D01*
X011522Y052136D02*
X012522Y052136D01*
X011822Y053856D02*
X011922Y054056D01*
X012522Y054056D01*
X012522Y058056D01*
X013722Y058056D01*
X013722Y054056D01*
X013722Y053856D01*
X011822Y053856D01*
X011922Y054056D02*
X011522Y054056D01*
X011522Y054426D01*
X011372Y054426D02*
X011372Y054276D01*
X009572Y054276D01*
X008822Y054276D01*
X008822Y054056D01*
X009222Y054056D01*
X009672Y054056D01*
X011522Y054056D01*
X011072Y054426D02*
X009822Y054426D01*
X009822Y055726D01*
X011072Y055726D01*
X011372Y055726D02*
X011372Y055876D01*
X009572Y055876D01*
X009572Y054276D01*
X009672Y054056D02*
X009772Y053856D01*
X009122Y053856D01*
X009222Y054056D01*
X008822Y054276D02*
X008822Y055876D01*
X008822Y056246D01*
X008822Y057846D01*
X009572Y057846D01*
X009572Y056246D01*
X011372Y056246D01*
X011372Y056396D01*
X011522Y056396D02*
X011522Y055726D01*
X011072Y056396D02*
X009822Y056396D01*
X009822Y057696D01*
X011072Y057696D01*
X011372Y057696D02*
X011372Y057846D01*
X009572Y057846D01*
X008822Y057846D02*
X008822Y058056D01*
X011522Y058056D01*
X011522Y057696D01*
X011522Y058056D02*
X012522Y058056D01*
X012622Y057846D02*
X013622Y057846D01*
X013622Y056246D01*
X012622Y056246D01*
X012622Y057846D01*
X012972Y057636D02*
X013222Y056436D01*
X013272Y056486D02*
X013022Y057686D01*
X012898Y057609D02*
X012915Y057635D01*
X012934Y057658D01*
X012957Y057678D01*
X012981Y057695D01*
X013008Y057709D01*
X013037Y057720D01*
X013066Y057726D01*
X013096Y057729D01*
X013127Y057728D01*
X013156Y057723D01*
X013185Y057714D01*
X013213Y057701D01*
X013238Y057685D01*
X013262Y057666D01*
X012912Y057625D02*
X012876Y057577D01*
X012843Y057526D01*
X012813Y057474D01*
X012787Y057420D01*
X012764Y057364D01*
X012744Y057307D01*
X012728Y057249D01*
X012716Y057190D01*
X012708Y057130D01*
X012703Y057070D01*
X012702Y057010D01*
X012705Y056950D01*
X012712Y056890D01*
X012722Y056830D01*
X012736Y056772D01*
X012754Y056714D01*
X012775Y056658D01*
X012800Y056603D01*
X012828Y056550D01*
X012859Y056498D01*
X012894Y056449D01*
X012880Y056468D02*
X012902Y056446D01*
X012925Y056427D01*
X012951Y056411D01*
X012978Y056398D01*
X013007Y056388D01*
X013036Y056381D01*
X013067Y056377D01*
X013097Y056377D01*
X013127Y056381D01*
X013157Y056388D01*
X013185Y056398D01*
X013213Y056411D01*
X013238Y056427D01*
X013262Y056446D01*
X013622Y055876D02*
X013622Y054276D01*
X012622Y054276D01*
X012622Y055876D01*
X013622Y055876D01*
X013022Y055716D02*
X013272Y054516D01*
X013222Y054466D02*
X012972Y055666D01*
X012898Y055639D02*
X012915Y055665D01*
X012934Y055688D01*
X012957Y055708D01*
X012981Y055725D01*
X013008Y055739D01*
X013037Y055750D01*
X013066Y055756D01*
X013096Y055759D01*
X013127Y055758D01*
X013156Y055753D01*
X013185Y055744D01*
X013213Y055731D01*
X013238Y055715D01*
X013262Y055696D01*
X012912Y055655D02*
X012876Y055607D01*
X012843Y055556D01*
X012813Y055504D01*
X012787Y055450D01*
X012764Y055394D01*
X012744Y055337D01*
X012728Y055279D01*
X012716Y055220D01*
X012708Y055160D01*
X012703Y055100D01*
X012702Y055040D01*
X012705Y054980D01*
X012712Y054920D01*
X012722Y054860D01*
X012736Y054802D01*
X012754Y054744D01*
X012775Y054688D01*
X012800Y054633D01*
X012828Y054580D01*
X012859Y054528D01*
X012894Y054479D01*
X012880Y054498D02*
X012902Y054476D01*
X012925Y054457D01*
X012951Y054441D01*
X012978Y054428D01*
X013007Y054418D01*
X013036Y054411D01*
X013067Y054407D01*
X013097Y054407D01*
X013127Y054411D01*
X013157Y054418D01*
X013185Y054428D01*
X013213Y054441D01*
X013238Y054457D01*
X013262Y054476D01*
X013722Y054056D02*
X012522Y054056D01*
X013264Y054474D02*
X013304Y054511D01*
X013341Y054551D01*
X013376Y054593D01*
X013407Y054637D01*
X013436Y054683D01*
X013461Y054731D01*
X013483Y054781D01*
X013502Y054832D01*
X013518Y054884D01*
X013529Y054938D01*
X013537Y054991D01*
X013542Y055046D01*
X013543Y055100D01*
X013540Y055154D01*
X013534Y055209D01*
X013524Y055262D01*
X013510Y055315D01*
X013493Y055366D01*
X013472Y055417D01*
X013449Y055466D01*
X013421Y055513D01*
X013391Y055558D01*
X013358Y055601D01*
X013322Y055642D01*
X013283Y055681D01*
X013242Y055716D01*
X013264Y056443D02*
X013304Y056480D01*
X013341Y056520D01*
X013376Y056562D01*
X013407Y056606D01*
X013436Y056652D01*
X013461Y056700D01*
X013484Y056750D01*
X013502Y056801D01*
X013518Y056853D01*
X013529Y056907D01*
X013537Y056960D01*
X013542Y057015D01*
X013543Y057069D01*
X013540Y057124D01*
X013534Y057178D01*
X013524Y057231D01*
X013510Y057284D01*
X013493Y057335D01*
X013472Y057386D01*
X013449Y057435D01*
X013421Y057482D01*
X013391Y057527D01*
X013358Y057571D01*
X013322Y057611D01*
X013283Y057650D01*
X013242Y057685D01*
X009572Y056246D02*
X008822Y056246D01*
X008822Y055876D02*
X009572Y055876D01*
X009572Y050336D02*
X008822Y050336D01*
X008822Y049966D02*
X009572Y049966D01*
X024493Y054905D02*
X025907Y056319D01*
X026685Y055541D02*
X026967Y055259D01*
X026685Y055259D02*
X026967Y055541D01*
X025906Y056320D02*
X025998Y056340D01*
X026090Y056355D01*
X026183Y056365D01*
X026277Y056371D01*
X026371Y056373D01*
X026464Y056370D01*
X026558Y056362D01*
X026650Y056350D01*
X026742Y056333D01*
X026834Y056312D01*
X026924Y056286D01*
X027012Y056256D01*
X027100Y056222D01*
X027185Y056183D01*
X027268Y056141D01*
X027349Y056094D01*
X027428Y056043D01*
X027504Y055989D01*
X027578Y055931D01*
X027648Y055869D01*
X027716Y055804D01*
X027780Y055736D01*
X027841Y055665D01*
X027898Y055591D01*
X027952Y055514D01*
X028001Y055434D01*
X028047Y055353D01*
X028089Y055269D01*
X028126Y055183D01*
X028160Y055096D01*
X028189Y055007D01*
X028213Y054916D01*
X028234Y054825D01*
X028249Y054732D01*
X028260Y054640D01*
X028267Y054546D01*
X028269Y054452D01*
X028266Y054359D01*
X028259Y054265D01*
X028248Y054173D01*
X028231Y054080D01*
X028211Y053989D01*
X028186Y053899D01*
X028156Y053810D01*
X028122Y053723D01*
X028084Y053637D01*
X028042Y053553D01*
X027996Y053472D01*
X027945Y053393D01*
X027892Y053316D01*
X027834Y053243D01*
X027773Y053172D01*
X027708Y053104D01*
X027640Y053039D01*
X027569Y052978D01*
X027496Y052920D01*
X027419Y052867D01*
X027340Y052816D01*
X027259Y052770D01*
X027175Y052728D01*
X027089Y052690D01*
X027002Y052656D01*
X026913Y052626D01*
X026823Y052601D01*
X026732Y052581D01*
X026639Y052564D01*
X026547Y052553D01*
X026453Y052546D01*
X026360Y052543D01*
X026266Y052545D01*
X026172Y052552D01*
X026080Y052563D01*
X025987Y052578D01*
X025896Y052599D01*
X025805Y052623D01*
X025716Y052652D01*
X025629Y052686D01*
X025543Y052723D01*
X025459Y052765D01*
X025378Y052811D01*
X025298Y052860D01*
X025221Y052914D01*
X025147Y052971D01*
X025076Y053032D01*
X025008Y053096D01*
X024943Y053164D01*
X024881Y053234D01*
X024823Y053308D01*
X024769Y053384D01*
X024718Y053463D01*
X024671Y053544D01*
X024629Y053627D01*
X024590Y053712D01*
X024556Y053800D01*
X024526Y053888D01*
X024500Y053978D01*
X024479Y054070D01*
X024462Y054162D01*
X024450Y054254D01*
X024442Y054348D01*
X024439Y054441D01*
X024441Y054535D01*
X024447Y054629D01*
X024457Y054722D01*
X024472Y054814D01*
X024492Y054906D01*
X025695Y053703D02*
X025978Y053420D01*
X028570Y057040D02*
X028572Y057120D01*
X028578Y057199D01*
X028588Y057278D01*
X028602Y057357D01*
X028619Y057435D01*
X028641Y057512D01*
X028666Y057587D01*
X028696Y057661D01*
X028728Y057734D01*
X028765Y057805D01*
X028805Y057874D01*
X028848Y057941D01*
X028895Y058006D01*
X028944Y058068D01*
X028997Y058128D01*
X029053Y058185D01*
X029111Y058240D01*
X029172Y058291D01*
X029236Y058339D01*
X029302Y058384D01*
X029370Y058426D01*
X029440Y058464D01*
X029512Y058498D01*
X029585Y058529D01*
X029660Y058557D01*
X029737Y058580D01*
X029814Y058600D01*
X029892Y058616D01*
X029971Y058628D01*
X030050Y058636D01*
X030130Y058640D01*
X030210Y058640D01*
X030290Y058636D01*
X030369Y058628D01*
X030448Y058616D01*
X030526Y058600D01*
X030603Y058580D01*
X030680Y058557D01*
X030755Y058529D01*
X030828Y058498D01*
X030900Y058464D01*
X030970Y058426D01*
X031038Y058384D01*
X031104Y058339D01*
X031168Y058291D01*
X031229Y058240D01*
X031287Y058185D01*
X031343Y058128D01*
X031396Y058068D01*
X031445Y058006D01*
X031492Y057941D01*
X031535Y057874D01*
X031575Y057805D01*
X031612Y057734D01*
X031644Y057661D01*
X031674Y057587D01*
X031699Y057512D01*
X031721Y057435D01*
X031738Y057357D01*
X031752Y057278D01*
X031762Y057199D01*
X031768Y057120D01*
X031770Y057040D01*
X031768Y056960D01*
X031762Y056881D01*
X031752Y056802D01*
X031738Y056723D01*
X031721Y056645D01*
X031699Y056568D01*
X031674Y056493D01*
X031644Y056419D01*
X031612Y056346D01*
X031575Y056275D01*
X031535Y056206D01*
X031492Y056139D01*
X031445Y056074D01*
X031396Y056012D01*
X031343Y055952D01*
X031287Y055895D01*
X031229Y055840D01*
X031168Y055789D01*
X031104Y055741D01*
X031038Y055696D01*
X030970Y055654D01*
X030900Y055616D01*
X030828Y055582D01*
X030755Y055551D01*
X030680Y055523D01*
X030603Y055500D01*
X030526Y055480D01*
X030448Y055464D01*
X030369Y055452D01*
X030290Y055444D01*
X030210Y055440D01*
X030130Y055440D01*
X030050Y055444D01*
X029971Y055452D01*
X029892Y055464D01*
X029814Y055480D01*
X029737Y055500D01*
X029660Y055523D01*
X029585Y055551D01*
X029512Y055582D01*
X029440Y055616D01*
X029370Y055654D01*
X029302Y055696D01*
X029236Y055741D01*
X029172Y055789D01*
X029111Y055840D01*
X029053Y055895D01*
X028997Y055952D01*
X028944Y056012D01*
X028895Y056074D01*
X028848Y056139D01*
X028805Y056206D01*
X028765Y056275D01*
X028728Y056346D01*
X028696Y056419D01*
X028666Y056493D01*
X028641Y056568D01*
X028619Y056645D01*
X028602Y056723D01*
X028588Y056802D01*
X028578Y056881D01*
X028572Y056960D01*
X028570Y057040D01*
X030470Y058240D02*
X030770Y058240D01*
X030620Y058390D02*
X030620Y058090D01*
X032627Y057576D02*
X032671Y057490D01*
X032758Y057403D01*
X032758Y057533D01*
X032801Y057576D01*
X032844Y057576D01*
X032888Y057533D01*
X032888Y057446D01*
X032844Y057403D01*
X032758Y057403D01*
X032627Y057282D02*
X032627Y057195D01*
X032627Y057238D02*
X032844Y057238D01*
X032888Y057195D01*
X032888Y057151D01*
X032844Y057108D01*
X032844Y056987D02*
X032888Y056944D01*
X032888Y056857D01*
X032844Y056813D01*
X032758Y056857D02*
X032758Y056944D01*
X032801Y056987D01*
X032844Y056987D01*
X032758Y056857D02*
X032714Y056813D01*
X032671Y056813D01*
X032627Y056857D01*
X032627Y056944D01*
X032671Y056987D01*
X035669Y057524D02*
X035669Y058524D01*
X037269Y058524D01*
X037269Y057524D01*
X035669Y057524D01*
X036219Y058024D02*
X036469Y058024D01*
X036469Y058274D01*
X036569Y058274D01*
X036469Y058024D02*
X036869Y058274D01*
X036869Y057774D01*
X036469Y058024D01*
X036469Y057774D01*
X036469Y058024D02*
X037069Y058024D01*
X040180Y057196D02*
X040180Y057153D01*
X040223Y057109D01*
X040310Y057109D01*
X040353Y057066D01*
X040353Y057023D01*
X040310Y056979D01*
X040223Y056979D01*
X040180Y057023D01*
X040180Y057196D02*
X040223Y057239D01*
X040310Y057239D01*
X040353Y057196D01*
X040474Y057023D02*
X040518Y056979D01*
X040561Y056979D01*
X040604Y057023D01*
X040604Y057239D01*
X040561Y057239D02*
X040648Y057239D01*
X040769Y057196D02*
X040812Y057239D01*
X040899Y057239D01*
X040942Y057196D01*
X040942Y057153D01*
X040899Y057109D01*
X040942Y057066D01*
X040942Y057023D01*
X040899Y056979D01*
X040812Y056979D01*
X040769Y057023D01*
X040856Y057109D02*
X040899Y057109D01*
X046985Y053467D02*
X047235Y053717D01*
X048735Y053717D01*
X048985Y053467D01*
X048985Y052967D01*
X048735Y052717D01*
X048985Y052467D01*
X048985Y051967D01*
X048735Y051717D01*
X048985Y051467D01*
X048985Y050967D01*
X048735Y050717D01*
X047235Y050717D01*
X046985Y050967D01*
X046985Y051467D01*
X047235Y051717D01*
X046985Y051967D01*
X046985Y052467D01*
X047235Y052717D01*
X046985Y052967D01*
X046985Y053467D01*
X043831Y037534D02*
X040131Y037534D01*
X040108Y037532D01*
X040085Y037527D01*
X040063Y037518D01*
X040043Y037505D01*
X040025Y037490D01*
X040010Y037472D01*
X039997Y037452D01*
X039988Y037430D01*
X039983Y037407D01*
X039981Y037384D01*
X039981Y036964D01*
X039981Y036564D01*
X039981Y036144D01*
X039983Y036121D01*
X039988Y036098D01*
X039997Y036076D01*
X040010Y036056D01*
X040025Y036038D01*
X040043Y036023D01*
X040063Y036010D01*
X040085Y036001D01*
X040108Y035996D01*
X040131Y035994D01*
X043831Y035994D01*
X043854Y035996D01*
X043877Y036001D01*
X043899Y036010D01*
X043919Y036023D01*
X043937Y036038D01*
X043952Y036056D01*
X043965Y036076D01*
X043974Y036098D01*
X043979Y036121D01*
X043981Y036144D01*
X043981Y037384D01*
X043979Y037407D01*
X043974Y037430D01*
X043965Y037452D01*
X043952Y037472D01*
X043937Y037490D01*
X043919Y037505D01*
X043899Y037518D01*
X043877Y037527D01*
X043854Y037532D01*
X043831Y037534D01*
X039981Y036964D02*
X040008Y036962D01*
X040035Y036957D01*
X040061Y036947D01*
X040085Y036935D01*
X040107Y036919D01*
X040127Y036901D01*
X040144Y036879D01*
X040159Y036856D01*
X040169Y036831D01*
X040177Y036805D01*
X040181Y036778D01*
X040181Y036750D01*
X040177Y036723D01*
X040169Y036697D01*
X040159Y036672D01*
X040144Y036649D01*
X040127Y036627D01*
X040107Y036609D01*
X040085Y036593D01*
X040061Y036581D01*
X040035Y036571D01*
X040008Y036566D01*
X039981Y036564D01*
D13*
X039998Y025880D02*
X039998Y025420D01*
X040151Y025420D02*
X039844Y025420D01*
X039538Y025420D02*
X039538Y025880D01*
X039691Y025880D02*
X039384Y025880D01*
X039231Y025727D02*
X039231Y025420D01*
X039231Y025650D02*
X038924Y025650D01*
X038924Y025727D02*
X039077Y025880D01*
X039231Y025727D01*
X038924Y025727D02*
X038924Y025420D01*
X038770Y025497D02*
X038694Y025420D01*
X038463Y025420D01*
X038463Y025880D01*
X038694Y025880D01*
X038770Y025804D01*
X038770Y025727D01*
X038694Y025650D01*
X038463Y025650D01*
X038694Y025650D02*
X038770Y025573D01*
X038770Y025497D01*
X039844Y025727D02*
X039998Y025880D01*
X042121Y018058D02*
X042044Y017981D01*
X042044Y017674D01*
X042121Y017598D01*
X042275Y017598D01*
X042351Y017674D01*
X042505Y017598D02*
X042812Y017598D01*
X042658Y017598D02*
X042658Y018058D01*
X042505Y017904D01*
X042351Y017981D02*
X042275Y018058D01*
X042121Y018058D01*
X041166Y015165D02*
X041012Y015165D01*
X040935Y015088D01*
X040782Y015088D02*
X040705Y015165D01*
X040552Y015165D01*
X040475Y015088D01*
X040475Y014781D01*
X040552Y014704D01*
X040705Y014704D01*
X040782Y014781D01*
X040935Y014781D02*
X041012Y014704D01*
X041166Y014704D01*
X041242Y014781D01*
X041242Y014858D01*
X041166Y014934D01*
X041089Y014934D01*
X041166Y014934D02*
X041242Y015011D01*
X041242Y015088D01*
X041166Y015165D01*
X040321Y015165D02*
X040168Y015165D01*
X040245Y015165D02*
X040245Y014704D01*
X040321Y014704D02*
X040168Y014704D01*
X037226Y014701D02*
X037226Y014778D01*
X037149Y014855D01*
X036919Y014855D01*
X036919Y014701D01*
X036996Y014624D01*
X037149Y014624D01*
X037226Y014701D01*
X037073Y015008D02*
X036919Y014855D01*
X036766Y014855D02*
X036766Y015008D01*
X036689Y015085D01*
X036459Y015085D01*
X036459Y014624D01*
X036459Y014778D02*
X036689Y014778D01*
X036766Y014855D01*
X036612Y014778D02*
X036766Y014624D01*
X037073Y015008D02*
X037226Y015085D01*
X037226Y014100D02*
X036919Y014100D01*
X036919Y013870D01*
X037073Y013947D01*
X037149Y013947D01*
X037226Y013870D01*
X037226Y013717D01*
X037149Y013640D01*
X036996Y013640D01*
X036919Y013717D01*
X036766Y013640D02*
X036612Y013794D01*
X036689Y013794D02*
X036459Y013794D01*
X036459Y013640D02*
X036459Y014100D01*
X036689Y014100D01*
X036766Y014024D01*
X036766Y013870D01*
X036689Y013794D01*
X036766Y013116D02*
X036459Y013116D01*
X036459Y012886D01*
X036612Y012963D01*
X036689Y012963D01*
X036766Y012886D01*
X036766Y012733D01*
X036689Y012656D01*
X036535Y012656D01*
X036459Y012733D01*
X036305Y012656D02*
X036152Y012809D01*
X036228Y012809D02*
X035998Y012809D01*
X035998Y012656D02*
X035998Y013116D01*
X036228Y013116D01*
X036305Y013039D01*
X036305Y012886D01*
X036228Y012809D01*
X036919Y012886D02*
X037226Y012886D01*
X037149Y012656D02*
X037149Y013116D01*
X036919Y012886D01*
X043669Y013857D02*
X043669Y014318D01*
X043899Y014318D01*
X043976Y014241D01*
X043976Y014088D01*
X043899Y014011D01*
X043669Y014011D01*
X043823Y014011D02*
X043976Y013857D01*
X044130Y013934D02*
X044206Y013857D01*
X044360Y013857D01*
X044437Y013934D01*
X044437Y014088D01*
X044360Y014164D01*
X044283Y014164D01*
X044130Y014088D01*
X044130Y014318D01*
X044437Y014318D01*
X044590Y014318D02*
X044897Y014318D01*
X044897Y014241D01*
X044590Y013934D01*
X044590Y013857D01*
X021767Y006170D02*
X021767Y005863D01*
X021690Y005787D01*
X021537Y005787D01*
X021460Y005863D01*
X021767Y006170D01*
X021690Y006247D01*
X021537Y006247D01*
X021460Y006170D01*
X021460Y005863D01*
X021307Y005787D02*
X021000Y005787D01*
X021307Y006093D01*
X021307Y006170D01*
X021230Y006247D01*
X021076Y006247D01*
X021000Y006170D01*
X020846Y006170D02*
X020846Y006017D01*
X020769Y005940D01*
X020539Y005940D01*
X020539Y005787D02*
X020539Y006247D01*
X020769Y006247D01*
X020846Y006170D01*
X020693Y005940D02*
X020846Y005787D01*
X020769Y005460D02*
X020846Y005383D01*
X020846Y005229D01*
X020769Y005153D01*
X020539Y005153D01*
X020693Y005153D02*
X020846Y004999D01*
X021000Y004999D02*
X021307Y005306D01*
X021307Y005383D01*
X021230Y005460D01*
X021076Y005460D01*
X021000Y005383D01*
X020769Y005460D02*
X020539Y005460D01*
X020539Y004999D01*
X021000Y004999D02*
X021307Y004999D01*
X021460Y004999D02*
X021767Y004999D01*
X021614Y004999D02*
X021614Y005460D01*
X021460Y005306D01*
X018483Y004333D02*
X018176Y004333D01*
X018330Y004333D02*
X018330Y004794D01*
X018176Y004640D01*
X018023Y004794D02*
X017716Y004794D01*
X017869Y004794D02*
X017869Y004333D01*
X015478Y004299D02*
X015018Y004299D01*
X015018Y004529D01*
X015094Y004606D01*
X015248Y004606D01*
X015325Y004529D01*
X015325Y004299D01*
X015325Y004453D02*
X015478Y004606D01*
X015478Y004760D02*
X015171Y005066D01*
X015094Y005066D01*
X015018Y004990D01*
X015018Y004836D01*
X015094Y004760D01*
X015478Y004760D02*
X015478Y005066D01*
X015478Y005220D02*
X015171Y005527D01*
X015094Y005527D01*
X015018Y005450D01*
X015018Y005297D01*
X015094Y005220D01*
X015478Y005220D02*
X015478Y005527D01*
X007495Y011080D02*
X007419Y011003D01*
X007265Y011003D01*
X007188Y011080D01*
X007035Y011080D02*
X006958Y011003D01*
X006805Y011003D01*
X006728Y011080D01*
X006728Y011233D02*
X006881Y011310D01*
X006958Y011310D01*
X007035Y011233D01*
X007035Y011080D01*
X007188Y011387D02*
X007265Y011463D01*
X007419Y011463D01*
X007495Y011387D01*
X007495Y011310D01*
X007419Y011233D01*
X007495Y011157D01*
X007495Y011080D01*
X007419Y011233D02*
X007342Y011233D01*
X007035Y011463D02*
X006728Y011463D01*
X006728Y011233D01*
X006575Y011233D02*
X006498Y011157D01*
X006268Y011157D01*
X006421Y011157D02*
X006575Y011003D01*
X006575Y011233D02*
X006575Y011387D01*
X006498Y011463D01*
X006268Y011463D01*
X006268Y011003D01*
X006858Y014546D02*
X006858Y015007D01*
X007088Y015007D01*
X007165Y014930D01*
X007165Y014777D01*
X007088Y014700D01*
X006858Y014700D01*
X007012Y014700D02*
X007165Y014546D01*
X007319Y014546D02*
X007626Y014546D01*
X007472Y014546D02*
X007472Y015007D01*
X007319Y014853D01*
X007779Y014777D02*
X008086Y014777D01*
X008009Y015007D02*
X008009Y014546D01*
X007779Y014777D02*
X008009Y015007D01*
X008009Y015334D02*
X007856Y015334D01*
X007779Y015411D01*
X007779Y015564D02*
X007932Y015641D01*
X008009Y015641D01*
X008086Y015564D01*
X008086Y015411D01*
X008009Y015334D01*
X007779Y015564D02*
X007779Y015794D01*
X008086Y015794D01*
X007472Y015794D02*
X007472Y015334D01*
X007319Y015334D02*
X007626Y015334D01*
X007319Y015641D02*
X007472Y015794D01*
X007165Y015717D02*
X007165Y015564D01*
X007088Y015487D01*
X006858Y015487D01*
X006858Y015334D02*
X006858Y015794D01*
X007088Y015794D01*
X007165Y015717D01*
X007012Y015487D02*
X007165Y015334D01*
X007165Y018483D02*
X007012Y018637D01*
X007088Y018637D02*
X006858Y018637D01*
X006858Y018483D02*
X006858Y018944D01*
X007088Y018944D01*
X007165Y018867D01*
X007165Y018714D01*
X007088Y018637D01*
X007319Y018790D02*
X007472Y018944D01*
X007472Y018483D01*
X007319Y018483D02*
X007626Y018483D01*
X007779Y018560D02*
X007856Y018483D01*
X008009Y018483D01*
X008086Y018560D01*
X008086Y018637D01*
X008009Y018714D01*
X007779Y018714D01*
X007779Y018560D01*
X007779Y018714D02*
X007932Y018867D01*
X008086Y018944D01*
X007779Y019271D02*
X007779Y019348D01*
X008086Y019654D01*
X008086Y019731D01*
X007779Y019731D01*
X007472Y019731D02*
X007472Y019271D01*
X007319Y019271D02*
X007626Y019271D01*
X007319Y019578D02*
X007472Y019731D01*
X007165Y019654D02*
X007165Y019501D01*
X007088Y019424D01*
X006858Y019424D01*
X006858Y019271D02*
X006858Y019731D01*
X007088Y019731D01*
X007165Y019654D01*
X007012Y019424D02*
X007165Y019271D01*
X007165Y022420D02*
X007012Y022574D01*
X007088Y022574D02*
X006858Y022574D01*
X006858Y022420D02*
X006858Y022881D01*
X007088Y022881D01*
X007165Y022804D01*
X007165Y022651D01*
X007088Y022574D01*
X007319Y022420D02*
X007626Y022727D01*
X007626Y022804D01*
X007549Y022881D01*
X007395Y022881D01*
X007319Y022804D01*
X007319Y022420D02*
X007626Y022420D01*
X007779Y022497D02*
X007779Y022574D01*
X007856Y022651D01*
X008009Y022651D01*
X008086Y022574D01*
X008086Y022497D01*
X008009Y022420D01*
X007856Y022420D01*
X007779Y022497D01*
X007856Y022651D02*
X007779Y022727D01*
X007779Y022804D01*
X007856Y022881D01*
X008009Y022881D01*
X008086Y022804D01*
X008086Y022727D01*
X008009Y022651D01*
X008009Y023208D02*
X007856Y023208D01*
X007779Y023285D01*
X007856Y023438D02*
X008086Y023438D01*
X008086Y023591D02*
X008009Y023668D01*
X007856Y023668D01*
X007779Y023591D01*
X007779Y023515D01*
X007856Y023438D01*
X007626Y023515D02*
X007626Y023591D01*
X007549Y023668D01*
X007395Y023668D01*
X007319Y023591D01*
X007165Y023591D02*
X007165Y023438D01*
X007088Y023361D01*
X006858Y023361D01*
X006858Y023208D02*
X006858Y023668D01*
X007088Y023668D01*
X007165Y023591D01*
X007012Y023361D02*
X007165Y023208D01*
X007319Y023208D02*
X007626Y023515D01*
X007626Y023208D02*
X007319Y023208D01*
X008009Y023208D02*
X008086Y023285D01*
X008086Y023591D01*
X007626Y026357D02*
X007319Y026357D01*
X007626Y026664D01*
X007626Y026741D01*
X007549Y026818D01*
X007395Y026818D01*
X007319Y026741D01*
X007165Y026741D02*
X007165Y026588D01*
X007088Y026511D01*
X006858Y026511D01*
X006858Y026357D02*
X006858Y026818D01*
X007088Y026818D01*
X007165Y026741D01*
X007012Y026511D02*
X007165Y026357D01*
X007165Y027145D02*
X007012Y027298D01*
X007088Y027298D02*
X006858Y027298D01*
X006858Y027145D02*
X006858Y027605D01*
X007088Y027605D01*
X007165Y027528D01*
X007165Y027375D01*
X007088Y027298D01*
X007319Y027222D02*
X007395Y027145D01*
X007549Y027145D01*
X007626Y027222D01*
X007626Y027298D01*
X007549Y027375D01*
X007472Y027375D01*
X007549Y027375D02*
X007626Y027452D01*
X007626Y027528D01*
X007549Y027605D01*
X007395Y027605D01*
X007319Y027528D01*
X007165Y030294D02*
X007012Y030448D01*
X007088Y030448D02*
X006858Y030448D01*
X006858Y030294D02*
X006858Y030755D01*
X007088Y030755D01*
X007165Y030678D01*
X007165Y030525D01*
X007088Y030448D01*
X007319Y030525D02*
X007626Y030525D01*
X007549Y030755D02*
X007319Y030525D01*
X007549Y030294D02*
X007549Y030755D01*
X007549Y031082D02*
X007395Y031082D01*
X007319Y031159D01*
X007165Y031082D02*
X007012Y031235D01*
X007088Y031235D02*
X006858Y031235D01*
X006858Y031082D02*
X006858Y031542D01*
X007088Y031542D01*
X007165Y031465D01*
X007165Y031312D01*
X007088Y031235D01*
X007319Y031465D02*
X007395Y031542D01*
X007549Y031542D01*
X007626Y031465D01*
X007626Y031389D01*
X007549Y031312D01*
X007626Y031235D01*
X007626Y031159D01*
X007549Y031082D01*
X007549Y031312D02*
X007472Y031312D01*
X007779Y031312D02*
X008086Y031312D01*
X008009Y031082D02*
X008009Y031542D01*
X007779Y031312D01*
X009140Y031493D02*
X009754Y031493D01*
X009677Y031416D02*
X009677Y031569D01*
X009601Y031646D01*
X009524Y031646D01*
X009447Y031569D01*
X009447Y031416D01*
X009370Y031339D01*
X009294Y031339D01*
X009217Y031416D01*
X009217Y031569D01*
X009294Y031646D01*
X009447Y031799D02*
X009447Y032030D01*
X009524Y032106D01*
X009601Y032106D01*
X009677Y032030D01*
X009677Y031876D01*
X009601Y031799D01*
X009447Y031799D01*
X009294Y031953D01*
X009217Y032106D01*
X009677Y031416D02*
X009601Y031339D01*
X009601Y031186D02*
X009217Y031186D01*
X009217Y030879D02*
X009601Y030879D01*
X009677Y030955D01*
X009677Y031109D01*
X009601Y031186D01*
X008086Y034231D02*
X007779Y034231D01*
X008086Y034538D01*
X008086Y034615D01*
X008009Y034692D01*
X007856Y034692D01*
X007779Y034615D01*
X007472Y034692D02*
X007472Y034231D01*
X007319Y034231D02*
X007626Y034231D01*
X007319Y034538D02*
X007472Y034692D01*
X007165Y034615D02*
X007165Y034462D01*
X007088Y034385D01*
X006858Y034385D01*
X006858Y034231D02*
X006858Y034692D01*
X007088Y034692D01*
X007165Y034615D01*
X007012Y034385D02*
X007165Y034231D01*
X007165Y035019D02*
X007012Y035172D01*
X007088Y035172D02*
X006858Y035172D01*
X006858Y035019D02*
X006858Y035479D01*
X007088Y035479D01*
X007165Y035402D01*
X007165Y035249D01*
X007088Y035172D01*
X007319Y035019D02*
X007626Y035019D01*
X007472Y035019D02*
X007472Y035479D01*
X007319Y035326D01*
X007779Y035402D02*
X007856Y035479D01*
X008009Y035479D01*
X008086Y035402D01*
X008086Y035326D01*
X008009Y035249D01*
X008086Y035172D01*
X008086Y035096D01*
X008009Y035019D01*
X007856Y035019D01*
X007779Y035096D01*
X007932Y035249D02*
X008009Y035249D01*
X009335Y039520D02*
X009719Y039520D01*
X009795Y039597D01*
X009795Y039751D01*
X009719Y039827D01*
X009335Y039827D01*
X009412Y039981D02*
X009335Y040058D01*
X009335Y040211D01*
X009412Y040288D01*
X009412Y040441D02*
X009335Y040518D01*
X009335Y040671D01*
X009412Y040748D01*
X009488Y040748D01*
X009565Y040671D01*
X009642Y040748D01*
X009719Y040748D01*
X009795Y040671D01*
X009795Y040518D01*
X009719Y040441D01*
X009719Y040288D02*
X009642Y040288D01*
X009565Y040211D01*
X009565Y040058D01*
X009488Y039981D01*
X009412Y039981D01*
X009258Y040134D02*
X009872Y040134D01*
X009795Y040058D02*
X009795Y040211D01*
X009719Y040288D01*
X009795Y040058D02*
X009719Y039981D01*
X009565Y040595D02*
X009565Y040671D01*
X008086Y040521D02*
X008086Y040214D01*
X008009Y040137D01*
X007856Y040137D01*
X007779Y040214D01*
X008086Y040521D01*
X008009Y040597D01*
X007856Y040597D01*
X007779Y040521D01*
X007779Y040214D01*
X007626Y040137D02*
X007319Y040137D01*
X007472Y040137D02*
X007472Y040597D01*
X007319Y040444D01*
X007165Y040521D02*
X007165Y040367D01*
X007088Y040290D01*
X006858Y040290D01*
X006858Y040137D02*
X006858Y040597D01*
X007088Y040597D01*
X007165Y040521D01*
X007012Y040290D02*
X007165Y040137D01*
X007165Y040924D02*
X007012Y041078D01*
X007088Y041078D02*
X006858Y041078D01*
X006858Y040924D02*
X006858Y041385D01*
X007088Y041385D01*
X007165Y041308D01*
X007165Y041155D01*
X007088Y041078D01*
X007319Y041231D02*
X007472Y041385D01*
X007472Y040924D01*
X007319Y040924D02*
X007626Y040924D01*
X007779Y040924D02*
X008086Y040924D01*
X007932Y040924D02*
X007932Y041385D01*
X007779Y041231D01*
X009998Y044653D02*
X009998Y044884D01*
X010075Y044960D01*
X010228Y044960D01*
X010305Y044884D01*
X010305Y044653D01*
X010458Y044653D02*
X009998Y044653D01*
X010305Y044807D02*
X010458Y044960D01*
X010382Y045114D02*
X010305Y045114D01*
X010228Y045191D01*
X010228Y045344D01*
X010305Y045421D01*
X010382Y045421D01*
X010458Y045344D01*
X010458Y045191D01*
X010382Y045114D01*
X010228Y045191D02*
X010151Y045114D01*
X010075Y045114D01*
X009998Y045191D01*
X009998Y045344D01*
X010075Y045421D01*
X010151Y045421D01*
X010228Y045344D01*
X012163Y045421D02*
X012163Y045114D01*
X012240Y044960D02*
X012394Y044960D01*
X012470Y044884D01*
X012470Y044653D01*
X012624Y044653D02*
X012163Y044653D01*
X012163Y044884D01*
X012240Y044960D01*
X012470Y044807D02*
X012624Y044960D01*
X012624Y045114D02*
X012547Y045114D01*
X012240Y045421D01*
X012163Y045421D01*
X014139Y045617D02*
X014499Y045617D01*
X014499Y045737D02*
X014499Y045497D01*
X014379Y045866D02*
X014139Y045866D01*
X014319Y045866D02*
X014319Y046106D01*
X014379Y046106D02*
X014499Y045986D01*
X014379Y045866D01*
X014379Y046106D02*
X014139Y046106D01*
X014199Y046234D02*
X014139Y046294D01*
X014139Y046474D01*
X014499Y046474D01*
X014499Y046294D01*
X014439Y046234D01*
X014379Y046234D01*
X014319Y046294D01*
X014319Y046474D01*
X014259Y046602D02*
X014499Y046602D01*
X014259Y046602D02*
X014139Y046722D01*
X014259Y046842D01*
X014499Y046842D01*
X014439Y047091D02*
X014499Y047151D01*
X014439Y047211D01*
X014379Y047211D01*
X014139Y046971D01*
X014139Y047091D02*
X014139Y047151D01*
X014199Y047211D01*
X014259Y047211D01*
X014379Y047091D01*
X014439Y047091D01*
X014259Y046971D02*
X014139Y047091D01*
X014139Y047459D02*
X014319Y047459D01*
X014439Y047339D01*
X014499Y047339D01*
X014319Y047459D02*
X014439Y047579D01*
X014499Y047579D01*
X014499Y047947D02*
X014139Y047947D01*
X014139Y047707D01*
X014319Y048075D02*
X014259Y048136D01*
X014259Y048316D01*
X014139Y048316D02*
X014499Y048316D01*
X014499Y048136D01*
X014439Y048075D01*
X014319Y048075D01*
X014259Y048444D02*
X014199Y048444D01*
X014139Y048504D01*
X014139Y048624D01*
X014199Y048684D01*
X014319Y048624D02*
X014319Y048504D01*
X014259Y048444D01*
X014439Y048444D02*
X014499Y048504D01*
X014499Y048624D01*
X014439Y048684D01*
X014379Y048684D01*
X014319Y048624D01*
X014319Y048812D02*
X014259Y048872D01*
X014259Y049052D01*
X014259Y048932D02*
X014139Y048812D01*
X014319Y048812D02*
X014439Y048812D01*
X014499Y048872D01*
X014499Y049052D01*
X014139Y049052D01*
X014139Y049180D02*
X014499Y049180D01*
X014499Y049421D02*
X014139Y049421D01*
X014259Y049301D01*
X014139Y049180D01*
X014319Y049549D02*
X014259Y049609D01*
X014259Y049789D01*
X014139Y049789D02*
X014499Y049789D01*
X014499Y049609D01*
X014439Y049549D01*
X014319Y049549D01*
X014259Y049917D02*
X014499Y049917D01*
X014259Y049917D02*
X014139Y050037D01*
X014259Y050157D01*
X014499Y050157D01*
X012470Y053227D02*
X012547Y053304D01*
X012547Y053611D01*
X012470Y053688D01*
X012317Y053688D01*
X012240Y053611D01*
X012240Y053534D01*
X012317Y053458D01*
X012547Y053458D01*
X012470Y053227D02*
X012317Y053227D01*
X012240Y053304D01*
X012086Y053227D02*
X011933Y053381D01*
X012010Y053381D02*
X011779Y053381D01*
X011779Y053227D02*
X011779Y053688D01*
X012010Y053688D01*
X012086Y053611D01*
X012086Y053458D01*
X012010Y053381D01*
X011432Y053381D02*
X011432Y053304D01*
X011356Y053227D01*
X011202Y053227D01*
X011125Y053304D01*
X011125Y053381D01*
X011202Y053458D01*
X011356Y053458D01*
X011432Y053381D01*
X011356Y053458D02*
X011432Y053534D01*
X011432Y053611D01*
X011356Y053688D01*
X011202Y053688D01*
X011125Y053611D01*
X011125Y053534D01*
X011202Y053458D01*
X010972Y053227D02*
X010665Y053227D01*
X010512Y053227D02*
X010358Y053381D01*
X010435Y053381D02*
X010205Y053381D01*
X010205Y053227D02*
X010205Y053688D01*
X010435Y053688D01*
X010512Y053611D01*
X010512Y053458D01*
X010435Y053381D01*
X010665Y053534D02*
X010819Y053688D01*
X010819Y053227D01*
X016607Y058501D02*
X016607Y058961D01*
X016760Y058961D02*
X016453Y058961D01*
X016914Y058961D02*
X016914Y058654D01*
X017067Y058501D01*
X017221Y058654D01*
X017221Y058961D01*
X017374Y058808D02*
X017528Y058961D01*
X017528Y058501D01*
X017681Y058501D02*
X017374Y058501D01*
X017835Y058577D02*
X017911Y058501D01*
X018065Y058501D01*
X018142Y058577D01*
X018142Y058654D01*
X018065Y058731D01*
X017835Y058731D01*
X017835Y058577D01*
X017835Y058731D02*
X017988Y058884D01*
X018142Y058961D01*
X014319Y046294D02*
X014259Y046234D01*
X014199Y046234D01*
X038827Y055672D02*
X038904Y055595D01*
X039058Y055595D01*
X039134Y055672D01*
X039134Y056056D01*
X039288Y055979D02*
X039365Y056056D01*
X039518Y056056D01*
X039595Y055979D01*
X039748Y055902D02*
X039902Y056056D01*
X039902Y055595D01*
X040055Y055595D02*
X039748Y055595D01*
X039595Y055672D02*
X039595Y055749D01*
X039518Y055825D01*
X039365Y055825D01*
X039288Y055902D01*
X039288Y055979D01*
X039441Y056132D02*
X039441Y055518D01*
X039365Y055595D02*
X039518Y055595D01*
X039595Y055672D01*
X039365Y055595D02*
X039288Y055672D01*
X038827Y055672D02*
X038827Y056056D01*
X043349Y049363D02*
X043425Y049363D01*
X043502Y049286D01*
X043579Y049363D01*
X043656Y049363D01*
X043732Y049286D01*
X043732Y049132D01*
X043656Y049056D01*
X043656Y048902D02*
X043272Y048902D01*
X043349Y049056D02*
X043272Y049132D01*
X043272Y049286D01*
X043349Y049363D01*
X043502Y049286D02*
X043502Y049209D01*
X043656Y048902D02*
X043732Y048825D01*
X043732Y048672D01*
X043656Y048595D01*
X043272Y048595D01*
D14*
X041590Y021466D02*
X041590Y021316D01*
X041610Y021296D01*
X041190Y021316D02*
X041170Y021296D01*
X041190Y021316D02*
X041190Y021416D01*
D15*
X041190Y021531D03*
X041590Y021531D03*
D16*
X028482Y048992D02*
X028062Y048992D01*
X028272Y048992D02*
X028272Y049623D01*
X028062Y049412D01*
X027838Y049623D02*
X027417Y049623D01*
X027417Y048992D01*
X027417Y049307D02*
X027627Y049307D01*
X025136Y049202D02*
X025136Y049097D01*
X025031Y048992D01*
X024820Y048992D01*
X024715Y049097D01*
X024926Y049307D02*
X025031Y049307D01*
X025136Y049202D01*
X025031Y049307D02*
X025136Y049412D01*
X025136Y049518D01*
X025031Y049623D01*
X024820Y049623D01*
X024715Y049518D01*
X024491Y049623D02*
X024071Y049623D01*
X024071Y048992D01*
X024071Y049307D02*
X024281Y049307D01*
X021789Y049412D02*
X021789Y049518D01*
X021684Y049623D01*
X021474Y049623D01*
X021369Y049518D01*
X021145Y049623D02*
X020724Y049623D01*
X020724Y048992D01*
X020724Y049307D02*
X020935Y049307D01*
X021369Y048992D02*
X021789Y049412D01*
X021789Y048992D02*
X021369Y048992D01*
X014533Y053840D02*
X014533Y054050D01*
X014428Y054155D01*
X014007Y054155D01*
X013902Y054050D01*
X013902Y053840D01*
X014007Y053735D01*
X014428Y053735D02*
X014533Y053840D01*
X014323Y054379D02*
X013902Y054379D01*
X014218Y054379D02*
X014218Y054799D01*
X014323Y054799D02*
X013902Y054799D01*
X014113Y055024D02*
X014533Y055024D01*
X014323Y054799D02*
X014533Y054589D01*
X014323Y054379D01*
X014113Y055024D02*
X013902Y055234D01*
X014113Y055444D01*
X014533Y055444D01*
D17*
X034863Y036134D02*
X038863Y036134D01*
X039981Y036134D02*
X043981Y036134D01*
X048274Y012724D02*
X048237Y012687D01*
X048237Y012614D01*
X048274Y012577D01*
X048274Y012724D02*
X048311Y012724D01*
X048457Y012577D01*
X048457Y012724D01*
X048457Y011724D02*
X048457Y011577D01*
X048457Y011651D02*
X048237Y011651D01*
X048311Y011577D01*
X048405Y004387D02*
X048515Y004387D01*
X048552Y004350D01*
X048552Y004276D01*
X048515Y004240D01*
X048405Y004240D01*
X048479Y004240D02*
X048552Y004166D01*
X048626Y004166D02*
X048773Y004166D01*
X048847Y004203D02*
X048884Y004166D01*
X048957Y004166D01*
X048994Y004203D01*
X048994Y004276D01*
X048920Y004276D01*
X048847Y004350D02*
X048847Y004203D01*
X048847Y004350D02*
X048884Y004387D01*
X048957Y004387D01*
X048994Y004350D01*
X048773Y004387D02*
X048626Y004387D01*
X048626Y004166D01*
X048626Y004276D02*
X048700Y004276D01*
X048405Y004166D02*
X048405Y004387D01*
X048331Y004130D02*
X048184Y004130D01*
X048110Y004203D02*
X048073Y004166D01*
X048000Y004166D01*
X047963Y004203D01*
X047963Y004350D01*
X048000Y004387D01*
X048073Y004387D01*
X048110Y004350D01*
X047889Y004387D02*
X047742Y004387D01*
X047816Y004387D02*
X047816Y004166D01*
X047668Y004166D02*
X047521Y004166D01*
X047521Y004387D01*
X047447Y004130D02*
X047300Y004130D01*
X047226Y004166D02*
X047226Y004387D01*
X047153Y004313D01*
X047079Y004387D01*
X047079Y004166D01*
X047005Y004203D02*
X047005Y004350D01*
X046968Y004387D01*
X046895Y004387D01*
X046858Y004350D01*
X046858Y004203D01*
X046895Y004166D01*
X046968Y004166D01*
X047005Y004203D01*
X046784Y004166D02*
X046711Y004240D01*
X046747Y004240D02*
X046637Y004240D01*
X046637Y004166D02*
X046637Y004387D01*
X046747Y004387D01*
X046784Y004350D01*
X046784Y004276D01*
X046747Y004240D01*
X046563Y004387D02*
X046416Y004387D01*
X046416Y004166D01*
X046416Y004276D02*
X046490Y004276D01*
X045499Y004276D02*
X045352Y004276D01*
X045352Y004313D02*
X045425Y004387D01*
X045499Y004313D01*
X045499Y004166D01*
X045352Y004166D02*
X045352Y004313D01*
X045278Y004130D02*
X045131Y004130D01*
X045057Y004203D02*
X045057Y004276D01*
X044983Y004276D01*
X044910Y004203D02*
X044947Y004166D01*
X045020Y004166D01*
X045057Y004203D01*
X045057Y004350D02*
X045020Y004387D01*
X044947Y004387D01*
X044910Y004350D01*
X044910Y004203D01*
X044836Y004166D02*
X044689Y004166D01*
X044689Y004387D01*
X044836Y004387D01*
X044762Y004276D02*
X044689Y004276D01*
X044615Y004276D02*
X044578Y004240D01*
X044468Y004240D01*
X044542Y004240D02*
X044615Y004166D01*
X044615Y004276D02*
X044615Y004350D01*
X044578Y004387D01*
X044468Y004387D01*
X044468Y004166D01*
X044394Y004130D02*
X044247Y004130D01*
X044173Y004203D02*
X044136Y004166D01*
X044063Y004166D01*
X044026Y004203D01*
X044026Y004350D01*
X044063Y004387D01*
X044136Y004387D01*
X044173Y004350D01*
X043952Y004387D02*
X043805Y004387D01*
X043879Y004387D02*
X043879Y004166D01*
X043731Y004166D02*
X043584Y004166D01*
X043584Y004387D01*
X043510Y004130D02*
X043363Y004130D01*
X043289Y004166D02*
X043289Y004387D01*
X043216Y004313D01*
X043142Y004387D01*
X043142Y004166D01*
X043068Y004203D02*
X043068Y004350D01*
X043031Y004387D01*
X042958Y004387D01*
X042921Y004350D01*
X042921Y004203D01*
X042958Y004166D01*
X043031Y004166D01*
X043068Y004203D01*
X042847Y004166D02*
X042774Y004240D01*
X042810Y004240D02*
X042700Y004240D01*
X042700Y004166D02*
X042700Y004387D01*
X042810Y004387D01*
X042847Y004350D01*
X042847Y004276D01*
X042810Y004240D01*
X042626Y004387D02*
X042479Y004387D01*
X042479Y004166D01*
X042479Y004276D02*
X042553Y004276D01*
X049068Y004130D02*
X049215Y004130D01*
X049289Y004166D02*
X049399Y004166D01*
X049436Y004203D01*
X049436Y004240D01*
X049399Y004276D01*
X049289Y004276D01*
X049289Y004166D02*
X049289Y004387D01*
X049399Y004387D01*
X049436Y004350D01*
X049436Y004313D01*
X049399Y004276D01*
D18*
X001697Y008030D02*
X001697Y008224D01*
X001697Y008127D02*
X001407Y008127D01*
X001407Y008325D02*
X001407Y008518D01*
X001697Y008518D01*
X001697Y008325D01*
X001552Y008422D02*
X001552Y008518D01*
X001503Y008619D02*
X001455Y008619D01*
X001407Y008668D01*
X001407Y008765D01*
X001455Y008813D01*
X001552Y008765D02*
X001552Y008668D01*
X001503Y008619D01*
X001648Y008619D02*
X001697Y008668D01*
X001697Y008765D01*
X001648Y008813D01*
X001600Y008813D01*
X001552Y008765D01*
X001697Y008914D02*
X001697Y009108D01*
X001407Y009108D01*
X001407Y008914D01*
X001552Y009011D02*
X001552Y009108D01*
X001552Y009209D02*
X001503Y009257D01*
X001503Y009402D01*
X001407Y009402D02*
X001697Y009402D01*
X001697Y009257D01*
X001648Y009209D01*
X001552Y009209D01*
X001503Y009306D02*
X001407Y009209D01*
X001358Y009503D02*
X001358Y009697D01*
X001407Y009797D02*
X001407Y009893D01*
X001407Y009845D02*
X001697Y009845D01*
X001697Y009893D02*
X001697Y009797D01*
X001648Y009995D02*
X001552Y009995D01*
X001503Y010043D01*
X001503Y010188D01*
X001407Y010188D02*
X001697Y010188D01*
X001697Y010043D01*
X001648Y009995D01*
X001648Y010289D02*
X001552Y010289D01*
X001503Y010338D01*
X001503Y010483D01*
X001407Y010483D02*
X001697Y010483D01*
X001697Y010338D01*
X001648Y010289D01*
X001503Y010386D02*
X001407Y010289D01*
X003405Y011885D02*
X003599Y011885D01*
X003700Y011885D02*
X003700Y012176D01*
X003893Y012176D01*
X003994Y012176D02*
X004140Y012176D01*
X004188Y012127D01*
X004188Y011934D01*
X004140Y011885D01*
X003994Y011885D01*
X003994Y012176D01*
X003797Y012031D02*
X003700Y012031D01*
X003700Y011885D02*
X003893Y011885D01*
X004289Y011885D02*
X004483Y011885D01*
X004386Y011885D02*
X004386Y012176D01*
X004289Y012079D01*
X003405Y012176D02*
X003405Y011885D01*
X005775Y013599D02*
X005775Y013793D01*
X005824Y013841D01*
X005920Y013841D01*
X005969Y013793D01*
X005969Y013599D01*
X005920Y013551D01*
X005824Y013551D01*
X005775Y013599D01*
X006070Y013599D02*
X006070Y013841D01*
X006263Y013841D02*
X006263Y013599D01*
X006215Y013551D01*
X006118Y013551D01*
X006070Y013599D01*
X006365Y013841D02*
X006558Y013841D01*
X006461Y013841D02*
X006461Y013551D01*
X006659Y013502D02*
X006853Y013502D01*
X006954Y013696D02*
X007147Y013696D01*
X007248Y013696D02*
X007394Y013696D01*
X007442Y013648D01*
X007442Y013599D01*
X007394Y013551D01*
X007297Y013551D01*
X007248Y013599D01*
X007248Y013696D01*
X007345Y013793D01*
X007442Y013841D01*
X007543Y013841D02*
X007543Y013648D01*
X007640Y013551D01*
X007737Y013648D01*
X007737Y013841D01*
X007838Y013841D02*
X007838Y013696D01*
X007935Y013744D01*
X007983Y013744D01*
X008031Y013696D01*
X008031Y013599D01*
X007983Y013551D01*
X007886Y013551D01*
X007838Y013599D01*
X007838Y013841D02*
X008031Y013841D01*
X007051Y013793D02*
X007051Y013599D01*
X006853Y017636D02*
X006659Y017636D01*
X006461Y017685D02*
X006461Y017975D01*
X006365Y017975D02*
X006558Y017975D01*
X006263Y017975D02*
X006263Y017733D01*
X006215Y017685D01*
X006118Y017685D01*
X006070Y017733D01*
X006070Y017975D01*
X005969Y017927D02*
X005920Y017975D01*
X005824Y017975D01*
X005775Y017927D01*
X005775Y017733D01*
X005824Y017685D01*
X005920Y017685D01*
X005969Y017733D01*
X005969Y017927D01*
X006954Y017830D02*
X007147Y017830D01*
X007248Y017878D02*
X007345Y017975D01*
X007345Y017685D01*
X007248Y017685D02*
X007442Y017685D01*
X007543Y017685D02*
X007737Y017878D01*
X007737Y017927D01*
X007688Y017975D01*
X007592Y017975D01*
X007543Y017927D01*
X007543Y017685D02*
X007737Y017685D01*
X007838Y017781D02*
X007935Y017685D01*
X008031Y017781D01*
X008031Y017975D01*
X007838Y017975D02*
X007838Y017781D01*
X007051Y017733D02*
X007051Y017927D01*
X006853Y021573D02*
X006659Y021573D01*
X006461Y021622D02*
X006461Y021912D01*
X006365Y021912D02*
X006558Y021912D01*
X006263Y021912D02*
X006263Y021670D01*
X006215Y021622D01*
X006118Y021622D01*
X006070Y021670D01*
X006070Y021912D01*
X005969Y021864D02*
X005920Y021912D01*
X005824Y021912D01*
X005775Y021864D01*
X005775Y021670D01*
X005824Y021622D01*
X005920Y021622D01*
X005969Y021670D01*
X005969Y021864D01*
X006954Y021767D02*
X007147Y021767D01*
X007248Y021815D02*
X007345Y021912D01*
X007345Y021622D01*
X007248Y021622D02*
X007442Y021622D01*
X007543Y021670D02*
X007592Y021622D01*
X007688Y021622D01*
X007737Y021670D01*
X007737Y021718D01*
X007688Y021767D01*
X007640Y021767D01*
X007688Y021767D02*
X007737Y021815D01*
X007737Y021864D01*
X007688Y021912D01*
X007592Y021912D01*
X007543Y021864D01*
X007838Y021912D02*
X007838Y021718D01*
X007935Y021622D01*
X008031Y021718D01*
X008031Y021912D01*
X008132Y021912D02*
X008132Y021767D01*
X008229Y021815D01*
X008278Y021815D01*
X008326Y021767D01*
X008326Y021670D01*
X008278Y021622D01*
X008181Y021622D01*
X008132Y021670D01*
X008132Y021912D02*
X008326Y021912D01*
X007051Y021864D02*
X007051Y021670D01*
X006853Y025510D02*
X006659Y025510D01*
X006461Y025559D02*
X006461Y025849D01*
X006365Y025849D02*
X006558Y025849D01*
X006263Y025849D02*
X006263Y025607D01*
X006215Y025559D01*
X006118Y025559D01*
X006070Y025607D01*
X006070Y025849D01*
X005969Y025801D02*
X005920Y025849D01*
X005824Y025849D01*
X005775Y025801D01*
X005775Y025607D01*
X005824Y025559D01*
X005920Y025559D01*
X005969Y025607D01*
X005969Y025801D01*
X006954Y025704D02*
X007147Y025704D01*
X007248Y025752D02*
X007345Y025849D01*
X007345Y025559D01*
X007248Y025559D02*
X007442Y025559D01*
X007543Y025607D02*
X007592Y025559D01*
X007688Y025559D01*
X007737Y025607D01*
X007737Y025801D01*
X007688Y025849D01*
X007592Y025849D01*
X007543Y025801D01*
X007543Y025752D01*
X007592Y025704D01*
X007737Y025704D01*
X007838Y025655D02*
X007935Y025559D01*
X008031Y025655D01*
X008031Y025849D01*
X008132Y025849D02*
X008132Y025704D01*
X008229Y025752D01*
X008278Y025752D01*
X008326Y025704D01*
X008326Y025607D01*
X008278Y025559D01*
X008181Y025559D01*
X008132Y025607D01*
X008132Y025849D02*
X008326Y025849D01*
X007838Y025849D02*
X007838Y025655D01*
X007051Y025607D02*
X007051Y025801D01*
X006853Y029644D02*
X006659Y029644D01*
X006461Y029693D02*
X006461Y029983D01*
X006365Y029983D02*
X006558Y029983D01*
X006263Y029983D02*
X006263Y029741D01*
X006215Y029693D01*
X006118Y029693D01*
X006070Y029741D01*
X006070Y029983D01*
X005969Y029934D02*
X005920Y029983D01*
X005824Y029983D01*
X005775Y029934D01*
X005775Y029741D01*
X005824Y029693D01*
X005920Y029693D01*
X005969Y029741D01*
X005969Y029934D01*
X006954Y029838D02*
X007147Y029838D01*
X007051Y029934D02*
X007051Y029741D01*
X007248Y029693D02*
X007442Y029886D01*
X007442Y029934D01*
X007394Y029983D01*
X007297Y029983D01*
X007248Y029934D01*
X007248Y029693D02*
X007442Y029693D01*
X007543Y029838D02*
X007737Y029838D01*
X007838Y029789D02*
X007935Y029693D01*
X008031Y029789D01*
X008031Y029983D01*
X007838Y029983D02*
X007838Y029789D01*
X007688Y029693D02*
X007688Y029983D01*
X007543Y029838D01*
X008132Y033384D02*
X008326Y033384D01*
X008427Y033433D02*
X008572Y033433D01*
X008621Y033481D01*
X008621Y033529D01*
X008572Y033578D01*
X008427Y033578D01*
X008427Y033723D02*
X008572Y033723D01*
X008621Y033675D01*
X008621Y033626D01*
X008572Y033578D01*
X008427Y033433D02*
X008427Y033723D01*
X008031Y033723D02*
X008031Y033529D01*
X007935Y033433D01*
X007838Y033529D01*
X007838Y033723D01*
X007737Y033675D02*
X007737Y033626D01*
X007688Y033578D01*
X007592Y033578D01*
X007543Y033626D01*
X007543Y033675D01*
X007592Y033723D01*
X007688Y033723D01*
X007737Y033675D01*
X007688Y033578D02*
X007737Y033529D01*
X007737Y033481D01*
X007688Y033433D01*
X007592Y033433D01*
X007543Y033481D01*
X007543Y033529D01*
X007592Y033578D01*
X007442Y033578D02*
X007248Y033578D01*
X007394Y033723D01*
X007394Y033433D01*
X007147Y033578D02*
X006954Y033578D01*
X007051Y033675D02*
X007051Y033481D01*
X006853Y033384D02*
X006659Y033384D01*
X006461Y033433D02*
X006461Y033723D01*
X006365Y033723D02*
X006558Y033723D01*
X006263Y033723D02*
X006263Y033481D01*
X006215Y033433D01*
X006118Y033433D01*
X006070Y033481D01*
X006070Y033723D01*
X005969Y033675D02*
X005920Y033723D01*
X005824Y033723D01*
X005775Y033675D01*
X005775Y033481D01*
X005824Y033433D01*
X005920Y033433D01*
X005969Y033481D01*
X005969Y033675D01*
X005920Y037567D02*
X005969Y037615D01*
X005969Y037808D01*
X005920Y037857D01*
X005824Y037857D01*
X005775Y037808D01*
X005775Y037615D01*
X005824Y037567D01*
X005920Y037567D01*
X006070Y037615D02*
X006118Y037567D01*
X006215Y037567D01*
X006263Y037615D01*
X006263Y037857D01*
X006365Y037857D02*
X006558Y037857D01*
X006461Y037857D02*
X006461Y037567D01*
X006659Y037518D02*
X006853Y037518D01*
X006954Y037712D02*
X007147Y037712D01*
X007248Y037712D02*
X007442Y037712D01*
X007543Y037760D02*
X007543Y037808D01*
X007592Y037857D01*
X007688Y037857D01*
X007737Y037808D01*
X007737Y037760D01*
X007688Y037712D01*
X007592Y037712D01*
X007543Y037760D01*
X007592Y037712D02*
X007543Y037663D01*
X007543Y037615D01*
X007592Y037567D01*
X007688Y037567D01*
X007737Y037615D01*
X007737Y037663D01*
X007688Y037712D01*
X007838Y037663D02*
X007935Y037567D01*
X008031Y037663D01*
X008031Y037857D01*
X007838Y037857D02*
X007838Y037663D01*
X008132Y037518D02*
X008326Y037518D01*
X008427Y037567D02*
X008427Y037760D01*
X008524Y037857D01*
X008621Y037760D01*
X008621Y037567D01*
X008621Y037712D02*
X008427Y037712D01*
X007394Y037857D02*
X007248Y037712D01*
X007394Y037567D02*
X007394Y037857D01*
X007051Y037808D02*
X007051Y037615D01*
X006070Y037615D02*
X006070Y037857D01*
X009151Y005478D02*
X009345Y005478D01*
X009441Y005381D01*
X009345Y005284D01*
X009151Y005284D01*
X009151Y005183D02*
X009151Y005038D01*
X009199Y004990D01*
X009393Y004990D01*
X009441Y005038D01*
X009441Y005183D01*
X009151Y005183D01*
X009296Y005284D02*
X009296Y005478D01*
X009199Y004888D02*
X009151Y004840D01*
X009151Y004792D01*
X009199Y004743D01*
X009441Y004743D01*
X009441Y004695D02*
X009441Y004792D01*
X009103Y004594D02*
X009103Y004400D01*
X009248Y004299D02*
X009151Y004202D01*
X009248Y004106D01*
X009441Y004106D01*
X009441Y004004D02*
X009441Y003859D01*
X009393Y003811D01*
X009296Y003811D01*
X009248Y003859D01*
X009248Y004004D01*
X009151Y004004D02*
X009441Y004004D01*
X009441Y003710D02*
X009151Y003710D01*
X009248Y003613D01*
X009151Y003516D01*
X009441Y003516D01*
X009441Y003415D02*
X009441Y003270D01*
X009393Y003222D01*
X009296Y003222D01*
X009248Y003270D01*
X009248Y003415D01*
X009248Y003318D02*
X009151Y003222D01*
X009199Y003120D02*
X009151Y003072D01*
X009151Y002975D01*
X009199Y002927D01*
X009248Y002927D01*
X009296Y002975D01*
X009296Y003072D01*
X009345Y003120D01*
X009393Y003120D01*
X009441Y003072D01*
X009441Y002975D01*
X009393Y002927D01*
X009441Y002826D02*
X009441Y002681D01*
X009393Y002632D01*
X009296Y002632D01*
X009248Y002681D01*
X009248Y002826D01*
X009151Y002826D02*
X009441Y002826D01*
X009441Y002531D02*
X009151Y002531D01*
X009151Y002338D01*
X009151Y002140D02*
X009296Y002140D01*
X009393Y002043D01*
X009441Y002043D01*
X009296Y002140D02*
X009393Y002237D01*
X009441Y002237D01*
X009441Y003415D02*
X009151Y003415D01*
X009248Y004299D02*
X009441Y004299D01*
X028086Y004291D02*
X028086Y004582D01*
X028280Y004582D01*
X028381Y004582D02*
X028526Y004582D01*
X028574Y004533D01*
X028574Y004437D01*
X028526Y004388D01*
X028381Y004388D01*
X028381Y004291D02*
X028381Y004582D01*
X028478Y004388D02*
X028574Y004291D01*
X028676Y004340D02*
X028724Y004291D01*
X028821Y004291D01*
X028869Y004340D01*
X028869Y004533D01*
X028821Y004582D01*
X028724Y004582D01*
X028676Y004533D01*
X028676Y004340D01*
X028970Y004291D02*
X028970Y004582D01*
X029067Y004485D01*
X029164Y004582D01*
X029164Y004291D01*
X029265Y004243D02*
X029458Y004243D01*
X029560Y004340D02*
X029608Y004291D01*
X029705Y004291D01*
X029753Y004340D01*
X029753Y004437D01*
X029656Y004437D01*
X029560Y004533D02*
X029560Y004340D01*
X029560Y004533D02*
X029608Y004582D01*
X029705Y004582D01*
X029753Y004533D01*
X029854Y004582D02*
X029999Y004582D01*
X030048Y004533D01*
X030048Y004437D01*
X029999Y004388D01*
X029854Y004388D01*
X029854Y004291D02*
X029854Y004582D01*
X029951Y004388D02*
X030048Y004291D01*
X030149Y004291D02*
X030342Y004291D01*
X030246Y004437D02*
X030149Y004437D01*
X030149Y004582D02*
X030149Y004291D01*
X030149Y004582D02*
X030342Y004582D01*
X030443Y004582D02*
X030443Y004533D01*
X030540Y004437D01*
X030540Y004291D01*
X030540Y004437D02*
X030637Y004533D01*
X030637Y004582D01*
X030738Y004243D02*
X030932Y004243D01*
X031033Y004291D02*
X031033Y004582D01*
X031178Y004582D01*
X031226Y004533D01*
X031226Y004437D01*
X031178Y004388D01*
X031033Y004388D01*
X031130Y004388D02*
X031226Y004291D01*
X031327Y004291D02*
X031521Y004291D01*
X031622Y004340D02*
X031670Y004291D01*
X031767Y004291D01*
X031816Y004340D01*
X031816Y004437D01*
X031719Y004437D01*
X031816Y004533D02*
X031767Y004582D01*
X031670Y004582D01*
X031622Y004533D01*
X031622Y004340D01*
X031424Y004437D02*
X031327Y004437D01*
X031327Y004582D02*
X031327Y004291D01*
X031327Y004582D02*
X031521Y004582D01*
X032515Y004582D02*
X032709Y004582D01*
X032612Y004582D02*
X032612Y004291D01*
X032810Y004340D02*
X032858Y004291D01*
X032955Y004291D01*
X033004Y004340D01*
X033004Y004533D01*
X032955Y004582D01*
X032858Y004582D01*
X032810Y004533D01*
X032810Y004340D01*
X033105Y004243D02*
X033298Y004243D01*
X033399Y004340D02*
X033448Y004291D01*
X033544Y004291D01*
X033593Y004340D01*
X033593Y004437D01*
X033496Y004437D01*
X033399Y004533D02*
X033399Y004340D01*
X033399Y004533D02*
X033448Y004582D01*
X033544Y004582D01*
X033593Y004533D01*
X033694Y004582D02*
X033839Y004582D01*
X033887Y004533D01*
X033887Y004437D01*
X033839Y004388D01*
X033694Y004388D01*
X033694Y004291D02*
X033694Y004582D01*
X033791Y004388D02*
X033887Y004291D01*
X033989Y004291D02*
X034182Y004291D01*
X034085Y004437D02*
X033989Y004437D01*
X033989Y004582D02*
X033989Y004291D01*
X033989Y004582D02*
X034182Y004582D01*
X034283Y004582D02*
X034283Y004533D01*
X034380Y004437D01*
X034380Y004291D01*
X034380Y004437D02*
X034477Y004533D01*
X034477Y004582D01*
X034578Y004243D02*
X034771Y004243D01*
X034873Y004291D02*
X034873Y004582D01*
X035018Y004582D01*
X035066Y004533D01*
X035066Y004437D01*
X035018Y004388D01*
X034873Y004388D01*
X034969Y004388D02*
X035066Y004291D01*
X035167Y004291D02*
X035361Y004291D01*
X035462Y004340D02*
X035510Y004291D01*
X035607Y004291D01*
X035655Y004340D01*
X035655Y004437D01*
X035559Y004437D01*
X035655Y004533D02*
X035607Y004582D01*
X035510Y004582D01*
X035462Y004533D01*
X035462Y004340D01*
X035264Y004437D02*
X035167Y004437D01*
X035167Y004582D02*
X035167Y004291D01*
X035167Y004582D02*
X035361Y004582D01*
X038621Y004422D02*
X038814Y004422D01*
X038718Y004422D02*
X038718Y004131D01*
X038916Y004180D02*
X038964Y004131D01*
X039061Y004131D01*
X039109Y004180D01*
X039109Y004373D01*
X039061Y004422D01*
X038964Y004422D01*
X038916Y004373D01*
X038916Y004180D01*
X039210Y004083D02*
X039404Y004083D01*
X039505Y004131D02*
X039698Y004131D01*
X039505Y004131D02*
X039505Y004422D01*
X039799Y004422D02*
X039993Y004422D01*
X039896Y004422D02*
X039896Y004131D01*
X040094Y004180D02*
X040143Y004131D01*
X040239Y004131D01*
X040288Y004180D01*
X040389Y004083D02*
X040582Y004083D01*
X040683Y004131D02*
X040683Y004422D01*
X040829Y004422D01*
X040877Y004373D01*
X040877Y004277D01*
X040829Y004228D01*
X040683Y004228D01*
X040780Y004228D02*
X040877Y004131D01*
X040978Y004131D02*
X041172Y004131D01*
X041273Y004180D02*
X041321Y004131D01*
X041418Y004131D01*
X041466Y004180D01*
X041466Y004277D01*
X041369Y004277D01*
X041273Y004373D02*
X041273Y004180D01*
X041273Y004373D02*
X041321Y004422D01*
X041418Y004422D01*
X041466Y004373D01*
X041172Y004422D02*
X040978Y004422D01*
X040978Y004131D01*
X040978Y004277D02*
X041075Y004277D01*
X040288Y004373D02*
X040239Y004422D01*
X040143Y004422D01*
X040094Y004373D01*
X040094Y004180D01*
X028183Y004437D02*
X028086Y004437D01*
D19*
X027099Y023930D02*
X010248Y023930D01*
X010248Y031961D01*
X027099Y031961D01*
X027099Y023930D01*
X027099Y032591D02*
X010248Y032591D01*
X010248Y040622D01*
X027099Y040622D01*
X027099Y032591D01*
D20*
X045055Y013656D03*
X045055Y010856D03*
D21*
X045055Y011806D03*
X045055Y012706D03*
D22*
X046115Y011805D03*
X016587Y003439D03*
D23*
X016587Y002814D03*
X016587Y005164D03*
X046115Y011180D03*
X046115Y013530D03*
D24*
X035919Y058024D03*
D25*
X035294Y058024D03*
X037644Y058024D03*
D26*
X003851Y011804D03*
X003851Y011331D03*
D27*
X003851Y011567D03*
M02*
