G75*
G70*
%OFA0B0*%
%FSLAX24Y24*%
%IPPOS*%
%LPD*%
%AMOC8*
5,1,8,0,0,1.08239X$1,22.5*
%
%ADD10C,0.0000*%
%ADD11C,0.0040*%
%ADD12R,0.0866X0.0236*%
%ADD13R,0.0512X0.0591*%
%ADD14C,0.0520*%
%ADD15C,0.0768*%
%ADD16C,0.0740*%
%ADD17OC8,0.0515*%
%ADD18C,0.0515*%
%ADD19C,0.0780*%
%ADD20R,0.0591X0.0512*%
%ADD21R,0.0260X0.0800*%
%ADD22C,0.0760*%
%ADD23OC8,0.0520*%
%ADD24OC8,0.0600*%
%ADD25C,0.0150*%
%ADD26C,0.0020*%
%ADD27R,0.0630X0.0460*%
%ADD28R,0.0080X0.0250*%
%ADD29R,0.0945X0.0945*%
%ADD30OC8,0.0945*%
%ADD31C,0.0945*%
%ADD32C,0.0600*%
%ADD33C,0.0520*%
%ADD34C,0.0660*%
%ADD35R,0.0551X0.0394*%
%ADD36OC8,0.1000*%
%ADD37C,0.0600*%
%ADD38OC8,0.0630*%
%ADD39C,0.0630*%
%ADD40C,0.0120*%
%ADD41R,0.0594X0.0594*%
%ADD42C,0.0594*%
%ADD43R,0.0472X0.0472*%
%ADD44C,0.0787*%
%ADD45C,0.0500*%
%ADD46C,0.0240*%
%ADD47C,0.1500*%
%ADD48C,0.0700*%
%ADD49C,0.1000*%
%ADD50C,0.0356*%
%ADD51C,0.0320*%
%ADD52C,0.0160*%
%ADD53C,0.0400*%
%ADD54C,0.0660*%
D10*
X000839Y005859D02*
X007532Y005859D01*
X007578Y005857D01*
X007624Y005852D01*
X007670Y005843D01*
X007715Y005830D01*
X007758Y005814D01*
X007800Y005795D01*
X007841Y005772D01*
X007879Y005746D01*
X007916Y005717D01*
X007950Y005686D01*
X007981Y005652D01*
X008010Y005615D01*
X008036Y005577D01*
X008059Y005536D01*
X008078Y005494D01*
X008094Y005451D01*
X008107Y005406D01*
X008116Y005360D01*
X008121Y005314D01*
X008123Y005268D01*
X008122Y005268D02*
X008122Y000741D01*
X008124Y000695D01*
X008129Y000649D01*
X008138Y000603D01*
X008151Y000558D01*
X008167Y000515D01*
X008186Y000473D01*
X008209Y000432D01*
X008235Y000394D01*
X008264Y000357D01*
X008295Y000323D01*
X008329Y000292D01*
X008366Y000263D01*
X008404Y000237D01*
X008445Y000214D01*
X008487Y000195D01*
X008530Y000179D01*
X008575Y000166D01*
X008621Y000157D01*
X008667Y000152D01*
X008713Y000150D01*
X050248Y000150D01*
X050314Y000152D01*
X050380Y000157D01*
X050446Y000167D01*
X050511Y000180D01*
X050575Y000196D01*
X050638Y000216D01*
X050700Y000240D01*
X050760Y000267D01*
X050819Y000297D01*
X050876Y000331D01*
X050931Y000368D01*
X050984Y000408D01*
X051035Y000450D01*
X051083Y000496D01*
X051129Y000544D01*
X051171Y000595D01*
X051211Y000648D01*
X051248Y000703D01*
X051282Y000760D01*
X051312Y000819D01*
X051339Y000879D01*
X051363Y000941D01*
X051383Y001004D01*
X051399Y001068D01*
X051412Y001133D01*
X051422Y001199D01*
X051427Y001265D01*
X051429Y001331D01*
X051430Y001331D02*
X051430Y058024D01*
X051429Y058024D02*
X051427Y058090D01*
X051422Y058156D01*
X051412Y058222D01*
X051399Y058287D01*
X051383Y058351D01*
X051363Y058414D01*
X051339Y058476D01*
X051312Y058536D01*
X051282Y058595D01*
X051248Y058652D01*
X051211Y058707D01*
X051171Y058760D01*
X051129Y058811D01*
X051083Y058859D01*
X051035Y058905D01*
X050984Y058947D01*
X050931Y058987D01*
X050876Y059024D01*
X050819Y059058D01*
X050760Y059088D01*
X050700Y059115D01*
X050638Y059139D01*
X050575Y059159D01*
X050511Y059175D01*
X050446Y059188D01*
X050380Y059198D01*
X050314Y059203D01*
X050248Y059205D01*
X008713Y059205D01*
X008713Y059206D02*
X008667Y059204D01*
X008621Y059199D01*
X008575Y059190D01*
X008530Y059177D01*
X008487Y059161D01*
X008445Y059142D01*
X008404Y059119D01*
X008366Y059093D01*
X008329Y059064D01*
X008295Y059033D01*
X008264Y058999D01*
X008235Y058962D01*
X008209Y058924D01*
X008186Y058883D01*
X008167Y058841D01*
X008151Y058798D01*
X008138Y058753D01*
X008129Y058707D01*
X008124Y058661D01*
X008122Y058615D01*
X008122Y044048D01*
X008123Y044048D02*
X008121Y044002D01*
X008116Y043956D01*
X008107Y043910D01*
X008094Y043865D01*
X008078Y043822D01*
X008059Y043780D01*
X008036Y043739D01*
X008010Y043701D01*
X007981Y043664D01*
X007950Y043630D01*
X007916Y043599D01*
X007879Y043570D01*
X007841Y043544D01*
X007800Y043521D01*
X007758Y043502D01*
X007715Y043486D01*
X007670Y043473D01*
X007624Y043464D01*
X007578Y043459D01*
X007532Y043457D01*
X000839Y043457D01*
X000839Y043458D02*
X000793Y043456D01*
X000747Y043451D01*
X000701Y043442D01*
X000656Y043429D01*
X000613Y043413D01*
X000571Y043394D01*
X000530Y043371D01*
X000492Y043345D01*
X000455Y043316D01*
X000421Y043285D01*
X000390Y043251D01*
X000361Y043214D01*
X000335Y043176D01*
X000312Y043135D01*
X000293Y043093D01*
X000277Y043050D01*
X000264Y043005D01*
X000255Y042959D01*
X000250Y042913D01*
X000248Y042867D01*
X000248Y006449D01*
X000250Y006403D01*
X000255Y006357D01*
X000264Y006311D01*
X000277Y006266D01*
X000293Y006223D01*
X000312Y006181D01*
X000335Y006140D01*
X000361Y006102D01*
X000390Y006065D01*
X000421Y006031D01*
X000455Y006000D01*
X000492Y005971D01*
X000530Y005945D01*
X000571Y005922D01*
X000613Y005903D01*
X000656Y005887D01*
X000701Y005874D01*
X000747Y005865D01*
X000793Y005860D01*
X000839Y005858D01*
X014421Y015898D02*
X014423Y015946D01*
X014429Y015994D01*
X014439Y016041D01*
X014452Y016087D01*
X014470Y016132D01*
X014490Y016176D01*
X014515Y016218D01*
X014543Y016257D01*
X014573Y016294D01*
X014607Y016328D01*
X014644Y016360D01*
X014682Y016389D01*
X014723Y016414D01*
X014766Y016436D01*
X014811Y016454D01*
X014857Y016468D01*
X014904Y016479D01*
X014952Y016486D01*
X015000Y016489D01*
X015048Y016488D01*
X015096Y016483D01*
X015144Y016474D01*
X015190Y016462D01*
X015235Y016445D01*
X015279Y016425D01*
X015321Y016402D01*
X015361Y016375D01*
X015399Y016345D01*
X015434Y016312D01*
X015466Y016276D01*
X015496Y016238D01*
X015522Y016197D01*
X015544Y016154D01*
X015564Y016110D01*
X015579Y016065D01*
X015591Y016018D01*
X015599Y015970D01*
X015603Y015922D01*
X015603Y015874D01*
X015599Y015826D01*
X015591Y015778D01*
X015579Y015731D01*
X015564Y015686D01*
X015544Y015642D01*
X015522Y015599D01*
X015496Y015558D01*
X015466Y015520D01*
X015434Y015484D01*
X015399Y015451D01*
X015361Y015421D01*
X015321Y015394D01*
X015279Y015371D01*
X015235Y015351D01*
X015190Y015334D01*
X015144Y015322D01*
X015096Y015313D01*
X015048Y015308D01*
X015000Y015307D01*
X014952Y015310D01*
X014904Y015317D01*
X014857Y015328D01*
X014811Y015342D01*
X014766Y015360D01*
X014723Y015382D01*
X014682Y015407D01*
X014644Y015436D01*
X014607Y015468D01*
X014573Y015502D01*
X014543Y015539D01*
X014515Y015578D01*
X014490Y015620D01*
X014470Y015664D01*
X014452Y015709D01*
X014439Y015755D01*
X014429Y015802D01*
X014423Y015850D01*
X014421Y015898D01*
X021355Y045426D02*
X021357Y045480D01*
X021363Y045534D01*
X021373Y045588D01*
X021387Y045640D01*
X021404Y045692D01*
X021425Y045742D01*
X021450Y045790D01*
X021479Y045837D01*
X021510Y045881D01*
X021545Y045922D01*
X021583Y045962D01*
X021623Y045998D01*
X021666Y046031D01*
X021711Y046061D01*
X021759Y046088D01*
X021808Y046111D01*
X021859Y046130D01*
X021911Y046146D01*
X021964Y046158D01*
X022018Y046166D01*
X022072Y046170D01*
X022126Y046170D01*
X022180Y046166D01*
X022234Y046158D01*
X022287Y046146D01*
X022339Y046130D01*
X022390Y046111D01*
X022439Y046088D01*
X022487Y046061D01*
X022532Y046031D01*
X022575Y045998D01*
X022615Y045962D01*
X022653Y045922D01*
X022688Y045881D01*
X022719Y045837D01*
X022748Y045790D01*
X022773Y045742D01*
X022794Y045692D01*
X022811Y045640D01*
X022825Y045588D01*
X022835Y045534D01*
X022841Y045480D01*
X022843Y045426D01*
X022841Y045372D01*
X022835Y045318D01*
X022825Y045264D01*
X022811Y045212D01*
X022794Y045160D01*
X022773Y045110D01*
X022748Y045062D01*
X022719Y045015D01*
X022688Y044971D01*
X022653Y044930D01*
X022615Y044890D01*
X022575Y044854D01*
X022532Y044821D01*
X022487Y044791D01*
X022439Y044764D01*
X022390Y044741D01*
X022339Y044722D01*
X022287Y044706D01*
X022234Y044694D01*
X022180Y044686D01*
X022126Y044682D01*
X022072Y044682D01*
X022018Y044686D01*
X021964Y044694D01*
X021911Y044706D01*
X021859Y044722D01*
X021808Y044741D01*
X021759Y044764D01*
X021711Y044791D01*
X021666Y044821D01*
X021623Y044854D01*
X021583Y044890D01*
X021545Y044930D01*
X021510Y044971D01*
X021479Y045015D01*
X021450Y045062D01*
X021425Y045110D01*
X021404Y045160D01*
X021387Y045212D01*
X021373Y045264D01*
X021363Y045318D01*
X021357Y045372D01*
X021355Y045426D01*
X024701Y045426D02*
X024703Y045480D01*
X024709Y045534D01*
X024719Y045588D01*
X024733Y045640D01*
X024750Y045692D01*
X024771Y045742D01*
X024796Y045790D01*
X024825Y045837D01*
X024856Y045881D01*
X024891Y045922D01*
X024929Y045962D01*
X024969Y045998D01*
X025012Y046031D01*
X025057Y046061D01*
X025105Y046088D01*
X025154Y046111D01*
X025205Y046130D01*
X025257Y046146D01*
X025310Y046158D01*
X025364Y046166D01*
X025418Y046170D01*
X025472Y046170D01*
X025526Y046166D01*
X025580Y046158D01*
X025633Y046146D01*
X025685Y046130D01*
X025736Y046111D01*
X025785Y046088D01*
X025833Y046061D01*
X025878Y046031D01*
X025921Y045998D01*
X025961Y045962D01*
X025999Y045922D01*
X026034Y045881D01*
X026065Y045837D01*
X026094Y045790D01*
X026119Y045742D01*
X026140Y045692D01*
X026157Y045640D01*
X026171Y045588D01*
X026181Y045534D01*
X026187Y045480D01*
X026189Y045426D01*
X026187Y045372D01*
X026181Y045318D01*
X026171Y045264D01*
X026157Y045212D01*
X026140Y045160D01*
X026119Y045110D01*
X026094Y045062D01*
X026065Y045015D01*
X026034Y044971D01*
X025999Y044930D01*
X025961Y044890D01*
X025921Y044854D01*
X025878Y044821D01*
X025833Y044791D01*
X025785Y044764D01*
X025736Y044741D01*
X025685Y044722D01*
X025633Y044706D01*
X025580Y044694D01*
X025526Y044686D01*
X025472Y044682D01*
X025418Y044682D01*
X025364Y044686D01*
X025310Y044694D01*
X025257Y044706D01*
X025205Y044722D01*
X025154Y044741D01*
X025105Y044764D01*
X025057Y044791D01*
X025012Y044821D01*
X024969Y044854D01*
X024929Y044890D01*
X024891Y044930D01*
X024856Y044971D01*
X024825Y045015D01*
X024796Y045062D01*
X024771Y045110D01*
X024750Y045160D01*
X024733Y045212D01*
X024719Y045264D01*
X024709Y045318D01*
X024703Y045372D01*
X024701Y045426D01*
X028048Y045426D02*
X028050Y045480D01*
X028056Y045534D01*
X028066Y045588D01*
X028080Y045640D01*
X028097Y045692D01*
X028118Y045742D01*
X028143Y045790D01*
X028172Y045837D01*
X028203Y045881D01*
X028238Y045922D01*
X028276Y045962D01*
X028316Y045998D01*
X028359Y046031D01*
X028404Y046061D01*
X028452Y046088D01*
X028501Y046111D01*
X028552Y046130D01*
X028604Y046146D01*
X028657Y046158D01*
X028711Y046166D01*
X028765Y046170D01*
X028819Y046170D01*
X028873Y046166D01*
X028927Y046158D01*
X028980Y046146D01*
X029032Y046130D01*
X029083Y046111D01*
X029132Y046088D01*
X029180Y046061D01*
X029225Y046031D01*
X029268Y045998D01*
X029308Y045962D01*
X029346Y045922D01*
X029381Y045881D01*
X029412Y045837D01*
X029441Y045790D01*
X029466Y045742D01*
X029487Y045692D01*
X029504Y045640D01*
X029518Y045588D01*
X029528Y045534D01*
X029534Y045480D01*
X029536Y045426D01*
X029534Y045372D01*
X029528Y045318D01*
X029518Y045264D01*
X029504Y045212D01*
X029487Y045160D01*
X029466Y045110D01*
X029441Y045062D01*
X029412Y045015D01*
X029381Y044971D01*
X029346Y044930D01*
X029308Y044890D01*
X029268Y044854D01*
X029225Y044821D01*
X029180Y044791D01*
X029132Y044764D01*
X029083Y044741D01*
X029032Y044722D01*
X028980Y044706D01*
X028927Y044694D01*
X028873Y044686D01*
X028819Y044682D01*
X028765Y044682D01*
X028711Y044686D01*
X028657Y044694D01*
X028604Y044706D01*
X028552Y044722D01*
X028501Y044741D01*
X028452Y044764D01*
X028404Y044791D01*
X028359Y044821D01*
X028316Y044854D01*
X028276Y044890D01*
X028238Y044930D01*
X028203Y044971D01*
X028172Y045015D01*
X028143Y045062D01*
X028118Y045110D01*
X028097Y045160D01*
X028080Y045212D01*
X028066Y045264D01*
X028056Y045318D01*
X028050Y045372D01*
X028048Y045426D01*
X014421Y056646D02*
X014423Y056694D01*
X014429Y056742D01*
X014439Y056789D01*
X014452Y056835D01*
X014470Y056880D01*
X014490Y056924D01*
X014515Y056966D01*
X014543Y057005D01*
X014573Y057042D01*
X014607Y057076D01*
X014644Y057108D01*
X014682Y057137D01*
X014723Y057162D01*
X014766Y057184D01*
X014811Y057202D01*
X014857Y057216D01*
X014904Y057227D01*
X014952Y057234D01*
X015000Y057237D01*
X015048Y057236D01*
X015096Y057231D01*
X015144Y057222D01*
X015190Y057210D01*
X015235Y057193D01*
X015279Y057173D01*
X015321Y057150D01*
X015361Y057123D01*
X015399Y057093D01*
X015434Y057060D01*
X015466Y057024D01*
X015496Y056986D01*
X015522Y056945D01*
X015544Y056902D01*
X015564Y056858D01*
X015579Y056813D01*
X015591Y056766D01*
X015599Y056718D01*
X015603Y056670D01*
X015603Y056622D01*
X015599Y056574D01*
X015591Y056526D01*
X015579Y056479D01*
X015564Y056434D01*
X015544Y056390D01*
X015522Y056347D01*
X015496Y056306D01*
X015466Y056268D01*
X015434Y056232D01*
X015399Y056199D01*
X015361Y056169D01*
X015321Y056142D01*
X015279Y056119D01*
X015235Y056099D01*
X015190Y056082D01*
X015144Y056070D01*
X015096Y056061D01*
X015048Y056056D01*
X015000Y056055D01*
X014952Y056058D01*
X014904Y056065D01*
X014857Y056076D01*
X014811Y056090D01*
X014766Y056108D01*
X014723Y056130D01*
X014682Y056155D01*
X014644Y056184D01*
X014607Y056216D01*
X014573Y056250D01*
X014543Y056287D01*
X014515Y056326D01*
X014490Y056368D01*
X014470Y056412D01*
X014452Y056457D01*
X014439Y056503D01*
X014429Y056550D01*
X014423Y056598D01*
X014421Y056646D01*
X042965Y056646D02*
X042967Y056694D01*
X042973Y056742D01*
X042983Y056789D01*
X042996Y056835D01*
X043014Y056880D01*
X043034Y056924D01*
X043059Y056966D01*
X043087Y057005D01*
X043117Y057042D01*
X043151Y057076D01*
X043188Y057108D01*
X043226Y057137D01*
X043267Y057162D01*
X043310Y057184D01*
X043355Y057202D01*
X043401Y057216D01*
X043448Y057227D01*
X043496Y057234D01*
X043544Y057237D01*
X043592Y057236D01*
X043640Y057231D01*
X043688Y057222D01*
X043734Y057210D01*
X043779Y057193D01*
X043823Y057173D01*
X043865Y057150D01*
X043905Y057123D01*
X043943Y057093D01*
X043978Y057060D01*
X044010Y057024D01*
X044040Y056986D01*
X044066Y056945D01*
X044088Y056902D01*
X044108Y056858D01*
X044123Y056813D01*
X044135Y056766D01*
X044143Y056718D01*
X044147Y056670D01*
X044147Y056622D01*
X044143Y056574D01*
X044135Y056526D01*
X044123Y056479D01*
X044108Y056434D01*
X044088Y056390D01*
X044066Y056347D01*
X044040Y056306D01*
X044010Y056268D01*
X043978Y056232D01*
X043943Y056199D01*
X043905Y056169D01*
X043865Y056142D01*
X043823Y056119D01*
X043779Y056099D01*
X043734Y056082D01*
X043688Y056070D01*
X043640Y056061D01*
X043592Y056056D01*
X043544Y056055D01*
X043496Y056058D01*
X043448Y056065D01*
X043401Y056076D01*
X043355Y056090D01*
X043310Y056108D01*
X043267Y056130D01*
X043226Y056155D01*
X043188Y056184D01*
X043151Y056216D01*
X043117Y056250D01*
X043087Y056287D01*
X043059Y056326D01*
X043034Y056368D01*
X043014Y056412D01*
X042996Y056457D01*
X042983Y056503D01*
X042973Y056550D01*
X042967Y056598D01*
X042965Y056646D01*
X042965Y015898D02*
X042967Y015946D01*
X042973Y015994D01*
X042983Y016041D01*
X042996Y016087D01*
X043014Y016132D01*
X043034Y016176D01*
X043059Y016218D01*
X043087Y016257D01*
X043117Y016294D01*
X043151Y016328D01*
X043188Y016360D01*
X043226Y016389D01*
X043267Y016414D01*
X043310Y016436D01*
X043355Y016454D01*
X043401Y016468D01*
X043448Y016479D01*
X043496Y016486D01*
X043544Y016489D01*
X043592Y016488D01*
X043640Y016483D01*
X043688Y016474D01*
X043734Y016462D01*
X043779Y016445D01*
X043823Y016425D01*
X043865Y016402D01*
X043905Y016375D01*
X043943Y016345D01*
X043978Y016312D01*
X044010Y016276D01*
X044040Y016238D01*
X044066Y016197D01*
X044088Y016154D01*
X044108Y016110D01*
X044123Y016065D01*
X044135Y016018D01*
X044143Y015970D01*
X044147Y015922D01*
X044147Y015874D01*
X044143Y015826D01*
X044135Y015778D01*
X044123Y015731D01*
X044108Y015686D01*
X044088Y015642D01*
X044066Y015599D01*
X044040Y015558D01*
X044010Y015520D01*
X043978Y015484D01*
X043943Y015451D01*
X043905Y015421D01*
X043865Y015394D01*
X043823Y015371D01*
X043779Y015351D01*
X043734Y015334D01*
X043688Y015322D01*
X043640Y015313D01*
X043592Y015308D01*
X043544Y015307D01*
X043496Y015310D01*
X043448Y015317D01*
X043401Y015328D01*
X043355Y015342D01*
X043310Y015360D01*
X043267Y015382D01*
X043226Y015407D01*
X043188Y015436D01*
X043151Y015468D01*
X043117Y015502D01*
X043087Y015539D01*
X043059Y015578D01*
X043034Y015620D01*
X043014Y015664D01*
X042996Y015709D01*
X042983Y015755D01*
X042973Y015802D01*
X042967Y015850D01*
X042965Y015898D01*
D11*
X044251Y057984D02*
X044491Y057984D01*
X044619Y058104D02*
X044679Y058044D01*
X044859Y058044D01*
X044987Y058104D02*
X045047Y058044D01*
X045168Y058044D01*
X045228Y058104D01*
X045228Y058224D01*
X045168Y058284D01*
X045047Y058284D01*
X044987Y058224D01*
X044987Y058104D01*
X044859Y058284D02*
X044679Y058284D01*
X044619Y058224D01*
X044619Y058104D01*
X044124Y058284D02*
X044064Y058284D01*
X043944Y058164D01*
X043944Y058044D02*
X043944Y058284D01*
X043816Y058284D02*
X043636Y058284D01*
X043576Y058224D01*
X043636Y058164D01*
X043756Y058164D01*
X043816Y058104D01*
X043756Y058044D01*
X043576Y058044D01*
X045356Y058044D02*
X045356Y058284D01*
X045536Y058284D01*
X045596Y058224D01*
X045596Y058044D01*
X045784Y058104D02*
X045844Y058044D01*
X045784Y058104D02*
X045784Y058344D01*
X045724Y058284D02*
X045844Y058284D01*
X045970Y058284D02*
X045970Y058044D01*
X045970Y058164D02*
X046090Y058284D01*
X046150Y058284D01*
X046276Y058224D02*
X046337Y058284D01*
X046457Y058284D01*
X046517Y058224D01*
X046517Y058104D01*
X046457Y058044D01*
X046337Y058044D01*
X046276Y058104D01*
X046276Y058224D01*
X046645Y058044D02*
X046765Y058044D01*
X046705Y058044D02*
X046705Y058404D01*
X046645Y058404D01*
X046890Y058404D02*
X046950Y058404D01*
X046950Y058044D01*
X046890Y058044D02*
X047010Y058044D01*
X047136Y058104D02*
X047136Y058224D01*
X047196Y058284D01*
X047316Y058284D01*
X047376Y058224D01*
X047376Y058164D01*
X047136Y058164D01*
X047136Y058104D02*
X047196Y058044D01*
X047316Y058044D01*
X047504Y058044D02*
X047504Y058284D01*
X047504Y058164D02*
X047624Y058284D01*
X047684Y058284D01*
X047811Y057984D02*
X048051Y057984D01*
X048300Y058044D02*
X048420Y058284D01*
X048548Y058284D02*
X048668Y058404D01*
X048668Y058044D01*
X048548Y058044D02*
X048788Y058044D01*
X048916Y057984D02*
X049156Y057984D01*
X049284Y058044D02*
X049284Y058284D01*
X049284Y058164D02*
X049404Y058284D01*
X049465Y058284D01*
X049591Y058224D02*
X049651Y058284D01*
X049771Y058284D01*
X049832Y058224D01*
X049832Y058164D01*
X049591Y058164D01*
X049591Y058104D02*
X049591Y058224D01*
X049591Y058104D02*
X049651Y058044D01*
X049771Y058044D01*
X049960Y058284D02*
X050080Y058044D01*
X050200Y058284D01*
X050328Y058224D02*
X050448Y058224D01*
X050328Y058044D02*
X050568Y058044D01*
X050328Y058044D02*
X050328Y058404D01*
X050568Y058404D01*
X048300Y058044D02*
X048179Y058284D01*
D12*
X042414Y020093D03*
X042414Y019593D03*
X042414Y019093D03*
X042414Y018593D03*
X040367Y018593D03*
X040367Y019093D03*
X040367Y019593D03*
X040367Y020093D03*
X039874Y014384D03*
X039874Y013884D03*
X039874Y013384D03*
X039874Y012884D03*
X041922Y012884D03*
X041922Y013384D03*
X041922Y013884D03*
X041922Y014384D03*
D13*
X041528Y017768D03*
X040859Y017768D03*
X038575Y014815D03*
X038575Y013831D03*
X037906Y013831D03*
X037906Y014815D03*
X037906Y012847D03*
X038575Y012847D03*
X019973Y006056D03*
X019304Y006056D03*
X019304Y005268D03*
X019973Y005268D03*
X006390Y014717D03*
X005721Y014717D03*
X005721Y015504D03*
X006390Y015504D03*
X006390Y018654D03*
X006390Y019441D03*
X005721Y019441D03*
X005721Y018654D03*
X005721Y022591D03*
X005721Y023378D03*
X006390Y023378D03*
X006390Y022591D03*
X006390Y026528D03*
X006390Y027315D03*
X005721Y027315D03*
X005721Y026528D03*
X005721Y030465D03*
X005721Y031252D03*
X006390Y031252D03*
X006390Y030465D03*
X006390Y034402D03*
X005721Y034402D03*
X005721Y035189D03*
X006390Y035189D03*
X006390Y040307D03*
X005721Y040307D03*
X005721Y041095D03*
X006390Y041095D03*
X010150Y052807D03*
X010819Y052807D03*
X011725Y052807D03*
X012394Y052807D03*
D14*
X040890Y021016D03*
X041890Y021016D03*
D15*
X034894Y017709D03*
X034894Y025583D03*
D16*
X034969Y042674D03*
X035969Y042674D03*
X036969Y042674D03*
X037969Y042674D03*
X039469Y042674D03*
X039469Y043674D03*
X039469Y044674D03*
X039469Y045674D03*
X039469Y046674D03*
X039469Y047674D03*
X039469Y048674D03*
X039469Y049674D03*
X039469Y050674D03*
X039469Y051674D03*
X039469Y052674D03*
X039469Y053674D03*
X033469Y053674D03*
X033469Y052674D03*
X033469Y051674D03*
X033469Y050674D03*
X033469Y049674D03*
X033469Y048674D03*
X033469Y047674D03*
X033469Y046674D03*
X033469Y045674D03*
X033469Y044674D03*
X033469Y043674D03*
X033469Y042674D03*
X004682Y010485D03*
X002902Y010485D03*
X002902Y007925D03*
X004682Y007925D03*
D17*
X041981Y049831D03*
D18*
X041981Y050831D03*
X041981Y051831D03*
X041981Y052831D03*
D19*
X011662Y051136D02*
X010882Y051136D01*
X010882Y049166D02*
X011662Y049166D01*
X011662Y047196D02*
X010882Y047196D01*
X010882Y055076D02*
X011662Y055076D01*
X011662Y057046D02*
X010882Y057046D01*
X029180Y007627D02*
X029180Y006847D01*
X031150Y006847D02*
X031150Y007627D01*
X033117Y007627D02*
X033117Y006847D01*
X035087Y006847D02*
X035087Y007627D01*
X039022Y007627D02*
X039022Y006847D01*
X040992Y006847D02*
X040992Y007627D01*
X042959Y007627D02*
X042959Y006847D01*
X044929Y006847D02*
X044929Y007627D01*
X046896Y007627D02*
X046896Y006847D01*
X048866Y006847D02*
X048866Y007627D01*
X012548Y004683D02*
X011768Y004683D01*
X011768Y002713D02*
X012548Y002713D01*
D20*
X015209Y003063D03*
X015209Y003733D03*
X005859Y010544D03*
X005859Y011213D03*
X010878Y044894D03*
X010878Y045563D03*
X011666Y045563D03*
X011666Y044894D03*
X043162Y013772D03*
X043162Y013103D03*
D21*
X043231Y035554D03*
X043731Y035554D03*
X042731Y035554D03*
X042231Y035554D03*
X041731Y035554D03*
X041231Y035554D03*
X040731Y035554D03*
X040231Y035554D03*
X038613Y035554D03*
X038113Y035554D03*
X037613Y035554D03*
X037113Y035554D03*
X036613Y035554D03*
X036113Y035554D03*
X035613Y035554D03*
X035113Y035554D03*
X035113Y037974D03*
X035613Y037974D03*
X036113Y037974D03*
X036613Y037974D03*
X037113Y037974D03*
X037613Y037974D03*
X038113Y037974D03*
X038613Y037974D03*
X040231Y037974D03*
X040731Y037974D03*
X041231Y037974D03*
X041731Y037974D03*
X042231Y037974D03*
X042731Y037974D03*
X043231Y037974D03*
X043731Y037974D03*
D22*
X021933Y051981D03*
X017933Y051981D03*
X017933Y056981D03*
X021933Y056981D03*
D23*
X022886Y056481D03*
X022886Y052481D03*
X016882Y051989D03*
X016882Y055989D03*
D24*
X047485Y053217D03*
X048485Y053217D03*
X048485Y052217D03*
X047485Y052217D03*
X047485Y051217D03*
X047792Y035693D03*
X047792Y034693D03*
X047792Y033693D03*
X047792Y032693D03*
X047792Y031693D03*
X047792Y030693D03*
X047792Y029693D03*
X047792Y028693D03*
X047792Y027693D03*
X047792Y026693D03*
X047792Y025693D03*
X047792Y024693D03*
X047792Y023693D03*
X047792Y022693D03*
X047792Y021693D03*
X047792Y020693D03*
X047792Y019693D03*
X047792Y018693D03*
X047792Y017693D03*
X047792Y016693D03*
X048792Y016693D03*
X048792Y017693D03*
X048792Y018693D03*
X048792Y019693D03*
X048792Y020693D03*
X048792Y021693D03*
X048792Y022693D03*
X048792Y023693D03*
X048792Y024693D03*
X048792Y025693D03*
X048792Y026693D03*
X048792Y027693D03*
X048792Y028693D03*
X048792Y029693D03*
X048792Y030693D03*
X048792Y031693D03*
X048792Y032693D03*
X048792Y033693D03*
X048792Y034693D03*
X048792Y035693D03*
D25*
X031618Y039242D02*
X031618Y039392D01*
X032068Y039392D01*
X032068Y039242D01*
X031618Y039242D01*
X031618Y039391D02*
X032068Y039391D01*
X031618Y040042D02*
X031618Y040192D01*
X032068Y040192D01*
X032068Y040042D01*
X031618Y040042D01*
X031618Y040191D02*
X032068Y040191D01*
X029660Y031224D02*
X029510Y031224D01*
X029510Y031674D01*
X029660Y031674D01*
X029660Y031224D01*
X029660Y031373D02*
X029510Y031373D01*
X029510Y031522D02*
X029660Y031522D01*
X029660Y031671D02*
X029510Y031671D01*
X028860Y031224D02*
X028710Y031224D01*
X028710Y031674D01*
X028860Y031674D01*
X028860Y031224D01*
X028860Y031373D02*
X028710Y031373D01*
X028710Y031522D02*
X028860Y031522D01*
X028860Y031671D02*
X028710Y031671D01*
D26*
X028735Y031674D02*
X029025Y031674D01*
X029044Y031656D02*
X028735Y031656D01*
X028735Y031637D02*
X029062Y031637D01*
X029081Y031619D02*
X028735Y031619D01*
X028735Y031600D02*
X029099Y031600D01*
X029118Y031582D02*
X028735Y031582D01*
X028735Y031563D02*
X029136Y031563D01*
X029155Y031545D02*
X028735Y031545D01*
X028735Y031526D02*
X029173Y031526D01*
X029192Y031508D02*
X028735Y031508D01*
X028735Y031489D02*
X029210Y031489D01*
X029229Y031471D02*
X028735Y031471D01*
X028735Y031452D02*
X029247Y031452D01*
X029250Y031449D02*
X028960Y031159D01*
X028735Y031159D01*
X028735Y031739D01*
X028960Y031739D01*
X029250Y031449D01*
X029235Y031434D02*
X028735Y031434D01*
X028735Y031415D02*
X029217Y031415D01*
X029198Y031397D02*
X028735Y031397D01*
X028735Y031378D02*
X029180Y031378D01*
X029161Y031360D02*
X028735Y031360D01*
X028735Y031341D02*
X029143Y031341D01*
X029124Y031323D02*
X028735Y031323D01*
X028735Y031304D02*
X029106Y031304D01*
X029087Y031286D02*
X028735Y031286D01*
X028735Y031267D02*
X029069Y031267D01*
X029050Y031249D02*
X028735Y031249D01*
X028735Y031230D02*
X029032Y031230D01*
X029013Y031212D02*
X028735Y031212D01*
X028735Y031193D02*
X028995Y031193D01*
X028976Y031175D02*
X028735Y031175D01*
X029135Y031159D02*
X029635Y031159D01*
X029635Y031739D01*
X029135Y031739D01*
X029415Y031449D01*
X029135Y031159D01*
X029151Y031175D02*
X029635Y031175D01*
X029635Y031193D02*
X029168Y031193D01*
X029186Y031212D02*
X029635Y031212D01*
X029635Y031230D02*
X029204Y031230D01*
X029222Y031249D02*
X029635Y031249D01*
X029635Y031267D02*
X029240Y031267D01*
X029258Y031286D02*
X029635Y031286D01*
X029635Y031304D02*
X029276Y031304D01*
X029293Y031323D02*
X029635Y031323D01*
X029635Y031341D02*
X029311Y031341D01*
X029329Y031360D02*
X029635Y031360D01*
X029635Y031378D02*
X029347Y031378D01*
X029365Y031397D02*
X029635Y031397D01*
X029635Y031415D02*
X029383Y031415D01*
X029401Y031434D02*
X029635Y031434D01*
X029635Y031452D02*
X029412Y031452D01*
X029394Y031471D02*
X029635Y031471D01*
X029635Y031489D02*
X029377Y031489D01*
X029359Y031508D02*
X029635Y031508D01*
X029635Y031526D02*
X029341Y031526D01*
X029323Y031545D02*
X029635Y031545D01*
X029635Y031563D02*
X029305Y031563D01*
X029287Y031582D02*
X029635Y031582D01*
X029635Y031600D02*
X029269Y031600D01*
X029252Y031619D02*
X029635Y031619D01*
X029635Y031637D02*
X029234Y031637D01*
X029216Y031656D02*
X029635Y031656D01*
X029635Y031674D02*
X029198Y031674D01*
X029180Y031693D02*
X029635Y031693D01*
X029635Y031711D02*
X029162Y031711D01*
X029144Y031730D02*
X029635Y031730D01*
X029007Y031693D02*
X028735Y031693D01*
X028735Y031711D02*
X028988Y031711D01*
X028970Y031730D02*
X028735Y031730D01*
X031553Y039267D02*
X032133Y039267D01*
X032133Y039767D01*
X031843Y039487D01*
X031553Y039767D01*
X031553Y039267D01*
X031553Y039278D02*
X032133Y039278D01*
X032133Y039297D02*
X031553Y039297D01*
X031553Y039315D02*
X032133Y039315D01*
X032133Y039334D02*
X031553Y039334D01*
X031553Y039352D02*
X032133Y039352D01*
X032133Y039371D02*
X031553Y039371D01*
X031553Y039389D02*
X032133Y039389D01*
X032133Y039408D02*
X031553Y039408D01*
X031553Y039426D02*
X032133Y039426D01*
X032133Y039445D02*
X031553Y039445D01*
X031553Y039463D02*
X032133Y039463D01*
X032133Y039482D02*
X031553Y039482D01*
X031553Y039500D02*
X031829Y039500D01*
X031810Y039519D02*
X031553Y039519D01*
X031553Y039537D02*
X031791Y039537D01*
X031772Y039556D02*
X031553Y039556D01*
X031553Y039574D02*
X031753Y039574D01*
X031734Y039593D02*
X031553Y039593D01*
X031553Y039611D02*
X031714Y039611D01*
X031695Y039630D02*
X031553Y039630D01*
X031553Y039648D02*
X031676Y039648D01*
X031657Y039667D02*
X031553Y039667D01*
X031553Y039685D02*
X031638Y039685D01*
X031619Y039704D02*
X031553Y039704D01*
X031553Y039722D02*
X031599Y039722D01*
X031580Y039741D02*
X031553Y039741D01*
X031553Y039759D02*
X031561Y039759D01*
X031643Y039852D02*
X032043Y039852D01*
X032061Y039870D02*
X031625Y039870D01*
X031606Y039889D02*
X032080Y039889D01*
X032098Y039907D02*
X031588Y039907D01*
X031569Y039926D02*
X032117Y039926D01*
X032133Y039942D02*
X031843Y039652D01*
X031553Y039942D01*
X031553Y040167D01*
X032133Y040167D01*
X032133Y039942D01*
X032133Y039944D02*
X031553Y039944D01*
X031553Y039963D02*
X032133Y039963D01*
X032133Y039981D02*
X031553Y039981D01*
X031553Y040000D02*
X032133Y040000D01*
X032133Y040018D02*
X031553Y040018D01*
X031553Y040037D02*
X032133Y040037D01*
X032133Y040055D02*
X031553Y040055D01*
X031553Y040074D02*
X032133Y040074D01*
X032133Y040092D02*
X031553Y040092D01*
X031553Y040111D02*
X032133Y040111D01*
X032133Y040129D02*
X031553Y040129D01*
X031553Y040148D02*
X032133Y040148D01*
X032133Y040166D02*
X031553Y040166D01*
X031662Y039833D02*
X032024Y039833D01*
X032006Y039815D02*
X031680Y039815D01*
X031699Y039796D02*
X031987Y039796D01*
X031969Y039778D02*
X031717Y039778D01*
X031736Y039759D02*
X031950Y039759D01*
X031932Y039741D02*
X031754Y039741D01*
X031773Y039722D02*
X031913Y039722D01*
X031895Y039704D02*
X031791Y039704D01*
X031810Y039685D02*
X031876Y039685D01*
X031858Y039667D02*
X031828Y039667D01*
X031933Y039574D02*
X032133Y039574D01*
X032133Y039556D02*
X031914Y039556D01*
X031895Y039537D02*
X032133Y039537D01*
X032133Y039519D02*
X031876Y039519D01*
X031856Y039500D02*
X032133Y039500D01*
X032133Y039593D02*
X031952Y039593D01*
X031971Y039611D02*
X032133Y039611D01*
X032133Y039630D02*
X031991Y039630D01*
X032010Y039648D02*
X032133Y039648D01*
X032133Y039667D02*
X032029Y039667D01*
X032048Y039685D02*
X032133Y039685D01*
X032133Y039704D02*
X032067Y039704D01*
X032086Y039722D02*
X032133Y039722D01*
X032133Y039741D02*
X032106Y039741D01*
X032125Y039759D02*
X032133Y039759D01*
D27*
X033418Y057133D03*
X033418Y057733D03*
X039619Y057733D03*
X039619Y057133D03*
D28*
X039619Y057433D03*
D29*
X026587Y033103D03*
X026587Y024441D03*
X010760Y024441D03*
X010760Y033103D03*
D30*
X010760Y031449D03*
X010760Y040111D03*
D31*
X026587Y040111D03*
X026587Y031449D03*
D32*
X044330Y013156D02*
X044930Y013156D01*
X044930Y012256D02*
X044330Y012256D01*
X044330Y011356D02*
X044930Y011356D01*
D33*
X041496Y011504D02*
X041496Y012024D01*
X040496Y012024D02*
X040496Y011504D01*
D34*
X046115Y010355D03*
X046115Y014355D03*
X016587Y005989D03*
X016587Y001989D03*
X034469Y058024D03*
X038469Y058024D03*
D35*
X018300Y006036D03*
X017433Y005662D03*
X018300Y005288D03*
D36*
X021418Y043926D03*
X022780Y046926D03*
X024764Y043926D03*
X026126Y046926D03*
X028111Y043926D03*
X029473Y046926D03*
D37*
X026331Y055895D03*
X048485Y051217D03*
D38*
X030170Y056340D03*
D39*
X030170Y057740D03*
D40*
X027784Y054302D02*
X027844Y054242D01*
X027646Y054242D01*
X027506Y054382D01*
X027506Y054580D01*
X027646Y054720D01*
X027844Y054720D01*
X027984Y054580D01*
X027984Y054382D01*
X027844Y054242D01*
X027807Y054332D01*
X027683Y054332D01*
X027596Y054419D01*
X027596Y054543D01*
X027683Y054630D01*
X027807Y054630D01*
X027894Y054543D01*
X027894Y054419D01*
X027807Y054332D01*
X027770Y054422D01*
X027720Y054422D01*
X027686Y054456D01*
X027686Y054506D01*
X027720Y054540D01*
X027770Y054540D01*
X027804Y054506D01*
X027804Y054456D01*
X027770Y054422D01*
X026370Y052887D02*
X026430Y052827D01*
X026232Y052827D01*
X026092Y052967D01*
X026092Y053165D01*
X026232Y053305D01*
X026430Y053305D01*
X026570Y053165D01*
X026570Y052967D01*
X026430Y052827D01*
X026393Y052917D01*
X026269Y052917D01*
X026182Y053004D01*
X026182Y053128D01*
X026269Y053215D01*
X026393Y053215D01*
X026480Y053128D01*
X026480Y053004D01*
X026393Y052917D01*
X026356Y053007D01*
X026306Y053007D01*
X026272Y053041D01*
X026272Y053091D01*
X026306Y053125D01*
X026356Y053125D01*
X026390Y053091D01*
X026390Y053041D01*
X026356Y053007D01*
X024956Y054302D02*
X025016Y054242D01*
X024818Y054242D01*
X024678Y054382D01*
X024678Y054580D01*
X024818Y054720D01*
X025016Y054720D01*
X025156Y054580D01*
X025156Y054382D01*
X025016Y054242D01*
X024979Y054332D01*
X024855Y054332D01*
X024768Y054419D01*
X024768Y054543D01*
X024855Y054630D01*
X024979Y054630D01*
X025066Y054543D01*
X025066Y054419D01*
X024979Y054332D01*
X024942Y054422D01*
X024892Y054422D01*
X024858Y054456D01*
X024858Y054506D01*
X024892Y054540D01*
X024942Y054540D01*
X024976Y054506D01*
X024976Y054456D01*
X024942Y054422D01*
D41*
X049067Y011567D03*
D42*
X049067Y012567D03*
D43*
X004205Y011567D03*
X003378Y011567D03*
D44*
X003802Y013750D03*
X003802Y015750D03*
X003802Y017748D03*
X003802Y019748D03*
X003802Y021747D03*
X003802Y023747D03*
X003802Y025745D03*
X003802Y027745D03*
X003802Y029744D03*
X003802Y031744D03*
X003802Y033742D03*
X003802Y035742D03*
X003802Y037741D03*
X003802Y039741D03*
D45*
X005155Y041095D01*
X005721Y041095D01*
X006390Y041095D02*
X006390Y040307D01*
X005721Y040307D02*
X005721Y039660D01*
X003802Y037741D01*
X003845Y035786D02*
X003802Y035742D01*
X003845Y035786D02*
X005125Y035786D01*
X005721Y035189D01*
X006390Y035189D02*
X006390Y034402D01*
X005721Y034402D02*
X005125Y033806D01*
X003865Y033806D01*
X003802Y033742D01*
X003906Y031849D02*
X003802Y031744D01*
X003906Y031849D02*
X005125Y031849D01*
X005721Y031252D01*
X005721Y030465D02*
X005125Y029869D01*
X003926Y029869D01*
X003802Y029744D01*
X003968Y027912D02*
X003802Y027745D01*
X003968Y027912D02*
X005125Y027912D01*
X005721Y027315D01*
X005721Y026528D02*
X005125Y025932D01*
X003988Y025932D01*
X003802Y025745D01*
X004029Y023975D02*
X003802Y023747D01*
X004029Y023975D02*
X005125Y023975D01*
X005721Y023378D01*
X005721Y022591D02*
X005125Y021995D01*
X004049Y021995D01*
X003802Y021747D01*
X004091Y020038D02*
X003802Y019748D01*
X004091Y020038D02*
X005125Y020038D01*
X005721Y019441D01*
X005721Y018654D02*
X005125Y018058D01*
X004111Y018058D01*
X003802Y017748D01*
X004152Y016101D02*
X003802Y015750D01*
X004152Y016101D02*
X005125Y016101D01*
X005721Y015504D01*
X006390Y015504D02*
X006390Y014717D01*
X005721Y014717D02*
X005125Y014121D01*
X004172Y014121D01*
X003802Y013750D01*
X003792Y012355D02*
X003398Y011961D01*
X003398Y011587D01*
X003378Y011567D01*
X004205Y011567D02*
X005504Y011567D01*
X005859Y011213D01*
X005859Y010544D02*
X004740Y010544D01*
X004682Y010485D01*
X005859Y010544D02*
X025603Y010544D01*
X031154Y016095D01*
X031154Y022000D01*
X032335Y023181D01*
X038044Y023181D01*
X039028Y024166D01*
X039028Y025741D01*
X040012Y026725D01*
X045918Y026725D01*
X046508Y027315D01*
X046508Y031056D01*
X047146Y031693D01*
X047792Y031693D01*
X044737Y031843D02*
X044737Y035583D01*
X044737Y037650D01*
X044737Y036863D02*
X044737Y035977D01*
X044737Y035583D02*
X043760Y035583D01*
X043731Y035554D01*
X043556Y035583D02*
X042867Y035583D01*
X042178Y031843D02*
X037059Y026725D01*
X033122Y026725D01*
X032335Y025937D01*
X009894Y025937D01*
X008319Y024363D01*
X008319Y017473D01*
X006390Y015544D01*
X006390Y015504D01*
X006390Y018654D02*
X006390Y019441D01*
X006390Y019481D01*
X007335Y020426D01*
X007335Y024756D01*
X009599Y027020D01*
X031843Y027020D01*
X032630Y027807D01*
X036961Y027807D01*
X040996Y031843D01*
X039815Y031843D02*
X036863Y028890D01*
X032138Y028890D01*
X031252Y028004D01*
X009205Y028004D01*
X006390Y025189D01*
X006390Y023378D01*
X006390Y022591D01*
X006390Y026528D02*
X006390Y027315D01*
X006390Y027355D01*
X008024Y028989D01*
X030662Y028989D01*
X031646Y029973D01*
X036764Y029973D01*
X038634Y031843D01*
X037059Y031843D02*
X036174Y030957D01*
X031056Y030957D01*
X030071Y029973D01*
X006843Y029973D01*
X006390Y030426D01*
X006390Y030465D01*
X006390Y031252D01*
X006390Y035189D02*
X006390Y038772D01*
X009107Y041489D01*
X011863Y041489D01*
X012650Y040701D01*
X012650Y036174D01*
X014422Y034402D01*
X028989Y034402D01*
X031449Y031941D01*
X035583Y031941D01*
X036075Y032433D01*
X035485Y033418D02*
X034993Y032926D01*
X031843Y032926D01*
X029678Y035091D01*
X029382Y035386D01*
X014815Y035386D01*
X013634Y036567D01*
X013634Y041095D01*
X012256Y042473D01*
X007729Y042473D01*
X006390Y041134D01*
X006390Y041095D01*
X009756Y045563D02*
X009304Y046016D01*
X009304Y050150D01*
X010288Y051134D01*
X011271Y051134D01*
X011272Y051136D01*
X011271Y051136D01*
X010878Y051528D01*
X010878Y051529D01*
X010819Y051589D01*
X010819Y052807D01*
X011272Y047196D02*
X011666Y046802D01*
X011666Y045563D01*
X011666Y044894D02*
X010878Y044894D01*
X010878Y045563D02*
X009756Y045563D01*
X011666Y044894D02*
X011666Y044441D01*
X014619Y041489D01*
X014619Y036961D01*
X015209Y036370D01*
X030957Y036370D01*
X031773Y035554D01*
X034726Y035554D01*
X031843Y038437D02*
X030760Y037355D01*
X020524Y037355D01*
X019933Y037945D01*
X019933Y042079D01*
X026587Y040111D02*
X026685Y040209D01*
X031843Y040209D01*
X031843Y040117D01*
X031843Y039225D02*
X031843Y038831D01*
X031843Y038437D01*
X037748Y035681D02*
X038437Y035681D01*
X041390Y029284D02*
X041784Y029284D01*
X042178Y029284D01*
X044737Y031843D01*
X043359Y028398D02*
X043162Y028201D01*
X042965Y028201D01*
X043359Y028201D02*
X043359Y028398D01*
X043359Y028201D02*
X043359Y028004D01*
X043359Y028201D02*
X043752Y028201D01*
X040111Y028201D01*
X038044Y026134D01*
X038044Y024756D01*
X037453Y024166D01*
X030367Y024166D01*
X029973Y023772D01*
X029973Y023674D01*
X029776Y023477D01*
X029382Y023477D01*
X029382Y023083D01*
X029776Y023083D01*
X029973Y023674D02*
X029973Y016685D01*
X025052Y011764D01*
X007335Y011764D01*
X006744Y012355D01*
X003792Y012355D01*
X012158Y006351D02*
X012158Y004683D01*
X012164Y004678D01*
X013181Y003733D02*
X015209Y003733D01*
X015209Y003063D02*
X015512Y003063D01*
X016587Y001989D01*
X017670Y002020D02*
X018063Y002020D01*
X018457Y002020D01*
X018457Y002414D01*
X018457Y002807D02*
X018063Y002807D01*
X017670Y002807D01*
X017670Y002414D01*
X017670Y002020D01*
X017670Y004579D02*
X017433Y004815D01*
X017433Y005662D01*
X017107Y005989D01*
X016587Y005989D01*
X017374Y007138D02*
X012945Y007138D01*
X012158Y006351D01*
X013181Y003733D02*
X012788Y003339D01*
X012784Y003339D01*
X012158Y002713D01*
X017374Y007138D02*
X018260Y006252D01*
X019304Y005268D02*
X019304Y004835D01*
X019048Y004579D01*
X017670Y004579D01*
X019973Y005268D02*
X023280Y005268D01*
X028004Y009993D01*
X030563Y009993D01*
X037158Y016587D01*
X040996Y016587D01*
X041528Y017119D01*
X041528Y017768D01*
X045622Y017768D01*
X046705Y016685D01*
X047784Y016685D01*
X047792Y016693D01*
X047792Y021693D02*
X047406Y021693D01*
X046902Y022197D01*
X044244Y022197D01*
X042768Y023674D01*
X042768Y025347D01*
X042374Y025741D01*
X040406Y025741D01*
X040012Y025347D01*
X040012Y023575D01*
X038634Y022197D01*
X033122Y022197D01*
X032335Y021410D01*
X032335Y015504D01*
X022886Y006056D01*
X019973Y006056D01*
X034894Y017709D02*
X040406Y017709D01*
X040800Y017709D01*
X040859Y017768D01*
X043162Y013103D02*
X043162Y011961D01*
X043752Y011370D01*
X044616Y011370D01*
X044630Y011356D01*
X046083Y010386D02*
X046115Y010355D01*
X046083Y010386D02*
X042178Y010386D01*
X041981Y010583D01*
X039422Y010583D01*
X037906Y012099D01*
X037906Y012847D01*
X049953Y009107D02*
X050248Y009107D01*
X028785Y031449D02*
X026587Y031449D01*
X041095Y049855D02*
X041957Y049855D01*
X041981Y049831D01*
X041095Y049855D02*
X040276Y050674D01*
X039469Y050674D01*
X006390Y035229D02*
X006390Y035189D01*
D46*
X029579Y031646D02*
X029585Y031646D01*
X029585Y031449D01*
X029585Y031252D01*
X029579Y031252D01*
X029973Y031252D01*
X029973Y031646D02*
X029579Y031646D01*
X035485Y033418D02*
X035613Y033546D01*
X035613Y035554D01*
X036113Y035554D02*
X036113Y032471D01*
X036075Y032433D01*
X037059Y031843D02*
X037113Y031896D01*
X037113Y035554D01*
X037613Y035554D02*
X037621Y035554D01*
X037621Y035415D01*
X037650Y035386D01*
X037621Y035554D02*
X037748Y035681D01*
X038113Y035554D02*
X038113Y035455D01*
X038044Y035386D01*
X038113Y035554D02*
X038240Y035681D01*
X038437Y035681D01*
X038485Y035681D01*
X038613Y035554D01*
X038634Y034304D02*
X039885Y035554D01*
X040231Y035554D01*
X040731Y035554D02*
X040731Y034727D01*
X039815Y033811D01*
X039815Y031843D01*
X038634Y031843D02*
X038634Y034304D01*
X040996Y031843D02*
X041231Y032077D01*
X041231Y035554D01*
X042231Y035554D02*
X042231Y031896D01*
X042731Y035554D02*
X042838Y035554D01*
X042867Y035583D01*
X043231Y035554D02*
X043731Y035554D01*
X043556Y035583D02*
X043260Y035583D01*
X043231Y035554D01*
X031843Y039225D02*
X031843Y039317D01*
X039815Y021016D02*
X039619Y020819D01*
X039619Y019835D01*
X039861Y019593D01*
X040367Y019593D01*
X040367Y020093D02*
X041156Y020093D01*
X041882Y020819D01*
X041882Y021008D01*
X041890Y021016D01*
X041845Y020093D02*
X041528Y019776D01*
X041528Y017768D01*
X040406Y017709D02*
X040367Y017748D01*
X040367Y018593D01*
X040367Y019093D02*
X039376Y019093D01*
X039028Y019441D01*
X039815Y021016D02*
X040890Y021016D01*
X041845Y020093D02*
X042414Y020093D01*
X040701Y015800D02*
X041095Y015406D01*
X041095Y014225D01*
X041435Y013884D01*
X041922Y013884D01*
X041922Y013384D02*
X042420Y013384D01*
X042867Y013831D01*
X043103Y013831D01*
X043162Y013772D01*
X041496Y012150D02*
X040762Y012884D01*
X040701Y012884D01*
X040701Y015209D01*
X040504Y015406D01*
X038142Y015406D01*
X037906Y015170D01*
X037906Y014815D01*
X037256Y015504D02*
X037256Y014028D01*
X037453Y013831D01*
X037906Y013831D01*
X037906Y012847D01*
X038575Y012847D02*
X038575Y012807D01*
X039028Y012355D01*
X039906Y012355D01*
X040496Y011764D01*
X041496Y011764D02*
X041496Y012150D01*
X040701Y012884D02*
X039874Y012884D01*
X039874Y013384D02*
X039073Y013384D01*
X038575Y012886D01*
X038575Y012847D01*
X038575Y013831D02*
X038628Y013884D01*
X039874Y013884D01*
X038575Y013831D02*
X038575Y014815D01*
X037552Y015800D02*
X037256Y015504D01*
X037552Y015800D02*
X040701Y015800D01*
X019304Y006056D02*
X019146Y006056D01*
X018378Y005288D01*
X018300Y005288D01*
X018300Y006036D02*
X018300Y006213D01*
X018260Y006252D01*
D47*
X031150Y005272D02*
X031154Y005268D01*
X033122Y005268D01*
X033117Y005274D01*
X033117Y007237D01*
X031150Y007237D02*
X031150Y005272D01*
X033122Y005268D02*
X040209Y005268D01*
X040996Y006056D01*
X040996Y007232D01*
X040992Y007237D01*
X010760Y031449D02*
X009107Y031449D01*
X008319Y032237D01*
X008319Y037748D01*
X010681Y040111D01*
X010760Y040111D01*
D48*
X011272Y004678D02*
X010386Y003792D01*
X010386Y001528D01*
X011075Y000839D01*
X049559Y000839D01*
X050248Y001528D01*
X050248Y009107D01*
X050248Y020130D01*
X049685Y020693D01*
X048792Y020693D01*
X044737Y036863D02*
X044737Y037650D01*
X044737Y051626D01*
X046327Y053217D01*
X047485Y053217D01*
X012158Y004683D02*
X012152Y004678D01*
X011272Y004678D01*
D49*
X012158Y004683D02*
X010195Y006646D01*
X003595Y006646D01*
X002902Y007339D01*
X002902Y007925D01*
X010760Y024441D02*
X026587Y024441D01*
X041685Y009107D02*
X040992Y008413D01*
X040992Y007237D01*
X041685Y009107D02*
X049953Y009107D01*
X048866Y007237D02*
X048866Y003197D01*
X048083Y002414D01*
X018457Y002414D01*
X018063Y002414D01*
D50*
X018063Y002414D03*
X017670Y002414D03*
X017670Y002807D03*
X018063Y002807D03*
X018457Y002807D03*
X018457Y002414D03*
X018457Y002020D03*
X018063Y002020D03*
X017670Y002020D03*
X029382Y023083D03*
X029382Y023477D03*
X029776Y023477D03*
X029776Y023083D03*
X029973Y031252D03*
X029579Y031252D03*
X029579Y031646D03*
X029973Y031646D03*
X031843Y038437D03*
X031843Y038831D03*
X031843Y039225D03*
X035091Y038536D03*
X037650Y035386D03*
X038044Y035386D03*
X038437Y035386D03*
X040209Y038536D03*
X039815Y039914D03*
X040603Y041685D03*
X041685Y042768D03*
X038437Y041292D03*
X044737Y037650D03*
X044737Y037256D03*
X044737Y036863D03*
X042178Y029284D03*
X041784Y029284D03*
X041390Y029284D03*
X042965Y028201D03*
X043359Y028004D03*
X043359Y028398D03*
X043752Y028201D03*
X039028Y019441D03*
X019933Y045524D03*
X019146Y045524D03*
X018949Y048280D03*
X015504Y045524D03*
X015012Y045032D03*
X014028Y045524D03*
X014028Y045524D03*
X014225Y048083D03*
X031744Y049363D03*
X039422Y057138D03*
X039815Y057138D03*
D51*
X039811Y057133D01*
X039619Y057133D01*
X039619Y057733D02*
X039328Y058024D01*
X038469Y058024D01*
X038469Y057465D01*
X038137Y057133D01*
X033418Y057133D01*
X033469Y052674D02*
X032300Y052674D01*
X031744Y052119D01*
X031744Y049363D01*
X036969Y042674D02*
X036969Y039430D01*
X036113Y038573D01*
X036113Y037974D01*
X036613Y037974D02*
X036613Y037302D01*
X036370Y037059D01*
X035878Y037059D01*
X035613Y037325D01*
X035613Y037974D01*
X035113Y037974D02*
X035113Y038514D01*
X035091Y038536D01*
X034993Y038437D01*
X031843Y038437D01*
X034726Y035554D02*
X035113Y035554D01*
X036613Y035554D02*
X036613Y036514D01*
X037113Y037014D01*
X037113Y037974D01*
X037613Y037974D02*
X037613Y039483D01*
X040750Y042620D01*
X042731Y040640D01*
X042731Y037974D01*
X043231Y037974D02*
X043731Y037974D01*
X043231Y037974D02*
X043231Y041124D01*
X041636Y042719D01*
X041685Y042768D01*
X041636Y042719D02*
X039681Y044674D01*
X039469Y044674D01*
X039469Y043674D02*
X039697Y043674D01*
X040750Y042620D01*
X040603Y041685D02*
X038113Y039195D01*
X038113Y037974D01*
X038613Y037974D01*
X040231Y037974D02*
X040231Y038514D01*
X040209Y038536D01*
X040731Y037974D02*
X040731Y037325D01*
X040996Y037059D01*
X041489Y037059D01*
X041731Y037302D01*
X041731Y037974D01*
X042231Y037974D02*
X042231Y037014D01*
X041731Y036514D01*
X041731Y035554D01*
X041231Y037974D02*
X041231Y038498D01*
X039815Y039914D01*
X038437Y041292D02*
X037969Y041760D01*
X037969Y042674D01*
X042231Y031896D02*
X042178Y031843D01*
X042414Y019093D02*
X047119Y019093D01*
X047222Y019195D01*
X046815Y018593D02*
X042414Y018593D01*
X046815Y018593D02*
X047222Y018186D01*
X048305Y018186D02*
X048792Y017699D01*
X048792Y017693D01*
X048792Y018693D02*
X048782Y018693D01*
X048280Y019195D01*
X020622Y045327D02*
X019933Y044638D01*
X019933Y042079D01*
X018457Y044048D02*
X019933Y045524D01*
X019737Y046115D02*
X020130Y046115D01*
X020622Y045622D01*
X020622Y045327D01*
X019737Y046115D02*
X019146Y045524D01*
X015504Y045524D01*
X014028Y044441D02*
X014422Y044048D01*
X018457Y044048D01*
X014028Y044441D02*
X014028Y045524D01*
X011666Y049166D02*
X011272Y049166D01*
X011666Y049166D02*
X012650Y050150D01*
X012650Y051331D01*
X011725Y052256D01*
X011725Y052807D01*
X012394Y052807D02*
X012394Y053162D01*
X012059Y053496D01*
X010485Y053496D01*
X010150Y053162D01*
X010150Y052807D01*
X039515Y057733D02*
X039619Y057733D01*
D52*
X047222Y019195D02*
X048280Y019195D01*
X048305Y018186D02*
X047222Y018186D01*
D53*
X039469Y046674D02*
X036304Y046674D01*
X034697Y048280D01*
X034697Y054087D01*
X034107Y054678D01*
X033122Y054678D01*
X027020Y048575D01*
X019244Y048575D01*
X018949Y048280D01*
X017768Y049264D02*
X026528Y049264D01*
X032729Y055465D01*
X034500Y055465D01*
X035485Y054481D01*
X035485Y048772D01*
X036583Y047674D01*
X039469Y047674D01*
X039469Y048674D02*
X036764Y048674D01*
X036272Y049166D01*
X036272Y054874D01*
X034894Y056252D01*
X032335Y056252D01*
X026036Y049953D01*
X017276Y049953D01*
X014815Y047493D01*
X013831Y047493D01*
X013339Y047985D01*
X013339Y051528D01*
X012394Y052473D01*
X012394Y052807D01*
X016784Y050642D02*
X014225Y048083D01*
X014815Y046311D02*
X017768Y049264D01*
X016784Y050642D02*
X022493Y050642D01*
X027217Y055367D01*
X030367Y055367D01*
X032138Y057138D01*
X032326Y057138D01*
X032330Y057133D01*
X033418Y057133D01*
X033422Y057133D01*
X033418Y057733D02*
X031552Y057733D01*
X030579Y056760D01*
X030579Y056749D01*
X030170Y056340D01*
X034469Y058024D02*
X035256Y058811D01*
X040012Y058811D01*
X040603Y058221D01*
X040603Y056056D01*
X040012Y055465D01*
X037650Y055465D01*
X037059Y054874D01*
X037059Y049953D01*
X037339Y049674D01*
X039469Y049674D01*
X014815Y046311D02*
X014815Y045229D01*
X015012Y045032D01*
D54*
X045819Y051134D02*
X045819Y034796D01*
X046902Y033713D01*
X047772Y033713D01*
X047792Y033693D01*
X048792Y033693D02*
X048811Y033713D01*
X049658Y033713D01*
X050741Y034796D01*
X050741Y050445D01*
X048969Y052217D01*
X048485Y052217D01*
X048485Y051217D02*
X048493Y051217D01*
X049658Y050052D01*
X049658Y035288D01*
X049067Y034697D01*
X048969Y034697D01*
X048965Y034693D01*
X048792Y034693D01*
X047792Y034693D02*
X047788Y034697D01*
X047493Y034697D01*
X046902Y035288D01*
X046902Y050642D01*
X047477Y051217D01*
X047485Y051217D01*
X047485Y052217D02*
X046902Y052217D01*
X045819Y051134D01*
M02*
