G75*
G70*
%OFA0B0*%
%FSLAX24Y24*%
%IPPOS*%
%LPD*%
%AMOC8*
5,1,8,0,0,1.08239X$1,22.5*
%
%ADD10C,0.1221*%
%ADD11C,0.0160*%
%ADD12C,0.0560*%
%ADD13C,0.0808*%
%ADD14C,0.0780*%
%ADD15R,0.0631X0.0552*%
%ADD16OC8,0.0555*%
%ADD17C,0.0555*%
%ADD18C,0.0820*%
%ADD19R,0.0280X0.0910*%
%ADD20R,0.0552X0.0670*%
%ADD21C,0.0800*%
%ADD22OC8,0.0560*%
%ADD23OC8,0.0640*%
%ADD24R,0.0985X0.0985*%
%ADD25OC8,0.0985*%
%ADD26C,0.0985*%
%ADD27C,0.0640*%
%ADD28C,0.0560*%
%ADD29C,0.0700*%
%ADD30OC8,0.1040*%
%ADD31C,0.1528*%
%ADD32C,0.0640*%
%ADD33R,0.0552X0.0631*%
%ADD34OC8,0.0670*%
%ADD35C,0.0670*%
%ADD36C,0.0128*%
%ADD37R,0.0634X0.0634*%
%ADD38C,0.0634*%
%ADD39C,0.0827*%
D10*
X015012Y015898D03*
X043556Y015898D03*
X043556Y056646D03*
X015012Y056646D03*
D11*
X012256Y050544D02*
X011666Y049953D01*
X010485Y049953D01*
X010485Y048378D01*
X012453Y048378D01*
X012945Y048870D01*
X016193Y048870D01*
X016193Y045622D01*
X015012Y044441D01*
X015012Y043260D01*
X016193Y043260D01*
X017768Y044835D01*
X017768Y048969D01*
X018752Y048969D01*
X018752Y050544D01*
X012256Y050544D01*
X012107Y050395D02*
X018752Y050395D01*
X018752Y050236D02*
X011949Y050236D01*
X011790Y050078D02*
X018752Y050078D01*
X018752Y049919D02*
X010485Y049919D01*
X010485Y049761D02*
X018752Y049761D01*
X018752Y049602D02*
X010485Y049602D01*
X010485Y049444D02*
X018752Y049444D01*
X018752Y049285D02*
X010485Y049285D01*
X010485Y049127D02*
X018752Y049127D01*
X019540Y049127D02*
X030268Y049127D01*
X030268Y049264D02*
X028989Y050544D01*
X019540Y050544D01*
X019540Y050347D01*
X019540Y048969D01*
X022000Y048969D01*
X022000Y046213D01*
X023575Y046213D01*
X023575Y048969D01*
X025347Y048969D01*
X025347Y046213D01*
X026922Y046213D01*
X026922Y048969D01*
X028398Y048969D01*
X028693Y048674D01*
X028693Y046213D01*
X030268Y046213D01*
X030268Y049264D01*
X030247Y049285D02*
X019540Y049285D01*
X019540Y049444D02*
X030089Y049444D01*
X029930Y049602D02*
X019540Y049602D01*
X019540Y049761D02*
X029772Y049761D01*
X029613Y049919D02*
X019540Y049919D01*
X019540Y050078D02*
X029455Y050078D01*
X029296Y050236D02*
X019540Y050236D01*
X019540Y050395D02*
X029138Y050395D01*
X028399Y048968D02*
X030268Y048968D01*
X030268Y048810D02*
X028557Y048810D01*
X028693Y048651D02*
X030268Y048651D01*
X030268Y048493D02*
X028693Y048493D01*
X028693Y048334D02*
X030268Y048334D01*
X030268Y048176D02*
X028693Y048176D01*
X028693Y048017D02*
X030268Y048017D01*
X030268Y047859D02*
X028693Y047859D01*
X028693Y047700D02*
X030268Y047700D01*
X030268Y047542D02*
X028693Y047542D01*
X028693Y047383D02*
X030268Y047383D01*
X030268Y047225D02*
X028693Y047225D01*
X028693Y047066D02*
X030268Y047066D01*
X030268Y046908D02*
X028693Y046908D01*
X028693Y046749D02*
X030268Y046749D01*
X030268Y046591D02*
X028693Y046591D01*
X028693Y046432D02*
X030268Y046432D01*
X030268Y046274D02*
X028693Y046274D01*
X028792Y044638D02*
X026823Y044638D01*
X026823Y042670D01*
X028004Y041489D01*
X028004Y038536D01*
X027414Y037945D01*
X024461Y037945D01*
X023674Y037158D01*
X022689Y036174D01*
X022591Y036075D01*
X022591Y010288D01*
X024264Y008615D01*
X034304Y008615D01*
X034304Y006449D01*
X036075Y006449D01*
X036075Y011567D01*
X034894Y012748D01*
X025248Y012748D01*
X025248Y034796D01*
X025642Y035189D01*
X028595Y035189D01*
X030760Y037355D01*
X030760Y042670D01*
X029185Y044244D01*
X028792Y044638D01*
X028900Y044530D02*
X026823Y044530D01*
X026823Y044372D02*
X029058Y044372D01*
X029217Y044213D02*
X026823Y044213D01*
X026823Y044055D02*
X029375Y044055D01*
X029534Y043896D02*
X026823Y043896D01*
X026823Y043738D02*
X029692Y043738D01*
X029851Y043579D02*
X026823Y043579D01*
X026823Y043421D02*
X030009Y043421D01*
X030168Y043262D02*
X026823Y043262D01*
X026823Y043104D02*
X030326Y043104D01*
X030485Y042945D02*
X026823Y042945D01*
X026823Y042787D02*
X030643Y042787D01*
X030760Y042628D02*
X026865Y042628D01*
X027023Y042470D02*
X030760Y042470D01*
X030760Y042311D02*
X027182Y042311D01*
X027340Y042153D02*
X030760Y042153D01*
X030760Y041994D02*
X027499Y041994D01*
X027657Y041836D02*
X030760Y041836D01*
X030760Y041677D02*
X027816Y041677D01*
X027974Y041519D02*
X030760Y041519D01*
X030760Y041360D02*
X028004Y041360D01*
X028004Y041202D02*
X030760Y041202D01*
X030760Y041043D02*
X028004Y041043D01*
X028004Y040885D02*
X030760Y040885D01*
X030760Y040726D02*
X028004Y040726D01*
X028004Y040568D02*
X030760Y040568D01*
X030760Y040409D02*
X028004Y040409D01*
X028004Y040251D02*
X030760Y040251D01*
X030760Y040092D02*
X028004Y040092D01*
X028004Y039934D02*
X030760Y039934D01*
X030760Y039775D02*
X028004Y039775D01*
X028004Y039617D02*
X030760Y039617D01*
X030760Y039458D02*
X028004Y039458D01*
X028004Y039300D02*
X030760Y039300D01*
X030760Y039141D02*
X028004Y039141D01*
X028004Y038983D02*
X030760Y038983D01*
X030760Y038824D02*
X028004Y038824D01*
X028004Y038666D02*
X030760Y038666D01*
X030760Y038507D02*
X027976Y038507D01*
X027817Y038349D02*
X030760Y038349D01*
X030760Y038190D02*
X027659Y038190D01*
X027500Y038032D02*
X030760Y038032D01*
X030760Y037873D02*
X024389Y037873D01*
X024230Y037715D02*
X030760Y037715D01*
X030760Y037556D02*
X024072Y037556D01*
X023913Y037398D02*
X030760Y037398D01*
X030645Y037239D02*
X023755Y037239D01*
X023596Y037081D02*
X030486Y037081D01*
X030328Y036922D02*
X023438Y036922D01*
X023279Y036764D02*
X030169Y036764D01*
X030011Y036605D02*
X023121Y036605D01*
X022962Y036447D02*
X029852Y036447D01*
X029694Y036288D02*
X022804Y036288D01*
X022645Y036130D02*
X029535Y036130D01*
X029377Y035971D02*
X022591Y035971D01*
X022591Y035813D02*
X029218Y035813D01*
X029060Y035654D02*
X022591Y035654D01*
X022591Y035496D02*
X028901Y035496D01*
X028743Y035337D02*
X022591Y035337D01*
X022591Y035179D02*
X025631Y035179D01*
X025473Y035020D02*
X022591Y035020D01*
X022591Y034862D02*
X025314Y034862D01*
X025248Y034703D02*
X022591Y034703D01*
X022591Y034545D02*
X025248Y034545D01*
X025248Y034386D02*
X022591Y034386D01*
X022591Y034228D02*
X025248Y034228D01*
X025248Y034069D02*
X022591Y034069D01*
X022591Y033911D02*
X025248Y033911D01*
X025248Y033752D02*
X022591Y033752D01*
X022591Y033594D02*
X025248Y033594D01*
X025248Y033435D02*
X022591Y033435D01*
X022591Y033277D02*
X025248Y033277D01*
X025248Y033118D02*
X022591Y033118D01*
X022591Y032960D02*
X025248Y032960D01*
X025248Y032801D02*
X022591Y032801D01*
X022591Y032643D02*
X025248Y032643D01*
X025248Y032484D02*
X022591Y032484D01*
X022591Y032326D02*
X025248Y032326D01*
X025248Y032167D02*
X022591Y032167D01*
X022591Y032009D02*
X025248Y032009D01*
X025248Y031850D02*
X022591Y031850D01*
X022591Y031692D02*
X025248Y031692D01*
X025248Y031533D02*
X022591Y031533D01*
X022591Y031375D02*
X025248Y031375D01*
X025248Y031216D02*
X022591Y031216D01*
X022591Y031058D02*
X025248Y031058D01*
X025248Y030899D02*
X022591Y030899D01*
X022591Y030741D02*
X025248Y030741D01*
X025248Y030582D02*
X022591Y030582D01*
X022591Y030424D02*
X025248Y030424D01*
X025248Y030265D02*
X022591Y030265D01*
X022591Y030107D02*
X025248Y030107D01*
X025248Y029948D02*
X022591Y029948D01*
X022591Y029790D02*
X025248Y029790D01*
X025248Y029631D02*
X022591Y029631D01*
X022591Y029473D02*
X025248Y029473D01*
X025248Y029314D02*
X022591Y029314D01*
X022591Y029156D02*
X025248Y029156D01*
X025248Y028997D02*
X022591Y028997D01*
X022591Y028839D02*
X025248Y028839D01*
X025248Y028680D02*
X022591Y028680D01*
X022591Y028522D02*
X025248Y028522D01*
X025248Y028363D02*
X022591Y028363D01*
X022591Y028205D02*
X025248Y028205D01*
X025248Y028046D02*
X022591Y028046D01*
X022591Y027888D02*
X025248Y027888D01*
X025248Y027729D02*
X022591Y027729D01*
X022591Y027571D02*
X025248Y027571D01*
X025248Y027412D02*
X022591Y027412D01*
X022591Y027254D02*
X025248Y027254D01*
X025248Y027095D02*
X022591Y027095D01*
X022591Y026937D02*
X025248Y026937D01*
X025248Y026778D02*
X022591Y026778D01*
X022591Y026620D02*
X025248Y026620D01*
X025248Y026461D02*
X022591Y026461D01*
X022591Y026303D02*
X025248Y026303D01*
X025248Y026144D02*
X022591Y026144D01*
X022591Y025986D02*
X025248Y025986D01*
X025248Y025827D02*
X022591Y025827D01*
X022591Y025669D02*
X025248Y025669D01*
X025248Y025510D02*
X022591Y025510D01*
X022591Y025352D02*
X025248Y025352D01*
X025248Y025193D02*
X022591Y025193D01*
X022591Y025035D02*
X025248Y025035D01*
X025248Y024876D02*
X022591Y024876D01*
X022591Y024718D02*
X025248Y024718D01*
X025248Y024559D02*
X022591Y024559D01*
X022591Y024401D02*
X025248Y024401D01*
X025248Y024242D02*
X022591Y024242D01*
X022591Y024084D02*
X025248Y024084D01*
X025248Y023925D02*
X022591Y023925D01*
X022591Y023767D02*
X025248Y023767D01*
X025248Y023608D02*
X022591Y023608D01*
X022591Y023450D02*
X025248Y023450D01*
X025248Y023291D02*
X022591Y023291D01*
X022591Y023133D02*
X025248Y023133D01*
X025248Y022974D02*
X022591Y022974D01*
X022591Y022816D02*
X025248Y022816D01*
X025248Y022657D02*
X022591Y022657D01*
X022591Y022499D02*
X025248Y022499D01*
X025248Y022340D02*
X022591Y022340D01*
X022591Y022182D02*
X025248Y022182D01*
X025248Y022023D02*
X022591Y022023D01*
X022591Y021865D02*
X025248Y021865D01*
X025248Y021706D02*
X022591Y021706D01*
X022591Y021548D02*
X025248Y021548D01*
X025248Y021389D02*
X022591Y021389D01*
X022591Y021231D02*
X025248Y021231D01*
X025248Y021072D02*
X022591Y021072D01*
X022591Y020914D02*
X025248Y020914D01*
X025248Y020755D02*
X022591Y020755D01*
X022591Y020597D02*
X025248Y020597D01*
X025248Y020438D02*
X022591Y020438D01*
X022591Y020280D02*
X025248Y020280D01*
X025248Y020121D02*
X022591Y020121D01*
X022591Y019963D02*
X025248Y019963D01*
X025248Y019804D02*
X022591Y019804D01*
X022591Y019646D02*
X025248Y019646D01*
X025248Y019487D02*
X022591Y019487D01*
X022591Y019329D02*
X025248Y019329D01*
X025248Y019170D02*
X022591Y019170D01*
X022591Y019012D02*
X025248Y019012D01*
X025248Y018853D02*
X022591Y018853D01*
X022591Y018695D02*
X025248Y018695D01*
X025248Y018536D02*
X022591Y018536D01*
X022591Y018378D02*
X025248Y018378D01*
X025248Y018219D02*
X022591Y018219D01*
X022591Y018061D02*
X025248Y018061D01*
X025248Y017902D02*
X022591Y017902D01*
X022591Y017744D02*
X025248Y017744D01*
X025248Y017585D02*
X022591Y017585D01*
X022591Y017427D02*
X025248Y017427D01*
X025248Y017268D02*
X022591Y017268D01*
X022591Y017110D02*
X025248Y017110D01*
X025248Y016951D02*
X022591Y016951D01*
X022591Y016793D02*
X025248Y016793D01*
X025248Y016634D02*
X022591Y016634D01*
X022591Y016476D02*
X025248Y016476D01*
X025248Y016317D02*
X022591Y016317D01*
X022591Y016159D02*
X025248Y016159D01*
X025248Y016000D02*
X022591Y016000D01*
X022591Y015842D02*
X025248Y015842D01*
X025248Y015683D02*
X022591Y015683D01*
X022591Y015525D02*
X025248Y015525D01*
X025248Y015366D02*
X022591Y015366D01*
X022591Y015208D02*
X025248Y015208D01*
X025248Y015049D02*
X022591Y015049D01*
X022591Y014891D02*
X025248Y014891D01*
X025248Y014732D02*
X022591Y014732D01*
X022591Y014574D02*
X025248Y014574D01*
X025248Y014415D02*
X022591Y014415D01*
X022591Y014257D02*
X025248Y014257D01*
X025248Y014098D02*
X022591Y014098D01*
X022591Y013940D02*
X025248Y013940D01*
X025248Y013781D02*
X022591Y013781D01*
X022591Y013623D02*
X025248Y013623D01*
X025248Y013464D02*
X022591Y013464D01*
X022591Y013306D02*
X025248Y013306D01*
X025248Y013147D02*
X022591Y013147D01*
X022591Y012989D02*
X025248Y012989D01*
X025248Y012830D02*
X022591Y012830D01*
X022591Y012672D02*
X034971Y012672D01*
X035130Y012513D02*
X022591Y012513D01*
X022591Y012355D02*
X035288Y012355D01*
X035447Y012196D02*
X022591Y012196D01*
X022591Y012038D02*
X035605Y012038D01*
X035764Y011879D02*
X022591Y011879D01*
X022591Y011721D02*
X035922Y011721D01*
X036075Y011562D02*
X022591Y011562D01*
X022591Y011404D02*
X036075Y011404D01*
X036075Y011245D02*
X022591Y011245D01*
X022591Y011087D02*
X036075Y011087D01*
X036075Y010928D02*
X022591Y010928D01*
X022591Y010770D02*
X036075Y010770D01*
X036075Y010611D02*
X022591Y010611D01*
X022591Y010453D02*
X036075Y010453D01*
X036075Y010294D02*
X022591Y010294D01*
X022743Y010136D02*
X036075Y010136D01*
X036075Y009977D02*
X022902Y009977D01*
X023060Y009819D02*
X036075Y009819D01*
X036075Y009660D02*
X023219Y009660D01*
X023377Y009502D02*
X036075Y009502D01*
X036075Y009343D02*
X023536Y009343D01*
X023694Y009185D02*
X036075Y009185D01*
X036075Y009026D02*
X023853Y009026D01*
X024011Y008868D02*
X036075Y008868D01*
X036075Y008709D02*
X024170Y008709D01*
X034304Y008551D02*
X036075Y008551D01*
X036075Y008392D02*
X034304Y008392D01*
X034304Y008234D02*
X036075Y008234D01*
X036075Y008075D02*
X034304Y008075D01*
X034304Y007917D02*
X036075Y007917D01*
X036075Y007758D02*
X034304Y007758D01*
X034304Y007600D02*
X036075Y007600D01*
X036075Y007441D02*
X034304Y007441D01*
X034304Y007283D02*
X036075Y007283D01*
X036075Y007124D02*
X034304Y007124D01*
X034304Y006966D02*
X036075Y006966D01*
X036075Y006807D02*
X034304Y006807D01*
X034304Y006649D02*
X036075Y006649D01*
X036075Y006490D02*
X034304Y006490D01*
X018359Y033811D02*
X019933Y035386D01*
X026036Y041489D01*
X026134Y041587D01*
X026134Y044638D01*
X023477Y044638D01*
X023477Y042867D01*
X023280Y042670D01*
X018359Y037748D01*
X017178Y036567D01*
X005563Y036567D01*
X004776Y035780D01*
X004776Y035189D01*
X004185Y034599D01*
X003004Y034599D01*
X003004Y033024D01*
X004973Y033024D01*
X005760Y033811D01*
X018359Y033811D01*
X018458Y033911D02*
X003004Y033911D01*
X003004Y034069D02*
X018616Y034069D01*
X018775Y034228D02*
X003004Y034228D01*
X003004Y034386D02*
X018933Y034386D01*
X019092Y034545D02*
X003004Y034545D01*
X003004Y033752D02*
X005701Y033752D01*
X005542Y033594D02*
X003004Y033594D01*
X003004Y033435D02*
X005384Y033435D01*
X005225Y033277D02*
X003004Y033277D01*
X003004Y033118D02*
X005067Y033118D01*
X004290Y034703D02*
X019250Y034703D01*
X019409Y034862D02*
X004448Y034862D01*
X004607Y035020D02*
X019567Y035020D01*
X019726Y035179D02*
X004765Y035179D01*
X004776Y035337D02*
X019884Y035337D01*
X020043Y035496D02*
X004776Y035496D01*
X004776Y035654D02*
X020201Y035654D01*
X020360Y035813D02*
X004809Y035813D01*
X004967Y035971D02*
X020518Y035971D01*
X020677Y036130D02*
X005126Y036130D01*
X005284Y036288D02*
X020835Y036288D01*
X020994Y036447D02*
X005443Y036447D01*
X004382Y038930D02*
X003792Y038930D01*
X003004Y038142D01*
X003004Y036764D01*
X016784Y036764D01*
X019737Y039717D01*
X023477Y043457D01*
X023280Y043654D01*
X023083Y043851D01*
X021508Y045426D01*
X017178Y041095D01*
X015504Y039422D01*
X004874Y039422D01*
X004776Y039323D01*
X004382Y038930D01*
X004435Y038983D02*
X019002Y038983D01*
X019161Y039141D02*
X004594Y039141D01*
X004752Y039300D02*
X019319Y039300D01*
X019478Y039458D02*
X015541Y039458D01*
X015699Y039617D02*
X019636Y039617D01*
X019795Y039775D02*
X015858Y039775D01*
X016016Y039934D02*
X019953Y039934D01*
X020112Y040092D02*
X016175Y040092D01*
X016333Y040251D02*
X020270Y040251D01*
X020429Y040409D02*
X016492Y040409D01*
X016650Y040568D02*
X020587Y040568D01*
X020746Y040726D02*
X016809Y040726D01*
X016967Y040885D02*
X020904Y040885D01*
X021063Y041043D02*
X017126Y041043D01*
X017284Y041202D02*
X021221Y041202D01*
X021380Y041360D02*
X017443Y041360D01*
X017601Y041519D02*
X021538Y041519D01*
X021697Y041677D02*
X017760Y041677D01*
X017918Y041836D02*
X021855Y041836D01*
X022014Y041994D02*
X018077Y041994D01*
X018235Y042153D02*
X022172Y042153D01*
X022331Y042311D02*
X018394Y042311D01*
X018552Y042470D02*
X022489Y042470D01*
X022648Y042628D02*
X018711Y042628D01*
X018869Y042787D02*
X022806Y042787D01*
X022965Y042945D02*
X019028Y042945D01*
X019186Y043104D02*
X023123Y043104D01*
X023282Y043262D02*
X019345Y043262D01*
X019503Y043421D02*
X023440Y043421D01*
X023477Y043421D02*
X026134Y043421D01*
X026134Y043579D02*
X023477Y043579D01*
X023355Y043579D02*
X019662Y043579D01*
X019820Y043738D02*
X023196Y043738D01*
X023038Y043896D02*
X019979Y043896D01*
X020137Y044055D02*
X022879Y044055D01*
X022721Y044213D02*
X020296Y044213D01*
X020454Y044372D02*
X022562Y044372D01*
X022404Y044530D02*
X020613Y044530D01*
X020771Y044689D02*
X022245Y044689D01*
X022087Y044847D02*
X020930Y044847D01*
X021088Y045006D02*
X021928Y045006D01*
X021770Y045164D02*
X021247Y045164D01*
X021405Y045323D02*
X021611Y045323D01*
X022000Y046274D02*
X023575Y046274D01*
X023575Y046432D02*
X022000Y046432D01*
X022000Y046591D02*
X023575Y046591D01*
X023575Y046749D02*
X022000Y046749D01*
X022000Y046908D02*
X023575Y046908D01*
X023575Y047066D02*
X022000Y047066D01*
X022000Y047225D02*
X023575Y047225D01*
X023575Y047383D02*
X022000Y047383D01*
X022000Y047542D02*
X023575Y047542D01*
X023575Y047700D02*
X022000Y047700D01*
X022000Y047859D02*
X023575Y047859D01*
X023575Y048017D02*
X022000Y048017D01*
X022000Y048176D02*
X023575Y048176D01*
X023575Y048334D02*
X022000Y048334D01*
X022000Y048493D02*
X023575Y048493D01*
X023575Y048651D02*
X022000Y048651D01*
X022000Y048810D02*
X023575Y048810D01*
X023575Y048968D02*
X022000Y048968D01*
X025347Y048968D02*
X026922Y048968D01*
X026922Y048810D02*
X025347Y048810D01*
X025347Y048651D02*
X026922Y048651D01*
X026922Y048493D02*
X025347Y048493D01*
X025347Y048334D02*
X026922Y048334D01*
X026922Y048176D02*
X025347Y048176D01*
X025347Y048017D02*
X026922Y048017D01*
X026922Y047859D02*
X025347Y047859D01*
X025347Y047700D02*
X026922Y047700D01*
X026922Y047542D02*
X025347Y047542D01*
X025347Y047383D02*
X026922Y047383D01*
X026922Y047225D02*
X025347Y047225D01*
X025347Y047066D02*
X026922Y047066D01*
X026922Y046908D02*
X025347Y046908D01*
X025347Y046749D02*
X026922Y046749D01*
X026922Y046591D02*
X025347Y046591D01*
X025347Y046432D02*
X026922Y046432D01*
X026922Y046274D02*
X025347Y046274D01*
X026134Y044530D02*
X023477Y044530D01*
X023477Y044372D02*
X026134Y044372D01*
X026134Y044213D02*
X023477Y044213D01*
X023477Y044055D02*
X026134Y044055D01*
X026134Y043896D02*
X023477Y043896D01*
X023477Y043738D02*
X026134Y043738D01*
X026134Y043262D02*
X023477Y043262D01*
X023477Y043104D02*
X026134Y043104D01*
X026134Y042945D02*
X023477Y042945D01*
X023397Y042787D02*
X026134Y042787D01*
X026134Y042628D02*
X023238Y042628D01*
X023080Y042470D02*
X026134Y042470D01*
X026134Y042311D02*
X022921Y042311D01*
X022763Y042153D02*
X026134Y042153D01*
X026134Y041994D02*
X022604Y041994D01*
X022446Y041836D02*
X026134Y041836D01*
X026134Y041677D02*
X022287Y041677D01*
X022129Y041519D02*
X026066Y041519D01*
X025907Y041360D02*
X021970Y041360D01*
X021812Y041202D02*
X025749Y041202D01*
X025590Y041043D02*
X021653Y041043D01*
X021495Y040885D02*
X025432Y040885D01*
X025273Y040726D02*
X021336Y040726D01*
X021178Y040568D02*
X025115Y040568D01*
X024956Y040409D02*
X021019Y040409D01*
X020861Y040251D02*
X024798Y040251D01*
X024639Y040092D02*
X020702Y040092D01*
X020544Y039934D02*
X024481Y039934D01*
X024322Y039775D02*
X020385Y039775D01*
X020227Y039617D02*
X024164Y039617D01*
X024005Y039458D02*
X020068Y039458D01*
X019910Y039300D02*
X023847Y039300D01*
X023688Y039141D02*
X019751Y039141D01*
X019593Y038983D02*
X023530Y038983D01*
X023371Y038824D02*
X019434Y038824D01*
X019276Y038666D02*
X023213Y038666D01*
X023054Y038507D02*
X019117Y038507D01*
X018959Y038349D02*
X022896Y038349D01*
X022737Y038190D02*
X018800Y038190D01*
X018642Y038032D02*
X022579Y038032D01*
X022420Y037873D02*
X018483Y037873D01*
X018325Y037715D02*
X022262Y037715D01*
X022103Y037556D02*
X018166Y037556D01*
X018008Y037398D02*
X021945Y037398D01*
X021786Y037239D02*
X017849Y037239D01*
X017691Y037081D02*
X021628Y037081D01*
X021469Y036922D02*
X017532Y036922D01*
X017374Y036764D02*
X021311Y036764D01*
X021152Y036605D02*
X017215Y036605D01*
X016942Y036922D02*
X003004Y036922D01*
X003004Y037081D02*
X017100Y037081D01*
X017259Y037239D02*
X003004Y037239D01*
X003004Y037398D02*
X017417Y037398D01*
X017576Y037556D02*
X003004Y037556D01*
X003004Y037715D02*
X017734Y037715D01*
X017893Y037873D02*
X003004Y037873D01*
X003004Y038032D02*
X018051Y038032D01*
X018210Y038190D02*
X003052Y038190D01*
X003211Y038349D02*
X018368Y038349D01*
X018527Y038507D02*
X003369Y038507D01*
X003528Y038666D02*
X018685Y038666D01*
X018844Y038824D02*
X003686Y038824D01*
X010583Y046213D02*
X010485Y046311D01*
X010485Y047985D01*
X011961Y047985D01*
X011961Y047000D01*
X014422Y044540D01*
X014422Y043260D01*
X013536Y043260D01*
X012847Y043949D01*
X010583Y046213D01*
X010522Y046274D02*
X012688Y046274D01*
X012529Y046432D02*
X010485Y046432D01*
X010485Y046591D02*
X012371Y046591D01*
X012212Y046749D02*
X010485Y046749D01*
X010485Y046908D02*
X012054Y046908D01*
X011961Y047066D02*
X010485Y047066D01*
X010485Y047225D02*
X011961Y047225D01*
X011961Y047383D02*
X010485Y047383D01*
X010485Y047542D02*
X011961Y047542D01*
X011961Y047700D02*
X010485Y047700D01*
X010485Y047859D02*
X011961Y047859D01*
X012567Y048493D02*
X010485Y048493D01*
X010485Y048651D02*
X012726Y048651D01*
X012884Y048810D02*
X010485Y048810D01*
X010485Y048968D02*
X017768Y048968D01*
X017768Y048810D02*
X016193Y048810D01*
X016193Y048651D02*
X017768Y048651D01*
X017768Y048493D02*
X016193Y048493D01*
X016193Y048334D02*
X017768Y048334D01*
X017768Y048176D02*
X016193Y048176D01*
X016193Y048017D02*
X017768Y048017D01*
X017768Y047859D02*
X016193Y047859D01*
X016193Y047700D02*
X017768Y047700D01*
X017768Y047542D02*
X016193Y047542D01*
X016193Y047383D02*
X017768Y047383D01*
X017768Y047225D02*
X016193Y047225D01*
X016193Y047066D02*
X017768Y047066D01*
X017768Y046908D02*
X016193Y046908D01*
X016193Y046749D02*
X017768Y046749D01*
X017768Y046591D02*
X016193Y046591D01*
X016193Y046432D02*
X017768Y046432D01*
X017768Y046274D02*
X016193Y046274D01*
X016193Y046115D02*
X017768Y046115D01*
X017768Y045957D02*
X016193Y045957D01*
X016193Y045798D02*
X017768Y045798D01*
X017768Y045640D02*
X016193Y045640D01*
X016052Y045481D02*
X017768Y045481D01*
X017768Y045323D02*
X015893Y045323D01*
X015735Y045164D02*
X017768Y045164D01*
X017768Y045006D02*
X015576Y045006D01*
X015418Y044847D02*
X017768Y044847D01*
X017622Y044689D02*
X015259Y044689D01*
X015101Y044530D02*
X017463Y044530D01*
X017305Y044372D02*
X015012Y044372D01*
X015012Y044213D02*
X017146Y044213D01*
X016988Y044055D02*
X015012Y044055D01*
X015012Y043896D02*
X016829Y043896D01*
X016671Y043738D02*
X015012Y043738D01*
X015012Y043579D02*
X016512Y043579D01*
X016354Y043421D02*
X015012Y043421D01*
X015012Y043262D02*
X016195Y043262D01*
X014422Y043262D02*
X013534Y043262D01*
X013375Y043421D02*
X014422Y043421D01*
X014422Y043579D02*
X013217Y043579D01*
X013058Y043738D02*
X014422Y043738D01*
X014422Y043896D02*
X012900Y043896D01*
X012741Y044055D02*
X014422Y044055D01*
X014422Y044213D02*
X012583Y044213D01*
X012424Y044372D02*
X014422Y044372D01*
X014422Y044530D02*
X012266Y044530D01*
X012107Y044689D02*
X014273Y044689D01*
X014114Y044847D02*
X011949Y044847D01*
X011790Y045006D02*
X013956Y045006D01*
X013797Y045164D02*
X011632Y045164D01*
X011473Y045323D02*
X013639Y045323D01*
X013480Y045481D02*
X011315Y045481D01*
X011156Y045640D02*
X013322Y045640D01*
X013163Y045798D02*
X010998Y045798D01*
X010839Y045957D02*
X013005Y045957D01*
X012846Y046115D02*
X010681Y046115D01*
D12*
X040890Y021016D03*
X041890Y021016D03*
D13*
X034894Y017709D03*
X034894Y025583D03*
D14*
X002902Y007925D03*
X004682Y007925D03*
X004682Y010485D03*
X002902Y010485D03*
X033469Y042674D03*
X033469Y043674D03*
X033469Y044674D03*
X033469Y045674D03*
X033469Y046674D03*
X033469Y047674D03*
X033469Y048674D03*
X033469Y049674D03*
X033469Y050674D03*
X033469Y051674D03*
X033469Y052674D03*
X033469Y053674D03*
X039469Y053674D03*
X039469Y052674D03*
X039469Y051674D03*
X039469Y050674D03*
X039469Y049674D03*
X039469Y048674D03*
X039469Y047674D03*
X039469Y046674D03*
X039469Y045674D03*
X039469Y044674D03*
X039469Y043674D03*
X039469Y042674D03*
X037969Y042674D03*
X036969Y042674D03*
X035969Y042674D03*
X034969Y042674D03*
D15*
X032335Y051489D03*
X032335Y052158D03*
X032335Y053063D03*
X032335Y053733D03*
X042965Y050681D03*
X042965Y050012D03*
D16*
X041981Y049831D03*
D17*
X041981Y050831D03*
X041981Y051831D03*
X041981Y052831D03*
D18*
X011662Y051136D02*
X010882Y051136D01*
X010882Y049166D02*
X011662Y049166D01*
X011662Y047196D02*
X010882Y047196D01*
X010882Y055076D02*
X011662Y055076D01*
X011662Y057046D02*
X010882Y057046D01*
X029180Y007627D02*
X029180Y006847D01*
X031150Y006847D02*
X031150Y007627D01*
X033117Y007627D02*
X033117Y006847D01*
X035087Y006847D02*
X035087Y007627D01*
X039022Y007627D02*
X039022Y006847D01*
X040992Y006847D02*
X040992Y007627D01*
X042959Y007627D02*
X042959Y006847D01*
X044929Y006847D02*
X044929Y007627D01*
X046896Y007627D02*
X046896Y006847D01*
X048866Y006847D02*
X048866Y007627D01*
X012548Y004683D02*
X011768Y004683D01*
X011768Y002713D02*
X012548Y002713D01*
D19*
X014065Y044002D03*
X014565Y044002D03*
X015065Y044002D03*
X015565Y044002D03*
X015565Y046062D03*
X015065Y046062D03*
X014565Y046062D03*
X014065Y046062D03*
X018396Y047644D03*
X018896Y047644D03*
X019396Y047644D03*
X019896Y047644D03*
X019896Y049704D03*
X019396Y049704D03*
X018896Y049704D03*
X018396Y049704D03*
D20*
X019146Y046508D03*
X019933Y046508D03*
X019933Y045721D03*
X019146Y045721D03*
X015012Y047197D03*
X015012Y047985D03*
X014225Y047985D03*
X014225Y047197D03*
D21*
X017933Y051981D03*
X021933Y051981D03*
X021933Y056981D03*
X017933Y056981D03*
D22*
X016882Y055989D03*
X016882Y051989D03*
X022886Y052481D03*
X022886Y056481D03*
D23*
X047485Y053217D03*
X048485Y053217D03*
X048485Y052217D03*
X047485Y052217D03*
X047485Y051217D03*
X047792Y035693D03*
X047792Y034693D03*
X047792Y033693D03*
X047792Y032693D03*
X047792Y031693D03*
X047792Y030693D03*
X047792Y029693D03*
X047792Y028693D03*
X047792Y027693D03*
X047792Y026693D03*
X047792Y025693D03*
X047792Y024693D03*
X047792Y023693D03*
X047792Y022693D03*
X047792Y021693D03*
X047792Y020693D03*
X047792Y019693D03*
X047792Y018693D03*
X047792Y017693D03*
X047792Y016693D03*
X048792Y016693D03*
X048792Y017693D03*
X048792Y018693D03*
X048792Y019693D03*
X048792Y020693D03*
X048792Y021693D03*
X048792Y022693D03*
X048792Y023693D03*
X048792Y024693D03*
X048792Y025693D03*
X048792Y026693D03*
X048792Y027693D03*
X048792Y028693D03*
X048792Y029693D03*
X048792Y030693D03*
X048792Y031693D03*
X048792Y032693D03*
X048792Y033693D03*
X048792Y034693D03*
X048792Y035693D03*
D24*
X026587Y033103D03*
X026587Y024441D03*
X010760Y024441D03*
X010760Y033103D03*
D25*
X010760Y031449D03*
X010760Y040111D03*
D26*
X026587Y040111D03*
X026587Y031449D03*
D27*
X044330Y013156D02*
X044930Y013156D01*
X044930Y012256D02*
X044330Y012256D01*
X044330Y011356D02*
X044930Y011356D01*
D28*
X041496Y011504D02*
X041496Y012024D01*
X040496Y012024D02*
X040496Y011504D01*
D29*
X046115Y010355D03*
X046115Y014355D03*
X016587Y005989D03*
X016587Y001989D03*
X034469Y058024D03*
X038469Y058024D03*
D30*
X029473Y046926D03*
X028111Y043926D03*
X026126Y046926D03*
X024764Y043926D03*
X022780Y046926D03*
X021418Y043926D03*
D31*
X022099Y045426D03*
X025445Y045426D03*
X028792Y045426D03*
D32*
X026331Y055895D03*
X048485Y051217D03*
D33*
X049619Y051233D03*
X050288Y051233D03*
X050288Y052217D03*
X049619Y052217D03*
X046351Y052217D03*
X045681Y052217D03*
X045681Y051233D03*
X046351Y051233D03*
D34*
X030170Y056340D03*
D35*
X030170Y057740D03*
D36*
X027787Y054290D02*
X027851Y054226D01*
X027639Y054226D01*
X027490Y054375D01*
X027490Y054587D01*
X027639Y054736D01*
X027851Y054736D01*
X028000Y054587D01*
X028000Y054375D01*
X027851Y054226D01*
X027811Y054322D01*
X027679Y054322D01*
X027586Y054415D01*
X027586Y054547D01*
X027679Y054640D01*
X027811Y054640D01*
X027904Y054547D01*
X027904Y054415D01*
X027811Y054322D01*
X027771Y054418D01*
X027719Y054418D01*
X027682Y054455D01*
X027682Y054507D01*
X027719Y054544D01*
X027771Y054544D01*
X027808Y054507D01*
X027808Y054455D01*
X027771Y054418D01*
X026373Y052875D02*
X026437Y052811D01*
X026225Y052811D01*
X026076Y052960D01*
X026076Y053172D01*
X026225Y053321D01*
X026437Y053321D01*
X026586Y053172D01*
X026586Y052960D01*
X026437Y052811D01*
X026397Y052907D01*
X026265Y052907D01*
X026172Y053000D01*
X026172Y053132D01*
X026265Y053225D01*
X026397Y053225D01*
X026490Y053132D01*
X026490Y053000D01*
X026397Y052907D01*
X026357Y053003D01*
X026305Y053003D01*
X026268Y053040D01*
X026268Y053092D01*
X026305Y053129D01*
X026357Y053129D01*
X026394Y053092D01*
X026394Y053040D01*
X026357Y053003D01*
X024959Y054290D02*
X025023Y054226D01*
X024811Y054226D01*
X024662Y054375D01*
X024662Y054587D01*
X024811Y054736D01*
X025023Y054736D01*
X025172Y054587D01*
X025172Y054375D01*
X025023Y054226D01*
X024983Y054322D01*
X024851Y054322D01*
X024758Y054415D01*
X024758Y054547D01*
X024851Y054640D01*
X024983Y054640D01*
X025076Y054547D01*
X025076Y054415D01*
X024983Y054322D01*
X024943Y054418D01*
X024891Y054418D01*
X024854Y054455D01*
X024854Y054507D01*
X024891Y054544D01*
X024943Y054544D01*
X024980Y054507D01*
X024980Y054455D01*
X024943Y054418D01*
D37*
X049067Y011567D03*
D38*
X049067Y012567D03*
D39*
X003802Y013750D03*
X003802Y015750D03*
X003802Y017748D03*
X003802Y019748D03*
X003802Y021747D03*
X003802Y023747D03*
X003802Y025745D03*
X003802Y027745D03*
X003802Y029744D03*
X003802Y031744D03*
X003802Y033742D03*
X003802Y035742D03*
X003802Y037741D03*
X003802Y039741D03*
M02*
