%
M48
M72
T01C0.0236
T02C0.0315
T03C0.0320
T04C0.0394
T05C0.0400
T06C0.0440
T07C0.0500
T08C0.0512
T09C0.0520
T10C0.0630
T11C0.1181
T12C0.1488
%
T01
X17670Y2020
X18063Y2020
X18063Y2414
X17670Y2414
X17670Y2807
X18063Y2807
X18457Y2807
X18457Y2414
X18457Y2020
X29382Y23083
X29382Y23477
X29776Y23477
X29776Y23083
X29973Y31252
X29579Y31252
X29579Y31646
X29973Y31646
X31843Y38437
X31843Y38831
X31843Y39225
X35091Y38536
X37650Y35386
X38044Y35386
X38437Y35386
X40209Y38536
X39815Y39914
X40603Y41685
X41685Y42768
X38437Y41292
X44737Y37650
X44737Y37256
X44737Y36863
X42178Y29284
X41784Y29284
X41390Y29284
X42965Y28201
X43359Y28004
X43359Y28398
X43752Y28201
X39028Y19441
X19933Y45524
X19146Y45524
X18949Y48280
X15504Y45524
X15012Y45032
X14028Y45524
X14028Y45524
X14225Y48083
X31744Y49363
X39422Y57138
X39815Y57138
T02
X41981Y52831
X41981Y51831
X41981Y50831
X41981Y49831
T03
X30170Y56340
X30170Y57740
X22886Y56481
X22886Y52481
X16882Y51989
X16882Y55989
X40890Y21016
X41890Y21016
X41496Y11764
X40496Y11764
T04
X49067Y11567
X49067Y12567
X21933Y51981
X17933Y51981
X17933Y56981
X21933Y56981
T05
X2902Y7925
X4682Y7925
X4682Y10485
X2902Y10485
X33469Y42674
X33469Y43674
X33469Y44674
X33469Y45674
X33469Y46674
X33469Y47674
X33469Y48674
X33469Y49674
X33469Y50674
X33469Y51674
X33469Y52674
X33469Y53674
X27745Y54481
X26331Y55895
X24917Y54481
X26331Y53066
X34969Y42674
X35969Y42674
X36969Y42674
X37969Y42674
X39469Y42674
X39469Y43674
X39469Y44674
X39469Y45674
X39469Y46674
X39469Y47674
X39469Y48674
X39469Y49674
X39469Y50674
X39469Y51674
X39469Y52674
X39469Y53674
X47485Y53217
X48485Y53217
X48485Y52217
X48485Y51217
X47485Y51217
X47485Y52217
X47792Y35693
X47792Y34693
X47792Y33693
X47792Y32693
X47792Y31693
X47792Y30693
X47792Y29693
X47792Y28693
X47792Y27693
X47792Y26693
X47792Y25693
X47792Y24693
X47792Y23693
X47792Y22693
X47792Y21693
X47792Y20693
X47792Y19693
X47792Y18693
X47792Y17693
X47792Y16693
X48792Y16693
X48792Y17693
X48792Y18693
X48792Y19693
X48792Y20693
X48792Y21693
X48792Y22693
X48792Y23693
X48792Y24693
X48792Y25693
X48792Y26693
X48792Y27693
X48792Y28693
X48792Y29693
X48792Y30693
X48792Y31693
X48792Y32693
X48792Y33693
X48792Y34693
X48792Y35693
X44630Y13156
X44630Y12256
X44630Y11356
T06
X46115Y10355
X46115Y14355
X16587Y5989
X16587Y1989
X34469Y58024
X38469Y58024
T07
X29473Y46926
X28111Y43926
X26126Y46926
X24764Y43926
X22780Y46926
X21418Y43926
T08
X34894Y25583
X34894Y17709
X3802Y17748
X3802Y15750
X3802Y13750
X3802Y19748
X3802Y21747
X3802Y23747
X3802Y25745
X3802Y27745
X3802Y29744
X3802Y31744
X3802Y33742
X3802Y35742
X3802Y37741
X3802Y39741
T09
X11272Y47196
X11272Y49166
X11272Y51136
X11272Y55076
X11272Y57046
X29180Y7237
X31150Y7237
X33117Y7237
X35087Y7237
X39022Y7237
X40992Y7237
X42959Y7237
X44929Y7237
X46896Y7237
X48866Y7237
X12158Y4683
X12158Y2713
T10
X10760Y24441
X10760Y31449
X10760Y33103
X10760Y40111
X26587Y40111
X26587Y33103
X26587Y31449
X26587Y24441
T11
X15012Y15898
X43556Y15898
X43556Y56646
X15012Y56646
T12
X22099Y45426
X25445Y45426
X28792Y45426
M30
