G75*
G70*
%OFA0B0*%
%FSLAX24Y24*%
%IPPOS*%
%LPD*%
%AMOC8*
5,1,8,0,0,1.08239X$1,22.5*
%
%ADD10C,0.0520*%
%ADD11C,0.0768*%
%ADD12C,0.0740*%
%ADD13R,0.0591X0.0512*%
%ADD14OC8,0.0515*%
%ADD15C,0.0515*%
%ADD16C,0.0780*%
%ADD17R,0.0240X0.0870*%
%ADD18R,0.0512X0.0630*%
%ADD19C,0.0760*%
%ADD20OC8,0.0520*%
%ADD21OC8,0.0600*%
%ADD22R,0.0945X0.0945*%
%ADD23OC8,0.0945*%
%ADD24C,0.0945*%
%ADD25C,0.0600*%
%ADD26C,0.0520*%
%ADD27C,0.0660*%
%ADD28OC8,0.1000*%
%ADD29C,0.0600*%
%ADD30R,0.0512X0.0591*%
%ADD31OC8,0.0630*%
%ADD32C,0.0630*%
%ADD33C,0.0120*%
%ADD34R,0.0594X0.0594*%
%ADD35C,0.0594*%
%ADD36C,0.0787*%
%ADD37C,0.0100*%
%ADD38C,0.1000*%
%ADD39C,0.0500*%
%ADD40C,0.0660*%
%ADD41C,0.0700*%
%ADD42C,0.0356*%
%ADD43C,0.0320*%
%ADD44C,0.0400*%
%ADD45C,0.0240*%
%ADD46C,0.1500*%
%ADD47C,0.3937*%
%ADD48C,0.2540*%
D10*
X040890Y021016D03*
X041890Y021016D03*
D11*
X034894Y017709D03*
X034894Y025583D03*
D12*
X034969Y042674D03*
X035969Y042674D03*
X036969Y042674D03*
X037969Y042674D03*
X039469Y042674D03*
X039469Y043674D03*
X039469Y044674D03*
X039469Y045674D03*
X039469Y046674D03*
X039469Y047674D03*
X039469Y048674D03*
X039469Y049674D03*
X039469Y050674D03*
X039469Y051674D03*
X039469Y052674D03*
X039469Y053674D03*
X033469Y053674D03*
X033469Y052674D03*
X033469Y051674D03*
X033469Y050674D03*
X033469Y049674D03*
X033469Y048674D03*
X033469Y047674D03*
X033469Y046674D03*
X033469Y045674D03*
X033469Y044674D03*
X033469Y043674D03*
X033469Y042674D03*
X004682Y010485D03*
X002902Y010485D03*
X002902Y007925D03*
X004682Y007925D03*
D13*
X032335Y051489D03*
X032335Y052158D03*
X032335Y053063D03*
X032335Y053733D03*
X042965Y050681D03*
X042965Y050012D03*
D14*
X041981Y049831D03*
D15*
X041981Y050831D03*
X041981Y051831D03*
X041981Y052831D03*
D16*
X011662Y051136D02*
X010882Y051136D01*
X010882Y049166D02*
X011662Y049166D01*
X011662Y047196D02*
X010882Y047196D01*
X010882Y055076D02*
X011662Y055076D01*
X011662Y057046D02*
X010882Y057046D01*
X029180Y007627D02*
X029180Y006847D01*
X031150Y006847D02*
X031150Y007627D01*
X033117Y007627D02*
X033117Y006847D01*
X035087Y006847D02*
X035087Y007627D01*
X039022Y007627D02*
X039022Y006847D01*
X040992Y006847D02*
X040992Y007627D01*
X042959Y007627D02*
X042959Y006847D01*
X044929Y006847D02*
X044929Y007627D01*
X046896Y007627D02*
X046896Y006847D01*
X048866Y006847D02*
X048866Y007627D01*
X012548Y004683D02*
X011768Y004683D01*
X011768Y002713D02*
X012548Y002713D01*
D17*
X014065Y044002D03*
X014565Y044002D03*
X015065Y044002D03*
X015565Y044002D03*
X015565Y046062D03*
X015065Y046062D03*
X014565Y046062D03*
X014065Y046062D03*
X018396Y047644D03*
X018896Y047644D03*
X019396Y047644D03*
X019896Y047644D03*
X019896Y049704D03*
X019396Y049704D03*
X018896Y049704D03*
X018396Y049704D03*
D18*
X019146Y046508D03*
X019933Y046508D03*
X019933Y045721D03*
X019146Y045721D03*
X015012Y047197D03*
X015012Y047985D03*
X014225Y047985D03*
X014225Y047197D03*
D19*
X017933Y051981D03*
X021933Y051981D03*
X021933Y056981D03*
X017933Y056981D03*
D20*
X016882Y055989D03*
X016882Y051989D03*
X022886Y052481D03*
X022886Y056481D03*
D21*
X047485Y053217D03*
X048485Y053217D03*
X048485Y052217D03*
X047485Y052217D03*
X047485Y051217D03*
X047792Y035693D03*
X047792Y034693D03*
X047792Y033693D03*
X047792Y032693D03*
X047792Y031693D03*
X047792Y030693D03*
X047792Y029693D03*
X047792Y028693D03*
X047792Y027693D03*
X047792Y026693D03*
X047792Y025693D03*
X047792Y024693D03*
X047792Y023693D03*
X047792Y022693D03*
X047792Y021693D03*
X047792Y020693D03*
X047792Y019693D03*
X047792Y018693D03*
X047792Y017693D03*
X047792Y016693D03*
X048792Y016693D03*
X048792Y017693D03*
X048792Y018693D03*
X048792Y019693D03*
X048792Y020693D03*
X048792Y021693D03*
X048792Y022693D03*
X048792Y023693D03*
X048792Y024693D03*
X048792Y025693D03*
X048792Y026693D03*
X048792Y027693D03*
X048792Y028693D03*
X048792Y029693D03*
X048792Y030693D03*
X048792Y031693D03*
X048792Y032693D03*
X048792Y033693D03*
X048792Y034693D03*
X048792Y035693D03*
D22*
X026587Y033103D03*
X026587Y024441D03*
X010760Y024441D03*
X010760Y033103D03*
D23*
X010760Y031449D03*
X010760Y040111D03*
D24*
X026587Y040111D03*
X026587Y031449D03*
D25*
X044330Y013156D02*
X044930Y013156D01*
X044930Y012256D02*
X044330Y012256D01*
X044330Y011356D02*
X044930Y011356D01*
D26*
X041496Y011504D02*
X041496Y012024D01*
X040496Y012024D02*
X040496Y011504D01*
D27*
X046115Y010355D03*
X046115Y014355D03*
X016587Y005989D03*
X016587Y001989D03*
X034469Y058024D03*
X038469Y058024D03*
D28*
X029473Y046926D03*
X028111Y043926D03*
X026126Y046926D03*
X024764Y043926D03*
X022780Y046926D03*
X021418Y043926D03*
D29*
X026331Y055895D03*
X048485Y051217D03*
D30*
X049619Y051233D03*
X050288Y051233D03*
X050288Y052217D03*
X049619Y052217D03*
X046351Y052217D03*
X045681Y052217D03*
X045681Y051233D03*
X046351Y051233D03*
D31*
X030170Y056340D03*
D32*
X030170Y057740D03*
D33*
X027784Y054302D02*
X027844Y054242D01*
X027646Y054242D01*
X027506Y054382D01*
X027506Y054580D01*
X027646Y054720D01*
X027844Y054720D01*
X027984Y054580D01*
X027984Y054382D01*
X027844Y054242D01*
X027807Y054332D01*
X027683Y054332D01*
X027596Y054419D01*
X027596Y054543D01*
X027683Y054630D01*
X027807Y054630D01*
X027894Y054543D01*
X027894Y054419D01*
X027807Y054332D01*
X027770Y054422D01*
X027720Y054422D01*
X027686Y054456D01*
X027686Y054506D01*
X027720Y054540D01*
X027770Y054540D01*
X027804Y054506D01*
X027804Y054456D01*
X027770Y054422D01*
X026370Y052887D02*
X026430Y052827D01*
X026232Y052827D01*
X026092Y052967D01*
X026092Y053165D01*
X026232Y053305D01*
X026430Y053305D01*
X026570Y053165D01*
X026570Y052967D01*
X026430Y052827D01*
X026393Y052917D01*
X026269Y052917D01*
X026182Y053004D01*
X026182Y053128D01*
X026269Y053215D01*
X026393Y053215D01*
X026480Y053128D01*
X026480Y053004D01*
X026393Y052917D01*
X026356Y053007D01*
X026306Y053007D01*
X026272Y053041D01*
X026272Y053091D01*
X026306Y053125D01*
X026356Y053125D01*
X026390Y053091D01*
X026390Y053041D01*
X026356Y053007D01*
X024956Y054302D02*
X025016Y054242D01*
X024818Y054242D01*
X024678Y054382D01*
X024678Y054580D01*
X024818Y054720D01*
X025016Y054720D01*
X025156Y054580D01*
X025156Y054382D01*
X025016Y054242D01*
X024979Y054332D01*
X024855Y054332D01*
X024768Y054419D01*
X024768Y054543D01*
X024855Y054630D01*
X024979Y054630D01*
X025066Y054543D01*
X025066Y054419D01*
X024979Y054332D01*
X024942Y054422D01*
X024892Y054422D01*
X024858Y054456D01*
X024858Y054506D01*
X024892Y054540D01*
X024942Y054540D01*
X024976Y054506D01*
X024976Y054456D01*
X024942Y054422D01*
D34*
X049067Y011567D03*
D35*
X049067Y012567D03*
D36*
X003802Y013750D03*
X003802Y015750D03*
X003802Y017748D03*
X003802Y019748D03*
X003802Y021747D03*
X003802Y023747D03*
X003802Y025745D03*
X003802Y027745D03*
X003802Y029744D03*
X003802Y031744D03*
X003802Y033742D03*
X003802Y035742D03*
X003802Y037741D03*
X003802Y039741D03*
D37*
X000858Y042847D02*
X000858Y006469D01*
X007722Y006469D01*
X008084Y006351D01*
X008084Y006351D01*
X008391Y006128D01*
X008391Y006128D01*
X008587Y005858D01*
X008587Y009967D01*
X006181Y012373D01*
X003640Y012373D01*
X003294Y012465D01*
X002984Y012644D01*
X002713Y012915D01*
X002534Y013225D01*
X002442Y013571D01*
X002442Y013929D01*
X002534Y014275D01*
X002713Y014585D01*
X002967Y014838D01*
X003277Y015017D01*
X003623Y015110D01*
X003981Y015110D01*
X004045Y015093D01*
X006611Y015093D01*
X005394Y016310D01*
X003701Y016310D01*
X003355Y016402D01*
X003045Y016581D01*
X002713Y016913D01*
X002534Y017223D01*
X002442Y017569D01*
X002442Y017927D01*
X002534Y018273D01*
X002713Y018583D01*
X002967Y018837D01*
X003277Y019016D01*
X003623Y019108D01*
X003981Y019108D01*
X004274Y019030D01*
X005823Y019030D01*
X004475Y020378D01*
X004466Y020387D01*
X003623Y020387D01*
X003277Y020480D01*
X002967Y020659D01*
X002713Y020912D01*
X002534Y021222D01*
X002442Y021568D01*
X002442Y021926D01*
X002534Y022272D01*
X002713Y022582D01*
X002967Y022835D01*
X003277Y023014D01*
X003623Y023107D01*
X005209Y023107D01*
X005554Y023014D01*
X005865Y022835D01*
X006258Y022442D01*
X006398Y022301D01*
X016691Y012009D01*
X016870Y011699D01*
X016963Y011353D01*
X016963Y010995D01*
X016870Y010649D01*
X016713Y010376D01*
X016713Y009862D01*
X017642Y008932D01*
X017642Y010967D01*
X017485Y011239D01*
X017392Y011585D01*
X017392Y023996D01*
X016614Y024774D01*
X011383Y024774D01*
X011383Y024491D01*
X010810Y024491D01*
X010810Y024391D01*
X010810Y023819D01*
X011252Y023819D01*
X011291Y023829D01*
X011325Y023849D01*
X011353Y023877D01*
X011372Y023911D01*
X011383Y023949D01*
X011383Y024391D01*
X010810Y024391D01*
X010710Y024391D01*
X010710Y023819D01*
X010268Y023819D01*
X010230Y023829D01*
X010196Y023849D01*
X010168Y023877D01*
X010148Y023911D01*
X010138Y023949D01*
X010138Y024391D01*
X010710Y024391D01*
X010710Y024491D01*
X010138Y024491D01*
X010138Y024774D01*
X008095Y024774D01*
X007973Y024652D01*
X007663Y024473D01*
X007317Y024381D01*
X003627Y024381D01*
X003281Y024473D01*
X002971Y024652D01*
X002713Y024910D01*
X002534Y025220D01*
X002442Y025566D01*
X002442Y025924D01*
X002534Y026270D01*
X002713Y026580D01*
X002967Y026834D01*
X003277Y027013D01*
X003623Y027105D01*
X003981Y027105D01*
X003999Y027101D01*
X006575Y027101D01*
X006697Y027223D01*
X007007Y027402D01*
X007353Y027494D01*
X017357Y027494D01*
X017702Y027402D01*
X018013Y027223D01*
X019755Y025481D01*
X019755Y029311D01*
X018976Y030089D01*
X011343Y030089D01*
X010441Y029187D01*
X010293Y029039D01*
X010293Y029039D01*
X009910Y028656D01*
X009600Y028477D01*
X009254Y028384D01*
X003623Y028384D01*
X003277Y028477D01*
X002967Y028656D01*
X002713Y028909D01*
X002534Y029219D01*
X002442Y029565D01*
X002442Y029923D01*
X002534Y030269D01*
X002713Y030579D01*
X002967Y030832D01*
X003277Y031011D01*
X003623Y031104D01*
X008511Y031104D01*
X008518Y031110D01*
X009645Y032238D01*
X009672Y032284D01*
X009925Y032537D01*
X010138Y032660D01*
X010138Y033053D01*
X010710Y033053D01*
X010710Y033153D01*
X010138Y033153D01*
X010138Y033309D01*
X006000Y033309D01*
X005667Y032976D01*
X005414Y032723D01*
X005104Y032544D01*
X004758Y032451D01*
X004238Y032451D01*
X003981Y032382D01*
X003623Y032382D01*
X003277Y032475D01*
X002967Y032654D01*
X002713Y032907D01*
X002534Y033218D01*
X002442Y033563D01*
X002442Y033922D01*
X002534Y034267D01*
X002713Y034578D01*
X003035Y034900D01*
X003346Y035079D01*
X003691Y035171D01*
X004016Y035171D01*
X004274Y035430D01*
X004274Y035437D01*
X004294Y035511D01*
X004267Y035457D01*
X004216Y035388D01*
X004156Y035328D01*
X004087Y035277D01*
X004010Y035239D01*
X003929Y035212D01*
X003852Y035200D01*
X003852Y035692D01*
X003852Y035792D01*
X004344Y035792D01*
X004332Y035870D01*
X004305Y035951D01*
X004267Y036027D01*
X004216Y036097D01*
X004156Y036157D01*
X004087Y036207D01*
X004010Y036246D01*
X003929Y036273D01*
X003852Y036285D01*
X003852Y035792D01*
X003752Y035792D01*
X003752Y035692D01*
X003852Y035692D01*
X004342Y035692D01*
X004402Y035915D01*
X004625Y036301D01*
X004326Y036474D01*
X003981Y036381D01*
X003623Y036381D01*
X003277Y036474D01*
X002967Y036653D01*
X002713Y036906D01*
X002534Y037216D01*
X002442Y037562D01*
X002442Y037920D01*
X002534Y038266D01*
X002713Y038576D01*
X002877Y038739D01*
X002900Y038780D01*
X003154Y039034D01*
X003252Y039132D01*
X003510Y039281D01*
X003447Y039326D01*
X003387Y039387D01*
X003337Y039456D01*
X003298Y039532D01*
X003271Y039614D01*
X003259Y039691D01*
X003752Y039691D01*
X003752Y039791D01*
X003752Y040284D01*
X003674Y040271D01*
X003593Y040245D01*
X003517Y040206D01*
X003447Y040156D01*
X003387Y040095D01*
X003337Y040026D01*
X003298Y039950D01*
X003271Y039868D01*
X003259Y039791D01*
X003752Y039791D01*
X003852Y039791D01*
X004344Y039791D01*
X004332Y039868D01*
X004305Y039950D01*
X004267Y040026D01*
X004216Y040095D01*
X004156Y040156D01*
X004087Y040206D01*
X004010Y040245D01*
X003929Y040271D01*
X003852Y040284D01*
X003852Y039791D01*
X003852Y039691D01*
X004344Y039691D01*
X004332Y039618D01*
X004641Y039796D01*
X005119Y039924D01*
X009678Y039924D01*
X009678Y040559D01*
X010312Y041193D01*
X011209Y041193D01*
X011843Y040559D01*
X011843Y039924D01*
X015316Y039924D01*
X018062Y042670D01*
X016037Y042670D01*
X015933Y042642D01*
X015575Y042642D01*
X015471Y042670D01*
X014160Y042670D01*
X014056Y042642D01*
X013698Y042642D01*
X013594Y042670D01*
X009500Y042670D01*
X008451Y043270D01*
X008391Y043188D01*
X008391Y043188D01*
X008084Y042965D01*
X007722Y042847D01*
X000858Y042847D01*
X000858Y042801D02*
X009271Y042801D01*
X009099Y042899D02*
X007882Y042899D01*
X008129Y042998D02*
X008927Y042998D01*
X008754Y043096D02*
X008265Y043096D01*
X008396Y043195D02*
X008582Y043195D01*
X009444Y042702D02*
X000858Y042702D01*
X000858Y042604D02*
X017996Y042604D01*
X017898Y042505D02*
X000858Y042505D01*
X000858Y042407D02*
X017799Y042407D01*
X017701Y042308D02*
X000858Y042308D01*
X000858Y042210D02*
X017602Y042210D01*
X017504Y042111D02*
X000858Y042111D01*
X000858Y042013D02*
X017405Y042013D01*
X017307Y041914D02*
X000858Y041914D01*
X000858Y041816D02*
X017208Y041816D01*
X017110Y041717D02*
X000858Y041717D01*
X000858Y041619D02*
X017011Y041619D01*
X016913Y041520D02*
X000858Y041520D01*
X000858Y041422D02*
X016814Y041422D01*
X016716Y041323D02*
X000858Y041323D01*
X000858Y041225D02*
X016617Y041225D01*
X016519Y041126D02*
X011276Y041126D01*
X011374Y041028D02*
X016420Y041028D01*
X016322Y040929D02*
X011473Y040929D01*
X011571Y040831D02*
X016223Y040831D01*
X016125Y040732D02*
X011670Y040732D01*
X011768Y040634D02*
X016026Y040634D01*
X015928Y040535D02*
X011843Y040535D01*
X011843Y040437D02*
X015829Y040437D01*
X015731Y040338D02*
X011843Y040338D01*
X011843Y040240D02*
X015632Y040240D01*
X015534Y040141D02*
X011843Y040141D01*
X011843Y040043D02*
X015435Y040043D01*
X015337Y039944D02*
X011843Y039944D01*
X010245Y041126D02*
X000858Y041126D01*
X000858Y041028D02*
X010146Y041028D01*
X010048Y040929D02*
X000858Y040929D01*
X000858Y040831D02*
X009949Y040831D01*
X009851Y040732D02*
X000858Y040732D01*
X000858Y040634D02*
X009752Y040634D01*
X009678Y040535D02*
X000858Y040535D01*
X000858Y040437D02*
X009678Y040437D01*
X009678Y040338D02*
X000858Y040338D01*
X000858Y040240D02*
X003583Y040240D01*
X003752Y040240D02*
X003852Y040240D01*
X003852Y040141D02*
X003752Y040141D01*
X003752Y040043D02*
X003852Y040043D01*
X003852Y039944D02*
X003752Y039944D01*
X003752Y039846D02*
X003852Y039846D01*
X003852Y039747D02*
X004557Y039747D01*
X004386Y039649D02*
X004337Y039649D01*
X004335Y039846D02*
X004828Y039846D01*
X004307Y039944D02*
X009678Y039944D01*
X009678Y040043D02*
X004254Y040043D01*
X004170Y040141D02*
X009678Y040141D01*
X009678Y040240D02*
X004021Y040240D01*
X003752Y039747D02*
X000858Y039747D01*
X000858Y039649D02*
X003266Y039649D01*
X003292Y039550D02*
X000858Y039550D01*
X000858Y039452D02*
X003340Y039452D01*
X003421Y039353D02*
X000858Y039353D01*
X000858Y039255D02*
X003464Y039255D01*
X003294Y039156D02*
X000858Y039156D01*
X000858Y039058D02*
X003178Y039058D01*
X003079Y038959D02*
X000858Y038959D01*
X000858Y038861D02*
X002981Y038861D01*
X002890Y038762D02*
X000858Y038762D01*
X000858Y038664D02*
X002801Y038664D01*
X002707Y038565D02*
X000858Y038565D01*
X000858Y038467D02*
X002650Y038467D01*
X002593Y038368D02*
X000858Y038368D01*
X000858Y038270D02*
X002536Y038270D01*
X002509Y038171D02*
X000858Y038171D01*
X000858Y038073D02*
X002482Y038073D01*
X002456Y037974D02*
X000858Y037974D01*
X000858Y037876D02*
X002442Y037876D01*
X002442Y037777D02*
X000858Y037777D01*
X000858Y037679D02*
X002442Y037679D01*
X002442Y037580D02*
X000858Y037580D01*
X000858Y037482D02*
X002463Y037482D01*
X002489Y037383D02*
X000858Y037383D01*
X000858Y037285D02*
X002516Y037285D01*
X002552Y037186D02*
X000858Y037186D01*
X000858Y037088D02*
X002608Y037088D01*
X002665Y036989D02*
X000858Y036989D01*
X000858Y036891D02*
X002729Y036891D01*
X002827Y036792D02*
X000858Y036792D01*
X000858Y036694D02*
X002926Y036694D01*
X003066Y036595D02*
X000858Y036595D01*
X000858Y036497D02*
X003237Y036497D01*
X003559Y036398D02*
X000858Y036398D01*
X000858Y036300D02*
X004624Y036300D01*
X004567Y036201D02*
X004095Y036201D01*
X004210Y036103D02*
X004510Y036103D01*
X004453Y036004D02*
X004278Y036004D01*
X004320Y035906D02*
X004400Y035906D01*
X004373Y035807D02*
X004342Y035807D01*
X004347Y035709D02*
X003852Y035709D01*
X003852Y035807D02*
X003752Y035807D01*
X003752Y035792D02*
X003752Y036285D01*
X003674Y036273D01*
X003593Y036246D01*
X003517Y036207D01*
X003447Y036157D01*
X003387Y036097D01*
X003337Y036027D01*
X003298Y035951D01*
X003271Y035870D01*
X003259Y035792D01*
X003752Y035792D01*
X003752Y035709D02*
X000858Y035709D01*
X000858Y035807D02*
X003261Y035807D01*
X003283Y035906D02*
X000858Y035906D01*
X000858Y036004D02*
X003325Y036004D01*
X003393Y036103D02*
X000858Y036103D01*
X000858Y036201D02*
X003508Y036201D01*
X003752Y036201D02*
X003852Y036201D01*
X003852Y036103D02*
X003752Y036103D01*
X003752Y036004D02*
X003852Y036004D01*
X003852Y035906D02*
X003752Y035906D01*
X003752Y035692D02*
X003259Y035692D01*
X003271Y035615D01*
X003298Y035534D01*
X003337Y035457D01*
X003387Y035388D01*
X003447Y035328D01*
X003517Y035277D01*
X003593Y035239D01*
X003674Y035212D01*
X003752Y035200D01*
X003752Y035692D01*
X003752Y035610D02*
X003852Y035610D01*
X003852Y035512D02*
X003752Y035512D01*
X003752Y035413D02*
X003852Y035413D01*
X003852Y035315D02*
X003752Y035315D01*
X003752Y035216D02*
X003852Y035216D01*
X003941Y035216D02*
X004060Y035216D01*
X004138Y035315D02*
X004159Y035315D01*
X004234Y035413D02*
X004257Y035413D01*
X003662Y035216D02*
X000858Y035216D01*
X000858Y035118D02*
X003491Y035118D01*
X003465Y035315D02*
X000858Y035315D01*
X000858Y035413D02*
X003369Y035413D01*
X003309Y035512D02*
X000858Y035512D01*
X000858Y035610D02*
X003273Y035610D01*
X003242Y035019D02*
X000858Y035019D01*
X000858Y034921D02*
X003072Y034921D01*
X002958Y034822D02*
X000858Y034822D01*
X000858Y034724D02*
X002859Y034724D01*
X002761Y034625D02*
X000858Y034625D01*
X000858Y034527D02*
X002684Y034527D01*
X002627Y034428D02*
X000858Y034428D01*
X000858Y034330D02*
X002570Y034330D01*
X002525Y034231D02*
X000858Y034231D01*
X000858Y034133D02*
X002498Y034133D01*
X002472Y034034D02*
X000858Y034034D01*
X000858Y033936D02*
X002445Y033936D01*
X002442Y033837D02*
X000858Y033837D01*
X000858Y033739D02*
X002442Y033739D01*
X002442Y033640D02*
X000858Y033640D01*
X000858Y033542D02*
X002447Y033542D01*
X002474Y033443D02*
X000858Y033443D01*
X000858Y033345D02*
X002500Y033345D01*
X002527Y033246D02*
X000858Y033246D01*
X000858Y033148D02*
X002575Y033148D01*
X002632Y033049D02*
X000858Y033049D01*
X000858Y032951D02*
X002688Y032951D01*
X002769Y032852D02*
X000858Y032852D01*
X000858Y032754D02*
X002867Y032754D01*
X002966Y032655D02*
X000858Y032655D01*
X000858Y032557D02*
X003136Y032557D01*
X003340Y032458D02*
X000858Y032458D01*
X000858Y032360D02*
X009747Y032360D01*
X009659Y032261D02*
X003969Y032261D01*
X003929Y032274D02*
X003852Y032286D01*
X003852Y031794D01*
X004344Y031794D01*
X004332Y031871D01*
X004305Y031953D01*
X004267Y032029D01*
X004216Y032098D01*
X004156Y032159D01*
X004087Y032209D01*
X004010Y032248D01*
X003929Y032274D01*
X003852Y032261D02*
X003752Y032261D01*
X003752Y032286D02*
X003674Y032274D01*
X003593Y032248D01*
X003517Y032209D01*
X003447Y032159D01*
X003387Y032098D01*
X003337Y032029D01*
X003298Y031953D01*
X003271Y031871D01*
X003259Y031794D01*
X003752Y031794D01*
X003752Y032286D01*
X003634Y032261D02*
X000858Y032261D01*
X000858Y032163D02*
X003453Y032163D01*
X003362Y032064D02*
X000858Y032064D01*
X000858Y031966D02*
X003304Y031966D01*
X003271Y031867D02*
X000858Y031867D01*
X000858Y031769D02*
X003752Y031769D01*
X003752Y031794D02*
X003752Y031694D01*
X003852Y031694D01*
X003852Y031794D01*
X003752Y031794D01*
X003752Y031867D02*
X003852Y031867D01*
X003852Y031769D02*
X009176Y031769D01*
X009274Y031867D02*
X004333Y031867D01*
X004299Y031966D02*
X009373Y031966D01*
X009471Y032064D02*
X004241Y032064D01*
X004150Y032163D02*
X009570Y032163D01*
X009846Y032458D02*
X004783Y032458D01*
X005126Y032557D02*
X009958Y032557D01*
X010129Y032655D02*
X005296Y032655D01*
X005445Y032754D02*
X010138Y032754D01*
X010138Y032852D02*
X005543Y032852D01*
X005642Y032951D02*
X010138Y032951D01*
X010138Y033049D02*
X005740Y033049D01*
X005839Y033148D02*
X010710Y033148D01*
X010810Y033148D02*
X022089Y033148D01*
X022089Y033246D02*
X011383Y033246D01*
X011383Y033309D02*
X011383Y033153D01*
X010810Y033153D01*
X010810Y033053D01*
X011383Y033053D01*
X011383Y032809D01*
X019719Y032809D01*
X020065Y032717D01*
X020375Y032537D01*
X022089Y030823D01*
X022089Y035732D01*
X022217Y036210D01*
X022465Y036639D01*
X023897Y038072D01*
X024326Y038319D01*
X024804Y038447D01*
X027226Y038447D01*
X027502Y038724D01*
X027502Y039531D01*
X027453Y039446D01*
X027252Y039244D01*
X027005Y039102D01*
X026730Y039028D01*
X026445Y039028D01*
X026169Y039102D01*
X025922Y039244D01*
X025721Y039446D01*
X025578Y039693D01*
X025505Y039968D01*
X025505Y040253D01*
X025510Y040272D01*
X018922Y033685D01*
X018494Y033437D01*
X018016Y033309D01*
X011383Y033309D01*
X011383Y033049D02*
X022089Y033049D01*
X022089Y032951D02*
X011383Y032951D01*
X011383Y032852D02*
X022089Y032852D01*
X022089Y032754D02*
X019926Y032754D01*
X020171Y032655D02*
X022089Y032655D01*
X022089Y032557D02*
X020342Y032557D01*
X020454Y032458D02*
X022089Y032458D01*
X022089Y032360D02*
X020553Y032360D01*
X020651Y032261D02*
X022089Y032261D01*
X022089Y032163D02*
X020750Y032163D01*
X020848Y032064D02*
X022089Y032064D01*
X022089Y031966D02*
X020947Y031966D01*
X021045Y031867D02*
X022089Y031867D01*
X022089Y031769D02*
X021144Y031769D01*
X021242Y031670D02*
X022089Y031670D01*
X022089Y031572D02*
X021341Y031572D01*
X021439Y031473D02*
X022089Y031473D01*
X022089Y031375D02*
X021538Y031375D01*
X021636Y031276D02*
X022089Y031276D01*
X022089Y031178D02*
X021735Y031178D01*
X021833Y031079D02*
X022089Y031079D01*
X022089Y030981D02*
X021932Y030981D01*
X022030Y030882D02*
X022089Y030882D01*
X019755Y029306D02*
X010560Y029306D01*
X010462Y029208D02*
X019755Y029208D01*
X019755Y029109D02*
X010363Y029109D01*
X010265Y029011D02*
X019755Y029011D01*
X019755Y028912D02*
X010166Y028912D01*
X010068Y028814D02*
X019755Y028814D01*
X019755Y028715D02*
X009969Y028715D01*
X009842Y028617D02*
X019755Y028617D01*
X019755Y028518D02*
X009671Y028518D01*
X009387Y028420D02*
X019755Y028420D01*
X019755Y028321D02*
X000858Y028321D01*
X000858Y028223D02*
X003540Y028223D01*
X003517Y028210D02*
X003447Y028160D01*
X003387Y028100D01*
X003337Y028030D01*
X003298Y027954D01*
X003271Y027873D01*
X003259Y027795D01*
X003752Y027795D01*
X003752Y027695D01*
X003852Y027695D01*
X003852Y027795D01*
X004344Y027795D01*
X004332Y027873D01*
X004305Y027954D01*
X004267Y028030D01*
X004216Y028100D01*
X004156Y028160D01*
X004087Y028210D01*
X004010Y028249D01*
X003929Y028276D01*
X003852Y028288D01*
X003852Y027795D01*
X003752Y027795D01*
X003752Y028288D01*
X003674Y028276D01*
X003593Y028249D01*
X003517Y028210D01*
X003411Y028124D02*
X000858Y028124D01*
X000858Y028026D02*
X003334Y028026D01*
X003289Y027927D02*
X000858Y027927D01*
X000858Y027829D02*
X003264Y027829D01*
X003259Y027695D02*
X003271Y027618D01*
X003298Y027537D01*
X003337Y027460D01*
X003387Y027391D01*
X003447Y027331D01*
X003517Y027280D01*
X003593Y027242D01*
X003674Y027215D01*
X003752Y027203D01*
X003752Y027695D01*
X003259Y027695D01*
X003269Y027632D02*
X000858Y027632D01*
X000858Y027730D02*
X003752Y027730D01*
X003752Y027632D02*
X003852Y027632D01*
X003852Y027695D02*
X003852Y027203D01*
X003929Y027215D01*
X004010Y027242D01*
X004087Y027280D01*
X004156Y027331D01*
X004216Y027391D01*
X004267Y027460D01*
X004305Y027537D01*
X004332Y027618D01*
X004344Y027695D01*
X003852Y027695D01*
X003852Y027730D02*
X019755Y027730D01*
X019755Y027632D02*
X004334Y027632D01*
X004304Y027533D02*
X019755Y027533D01*
X019755Y027435D02*
X017579Y027435D01*
X017816Y027336D02*
X019755Y027336D01*
X019755Y027238D02*
X017987Y027238D01*
X018096Y027139D02*
X019755Y027139D01*
X019755Y027041D02*
X018195Y027041D01*
X018293Y026942D02*
X019755Y026942D01*
X019755Y026844D02*
X018392Y026844D01*
X018490Y026745D02*
X019755Y026745D01*
X019755Y026647D02*
X018589Y026647D01*
X018687Y026548D02*
X019755Y026548D01*
X019755Y026450D02*
X018786Y026450D01*
X018884Y026351D02*
X019755Y026351D01*
X019755Y026253D02*
X018983Y026253D01*
X019081Y026154D02*
X019755Y026154D01*
X019755Y026056D02*
X019180Y026056D01*
X019278Y025957D02*
X019755Y025957D01*
X019755Y025859D02*
X019377Y025859D01*
X019475Y025760D02*
X019755Y025760D01*
X019755Y025662D02*
X019574Y025662D01*
X019672Y025563D02*
X019755Y025563D01*
X019755Y027829D02*
X004339Y027829D01*
X004314Y027927D02*
X019755Y027927D01*
X019755Y028026D02*
X004269Y028026D01*
X004192Y028124D02*
X019755Y028124D01*
X019755Y028223D02*
X004063Y028223D01*
X003852Y028223D02*
X003752Y028223D01*
X003752Y028124D02*
X003852Y028124D01*
X003852Y028026D02*
X003752Y028026D01*
X003752Y027927D02*
X003852Y027927D01*
X003852Y027829D02*
X003752Y027829D01*
X003752Y027533D02*
X003852Y027533D01*
X003852Y027435D02*
X003752Y027435D01*
X003752Y027336D02*
X003852Y027336D01*
X003852Y027238D02*
X003752Y027238D01*
X003605Y027238D02*
X000858Y027238D01*
X000858Y027336D02*
X003442Y027336D01*
X003355Y027435D02*
X000858Y027435D01*
X000858Y027533D02*
X003300Y027533D01*
X003381Y027041D02*
X000858Y027041D01*
X000858Y027139D02*
X006613Y027139D01*
X006723Y027238D02*
X003998Y027238D01*
X004161Y027336D02*
X006893Y027336D01*
X007130Y027435D02*
X004248Y027435D01*
X003490Y028420D02*
X000858Y028420D01*
X000858Y028518D02*
X003205Y028518D01*
X003034Y028617D02*
X000858Y028617D01*
X000858Y028715D02*
X002907Y028715D01*
X002809Y028814D02*
X000858Y028814D01*
X000858Y028912D02*
X002711Y028912D01*
X002655Y029011D02*
X000858Y029011D01*
X000858Y029109D02*
X002598Y029109D01*
X002541Y029208D02*
X000858Y029208D01*
X000858Y029306D02*
X002511Y029306D01*
X002485Y029405D02*
X000858Y029405D01*
X000858Y029503D02*
X002458Y029503D01*
X002442Y029602D02*
X000858Y029602D01*
X000858Y029700D02*
X002442Y029700D01*
X002442Y029799D02*
X000858Y029799D01*
X000858Y029897D02*
X002442Y029897D01*
X002461Y029996D02*
X000858Y029996D01*
X000858Y030094D02*
X002487Y030094D01*
X002514Y030193D02*
X000858Y030193D01*
X000858Y030291D02*
X002547Y030291D01*
X002604Y030390D02*
X000858Y030390D01*
X000858Y030488D02*
X002661Y030488D01*
X002721Y030587D02*
X000858Y030587D01*
X000858Y030685D02*
X002819Y030685D01*
X002918Y030784D02*
X000858Y030784D01*
X000858Y030882D02*
X003053Y030882D01*
X003224Y030981D02*
X000858Y030981D01*
X000858Y031079D02*
X003530Y031079D01*
X003593Y031240D02*
X003674Y031214D01*
X003752Y031201D01*
X003752Y031694D01*
X003259Y031694D01*
X003271Y031617D01*
X003298Y031535D01*
X003337Y031459D01*
X003387Y031390D01*
X003447Y031329D01*
X003517Y031279D01*
X003593Y031240D01*
X003522Y031276D02*
X000858Y031276D01*
X000858Y031178D02*
X008585Y031178D01*
X008683Y031276D02*
X004081Y031276D01*
X004087Y031279D02*
X004156Y031329D01*
X004216Y031390D01*
X004267Y031459D01*
X004305Y031535D01*
X004332Y031617D01*
X004344Y031694D01*
X003852Y031694D01*
X003852Y031201D01*
X003929Y031214D01*
X004010Y031240D01*
X004087Y031279D01*
X004201Y031375D02*
X008782Y031375D01*
X008880Y031473D02*
X004274Y031473D01*
X004317Y031572D02*
X008979Y031572D01*
X009077Y031670D02*
X004340Y031670D01*
X003852Y031670D02*
X003752Y031670D01*
X003752Y031572D02*
X003852Y031572D01*
X003852Y031473D02*
X003752Y031473D01*
X003752Y031375D02*
X003852Y031375D01*
X003852Y031276D02*
X003752Y031276D01*
X003402Y031375D02*
X000858Y031375D01*
X000858Y031473D02*
X003329Y031473D01*
X003286Y031572D02*
X000858Y031572D01*
X000858Y031670D02*
X003263Y031670D01*
X003752Y031966D02*
X003852Y031966D01*
X003852Y032064D02*
X003752Y032064D01*
X003752Y032163D02*
X003852Y032163D01*
X005937Y033246D02*
X010138Y033246D01*
X011250Y029996D02*
X019070Y029996D01*
X019169Y029897D02*
X011151Y029897D01*
X011053Y029799D02*
X019267Y029799D01*
X019366Y029700D02*
X010954Y029700D01*
X010856Y029602D02*
X019464Y029602D01*
X019563Y029503D02*
X010757Y029503D01*
X010659Y029405D02*
X019661Y029405D01*
X018503Y033443D02*
X022089Y033443D01*
X022089Y033345D02*
X018147Y033345D01*
X018674Y033542D02*
X022089Y033542D01*
X022089Y033640D02*
X018845Y033640D01*
X018976Y033739D02*
X022089Y033739D01*
X022089Y033837D02*
X019075Y033837D01*
X019173Y033936D02*
X022089Y033936D01*
X022089Y034034D02*
X019272Y034034D01*
X019370Y034133D02*
X022089Y034133D01*
X022089Y034231D02*
X019469Y034231D01*
X019567Y034330D02*
X022089Y034330D01*
X022089Y034428D02*
X019666Y034428D01*
X019764Y034527D02*
X022089Y034527D01*
X022089Y034625D02*
X019863Y034625D01*
X019961Y034724D02*
X022089Y034724D01*
X022089Y034822D02*
X020060Y034822D01*
X020158Y034921D02*
X022089Y034921D01*
X022089Y035019D02*
X020257Y035019D01*
X020355Y035118D02*
X022089Y035118D01*
X022089Y035216D02*
X020454Y035216D01*
X020552Y035315D02*
X022089Y035315D01*
X022089Y035413D02*
X020651Y035413D01*
X020749Y035512D02*
X022089Y035512D01*
X022089Y035610D02*
X020848Y035610D01*
X020946Y035709D02*
X022089Y035709D01*
X022109Y035807D02*
X021045Y035807D01*
X021143Y035906D02*
X022135Y035906D01*
X022162Y036004D02*
X021242Y036004D01*
X021340Y036103D02*
X022188Y036103D01*
X022215Y036201D02*
X021439Y036201D01*
X021537Y036300D02*
X022269Y036300D01*
X022325Y036398D02*
X021636Y036398D01*
X021734Y036497D02*
X022382Y036497D01*
X022439Y036595D02*
X021833Y036595D01*
X021931Y036694D02*
X022519Y036694D01*
X022618Y036792D02*
X022030Y036792D01*
X022128Y036891D02*
X022716Y036891D01*
X022815Y036989D02*
X022227Y036989D01*
X022325Y037088D02*
X022913Y037088D01*
X023012Y037186D02*
X022424Y037186D01*
X022522Y037285D02*
X023110Y037285D01*
X023209Y037383D02*
X022621Y037383D01*
X022719Y037482D02*
X023307Y037482D01*
X023406Y037580D02*
X022818Y037580D01*
X022916Y037679D02*
X023504Y037679D01*
X023603Y037777D02*
X023015Y037777D01*
X023113Y037876D02*
X023701Y037876D01*
X023800Y037974D02*
X023212Y037974D01*
X023310Y038073D02*
X023899Y038073D01*
X024069Y038171D02*
X023409Y038171D01*
X023507Y038270D02*
X024240Y038270D01*
X024508Y038368D02*
X023606Y038368D01*
X023704Y038467D02*
X027245Y038467D01*
X027343Y038565D02*
X023803Y038565D01*
X023901Y038664D02*
X027442Y038664D01*
X027502Y038762D02*
X024000Y038762D01*
X024098Y038861D02*
X027502Y038861D01*
X027502Y038959D02*
X024197Y038959D01*
X024295Y039058D02*
X026335Y039058D01*
X026075Y039156D02*
X024394Y039156D01*
X024492Y039255D02*
X025912Y039255D01*
X025814Y039353D02*
X024591Y039353D01*
X024689Y039452D02*
X025718Y039452D01*
X025661Y039550D02*
X024788Y039550D01*
X024886Y039649D02*
X025604Y039649D01*
X025564Y039747D02*
X024985Y039747D01*
X025083Y039846D02*
X025537Y039846D01*
X025511Y039944D02*
X025182Y039944D01*
X025280Y040043D02*
X025505Y040043D01*
X025505Y040141D02*
X025379Y040141D01*
X025477Y040240D02*
X025505Y040240D01*
X026839Y039058D02*
X027502Y039058D01*
X027502Y039156D02*
X027099Y039156D01*
X027262Y039255D02*
X027502Y039255D01*
X027502Y039353D02*
X027360Y039353D01*
X027456Y039452D02*
X027502Y039452D01*
X030537Y036441D02*
X030537Y036441D01*
X030887Y036791D01*
X030983Y036958D01*
X030983Y032951D01*
X031114Y032635D01*
X031356Y032393D01*
X041863Y021886D01*
X041717Y021886D01*
X041397Y021754D01*
X041390Y021747D01*
X041383Y021754D01*
X041063Y021886D01*
X040717Y021886D01*
X040397Y021754D01*
X040153Y021509D01*
X040020Y021189D01*
X040020Y020843D01*
X040153Y020523D01*
X040397Y020279D01*
X040717Y020146D01*
X041063Y020146D01*
X041383Y020279D01*
X041390Y020286D01*
X041397Y020279D01*
X041717Y020146D01*
X042063Y020146D01*
X042383Y020279D01*
X042628Y020523D01*
X042760Y020843D01*
X042760Y020989D01*
X045304Y018445D01*
X045304Y017449D01*
X045435Y017133D01*
X046370Y016198D01*
X046612Y015956D01*
X046928Y015825D01*
X047373Y015825D01*
X047415Y015783D01*
X048169Y015783D01*
X048292Y015906D01*
X048415Y015783D01*
X049169Y015783D01*
X049702Y016316D01*
X049702Y017070D01*
X049579Y017193D01*
X049702Y017316D01*
X049702Y018070D01*
X049579Y018193D01*
X049702Y018316D01*
X049702Y019070D01*
X049579Y019193D01*
X049702Y019316D01*
X049702Y020070D01*
X049242Y020530D01*
X049242Y020643D01*
X048842Y020643D01*
X048842Y020743D01*
X049242Y020743D01*
X049242Y020856D01*
X049702Y021316D01*
X049702Y022070D01*
X049579Y022193D01*
X049702Y022316D01*
X049702Y023070D01*
X049579Y023193D01*
X049702Y023316D01*
X049702Y024070D01*
X049579Y024193D01*
X049702Y024316D01*
X049702Y025070D01*
X049579Y025193D01*
X049702Y025316D01*
X049702Y026070D01*
X049579Y026193D01*
X049702Y026316D01*
X049702Y027070D01*
X049579Y027193D01*
X049702Y027316D01*
X049702Y028070D01*
X049242Y028530D01*
X049242Y028643D01*
X048842Y028643D01*
X048842Y028743D01*
X049242Y028743D01*
X049242Y028856D01*
X049702Y029316D01*
X049702Y030070D01*
X049579Y030193D01*
X049702Y030316D01*
X049702Y031070D01*
X049579Y031193D01*
X049702Y031316D01*
X049702Y032070D01*
X049579Y032193D01*
X049702Y032316D01*
X049702Y033070D01*
X049579Y033193D01*
X049702Y033316D01*
X049702Y034070D01*
X049579Y034193D01*
X049702Y034316D01*
X049702Y035070D01*
X049242Y035530D01*
X049242Y035643D01*
X048842Y035643D01*
X048842Y035743D01*
X049242Y035743D01*
X049242Y035880D01*
X048978Y036143D01*
X048842Y036143D01*
X048842Y035743D01*
X048742Y035743D01*
X048742Y036143D01*
X048629Y036143D01*
X048169Y036603D01*
X047415Y036603D01*
X046882Y036070D01*
X046882Y035316D01*
X047005Y035193D01*
X046882Y035070D01*
X046882Y034316D01*
X047005Y034193D01*
X046882Y034070D01*
X046882Y033316D01*
X047005Y033193D01*
X046882Y033070D01*
X046882Y032316D01*
X047005Y032193D01*
X046882Y032070D01*
X046882Y031316D01*
X047005Y031193D01*
X046882Y031070D01*
X046882Y030316D01*
X047005Y030193D01*
X046882Y030070D01*
X046882Y029316D01*
X047005Y029193D01*
X046882Y029070D01*
X046882Y028316D01*
X047005Y028193D01*
X046882Y028070D01*
X046882Y027316D01*
X047005Y027193D01*
X046882Y027070D01*
X046882Y026316D01*
X047005Y026193D01*
X046882Y026070D01*
X046882Y025316D01*
X047005Y025193D01*
X046882Y025070D01*
X046882Y024316D01*
X047005Y024193D01*
X046882Y024070D01*
X046882Y023316D01*
X047005Y023193D01*
X046882Y023070D01*
X046882Y022316D01*
X047005Y022193D01*
X046882Y022070D01*
X046882Y021463D01*
X046855Y021463D01*
X035074Y033245D01*
X035074Y036356D01*
X035233Y036289D01*
X040067Y036289D01*
X040350Y036407D01*
X040862Y036919D01*
X040979Y037202D01*
X040979Y038147D01*
X041069Y038365D01*
X041069Y038967D01*
X043452Y041350D01*
X043627Y041525D01*
X043627Y040177D01*
X042677Y039227D01*
X042470Y039021D01*
X042324Y038767D01*
X042249Y038485D01*
X042249Y028531D01*
X042177Y028358D01*
X042177Y028044D01*
X042297Y027755D01*
X042519Y027533D01*
X042808Y027413D01*
X042835Y027413D01*
X042912Y027336D01*
X043202Y027216D01*
X043515Y027216D01*
X043805Y027336D01*
X043882Y027413D01*
X043909Y027413D01*
X044199Y027533D01*
X046882Y027533D01*
X046882Y027435D02*
X043961Y027435D01*
X043805Y027336D02*
X046882Y027336D01*
X046961Y027238D02*
X043567Y027238D01*
X043150Y027238D02*
X041081Y027238D01*
X041179Y027139D02*
X046951Y027139D01*
X046882Y027041D02*
X041278Y027041D01*
X041376Y026942D02*
X046882Y026942D01*
X046882Y026844D02*
X041475Y026844D01*
X041573Y026745D02*
X046882Y026745D01*
X046882Y026647D02*
X041672Y026647D01*
X041770Y026548D02*
X046882Y026548D01*
X046882Y026450D02*
X041869Y026450D01*
X041967Y026351D02*
X046882Y026351D01*
X046946Y026253D02*
X042066Y026253D01*
X042164Y026154D02*
X046966Y026154D01*
X046882Y026056D02*
X042263Y026056D01*
X042361Y025957D02*
X046882Y025957D01*
X046882Y025859D02*
X042460Y025859D01*
X042558Y025760D02*
X046882Y025760D01*
X046882Y025662D02*
X042657Y025662D01*
X042755Y025563D02*
X046882Y025563D01*
X046882Y025465D02*
X042854Y025465D01*
X042952Y025366D02*
X046882Y025366D01*
X046931Y025268D02*
X043051Y025268D01*
X043149Y025169D02*
X046981Y025169D01*
X046882Y025071D02*
X043248Y025071D01*
X043346Y024972D02*
X046882Y024972D01*
X046882Y024874D02*
X043445Y024874D01*
X043543Y024775D02*
X046882Y024775D01*
X046882Y024677D02*
X043642Y024677D01*
X043740Y024578D02*
X046882Y024578D01*
X046882Y024480D02*
X043839Y024480D01*
X043937Y024381D02*
X046882Y024381D01*
X046916Y024283D02*
X044036Y024283D01*
X044134Y024184D02*
X046996Y024184D01*
X046897Y024086D02*
X044233Y024086D01*
X044331Y023987D02*
X046882Y023987D01*
X046882Y023889D02*
X044430Y023889D01*
X044528Y023790D02*
X046882Y023790D01*
X046882Y023692D02*
X044627Y023692D01*
X044725Y023593D02*
X046882Y023593D01*
X046882Y023495D02*
X044824Y023495D01*
X044922Y023396D02*
X046882Y023396D01*
X046901Y023298D02*
X045021Y023298D01*
X045119Y023199D02*
X046999Y023199D01*
X046912Y023101D02*
X045218Y023101D01*
X045316Y023002D02*
X046882Y023002D01*
X046882Y022904D02*
X045415Y022904D01*
X045513Y022805D02*
X046882Y022805D01*
X046882Y022707D02*
X045612Y022707D01*
X045710Y022608D02*
X046882Y022608D01*
X046882Y022510D02*
X045809Y022510D01*
X045907Y022411D02*
X046882Y022411D01*
X046886Y022313D02*
X046006Y022313D01*
X046104Y022214D02*
X046984Y022214D01*
X046927Y022116D02*
X046203Y022116D01*
X046301Y022017D02*
X046882Y022017D01*
X046882Y021919D02*
X046400Y021919D01*
X046498Y021820D02*
X046882Y021820D01*
X046882Y021722D02*
X046597Y021722D01*
X046695Y021623D02*
X046882Y021623D01*
X046882Y021525D02*
X046794Y021525D01*
X048842Y020737D02*
X050820Y020737D01*
X050820Y020835D02*
X049242Y020835D01*
X049319Y020934D02*
X050820Y020934D01*
X050820Y021032D02*
X049417Y021032D01*
X049516Y021131D02*
X050820Y021131D01*
X050820Y021229D02*
X049614Y021229D01*
X049702Y021328D02*
X050820Y021328D01*
X050820Y021426D02*
X049702Y021426D01*
X049702Y021525D02*
X050820Y021525D01*
X050820Y021623D02*
X049702Y021623D01*
X049702Y021722D02*
X050820Y021722D01*
X050820Y021820D02*
X049702Y021820D01*
X049702Y021919D02*
X050820Y021919D01*
X050820Y022017D02*
X049702Y022017D01*
X049656Y022116D02*
X050820Y022116D01*
X050820Y022214D02*
X049599Y022214D01*
X049698Y022313D02*
X050820Y022313D01*
X050820Y022411D02*
X049702Y022411D01*
X049702Y022510D02*
X050820Y022510D01*
X050820Y022608D02*
X049702Y022608D01*
X049702Y022707D02*
X050820Y022707D01*
X050820Y022805D02*
X049702Y022805D01*
X049702Y022904D02*
X050820Y022904D01*
X050820Y023002D02*
X049702Y023002D01*
X049671Y023101D02*
X050820Y023101D01*
X050820Y023199D02*
X049584Y023199D01*
X049683Y023298D02*
X050820Y023298D01*
X050820Y023396D02*
X049702Y023396D01*
X049702Y023495D02*
X050820Y023495D01*
X050820Y023593D02*
X049702Y023593D01*
X049702Y023692D02*
X050820Y023692D01*
X050820Y023790D02*
X049702Y023790D01*
X049702Y023889D02*
X050820Y023889D01*
X050820Y023987D02*
X049702Y023987D01*
X049686Y024086D02*
X050820Y024086D01*
X050820Y024184D02*
X049588Y024184D01*
X049668Y024283D02*
X050820Y024283D01*
X050820Y024381D02*
X049702Y024381D01*
X049702Y024480D02*
X050820Y024480D01*
X050820Y024578D02*
X049702Y024578D01*
X049702Y024677D02*
X050820Y024677D01*
X050820Y024775D02*
X049702Y024775D01*
X049702Y024874D02*
X050820Y024874D01*
X050820Y024972D02*
X049702Y024972D01*
X049701Y025071D02*
X050820Y025071D01*
X050820Y025169D02*
X049603Y025169D01*
X049653Y025268D02*
X050820Y025268D01*
X050820Y025366D02*
X049702Y025366D01*
X049702Y025465D02*
X050820Y025465D01*
X050820Y025563D02*
X049702Y025563D01*
X049702Y025662D02*
X050820Y025662D01*
X050820Y025760D02*
X049702Y025760D01*
X049702Y025859D02*
X050820Y025859D01*
X050820Y025957D02*
X049702Y025957D01*
X049702Y026056D02*
X050820Y026056D01*
X050820Y026154D02*
X049618Y026154D01*
X049638Y026253D02*
X050820Y026253D01*
X050820Y026351D02*
X049702Y026351D01*
X049702Y026450D02*
X050820Y026450D01*
X050820Y026548D02*
X049702Y026548D01*
X049702Y026647D02*
X050820Y026647D01*
X050820Y026745D02*
X049702Y026745D01*
X049702Y026844D02*
X050820Y026844D01*
X050820Y026942D02*
X049702Y026942D01*
X049702Y027041D02*
X050820Y027041D01*
X050820Y027139D02*
X049633Y027139D01*
X049623Y027238D02*
X050820Y027238D01*
X050820Y027336D02*
X049702Y027336D01*
X049702Y027435D02*
X050820Y027435D01*
X050820Y027533D02*
X049702Y027533D01*
X049702Y027632D02*
X050820Y027632D01*
X050820Y027730D02*
X049702Y027730D01*
X049702Y027829D02*
X050820Y027829D01*
X050820Y027927D02*
X049702Y027927D01*
X049702Y028026D02*
X050820Y028026D01*
X050820Y028124D02*
X049648Y028124D01*
X049549Y028223D02*
X050820Y028223D01*
X050820Y028321D02*
X049451Y028321D01*
X049352Y028420D02*
X050820Y028420D01*
X050820Y028518D02*
X049254Y028518D01*
X049242Y028617D02*
X050820Y028617D01*
X050820Y028715D02*
X048842Y028715D01*
X049242Y028814D02*
X050820Y028814D01*
X050820Y028912D02*
X049297Y028912D01*
X049396Y029011D02*
X050820Y029011D01*
X050820Y029109D02*
X049494Y029109D01*
X049593Y029208D02*
X050820Y029208D01*
X050820Y029306D02*
X049691Y029306D01*
X049702Y029405D02*
X050820Y029405D01*
X050820Y029503D02*
X049702Y029503D01*
X049702Y029602D02*
X050820Y029602D01*
X050820Y029700D02*
X049702Y029700D01*
X049702Y029799D02*
X050820Y029799D01*
X050820Y029897D02*
X049702Y029897D01*
X049702Y029996D02*
X050820Y029996D01*
X050820Y030094D02*
X049678Y030094D01*
X049579Y030193D02*
X050820Y030193D01*
X050820Y030291D02*
X049676Y030291D01*
X049702Y030390D02*
X050820Y030390D01*
X050820Y030488D02*
X049702Y030488D01*
X049702Y030587D02*
X050820Y030587D01*
X050820Y030685D02*
X049702Y030685D01*
X049702Y030784D02*
X050820Y030784D01*
X050820Y030882D02*
X049702Y030882D01*
X049702Y030981D02*
X050820Y030981D01*
X050820Y031079D02*
X049693Y031079D01*
X049594Y031178D02*
X050820Y031178D01*
X050820Y031276D02*
X049661Y031276D01*
X049702Y031375D02*
X050820Y031375D01*
X050820Y031473D02*
X049702Y031473D01*
X049702Y031572D02*
X050820Y031572D01*
X050820Y031670D02*
X049702Y031670D01*
X049702Y031769D02*
X050820Y031769D01*
X050820Y031867D02*
X049702Y031867D01*
X049702Y031966D02*
X050820Y031966D01*
X050820Y032064D02*
X049702Y032064D01*
X049609Y032163D02*
X050820Y032163D01*
X050820Y032261D02*
X049646Y032261D01*
X049702Y032360D02*
X050820Y032360D01*
X050820Y032458D02*
X049702Y032458D01*
X049702Y032557D02*
X050820Y032557D01*
X050820Y032655D02*
X049702Y032655D01*
X049702Y032754D02*
X050820Y032754D01*
X050820Y032852D02*
X049702Y032852D01*
X049702Y032951D02*
X050820Y032951D01*
X050820Y033049D02*
X049702Y033049D01*
X049624Y033148D02*
X050820Y033148D01*
X050820Y033246D02*
X049631Y033246D01*
X049702Y033345D02*
X050820Y033345D01*
X050820Y033443D02*
X049702Y033443D01*
X049702Y033542D02*
X050820Y033542D01*
X050820Y033640D02*
X049702Y033640D01*
X049702Y033739D02*
X050820Y033739D01*
X050820Y033837D02*
X049702Y033837D01*
X049702Y033936D02*
X050820Y033936D01*
X050820Y034034D02*
X049702Y034034D01*
X049639Y034133D02*
X050820Y034133D01*
X050820Y034231D02*
X049616Y034231D01*
X049702Y034330D02*
X050820Y034330D01*
X050820Y034428D02*
X049702Y034428D01*
X049702Y034527D02*
X050820Y034527D01*
X050820Y034625D02*
X049702Y034625D01*
X049702Y034724D02*
X050820Y034724D01*
X050820Y034822D02*
X049702Y034822D01*
X049702Y034921D02*
X050820Y034921D01*
X050820Y035019D02*
X049702Y035019D01*
X049654Y035118D02*
X050820Y035118D01*
X050820Y035216D02*
X049556Y035216D01*
X049457Y035315D02*
X050820Y035315D01*
X050820Y035413D02*
X049359Y035413D01*
X049260Y035512D02*
X050820Y035512D01*
X050820Y035610D02*
X049242Y035610D01*
X049242Y035807D02*
X050820Y035807D01*
X050820Y035709D02*
X048842Y035709D01*
X048842Y035807D02*
X048742Y035807D01*
X048742Y035906D02*
X048842Y035906D01*
X048842Y036004D02*
X048742Y036004D01*
X048742Y036103D02*
X048842Y036103D01*
X049019Y036103D02*
X050820Y036103D01*
X050820Y036201D02*
X048571Y036201D01*
X048472Y036300D02*
X050820Y036300D01*
X050820Y036398D02*
X048374Y036398D01*
X048275Y036497D02*
X050820Y036497D01*
X050820Y036595D02*
X048177Y036595D01*
X047407Y036595D02*
X044469Y036595D01*
X044469Y036497D02*
X047308Y036497D01*
X047210Y036398D02*
X044469Y036398D01*
X044469Y036300D02*
X047111Y036300D01*
X047013Y036201D02*
X044469Y036201D01*
X044469Y036103D02*
X046914Y036103D01*
X046882Y036004D02*
X044469Y036004D01*
X044469Y035906D02*
X046882Y035906D01*
X046882Y035807D02*
X044469Y035807D01*
X044469Y035709D02*
X046882Y035709D01*
X046882Y035610D02*
X044469Y035610D01*
X044469Y035512D02*
X046882Y035512D01*
X046882Y035413D02*
X044469Y035413D01*
X044469Y035315D02*
X046884Y035315D01*
X046982Y035216D02*
X044469Y035216D01*
X044469Y035118D02*
X046929Y035118D01*
X046882Y035019D02*
X044469Y035019D01*
X044469Y034921D02*
X046882Y034921D01*
X046882Y034822D02*
X044469Y034822D01*
X044469Y034724D02*
X046882Y034724D01*
X046882Y034625D02*
X044469Y034625D01*
X044469Y034527D02*
X046882Y034527D01*
X046882Y034428D02*
X044469Y034428D01*
X044469Y034330D02*
X046882Y034330D01*
X046967Y034231D02*
X044469Y034231D01*
X044469Y034133D02*
X046944Y034133D01*
X046882Y034034D02*
X044469Y034034D01*
X044469Y033936D02*
X046882Y033936D01*
X046882Y033837D02*
X044469Y033837D01*
X044469Y033739D02*
X046882Y033739D01*
X046882Y033640D02*
X044469Y033640D01*
X044469Y033542D02*
X046882Y033542D01*
X046882Y033443D02*
X044469Y033443D01*
X044469Y033345D02*
X046882Y033345D01*
X046952Y033246D02*
X044469Y033246D01*
X044469Y033148D02*
X046959Y033148D01*
X046882Y033049D02*
X044469Y033049D01*
X044469Y032951D02*
X046882Y032951D01*
X046882Y032852D02*
X044469Y032852D01*
X044469Y032754D02*
X046882Y032754D01*
X046882Y032655D02*
X044469Y032655D01*
X044469Y032557D02*
X046882Y032557D01*
X046882Y032458D02*
X044469Y032458D01*
X044469Y032360D02*
X046882Y032360D01*
X046937Y032261D02*
X044469Y032261D01*
X044469Y032163D02*
X046974Y032163D01*
X046882Y032064D02*
X044469Y032064D01*
X044469Y031966D02*
X046882Y031966D01*
X046882Y031867D02*
X044469Y031867D01*
X044469Y031769D02*
X046882Y031769D01*
X046882Y031670D02*
X044469Y031670D01*
X044469Y031572D02*
X046882Y031572D01*
X046882Y031473D02*
X044469Y031473D01*
X044469Y031375D02*
X046882Y031375D01*
X046922Y031276D02*
X044469Y031276D01*
X044469Y031178D02*
X046989Y031178D01*
X046891Y031079D02*
X044469Y031079D01*
X044469Y030981D02*
X046882Y030981D01*
X046882Y030882D02*
X044469Y030882D01*
X044469Y030784D02*
X046882Y030784D01*
X046882Y030685D02*
X044469Y030685D01*
X044469Y030587D02*
X046882Y030587D01*
X046882Y030488D02*
X044469Y030488D01*
X044469Y030390D02*
X046882Y030390D01*
X046907Y030291D02*
X044469Y030291D01*
X044469Y030193D02*
X047004Y030193D01*
X046906Y030094D02*
X044469Y030094D01*
X044469Y029996D02*
X046882Y029996D01*
X046882Y029897D02*
X044469Y029897D01*
X044469Y029799D02*
X046882Y029799D01*
X046882Y029700D02*
X044469Y029700D01*
X044469Y029602D02*
X046882Y029602D01*
X046882Y029503D02*
X044469Y029503D01*
X044469Y029405D02*
X046882Y029405D01*
X046892Y029306D02*
X044469Y029306D01*
X044469Y029208D02*
X046991Y029208D01*
X046921Y029109D02*
X044469Y029109D01*
X044469Y029011D02*
X046882Y029011D01*
X046882Y028912D02*
X044469Y028912D01*
X044469Y028814D02*
X046882Y028814D01*
X046882Y028715D02*
X044469Y028715D01*
X044469Y028617D02*
X046882Y028617D01*
X046882Y028518D02*
X044474Y028518D01*
X044469Y028531D02*
X044469Y037879D01*
X045625Y039035D01*
X045771Y039288D01*
X045847Y039571D01*
X045847Y049001D01*
X046215Y049370D01*
X046362Y049623D01*
X046375Y049675D01*
X050106Y049675D01*
X050389Y049793D01*
X050820Y050223D01*
X050820Y001331D01*
X050815Y001257D01*
X050776Y001113D01*
X050702Y000983D01*
X050596Y000878D01*
X050467Y000803D01*
X050323Y000765D01*
X050248Y000760D01*
X046326Y000760D01*
X047784Y002219D01*
X047931Y002472D01*
X048006Y002754D01*
X048006Y006310D01*
X048018Y006280D01*
X048300Y005999D01*
X048667Y005847D01*
X049065Y005847D01*
X049433Y005999D01*
X049714Y006280D01*
X049866Y006648D01*
X049866Y007826D01*
X049714Y008193D01*
X049433Y008474D01*
X049065Y008627D01*
X048667Y008627D01*
X048300Y008474D01*
X048018Y008193D01*
X047881Y007862D01*
X047756Y008164D01*
X047756Y009744D01*
X047625Y010060D01*
X047331Y010355D01*
X047683Y010707D01*
X048536Y010707D01*
X048649Y010660D01*
X049486Y010660D01*
X049710Y010753D01*
X049881Y010925D01*
X049974Y011149D01*
X049974Y011986D01*
X049891Y012186D01*
X049974Y012387D01*
X049974Y012748D01*
X049836Y013081D01*
X049581Y013336D01*
X049248Y013474D01*
X048887Y013474D01*
X048774Y013427D01*
X048258Y013427D01*
X047800Y013885D01*
X046991Y014694D01*
X046911Y014887D01*
X046647Y015152D01*
X046302Y015295D01*
X045928Y015295D01*
X045582Y015152D01*
X045318Y014887D01*
X045175Y014542D01*
X045175Y014168D01*
X045237Y014016D01*
X045232Y014016D01*
X045111Y014066D01*
X044149Y014066D01*
X043815Y013928D01*
X043559Y013672D01*
X043420Y013337D01*
X043420Y012975D01*
X043559Y012641D01*
X043815Y012385D01*
X043890Y012354D01*
X043883Y012306D01*
X044004Y012306D01*
X044125Y012256D01*
X044004Y012206D01*
X043883Y012206D01*
X043890Y012159D01*
X043815Y012128D01*
X043559Y011872D01*
X043420Y011537D01*
X043420Y011175D01*
X043559Y010841D01*
X043815Y010585D01*
X044149Y010446D01*
X045111Y010446D01*
X045175Y010472D01*
X045175Y010168D01*
X045318Y009822D01*
X045582Y009558D01*
X045775Y009478D01*
X046036Y009217D01*
X046036Y008164D01*
X045913Y007865D01*
X045777Y008193D01*
X045496Y008474D01*
X045128Y008627D01*
X044730Y008627D01*
X044363Y008474D01*
X044081Y008193D01*
X043944Y007862D01*
X043807Y008193D01*
X043526Y008474D01*
X043158Y008627D01*
X042760Y008627D01*
X042393Y008474D01*
X042111Y008193D01*
X041959Y007826D01*
X041959Y007725D01*
X041925Y007665D01*
X041849Y007383D01*
X041849Y004935D01*
X041718Y004803D01*
X039699Y004803D01*
X040116Y005220D01*
X040295Y005531D01*
X040388Y005876D01*
X040388Y007410D01*
X040295Y007756D01*
X040116Y008066D01*
X039857Y008325D01*
X039547Y008504D01*
X039463Y008527D01*
X039221Y008627D01*
X038823Y008627D01*
X038582Y008527D01*
X038497Y008504D01*
X038187Y008325D01*
X037934Y008072D01*
X037755Y007762D01*
X037662Y007416D01*
X037662Y007058D01*
X037668Y007036D01*
X037668Y006628D01*
X036306Y006628D01*
X036354Y006712D01*
X036447Y007058D01*
X036447Y009830D01*
X036488Y009929D01*
X036587Y010428D01*
X036587Y010935D01*
X036488Y011434D01*
X036293Y011903D01*
X036011Y012325D01*
X035652Y012684D01*
X035230Y012967D01*
X034760Y013161D01*
X034262Y013260D01*
X025849Y013260D01*
X025849Y030657D01*
X025922Y030583D01*
X026169Y030441D01*
X026445Y030367D01*
X026730Y030367D01*
X027005Y030441D01*
X027252Y030583D01*
X027453Y030785D01*
X027596Y031031D01*
X027669Y031307D01*
X027669Y031592D01*
X027596Y031867D01*
X027453Y032114D01*
X027252Y032315D01*
X027005Y032458D01*
X026921Y032480D01*
X027079Y032480D01*
X027117Y032491D01*
X027152Y032510D01*
X027179Y032538D01*
X027199Y032572D01*
X027209Y032611D01*
X027209Y033053D01*
X026637Y033053D01*
X026637Y033153D01*
X026537Y033153D01*
X026537Y033725D01*
X026095Y033725D01*
X026057Y033715D01*
X026022Y033695D01*
X025995Y033667D01*
X025975Y033633D01*
X025965Y033595D01*
X025965Y033153D01*
X026537Y033153D01*
X026537Y033053D01*
X025965Y033053D01*
X025965Y032611D01*
X025975Y032572D01*
X025995Y032538D01*
X026022Y032510D01*
X026057Y032491D01*
X026095Y032480D01*
X026253Y032480D01*
X026169Y032458D01*
X025922Y032315D01*
X025849Y032242D01*
X025849Y034687D01*
X028252Y034687D01*
X028730Y034815D01*
X029159Y035063D01*
X029509Y035413D01*
X030983Y035413D01*
X030983Y035315D02*
X029410Y035315D01*
X029509Y035413D02*
X029509Y035413D01*
X030537Y036441D01*
X030494Y036398D02*
X030983Y036398D01*
X030983Y036300D02*
X030395Y036300D01*
X030297Y036201D02*
X030983Y036201D01*
X030983Y036103D02*
X030198Y036103D01*
X030100Y036004D02*
X030983Y036004D01*
X030983Y035906D02*
X030001Y035906D01*
X029903Y035807D02*
X030983Y035807D01*
X030983Y035709D02*
X029804Y035709D01*
X029706Y035610D02*
X030983Y035610D01*
X030983Y035512D02*
X029607Y035512D01*
X029312Y035216D02*
X030983Y035216D01*
X030983Y035118D02*
X029213Y035118D01*
X029083Y035019D02*
X030983Y035019D01*
X030983Y034921D02*
X028912Y034921D01*
X028741Y034822D02*
X030983Y034822D01*
X030983Y034724D02*
X028387Y034724D01*
X027179Y033667D02*
X027152Y033695D01*
X027117Y033715D01*
X027079Y033725D01*
X026637Y033725D01*
X026637Y033153D01*
X027209Y033153D01*
X027209Y033595D01*
X027199Y033633D01*
X027179Y033667D01*
X027195Y033640D02*
X030983Y033640D01*
X030983Y033542D02*
X027209Y033542D01*
X027209Y033443D02*
X030983Y033443D01*
X030983Y033345D02*
X027209Y033345D01*
X027209Y033246D02*
X030983Y033246D01*
X030983Y033148D02*
X026637Y033148D01*
X026637Y033246D02*
X026537Y033246D01*
X026537Y033148D02*
X025849Y033148D01*
X025849Y033246D02*
X025965Y033246D01*
X025965Y033345D02*
X025849Y033345D01*
X025849Y033443D02*
X025965Y033443D01*
X025965Y033542D02*
X025849Y033542D01*
X025849Y033640D02*
X025979Y033640D01*
X025849Y033739D02*
X030983Y033739D01*
X030983Y033837D02*
X025849Y033837D01*
X025849Y033936D02*
X030983Y033936D01*
X030983Y034034D02*
X025849Y034034D01*
X025849Y034133D02*
X030983Y034133D01*
X030983Y034231D02*
X025849Y034231D01*
X025849Y034330D02*
X030983Y034330D01*
X030983Y034428D02*
X025849Y034428D01*
X025849Y034527D02*
X030983Y034527D01*
X030983Y034625D02*
X025849Y034625D01*
X026537Y033640D02*
X026637Y033640D01*
X026637Y033542D02*
X026537Y033542D01*
X026537Y033443D02*
X026637Y033443D01*
X026637Y033345D02*
X026537Y033345D01*
X025965Y033049D02*
X025849Y033049D01*
X025849Y032951D02*
X025965Y032951D01*
X025965Y032852D02*
X025849Y032852D01*
X025849Y032754D02*
X025965Y032754D01*
X025965Y032655D02*
X025849Y032655D01*
X025849Y032557D02*
X025984Y032557D01*
X025849Y032458D02*
X026170Y032458D01*
X025999Y032360D02*
X025849Y032360D01*
X025849Y032261D02*
X025868Y032261D01*
X027004Y032458D02*
X029034Y032458D01*
X029035Y032460D02*
X028765Y032190D01*
X028619Y031837D01*
X028619Y023694D01*
X028594Y023634D01*
X028594Y023428D01*
X028522Y023254D01*
X028522Y022912D01*
X028653Y022596D01*
X028895Y022354D01*
X029211Y022223D01*
X029384Y022223D01*
X029388Y022221D01*
X029770Y022221D01*
X030123Y022368D01*
X030133Y022378D01*
X030222Y022415D01*
X030444Y022637D01*
X030564Y022926D01*
X030564Y023240D01*
X030547Y023280D01*
X030564Y023320D01*
X030564Y023634D01*
X030539Y023694D01*
X030539Y030704D01*
X030641Y030806D01*
X030761Y031096D01*
X030761Y031409D01*
X030744Y031449D01*
X030761Y031489D01*
X030761Y031803D01*
X030641Y032092D01*
X030419Y032314D01*
X030162Y032421D01*
X030123Y032460D01*
X029770Y032606D01*
X029388Y032606D01*
X029035Y032460D01*
X028935Y032360D02*
X027175Y032360D01*
X027306Y032261D02*
X028837Y032261D01*
X028754Y032163D02*
X027404Y032163D01*
X027482Y032064D02*
X028713Y032064D01*
X028672Y031966D02*
X027539Y031966D01*
X027596Y031867D02*
X028632Y031867D01*
X028619Y031769D02*
X027622Y031769D01*
X027648Y031670D02*
X028619Y031670D01*
X028619Y031572D02*
X027669Y031572D01*
X027669Y031473D02*
X028619Y031473D01*
X028619Y031375D02*
X027669Y031375D01*
X027661Y031276D02*
X028619Y031276D01*
X028619Y031178D02*
X027635Y031178D01*
X027608Y031079D02*
X028619Y031079D01*
X028619Y030981D02*
X027566Y030981D01*
X027509Y030882D02*
X028619Y030882D01*
X028619Y030784D02*
X027452Y030784D01*
X027354Y030685D02*
X028619Y030685D01*
X028619Y030587D02*
X027255Y030587D01*
X027087Y030488D02*
X028619Y030488D01*
X028619Y030390D02*
X026815Y030390D01*
X026359Y030390D02*
X025849Y030390D01*
X025849Y030488D02*
X026087Y030488D01*
X025919Y030587D02*
X025849Y030587D01*
X025849Y030291D02*
X028619Y030291D01*
X028619Y030193D02*
X025849Y030193D01*
X025849Y030094D02*
X028619Y030094D01*
X028619Y029996D02*
X025849Y029996D01*
X025849Y029897D02*
X028619Y029897D01*
X028619Y029799D02*
X025849Y029799D01*
X025849Y029700D02*
X028619Y029700D01*
X028619Y029602D02*
X025849Y029602D01*
X025849Y029503D02*
X028619Y029503D01*
X028619Y029405D02*
X025849Y029405D01*
X025849Y029306D02*
X028619Y029306D01*
X028619Y029208D02*
X025849Y029208D01*
X025849Y029109D02*
X028619Y029109D01*
X028619Y029011D02*
X025849Y029011D01*
X025849Y028912D02*
X028619Y028912D01*
X028619Y028814D02*
X025849Y028814D01*
X025849Y028715D02*
X028619Y028715D01*
X028619Y028617D02*
X025849Y028617D01*
X025849Y028518D02*
X028619Y028518D01*
X028619Y028420D02*
X025849Y028420D01*
X025849Y028321D02*
X028619Y028321D01*
X028619Y028223D02*
X025849Y028223D01*
X025849Y028124D02*
X028619Y028124D01*
X028619Y028026D02*
X025849Y028026D01*
X025849Y027927D02*
X028619Y027927D01*
X028619Y027829D02*
X025849Y027829D01*
X025849Y027730D02*
X028619Y027730D01*
X028619Y027632D02*
X025849Y027632D01*
X025849Y027533D02*
X028619Y027533D01*
X028619Y027435D02*
X025849Y027435D01*
X025849Y027336D02*
X028619Y027336D01*
X028619Y027238D02*
X025849Y027238D01*
X025849Y027139D02*
X028619Y027139D01*
X028619Y027041D02*
X025849Y027041D01*
X025849Y026942D02*
X028619Y026942D01*
X028619Y026844D02*
X025849Y026844D01*
X025849Y026745D02*
X028619Y026745D01*
X028619Y026647D02*
X025849Y026647D01*
X025849Y026548D02*
X028619Y026548D01*
X028619Y026450D02*
X025849Y026450D01*
X025849Y026351D02*
X028619Y026351D01*
X028619Y026253D02*
X025849Y026253D01*
X025849Y026154D02*
X028619Y026154D01*
X028619Y026056D02*
X025849Y026056D01*
X025849Y025957D02*
X028619Y025957D01*
X028619Y025859D02*
X025849Y025859D01*
X025849Y025760D02*
X028619Y025760D01*
X028619Y025662D02*
X025849Y025662D01*
X025849Y025563D02*
X028619Y025563D01*
X028619Y025465D02*
X025849Y025465D01*
X025849Y025366D02*
X028619Y025366D01*
X028619Y025268D02*
X025849Y025268D01*
X025849Y025169D02*
X028619Y025169D01*
X028619Y025071D02*
X025849Y025071D01*
X025849Y024972D02*
X025975Y024972D01*
X025965Y024934D01*
X025965Y024491D01*
X026537Y024491D01*
X026537Y024391D01*
X026637Y024391D01*
X026637Y023819D01*
X027079Y023819D01*
X027117Y023829D01*
X027152Y023849D01*
X027179Y023877D01*
X027199Y023911D01*
X027209Y023949D01*
X027209Y024391D01*
X026637Y024391D01*
X026637Y024491D01*
X027209Y024491D01*
X027209Y024934D01*
X027199Y024972D01*
X028619Y024972D01*
X028619Y024874D02*
X027209Y024874D01*
X027199Y024972D02*
X027179Y025006D01*
X027152Y025034D01*
X027117Y025054D01*
X027079Y025064D01*
X026637Y025064D01*
X026637Y024491D01*
X026537Y024491D01*
X026537Y025064D01*
X026095Y025064D01*
X026057Y025054D01*
X026022Y025034D01*
X025995Y025006D01*
X025975Y024972D01*
X025965Y024874D02*
X025849Y024874D01*
X025849Y024775D02*
X025965Y024775D01*
X025965Y024677D02*
X025849Y024677D01*
X025849Y024578D02*
X025965Y024578D01*
X025849Y024480D02*
X026537Y024480D01*
X026537Y024391D02*
X025965Y024391D01*
X025965Y023949D01*
X025975Y023911D01*
X025995Y023877D01*
X026022Y023849D01*
X026057Y023829D01*
X026095Y023819D01*
X026537Y023819D01*
X026537Y024391D01*
X026537Y024381D02*
X026637Y024381D01*
X026637Y024283D02*
X026537Y024283D01*
X026537Y024184D02*
X026637Y024184D01*
X026637Y024086D02*
X026537Y024086D01*
X026537Y023987D02*
X026637Y023987D01*
X026637Y023889D02*
X026537Y023889D01*
X025988Y023889D02*
X025849Y023889D01*
X025849Y023987D02*
X025965Y023987D01*
X025965Y024086D02*
X025849Y024086D01*
X025849Y024184D02*
X025965Y024184D01*
X025965Y024283D02*
X025849Y024283D01*
X025849Y024381D02*
X025965Y024381D01*
X025849Y023790D02*
X028619Y023790D01*
X028618Y023692D02*
X025849Y023692D01*
X025849Y023593D02*
X028594Y023593D01*
X028594Y023495D02*
X025849Y023495D01*
X025849Y023396D02*
X028581Y023396D01*
X028540Y023298D02*
X025849Y023298D01*
X025849Y023199D02*
X028522Y023199D01*
X028522Y023101D02*
X025849Y023101D01*
X025849Y023002D02*
X028522Y023002D01*
X028526Y022904D02*
X025849Y022904D01*
X025849Y022805D02*
X028567Y022805D01*
X028607Y022707D02*
X025849Y022707D01*
X025849Y022608D02*
X028648Y022608D01*
X028740Y022510D02*
X025849Y022510D01*
X025849Y022411D02*
X028838Y022411D01*
X028995Y022313D02*
X025849Y022313D01*
X025849Y022214D02*
X035039Y022214D01*
X035138Y022116D02*
X025849Y022116D01*
X025849Y022017D02*
X035236Y022017D01*
X035335Y021919D02*
X025849Y021919D01*
X025849Y021820D02*
X035433Y021820D01*
X035532Y021722D02*
X025849Y021722D01*
X025849Y021623D02*
X035630Y021623D01*
X035729Y021525D02*
X025849Y021525D01*
X025849Y021426D02*
X035827Y021426D01*
X035926Y021328D02*
X025849Y021328D01*
X025849Y021229D02*
X036024Y021229D01*
X036123Y021131D02*
X025849Y021131D01*
X025849Y021032D02*
X036221Y021032D01*
X036320Y020934D02*
X025849Y020934D01*
X025849Y020835D02*
X036418Y020835D01*
X036517Y020737D02*
X025849Y020737D01*
X025849Y020638D02*
X036615Y020638D01*
X036714Y020540D02*
X025849Y020540D01*
X025849Y020441D02*
X036812Y020441D01*
X036911Y020343D02*
X025849Y020343D01*
X025849Y020244D02*
X037009Y020244D01*
X037108Y020146D02*
X025849Y020146D01*
X025849Y020047D02*
X037206Y020047D01*
X037305Y019949D02*
X025849Y019949D01*
X025849Y019850D02*
X037403Y019850D01*
X037502Y019752D02*
X025849Y019752D01*
X025849Y019653D02*
X037600Y019653D01*
X037699Y019555D02*
X025849Y019555D01*
X025849Y019456D02*
X037797Y019456D01*
X037896Y019358D02*
X025849Y019358D01*
X025849Y019259D02*
X037994Y019259D01*
X038093Y019161D02*
X025849Y019161D01*
X025849Y019062D02*
X038191Y019062D01*
X038290Y018964D02*
X025849Y018964D01*
X025849Y018865D02*
X038388Y018865D01*
X038487Y018767D02*
X025849Y018767D01*
X025849Y018668D02*
X038648Y018668D01*
X038541Y018712D02*
X038857Y018581D01*
X039199Y018581D01*
X039515Y018712D01*
X039757Y018954D01*
X039888Y019270D01*
X039888Y019612D01*
X039757Y019928D01*
X035754Y023931D01*
X035754Y025062D01*
X035888Y025385D01*
X035888Y025781D01*
X035737Y026146D01*
X035457Y026426D01*
X035092Y026577D01*
X034696Y026577D01*
X034331Y026426D01*
X034052Y026146D01*
X033900Y025781D01*
X033900Y025385D01*
X034034Y025062D01*
X034034Y023404D01*
X034165Y023088D01*
X038541Y018712D01*
X039408Y018668D02*
X045081Y018668D01*
X044983Y018767D02*
X039569Y018767D01*
X039668Y018865D02*
X044884Y018865D01*
X044786Y018964D02*
X039761Y018964D01*
X039802Y019062D02*
X044687Y019062D01*
X044589Y019161D02*
X039843Y019161D01*
X039883Y019259D02*
X044490Y019259D01*
X044392Y019358D02*
X039888Y019358D01*
X039888Y019456D02*
X044293Y019456D01*
X044195Y019555D02*
X039888Y019555D01*
X039871Y019653D02*
X044096Y019653D01*
X043998Y019752D02*
X039830Y019752D01*
X039790Y019850D02*
X043899Y019850D01*
X043801Y019949D02*
X039737Y019949D01*
X039638Y020047D02*
X043702Y020047D01*
X043604Y020146D02*
X039540Y020146D01*
X039441Y020244D02*
X040481Y020244D01*
X040333Y020343D02*
X039343Y020343D01*
X039244Y020441D02*
X040235Y020441D01*
X040146Y020540D02*
X039146Y020540D01*
X039047Y020638D02*
X040105Y020638D01*
X040064Y020737D02*
X038949Y020737D01*
X038850Y020835D02*
X040023Y020835D01*
X040020Y020934D02*
X038752Y020934D01*
X038653Y021032D02*
X040020Y021032D01*
X040020Y021131D02*
X038555Y021131D01*
X038456Y021229D02*
X040037Y021229D01*
X040077Y021328D02*
X038358Y021328D01*
X038259Y021426D02*
X040118Y021426D01*
X040168Y021525D02*
X038161Y021525D01*
X038062Y021623D02*
X040267Y021623D01*
X040365Y021722D02*
X037964Y021722D01*
X037865Y021820D02*
X040558Y021820D01*
X041223Y021820D02*
X041558Y021820D01*
X041732Y022017D02*
X037668Y022017D01*
X037570Y022116D02*
X041634Y022116D01*
X041535Y022214D02*
X037471Y022214D01*
X037373Y022313D02*
X041437Y022313D01*
X041338Y022411D02*
X037274Y022411D01*
X037176Y022510D02*
X041240Y022510D01*
X041141Y022608D02*
X037077Y022608D01*
X036979Y022707D02*
X041043Y022707D01*
X040944Y022805D02*
X036880Y022805D01*
X036782Y022904D02*
X040846Y022904D01*
X040747Y023002D02*
X036683Y023002D01*
X036585Y023101D02*
X040649Y023101D01*
X040550Y023199D02*
X036486Y023199D01*
X036388Y023298D02*
X040452Y023298D01*
X040353Y023396D02*
X036289Y023396D01*
X036191Y023495D02*
X040255Y023495D01*
X040156Y023593D02*
X036092Y023593D01*
X035994Y023692D02*
X040058Y023692D01*
X039959Y023790D02*
X035895Y023790D01*
X035797Y023889D02*
X039861Y023889D01*
X039762Y023987D02*
X035754Y023987D01*
X035754Y024086D02*
X039664Y024086D01*
X039565Y024184D02*
X035754Y024184D01*
X035754Y024283D02*
X039467Y024283D01*
X039368Y024381D02*
X035754Y024381D01*
X035754Y024480D02*
X039270Y024480D01*
X039171Y024578D02*
X035754Y024578D01*
X035754Y024677D02*
X039073Y024677D01*
X038974Y024775D02*
X035754Y024775D01*
X035754Y024874D02*
X038876Y024874D01*
X038777Y024972D02*
X035754Y024972D01*
X035758Y025071D02*
X038679Y025071D01*
X038580Y025169D02*
X035798Y025169D01*
X035839Y025268D02*
X038482Y025268D01*
X038383Y025366D02*
X035880Y025366D01*
X035888Y025465D02*
X038285Y025465D01*
X038186Y025563D02*
X035888Y025563D01*
X035888Y025662D02*
X038088Y025662D01*
X037989Y025760D02*
X035888Y025760D01*
X035856Y025859D02*
X037891Y025859D01*
X037792Y025957D02*
X035815Y025957D01*
X035774Y026056D02*
X037694Y026056D01*
X037595Y026154D02*
X035729Y026154D01*
X035630Y026253D02*
X037497Y026253D01*
X037398Y026351D02*
X035532Y026351D01*
X035399Y026450D02*
X037300Y026450D01*
X037201Y026548D02*
X035161Y026548D01*
X034627Y026548D02*
X030539Y026548D01*
X030539Y026450D02*
X034389Y026450D01*
X034257Y026351D02*
X030539Y026351D01*
X030539Y026253D02*
X034158Y026253D01*
X034060Y026154D02*
X030539Y026154D01*
X030539Y026056D02*
X034014Y026056D01*
X033973Y025957D02*
X030539Y025957D01*
X030539Y025859D02*
X033932Y025859D01*
X033900Y025760D02*
X030539Y025760D01*
X030539Y025662D02*
X033900Y025662D01*
X033900Y025563D02*
X030539Y025563D01*
X030539Y025465D02*
X033900Y025465D01*
X033908Y025366D02*
X030539Y025366D01*
X030539Y025268D02*
X033949Y025268D01*
X033990Y025169D02*
X030539Y025169D01*
X030539Y025071D02*
X034031Y025071D01*
X034034Y024972D02*
X030539Y024972D01*
X030539Y024874D02*
X034034Y024874D01*
X034034Y024775D02*
X030539Y024775D01*
X030539Y024677D02*
X034034Y024677D01*
X034034Y024578D02*
X030539Y024578D01*
X030539Y024480D02*
X034034Y024480D01*
X034034Y024381D02*
X030539Y024381D01*
X030539Y024283D02*
X034034Y024283D01*
X034034Y024184D02*
X030539Y024184D01*
X030539Y024086D02*
X034034Y024086D01*
X034034Y023987D02*
X030539Y023987D01*
X030539Y023889D02*
X034034Y023889D01*
X034034Y023790D02*
X030539Y023790D01*
X030540Y023692D02*
X034034Y023692D01*
X034034Y023593D02*
X030564Y023593D01*
X030564Y023495D02*
X034034Y023495D01*
X034037Y023396D02*
X030564Y023396D01*
X030555Y023298D02*
X034078Y023298D01*
X034119Y023199D02*
X030564Y023199D01*
X030564Y023101D02*
X034160Y023101D01*
X034251Y023002D02*
X030564Y023002D01*
X030555Y022904D02*
X034350Y022904D01*
X034448Y022805D02*
X030514Y022805D01*
X030473Y022707D02*
X034547Y022707D01*
X034645Y022608D02*
X030416Y022608D01*
X030317Y022510D02*
X034744Y022510D01*
X034842Y022411D02*
X030213Y022411D01*
X029990Y022313D02*
X034941Y022313D01*
X037767Y021919D02*
X041831Y021919D01*
X042760Y020934D02*
X042816Y020934D01*
X042757Y020835D02*
X042914Y020835D01*
X043013Y020737D02*
X042716Y020737D01*
X042675Y020638D02*
X043111Y020638D01*
X043210Y020540D02*
X042634Y020540D01*
X042545Y020441D02*
X043308Y020441D01*
X043407Y020343D02*
X042447Y020343D01*
X042300Y020244D02*
X043505Y020244D01*
X045180Y018570D02*
X025849Y018570D01*
X025849Y018471D02*
X045278Y018471D01*
X045304Y018373D02*
X025849Y018373D01*
X025849Y018274D02*
X045304Y018274D01*
X045304Y018176D02*
X035154Y018176D01*
X035174Y018166D02*
X035099Y018204D01*
X035019Y018230D01*
X034944Y018242D01*
X034944Y017759D01*
X034844Y017759D01*
X034844Y017659D01*
X034361Y017659D01*
X034373Y017584D01*
X034399Y017504D01*
X034437Y017429D01*
X034487Y017361D01*
X034546Y017302D01*
X034614Y017252D01*
X034689Y017214D01*
X034769Y017188D01*
X034844Y017176D01*
X034844Y017659D01*
X034944Y017659D01*
X034944Y017176D01*
X035019Y017188D01*
X035099Y017214D01*
X035174Y017252D01*
X035242Y017302D01*
X035301Y017361D01*
X035351Y017429D01*
X035389Y017504D01*
X035415Y017584D01*
X035427Y017659D01*
X034944Y017659D01*
X034944Y017759D01*
X035427Y017759D01*
X035415Y017834D01*
X035389Y017914D01*
X035351Y017989D01*
X035301Y018057D01*
X035242Y018116D01*
X035174Y018166D01*
X035281Y018077D02*
X045304Y018077D01*
X045304Y017979D02*
X035356Y017979D01*
X035400Y017880D02*
X045304Y017880D01*
X045304Y017782D02*
X035423Y017782D01*
X035415Y017585D02*
X045304Y017585D01*
X045304Y017683D02*
X034944Y017683D01*
X034944Y017585D02*
X034844Y017585D01*
X034844Y017683D02*
X025849Y017683D01*
X025849Y017585D02*
X034373Y017585D01*
X034409Y017486D02*
X025849Y017486D01*
X025849Y017388D02*
X034468Y017388D01*
X034564Y017289D02*
X025849Y017289D01*
X025849Y017191D02*
X034762Y017191D01*
X034844Y017191D02*
X034944Y017191D01*
X035026Y017191D02*
X045411Y017191D01*
X045370Y017289D02*
X035224Y017289D01*
X035320Y017388D02*
X045329Y017388D01*
X045304Y017486D02*
X035380Y017486D01*
X034944Y017486D02*
X034844Y017486D01*
X034844Y017388D02*
X034944Y017388D01*
X034944Y017289D02*
X034844Y017289D01*
X034844Y017759D02*
X034361Y017759D01*
X034373Y017834D01*
X034399Y017914D01*
X034437Y017989D01*
X034487Y018057D01*
X034546Y018116D01*
X034614Y018166D01*
X034689Y018204D01*
X034769Y018230D01*
X034844Y018242D01*
X034844Y017759D01*
X034844Y017782D02*
X034944Y017782D01*
X034944Y017880D02*
X034844Y017880D01*
X034844Y017979D02*
X034944Y017979D01*
X034944Y018077D02*
X034844Y018077D01*
X034844Y018176D02*
X034944Y018176D01*
X034634Y018176D02*
X025849Y018176D01*
X025849Y018077D02*
X034507Y018077D01*
X034432Y017979D02*
X025849Y017979D01*
X025849Y017880D02*
X034388Y017880D01*
X034365Y017782D02*
X025849Y017782D01*
X025849Y017092D02*
X043373Y017092D01*
X043397Y017099D02*
X043092Y017017D01*
X042818Y016859D01*
X042595Y016635D01*
X042437Y016361D01*
X042355Y016056D01*
X042355Y015740D01*
X042437Y015435D01*
X042595Y015161D01*
X042818Y014937D01*
X043092Y014779D01*
X043397Y014697D01*
X043714Y014697D01*
X044019Y014779D01*
X044293Y014937D01*
X044516Y015161D01*
X044674Y015435D01*
X044756Y015740D01*
X044756Y016056D01*
X044674Y016361D01*
X044516Y016635D01*
X044293Y016859D01*
X044019Y017017D01*
X043714Y017099D01*
X043397Y017099D01*
X043738Y017092D02*
X045476Y017092D01*
X045574Y016994D02*
X044059Y016994D01*
X044230Y016895D02*
X045673Y016895D01*
X045771Y016797D02*
X044355Y016797D01*
X044453Y016698D02*
X045870Y016698D01*
X045968Y016600D02*
X044537Y016600D01*
X044594Y016501D02*
X046067Y016501D01*
X046165Y016403D02*
X044651Y016403D01*
X044690Y016304D02*
X046264Y016304D01*
X046362Y016206D02*
X044716Y016206D01*
X044742Y016107D02*
X046461Y016107D01*
X046559Y016009D02*
X044756Y016009D01*
X044756Y015910D02*
X046723Y015910D01*
X047387Y015812D02*
X044756Y015812D01*
X044749Y015713D02*
X050820Y015713D01*
X050820Y015615D02*
X044722Y015615D01*
X044696Y015516D02*
X050820Y015516D01*
X050820Y015418D02*
X044664Y015418D01*
X044608Y015319D02*
X050820Y015319D01*
X050820Y015221D02*
X046481Y015221D01*
X046677Y015122D02*
X050820Y015122D01*
X050820Y015024D02*
X046775Y015024D01*
X046874Y014925D02*
X050820Y014925D01*
X050820Y014827D02*
X046937Y014827D01*
X046977Y014728D02*
X050820Y014728D01*
X050820Y014630D02*
X047056Y014630D01*
X047154Y014531D02*
X050820Y014531D01*
X050820Y014433D02*
X047253Y014433D01*
X047351Y014334D02*
X050820Y014334D01*
X050820Y014236D02*
X047450Y014236D01*
X047548Y014137D02*
X050820Y014137D01*
X050820Y014039D02*
X047647Y014039D01*
X047745Y013940D02*
X050820Y013940D01*
X050820Y013842D02*
X047844Y013842D01*
X047942Y013743D02*
X050820Y013743D01*
X050820Y013645D02*
X048041Y013645D01*
X048139Y013546D02*
X050820Y013546D01*
X050820Y013448D02*
X049312Y013448D01*
X049550Y013349D02*
X050820Y013349D01*
X050820Y013251D02*
X049667Y013251D01*
X049765Y013152D02*
X050820Y013152D01*
X050820Y013054D02*
X049847Y013054D01*
X049888Y012955D02*
X050820Y012955D01*
X050820Y012857D02*
X049929Y012857D01*
X049970Y012758D02*
X050820Y012758D01*
X050820Y012660D02*
X049974Y012660D01*
X049974Y012561D02*
X050820Y012561D01*
X050820Y012463D02*
X049974Y012463D01*
X049965Y012364D02*
X050820Y012364D01*
X050820Y012266D02*
X049924Y012266D01*
X049899Y012167D02*
X050820Y012167D01*
X050820Y012069D02*
X049940Y012069D01*
X049974Y011970D02*
X050820Y011970D01*
X050820Y011872D02*
X049974Y011872D01*
X049974Y011773D02*
X050820Y011773D01*
X050820Y011675D02*
X049974Y011675D01*
X049974Y011576D02*
X050820Y011576D01*
X050820Y011478D02*
X049974Y011478D01*
X049974Y011379D02*
X050820Y011379D01*
X050820Y011281D02*
X049974Y011281D01*
X049974Y011182D02*
X050820Y011182D01*
X050820Y011084D02*
X049947Y011084D01*
X049906Y010985D02*
X050820Y010985D01*
X050820Y010887D02*
X049843Y010887D01*
X049744Y010788D02*
X050820Y010788D01*
X050820Y010690D02*
X049556Y010690D01*
X048579Y010690D02*
X047666Y010690D01*
X047567Y010591D02*
X050820Y010591D01*
X050820Y010493D02*
X047469Y010493D01*
X047370Y010394D02*
X050820Y010394D01*
X050820Y010296D02*
X047390Y010296D01*
X047488Y010197D02*
X050820Y010197D01*
X050820Y010099D02*
X047587Y010099D01*
X047650Y010000D02*
X050820Y010000D01*
X050820Y009902D02*
X047691Y009902D01*
X047732Y009803D02*
X050820Y009803D01*
X050820Y009705D02*
X047756Y009705D01*
X047756Y009606D02*
X050820Y009606D01*
X050820Y009508D02*
X047756Y009508D01*
X047756Y009409D02*
X050820Y009409D01*
X050820Y009311D02*
X047756Y009311D01*
X047756Y009212D02*
X050820Y009212D01*
X050820Y009114D02*
X047756Y009114D01*
X047756Y009015D02*
X050820Y009015D01*
X050820Y008917D02*
X047756Y008917D01*
X047756Y008818D02*
X050820Y008818D01*
X050820Y008720D02*
X047756Y008720D01*
X047756Y008621D02*
X048654Y008621D01*
X048416Y008523D02*
X047756Y008523D01*
X047756Y008424D02*
X048249Y008424D01*
X048151Y008326D02*
X047756Y008326D01*
X047756Y008227D02*
X048052Y008227D01*
X047992Y008129D02*
X047771Y008129D01*
X047812Y008030D02*
X047951Y008030D01*
X047910Y007932D02*
X047852Y007932D01*
X049079Y008621D02*
X050820Y008621D01*
X050820Y008523D02*
X049316Y008523D01*
X049483Y008424D02*
X050820Y008424D01*
X050820Y008326D02*
X049582Y008326D01*
X049680Y008227D02*
X050820Y008227D01*
X050820Y008129D02*
X049741Y008129D01*
X049782Y008030D02*
X050820Y008030D01*
X050820Y007932D02*
X049822Y007932D01*
X049863Y007833D02*
X050820Y007833D01*
X050820Y007735D02*
X049866Y007735D01*
X049866Y007636D02*
X050820Y007636D01*
X050820Y007538D02*
X049866Y007538D01*
X049866Y007439D02*
X050820Y007439D01*
X050820Y007341D02*
X049866Y007341D01*
X049866Y007242D02*
X050820Y007242D01*
X050820Y007144D02*
X049866Y007144D01*
X049866Y007045D02*
X050820Y007045D01*
X050820Y006947D02*
X049866Y006947D01*
X049866Y006848D02*
X050820Y006848D01*
X050820Y006750D02*
X049866Y006750D01*
X049866Y006651D02*
X050820Y006651D01*
X050820Y006553D02*
X049827Y006553D01*
X049786Y006454D02*
X050820Y006454D01*
X050820Y006356D02*
X049745Y006356D01*
X049691Y006257D02*
X050820Y006257D01*
X050820Y006159D02*
X049592Y006159D01*
X049494Y006060D02*
X050820Y006060D01*
X050820Y005962D02*
X049343Y005962D01*
X049105Y005863D02*
X050820Y005863D01*
X050820Y005765D02*
X048006Y005765D01*
X048006Y005863D02*
X048628Y005863D01*
X048390Y005962D02*
X048006Y005962D01*
X048006Y006060D02*
X048239Y006060D01*
X048140Y006159D02*
X048006Y006159D01*
X048006Y006257D02*
X048042Y006257D01*
X048006Y005666D02*
X050820Y005666D01*
X050820Y005568D02*
X048006Y005568D01*
X048006Y005469D02*
X050820Y005469D01*
X050820Y005371D02*
X048006Y005371D01*
X048006Y005272D02*
X050820Y005272D01*
X050820Y005174D02*
X048006Y005174D01*
X048006Y005075D02*
X050820Y005075D01*
X050820Y004977D02*
X048006Y004977D01*
X048006Y004878D02*
X050820Y004878D01*
X050820Y004780D02*
X048006Y004780D01*
X048006Y004681D02*
X050820Y004681D01*
X050820Y004583D02*
X048006Y004583D01*
X048006Y004484D02*
X050820Y004484D01*
X050820Y004386D02*
X048006Y004386D01*
X048006Y004287D02*
X050820Y004287D01*
X050820Y004189D02*
X048006Y004189D01*
X048006Y004090D02*
X050820Y004090D01*
X050820Y003992D02*
X048006Y003992D01*
X048006Y003893D02*
X050820Y003893D01*
X050820Y003795D02*
X048006Y003795D01*
X048006Y003696D02*
X050820Y003696D01*
X050820Y003598D02*
X048006Y003598D01*
X048006Y003499D02*
X050820Y003499D01*
X050820Y003401D02*
X048006Y003401D01*
X048006Y003302D02*
X050820Y003302D01*
X050820Y003204D02*
X048006Y003204D01*
X048006Y003105D02*
X050820Y003105D01*
X050820Y003007D02*
X048006Y003007D01*
X048006Y002908D02*
X050820Y002908D01*
X050820Y002810D02*
X048006Y002810D01*
X047995Y002711D02*
X050820Y002711D01*
X050820Y002613D02*
X047968Y002613D01*
X047942Y002514D02*
X050820Y002514D01*
X050820Y002416D02*
X047898Y002416D01*
X047841Y002317D02*
X050820Y002317D01*
X050820Y002219D02*
X047784Y002219D01*
X047686Y002120D02*
X050820Y002120D01*
X050820Y002022D02*
X047587Y002022D01*
X047489Y001923D02*
X050820Y001923D01*
X050820Y001825D02*
X047390Y001825D01*
X047292Y001726D02*
X050820Y001726D01*
X050820Y001628D02*
X047193Y001628D01*
X047095Y001529D02*
X050820Y001529D01*
X050820Y001431D02*
X046996Y001431D01*
X046898Y001332D02*
X050820Y001332D01*
X050808Y001234D02*
X046799Y001234D01*
X046701Y001135D02*
X050782Y001135D01*
X050732Y001037D02*
X046602Y001037D01*
X046504Y000938D02*
X050656Y000938D01*
X050529Y000840D02*
X046405Y000840D01*
X041792Y004878D02*
X039774Y004878D01*
X039872Y004977D02*
X041849Y004977D01*
X041849Y005075D02*
X039971Y005075D01*
X040069Y005174D02*
X041849Y005174D01*
X041849Y005272D02*
X040146Y005272D01*
X040203Y005371D02*
X041849Y005371D01*
X041849Y005469D02*
X040260Y005469D01*
X040305Y005568D02*
X041849Y005568D01*
X041849Y005666D02*
X040332Y005666D01*
X040358Y005765D02*
X041849Y005765D01*
X041849Y005863D02*
X040384Y005863D01*
X040388Y005962D02*
X041849Y005962D01*
X041849Y006060D02*
X040388Y006060D01*
X040388Y006159D02*
X041849Y006159D01*
X041849Y006257D02*
X040388Y006257D01*
X040388Y006356D02*
X040767Y006356D01*
X040785Y006346D02*
X040866Y006320D01*
X040942Y006308D01*
X040942Y007187D01*
X040452Y007187D01*
X040452Y006804D01*
X040466Y006720D01*
X040492Y006639D01*
X040530Y006564D01*
X040580Y006495D01*
X040640Y006435D01*
X040709Y006385D01*
X040785Y006346D01*
X040942Y006356D02*
X041042Y006356D01*
X041042Y006308D02*
X041119Y006320D01*
X041199Y006346D01*
X041275Y006385D01*
X041344Y006435D01*
X041404Y006495D01*
X041454Y006564D01*
X041493Y006639D01*
X041519Y006720D01*
X041532Y006804D01*
X041532Y007187D01*
X041042Y007187D01*
X041042Y007287D01*
X040942Y007287D01*
X040942Y008165D01*
X040866Y008153D01*
X040785Y008127D01*
X040709Y008088D01*
X040640Y008039D01*
X040580Y007978D01*
X040530Y007910D01*
X040492Y007834D01*
X040466Y007753D01*
X040452Y007669D01*
X040452Y007287D01*
X040942Y007287D01*
X040942Y007187D01*
X041042Y007187D01*
X041042Y006308D01*
X041042Y006454D02*
X040942Y006454D01*
X040942Y006553D02*
X041042Y006553D01*
X041042Y006651D02*
X040942Y006651D01*
X040942Y006750D02*
X041042Y006750D01*
X041042Y006848D02*
X040942Y006848D01*
X040942Y006947D02*
X041042Y006947D01*
X041042Y007045D02*
X040942Y007045D01*
X040942Y007144D02*
X041042Y007144D01*
X041042Y007242D02*
X041849Y007242D01*
X041849Y007144D02*
X041532Y007144D01*
X041532Y007045D02*
X041849Y007045D01*
X041849Y006947D02*
X041532Y006947D01*
X041532Y006848D02*
X041849Y006848D01*
X041849Y006750D02*
X041524Y006750D01*
X041496Y006651D02*
X041849Y006651D01*
X041849Y006553D02*
X041446Y006553D01*
X041363Y006454D02*
X041849Y006454D01*
X041849Y006356D02*
X041218Y006356D01*
X040621Y006454D02*
X040388Y006454D01*
X040388Y006553D02*
X040538Y006553D01*
X040488Y006651D02*
X040388Y006651D01*
X040388Y006750D02*
X040461Y006750D01*
X040452Y006848D02*
X040388Y006848D01*
X040388Y006947D02*
X040452Y006947D01*
X040452Y007045D02*
X040388Y007045D01*
X040388Y007144D02*
X040452Y007144D01*
X040388Y007242D02*
X040942Y007242D01*
X040942Y007341D02*
X041042Y007341D01*
X041042Y007287D02*
X041042Y008165D01*
X041119Y008153D01*
X041199Y008127D01*
X041275Y008088D01*
X041344Y008039D01*
X041404Y007978D01*
X041454Y007910D01*
X041493Y007834D01*
X041519Y007753D01*
X041532Y007669D01*
X041532Y007287D01*
X041042Y007287D01*
X041042Y007439D02*
X040942Y007439D01*
X040942Y007538D02*
X041042Y007538D01*
X041042Y007636D02*
X040942Y007636D01*
X040942Y007735D02*
X041042Y007735D01*
X041042Y007833D02*
X040942Y007833D01*
X040942Y007932D02*
X041042Y007932D01*
X041042Y008030D02*
X040942Y008030D01*
X040942Y008129D02*
X041042Y008129D01*
X041195Y008129D02*
X042085Y008129D01*
X042044Y008030D02*
X041352Y008030D01*
X041438Y007932D02*
X042003Y007932D01*
X041962Y007833D02*
X041493Y007833D01*
X041522Y007735D02*
X041959Y007735D01*
X041917Y007636D02*
X041532Y007636D01*
X041532Y007538D02*
X041891Y007538D01*
X041864Y007439D02*
X041532Y007439D01*
X041532Y007341D02*
X041849Y007341D01*
X042145Y008227D02*
X039955Y008227D01*
X040054Y008129D02*
X040789Y008129D01*
X040632Y008030D02*
X040137Y008030D01*
X040194Y007932D02*
X040546Y007932D01*
X040491Y007833D02*
X040251Y007833D01*
X040301Y007735D02*
X040463Y007735D01*
X040452Y007636D02*
X040327Y007636D01*
X040354Y007538D02*
X040452Y007538D01*
X040452Y007439D02*
X040380Y007439D01*
X040388Y007341D02*
X040452Y007341D01*
X039856Y008326D02*
X042244Y008326D01*
X042342Y008424D02*
X039686Y008424D01*
X039478Y008523D02*
X042509Y008523D01*
X042747Y008621D02*
X039235Y008621D01*
X038810Y008621D02*
X036447Y008621D01*
X036447Y008523D02*
X038567Y008523D01*
X038359Y008424D02*
X036447Y008424D01*
X036447Y008326D02*
X038188Y008326D01*
X038089Y008227D02*
X036447Y008227D01*
X036447Y008129D02*
X037991Y008129D01*
X037910Y008030D02*
X036447Y008030D01*
X036447Y007932D02*
X037853Y007932D01*
X037796Y007833D02*
X036447Y007833D01*
X036447Y007735D02*
X037748Y007735D01*
X037721Y007636D02*
X036447Y007636D01*
X036447Y007538D02*
X037695Y007538D01*
X037668Y007439D02*
X036447Y007439D01*
X036447Y007341D02*
X037662Y007341D01*
X037662Y007242D02*
X036447Y007242D01*
X036447Y007144D02*
X037662Y007144D01*
X037666Y007045D02*
X036443Y007045D01*
X036417Y006947D02*
X037668Y006947D01*
X037668Y006848D02*
X036391Y006848D01*
X036364Y006750D02*
X037668Y006750D01*
X037668Y006651D02*
X036319Y006651D01*
X036447Y008720D02*
X046036Y008720D01*
X046036Y008818D02*
X036447Y008818D01*
X036447Y008917D02*
X046036Y008917D01*
X046036Y009015D02*
X036447Y009015D01*
X036447Y009114D02*
X046036Y009114D01*
X046036Y009212D02*
X036447Y009212D01*
X036447Y009311D02*
X045943Y009311D01*
X045844Y009409D02*
X036447Y009409D01*
X036447Y009508D02*
X045704Y009508D01*
X045534Y009606D02*
X036447Y009606D01*
X036447Y009705D02*
X045435Y009705D01*
X045337Y009803D02*
X036447Y009803D01*
X036476Y009902D02*
X045285Y009902D01*
X045244Y010000D02*
X036502Y010000D01*
X036521Y010099D02*
X045203Y010099D01*
X045175Y010197D02*
X036541Y010197D01*
X036561Y010296D02*
X045175Y010296D01*
X045175Y010394D02*
X036580Y010394D01*
X036587Y010493D02*
X044038Y010493D01*
X043809Y010591D02*
X036587Y010591D01*
X036587Y010690D02*
X040190Y010690D01*
X040323Y010634D02*
X040670Y010634D01*
X040989Y010767D01*
X041234Y011011D01*
X041291Y011149D01*
X041339Y011124D01*
X041400Y011104D01*
X041464Y011094D01*
X041466Y011094D01*
X041466Y011734D01*
X041526Y011734D01*
X041526Y011094D01*
X041529Y011094D01*
X041592Y011104D01*
X041654Y011124D01*
X041711Y011154D01*
X041764Y011191D01*
X041809Y011237D01*
X041847Y011289D01*
X041876Y011347D01*
X041896Y011408D01*
X041906Y011472D01*
X041906Y011734D01*
X041526Y011734D01*
X041526Y011794D01*
X041466Y011794D01*
X041466Y012434D01*
X041464Y012434D01*
X041400Y012424D01*
X041339Y012404D01*
X041291Y012380D01*
X041234Y012517D01*
X040989Y012762D01*
X040670Y012894D01*
X040323Y012894D01*
X040004Y012762D01*
X039759Y012517D01*
X039626Y012197D01*
X039626Y011331D01*
X039759Y011011D01*
X040004Y010767D01*
X040323Y010634D01*
X039982Y010788D02*
X036587Y010788D01*
X036587Y010887D02*
X039884Y010887D01*
X039785Y010985D02*
X036577Y010985D01*
X036557Y011084D02*
X039729Y011084D01*
X039688Y011182D02*
X036538Y011182D01*
X036518Y011281D02*
X039647Y011281D01*
X039626Y011379D02*
X036499Y011379D01*
X036469Y011478D02*
X039626Y011478D01*
X039626Y011576D02*
X036429Y011576D01*
X036388Y011675D02*
X039626Y011675D01*
X039626Y011773D02*
X036347Y011773D01*
X036306Y011872D02*
X039626Y011872D01*
X039626Y011970D02*
X036248Y011970D01*
X036183Y012069D02*
X039626Y012069D01*
X039626Y012167D02*
X036117Y012167D01*
X036051Y012266D02*
X039655Y012266D01*
X039696Y012364D02*
X035972Y012364D01*
X035874Y012463D02*
X039736Y012463D01*
X039803Y012561D02*
X035775Y012561D01*
X035677Y012660D02*
X039901Y012660D01*
X040000Y012758D02*
X035542Y012758D01*
X035394Y012857D02*
X040233Y012857D01*
X040760Y012857D02*
X043470Y012857D01*
X043429Y012955D02*
X035247Y012955D01*
X035020Y013054D02*
X043420Y013054D01*
X043420Y013152D02*
X034782Y013152D01*
X034310Y013251D02*
X043420Y013251D01*
X043425Y013349D02*
X025849Y013349D01*
X025849Y013448D02*
X043466Y013448D01*
X043507Y013546D02*
X025849Y013546D01*
X025849Y013645D02*
X043548Y013645D01*
X043630Y013743D02*
X025849Y013743D01*
X025849Y013842D02*
X043729Y013842D01*
X043844Y013940D02*
X025849Y013940D01*
X025849Y014039D02*
X044082Y014039D01*
X043828Y014728D02*
X045252Y014728D01*
X045293Y014827D02*
X044101Y014827D01*
X044271Y014925D02*
X045356Y014925D01*
X045454Y015024D02*
X044379Y015024D01*
X044477Y015122D02*
X045553Y015122D01*
X045748Y015221D02*
X044551Y015221D01*
X045211Y014630D02*
X025849Y014630D01*
X025849Y014728D02*
X043283Y014728D01*
X043010Y014827D02*
X025849Y014827D01*
X025849Y014925D02*
X042840Y014925D01*
X042732Y015024D02*
X025849Y015024D01*
X025849Y015122D02*
X042634Y015122D01*
X042560Y015221D02*
X025849Y015221D01*
X025849Y015319D02*
X042504Y015319D01*
X042447Y015418D02*
X025849Y015418D01*
X025849Y015516D02*
X042415Y015516D01*
X042389Y015615D02*
X025849Y015615D01*
X025849Y015713D02*
X042362Y015713D01*
X042355Y015812D02*
X025849Y015812D01*
X025849Y015910D02*
X042355Y015910D01*
X042355Y016009D02*
X025849Y016009D01*
X025849Y016107D02*
X042369Y016107D01*
X042395Y016206D02*
X025849Y016206D01*
X025849Y016304D02*
X042421Y016304D01*
X042461Y016403D02*
X025849Y016403D01*
X025849Y016501D02*
X042517Y016501D01*
X042574Y016600D02*
X025849Y016600D01*
X025849Y016698D02*
X042658Y016698D01*
X042756Y016797D02*
X025849Y016797D01*
X025849Y016895D02*
X042881Y016895D01*
X043052Y016994D02*
X025849Y016994D01*
X025849Y014531D02*
X045175Y014531D01*
X045175Y014433D02*
X025849Y014433D01*
X025849Y014334D02*
X045175Y014334D01*
X045175Y014236D02*
X025849Y014236D01*
X025849Y014137D02*
X045187Y014137D01*
X045178Y014039D02*
X045228Y014039D01*
X045232Y012296D02*
X046840Y012296D01*
X045840Y011297D01*
X045840Y011537D01*
X045702Y011872D01*
X045446Y012128D01*
X045371Y012159D01*
X045378Y012206D01*
X045256Y012206D01*
X045135Y012256D01*
X045232Y012296D01*
X045158Y012266D02*
X046809Y012266D01*
X046711Y012167D02*
X045372Y012167D01*
X045505Y012069D02*
X046612Y012069D01*
X046514Y011970D02*
X045604Y011970D01*
X045702Y011872D02*
X046415Y011872D01*
X046317Y011773D02*
X045743Y011773D01*
X045783Y011675D02*
X046218Y011675D01*
X046120Y011576D02*
X045824Y011576D01*
X045840Y011478D02*
X046021Y011478D01*
X045923Y011379D02*
X045840Y011379D01*
X044103Y012266D02*
X041828Y012266D01*
X041809Y012291D02*
X041764Y012337D01*
X041711Y012375D01*
X041654Y012404D01*
X041592Y012424D01*
X041529Y012434D01*
X041526Y012434D01*
X041526Y011794D01*
X041906Y011794D01*
X041906Y012056D01*
X041896Y012120D01*
X041876Y012182D01*
X041847Y012239D01*
X041809Y012291D01*
X041726Y012364D02*
X043865Y012364D01*
X043737Y012463D02*
X041257Y012463D01*
X041190Y012561D02*
X043639Y012561D01*
X043551Y012660D02*
X041091Y012660D01*
X040993Y012758D02*
X043510Y012758D01*
X043889Y012167D02*
X041881Y012167D01*
X041905Y012069D02*
X043756Y012069D01*
X043657Y011970D02*
X041906Y011970D01*
X041906Y011872D02*
X043559Y011872D01*
X043518Y011773D02*
X041526Y011773D01*
X041526Y011675D02*
X041466Y011675D01*
X041466Y011576D02*
X041526Y011576D01*
X041526Y011478D02*
X041466Y011478D01*
X041466Y011379D02*
X041526Y011379D01*
X041526Y011281D02*
X041466Y011281D01*
X041466Y011182D02*
X041526Y011182D01*
X041751Y011182D02*
X043420Y011182D01*
X043420Y011281D02*
X041841Y011281D01*
X041887Y011379D02*
X043420Y011379D01*
X043420Y011478D02*
X041906Y011478D01*
X041906Y011576D02*
X043436Y011576D01*
X043477Y011675D02*
X041906Y011675D01*
X041526Y011872D02*
X041466Y011872D01*
X041466Y011970D02*
X041526Y011970D01*
X041526Y012069D02*
X041466Y012069D01*
X041466Y012167D02*
X041526Y012167D01*
X041526Y012266D02*
X041466Y012266D01*
X041466Y012364D02*
X041526Y012364D01*
X041264Y011084D02*
X043458Y011084D01*
X043499Y010985D02*
X041208Y010985D01*
X041109Y010887D02*
X043540Y010887D01*
X043612Y010788D02*
X041011Y010788D01*
X040803Y010690D02*
X043710Y010690D01*
X043172Y008621D02*
X044717Y008621D01*
X044479Y008523D02*
X043409Y008523D01*
X043576Y008424D02*
X044312Y008424D01*
X044214Y008326D02*
X043675Y008326D01*
X043773Y008227D02*
X044115Y008227D01*
X044055Y008129D02*
X043834Y008129D01*
X043875Y008030D02*
X044014Y008030D01*
X043973Y007932D02*
X043915Y007932D01*
X045142Y008621D02*
X046036Y008621D01*
X046036Y008523D02*
X045379Y008523D01*
X045546Y008424D02*
X046036Y008424D01*
X046036Y008326D02*
X045645Y008326D01*
X045743Y008227D02*
X046036Y008227D01*
X046022Y008129D02*
X045804Y008129D01*
X045845Y008030D02*
X045981Y008030D01*
X045940Y007932D02*
X045885Y007932D01*
X048238Y013448D02*
X048823Y013448D01*
X049197Y015812D02*
X050820Y015812D01*
X050820Y015910D02*
X049295Y015910D01*
X049394Y016009D02*
X050820Y016009D01*
X050820Y016107D02*
X049492Y016107D01*
X049591Y016206D02*
X050820Y016206D01*
X050820Y016304D02*
X049689Y016304D01*
X049702Y016403D02*
X050820Y016403D01*
X050820Y016501D02*
X049702Y016501D01*
X049702Y016600D02*
X050820Y016600D01*
X050820Y016698D02*
X049702Y016698D01*
X049702Y016797D02*
X050820Y016797D01*
X050820Y016895D02*
X049702Y016895D01*
X049702Y016994D02*
X050820Y016994D01*
X050820Y017092D02*
X049680Y017092D01*
X049581Y017191D02*
X050820Y017191D01*
X050820Y017289D02*
X049674Y017289D01*
X049702Y017388D02*
X050820Y017388D01*
X050820Y017486D02*
X049702Y017486D01*
X049702Y017585D02*
X050820Y017585D01*
X050820Y017683D02*
X049702Y017683D01*
X049702Y017782D02*
X050820Y017782D01*
X050820Y017880D02*
X049702Y017880D01*
X049702Y017979D02*
X050820Y017979D01*
X050820Y018077D02*
X049695Y018077D01*
X049596Y018176D02*
X050820Y018176D01*
X050820Y018274D02*
X049659Y018274D01*
X049702Y018373D02*
X050820Y018373D01*
X050820Y018471D02*
X049702Y018471D01*
X049702Y018570D02*
X050820Y018570D01*
X050820Y018668D02*
X049702Y018668D01*
X049702Y018767D02*
X050820Y018767D01*
X050820Y018865D02*
X049702Y018865D01*
X049702Y018964D02*
X050820Y018964D01*
X050820Y019062D02*
X049702Y019062D01*
X049611Y019161D02*
X050820Y019161D01*
X050820Y019259D02*
X049644Y019259D01*
X049702Y019358D02*
X050820Y019358D01*
X050820Y019456D02*
X049702Y019456D01*
X049702Y019555D02*
X050820Y019555D01*
X050820Y019653D02*
X049702Y019653D01*
X049702Y019752D02*
X050820Y019752D01*
X050820Y019850D02*
X049702Y019850D01*
X049702Y019949D02*
X050820Y019949D01*
X050820Y020047D02*
X049702Y020047D01*
X049626Y020146D02*
X050820Y020146D01*
X050820Y020244D02*
X049528Y020244D01*
X049429Y020343D02*
X050820Y020343D01*
X050820Y020441D02*
X049331Y020441D01*
X049242Y020540D02*
X050820Y020540D01*
X050820Y020638D02*
X049242Y020638D01*
X048387Y015812D02*
X048197Y015812D01*
X041481Y020244D02*
X041300Y020244D01*
X037103Y026647D02*
X030539Y026647D01*
X030539Y026745D02*
X037004Y026745D01*
X036906Y026844D02*
X030539Y026844D01*
X030539Y026942D02*
X036807Y026942D01*
X036709Y027041D02*
X030539Y027041D01*
X030539Y027139D02*
X036610Y027139D01*
X036512Y027238D02*
X030539Y027238D01*
X030539Y027336D02*
X036413Y027336D01*
X036315Y027435D02*
X030539Y027435D01*
X030539Y027533D02*
X036216Y027533D01*
X036118Y027632D02*
X030539Y027632D01*
X030539Y027730D02*
X036019Y027730D01*
X035921Y027829D02*
X030539Y027829D01*
X030539Y027927D02*
X035822Y027927D01*
X035724Y028026D02*
X030539Y028026D01*
X030539Y028124D02*
X035625Y028124D01*
X035527Y028223D02*
X030539Y028223D01*
X030539Y028321D02*
X035428Y028321D01*
X035330Y028420D02*
X030539Y028420D01*
X030539Y028518D02*
X035231Y028518D01*
X035133Y028617D02*
X030539Y028617D01*
X030539Y028715D02*
X035034Y028715D01*
X034936Y028814D02*
X030539Y028814D01*
X030539Y028912D02*
X034837Y028912D01*
X034739Y029011D02*
X030539Y029011D01*
X030539Y029109D02*
X034640Y029109D01*
X034542Y029208D02*
X030539Y029208D01*
X030539Y029306D02*
X034443Y029306D01*
X034345Y029405D02*
X030539Y029405D01*
X030539Y029503D02*
X034246Y029503D01*
X034148Y029602D02*
X030539Y029602D01*
X030539Y029700D02*
X034049Y029700D01*
X033951Y029799D02*
X030539Y029799D01*
X030539Y029897D02*
X033852Y029897D01*
X033754Y029996D02*
X030539Y029996D01*
X030539Y030094D02*
X033655Y030094D01*
X033557Y030193D02*
X030539Y030193D01*
X030539Y030291D02*
X033458Y030291D01*
X033360Y030390D02*
X030539Y030390D01*
X030539Y030488D02*
X033261Y030488D01*
X033163Y030587D02*
X030539Y030587D01*
X030539Y030685D02*
X033064Y030685D01*
X032966Y030784D02*
X030619Y030784D01*
X030673Y030882D02*
X032867Y030882D01*
X032769Y030981D02*
X030713Y030981D01*
X030754Y031079D02*
X032670Y031079D01*
X032572Y031178D02*
X030761Y031178D01*
X030761Y031276D02*
X032473Y031276D01*
X032375Y031375D02*
X030761Y031375D01*
X030754Y031473D02*
X032276Y031473D01*
X032178Y031572D02*
X030761Y031572D01*
X030761Y031670D02*
X032079Y031670D01*
X031981Y031769D02*
X030761Y031769D01*
X030734Y031867D02*
X031882Y031867D01*
X031784Y031966D02*
X030694Y031966D01*
X030653Y032064D02*
X031685Y032064D01*
X031587Y032163D02*
X030571Y032163D01*
X030472Y032261D02*
X031488Y032261D01*
X031390Y032360D02*
X030310Y032360D01*
X030125Y032458D02*
X031291Y032458D01*
X031356Y032393D02*
X031356Y032393D01*
X031193Y032557D02*
X029890Y032557D01*
X029269Y032557D02*
X027190Y032557D01*
X027209Y032655D02*
X031106Y032655D01*
X031065Y032754D02*
X027209Y032754D01*
X027209Y032852D02*
X031024Y032852D01*
X030983Y032951D02*
X027209Y032951D01*
X027209Y033049D02*
X030983Y033049D01*
X030983Y036497D02*
X030592Y036497D01*
X030691Y036595D02*
X030983Y036595D01*
X030983Y036694D02*
X030789Y036694D01*
X030887Y036792D02*
X030983Y036792D01*
X030983Y036891D02*
X030944Y036891D01*
X035074Y036300D02*
X035209Y036300D01*
X035074Y036201D02*
X042249Y036201D01*
X042249Y036103D02*
X035074Y036103D01*
X035074Y036004D02*
X042249Y036004D01*
X042249Y035906D02*
X035074Y035906D01*
X035074Y035807D02*
X042249Y035807D01*
X042249Y035709D02*
X035074Y035709D01*
X035074Y035610D02*
X042249Y035610D01*
X042249Y035512D02*
X035074Y035512D01*
X035074Y035413D02*
X042249Y035413D01*
X042249Y035315D02*
X035074Y035315D01*
X035074Y035216D02*
X042249Y035216D01*
X042249Y035118D02*
X035074Y035118D01*
X035074Y035019D02*
X042249Y035019D01*
X042249Y034921D02*
X035074Y034921D01*
X035074Y034822D02*
X042249Y034822D01*
X042249Y034724D02*
X035074Y034724D01*
X035074Y034625D02*
X042249Y034625D01*
X042249Y034527D02*
X035074Y034527D01*
X035074Y034428D02*
X042249Y034428D01*
X042249Y034330D02*
X035074Y034330D01*
X035074Y034231D02*
X042249Y034231D01*
X042249Y034133D02*
X035074Y034133D01*
X035074Y034034D02*
X042249Y034034D01*
X042249Y033936D02*
X035074Y033936D01*
X035074Y033837D02*
X042249Y033837D01*
X042249Y033739D02*
X035074Y033739D01*
X035074Y033640D02*
X042249Y033640D01*
X042249Y033542D02*
X035074Y033542D01*
X035074Y033443D02*
X042249Y033443D01*
X042249Y033345D02*
X035074Y033345D01*
X035074Y033246D02*
X042249Y033246D01*
X042249Y033148D02*
X035170Y033148D01*
X035269Y033049D02*
X042249Y033049D01*
X042249Y032951D02*
X035367Y032951D01*
X035466Y032852D02*
X042249Y032852D01*
X042249Y032754D02*
X035564Y032754D01*
X035663Y032655D02*
X042249Y032655D01*
X042249Y032557D02*
X035761Y032557D01*
X035860Y032458D02*
X042249Y032458D01*
X042249Y032360D02*
X035958Y032360D01*
X036057Y032261D02*
X042249Y032261D01*
X042249Y032163D02*
X036155Y032163D01*
X036254Y032064D02*
X042249Y032064D01*
X042249Y031966D02*
X036352Y031966D01*
X036451Y031867D02*
X042249Y031867D01*
X042249Y031769D02*
X036549Y031769D01*
X036648Y031670D02*
X042249Y031670D01*
X042249Y031572D02*
X036746Y031572D01*
X036845Y031473D02*
X042249Y031473D01*
X042249Y031375D02*
X036943Y031375D01*
X037042Y031276D02*
X042249Y031276D01*
X042249Y031178D02*
X037140Y031178D01*
X037239Y031079D02*
X042249Y031079D01*
X042249Y030981D02*
X037337Y030981D01*
X037436Y030882D02*
X042249Y030882D01*
X042249Y030784D02*
X037534Y030784D01*
X037633Y030685D02*
X042249Y030685D01*
X042249Y030587D02*
X037731Y030587D01*
X037830Y030488D02*
X042249Y030488D01*
X042249Y030390D02*
X037929Y030390D01*
X038027Y030291D02*
X042249Y030291D01*
X042249Y030193D02*
X038126Y030193D01*
X038224Y030094D02*
X042249Y030094D01*
X042249Y029996D02*
X038323Y029996D01*
X038421Y029897D02*
X042249Y029897D01*
X042249Y029799D02*
X038520Y029799D01*
X038618Y029700D02*
X042249Y029700D01*
X042249Y029602D02*
X038717Y029602D01*
X038815Y029503D02*
X042249Y029503D01*
X042249Y029405D02*
X038914Y029405D01*
X039012Y029306D02*
X042249Y029306D01*
X042249Y029208D02*
X039111Y029208D01*
X039209Y029109D02*
X042249Y029109D01*
X042249Y029011D02*
X039308Y029011D01*
X039406Y028912D02*
X042249Y028912D01*
X042249Y028814D02*
X039505Y028814D01*
X039603Y028715D02*
X042249Y028715D01*
X042249Y028617D02*
X039702Y028617D01*
X039800Y028518D02*
X042243Y028518D01*
X042202Y028420D02*
X039899Y028420D01*
X039997Y028321D02*
X042177Y028321D01*
X042177Y028223D02*
X040096Y028223D01*
X040194Y028124D02*
X042177Y028124D01*
X042185Y028026D02*
X040293Y028026D01*
X040391Y027927D02*
X042225Y027927D01*
X042266Y027829D02*
X040490Y027829D01*
X040588Y027730D02*
X042322Y027730D01*
X042420Y027632D02*
X040687Y027632D01*
X040785Y027533D02*
X042519Y027533D01*
X042756Y027435D02*
X040884Y027435D01*
X040982Y027336D02*
X042913Y027336D01*
X044199Y027533D02*
X044420Y027755D01*
X044540Y028044D01*
X044540Y028358D01*
X044469Y028531D01*
X044515Y028420D02*
X046882Y028420D01*
X046882Y028321D02*
X044540Y028321D01*
X044540Y028223D02*
X046976Y028223D01*
X046936Y028124D02*
X044540Y028124D01*
X044533Y028026D02*
X046882Y028026D01*
X046882Y027927D02*
X044492Y027927D01*
X044451Y027829D02*
X046882Y027829D01*
X046882Y027730D02*
X044396Y027730D01*
X044297Y027632D02*
X046882Y027632D01*
X049216Y035906D02*
X050820Y035906D01*
X050820Y036004D02*
X049117Y036004D01*
X050820Y036694D02*
X044469Y036694D01*
X044469Y036792D02*
X050820Y036792D01*
X050820Y036891D02*
X044469Y036891D01*
X044469Y036989D02*
X050820Y036989D01*
X050820Y037088D02*
X044469Y037088D01*
X044469Y037186D02*
X050820Y037186D01*
X050820Y037285D02*
X044469Y037285D01*
X044469Y037383D02*
X050820Y037383D01*
X050820Y037482D02*
X044469Y037482D01*
X044469Y037580D02*
X050820Y037580D01*
X050820Y037679D02*
X044469Y037679D01*
X044469Y037777D02*
X050820Y037777D01*
X050820Y037876D02*
X044469Y037876D01*
X044564Y037974D02*
X050820Y037974D01*
X050820Y038073D02*
X044662Y038073D01*
X044761Y038171D02*
X050820Y038171D01*
X050820Y038270D02*
X044859Y038270D01*
X044958Y038368D02*
X050820Y038368D01*
X050820Y038467D02*
X045056Y038467D01*
X045155Y038565D02*
X050820Y038565D01*
X050820Y038664D02*
X045253Y038664D01*
X045352Y038762D02*
X050820Y038762D01*
X050820Y038861D02*
X045450Y038861D01*
X045549Y038959D02*
X050820Y038959D01*
X050820Y039058D02*
X045638Y039058D01*
X045695Y039156D02*
X050820Y039156D01*
X050820Y039255D02*
X045751Y039255D01*
X045788Y039353D02*
X050820Y039353D01*
X050820Y039452D02*
X045815Y039452D01*
X045841Y039550D02*
X050820Y039550D01*
X050820Y039649D02*
X045847Y039649D01*
X045847Y039747D02*
X050820Y039747D01*
X050820Y039846D02*
X045847Y039846D01*
X045847Y039944D02*
X050820Y039944D01*
X050820Y040043D02*
X045847Y040043D01*
X045847Y040141D02*
X050820Y040141D01*
X050820Y040240D02*
X045847Y040240D01*
X045847Y040338D02*
X050820Y040338D01*
X050820Y040437D02*
X045847Y040437D01*
X045847Y040535D02*
X050820Y040535D01*
X050820Y040634D02*
X045847Y040634D01*
X045847Y040732D02*
X050820Y040732D01*
X050820Y040831D02*
X045847Y040831D01*
X045847Y040929D02*
X050820Y040929D01*
X050820Y041028D02*
X045847Y041028D01*
X045847Y041126D02*
X050820Y041126D01*
X050820Y041225D02*
X045847Y041225D01*
X045847Y041323D02*
X050820Y041323D01*
X050820Y041422D02*
X045847Y041422D01*
X045847Y041520D02*
X050820Y041520D01*
X050820Y041619D02*
X045847Y041619D01*
X045847Y041717D02*
X050820Y041717D01*
X050820Y041816D02*
X045847Y041816D01*
X045847Y041914D02*
X050820Y041914D01*
X050820Y042013D02*
X045847Y042013D01*
X045847Y042111D02*
X050820Y042111D01*
X050820Y042210D02*
X045847Y042210D01*
X045847Y042308D02*
X050820Y042308D01*
X050820Y042407D02*
X045847Y042407D01*
X045847Y042505D02*
X050820Y042505D01*
X050820Y042604D02*
X045847Y042604D01*
X045847Y042702D02*
X050820Y042702D01*
X050820Y042801D02*
X045847Y042801D01*
X045847Y042899D02*
X050820Y042899D01*
X050820Y042998D02*
X045847Y042998D01*
X045847Y043096D02*
X050820Y043096D01*
X050820Y043195D02*
X045847Y043195D01*
X045847Y043293D02*
X050820Y043293D01*
X050820Y043392D02*
X045847Y043392D01*
X045847Y043490D02*
X050820Y043490D01*
X050820Y043589D02*
X045847Y043589D01*
X045847Y043687D02*
X050820Y043687D01*
X050820Y043786D02*
X045847Y043786D01*
X045847Y043884D02*
X050820Y043884D01*
X050820Y043983D02*
X045847Y043983D01*
X045847Y044081D02*
X050820Y044081D01*
X050820Y044180D02*
X045847Y044180D01*
X045847Y044278D02*
X050820Y044278D01*
X050820Y044377D02*
X045847Y044377D01*
X045847Y044475D02*
X050820Y044475D01*
X050820Y044574D02*
X045847Y044574D01*
X045847Y044672D02*
X050820Y044672D01*
X050820Y044771D02*
X045847Y044771D01*
X045847Y044869D02*
X050820Y044869D01*
X050820Y044968D02*
X045847Y044968D01*
X045847Y045066D02*
X050820Y045066D01*
X050820Y045165D02*
X045847Y045165D01*
X045847Y045263D02*
X050820Y045263D01*
X050820Y045362D02*
X045847Y045362D01*
X045847Y045460D02*
X050820Y045460D01*
X050820Y045559D02*
X045847Y045559D01*
X045847Y045657D02*
X050820Y045657D01*
X050820Y045756D02*
X045847Y045756D01*
X045847Y045854D02*
X050820Y045854D01*
X050820Y045953D02*
X045847Y045953D01*
X045847Y046051D02*
X050820Y046051D01*
X050820Y046150D02*
X045847Y046150D01*
X045847Y046248D02*
X050820Y046248D01*
X050820Y046347D02*
X045847Y046347D01*
X045847Y046445D02*
X050820Y046445D01*
X050820Y046544D02*
X045847Y046544D01*
X045847Y046642D02*
X050820Y046642D01*
X050820Y046741D02*
X045847Y046741D01*
X045847Y046839D02*
X050820Y046839D01*
X050820Y046938D02*
X045847Y046938D01*
X045847Y047036D02*
X050820Y047036D01*
X050820Y047135D02*
X045847Y047135D01*
X045847Y047233D02*
X050820Y047233D01*
X050820Y047332D02*
X045847Y047332D01*
X045847Y047430D02*
X050820Y047430D01*
X050820Y047529D02*
X045847Y047529D01*
X045847Y047627D02*
X050820Y047627D01*
X050820Y047726D02*
X045847Y047726D01*
X045847Y047824D02*
X050820Y047824D01*
X050820Y047923D02*
X045847Y047923D01*
X045847Y048021D02*
X050820Y048021D01*
X050820Y048120D02*
X045847Y048120D01*
X045847Y048218D02*
X050820Y048218D01*
X050820Y048317D02*
X045847Y048317D01*
X045847Y048415D02*
X050820Y048415D01*
X050820Y048514D02*
X045847Y048514D01*
X045847Y048612D02*
X050820Y048612D01*
X050820Y048711D02*
X045847Y048711D01*
X045847Y048809D02*
X050820Y048809D01*
X050820Y048908D02*
X045847Y048908D01*
X045851Y049006D02*
X050820Y049006D01*
X050820Y049105D02*
X045950Y049105D01*
X046048Y049203D02*
X050820Y049203D01*
X050820Y049302D02*
X046147Y049302D01*
X046233Y049400D02*
X050820Y049400D01*
X050820Y049499D02*
X046290Y049499D01*
X046347Y049597D02*
X050820Y049597D01*
X050820Y049696D02*
X050155Y049696D01*
X050391Y049794D02*
X050820Y049794D01*
X050820Y049893D02*
X050489Y049893D01*
X050588Y049991D02*
X050820Y049991D01*
X050820Y050090D02*
X050686Y050090D01*
X050785Y050188D02*
X050820Y050188D01*
X050820Y053424D02*
X050724Y053519D01*
X050590Y053653D01*
X050374Y053870D01*
X050091Y053987D01*
X049002Y053987D01*
X048862Y054127D01*
X048108Y054127D01*
X047648Y053667D01*
X047535Y053667D01*
X047535Y053267D01*
X047435Y053267D01*
X047435Y053667D01*
X047298Y053667D01*
X047035Y053403D01*
X047035Y053267D01*
X047435Y053267D01*
X047435Y053167D01*
X047035Y053167D01*
X047035Y053054D01*
X046981Y053000D01*
X046952Y053029D01*
X046728Y053122D01*
X045304Y053122D01*
X045080Y053029D01*
X044908Y052858D01*
X044816Y052634D01*
X044816Y051800D01*
X044847Y051725D01*
X044816Y051649D01*
X044816Y051038D01*
X044646Y050940D01*
X044055Y050349D01*
X043870Y050164D01*
X043870Y051059D01*
X043777Y051283D01*
X043606Y051455D01*
X043382Y051547D01*
X043315Y051547D01*
X043303Y051560D01*
X042986Y051691D01*
X042848Y051691D01*
X042848Y052004D01*
X042716Y052322D01*
X042472Y052567D01*
X042333Y052624D01*
X042358Y052675D01*
X042378Y052736D01*
X042388Y052799D01*
X042388Y052802D01*
X042009Y052802D01*
X042009Y052699D01*
X041952Y052699D01*
X041952Y052802D01*
X042009Y052802D01*
X042009Y052860D01*
X041952Y052860D01*
X041952Y053239D01*
X041949Y053239D01*
X041885Y053229D01*
X041824Y053209D01*
X041767Y053180D01*
X041715Y053142D01*
X041670Y053097D01*
X041632Y053045D01*
X041603Y052988D01*
X041583Y052927D01*
X041573Y052863D01*
X041573Y052860D01*
X041952Y052860D01*
X041952Y052802D01*
X041573Y052802D01*
X041573Y052799D01*
X041583Y052736D01*
X041603Y052675D01*
X041629Y052624D01*
X041489Y052567D01*
X041245Y052322D01*
X041113Y052004D01*
X041113Y051659D01*
X041178Y051503D01*
X041151Y051492D01*
X040934Y051275D01*
X040449Y050790D01*
X040449Y050869D01*
X040323Y051174D01*
X040449Y051479D01*
X040449Y051869D01*
X040300Y052229D01*
X040024Y052504D01*
X039968Y052528D01*
X039976Y052552D01*
X039987Y052624D01*
X039736Y052624D01*
X039664Y052654D01*
X039519Y052654D01*
X039519Y052694D01*
X039664Y052694D01*
X039736Y052724D01*
X039987Y052724D01*
X039976Y052795D01*
X039968Y052820D01*
X040024Y052843D01*
X040300Y053118D01*
X040449Y053479D01*
X040449Y053869D01*
X040300Y054229D01*
X040024Y054504D01*
X039664Y054654D01*
X039274Y054654D01*
X038914Y054504D01*
X038638Y054229D01*
X038489Y053869D01*
X038489Y053479D01*
X038638Y053118D01*
X038914Y052843D01*
X038970Y052820D01*
X038962Y052795D01*
X038950Y052724D01*
X039202Y052724D01*
X039274Y052694D01*
X039419Y052694D01*
X039419Y052654D01*
X039274Y052654D01*
X039202Y052624D01*
X038950Y052624D01*
X038962Y052552D01*
X038970Y052528D01*
X038914Y052504D01*
X038638Y052229D01*
X038489Y051869D01*
X038489Y051479D01*
X038615Y051174D01*
X038489Y050869D01*
X038489Y050479D01*
X038615Y050174D01*
X038489Y049869D01*
X038489Y049479D01*
X038615Y049174D01*
X038489Y048869D01*
X038489Y048479D01*
X038615Y048174D01*
X038489Y047869D01*
X038489Y047479D01*
X038615Y047174D01*
X038489Y046869D01*
X038489Y046479D01*
X038615Y046174D01*
X038489Y045869D01*
X038489Y045479D01*
X038615Y045174D01*
X038489Y044869D01*
X034449Y044869D01*
X034323Y045174D01*
X034449Y045479D01*
X034449Y045869D01*
X034323Y046174D01*
X034449Y046479D01*
X034449Y046869D01*
X034323Y047174D01*
X034449Y047479D01*
X034449Y047869D01*
X034323Y048174D01*
X034449Y048479D01*
X034449Y048869D01*
X034323Y049174D01*
X034449Y049479D01*
X034449Y049869D01*
X034300Y050229D01*
X034024Y050504D01*
X033968Y050528D01*
X033976Y050552D01*
X033987Y050624D01*
X033736Y050624D01*
X033664Y050654D01*
X033519Y050654D01*
X033519Y050694D01*
X033664Y050694D01*
X033736Y050724D01*
X033987Y050724D01*
X033976Y050795D01*
X033968Y050820D01*
X034024Y050843D01*
X034300Y051118D01*
X034449Y051479D01*
X034449Y051869D01*
X034323Y052174D01*
X034449Y052479D01*
X034449Y052869D01*
X034323Y053174D01*
X034449Y053479D01*
X034449Y053869D01*
X034300Y054229D01*
X034024Y054504D01*
X033664Y054654D01*
X033274Y054654D01*
X032946Y054518D01*
X032752Y054599D01*
X031918Y054599D01*
X031694Y054506D01*
X031523Y054334D01*
X031430Y054110D01*
X031430Y053090D01*
X031387Y053047D01*
X031387Y053047D01*
X030895Y052555D01*
X030778Y052272D01*
X030778Y051233D01*
X023208Y051233D01*
X023774Y051799D01*
X023921Y052052D01*
X023948Y052154D01*
X025624Y053830D01*
X025681Y053774D01*
X025517Y053610D01*
X025467Y053490D01*
X025421Y053443D01*
X025421Y053378D01*
X025371Y053257D01*
X025371Y052876D01*
X025421Y052755D01*
X025421Y052690D01*
X025467Y052643D01*
X025517Y052523D01*
X025787Y052253D01*
X025908Y052203D01*
X025954Y052156D01*
X026019Y052156D01*
X026140Y052106D01*
X028061Y052106D01*
X028413Y052253D01*
X030713Y054553D01*
X030984Y054823D01*
X031130Y055176D01*
X031130Y056531D01*
X031095Y056615D01*
X031095Y056723D01*
X031038Y056780D01*
X034376Y056780D01*
X034728Y056926D01*
X035283Y057480D01*
X035429Y057833D01*
X035429Y058215D01*
X035283Y058568D01*
X035255Y058595D01*
X037711Y058595D01*
X037672Y058556D01*
X037529Y058211D01*
X037529Y057837D01*
X037672Y057492D01*
X037936Y057227D01*
X038282Y057084D01*
X038656Y057084D01*
X039001Y057227D01*
X039266Y057492D01*
X039409Y057837D01*
X039409Y058211D01*
X039266Y058556D01*
X039227Y058595D01*
X050248Y058595D01*
X050323Y058590D01*
X050467Y058552D01*
X050596Y058477D01*
X050702Y058372D01*
X050776Y058243D01*
X050815Y058099D01*
X050820Y058024D01*
X050820Y053424D01*
X050820Y053439D02*
X050805Y053439D01*
X050820Y053537D02*
X050706Y053537D01*
X050724Y053519D02*
X050724Y053519D01*
X050820Y053636D02*
X050608Y053636D01*
X050590Y053653D02*
X050590Y053653D01*
X050509Y053734D02*
X050820Y053734D01*
X050820Y053833D02*
X050411Y053833D01*
X050225Y053931D02*
X050820Y053931D01*
X050820Y054030D02*
X048959Y054030D01*
X048010Y054030D02*
X040382Y054030D01*
X040341Y054128D02*
X050820Y054128D01*
X050820Y054227D02*
X040301Y054227D01*
X040203Y054325D02*
X050820Y054325D01*
X050820Y054424D02*
X040105Y054424D01*
X039981Y054522D02*
X050820Y054522D01*
X050820Y054621D02*
X039743Y054621D01*
X039194Y054621D02*
X033743Y054621D01*
X033981Y054522D02*
X038957Y054522D01*
X038833Y054424D02*
X034105Y054424D01*
X034203Y054325D02*
X038734Y054325D01*
X038637Y054227D02*
X034301Y054227D01*
X034341Y054128D02*
X038596Y054128D01*
X038556Y054030D02*
X034382Y054030D01*
X034423Y053931D02*
X038515Y053931D01*
X038489Y053833D02*
X034449Y053833D01*
X034449Y053734D02*
X038489Y053734D01*
X038489Y053636D02*
X034449Y053636D01*
X034449Y053537D02*
X038489Y053537D01*
X038505Y053439D02*
X034432Y053439D01*
X034392Y053340D02*
X038546Y053340D01*
X038587Y053242D02*
X034351Y053242D01*
X034335Y053143D02*
X038628Y053143D01*
X038712Y053045D02*
X034376Y053045D01*
X034417Y052946D02*
X038810Y052946D01*
X038909Y052848D02*
X034449Y052848D01*
X034449Y052749D02*
X038954Y052749D01*
X038962Y052552D02*
X034449Y052552D01*
X034449Y052651D02*
X039267Y052651D01*
X039671Y052651D02*
X041615Y052651D01*
X041581Y052749D02*
X039983Y052749D01*
X040029Y052848D02*
X041952Y052848D01*
X042009Y052848D02*
X044904Y052848D01*
X044863Y052749D02*
X042380Y052749D01*
X042346Y052651D02*
X044823Y052651D01*
X044816Y052552D02*
X042486Y052552D01*
X042585Y052454D02*
X044816Y052454D01*
X044816Y052355D02*
X042683Y052355D01*
X042743Y052257D02*
X044816Y052257D01*
X044816Y052158D02*
X042784Y052158D01*
X042825Y052060D02*
X044816Y052060D01*
X044816Y051961D02*
X042848Y051961D01*
X042848Y051863D02*
X044816Y051863D01*
X044831Y051764D02*
X042848Y051764D01*
X043048Y051666D02*
X044822Y051666D01*
X044816Y051567D02*
X043286Y051567D01*
X043572Y051469D02*
X044816Y051469D01*
X044816Y051370D02*
X043690Y051370D01*
X043782Y051272D02*
X044816Y051272D01*
X044816Y051173D02*
X043823Y051173D01*
X043864Y051075D02*
X044816Y051075D01*
X044709Y050976D02*
X043870Y050976D01*
X043870Y050878D02*
X044583Y050878D01*
X044485Y050779D02*
X043870Y050779D01*
X043870Y050681D02*
X044386Y050681D01*
X044288Y050582D02*
X043870Y050582D01*
X043870Y050484D02*
X044189Y050484D01*
X044091Y050385D02*
X043870Y050385D01*
X043870Y050287D02*
X043992Y050287D01*
X043894Y050188D02*
X043870Y050188D01*
X042388Y052860D02*
X042009Y052860D01*
X042009Y053239D01*
X042013Y053239D01*
X042076Y053229D01*
X042137Y053209D01*
X042194Y053180D01*
X042246Y053142D01*
X042292Y053097D01*
X042329Y053045D01*
X042358Y052988D01*
X042378Y052927D01*
X042388Y052863D01*
X042388Y052860D01*
X042372Y052946D02*
X044997Y052946D01*
X045117Y053045D02*
X042329Y053045D01*
X042244Y053143D02*
X047035Y053143D01*
X047025Y053045D02*
X046915Y053045D01*
X047035Y053340D02*
X040392Y053340D01*
X040432Y053439D02*
X047070Y053439D01*
X047168Y053537D02*
X040449Y053537D01*
X040449Y053636D02*
X047267Y053636D01*
X047435Y053636D02*
X047535Y053636D01*
X047535Y053537D02*
X047435Y053537D01*
X047435Y053439D02*
X047535Y053439D01*
X047535Y053340D02*
X047435Y053340D01*
X047435Y053242D02*
X040351Y053242D01*
X040310Y053143D02*
X041717Y053143D01*
X041632Y053045D02*
X040226Y053045D01*
X040127Y052946D02*
X041590Y052946D01*
X041952Y052946D02*
X042009Y052946D01*
X042009Y053045D02*
X041952Y053045D01*
X041952Y053143D02*
X042009Y053143D01*
X042009Y052749D02*
X041952Y052749D01*
X041475Y052552D02*
X039976Y052552D01*
X040075Y052454D02*
X041376Y052454D01*
X041278Y052355D02*
X040173Y052355D01*
X040272Y052257D02*
X041218Y052257D01*
X041177Y052158D02*
X040329Y052158D01*
X040370Y052060D02*
X041136Y052060D01*
X041113Y051961D02*
X040411Y051961D01*
X040449Y051863D02*
X041113Y051863D01*
X041113Y051764D02*
X040449Y051764D01*
X040449Y051666D02*
X041113Y051666D01*
X041151Y051567D02*
X040449Y051567D01*
X040445Y051469D02*
X041128Y051469D01*
X041029Y051370D02*
X040404Y051370D01*
X040363Y051272D02*
X040931Y051272D01*
X040832Y051173D02*
X040323Y051173D01*
X040364Y051075D02*
X040734Y051075D01*
X040635Y050976D02*
X040404Y050976D01*
X040445Y050878D02*
X040537Y050878D01*
X038615Y051173D02*
X034322Y051173D01*
X034363Y051272D02*
X038575Y051272D01*
X038534Y051370D02*
X034404Y051370D01*
X034445Y051469D02*
X038493Y051469D01*
X038489Y051567D02*
X034449Y051567D01*
X034449Y051666D02*
X038489Y051666D01*
X038489Y051764D02*
X034449Y051764D01*
X034449Y051863D02*
X038489Y051863D01*
X038527Y051961D02*
X034411Y051961D01*
X034370Y052060D02*
X038568Y052060D01*
X038609Y052158D02*
X034329Y052158D01*
X034357Y052257D02*
X038666Y052257D01*
X038764Y052355D02*
X034398Y052355D01*
X034439Y052454D02*
X038863Y052454D01*
X038574Y051075D02*
X034256Y051075D01*
X034157Y050976D02*
X038533Y050976D01*
X038493Y050878D02*
X034059Y050878D01*
X033979Y050779D02*
X038489Y050779D01*
X038489Y050681D02*
X033519Y050681D01*
X033981Y050582D02*
X038489Y050582D01*
X038489Y050484D02*
X034045Y050484D01*
X034143Y050385D02*
X038528Y050385D01*
X038568Y050287D02*
X034242Y050287D01*
X034317Y050188D02*
X038609Y050188D01*
X038580Y050090D02*
X034357Y050090D01*
X034398Y049991D02*
X038540Y049991D01*
X038499Y049893D02*
X034439Y049893D01*
X034449Y049794D02*
X038489Y049794D01*
X038489Y049696D02*
X034449Y049696D01*
X034449Y049597D02*
X038489Y049597D01*
X038489Y049499D02*
X034449Y049499D01*
X034416Y049400D02*
X038521Y049400D01*
X038562Y049302D02*
X034376Y049302D01*
X034335Y049203D02*
X038603Y049203D01*
X038587Y049105D02*
X034351Y049105D01*
X034392Y049006D02*
X038546Y049006D01*
X038505Y048908D02*
X034433Y048908D01*
X034449Y048809D02*
X038489Y048809D01*
X038489Y048711D02*
X034449Y048711D01*
X034449Y048612D02*
X038489Y048612D01*
X038489Y048514D02*
X034449Y048514D01*
X034423Y048415D02*
X038515Y048415D01*
X038556Y048317D02*
X034382Y048317D01*
X034341Y048218D02*
X038597Y048218D01*
X038593Y048120D02*
X034345Y048120D01*
X034386Y048021D02*
X038552Y048021D01*
X038511Y047923D02*
X034427Y047923D01*
X034449Y047824D02*
X038489Y047824D01*
X038489Y047726D02*
X034449Y047726D01*
X034449Y047627D02*
X038489Y047627D01*
X038489Y047529D02*
X034449Y047529D01*
X034429Y047430D02*
X038509Y047430D01*
X038550Y047332D02*
X034388Y047332D01*
X034347Y047233D02*
X038591Y047233D01*
X038599Y047135D02*
X034339Y047135D01*
X034379Y047036D02*
X038558Y047036D01*
X038518Y046938D02*
X034420Y046938D01*
X034449Y046839D02*
X038489Y046839D01*
X038489Y046741D02*
X034449Y046741D01*
X034449Y046642D02*
X038489Y046642D01*
X038489Y046544D02*
X034449Y046544D01*
X034435Y046445D02*
X038503Y046445D01*
X038544Y046347D02*
X034394Y046347D01*
X034353Y046248D02*
X038584Y046248D01*
X038605Y046150D02*
X034332Y046150D01*
X034373Y046051D02*
X038565Y046051D01*
X038524Y045953D02*
X034414Y045953D01*
X034449Y045854D02*
X038489Y045854D01*
X038489Y045756D02*
X034449Y045756D01*
X034449Y045657D02*
X038489Y045657D01*
X038489Y045559D02*
X034449Y045559D01*
X034441Y045460D02*
X038497Y045460D01*
X038537Y045362D02*
X034400Y045362D01*
X034360Y045263D02*
X038578Y045263D01*
X038612Y045165D02*
X034326Y045165D01*
X034367Y045066D02*
X038571Y045066D01*
X038530Y044968D02*
X034408Y044968D01*
X034449Y044869D02*
X034449Y044479D01*
X034323Y044174D01*
X034449Y043869D01*
X034449Y043519D01*
X034774Y043654D01*
X035164Y043654D01*
X035469Y043527D01*
X035774Y043654D01*
X036164Y043654D01*
X036469Y043527D01*
X036774Y043654D01*
X037164Y043654D01*
X037469Y043527D01*
X037774Y043654D01*
X038164Y043654D01*
X038489Y043519D01*
X038489Y043869D01*
X038615Y044174D01*
X038489Y044479D01*
X038489Y044869D01*
X038489Y044771D02*
X034449Y044771D01*
X034449Y044672D02*
X038489Y044672D01*
X038489Y044574D02*
X034449Y044574D01*
X034447Y044475D02*
X038490Y044475D01*
X038531Y044377D02*
X034407Y044377D01*
X034366Y044278D02*
X038572Y044278D01*
X038613Y044180D02*
X034325Y044180D01*
X034361Y044081D02*
X038577Y044081D01*
X038536Y043983D02*
X034402Y043983D01*
X034442Y043884D02*
X038495Y043884D01*
X038489Y043786D02*
X034449Y043786D01*
X034449Y043687D02*
X038489Y043687D01*
X038489Y043589D02*
X038321Y043589D01*
X037617Y043589D02*
X037321Y043589D01*
X036617Y043589D02*
X036321Y043589D01*
X035617Y043589D02*
X035321Y043589D01*
X034617Y043589D02*
X034449Y043589D01*
X030465Y046213D02*
X029831Y046213D01*
X029827Y046220D01*
X029757Y046290D01*
X030123Y046656D01*
X030123Y046876D01*
X029523Y046876D01*
X029523Y046976D01*
X029423Y046976D01*
X029423Y047576D01*
X029204Y047576D01*
X028823Y047195D01*
X028823Y046976D01*
X029423Y046976D01*
X029423Y046876D01*
X028823Y046876D01*
X028823Y046720D01*
X028621Y046720D01*
X028292Y046631D01*
X027997Y046461D01*
X027756Y046220D01*
X027752Y046213D01*
X026485Y046213D01*
X026481Y046220D01*
X026411Y046290D01*
X026776Y046656D01*
X026776Y046876D01*
X026176Y046876D01*
X026176Y046976D01*
X026076Y046976D01*
X026076Y047576D01*
X025857Y047576D01*
X025476Y047195D01*
X025476Y046976D01*
X026076Y046976D01*
X026076Y046876D01*
X025476Y046876D01*
X025476Y046720D01*
X025275Y046720D01*
X024946Y046631D01*
X024651Y046461D01*
X024410Y046220D01*
X024406Y046213D01*
X023139Y046213D01*
X023134Y046220D01*
X023064Y046290D01*
X023430Y046656D01*
X023430Y046876D01*
X022830Y046876D01*
X022830Y046976D01*
X022730Y046976D01*
X022730Y047576D01*
X022511Y047576D01*
X022130Y047195D01*
X022130Y046976D01*
X022730Y046976D01*
X022730Y046876D01*
X022130Y046876D01*
X022130Y046720D01*
X021928Y046720D01*
X021599Y046631D01*
X021304Y046461D01*
X021063Y046220D01*
X021059Y046213D01*
X020918Y046213D01*
X020918Y048772D01*
X019487Y048772D01*
X019392Y048867D01*
X019482Y048957D01*
X019551Y049123D01*
X019574Y049129D01*
X019608Y049149D01*
X019636Y049177D01*
X019646Y049194D01*
X019656Y049177D01*
X019684Y049149D01*
X019718Y049129D01*
X019756Y049119D01*
X019886Y049119D01*
X019886Y049694D01*
X019906Y049694D01*
X019906Y049714D01*
X019886Y049714D01*
X019886Y050289D01*
X019756Y050289D01*
X019718Y050278D01*
X019684Y050259D01*
X019656Y050231D01*
X019646Y050213D01*
X019636Y050231D01*
X019608Y050259D01*
X019574Y050278D01*
X019551Y050285D01*
X019482Y050450D01*
X019389Y050544D01*
X029776Y050544D01*
X030465Y049855D01*
X030465Y046213D01*
X030465Y046248D02*
X029799Y046248D01*
X029813Y046347D02*
X030465Y046347D01*
X030465Y046445D02*
X029912Y046445D01*
X030010Y046544D02*
X030465Y046544D01*
X030465Y046642D02*
X030109Y046642D01*
X030123Y046741D02*
X030465Y046741D01*
X030465Y046839D02*
X030123Y046839D01*
X030123Y046976D02*
X030123Y047195D01*
X029742Y047576D01*
X029523Y047576D01*
X029523Y046976D01*
X030123Y046976D01*
X030123Y047036D02*
X030465Y047036D01*
X030465Y046938D02*
X029523Y046938D01*
X029523Y047036D02*
X029423Y047036D01*
X029423Y046938D02*
X026176Y046938D01*
X026176Y046976D02*
X026776Y046976D01*
X026776Y047195D01*
X026396Y047576D01*
X026176Y047576D01*
X026176Y046976D01*
X026176Y047036D02*
X026076Y047036D01*
X026076Y046938D02*
X022830Y046938D01*
X022830Y046976D02*
X023430Y046976D01*
X023430Y047195D01*
X023049Y047576D01*
X022830Y047576D01*
X022830Y046976D01*
X022830Y047036D02*
X022730Y047036D01*
X022730Y046938D02*
X020918Y046938D01*
X020918Y047036D02*
X022130Y047036D01*
X022130Y047135D02*
X020918Y047135D01*
X020918Y047233D02*
X022168Y047233D01*
X022267Y047332D02*
X020918Y047332D01*
X020918Y047430D02*
X022365Y047430D01*
X022464Y047529D02*
X020918Y047529D01*
X020918Y047627D02*
X030465Y047627D01*
X030465Y047529D02*
X029789Y047529D01*
X029888Y047430D02*
X030465Y047430D01*
X030465Y047332D02*
X029986Y047332D01*
X030085Y047233D02*
X030465Y047233D01*
X030465Y047135D02*
X030123Y047135D01*
X030465Y047726D02*
X020918Y047726D01*
X020918Y047824D02*
X030465Y047824D01*
X030465Y047923D02*
X020918Y047923D01*
X020918Y048021D02*
X030465Y048021D01*
X030465Y048120D02*
X020918Y048120D01*
X020918Y048218D02*
X030465Y048218D01*
X030465Y048317D02*
X020918Y048317D01*
X020918Y048415D02*
X030465Y048415D01*
X030465Y048514D02*
X020918Y048514D01*
X020918Y048612D02*
X030465Y048612D01*
X030465Y048711D02*
X020918Y048711D01*
X020136Y049177D02*
X020156Y049211D01*
X020166Y049249D01*
X020166Y049694D01*
X019906Y049694D01*
X019906Y049119D01*
X020036Y049119D01*
X020074Y049129D01*
X020108Y049149D01*
X020136Y049177D01*
X020151Y049203D02*
X030465Y049203D01*
X030465Y049105D02*
X019543Y049105D01*
X019503Y049006D02*
X030465Y049006D01*
X030465Y048908D02*
X019433Y048908D01*
X019450Y048809D02*
X030465Y048809D01*
X030465Y049302D02*
X020166Y049302D01*
X020166Y049400D02*
X030465Y049400D01*
X030465Y049499D02*
X020166Y049499D01*
X020166Y049597D02*
X030465Y049597D01*
X030465Y049696D02*
X019906Y049696D01*
X019906Y049714D02*
X020166Y049714D01*
X020166Y050158D01*
X020156Y050197D01*
X020136Y050231D01*
X020108Y050259D01*
X020074Y050278D01*
X020036Y050289D01*
X019906Y050289D01*
X019906Y049714D01*
X019906Y049794D02*
X019886Y049794D01*
X019886Y049893D02*
X019906Y049893D01*
X019906Y049991D02*
X019886Y049991D01*
X019886Y050090D02*
X019906Y050090D01*
X019906Y050188D02*
X019886Y050188D01*
X019886Y050287D02*
X019906Y050287D01*
X020043Y050287D02*
X030033Y050287D01*
X029935Y050385D02*
X019509Y050385D01*
X019550Y050287D02*
X019749Y050287D01*
X019449Y050484D02*
X029836Y050484D01*
X030132Y050188D02*
X020158Y050188D01*
X020166Y050090D02*
X030230Y050090D01*
X030329Y049991D02*
X020166Y049991D01*
X020166Y049893D02*
X030427Y049893D01*
X030465Y049794D02*
X020166Y049794D01*
X019906Y049597D02*
X019886Y049597D01*
X019886Y049499D02*
X019906Y049499D01*
X019906Y049400D02*
X019886Y049400D01*
X019886Y049302D02*
X019906Y049302D01*
X019906Y049203D02*
X019886Y049203D01*
X020918Y046839D02*
X022130Y046839D01*
X022130Y046741D02*
X020918Y046741D01*
X020918Y046642D02*
X021639Y046642D01*
X021447Y046544D02*
X020918Y046544D01*
X020918Y046445D02*
X021288Y046445D01*
X021190Y046347D02*
X020918Y046347D01*
X020918Y046248D02*
X021091Y046248D01*
X022730Y047135D02*
X022830Y047135D01*
X022830Y047233D02*
X022730Y047233D01*
X022730Y047332D02*
X022830Y047332D01*
X022830Y047430D02*
X022730Y047430D01*
X022730Y047529D02*
X022830Y047529D01*
X023096Y047529D02*
X025810Y047529D01*
X025712Y047430D02*
X023195Y047430D01*
X023293Y047332D02*
X025613Y047332D01*
X025515Y047233D02*
X023392Y047233D01*
X023430Y047135D02*
X025476Y047135D01*
X025476Y047036D02*
X023430Y047036D01*
X023430Y046839D02*
X025476Y046839D01*
X025476Y046741D02*
X023430Y046741D01*
X023416Y046642D02*
X024985Y046642D01*
X024794Y046544D02*
X023317Y046544D01*
X023219Y046445D02*
X024635Y046445D01*
X024536Y046347D02*
X023120Y046347D01*
X023106Y046248D02*
X024438Y046248D01*
X026076Y047135D02*
X026176Y047135D01*
X026176Y047233D02*
X026076Y047233D01*
X026076Y047332D02*
X026176Y047332D01*
X026176Y047430D02*
X026076Y047430D01*
X026076Y047529D02*
X026176Y047529D01*
X026443Y047529D02*
X029157Y047529D01*
X029058Y047430D02*
X026541Y047430D01*
X026640Y047332D02*
X028960Y047332D01*
X028861Y047233D02*
X026738Y047233D01*
X026776Y047135D02*
X028823Y047135D01*
X028823Y047036D02*
X026776Y047036D01*
X026776Y046839D02*
X028823Y046839D01*
X028823Y046741D02*
X026776Y046741D01*
X026762Y046642D02*
X028332Y046642D01*
X028140Y046544D02*
X026664Y046544D01*
X026565Y046445D02*
X027981Y046445D01*
X027883Y046347D02*
X026467Y046347D01*
X026453Y046248D02*
X027784Y046248D01*
X029423Y047135D02*
X029523Y047135D01*
X029523Y047233D02*
X029423Y047233D01*
X029423Y047332D02*
X029523Y047332D01*
X029523Y047430D02*
X029423Y047430D01*
X029423Y047529D02*
X029523Y047529D01*
X030778Y051272D02*
X023247Y051272D01*
X023345Y051370D02*
X030778Y051370D01*
X030778Y051469D02*
X023444Y051469D01*
X023542Y051567D02*
X030778Y051567D01*
X030778Y051666D02*
X023641Y051666D01*
X023739Y051764D02*
X030778Y051764D01*
X030778Y051863D02*
X023811Y051863D01*
X023868Y051961D02*
X030778Y051961D01*
X030778Y052060D02*
X023923Y052060D01*
X023952Y052158D02*
X025953Y052158D01*
X025783Y052257D02*
X024050Y052257D01*
X024149Y052355D02*
X025685Y052355D01*
X025586Y052454D02*
X024247Y052454D01*
X024346Y052552D02*
X025505Y052552D01*
X025460Y052651D02*
X024444Y052651D01*
X024543Y052749D02*
X025421Y052749D01*
X025383Y052848D02*
X024641Y052848D01*
X024740Y052946D02*
X025371Y052946D01*
X025371Y053045D02*
X024838Y053045D01*
X024937Y053143D02*
X025371Y053143D01*
X025371Y053242D02*
X025035Y053242D01*
X025134Y053340D02*
X025405Y053340D01*
X025421Y053439D02*
X025232Y053439D01*
X025331Y053537D02*
X025487Y053537D01*
X025543Y053636D02*
X025429Y053636D01*
X025528Y053734D02*
X025641Y053734D01*
X028185Y052158D02*
X030778Y052158D01*
X030778Y052257D02*
X028417Y052257D01*
X028516Y052355D02*
X030812Y052355D01*
X030853Y052454D02*
X028614Y052454D01*
X028713Y052552D02*
X030894Y052552D01*
X030991Y052651D02*
X028811Y052651D01*
X028910Y052749D02*
X031089Y052749D01*
X031188Y052848D02*
X029008Y052848D01*
X029107Y052946D02*
X031286Y052946D01*
X031385Y053045D02*
X029205Y053045D01*
X029304Y053143D02*
X031430Y053143D01*
X031430Y053242D02*
X029402Y053242D01*
X029501Y053340D02*
X031430Y053340D01*
X031430Y053439D02*
X029599Y053439D01*
X029698Y053537D02*
X031430Y053537D01*
X031430Y053636D02*
X029796Y053636D01*
X029895Y053734D02*
X031430Y053734D01*
X031430Y053833D02*
X029993Y053833D01*
X030092Y053931D02*
X031430Y053931D01*
X031430Y054030D02*
X030190Y054030D01*
X030289Y054128D02*
X031437Y054128D01*
X031478Y054227D02*
X030387Y054227D01*
X030486Y054325D02*
X031519Y054325D01*
X031612Y054424D02*
X030584Y054424D01*
X030683Y054522D02*
X031734Y054522D01*
X031130Y055212D02*
X050820Y055212D01*
X050820Y055310D02*
X031130Y055310D01*
X031130Y055409D02*
X050820Y055409D01*
X050820Y055507D02*
X043944Y055507D01*
X044019Y055527D02*
X044293Y055685D01*
X044516Y055909D01*
X044674Y056183D01*
X044756Y056488D01*
X044756Y056804D01*
X044674Y057109D01*
X044516Y057383D01*
X044293Y057607D01*
X044019Y057765D01*
X043714Y057847D01*
X043397Y057847D01*
X043092Y057765D01*
X042818Y057607D01*
X042595Y057383D01*
X042437Y057109D01*
X042355Y056804D01*
X042355Y056488D01*
X042437Y056183D01*
X042595Y055909D01*
X042818Y055685D01*
X043092Y055527D01*
X043397Y055446D01*
X043714Y055446D01*
X044019Y055527D01*
X044155Y055606D02*
X050820Y055606D01*
X050820Y055704D02*
X044311Y055704D01*
X044410Y055803D02*
X050820Y055803D01*
X050820Y055901D02*
X044508Y055901D01*
X044569Y056000D02*
X050820Y056000D01*
X050820Y056098D02*
X044625Y056098D01*
X044678Y056197D02*
X050820Y056197D01*
X050820Y056295D02*
X044704Y056295D01*
X044731Y056394D02*
X050820Y056394D01*
X050820Y056492D02*
X044756Y056492D01*
X044756Y056591D02*
X050820Y056591D01*
X050820Y056689D02*
X044756Y056689D01*
X044756Y056788D02*
X050820Y056788D01*
X050820Y056886D02*
X044734Y056886D01*
X044708Y056985D02*
X050820Y056985D01*
X050820Y057083D02*
X044681Y057083D01*
X044633Y057182D02*
X050820Y057182D01*
X050820Y057280D02*
X044576Y057280D01*
X044519Y057379D02*
X050820Y057379D01*
X050820Y057477D02*
X044422Y057477D01*
X044324Y057576D02*
X050820Y057576D01*
X050820Y057674D02*
X044176Y057674D01*
X043990Y057773D02*
X050820Y057773D01*
X050820Y057871D02*
X039409Y057871D01*
X039409Y057970D02*
X050820Y057970D01*
X050817Y058068D02*
X039409Y058068D01*
X039409Y058167D02*
X050796Y058167D01*
X050763Y058265D02*
X039386Y058265D01*
X039346Y058364D02*
X050706Y058364D01*
X050611Y058462D02*
X039305Y058462D01*
X039262Y058561D02*
X050433Y058561D01*
X050820Y055113D02*
X031104Y055113D01*
X031063Y055015D02*
X050820Y055015D01*
X050820Y054916D02*
X031022Y054916D01*
X030978Y054818D02*
X050820Y054818D01*
X050820Y054719D02*
X030880Y054719D01*
X030781Y054621D02*
X033194Y054621D01*
X032957Y054522D02*
X032936Y054522D01*
X031130Y055507D02*
X043167Y055507D01*
X042956Y055606D02*
X031130Y055606D01*
X031130Y055704D02*
X042800Y055704D01*
X042701Y055803D02*
X031130Y055803D01*
X031130Y055901D02*
X042603Y055901D01*
X042542Y056000D02*
X031130Y056000D01*
X031130Y056098D02*
X042486Y056098D01*
X042433Y056197D02*
X031130Y056197D01*
X031130Y056295D02*
X042407Y056295D01*
X042380Y056394D02*
X031130Y056394D01*
X031130Y056492D02*
X042355Y056492D01*
X042355Y056591D02*
X031105Y056591D01*
X031095Y056689D02*
X042355Y056689D01*
X042355Y056788D02*
X034395Y056788D01*
X034632Y056886D02*
X042377Y056886D01*
X042403Y056985D02*
X034787Y056985D01*
X034886Y057083D02*
X042430Y057083D01*
X042478Y057182D02*
X038892Y057182D01*
X039054Y057280D02*
X042535Y057280D01*
X042592Y057379D02*
X039153Y057379D01*
X039251Y057477D02*
X042689Y057477D01*
X042787Y057576D02*
X039301Y057576D01*
X039341Y057674D02*
X042935Y057674D01*
X043121Y057773D02*
X039382Y057773D01*
X038046Y057182D02*
X034984Y057182D01*
X035083Y057280D02*
X037883Y057280D01*
X037785Y057379D02*
X035181Y057379D01*
X035280Y057477D02*
X037686Y057477D01*
X037637Y057576D02*
X035322Y057576D01*
X035363Y057674D02*
X037596Y057674D01*
X037556Y057773D02*
X035404Y057773D01*
X035429Y057871D02*
X037529Y057871D01*
X037529Y057970D02*
X035429Y057970D01*
X035429Y058068D02*
X037529Y058068D01*
X037529Y058167D02*
X035429Y058167D01*
X035408Y058265D02*
X037551Y058265D01*
X037592Y058364D02*
X035367Y058364D01*
X035327Y058462D02*
X037633Y058462D01*
X037676Y058561D02*
X035286Y058561D01*
X040423Y053931D02*
X047912Y053931D01*
X047813Y053833D02*
X040449Y053833D01*
X040449Y053734D02*
X047715Y053734D01*
X043627Y041520D02*
X043622Y041520D01*
X043627Y041422D02*
X043524Y041422D01*
X043425Y041323D02*
X043627Y041323D01*
X043627Y041225D02*
X043327Y041225D01*
X043228Y041126D02*
X043627Y041126D01*
X043627Y041028D02*
X043130Y041028D01*
X043031Y040929D02*
X043627Y040929D01*
X043627Y040831D02*
X042933Y040831D01*
X042834Y040732D02*
X043627Y040732D01*
X043627Y040634D02*
X042736Y040634D01*
X042637Y040535D02*
X043627Y040535D01*
X043627Y040437D02*
X042539Y040437D01*
X042440Y040338D02*
X043627Y040338D01*
X043627Y040240D02*
X042342Y040240D01*
X042243Y040141D02*
X043591Y040141D01*
X043493Y040043D02*
X042145Y040043D01*
X042046Y039944D02*
X043394Y039944D01*
X043296Y039846D02*
X041948Y039846D01*
X041849Y039747D02*
X043197Y039747D01*
X043099Y039649D02*
X041751Y039649D01*
X041652Y039550D02*
X043000Y039550D01*
X042902Y039452D02*
X041554Y039452D01*
X041455Y039353D02*
X042803Y039353D01*
X042705Y039255D02*
X041357Y039255D01*
X041258Y039156D02*
X042606Y039156D01*
X042508Y039058D02*
X041160Y039058D01*
X041069Y038959D02*
X042435Y038959D01*
X042378Y038861D02*
X041069Y038861D01*
X041069Y038762D02*
X042323Y038762D01*
X042296Y038664D02*
X041069Y038664D01*
X041069Y038565D02*
X042270Y038565D01*
X042249Y038467D02*
X041069Y038467D01*
X041069Y038368D02*
X042249Y038368D01*
X042249Y038270D02*
X041030Y038270D01*
X040989Y038171D02*
X042249Y038171D01*
X042249Y038073D02*
X040979Y038073D01*
X040979Y037974D02*
X042249Y037974D01*
X042249Y037876D02*
X040979Y037876D01*
X040979Y037777D02*
X042249Y037777D01*
X042249Y037679D02*
X040979Y037679D01*
X040979Y037580D02*
X042249Y037580D01*
X042249Y037482D02*
X040979Y037482D01*
X040979Y037383D02*
X042249Y037383D01*
X042249Y037285D02*
X040979Y037285D01*
X040973Y037186D02*
X042249Y037186D01*
X042249Y037088D02*
X040932Y037088D01*
X040891Y036989D02*
X042249Y036989D01*
X042249Y036891D02*
X040834Y036891D01*
X040735Y036792D02*
X042249Y036792D01*
X042249Y036694D02*
X040637Y036694D01*
X040538Y036595D02*
X042249Y036595D01*
X042249Y036497D02*
X040440Y036497D01*
X040329Y036398D02*
X042249Y036398D01*
X042249Y036300D02*
X040091Y036300D01*
X028619Y024775D02*
X027209Y024775D01*
X027209Y024677D02*
X028619Y024677D01*
X028619Y024578D02*
X027209Y024578D01*
X027209Y024381D02*
X028619Y024381D01*
X028619Y024283D02*
X027209Y024283D01*
X027209Y024184D02*
X028619Y024184D01*
X028619Y024086D02*
X027209Y024086D01*
X027209Y023987D02*
X028619Y023987D01*
X028619Y023889D02*
X027186Y023889D01*
X026637Y024480D02*
X028619Y024480D01*
X026637Y024578D02*
X026537Y024578D01*
X026537Y024677D02*
X026637Y024677D01*
X026637Y024775D02*
X026537Y024775D01*
X026537Y024874D02*
X026637Y024874D01*
X026637Y024972D02*
X026537Y024972D01*
X017392Y023987D02*
X011383Y023987D01*
X011383Y024086D02*
X017303Y024086D01*
X017204Y024184D02*
X011383Y024184D01*
X011383Y024283D02*
X017106Y024283D01*
X017007Y024381D02*
X011383Y024381D01*
X011383Y024578D02*
X016810Y024578D01*
X016712Y024677D02*
X011383Y024677D01*
X010810Y024480D02*
X016909Y024480D01*
X017392Y023889D02*
X011359Y023889D01*
X010810Y023889D02*
X010710Y023889D01*
X010710Y023987D02*
X010810Y023987D01*
X010810Y024086D02*
X010710Y024086D01*
X010710Y024184D02*
X010810Y024184D01*
X010810Y024283D02*
X010710Y024283D01*
X010710Y024381D02*
X010810Y024381D01*
X010710Y024480D02*
X007674Y024480D01*
X007845Y024578D02*
X010138Y024578D01*
X010138Y024677D02*
X007998Y024677D01*
X007319Y024381D02*
X010138Y024381D01*
X010138Y024283D02*
X003895Y024283D01*
X003929Y024277D02*
X003852Y024289D01*
X003852Y023797D01*
X004344Y023797D01*
X004332Y023874D01*
X004305Y023956D01*
X004267Y024032D01*
X004216Y024101D01*
X004156Y024162D01*
X004087Y024212D01*
X004010Y024251D01*
X003929Y024277D01*
X003852Y024283D02*
X003752Y024283D01*
X003752Y024289D02*
X003674Y024277D01*
X003593Y024251D01*
X003517Y024212D01*
X003447Y024162D01*
X003387Y024101D01*
X003337Y024032D01*
X003298Y023956D01*
X003271Y023874D01*
X003259Y023797D01*
X003752Y023797D01*
X003752Y024289D01*
X003708Y024283D02*
X000858Y024283D01*
X000858Y024381D02*
X003625Y024381D01*
X003752Y024184D02*
X003852Y024184D01*
X003852Y024086D02*
X003752Y024086D01*
X003752Y023987D02*
X003852Y023987D01*
X003852Y023889D02*
X003752Y023889D01*
X003752Y023797D02*
X003852Y023797D01*
X003852Y023697D01*
X004344Y023697D01*
X004332Y023620D01*
X004305Y023538D01*
X004267Y023462D01*
X004216Y023393D01*
X004156Y023332D01*
X004087Y023282D01*
X004010Y023243D01*
X003929Y023217D01*
X003852Y023204D01*
X003852Y023697D01*
X003752Y023697D01*
X003752Y023204D01*
X003674Y023217D01*
X003593Y023243D01*
X003517Y023282D01*
X003447Y023332D01*
X003387Y023393D01*
X003337Y023462D01*
X003298Y023538D01*
X003271Y023620D01*
X003259Y023697D01*
X003752Y023697D01*
X003752Y023797D01*
X003752Y023790D02*
X000858Y023790D01*
X000858Y023692D02*
X003260Y023692D01*
X003280Y023593D02*
X000858Y023593D01*
X000858Y023495D02*
X003320Y023495D01*
X003384Y023396D02*
X000858Y023396D01*
X000858Y023298D02*
X003495Y023298D01*
X003599Y023101D02*
X000858Y023101D01*
X000858Y023199D02*
X017392Y023199D01*
X017392Y023101D02*
X005232Y023101D01*
X005575Y023002D02*
X017392Y023002D01*
X017392Y022904D02*
X005746Y022904D01*
X005895Y022805D02*
X017392Y022805D01*
X017392Y022707D02*
X005993Y022707D01*
X006092Y022608D02*
X017392Y022608D01*
X017392Y022510D02*
X006190Y022510D01*
X006289Y022411D02*
X017392Y022411D01*
X017392Y022313D02*
X006387Y022313D01*
X006486Y022214D02*
X017392Y022214D01*
X017392Y022116D02*
X006584Y022116D01*
X006683Y022017D02*
X017392Y022017D01*
X017392Y021919D02*
X006781Y021919D01*
X006880Y021820D02*
X017392Y021820D01*
X017392Y021722D02*
X006978Y021722D01*
X007077Y021623D02*
X017392Y021623D01*
X017392Y021525D02*
X007175Y021525D01*
X007274Y021426D02*
X017392Y021426D01*
X017392Y021328D02*
X007372Y021328D01*
X007471Y021229D02*
X017392Y021229D01*
X017392Y021131D02*
X007569Y021131D01*
X007668Y021032D02*
X017392Y021032D01*
X017392Y020934D02*
X007766Y020934D01*
X007865Y020835D02*
X017392Y020835D01*
X017392Y020737D02*
X007963Y020737D01*
X008062Y020638D02*
X017392Y020638D01*
X017392Y020540D02*
X008160Y020540D01*
X008259Y020441D02*
X017392Y020441D01*
X017392Y020343D02*
X008357Y020343D01*
X008456Y020244D02*
X017392Y020244D01*
X017392Y020146D02*
X008554Y020146D01*
X008653Y020047D02*
X017392Y020047D01*
X017392Y019949D02*
X008751Y019949D01*
X008850Y019850D02*
X017392Y019850D01*
X017392Y019752D02*
X008948Y019752D01*
X009047Y019653D02*
X017392Y019653D01*
X017392Y019555D02*
X009145Y019555D01*
X009244Y019456D02*
X017392Y019456D01*
X017392Y019358D02*
X009342Y019358D01*
X009441Y019259D02*
X017392Y019259D01*
X017392Y019161D02*
X009539Y019161D01*
X009638Y019062D02*
X017392Y019062D01*
X017392Y018964D02*
X009736Y018964D01*
X009835Y018865D02*
X017392Y018865D01*
X017392Y018767D02*
X009933Y018767D01*
X010032Y018668D02*
X017392Y018668D01*
X017392Y018570D02*
X010130Y018570D01*
X010229Y018471D02*
X017392Y018471D01*
X017392Y018373D02*
X010327Y018373D01*
X010426Y018274D02*
X017392Y018274D01*
X017392Y018176D02*
X010524Y018176D01*
X010623Y018077D02*
X017392Y018077D01*
X017392Y017979D02*
X010721Y017979D01*
X010820Y017880D02*
X017392Y017880D01*
X017392Y017782D02*
X010918Y017782D01*
X011017Y017683D02*
X017392Y017683D01*
X017392Y017585D02*
X011115Y017585D01*
X011214Y017486D02*
X017392Y017486D01*
X017392Y017388D02*
X011312Y017388D01*
X011411Y017289D02*
X017392Y017289D01*
X017392Y017191D02*
X011509Y017191D01*
X011608Y017092D02*
X014830Y017092D01*
X014854Y017099D02*
X014549Y017017D01*
X014275Y016859D01*
X014052Y016635D01*
X013893Y016361D01*
X013812Y016056D01*
X013812Y015740D01*
X013893Y015435D01*
X014052Y015161D01*
X014275Y014937D01*
X014549Y014779D01*
X014854Y014697D01*
X015170Y014697D01*
X015476Y014779D01*
X015749Y014937D01*
X015973Y015161D01*
X016131Y015435D01*
X016213Y015740D01*
X016213Y016056D01*
X016131Y016361D01*
X015973Y016635D01*
X015749Y016859D01*
X015476Y017017D01*
X015170Y017099D01*
X014854Y017099D01*
X015195Y017092D02*
X017392Y017092D01*
X017392Y016994D02*
X015516Y016994D01*
X015686Y016895D02*
X017392Y016895D01*
X017392Y016797D02*
X015812Y016797D01*
X015910Y016698D02*
X017392Y016698D01*
X017392Y016600D02*
X015993Y016600D01*
X016050Y016501D02*
X017392Y016501D01*
X017392Y016403D02*
X016107Y016403D01*
X016146Y016304D02*
X017392Y016304D01*
X017392Y016206D02*
X016173Y016206D01*
X016199Y016107D02*
X017392Y016107D01*
X017392Y016009D02*
X016213Y016009D01*
X016213Y015910D02*
X017392Y015910D01*
X017392Y015812D02*
X016213Y015812D01*
X016206Y015713D02*
X017392Y015713D01*
X017392Y015615D02*
X016179Y015615D01*
X016153Y015516D02*
X017392Y015516D01*
X017392Y015418D02*
X016121Y015418D01*
X016064Y015319D02*
X017392Y015319D01*
X017392Y015221D02*
X016007Y015221D01*
X015934Y015122D02*
X017392Y015122D01*
X017392Y015024D02*
X015836Y015024D01*
X015728Y014925D02*
X017392Y014925D01*
X017392Y014827D02*
X015557Y014827D01*
X015284Y014728D02*
X017392Y014728D01*
X017392Y014630D02*
X014070Y014630D01*
X013972Y014728D02*
X014740Y014728D01*
X014467Y014827D02*
X013873Y014827D01*
X013775Y014925D02*
X014296Y014925D01*
X014189Y015024D02*
X013676Y015024D01*
X013578Y015122D02*
X014090Y015122D01*
X014017Y015221D02*
X013479Y015221D01*
X013381Y015319D02*
X013960Y015319D01*
X013903Y015418D02*
X013282Y015418D01*
X013184Y015516D02*
X013872Y015516D01*
X013845Y015615D02*
X013085Y015615D01*
X012987Y015713D02*
X013819Y015713D01*
X013812Y015812D02*
X012888Y015812D01*
X012790Y015910D02*
X013812Y015910D01*
X013812Y016009D02*
X012691Y016009D01*
X012593Y016107D02*
X013825Y016107D01*
X013852Y016206D02*
X012494Y016206D01*
X012396Y016304D02*
X013878Y016304D01*
X013917Y016403D02*
X012297Y016403D01*
X012199Y016501D02*
X013974Y016501D01*
X014031Y016600D02*
X012100Y016600D01*
X012002Y016698D02*
X014114Y016698D01*
X014213Y016797D02*
X011903Y016797D01*
X011805Y016895D02*
X014338Y016895D01*
X014509Y016994D02*
X011706Y016994D01*
X014169Y014531D02*
X017392Y014531D01*
X017392Y014433D02*
X014267Y014433D01*
X014366Y014334D02*
X017392Y014334D01*
X017392Y014236D02*
X014464Y014236D01*
X014563Y014137D02*
X017392Y014137D01*
X017392Y014039D02*
X014661Y014039D01*
X014760Y013940D02*
X017392Y013940D01*
X017392Y013842D02*
X014858Y013842D01*
X014957Y013743D02*
X017392Y013743D01*
X017392Y013645D02*
X015055Y013645D01*
X015154Y013546D02*
X017392Y013546D01*
X017392Y013448D02*
X015252Y013448D01*
X015351Y013349D02*
X017392Y013349D01*
X017392Y013251D02*
X015449Y013251D01*
X015548Y013152D02*
X017392Y013152D01*
X017392Y013054D02*
X015646Y013054D01*
X015745Y012955D02*
X017392Y012955D01*
X017392Y012857D02*
X015843Y012857D01*
X015942Y012758D02*
X017392Y012758D01*
X017392Y012660D02*
X016040Y012660D01*
X016139Y012561D02*
X017392Y012561D01*
X017392Y012463D02*
X016237Y012463D01*
X016336Y012364D02*
X017392Y012364D01*
X017392Y012266D02*
X016434Y012266D01*
X016533Y012167D02*
X017392Y012167D01*
X017392Y012069D02*
X016631Y012069D01*
X016713Y011970D02*
X017392Y011970D01*
X017392Y011872D02*
X016770Y011872D01*
X016827Y011773D02*
X017392Y011773D01*
X017392Y011675D02*
X016877Y011675D01*
X016903Y011576D02*
X017395Y011576D01*
X017421Y011478D02*
X016929Y011478D01*
X016956Y011379D02*
X017448Y011379D01*
X017474Y011281D02*
X016963Y011281D01*
X016963Y011182D02*
X017518Y011182D01*
X017575Y011084D02*
X016963Y011084D01*
X016960Y010985D02*
X017632Y010985D01*
X017642Y010887D02*
X016934Y010887D01*
X016907Y010788D02*
X017642Y010788D01*
X017642Y010690D02*
X016881Y010690D01*
X016837Y010591D02*
X017642Y010591D01*
X017642Y010493D02*
X016780Y010493D01*
X016723Y010394D02*
X017642Y010394D01*
X017642Y010296D02*
X016713Y010296D01*
X016713Y010197D02*
X017642Y010197D01*
X017642Y010099D02*
X016713Y010099D01*
X016713Y010000D02*
X017642Y010000D01*
X017642Y009902D02*
X016713Y009902D01*
X016771Y009803D02*
X017642Y009803D01*
X017642Y009705D02*
X016870Y009705D01*
X016968Y009606D02*
X017642Y009606D01*
X017642Y009508D02*
X017067Y009508D01*
X017165Y009409D02*
X017642Y009409D01*
X017642Y009311D02*
X017264Y009311D01*
X017362Y009212D02*
X017642Y009212D01*
X017642Y009114D02*
X017461Y009114D01*
X017559Y009015D02*
X017642Y009015D01*
X013242Y004484D02*
X013051Y004484D01*
X013048Y004476D02*
X013075Y004557D01*
X013087Y004633D01*
X012208Y004633D01*
X012208Y004143D01*
X012590Y004143D01*
X012674Y004157D01*
X012755Y004183D01*
X012831Y004221D01*
X012900Y004271D01*
X012960Y004332D01*
X013010Y004400D01*
X013048Y004476D01*
X012999Y004386D02*
X013341Y004386D01*
X013439Y004287D02*
X012915Y004287D01*
X012766Y004189D02*
X013538Y004189D01*
X013636Y004090D02*
X010807Y004090D01*
X010807Y003992D02*
X013735Y003992D01*
X013833Y003893D02*
X010807Y003893D01*
X010807Y003795D02*
X013932Y003795D01*
X014030Y003696D02*
X012789Y003696D01*
X012747Y003713D02*
X011569Y003713D01*
X011201Y003561D01*
X010920Y003280D01*
X010807Y003007D01*
X010807Y009982D01*
X010965Y010255D01*
X011057Y010601D01*
X011057Y010646D01*
X011540Y010163D01*
X011540Y006500D01*
X011616Y006218D01*
X011762Y005965D01*
X011968Y005758D01*
X012503Y005223D01*
X012208Y005223D01*
X012208Y004733D01*
X012993Y004733D01*
X014626Y003100D01*
X014879Y002954D01*
X015161Y002879D01*
X016279Y002879D01*
X016055Y002785D01*
X015790Y002521D01*
X015647Y002176D01*
X015647Y001949D01*
X013198Y001949D01*
X013396Y002147D01*
X013548Y002514D01*
X015787Y002514D01*
X015746Y002416D02*
X013507Y002416D01*
X013548Y002514D02*
X013548Y002912D01*
X013396Y003280D01*
X013114Y003561D01*
X012747Y003713D01*
X013026Y003598D02*
X014129Y003598D01*
X014227Y003499D02*
X013176Y003499D01*
X013275Y003401D02*
X014326Y003401D01*
X014424Y003302D02*
X013373Y003302D01*
X013427Y003204D02*
X014523Y003204D01*
X014621Y003105D02*
X013468Y003105D01*
X013509Y003007D02*
X014788Y003007D01*
X015052Y002908D02*
X013548Y002908D01*
X013548Y002810D02*
X016113Y002810D01*
X015980Y002711D02*
X013548Y002711D01*
X013548Y002613D02*
X015882Y002613D01*
X015706Y002317D02*
X013466Y002317D01*
X013425Y002219D02*
X015665Y002219D01*
X015647Y002120D02*
X013369Y002120D01*
X013270Y002022D02*
X015647Y002022D01*
X013144Y004583D02*
X013079Y004583D01*
X013045Y004681D02*
X012208Y004681D01*
X012208Y004633D02*
X012208Y004733D01*
X012108Y004733D01*
X012108Y004633D01*
X012208Y004633D01*
X012208Y004583D02*
X012108Y004583D01*
X012108Y004633D02*
X012108Y004143D01*
X011725Y004143D01*
X011641Y004157D01*
X011561Y004183D01*
X011485Y004221D01*
X011416Y004271D01*
X011356Y004332D01*
X011306Y004400D01*
X011267Y004476D01*
X011241Y004557D01*
X011229Y004633D01*
X012108Y004633D01*
X012108Y004681D02*
X010807Y004681D01*
X010807Y004583D02*
X011237Y004583D01*
X011265Y004484D02*
X010807Y004484D01*
X010807Y004386D02*
X011317Y004386D01*
X011400Y004287D02*
X010807Y004287D01*
X010807Y004189D02*
X011550Y004189D01*
X011527Y003696D02*
X010807Y003696D01*
X010807Y003598D02*
X011289Y003598D01*
X011139Y003499D02*
X010807Y003499D01*
X010807Y003401D02*
X011041Y003401D01*
X010942Y003302D02*
X010807Y003302D01*
X010807Y003204D02*
X010889Y003204D01*
X010848Y003105D02*
X010807Y003105D01*
X011229Y004733D02*
X012108Y004733D01*
X012108Y005223D01*
X011725Y005223D01*
X011641Y005210D01*
X011561Y005184D01*
X011485Y005145D01*
X011416Y005095D01*
X011356Y005035D01*
X011306Y004966D01*
X011267Y004891D01*
X011241Y004810D01*
X011229Y004733D01*
X011236Y004780D02*
X010807Y004780D01*
X010807Y004878D02*
X011263Y004878D01*
X011313Y004977D02*
X010807Y004977D01*
X010807Y005075D02*
X011396Y005075D01*
X011541Y005174D02*
X010807Y005174D01*
X010807Y005272D02*
X012454Y005272D01*
X012356Y005371D02*
X010807Y005371D01*
X010807Y005469D02*
X012257Y005469D01*
X012159Y005568D02*
X010807Y005568D01*
X010807Y005666D02*
X012060Y005666D01*
X011962Y005765D02*
X010807Y005765D01*
X010807Y005863D02*
X011863Y005863D01*
X011765Y005962D02*
X010807Y005962D01*
X010807Y006060D02*
X011707Y006060D01*
X011650Y006159D02*
X010807Y006159D01*
X010807Y006257D02*
X011605Y006257D01*
X011579Y006356D02*
X010807Y006356D01*
X010807Y006454D02*
X011552Y006454D01*
X011540Y006553D02*
X010807Y006553D01*
X010807Y006651D02*
X011540Y006651D01*
X011540Y006750D02*
X010807Y006750D01*
X010807Y006848D02*
X011540Y006848D01*
X011540Y006947D02*
X010807Y006947D01*
X010807Y007045D02*
X011540Y007045D01*
X011540Y007144D02*
X010807Y007144D01*
X010807Y007242D02*
X011540Y007242D01*
X011540Y007341D02*
X010807Y007341D01*
X010807Y007439D02*
X011540Y007439D01*
X011540Y007538D02*
X010807Y007538D01*
X010807Y007636D02*
X011540Y007636D01*
X011540Y007735D02*
X010807Y007735D01*
X010807Y007833D02*
X011540Y007833D01*
X011540Y007932D02*
X010807Y007932D01*
X010807Y008030D02*
X011540Y008030D01*
X011540Y008129D02*
X010807Y008129D01*
X010807Y008227D02*
X011540Y008227D01*
X011540Y008326D02*
X010807Y008326D01*
X010807Y008424D02*
X011540Y008424D01*
X011540Y008523D02*
X010807Y008523D01*
X010807Y008621D02*
X011540Y008621D01*
X011540Y008720D02*
X010807Y008720D01*
X010807Y008818D02*
X011540Y008818D01*
X011540Y008917D02*
X010807Y008917D01*
X010807Y009015D02*
X011540Y009015D01*
X011540Y009114D02*
X010807Y009114D01*
X010807Y009212D02*
X011540Y009212D01*
X011540Y009311D02*
X010807Y009311D01*
X010807Y009409D02*
X011540Y009409D01*
X011540Y009508D02*
X010807Y009508D01*
X010807Y009606D02*
X011540Y009606D01*
X011540Y009705D02*
X010807Y009705D01*
X010807Y009803D02*
X011540Y009803D01*
X011540Y009902D02*
X010807Y009902D01*
X010817Y010000D02*
X011540Y010000D01*
X011540Y010099D02*
X010874Y010099D01*
X010931Y010197D02*
X011506Y010197D01*
X011408Y010296D02*
X010975Y010296D01*
X011002Y010394D02*
X011309Y010394D01*
X011211Y010493D02*
X011028Y010493D01*
X011055Y010591D02*
X011112Y010591D01*
X008587Y009902D02*
X005792Y009902D01*
X005792Y010000D02*
X008554Y010000D01*
X008455Y010099D02*
X005792Y010099D01*
X005792Y010197D02*
X008357Y010197D01*
X008258Y010296D02*
X005792Y010296D01*
X005792Y010394D02*
X008160Y010394D01*
X008061Y010493D02*
X005792Y010493D01*
X005792Y010591D02*
X007963Y010591D01*
X007864Y010690D02*
X005776Y010690D01*
X005792Y010631D02*
X005716Y010914D01*
X005570Y011167D01*
X005363Y011373D01*
X005110Y011519D01*
X004828Y011595D01*
X004536Y011595D01*
X004253Y011519D01*
X004000Y011373D01*
X003794Y011167D01*
X003647Y010914D01*
X003572Y010631D01*
X003572Y007779D01*
X003647Y007497D01*
X003794Y007244D01*
X004000Y007037D01*
X004253Y006891D01*
X004536Y006815D01*
X004828Y006815D01*
X005110Y006891D01*
X005363Y007037D01*
X005570Y007244D01*
X005716Y007497D01*
X005792Y007779D01*
X005792Y010631D01*
X005750Y010788D02*
X007766Y010788D01*
X007667Y010887D02*
X005723Y010887D01*
X005675Y010985D02*
X007569Y010985D01*
X007470Y011084D02*
X005618Y011084D01*
X005555Y011182D02*
X007372Y011182D01*
X007273Y011281D02*
X005456Y011281D01*
X005353Y011379D02*
X007175Y011379D01*
X007076Y011478D02*
X005183Y011478D01*
X004899Y011576D02*
X006978Y011576D01*
X006879Y011675D02*
X000858Y011675D01*
X000858Y011773D02*
X006781Y011773D01*
X006682Y011872D02*
X000858Y011872D01*
X000858Y011970D02*
X006584Y011970D01*
X006485Y012069D02*
X000858Y012069D01*
X000858Y012167D02*
X006387Y012167D01*
X006288Y012266D02*
X000858Y012266D01*
X000858Y012364D02*
X006190Y012364D01*
X004464Y011576D02*
X000858Y011576D01*
X000858Y011478D02*
X004181Y011478D01*
X004010Y011379D02*
X000858Y011379D01*
X000858Y011281D02*
X003907Y011281D01*
X003809Y011182D02*
X000858Y011182D01*
X000858Y011084D02*
X003746Y011084D01*
X003689Y010985D02*
X003046Y010985D01*
X003023Y010992D02*
X002952Y011004D01*
X002952Y010535D01*
X003420Y010535D01*
X003409Y010607D01*
X003384Y010685D01*
X003346Y010758D01*
X003298Y010824D01*
X003240Y010882D01*
X003174Y010930D01*
X003101Y010967D01*
X003023Y010992D01*
X002952Y010985D02*
X002852Y010985D01*
X002852Y011004D02*
X002780Y010992D01*
X002702Y010967D01*
X002629Y010930D01*
X002563Y010882D01*
X002505Y010824D01*
X002457Y010758D01*
X002420Y010685D01*
X002395Y010607D01*
X002383Y010535D01*
X002852Y010535D01*
X002852Y011004D01*
X002758Y010985D02*
X000858Y010985D01*
X000858Y010887D02*
X002570Y010887D01*
X002479Y010788D02*
X000858Y010788D01*
X000858Y010690D02*
X002422Y010690D01*
X002392Y010591D02*
X000858Y010591D01*
X000858Y010493D02*
X002852Y010493D01*
X002852Y010535D02*
X002852Y010435D01*
X002952Y010435D01*
X002952Y010535D01*
X002852Y010535D01*
X002852Y010591D02*
X002952Y010591D01*
X002952Y010493D02*
X003572Y010493D01*
X003572Y010591D02*
X003411Y010591D01*
X003381Y010690D02*
X003587Y010690D01*
X003614Y010788D02*
X003324Y010788D01*
X003234Y010887D02*
X003640Y010887D01*
X003572Y010394D02*
X003414Y010394D01*
X003409Y010363D02*
X003420Y010435D01*
X002952Y010435D01*
X002952Y009967D01*
X003023Y009978D01*
X003101Y010003D01*
X003174Y010040D01*
X003240Y010088D01*
X003298Y010146D01*
X003346Y010213D01*
X003384Y010286D01*
X003409Y010363D01*
X003387Y010296D02*
X003572Y010296D01*
X003572Y010197D02*
X003335Y010197D01*
X003251Y010099D02*
X003572Y010099D01*
X003572Y010000D02*
X003092Y010000D01*
X002952Y010000D02*
X002852Y010000D01*
X002852Y009967D02*
X002852Y010435D01*
X002383Y010435D01*
X002395Y010363D01*
X002420Y010286D01*
X002457Y010213D01*
X002505Y010146D01*
X002563Y010088D01*
X002629Y010040D01*
X002702Y010003D01*
X002780Y009978D01*
X002852Y009967D01*
X002852Y010099D02*
X002952Y010099D01*
X002952Y010197D02*
X002852Y010197D01*
X002852Y010296D02*
X002952Y010296D01*
X002952Y010394D02*
X002852Y010394D01*
X002852Y010690D02*
X002952Y010690D01*
X002952Y010788D02*
X002852Y010788D01*
X002852Y010887D02*
X002952Y010887D01*
X002390Y010394D02*
X000858Y010394D01*
X000858Y010296D02*
X002417Y010296D01*
X002468Y010197D02*
X000858Y010197D01*
X000858Y010099D02*
X002553Y010099D01*
X002712Y010000D02*
X000858Y010000D01*
X000858Y009902D02*
X003572Y009902D01*
X003572Y009803D02*
X000858Y009803D01*
X000858Y009705D02*
X003572Y009705D01*
X003572Y009606D02*
X000858Y009606D01*
X000858Y009508D02*
X003572Y009508D01*
X003572Y009409D02*
X000858Y009409D01*
X000858Y009311D02*
X003572Y009311D01*
X003572Y009212D02*
X000858Y009212D01*
X000858Y009114D02*
X003572Y009114D01*
X003572Y009015D02*
X000858Y009015D01*
X000858Y008917D02*
X003572Y008917D01*
X003572Y008818D02*
X000858Y008818D01*
X000858Y008720D02*
X003572Y008720D01*
X003572Y008621D02*
X000858Y008621D01*
X000858Y008523D02*
X003572Y008523D01*
X003572Y008424D02*
X003049Y008424D01*
X003023Y008432D02*
X002952Y008444D01*
X002952Y007975D01*
X003420Y007975D01*
X003409Y008047D01*
X003384Y008125D01*
X003346Y008198D01*
X003298Y008264D01*
X003240Y008322D01*
X003174Y008370D01*
X003101Y008407D01*
X003023Y008432D01*
X002952Y008424D02*
X002852Y008424D01*
X002852Y008444D02*
X002780Y008432D01*
X002702Y008407D01*
X002629Y008370D01*
X002563Y008322D01*
X002505Y008264D01*
X002457Y008198D01*
X002420Y008125D01*
X002395Y008047D01*
X002383Y007975D01*
X002852Y007975D01*
X002852Y008444D01*
X002754Y008424D02*
X000858Y008424D01*
X000858Y008326D02*
X002568Y008326D01*
X002478Y008227D02*
X000858Y008227D01*
X000858Y008129D02*
X002422Y008129D01*
X002392Y008030D02*
X000858Y008030D01*
X000858Y007932D02*
X002852Y007932D01*
X002852Y007975D02*
X002852Y007875D01*
X002952Y007875D01*
X002952Y007975D01*
X002852Y007975D01*
X002852Y008030D02*
X002952Y008030D01*
X002952Y007932D02*
X003572Y007932D01*
X003572Y008030D02*
X003412Y008030D01*
X003382Y008129D02*
X003572Y008129D01*
X003572Y008227D02*
X003325Y008227D01*
X003235Y008326D02*
X003572Y008326D01*
X003420Y007875D02*
X002952Y007875D01*
X002952Y007407D01*
X003023Y007418D01*
X003101Y007443D01*
X003174Y007480D01*
X003240Y007528D01*
X003298Y007586D01*
X003346Y007653D01*
X003384Y007726D01*
X003409Y007803D01*
X003420Y007875D01*
X003414Y007833D02*
X003572Y007833D01*
X003584Y007735D02*
X003387Y007735D01*
X003334Y007636D02*
X003610Y007636D01*
X003636Y007538D02*
X003250Y007538D01*
X003088Y007439D02*
X003681Y007439D01*
X003738Y007341D02*
X000858Y007341D01*
X000858Y007439D02*
X002715Y007439D01*
X002702Y007443D02*
X002780Y007418D01*
X002852Y007407D01*
X002852Y007875D01*
X002383Y007875D01*
X002395Y007803D01*
X002420Y007726D01*
X002457Y007653D01*
X002505Y007586D01*
X002563Y007528D01*
X002629Y007480D01*
X002702Y007443D01*
X002852Y007439D02*
X002952Y007439D01*
X002952Y007538D02*
X002852Y007538D01*
X002852Y007636D02*
X002952Y007636D01*
X002952Y007735D02*
X002852Y007735D01*
X002852Y007833D02*
X002952Y007833D01*
X002952Y008129D02*
X002852Y008129D01*
X002852Y008227D02*
X002952Y008227D01*
X002952Y008326D02*
X002852Y008326D01*
X002390Y007833D02*
X000858Y007833D01*
X000858Y007735D02*
X002417Y007735D01*
X002469Y007636D02*
X000858Y007636D01*
X000858Y007538D02*
X002554Y007538D01*
X003795Y007242D02*
X000858Y007242D01*
X000858Y007144D02*
X003894Y007144D01*
X003992Y007045D02*
X000858Y007045D01*
X000858Y006947D02*
X004157Y006947D01*
X004413Y006848D02*
X000858Y006848D01*
X000858Y006750D02*
X008587Y006750D01*
X008587Y006848D02*
X004951Y006848D01*
X005207Y006947D02*
X008587Y006947D01*
X008587Y007045D02*
X005371Y007045D01*
X005470Y007144D02*
X008587Y007144D01*
X008587Y007242D02*
X005568Y007242D01*
X005626Y007341D02*
X008587Y007341D01*
X008587Y007439D02*
X005683Y007439D01*
X005727Y007538D02*
X008587Y007538D01*
X008587Y007636D02*
X005753Y007636D01*
X005780Y007735D02*
X008587Y007735D01*
X008587Y007833D02*
X005792Y007833D01*
X005792Y007932D02*
X008587Y007932D01*
X008587Y008030D02*
X005792Y008030D01*
X005792Y008129D02*
X008587Y008129D01*
X008587Y008227D02*
X005792Y008227D01*
X005792Y008326D02*
X008587Y008326D01*
X008587Y008424D02*
X005792Y008424D01*
X005792Y008523D02*
X008587Y008523D01*
X008587Y008621D02*
X005792Y008621D01*
X005792Y008720D02*
X008587Y008720D01*
X008587Y008818D02*
X005792Y008818D01*
X005792Y008917D02*
X008587Y008917D01*
X008587Y009015D02*
X005792Y009015D01*
X005792Y009114D02*
X008587Y009114D01*
X008587Y009212D02*
X005792Y009212D01*
X005792Y009311D02*
X008587Y009311D01*
X008587Y009409D02*
X005792Y009409D01*
X005792Y009508D02*
X008587Y009508D01*
X008587Y009606D02*
X005792Y009606D01*
X005792Y009705D02*
X008587Y009705D01*
X008587Y009803D02*
X005792Y009803D01*
X003304Y012463D02*
X000858Y012463D01*
X000858Y012561D02*
X003128Y012561D01*
X002969Y012660D02*
X000858Y012660D01*
X000858Y012758D02*
X002870Y012758D01*
X002772Y012857D02*
X000858Y012857D01*
X000858Y012955D02*
X002690Y012955D01*
X002633Y013054D02*
X000858Y013054D01*
X000858Y013152D02*
X002576Y013152D01*
X002527Y013251D02*
X000858Y013251D01*
X000858Y013349D02*
X002501Y013349D01*
X002475Y013448D02*
X000858Y013448D01*
X000858Y013546D02*
X002448Y013546D01*
X002442Y013645D02*
X000858Y013645D01*
X000858Y013743D02*
X002442Y013743D01*
X002442Y013842D02*
X000858Y013842D01*
X000858Y013940D02*
X002445Y013940D01*
X002471Y014039D02*
X000858Y014039D01*
X000858Y014137D02*
X002497Y014137D01*
X002524Y014236D02*
X000858Y014236D01*
X000858Y014334D02*
X002568Y014334D01*
X002625Y014433D02*
X000858Y014433D01*
X000858Y014531D02*
X002682Y014531D01*
X002758Y014630D02*
X000858Y014630D01*
X000858Y014728D02*
X002856Y014728D01*
X002955Y014827D02*
X000858Y014827D01*
X000858Y014925D02*
X003117Y014925D01*
X003300Y015024D02*
X000858Y015024D01*
X000858Y015122D02*
X006581Y015122D01*
X006483Y015221D02*
X003932Y015221D01*
X003929Y015220D02*
X004010Y015246D01*
X004087Y015285D01*
X004156Y015335D01*
X004216Y015396D01*
X004267Y015465D01*
X004305Y015541D01*
X004332Y015623D01*
X004344Y015700D01*
X003852Y015700D01*
X003852Y015800D01*
X004344Y015800D01*
X004332Y015877D01*
X004305Y015959D01*
X004267Y016035D01*
X004216Y016104D01*
X004156Y016165D01*
X004087Y016215D01*
X004010Y016254D01*
X003929Y016280D01*
X003852Y016292D01*
X003852Y015800D01*
X003752Y015800D01*
X003752Y016292D01*
X003674Y016280D01*
X003593Y016254D01*
X003517Y016215D01*
X003447Y016165D01*
X003387Y016104D01*
X003337Y016035D01*
X003298Y015959D01*
X003271Y015877D01*
X003259Y015800D01*
X003752Y015800D01*
X003752Y015700D01*
X003852Y015700D01*
X003852Y015207D01*
X003929Y015220D01*
X003852Y015221D02*
X003752Y015221D01*
X003752Y015207D02*
X003752Y015700D01*
X003259Y015700D01*
X003271Y015623D01*
X003298Y015541D01*
X003337Y015465D01*
X003387Y015396D01*
X003447Y015335D01*
X003517Y015285D01*
X003593Y015246D01*
X003674Y015220D01*
X003752Y015207D01*
X003671Y015221D02*
X000858Y015221D01*
X000858Y015319D02*
X003470Y015319D01*
X003371Y015418D02*
X000858Y015418D01*
X000858Y015516D02*
X003310Y015516D01*
X003274Y015615D02*
X000858Y015615D01*
X000858Y015713D02*
X003752Y015713D01*
X003752Y015615D02*
X003852Y015615D01*
X003852Y015713D02*
X005990Y015713D01*
X005892Y015812D02*
X004342Y015812D01*
X004321Y015910D02*
X005793Y015910D01*
X005695Y016009D02*
X004280Y016009D01*
X004213Y016107D02*
X005596Y016107D01*
X005498Y016206D02*
X004099Y016206D01*
X003852Y016206D02*
X003752Y016206D01*
X003752Y016107D02*
X003852Y016107D01*
X003852Y016009D02*
X003752Y016009D01*
X003752Y015910D02*
X003852Y015910D01*
X003852Y015812D02*
X003752Y015812D01*
X003752Y015516D02*
X003852Y015516D01*
X003852Y015418D02*
X003752Y015418D01*
X003752Y015319D02*
X003852Y015319D01*
X004134Y015319D02*
X006384Y015319D01*
X006286Y015418D02*
X004232Y015418D01*
X004293Y015516D02*
X006187Y015516D01*
X006089Y015615D02*
X004329Y015615D01*
X003504Y016206D02*
X000858Y016206D01*
X000858Y016304D02*
X005399Y016304D01*
X003390Y016107D02*
X000858Y016107D01*
X000858Y016009D02*
X003323Y016009D01*
X003282Y015910D02*
X000858Y015910D01*
X000858Y015812D02*
X003261Y015812D01*
X003355Y016403D02*
X000858Y016403D01*
X000858Y016501D02*
X003184Y016501D01*
X003027Y016600D02*
X000858Y016600D01*
X000858Y016698D02*
X002929Y016698D01*
X002830Y016797D02*
X000858Y016797D01*
X000858Y016895D02*
X002732Y016895D01*
X002667Y016994D02*
X000858Y016994D01*
X000858Y017092D02*
X002610Y017092D01*
X002553Y017191D02*
X000858Y017191D01*
X000858Y017289D02*
X002517Y017289D01*
X002490Y017388D02*
X000858Y017388D01*
X000858Y017486D02*
X002464Y017486D01*
X002442Y017585D02*
X000858Y017585D01*
X000858Y017683D02*
X002442Y017683D01*
X002442Y017782D02*
X000858Y017782D01*
X000858Y017880D02*
X002442Y017880D01*
X002455Y017979D02*
X000858Y017979D01*
X000858Y018077D02*
X002482Y018077D01*
X002508Y018176D02*
X000858Y018176D01*
X000858Y018274D02*
X002535Y018274D01*
X002592Y018373D02*
X000858Y018373D01*
X000858Y018471D02*
X002648Y018471D01*
X002705Y018570D02*
X000858Y018570D01*
X000858Y018668D02*
X002798Y018668D01*
X002896Y018767D02*
X000858Y018767D01*
X000858Y018865D02*
X003016Y018865D01*
X003186Y018964D02*
X000858Y018964D01*
X000858Y019062D02*
X003450Y019062D01*
X003564Y019259D02*
X000858Y019259D01*
X000858Y019161D02*
X005692Y019161D01*
X005594Y019259D02*
X004039Y019259D01*
X004010Y019244D02*
X004087Y019283D01*
X004156Y019334D01*
X004216Y019394D01*
X004267Y019463D01*
X004305Y019540D01*
X004332Y019621D01*
X004344Y019698D01*
X003852Y019698D01*
X003852Y019798D01*
X004344Y019798D01*
X004332Y019876D01*
X004305Y019957D01*
X004267Y020033D01*
X004216Y020103D01*
X004156Y020163D01*
X004087Y020213D01*
X004010Y020252D01*
X003929Y020279D01*
X003852Y020291D01*
X003852Y019798D01*
X003752Y019798D01*
X003752Y019698D01*
X003852Y019698D01*
X003852Y019206D01*
X003929Y019218D01*
X004010Y019244D01*
X003852Y019259D02*
X003752Y019259D01*
X003752Y019206D02*
X003752Y019698D01*
X003259Y019698D01*
X003271Y019621D01*
X003298Y019540D01*
X003337Y019463D01*
X003387Y019394D01*
X003447Y019334D01*
X003517Y019283D01*
X003593Y019244D01*
X003674Y019218D01*
X003752Y019206D01*
X003752Y019358D02*
X003852Y019358D01*
X003852Y019456D02*
X003752Y019456D01*
X003752Y019555D02*
X003852Y019555D01*
X003852Y019653D02*
X003752Y019653D01*
X003752Y019752D02*
X000858Y019752D01*
X000858Y019850D02*
X003267Y019850D01*
X003271Y019876D02*
X003259Y019798D01*
X003752Y019798D01*
X003752Y020291D01*
X003674Y020279D01*
X003593Y020252D01*
X003517Y020213D01*
X003447Y020163D01*
X003387Y020103D01*
X003337Y020033D01*
X003298Y019957D01*
X003271Y019876D01*
X003295Y019949D02*
X000858Y019949D01*
X000858Y020047D02*
X003347Y020047D01*
X003430Y020146D02*
X000858Y020146D01*
X000858Y020244D02*
X003577Y020244D01*
X003752Y020244D02*
X003852Y020244D01*
X003852Y020146D02*
X003752Y020146D01*
X003752Y020047D02*
X003852Y020047D01*
X003852Y019949D02*
X003752Y019949D01*
X003752Y019850D02*
X003852Y019850D01*
X003852Y019752D02*
X005101Y019752D01*
X005003Y019850D02*
X004336Y019850D01*
X004308Y019949D02*
X004904Y019949D01*
X004806Y020047D02*
X004257Y020047D01*
X004173Y020146D02*
X004707Y020146D01*
X004609Y020244D02*
X004026Y020244D01*
X004510Y020343D02*
X000858Y020343D01*
X000858Y020441D02*
X003420Y020441D01*
X003173Y020540D02*
X000858Y020540D01*
X000858Y020638D02*
X003002Y020638D01*
X002889Y020737D02*
X000858Y020737D01*
X000858Y020835D02*
X002790Y020835D01*
X002701Y020934D02*
X000858Y020934D01*
X000858Y021032D02*
X002644Y021032D01*
X002587Y021131D02*
X000858Y021131D01*
X000858Y021229D02*
X002532Y021229D01*
X002506Y021328D02*
X000858Y021328D01*
X000858Y021426D02*
X002480Y021426D01*
X002453Y021525D02*
X000858Y021525D01*
X000858Y021623D02*
X002442Y021623D01*
X002442Y021722D02*
X000858Y021722D01*
X000858Y021820D02*
X002442Y021820D01*
X002442Y021919D02*
X000858Y021919D01*
X000858Y022017D02*
X002466Y022017D01*
X002492Y022116D02*
X000858Y022116D01*
X000858Y022214D02*
X002519Y022214D01*
X002558Y022313D02*
X000858Y022313D01*
X000858Y022411D02*
X002615Y022411D01*
X002672Y022510D02*
X000858Y022510D01*
X000858Y022608D02*
X002739Y022608D01*
X002838Y022707D02*
X000858Y022707D01*
X000858Y022805D02*
X002936Y022805D01*
X003085Y022904D02*
X000858Y022904D01*
X000858Y023002D02*
X003256Y023002D01*
X003752Y023298D02*
X003852Y023298D01*
X003852Y023396D02*
X003752Y023396D01*
X003752Y023495D02*
X003852Y023495D01*
X003852Y023593D02*
X003752Y023593D01*
X003752Y023692D02*
X003852Y023692D01*
X003852Y023790D02*
X017392Y023790D01*
X017392Y023692D02*
X004343Y023692D01*
X004323Y023593D02*
X017392Y023593D01*
X017392Y023495D02*
X004283Y023495D01*
X004219Y023396D02*
X017392Y023396D01*
X017392Y023298D02*
X004108Y023298D01*
X004327Y023889D02*
X010161Y023889D01*
X010138Y023987D02*
X004289Y023987D01*
X004228Y024086D02*
X010138Y024086D01*
X010138Y024184D02*
X004125Y024184D01*
X003478Y024184D02*
X000858Y024184D01*
X000858Y024086D02*
X003376Y024086D01*
X003314Y023987D02*
X000858Y023987D01*
X000858Y023889D02*
X003276Y023889D01*
X003271Y024480D02*
X000858Y024480D01*
X000858Y024578D02*
X003100Y024578D01*
X002947Y024677D02*
X000858Y024677D01*
X000858Y024775D02*
X002849Y024775D01*
X002750Y024874D02*
X000858Y024874D01*
X000858Y024972D02*
X002678Y024972D01*
X002621Y025071D02*
X000858Y025071D01*
X000858Y025169D02*
X002564Y025169D01*
X002522Y025268D02*
X000858Y025268D01*
X000858Y025366D02*
X002495Y025366D01*
X002469Y025465D02*
X000858Y025465D01*
X000858Y025563D02*
X002442Y025563D01*
X002442Y025662D02*
X000858Y025662D01*
X000858Y025760D02*
X002442Y025760D01*
X002442Y025859D02*
X000858Y025859D01*
X000858Y025957D02*
X002450Y025957D01*
X002477Y026056D02*
X000858Y026056D01*
X000858Y026154D02*
X002503Y026154D01*
X002529Y026253D02*
X000858Y026253D01*
X000858Y026351D02*
X002581Y026351D01*
X002638Y026450D02*
X000858Y026450D01*
X000858Y026548D02*
X002695Y026548D01*
X002779Y026647D02*
X000858Y026647D01*
X000858Y026745D02*
X002878Y026745D01*
X002984Y026844D02*
X000858Y026844D01*
X000858Y026942D02*
X003154Y026942D01*
X003266Y019653D02*
X000858Y019653D01*
X000858Y019555D02*
X003293Y019555D01*
X003342Y019456D02*
X000858Y019456D01*
X000858Y019358D02*
X003423Y019358D01*
X004180Y019358D02*
X005495Y019358D01*
X005397Y019456D02*
X004261Y019456D01*
X004310Y019555D02*
X005298Y019555D01*
X005200Y019653D02*
X004337Y019653D01*
X004153Y019062D02*
X005791Y019062D01*
X008587Y006651D02*
X000858Y006651D01*
X000858Y006553D02*
X008587Y006553D01*
X008587Y006454D02*
X007767Y006454D01*
X008070Y006356D02*
X008587Y006356D01*
X008587Y006257D02*
X008213Y006257D01*
X008349Y006159D02*
X008587Y006159D01*
X008587Y006060D02*
X008440Y006060D01*
X008512Y005962D02*
X008587Y005962D01*
X008584Y005863D02*
X008587Y005863D01*
X012108Y005174D02*
X012208Y005174D01*
X012208Y005075D02*
X012108Y005075D01*
X012108Y004977D02*
X012208Y004977D01*
X012208Y004878D02*
X012108Y004878D01*
X012108Y004780D02*
X012208Y004780D01*
X012208Y004484D02*
X012108Y004484D01*
X012108Y004386D02*
X012208Y004386D01*
X012208Y004287D02*
X012108Y004287D01*
X012108Y004189D02*
X012208Y004189D01*
X030237Y008103D02*
X030895Y008103D01*
X030867Y008088D01*
X030798Y008039D01*
X030738Y007978D01*
X030688Y007910D01*
X030649Y007834D01*
X030623Y007753D01*
X030610Y007669D01*
X030610Y007287D01*
X031100Y007287D01*
X031100Y007187D01*
X030610Y007187D01*
X030610Y006804D01*
X030623Y006720D01*
X030649Y006639D01*
X030655Y006628D01*
X030561Y006628D01*
X030540Y006634D01*
X030540Y006634D01*
X030540Y007416D01*
X030447Y007762D01*
X030268Y008072D01*
X030237Y008103D01*
X030292Y008030D02*
X030789Y008030D01*
X030704Y007932D02*
X030349Y007932D01*
X030406Y007833D02*
X030649Y007833D01*
X030620Y007735D02*
X030454Y007735D01*
X030481Y007636D02*
X030610Y007636D01*
X030610Y007538D02*
X030507Y007538D01*
X030533Y007439D02*
X030610Y007439D01*
X030610Y007341D02*
X030540Y007341D01*
X030540Y007242D02*
X031100Y007242D01*
X031200Y007242D02*
X033067Y007242D01*
X033067Y007287D02*
X033067Y007187D01*
X032577Y007187D01*
X032577Y006804D01*
X032590Y006720D01*
X032616Y006639D01*
X032622Y006628D01*
X031644Y006628D01*
X031650Y006639D01*
X031676Y006720D01*
X031690Y006804D01*
X031690Y007187D01*
X031200Y007187D01*
X031200Y007287D01*
X031690Y007287D01*
X031690Y007669D01*
X031676Y007753D01*
X031650Y007834D01*
X031612Y007910D01*
X031562Y007978D01*
X031501Y008039D01*
X031433Y008088D01*
X031404Y008103D01*
X032862Y008103D01*
X032834Y008088D01*
X032765Y008039D01*
X032705Y007978D01*
X032655Y007910D01*
X032616Y007834D01*
X032590Y007753D01*
X032577Y007669D01*
X032577Y007287D01*
X033067Y007287D01*
X033167Y007287D02*
X033657Y007287D01*
X033657Y007669D01*
X033643Y007753D01*
X033617Y007834D01*
X033579Y007910D01*
X033529Y007978D01*
X033468Y008039D01*
X033400Y008088D01*
X033371Y008103D01*
X033727Y008103D01*
X033727Y007058D01*
X033819Y006712D01*
X033868Y006628D01*
X033611Y006628D01*
X033617Y006639D01*
X033643Y006720D01*
X033657Y006804D01*
X033657Y007187D01*
X033167Y007187D01*
X033167Y007287D01*
X033167Y007242D02*
X033727Y007242D01*
X033727Y007144D02*
X033657Y007144D01*
X033657Y007045D02*
X033730Y007045D01*
X033756Y006947D02*
X033657Y006947D01*
X033657Y006848D02*
X033783Y006848D01*
X033809Y006750D02*
X033648Y006750D01*
X033621Y006651D02*
X033854Y006651D01*
X033727Y007341D02*
X033657Y007341D01*
X033657Y007439D02*
X033727Y007439D01*
X033727Y007538D02*
X033657Y007538D01*
X033657Y007636D02*
X033727Y007636D01*
X033727Y007735D02*
X033646Y007735D01*
X033617Y007833D02*
X033727Y007833D01*
X033727Y007932D02*
X033563Y007932D01*
X033477Y008030D02*
X033727Y008030D01*
X032756Y008030D02*
X031510Y008030D01*
X031596Y007932D02*
X032671Y007932D01*
X032616Y007833D02*
X031650Y007833D01*
X031679Y007735D02*
X032587Y007735D01*
X032577Y007636D02*
X031690Y007636D01*
X031690Y007538D02*
X032577Y007538D01*
X032577Y007439D02*
X031690Y007439D01*
X031690Y007341D02*
X032577Y007341D01*
X032577Y007144D02*
X031690Y007144D01*
X031690Y007045D02*
X032577Y007045D01*
X032577Y006947D02*
X031690Y006947D01*
X031690Y006848D02*
X032577Y006848D01*
X032585Y006750D02*
X031681Y006750D01*
X031654Y006651D02*
X032612Y006651D01*
X030645Y006651D02*
X030540Y006651D01*
X030540Y006750D02*
X030618Y006750D01*
X030610Y006848D02*
X030540Y006848D01*
X030540Y006947D02*
X030610Y006947D01*
X030610Y007045D02*
X030540Y007045D01*
X030540Y007144D02*
X030610Y007144D01*
X004457Y036398D02*
X004044Y036398D01*
X003268Y039846D02*
X000858Y039846D01*
X000858Y039944D02*
X003296Y039944D01*
X003349Y040043D02*
X000858Y040043D01*
X000858Y040141D02*
X003433Y040141D01*
D38*
X003802Y039741D02*
X001454Y039741D01*
X001430Y039717D01*
X001430Y035583D01*
X001589Y035742D01*
X003802Y035742D01*
X001430Y035583D02*
X001430Y031843D01*
X001529Y031744D01*
X003802Y031744D01*
X008122Y031744D01*
X009500Y033122D01*
X010741Y033122D01*
X010760Y033103D01*
X003802Y027745D02*
X001466Y027745D01*
X001430Y027709D01*
X001430Y023772D01*
X001455Y023747D01*
X003802Y023747D01*
X009180Y023747D01*
X009874Y024441D01*
X010760Y024441D01*
X003802Y019748D02*
X001540Y019748D01*
X001430Y019638D01*
X001430Y015898D01*
X001578Y015750D01*
X003802Y015750D01*
X001430Y015898D02*
X001430Y011272D01*
X001430Y010583D01*
X001527Y010485D01*
X002902Y010485D01*
X001430Y010583D02*
X001430Y007925D01*
X002902Y007925D01*
X004682Y007925D02*
X004682Y010485D01*
X001430Y011272D02*
X001430Y011273D01*
X001430Y019638D02*
X001430Y023772D01*
X001430Y027709D02*
X001430Y031843D01*
X001430Y039717D02*
X001430Y041292D01*
X002414Y042276D01*
X008024Y042276D01*
X009304Y043556D01*
X009304Y050150D01*
X010288Y051134D01*
X011074Y051134D01*
X011075Y051136D01*
X011272Y051136D01*
X011272Y055076D02*
X015969Y055076D01*
X016882Y055989D01*
X017933Y056981D02*
X016693Y058221D01*
X012453Y058221D01*
X011278Y057046D01*
X011272Y057046D01*
X016882Y051989D02*
X017926Y051989D01*
X017933Y051981D01*
X018214Y049704D02*
X018411Y049704D01*
X019896Y049704D02*
X020078Y049704D01*
X021933Y051981D02*
X022386Y051981D01*
X022886Y052481D01*
X022886Y056481D02*
X022386Y056981D01*
X021933Y056981D01*
X015754Y044002D02*
X015565Y044002D01*
X014065Y044002D02*
X013877Y044002D01*
X026587Y033103D02*
X026941Y033103D01*
X028201Y031843D01*
X028201Y029284D01*
X026587Y027670D01*
X026587Y024441D01*
X026607Y024461D01*
X026607Y023792D01*
X032689Y017709D01*
X034894Y017709D01*
X042959Y007237D02*
X042959Y004475D01*
X042178Y003693D01*
X023378Y003693D01*
X018752Y008319D01*
X018752Y011764D01*
X015603Y011174D02*
X015603Y009402D01*
X022591Y002414D01*
X043063Y002414D01*
X044929Y004280D01*
X044929Y007237D01*
X046896Y007237D02*
X046896Y002900D01*
X045130Y001134D01*
X021804Y001134D01*
X018949Y003989D01*
X015307Y003989D01*
X012650Y006646D01*
X012650Y010977D01*
X009697Y010780D02*
X009697Y001528D01*
X010386Y000839D01*
X017276Y000839D01*
X017965Y001528D01*
X018063Y002414D01*
X043359Y028398D02*
X043359Y038339D01*
X044737Y039717D01*
X044737Y049461D01*
X045327Y050052D01*
D39*
X042965Y050012D02*
X042784Y049831D01*
X041981Y049831D01*
X041981Y050831D02*
X042815Y050831D01*
X042965Y050681D01*
X042965Y050012D02*
X042965Y042079D01*
X040209Y039323D01*
X040209Y038536D01*
X038437Y035386D02*
X037650Y035386D01*
X037650Y032827D01*
X041193Y029284D01*
X042178Y029284D01*
X034894Y025583D02*
X034894Y023575D01*
X039028Y019441D01*
X044630Y013156D02*
X047313Y013156D01*
X047902Y012567D01*
X049067Y012567D01*
X049067Y011567D02*
X047327Y011567D01*
X046115Y010355D01*
X046896Y009573D01*
X046896Y007237D01*
X044630Y012256D02*
X041989Y012256D01*
X041496Y011764D01*
X041496Y008918D01*
X040992Y008413D01*
X040992Y007237D01*
X047313Y013156D02*
X046115Y014355D01*
X047099Y016685D02*
X047784Y016685D01*
X047792Y016693D01*
X047792Y017693D01*
X047792Y016693D02*
X047189Y016693D01*
X047099Y016685D02*
X046164Y017620D01*
X046164Y018802D01*
X031843Y033122D01*
X031843Y039225D01*
X029579Y023181D02*
X029481Y023181D01*
X029382Y023083D01*
X018457Y002807D02*
X017670Y002807D01*
X017670Y002020D01*
X018457Y002020D02*
X018457Y002807D01*
X014225Y047197D02*
X014225Y047985D01*
X014225Y048083D01*
D40*
X048772Y036567D02*
X048792Y036548D01*
X048792Y035693D01*
X048772Y036567D02*
X048870Y036567D01*
X050347Y035091D01*
X050347Y028693D01*
X048792Y028693D01*
X050347Y028693D02*
X050347Y021311D01*
X049729Y020693D01*
D41*
X048792Y020693D01*
X048772Y036567D02*
X045229Y036567D01*
X044737Y037059D01*
X044737Y037256D02*
X044737Y037650D01*
X045327Y050052D02*
X045721Y050445D01*
X034469Y058024D02*
X034185Y057740D01*
X030170Y057740D01*
X030159Y057729D01*
X028103Y057729D01*
X026331Y055957D01*
X026331Y055895D01*
X026331Y054481D02*
X024331Y056481D01*
X022886Y056481D01*
X024917Y054481D02*
X022917Y052481D01*
X022886Y052481D01*
X026331Y053066D02*
X027870Y053066D01*
X030170Y055367D01*
X030170Y056340D01*
X027745Y054481D02*
X026331Y054481D01*
X029579Y031646D02*
X029579Y023181D01*
D42*
X029382Y023083D03*
X029382Y023477D03*
X029776Y023477D03*
X029776Y023083D03*
X029973Y031252D03*
X029579Y031252D03*
X029579Y031646D03*
X029973Y031646D03*
X031843Y038437D03*
X031843Y038831D03*
X031843Y039225D03*
X035091Y038536D03*
X037650Y035386D03*
X038044Y035386D03*
X038437Y035386D03*
X040209Y038536D03*
X039815Y039914D03*
X040603Y041685D03*
X041685Y042768D03*
X038437Y041292D03*
X044737Y037650D03*
X044737Y037256D03*
X044737Y036863D03*
X042178Y029284D03*
X041784Y029284D03*
X041390Y029284D03*
X042965Y028201D03*
X043359Y028004D03*
X043359Y028398D03*
X043752Y028201D03*
X039028Y019441D03*
X018457Y002807D03*
X018457Y002414D03*
X018063Y002414D03*
X017670Y002414D03*
X017670Y002807D03*
X018063Y002807D03*
X018063Y002020D03*
X017670Y002020D03*
X018457Y002020D03*
X015012Y045032D03*
X015504Y045524D03*
X014028Y045524D03*
X014028Y045524D03*
X014225Y048083D03*
X018949Y048280D03*
X019146Y045524D03*
X019933Y045524D03*
X031744Y049363D03*
X039422Y057138D03*
X039815Y057138D03*
D43*
X039422Y057138D01*
X039422Y055268D01*
X038437Y054284D01*
X038437Y052709D01*
X040406Y049658D02*
X041587Y050839D01*
X041973Y050839D01*
X041981Y050831D01*
X040406Y049658D02*
X040406Y042965D01*
X040111Y042670D01*
X040107Y042674D01*
X039469Y042674D01*
X040603Y041685D02*
X041685Y042768D01*
X039815Y039914D02*
X038437Y041292D01*
X040209Y038536D02*
X040209Y037355D01*
X039914Y037059D01*
X035386Y037059D01*
X035091Y037355D01*
X035091Y038536D01*
X034304Y040406D02*
X034304Y032926D01*
X046536Y020693D01*
X047792Y020693D01*
X047792Y019693D02*
X046552Y019693D01*
X033516Y032729D01*
X033516Y040111D01*
X031744Y041882D01*
X031744Y049363D01*
X032532Y050150D02*
X031548Y051134D01*
X031548Y052119D01*
X032040Y052611D01*
X032335Y052611D01*
X032335Y052158D01*
X032335Y052611D02*
X032335Y053063D01*
X032335Y053733D02*
X033410Y053733D01*
X033469Y053674D01*
X032335Y051489D02*
X032335Y051331D01*
X032993Y050674D01*
X033469Y050674D01*
X032532Y050150D02*
X032532Y042178D01*
X034304Y040406D01*
X044737Y037256D02*
X044737Y037059D01*
X044737Y036863D01*
X045721Y050445D02*
X045681Y050485D01*
X045681Y051233D01*
X045681Y052217D01*
X046351Y052217D02*
X047485Y052217D01*
X047469Y051233D02*
X047485Y051217D01*
X047469Y051233D02*
X046351Y051233D01*
X045721Y050445D02*
X049953Y050445D01*
X050288Y050780D01*
X050288Y051233D01*
X050288Y052217D01*
X050288Y052867D01*
X049937Y053217D01*
X048485Y053217D01*
X048485Y052217D02*
X049619Y052217D01*
X049619Y051233D02*
X049603Y051217D01*
X048485Y051217D01*
D44*
X047469Y053201D02*
X047485Y053217D01*
X047469Y053201D02*
X042276Y053201D01*
X041981Y052906D01*
X041981Y052831D01*
X039626Y052831D01*
X039469Y052674D01*
X039433Y052709D01*
X038437Y052709D01*
X037256Y052709D01*
X035221Y050674D01*
X033469Y050674D01*
D45*
X019896Y049704D02*
X019396Y049704D01*
X018896Y049704D02*
X018411Y049704D01*
X018396Y049704D01*
X018949Y048280D02*
X018896Y048227D01*
X018896Y047644D01*
X018396Y047644D02*
X018396Y046176D01*
X018752Y045819D01*
X019048Y045819D01*
X019146Y045721D01*
X019146Y045524D01*
X019933Y045524D02*
X019933Y045721D01*
X019933Y046508D01*
X019896Y046546D01*
X019896Y047644D01*
X019396Y047644D02*
X019396Y046857D01*
X019146Y046607D01*
X019146Y046508D01*
X015565Y046062D02*
X015565Y045585D01*
X015504Y045524D01*
X015565Y046062D02*
X015565Y047628D01*
X015209Y047985D01*
X015012Y047985D01*
X015012Y047197D02*
X015012Y047000D01*
X014565Y046554D01*
X014565Y046062D01*
X014065Y046062D02*
X014065Y045561D01*
X014028Y045524D01*
X014065Y046062D02*
X014065Y047038D01*
X014225Y047197D01*
X015065Y046062D02*
X015065Y045085D01*
X015012Y045032D01*
X015065Y044002D02*
X015565Y044002D01*
X014565Y044002D02*
X014065Y044002D01*
D46*
X013877Y044002D02*
X011272Y046607D01*
X011272Y047196D01*
X011272Y049166D02*
X012059Y049166D01*
X012597Y049704D01*
X016981Y049704D01*
X018214Y049704D01*
X016981Y049704D02*
X016981Y045229D01*
X015754Y044002D01*
X020078Y049704D02*
X023083Y049704D01*
X022780Y049400D01*
X022780Y046926D01*
X023083Y049704D02*
X026036Y049704D01*
X028739Y049704D01*
X029473Y048970D01*
X029473Y046926D01*
X028111Y043926D02*
X028111Y043367D01*
X026126Y046926D02*
X026126Y049613D01*
X026036Y049704D01*
X024764Y043926D02*
X024764Y043367D01*
X021418Y043367D02*
X021410Y043359D01*
X021418Y043367D02*
X021418Y043926D01*
X019540Y031449D02*
X010760Y031449D01*
X010760Y031430D01*
X009353Y030022D01*
X009205Y029874D01*
X009075Y029744D01*
X003802Y029744D01*
X003802Y033742D02*
X003871Y033811D01*
X004579Y033811D01*
X005859Y035091D01*
X005859Y035189D01*
X006154Y035189D01*
X003802Y037741D02*
X003989Y037928D01*
X003989Y037945D01*
X004087Y038044D01*
X005367Y038044D01*
X007532Y026134D02*
X007138Y025741D01*
X003806Y025741D01*
X003802Y025745D01*
X007532Y026134D02*
X017178Y026134D01*
X018752Y024559D01*
X018752Y011764D01*
X021115Y008418D02*
X021115Y029874D01*
X019540Y031449D01*
X005957Y017670D02*
X003880Y017670D01*
X003802Y017748D01*
X005957Y017670D02*
X012650Y010977D01*
X009697Y010780D02*
X006744Y013733D01*
X003819Y013733D01*
X003802Y013750D01*
X005563Y021213D02*
X015603Y011174D01*
X021115Y008418D02*
X024264Y005268D01*
X029087Y005268D01*
X029180Y005361D01*
X029180Y007237D01*
X029087Y005268D02*
X030367Y005268D01*
X030361Y005274D01*
X030367Y005268D02*
X038241Y005268D01*
X039028Y006056D01*
X039028Y007231D01*
X039022Y007237D01*
X035087Y007237D02*
X035087Y010579D01*
X035189Y010681D01*
X034008Y010681D01*
X005563Y021213D02*
X005170Y021607D01*
X005029Y021747D01*
X003802Y021747D01*
D47*
X024953Y010681D02*
X034008Y010681D01*
D48*
X024953Y010681D02*
X024461Y010681D01*
X023969Y011174D01*
X023969Y035485D01*
X025052Y036567D01*
X028004Y036567D01*
X029382Y037945D01*
X029382Y042079D01*
X028111Y043351D01*
X028111Y043367D01*
X024764Y043367D02*
X024764Y042185D01*
X017768Y035189D01*
X006154Y035189D01*
X005367Y038044D02*
X016095Y038044D01*
X021410Y043359D01*
X024264Y010780D02*
X024363Y010681D01*
X024461Y010681D01*
M02*
